<svg xmlns="http://www.w3.org/2000/svg" width="24" height="24"><path fill-rule="evenodd" d="M2 3.75C2 2.784 2.784 2 3.75 2h16.5c.966 0 1.75.784 1.75 1.75v16.5A1.75 1.75 0 0120.25 22H3.75A1.75 1.75 0 012 20.25V3.75zm9.505 1.437a.75.75 0 01.99 0l6.25 5.5A.75.75 0 0118.25 12h-2.5a.25.25 0 00-.25.25v2a.25.25 0 01-.25.25h-6.5a.25.25 0 01-.25-.25v-2a.25.25 0 00-.25-.25h-2.5a.75.75 0 01-.495-1.313l6.25-5.5zM8.5 18.25c0 .414.336.75.75.75h5.5a.75.75 0 00.75-.75v-1.5a.25.25 0 00-.25-.25h-6.5a.25.25 0 00-.25.25v1.5z"/></svg>