<svg xmlns="http://www.w3.org/2000/svg" width="24" height="24"><path fill-rule="evenodd" d="M12.495 5.687a.75.75 0 00-.99 0l-6.25 5.5A.75.75 0 005.75 12.5H8.5v5.25c0 .414.336.75.75.75h5.5a.75.75 0 00.75-.75V12.5h2.75a.75.75 0 00.495-1.313l-6.25-5.5zM7.739 11L12 7.25 16.262 11H14.75a.75.75 0 00-.75.75V14h-4v-2.25a.75.75 0 00-.75-.75H7.738zM10 15.5h4V17h-4v-1.5z"/><path fill-rule="evenodd" d="M2 3.75C2 2.784 2.784 2 3.75 2h16.5c.966 0 1.75.784 1.75 1.75v16.5A1.75 1.75 0 0120.25 22H3.75A1.75 1.75 0 012 20.25V3.75zm1.75-.25a.25.25 0 00-.25.25v16.5c0 .138.112.25.25.25h16.5a.25.25 0 00.25-.25V3.75a.25.25 0 00-.25-.25H3.75z"/></svg>