<svg xmlns="http://www.w3.org/2000/svg" width="24" height="24"><path d="M11 11v2h2v-2h-2zM9.5 9.5V8.25A1.25 1.25 0 108.25 9.5H9.5zm0 5H8.25a1.25 1.25 0 101.25 1.25V14.5zm5 0v1.25a1.25 1.25 0 101.25-1.25H14.5zm0-5h1.25a1.25 1.25 0 10-1.25-1.25V9.5z"/><path fill-rule="evenodd" d="M2 3.75C2 2.784 2.784 2 3.75 2h16.5c.966 0 1.75.784 1.75 1.75v16.5A1.75 1.75 0 0120.25 22H3.75A1.75 1.75 0 012 20.25V3.75zM8.25 5.5a2.75 2.75 0 000 5.5H9.5v2H8.25A2.75 2.75 0 1011 15.75V14.5h2v1.25A2.75 2.75 0 1015.75 13H14.5v-2h1.25A2.75 2.75 0 1013 8.25V9.5h-2V8.25A2.75 2.75 0 008.25 5.5zm1.25 4V8.25A1.25 1.25 0 108.25 9.5H9.5zM11 11v2h2v-2h-2zm-1.5 3.5H8.25a1.25 1.25 0 101.25 1.25V14.5zm5 0v1.25a1.25 1.25 0 101.25-1.25H14.5zm0-5h1.25a1.25 1.25 0 10-1.25-1.25V9.5z"/></svg>