<svg xmlns="http://www.w3.org/2000/svg" width="24" height="24"><path fill-rule="evenodd" d="M8.25 5.5a2.75 2.75 0 000 5.5H9.5v2H8.25A2.75 2.75 0 1011 15.75V14.5h2v1.25A2.75 2.75 0 1015.75 13H14.5v-2h1.25A2.75 2.75 0 1013 8.25V9.5h-2V8.25A2.75 2.75 0 008.25 5.5zM9.5 8.25V9.5H8.25A1.25 1.25 0 119.5 8.25zM11 13v-2h2v2h-2zm-2.75 1.5H9.5v1.25a1.25 1.25 0 11-1.25-1.25zm6.25 1.25V14.5h1.25a1.25 1.25 0 11-1.25 1.25zm1.25-6.25H14.5V8.25a1.25 1.25 0 111.25 1.25z"/><path fill-rule="evenodd" d="M3.75 2A1.75 1.75 0 002 3.75v16.5c0 .966.784 1.75 1.75 1.75h16.5A1.75 1.75 0 0022 20.25V3.75A1.75 1.75 0 0020.25 2H3.75zM3.5 3.75a.25.25 0 01.25-.25h16.5a.25.25 0 01.25.25v16.5a.25.25 0 01-.25.25H3.75a.25.25 0 01-.25-.25V3.75z"/></svg>