<svg xmlns="http://www.w3.org/2000/svg" width="24" height="24"><path d="M10.371 7.752a.792.792 0 00-1.119 1.12L12.38 12l-3.128 3.128a.791.791 0 101.119 1.119L13.5 13.12l3.128 3.129a.792.792 0 001.12-1.12l-3.128-3.128 3.128-3.13a.792.792 0 10-1.119-1.119L13.5 10.88l-3.129-3.128z"/><path fill-rule="evenodd" d="M6.837 3a1.75 1.75 0 00-1.528.898l-4.043 7.25a1.75 1.75 0 000 1.704l4.043 7.25A1.75 1.75 0 006.837 21H21.25A1.75 1.75 0 0023 19.25V4.75A1.75 1.75 0 0021.25 3H6.837zM6.62 4.628a.25.25 0 01.218-.128H21.25a.25.25 0 01.25.25v14.5a.25.25 0 01-.25.25H6.837a.25.25 0 01-.218-.128l-4.042-7.25a.25.25 0 010-.244l4.042-7.25z"/></svg>