<svg xmlns="http://www.w3.org/2000/svg" width="24" height="24"><path fill-rule="evenodd" d="M11.483 6.207a.75.75 0 011.034 0l5.25 5a.75.75 0 01-.517 1.293H6.75a.75.75 0 01-.517-1.293l5.25-5zM8.625 11h6.75L12 7.786 8.625 11zM6.75 14a.75.75 0 00-.75.75v2.5c0 .414.336.75.75.75h10.5a.75.75 0 00.75-.75v-2.5a.75.75 0 00-.75-.75H6.75zm.75 2.5v-1h9v1h-9z"/><path fill-rule="evenodd" d="M3.75 2A1.75 1.75 0 002 3.75v16.5c0 .966.784 1.75 1.75 1.75h16.5A1.75 1.75 0 0022 20.25V3.75A1.75 1.75 0 0020.25 2H3.75zM3.5 3.75a.25.25 0 01.25-.25h16.5a.25.25 0 01.25.25v16.5a.25.25 0 01-.25.25H3.75a.25.25 0 01-.25-.25V3.75z"/></svg>