<svg xmlns="http://www.w3.org/2000/svg" width="24" height="24"><path d="M11.78 10.97a.75.75 0 01-1.06 1.06L7.5 8.56v1.69a.75.75 0 11-1.5 0v-3.5A.75.75 0 016.75 6h3.5a.75.75 0 010 1.5H8.56l3.22 3.47z"/><path d="M14.286 6.451a.75.75 0 00-.572 1.387 4.502 4.502 0 11-5.876 5.876.75.75 0 00-1.387.572A6.002 6.002 0 0018 12a6.002 6.002 0 00-3.714-5.549z"/><path fill-rule="evenodd" d="M3.75 2A1.75 1.75 0 002 3.75v16.5c0 .966.784 1.75 1.75 1.75h16.5A1.75 1.75 0 0022 20.25V3.75A1.75 1.75 0 0020.25 2H3.75zM3.5 3.75a.25.25 0 01.25-.25h16.5a.25.25 0 01.25.25v16.5a.25.25 0 01-.25.25H3.75a.25.25 0 01-.25-.25V3.75z"/></svg>