<svg xmlns="http://www.w3.org/2000/svg" width="24" height="24"><path d="M12.75 7a.75.75 0 00-1.5 0v2.313a.75.75 0 001.5 0V7zm-4.76.88a.75.75 0 10-1.296.755l1.164 1.998a.75.75 0 001.296-.755L7.99 7.879zm9.316.755a.75.75 0 00-1.296-.756l-1.164 1.999a.75.75 0 001.296.755l1.164-1.998zM4.26 11.126a.75.75 0 00-.724 1.313l2.026 1.117a.75.75 0 00.724-1.313l-2.025-1.117zm16.204 1.314a.75.75 0 00-.725-1.314l-2.025 1.117a.75.75 0 00.724 1.313l2.026-1.117zM4.75 15.5a.75.75 0 000 1.5h14.5a.75.75 0 000-1.5H4.75z"/></svg>