<svg xmlns="http://www.w3.org/2000/svg" width="24" height="24"><path fill-rule="evenodd" d="M3.75 2A1.75 1.75 0 002 3.75v16.5c0 .966.784 1.75 1.75 1.75h16.5A1.75 1.75 0 0022 20.25V3.75A1.75 1.75 0 0020.25 2H3.75zM12 6.75a.75.75 0 01.75.75v1.36a.75.75 0 01-1.5 0V7.5a.75.75 0 01.75-.75zm6.157 3.404a.75.75 0 00-1.06-1.06l-.962.96a.75.75 0 101.06 1.061l.962-.961zM5.843 9.094a.75.75 0 011.06 0l.962.96a.75.75 0 11-1.06 1.061l-.962-.961a.75.75 0 010-1.06zM6 15.25a.75.75 0 01.75-.75h10.5a.75.75 0 010 1.5H6.75a.75.75 0 01-.75-.75z"/></svg>