<svg xmlns="http://www.w3.org/2000/svg" width="24" height="24"><path d="M6 15.25a.75.75 0 01.75-.75h10.5a.75.75 0 010 1.5H6.75a.75.75 0 01-.75-.75zm6.75-7.75a.75.75 0 00-1.5 0v1.36a.75.75 0 001.5 0V7.5zM6.904 9.093a.75.75 0 10-1.06 1.06l.96.962a.75.75 0 001.061-1.06l-.961-.962zm11.253 1.061a.75.75 0 00-1.06-1.06l-.962.96a.75.75 0 101.06 1.061l.962-.961z"/><path fill-rule="evenodd" d="M3.75 2A1.75 1.75 0 002 3.75v16.5c0 .966.784 1.75 1.75 1.75h16.5A1.75 1.75 0 0022 20.25V3.75A1.75 1.75 0 0020.25 2H3.75zM3.5 3.75a.25.25 0 01.25-.25h16.5a.25.25 0 01.25.25v16.5a.25.25 0 01-.25.25H3.75a.25.25 0 01-.25-.25V3.75z"/></svg>