<svg xmlns="http://www.w3.org/2000/svg" width="24" height="24"><path d="M7 6.75A.75.75 0 017.75 6h8.5a.75.75 0 010 1.5H12c.185 0 .37.068.514.204l4.25 4a.75.75 0 01-1.028 1.092L12 9.28l-3.736 3.516a.75.75 0 01-1.028-1.092l4.25-4a.748.748 0 01.513-.204H7.75A.75.75 0 017 6.75z"/><path fill-rule="evenodd" d="M3.75 2A1.75 1.75 0 002 3.75v16.5c0 .966.784 1.75 1.75 1.75h16.5A1.75 1.75 0 0022 20.25V3.75A1.75 1.75 0 0020.25 2H3.75zM3.5 3.75a.25.25 0 01.25-.25h16.5a.25.25 0 01.25.25v16.5a.25.25 0 01-.25.25H3.75a.25.25 0 01-.25-.25V3.75z"/></svg>