<svg xmlns="http://www.w3.org/2000/svg" width="24" height="24"><path d="M7.5 10.75a.75.75 0 00-1.5 0v2.5c0 .966.784 1.75 1.75 1.75h8.75a1.75 1.75 0 001.75-1.75v-2.5a.75.75 0 00-1.5 0v2.5a.25.25 0 01-.25.25H7.75a.25.25 0 01-.25-.25v-2.5z"/><path fill-rule="evenodd" d="M2 3.75C2 2.784 2.784 2 3.75 2h16.5c.966 0 1.75.784 1.75 1.75v16.5A1.75 1.75 0 0120.25 22H3.75A1.75 1.75 0 012 20.25V3.75zm1.75-.25a.25.25 0 00-.25.25v16.5c0 .138.112.25.25.25h16.5a.25.25 0 00.25-.25V3.75a.25.25 0 00-.25-.25H3.75z"/></svg>