<svg xmlns="http://www.w3.org/2000/svg" width="24" height="24"><path fill-rule="evenodd" d="M18.5 6.25a.75.75 0 00-.847-.744l-11.5 1.5a.75.75 0 00-.653.744v8.5c0 .377.28.695.653.744l11.5 1.5a.75.75 0 00.847-.744V6.25zm-6.25 5V7.724l4.75-.62v4.146h-4.75zm0 1.5H17v4.146l-4.75-.62V12.75zm-1.5 0v3.33L7 15.593V12.75h3.75zm0-1.5H7V8.409l3.75-.49v3.331z"/><path fill-rule="evenodd" d="M2 3.75C2 2.784 2.784 2 3.75 2h16.5c.966 0 1.75.784 1.75 1.75v16.5A1.75 1.75 0 0120.25 22H3.75A1.75 1.75 0 012 20.25V3.75zm1.75-.25a.25.25 0 00-.25.25v16.5c0 .138.112.25.25.25h16.5a.25.25 0 00.25-.25V3.75a.25.25 0 00-.25-.25H3.75z"/></svg>