<svg xmlns="http://www.w3.org/2000/svg" width="24" height="24"><path d="M3.5 2.75a.75.75 0 00-1.5 0v18.5c0 .414.336.75.75.75h18.5a.75.75 0 000-1.5H3.5V2.75z"/><path fill-rule="evenodd" d="M14.75 2a.75.75 0 000 1.5h1.5V6h-1.5a.75.75 0 00-.75.75v7.5c0 .414.336.75.75.75h1.5v2.5h-1.5a.75.75 0 000 1.5h4.5a.75.75 0 000-1.5h-1.5V15h1.5a.75.75 0 00.75-.75v-7.5a.75.75 0 00-.75-.75h-1.5V3.5h1.5a.75.75 0 000-1.5h-4.5zm.75 11.5v-6h3v6h-3zm-8.75-7a.75.75 0 000 1.5h1.5v1.5h-1.5a.75.75 0 00-.75.75v4c0 .414.336.75.75.75h1.5v1.5h-1.5a.75.75 0 000 1.5h4.5a.75.75 0 000-1.5h-1.5V15h1.5a.75.75 0 00.75-.75v-4a.75.75 0 00-.75-.75h-1.5V8h1.5a.75.75 0 000-1.5h-4.5zm.75 7V11h3v2.5h-3z"/></svg>