<svg xmlns="http://www.w3.org/2000/svg" width="24" height="24"><path fill-rule="evenodd" d="M6 2.75A.75.75 0 016.75 2h10.5a.75.75 0 01.75.75v5.5a.75.75 0 01-.75.75h-4.5v2h5.75a.75.75 0 01.75.75V15h3a.75.75 0 01.75.75v5.5a.75.75 0 01-.75.75h-7.5a.75.75 0 01-.75-.75v-5.5a.75.75 0 01.75-.75h3v-2.5H6.25V15h3a.75.75 0 01.75.75v5.5a.75.75 0 01-.75.75h-7.5a.75.75 0 01-.75-.75v-5.5a.75.75 0 01.75-.75h3v-3.25A.75.75 0 015.5 11h5.75V9h-4.5A.75.75 0 016 8.25v-5.5zm1.5.75v4h9v-4h-9zm-5 13v4h6v-4h-6zm13 4v-4h6v4h-6z"/></svg>