<svg xmlns="http://www.w3.org/2000/svg" width="24" height="24"><path d="M3.5 2.75a.75.75 0 00-1.5 0v18.5c0 .414.336.75.75.75h18.5a.75.75 0 000-1.5H3.5v-2.526c1.556-.163 2.594-1.09 3.31-2.294.759-1.28 1.203-2.952 1.603-4.491l.04-.156c.4-1.536.763-2.935 1.324-3.974C10.333 6.03 11 5.5 12 5.5c1.017 0 1.749.547 2.387 1.594.657 1.077 1.124 2.542 1.615 4.128l.048.153c.461 1.49.954 3.08 1.665 4.3C18.467 16.963 19.561 18 21.25 18a.75.75 0 000-1.5c-.936 0-1.623-.525-2.239-1.581-.624-1.07-1.072-2.517-1.56-4.088l-.016-.053c-.477-1.54-.995-3.199-1.767-4.465C14.876 5.015 13.733 4 12 4c-1.748 0-2.833 1.033-3.543 2.347-.65 1.204-1.054 2.764-1.433 4.224l-.062.24c-.413 1.586-.812 3.04-1.443 4.103-.51.861-1.132 1.403-2.019 1.547V2.75z"/></svg>