<svg xmlns="http://www.w3.org/2000/svg" width="24" height="24"><path fill-rule="evenodd" d="M12.43 2.136a.75.75 0 00-.86 0l-10 7.007a.75.75 0 00-.282.85l3.82 11.493A.75.75 0 005.82 22h12.36a.75.75 0 00.712-.514l3.82-11.492a.75.75 0 00-.282-.85l-10-7.008zM3.778 9.428L11.25 4.19v3.63l-5.117 2.194-2.355-.587zm1.405 1.896l-2.041-.51 2.914 8.768.746-1.087a1.007 1.007 0 01-.073-.213l-1.546-6.958zm3.19 7.533L7.244 20.5h9.512l-2.894-4.214-5.49 2.571zm6.427-3.855l3.145 4.58 2.913-8.767-5.101 1.271-.957 2.916zm.484-4.344l4.938-1.23L12.75 4.19v4.03l2.534 2.437z"/></svg>