<svg xmlns="http://www.w3.org/2000/svg" width="24" height="24"><path fill-rule="evenodd" d="M1 2.75A.75.75 0 011.75 2h20.5a.75.75 0 01.75.75v5a.75.75 0 01-.75.75H6.685l4.216 1.312a15.25 15.25 0 004.53.688h6.819a.75.75 0 01.75.75V15a.75.75 0 01-.75.75h-7.58a16.75 16.75 0 01-4.953-.749l-2.253-.697 2.122 1.273a15.25 15.25 0 007.846 2.173h4.818a.75.75 0 01.75.75v2.75a.75.75 0 01-.75.75h-5.751c-2.915 0-5.78-.76-8.31-2.207l-6.811-3.892A.75.75 0 011 15.25V2.75zm1.5 8.447l7.66 2.371c1.46.452 2.98.682 4.51.682h6.83V12h-6.069c-1.687 0-3.364-.255-4.975-.756L2.5 8.769v2.428zM2.5 7V3.5h19V7h-19zm0 6.075l6.314 3.788a16.75 16.75 0 008.618 2.387H21.5v1.25h-5.001a15.25 15.25 0 01-7.566-2.01L2.5 14.816v-1.74z"/></svg>