<svg xmlns="http://www.w3.org/2000/svg" width="24" height="24"><path fill-rule="evenodd" d="M16 20a8 8 0 100-16 8 8 0 000 16zm-8 0a7.963 7.963 0 005.358-2.06A7.98 7.98 0 0016 12a7.98 7.98 0 00-2.642-5.94A7.963 7.963 0 008 4a8 8 0 100 16zm8 0a8 8 0 100-16 8 8 0 000 16zm-8 0a7.963 7.963 0 005.358-2.06A7.98 7.98 0 0016 12a7.98 7.98 0 00-2.642-5.94A7.963 7.963 0 008 4a8 8 0 100 16z"/><path d="M8 4a8 8 0 104 14.93 8.021 8.021 0 01-1.358-.99A7.98 7.98 0 018 12a7.98 7.98 0 012.642-5.94c.415-.376.87-.708 1.358-.99A7.963 7.963 0 008 4zm8 16a8 8 0 10-4-14.93c.488.282.943.614 1.358.99A7.98 7.98 0 0116 12a7.98 7.98 0 01-2.642 5.94c-.415.376-.87.708-1.358.99A7.963 7.963 0 0016 20z"/></svg>