<svg xmlns="http://www.w3.org/2000/svg" width="24" height="24"><path d="M8.456 14.494a.75.75 0 011.068.17c.17.187.362.352.572.492A3.39 3.39 0 0012 15.72c.855 0 1.487-.283 1.904-.562.21-.14.402-.305.572-.492l.021-.026a.75.75 0 011.197.905l-.027.034c-.013.016-.03.038-.052.063-.044.05-.105.119-.184.198-.213.211-.445.4-.695.566A4.88 4.88 0 0112 17.22a4.88 4.88 0 01-2.736-.814 4.567 4.567 0 01-.695-.566 3.255 3.255 0 01-.236-.261c-.259-.332-.223-.825.123-1.085z"/><path fill-rule="evenodd" d="M12 1C5.925 1 1 5.925 1 12s4.925 11 11 11 11-4.925 11-11S18.075 1 12 1zM2.5 12a9.5 9.5 0 1119 0 9.5 9.5 0 01-19 0z"/><path d="M9 10.75a1.25 1.25 0 11-2.5 0 1.25 1.25 0 012.5 0zM16.25 12a1.25 1.25 0 100-2.5 1.25 1.25 0 000 2.5z"/></svg>