<svg xmlns="http://www.w3.org/2000/svg" width="24" height="24"><path d="M8.456 14.494a.75.75 0 011.068.17c.17.187.362.352.572.492A3.39 3.39 0 0012 15.72c.855 0 1.487-.283 1.904-.562.21-.14.402-.305.572-.492l.021-.026a.75.75 0 011.197.905l-.027.034-.01.012a4.066 4.066 0 01-.226.249c-.213.211-.445.4-.695.566A4.88 4.88 0 0112 17.22a4.88 4.88 0 01-2.736-.814 4.567 4.567 0 01-.695-.566 3.255 3.255 0 01-.236-.261c-.259-.332-.223-.825.123-1.085zm10.268-4.586a.75.75 0 01.107 1.056C18.313 11.6 17.569 12 16.75 12c-.826 0-1.548-.405-2.073-1.026a.75.75 0 011.146-.968c.295.35.623.494.927.494.312 0 .647-.15.919-.484a.75.75 0 011.055-.108zm-9.392 1.056a.75.75 0 10-1.164-.948c-.27.333-.606.484-.918.484-.304 0-.632-.145-.927-.494a.75.75 0 10-1.146.968C5.702 11.594 6.424 12 7.25 12c.818 0 1.563-.4 2.082-1.036z"/><path fill-rule="evenodd" d="M12 1C5.925 1 1 5.925 1 12s4.925 11 11 11 11-4.925 11-11S18.075 1 12 1zM2.5 12a9.5 9.5 0 1119 0 9.5 9.5 0 01-19 0z"/></svg>