<svg xmlns="http://www.w3.org/2000/svg" width="24" height="24"><path d="M8.634 11.634a1.25 1.25 0 10-1.768-1.768 1.25 1.25 0 001.768 1.768zm8.5 0a1.25 1.25 0 11-1.768-1.768 1.25 1.25 0 011.768 1.768zm-1.851 5.564a.75.75 0 00.27-.13c.346-.26.382-.753.123-1.085a3.259 3.259 0 00-.236-.26 4.572 4.572 0 00-.694-.567 4.88 4.88 0 00-2.737-.814 4.88 4.88 0 00-2.736.814 4.55 4.55 0 00-.694.566c-.08.08-.14.148-.184.198l-.043.051a7.951 7.951 0 01-.01.012l-.027.034a.75.75 0 001.197.905l.021-.026c.17-.187.362-.352.572-.492a3.375 3.375 0 011.904-.562c.677-.007 1.34.19 1.905.564.21.14.402.306.572.492a.751.751 0 00.797.3z"/><path fill-rule="evenodd" d="M1 12C1 5.925 5.925 1 12 1s11 4.925 11 11-4.925 11-11 11S1 18.075 1 12zm4.282-6.718a9.5 9.5 0 1013.435 13.435A9.5 9.5 0 005.282 5.282z"/></svg>