<svg xmlns="http://www.w3.org/2000/svg" width="24" height="24"><path d="M15.553 17.068a.75.75 0 01-1.068-.17 3.084 3.084 0 00-.571-.492 3.382 3.382 0 00-1.905-.564 3.38 3.38 0 00-1.904.562c-.21.14-.402.305-.572.492l-.02.026a.75.75 0 11-1.197-.905l.026-.034.01-.012c.012-.014.026-.032.043-.05.043-.05.104-.12.184-.199.212-.21.445-.4.694-.566a4.88 4.88 0 012.736-.814 4.88 4.88 0 012.736.814c.25.166.483.355.696.566.083.083.162.17.236.261.258.332.223.825-.123 1.085zm-6.329-7.16a.75.75 0 01.108 1.056C8.812 11.6 8.068 12 7.25 12c-.826 0-1.548-.405-2.073-1.026a.75.75 0 011.146-.968c.295.35.623.494.927.494.312 0 .647-.15.918-.484a.75.75 0 011.056-.108zm9.607 1.056a.75.75 0 10-1.162-.948c-.272.333-.607.484-.919.484-.304 0-.632-.145-.927-.494a.75.75 0 00-1.146.968c.525.62 1.247 1.026 2.073 1.026.818 0 1.563-.4 2.081-1.036z"/><path fill-rule="evenodd" d="M12 1C5.925 1 1 5.925 1 12s4.925 11 11 11 11-4.925 11-11S18.075 1 12 1zM2.5 12a9.5 9.5 0 1119 0 9.5 9.5 0 01-19 0z"/></svg>