<svg xmlns="http://www.w3.org/2000/svg" width="24" height="24"><path d="M19.222 8.139l2.135-2.094h-5.61a.728.728 0 01-.528-.232.812.812 0 01-.219-.558c0-.21.079-.41.219-.558a.728.728 0 01.528-.231h5.61L19.222 2.37a.826.826 0 01-.041-1.121.75.75 0 01.239-.18.714.714 0 01.823.148l3.52 3.46a.792.792 0 01.175.263.828.828 0 01-.175.891l-3.52 3.46a.724.724 0 01-.534.207.731.731 0 01-.517-.25.815.815 0 01-.201-.561.81.81 0 01.231-.55z"/><path fill-rule="evenodd" d="M9 6.5a3.5 3.5 0 100 7 3.5 3.5 0 000-7zM4 10a5 5 0 117.916 4.062 7.973 7.973 0 015.018 7.166.751.751 0 01-1.438.334.749.749 0 01-.061-.29 6.469 6.469 0 00-12.932 0 .75.75 0 01-1.499-.044 7.973 7.973 0 015.059-7.181A4.993 4.993 0 014 10z"/></svg>