<svg xmlns="http://www.w3.org/2000/svg" width="24" height="24"><path d="M1 12C1 5.925 5.925 1 12 1s11 4.925 11 11-4.925 11-11 11c-.252 0-.503-.009-.75-.025A7.222 7.222 0 0013 18.25c0-.779-.123-1.53-.35-2.233 2.403.128 4.62.964 6.443 2.303A9.464 9.464 0 0021.5 12a9.5 9.5 0 00-18.997-.234c-.534.268-1.03.6-1.478.985A11.164 11.164 0 011 12z"/><path d="M12 14a4.04 4.04 0 01-.39-.019 7.27 7.27 0 00-3.339-2.53A4 4 0 1112 14z"/><path fill-rule="evenodd" d="M11.5 18.25a5.75 5.75 0 11-11.5 0 5.75 5.75 0 0111.5 0zm-7.435-2.5c-1.069.001-1.815.896-1.815 2.083 0 1.243.922 2.229 1.645 2.827l.001.001a9.004 9.004 0 001.528 1.012l.002.001a.722.722 0 00.652-.003l.137-.073a8.987 8.987 0 001.387-.938l.002-.001c.722-.598 1.646-1.584 1.646-2.828 0-1.187-.745-2.081-1.814-2.081-.567 0-1.309.457-1.686.793-.376-.336-1.118-.792-1.685-.792z"/></svg>