<svg xmlns="http://www.w3.org/2000/svg" width="24" height="24"><path d="M1 12C1 5.925 5.925 1 12 1s11 4.925 11 11-4.925 11-11 11c-.252 0-.503-.009-.75-.025A7.222 7.222 0 0013 18.25c0-.779-.123-1.53-.35-2.233 2.403.128 4.62.964 6.443 2.303A9.464 9.464 0 0021.5 12a9.5 9.5 0 00-18.997-.234c-.534.268-1.03.6-1.478.985A11.164 11.164 0 011 12z"/><path d="M12 14a4.04 4.04 0 01-.39-.019 7.27 7.27 0 00-3.339-2.53A4 4 0 1112 14z"/><path fill-rule="evenodd" d="M11.5 18.25a5.75 5.75 0 11-11.5 0 5.75 5.75 0 0111.5 0zM6 16.5a.75.75 0 011.5 0v2.375a2.125 2.125 0 01-4.25 0v-.625a.75.75 0 00-1.5 0v.625a3.625 3.625 0 007.25 0V16.5a2.25 2.25 0 00-4.5 0v2.25a.75.75 0 001.5 0V16.5z"/></svg>