<svg xmlns="http://www.w3.org/2000/svg" width="24" height="24"><path d="M1 12C1 5.925 5.925 1 12 1s11 4.925 11 11-4.925 11-11 11c-.252 0-.503-.009-.75-.025A7.222 7.222 0 0013 18.25c0-.779-.123-1.53-.35-2.233 2.403.128 4.62.964 6.443 2.303A9.464 9.464 0 0021.5 12a9.5 9.5 0 00-18.997-.234c-.534.268-1.03.6-1.478.985A11.164 11.164 0 011 12z"/><path d="M12 14a4.04 4.04 0 01-.39-.019 7.27 7.27 0 00-3.339-2.53A4 4 0 1112 14zm-6.875 5.25a1.625 1.625 0 100-3.25 1.625 1.625 0 000 3.25z"/><path fill-rule="evenodd" d="M11.5 18.25a5.75 5.75 0 11-11.5 0 5.75 5.75 0 0111.5 0zm-6.375 2.5c.459 0 .895-.099 1.288-.277L7.72 21.78a.75.75 0 001.06-1.06l-1.183-1.183a3.125 3.125 0 10-2.472 1.213z"/></svg>