<svg xmlns="http://www.w3.org/2000/svg" width="24" height="24"><path fill-rule="evenodd" d="M5.75 24a5.75 5.75 0 100-11.5 5.75 5.75 0 000 11.5zm0-9.5a.75.75 0 01.75.75v2.25h2.25a.75.75 0 110 1.5H6.5v2.25a.75.75 0 11-1.5 0V19H2.75a.75.75 0 110-1.5H5v-2.25a.75.75 0 01.75-.75z"/><path d="M12 1C5.925 1 1 5.925 1 12c0 .252.008.503.025.75a7.264 7.264 0 011.478-.984 9.5 9.5 0 1116.59 6.554 11.938 11.938 0 00-6.443-2.303c.227.704.35 1.454.35 2.233 0 1.805-.66 3.456-1.75 4.725.247.016.498.025.75.025 6.075 0 11-4.925 11-11S18.075 1 12 1z"/><path d="M11.61 13.981a4 4 0 10-3.34-2.531 7.27 7.27 0 013.34 2.531z"/></svg>