<svg xmlns="http://www.w3.org/2000/svg" width="24" height="24"><path d="M12 1C5.925 1 1 5.925 1 12c0 .252.008.503.025.75a7.264 7.264 0 011.478-.984 9.5 9.5 0 1116.59 6.554 11.938 11.938 0 00-6.443-2.303c.227.704.35 1.454.35 2.233 0 1.805-.66 3.456-1.75 4.725.247.016.498.025.75.025 6.075 0 11-4.925 11-11S18.075 1 12 1z"/><path d="M11.61 13.981a4 4 0 10-3.34-2.531 7.27 7.27 0 013.34 2.531z"/><path fill-rule="evenodd" d="M11.5 18.25a5.75 5.75 0 11-11.5 0 5.75 5.75 0 0111.5 0zM5.75 22.5a4.23 4.23 0 002.428-.761l-5.917-5.917A4.25 4.25 0 005.75 22.5zm-2.428-7.739l5.917 5.917a4.25 4.25 0 00-5.917-5.917z"/></svg>