<svg xmlns="http://www.w3.org/2000/svg" width="24" height="24"><path fill-rule="evenodd" d="M16.95 2.463c-.736 0-1.518.688-1.518 1.661 0 1.172.861 2.27 1.845 3.126.536.463 1.112.873 1.722 1.228a11.457 11.457 0 001.723-1.229c.983-.855 1.846-1.955 1.846-3.127 0-.973-.781-1.66-1.517-1.66-.519 0-.95.232-1.266.63-.4.504-1.17.504-1.57 0-.315-.398-.746-.629-1.265-.629zM14 4.124c0-1.78 1.423-3.122 2.95-3.123.81 0 1.512.31 2.05.814A2.958 2.958 0 0121.052 1c1.527 0 2.95 1.341 2.949 3.122 0 1.865-1.32 3.344-2.352 4.241l-.002.002a12.867 12.867 0 01-1.981 1.407h-.001a8.897 8.897 0 01-.239.131.99.99 0 01-.887-.017l-.004-.002a12.841 12.841 0 01-2.182-1.518l-.003-.001C15.318 7.467 14 5.989 14 4.125zM9 6.5a3.5 3.5 0 100 7 3.5 3.5 0 000-7zM4 10a5 5 0 117.916 4.062 7.973 7.973 0 015.018 7.166.751.751 0 01-1.438.334.749.749 0 01-.061-.29 6.469 6.469 0 00-12.932 0 .75.75 0 01-1.499-.044 7.973 7.973 0 015.059-7.181A4.993 4.993 0 014 10z"/></svg>