<svg xmlns="http://www.w3.org/2000/svg" width="24" height="24"><path d="M2 3.75C2 2.784 2.784 2 3.75 2h16.5c.966 0 1.75.784 1.75 1.75v16.5A1.75 1.75 0 0120.25 22h-8.294A7.216 7.216 0 0013 18.25c0-.776-.122-1.523-.347-2.224a8.004 8.004 0 016.543 4.474h1.054a.25.25 0 00.25-.25V3.75a.25.25 0 00-.25-.25H3.75a.25.25 0 00-.25.25v7.606a7.215 7.215 0 00-1.5.688V3.75z"/><path d="M12 14a4.04 4.04 0 01-.39-.019 7.27 7.27 0 00-3.339-2.53A4 4 0 1112 14z"/><path fill-rule="evenodd" d="M5.75 24a5.75 5.75 0 100-11.5 5.75 5.75 0 000 11.5zm-1.107-4.955l1.635 1.594a.81.81 0 01.231.549.815.815 0 01-.2.562.731.731 0 01-.518.25.725.725 0 01-.534-.207l-3.02-2.961a.827.827 0 010-1.154l3.02-2.96a.713.713 0 011.062.033.83.83 0 01.132.87.789.789 0 01-.173.25l-1.635 1.595h4.11a.73.73 0 01.528.23.818.818 0 010 1.117.728.728 0 01-.528.232h-4.11z"/></svg>