<svg xmlns="http://www.w3.org/2000/svg" width="24" height="24"><path d="M2 3.75C2 2.784 2.784 2 3.75 2h16.5c.966 0 1.75.784 1.75 1.75v16.5A1.75 1.75 0 0120.25 22h-8.294A7.216 7.216 0 0013 18.25c0-.776-.122-1.523-.347-2.224a8.004 8.004 0 016.543 4.474h1.054a.25.25 0 00.25-.25V3.75a.25.25 0 00-.25-.25H3.75a.25.25 0 00-.25.25v7.606a7.215 7.215 0 00-1.5.688V3.75z"/><path d="M12 14a4.04 4.04 0 01-.39-.019 7.27 7.27 0 00-3.339-2.53A4 4 0 1112 14z"/><path fill-rule="evenodd" d="M5.75 24a5.75 5.75 0 100-11.5 5.75 5.75 0 000 11.5zm-.25-8.25c-.856 0-1.34.372-1.463.916a.75.75 0 11-1.463-.332c.332-1.46 1.64-2.084 2.926-2.084.768 0 1.481.233 2.018.605.515.357.982.932.982 1.645 0 .489-.144.893-.39 1.224-.233.311-.53.522-.769.674-.115.074-.209.13-.292.18a4.381 4.381 0 00-.337.216c-.162.117-.25.212-.3.307a.75.75 0 01-1.325-.702c.2-.377.488-.634.748-.822.158-.114.36-.236.52-.333l.179-.11c.198-.127.307-.219.373-.306A.501.501 0 007 16.5c0-.105-.037-.205-.336-.412A2.076 2.076 0 005.5 15.75zm.25 4.75a1 1 0 110 2 1 1 0 010-2z"/></svg>