<svg xmlns="http://www.w3.org/2000/svg" width="24" height="24"><path d="M1 12C1 5.925 5.925 1 12 1s11 4.925 11 11-4.925 11-11 11c-.252 0-.503-.009-.75-.025A7.222 7.222 0 0013 18.25c0-.779-.123-1.53-.35-2.233 2.403.128 4.62.964 6.443 2.303A9.464 9.464 0 0021.5 12a9.5 9.5 0 00-18.997-.234c-.534.268-1.03.6-1.478.985A11.164 11.164 0 011 12z"/><path d="M12 14a4.04 4.04 0 01-.39-.019 7.27 7.27 0 00-3.339-2.53A4 4 0 1112 14z"/><path fill-rule="evenodd" d="M11.5 18.25a5.75 5.75 0 11-11.5 0 5.75 5.75 0 0111.5 0zm-6.857.795l1.635 1.594a.81.81 0 01.231.549.815.815 0 01-.2.562.731.731 0 01-.518.25.725.725 0 01-.534-.207l-3.02-2.961a.827.827 0 010-1.154l3.02-2.96a.713.713 0 011.062.033.83.83 0 01.132.87.789.789 0 01-.173.25l-1.635 1.595h4.11a.73.73 0 01.528.23.818.818 0 010 1.117.728.728 0 01-.528.232h-4.11z"/></svg>