<svg xmlns="http://www.w3.org/2000/svg" width="24" height="24"><path d="M1 12C1 5.925 5.925 1 12 1s11 4.925 11 11-4.925 11-11 11c-.252 0-.503-.009-.75-.025A7.222 7.222 0 0013 18.25c0-.779-.123-1.53-.35-2.233 2.403.128 4.62.964 6.443 2.303A9.464 9.464 0 0021.5 12a9.5 9.5 0 00-18.997-.234c-.534.268-1.03.6-1.478.985A11.164 11.164 0 011 12z"/><path d="M12 14a4.04 4.04 0 01-.39-.019 7.27 7.27 0 00-3.339-2.53A4 4 0 1112 14z"/><path fill-rule="evenodd" d="M11.5 18.25a5.75 5.75 0 11-11.5 0 5.75 5.75 0 0111.5 0zm-6-2.5c-.856 0-1.34.372-1.463.916a.75.75 0 11-1.463-.332c.332-1.46 1.64-2.084 2.926-2.084.768 0 1.481.233 2.018.605.515.357.982.932.982 1.645 0 .489-.144.893-.39 1.224-.233.311-.53.522-.769.674-.115.074-.209.13-.292.18a4.381 4.381 0 00-.337.216c-.162.117-.25.212-.3.307a.75.75 0 01-1.325-.702c.2-.377.488-.634.748-.822.158-.114.36-.236.52-.333l.179-.11c.198-.127.307-.219.373-.306A.501.501 0 007 16.5c0-.105-.037-.205-.336-.412A2.076 2.076 0 005.5 15.75zm.25 4.75a1 1 0 110 2 1 1 0 010-2z"/></svg>