<svg xmlns="http://www.w3.org/2000/svg" width="24" height="24"><path d="M2 3.75C2 2.784 2.784 2 3.75 2h16.5c.966 0 1.75.784 1.75 1.75v16.5A1.75 1.75 0 0120.25 22h-8.294A7.216 7.216 0 0013 18.25c0-.776-.122-1.523-.347-2.224a8.004 8.004 0 016.543 4.474h1.054a.25.25 0 00.25-.25V3.75a.25.25 0 00-.25-.25H3.75a.25.25 0 00-.25.25v7.606a7.215 7.215 0 00-1.5.688V3.75z"/><path d="M12 14a4.04 4.04 0 01-.39-.019 7.27 7.27 0 00-3.339-2.53A4 4 0 1112 14z"/><path fill-rule="evenodd" d="M5.75 24a5.75 5.75 0 100-11.5 5.75 5.75 0 000 11.5zM6 16.5a.75.75 0 011.5 0v2.375a2.125 2.125 0 01-4.25 0v-.625a.75.75 0 00-1.5 0v.625a3.625 3.625 0 007.25 0V16.5a2.25 2.25 0 00-4.5 0v2.25a.75.75 0 001.5 0V16.5z"/></svg>