<svg xmlns="http://www.w3.org/2000/svg" width="24" height="24"><path fill-rule="evenodd" d="M5.75 24a5.75 5.75 0 100-11.5 5.75 5.75 0 000 11.5zm-.795-4.393l-1.594-1.385a.81.81 0 00-.549-.231.815.815 0 00-.561.2.731.731 0 00-.25.518.724.724 0 00.206.534l2.961 2.77a.791.791 0 00.262.175.828.828 0 00.892-.175l2.96-2.77a.712.712 0 00.148-.823.75.75 0 00-.18-.239.83.83 0 00-.87-.132.789.789 0 00-.252.173l-1.594 1.385v-4.36a.728.728 0 00-.23-.528.812.812 0 00-.56-.219.81.81 0 00-.557.219.728.728 0 00-.232.528v4.36z"/><path d="M3.75 2A1.75 1.75 0 002 3.75v8.294c.468-.284.97-.515 1.5-.688V3.75a.25.25 0 01.25-.25h16.5a.25.25 0 01.25.25v16.5a.25.25 0 01-.25.25h-1.054a8.004 8.004 0 00-6.543-4.474c.225.701.347 1.448.347 2.224A7.216 7.216 0 0111.956 22h8.294A1.75 1.75 0 0022 20.25V3.75A1.75 1.75 0 0020.25 2H3.75z"/><path d="M11.61 13.981a4 4 0 10-3.34-2.531 7.27 7.27 0 013.34 2.531z"/></svg>