<svg xmlns="http://www.w3.org/2000/svg" width="24" height="24"><path d="M19.194 2.529a1.558 1.558 0 00-1.035.185 1.51 1.51 0 00-.669.797.77.77 0 01-.977.46.748.748 0 01-.47-.96 3.02 3.02 0 011.339-1.593 3.117 3.117 0 012.071-.37 3.08 3.08 0 011.827 1.026A2.97 2.97 0 0122 4.013c0 1.15-.87 1.909-1.49 2.315a5.92 5.92 0 01-.574.329.643.643 0 00-.163.097.24.24 0 00-.058.093c-.013.04-.013.085-.013.178v.223a.76.76 0 01-.767.752.76.76 0 01-.767-.752v-.982c0-.323.21-.61.523-.713 0 0 .198-.074.292-.115.189-.082.435-.204.676-.361.528-.345.808-.713.808-1.065a1.49 1.49 0 00-.36-.97 1.539 1.539 0 00-.913-.513zM19 9a1 1 0 110 2 1 1 0 010-2z"/><path fill-rule="evenodd" d="M9 6.5a3.5 3.5 0 100 7 3.5 3.5 0 000-7zM4 10a5 5 0 117.916 4.062 7.973 7.973 0 015.018 7.166.751.751 0 01-1.438.334.749.749 0 01-.061-.29 6.469 6.469 0 00-12.932 0 .75.75 0 01-1.499-.044 7.973 7.973 0 015.059-7.181A4.993 4.993 0 014 10z"/></svg>