<svg xmlns="http://www.w3.org/2000/svg" width="24" height="24"><path fill-rule="evenodd" d="M5.75 24a5.75 5.75 0 100-11.5 5.75 5.75 0 000 11.5zm-.795-6.857l-1.594 1.385a.81.81 0 01-.549.231.815.815 0 01-.561-.2.731.731 0 01-.25-.518.724.724 0 01.206-.534l2.961-2.77a.791.791 0 01.262-.175.828.828 0 01.892.175l2.96 2.77a.712.712 0 01.148.823.75.75 0 01-.18.239.83.83 0 01-.87.132.789.789 0 01-.252-.173l-1.594-1.385v4.36a.728.728 0 01-.23.528.812.812 0 01-.56.219.812.812 0 01-.557-.219.728.728 0 01-.232-.528v-4.36z"/><path d="M12 1C5.925 1 1 5.925 1 12c0 .252.008.503.025.75a7.264 7.264 0 011.478-.984 9.5 9.5 0 1116.59 6.554 11.938 11.938 0 00-6.443-2.303c.227.704.35 1.454.35 2.233 0 1.805-.66 3.456-1.75 4.725.247.016.498.025.75.025 6.075 0 11-4.925 11-11S18.075 1 12 1z"/><path d="M11.61 13.981a4 4 0 10-3.34-2.531 7.27 7.27 0 013.34 2.531z"/></svg>