<svg xmlns="http://www.w3.org/2000/svg" width="24" height="24"><path d="M16.22 2.22a.75.75 0 011.06 0l2.22 2.22 2.22-2.22a.75.75 0 111.06 1.06L20.56 5.5l2.22 2.22a.75.75 0 01-1.06 1.06L19.5 6.56l-2.22 2.22a.75.75 0 11-1.06-1.06l2.22-2.22-2.22-2.22a.75.75 0 010-1.06z"/><path fill-rule="evenodd" d="M9 6.5a3.5 3.5 0 100 7 3.5 3.5 0 000-7zM4 10a5 5 0 117.916 4.062 7.973 7.973 0 015.018 7.166.751.751 0 01-1.438.334.749.749 0 01-.061-.29 6.469 6.469 0 00-12.932 0 .75.75 0 01-1.499-.044 7.973 7.973 0 015.059-7.181A4.993 4.993 0 014 10z"/></svg>