<svg xmlns="http://www.w3.org/2000/svg" width="24" height="24"><path fill-rule="evenodd" d="M9 6.5a3.5 3.5 0 100 7 3.5 3.5 0 000-7zM4 10a5 5 0 117.916 4.062 7.973 7.973 0 015.018 7.166.751.751 0 01-1.438.334.749.749 0 01-.061-.29 6.469 6.469 0 00-12.932 0 .75.75 0 01-1.499-.044 7.973 7.973 0 015.059-7.181A4.993 4.993 0 014 10zm12.312-8.676A4.48 4.48 0 0015 4.5a4.5 4.5 0 007.676 3.188l.012-.012A4.48 4.48 0 0024 4.5a4.5 4.5 0 00-7.688-3.176zm.599 1.66a3 3 0 004.106 4.106L16.91 2.982zm5.17 3.048L17.967 1.92a3 3 0 014.112 4.112z"/></svg>