<svg xmlns="http://www.w3.org/2000/svg" width="24" height="24"><path d="M3.75 2A1.75 1.75 0 002 3.75v8.294c.468-.284.97-.515 1.5-.688V3.75a.25.25 0 01.25-.25h16.5a.25.25 0 01.25.25v16.5a.25.25 0 01-.25.25h-1.054a8.004 8.004 0 00-6.543-4.474c.225.701.347 1.448.347 2.224A7.216 7.216 0 0111.956 22h8.294A1.75 1.75 0 0022 20.25V3.75A1.75 1.75 0 0020.25 2H3.75z"/><path d="M11.61 13.981a4 4 0 10-3.34-2.531 7.27 7.27 0 013.34 2.531z"/><path fill-rule="evenodd" d="M5.75 24a5.75 5.75 0 100-11.5 5.75 5.75 0 000 11.5zm-1.97-2.72a.75.75 0 01-1.06-1.06l1.97-1.97-1.97-1.97a.75.75 0 111.06-1.06l1.97 1.97 1.97-1.97a.75.75 0 011.06 1.06l-1.97 1.97 1.97 1.97a.75.75 0 11-1.06 1.06l-1.97-1.97-1.97 1.97z"/></svg>