<svg xmlns="http://www.w3.org/2000/svg" width="24" height="24"><path fill-rule="evenodd" d="M2 3.75C2 2.784 2.784 2 3.75 2h16.5c.966 0 1.75.784 1.75 1.75v16.5A1.75 1.75 0 0120.25 22h-8.294A7.216 7.216 0 0013 18.25c0-.776-.122-1.523-.347-2.224a8.004 8.004 0 016.543 4.474h1.054a.25.25 0 00.25-.25V3.75a.25.25 0 00-.25-.25H3.75a.25.25 0 00-.25.25v7.606a7.215 7.215 0 00-1.5.688V3.75zM12 14a4.04 4.04 0 01-.39-.019 7.27 7.27 0 00-3.339-2.53A4 4 0 1112 14zM5.75 24a5.75 5.75 0 100-11.5 5.75 5.75 0 000 11.5zM3.5 16.5v1h-.25a1 1 0 00-1 1v2a1 1 0 001 1h5a1 1 0 001-1v-2a1 1 0 00-1-1H8v-1a2.25 2.25 0 00-4.5 0zm2.25-.75a.75.75 0 00-.75.75v1h1.5v-1a.75.75 0 00-.75-.75z"/></svg>