<svg xmlns="http://www.w3.org/2000/svg" width="24" height="24"><path d="M2 3.75C2 2.784 2.784 2 3.75 2h16.5c.966 0 1.75.784 1.75 1.75v16.5A1.75 1.75 0 0120.25 22h-8.294A7.216 7.216 0 0013 18.25c0-.776-.122-1.523-.347-2.224a8.004 8.004 0 016.543 4.474h1.054a.25.25 0 00.25-.25V3.75a.25.25 0 00-.25-.25H3.75a.25.25 0 00-.25.25v7.606a7.215 7.215 0 00-1.5.688V3.75z"/><path d="M12 14a4.04 4.04 0 01-.39-.019 7.27 7.27 0 00-3.339-2.53A4 4 0 1112 14z"/><path fill-rule="evenodd" d="M5.75 24a5.75 5.75 0 100-11.5 5.75 5.75 0 000 11.5zm-1.685-8.25c-1.069.001-1.815.896-1.815 2.083 0 1.243.922 2.229 1.645 2.827l.001.001a9.004 9.004 0 001.528 1.012l.002.001a.722.722 0 00.652-.003l.137-.073a8.987 8.987 0 001.387-.938l.002-.001c.722-.598 1.646-1.584 1.646-2.828 0-1.187-.745-2.081-1.814-2.081-.567 0-1.309.457-1.686.793-.376-.336-1.118-.792-1.685-.792z"/></svg>