<svg xmlns="http://www.w3.org/2000/svg" width="24" height="24"><path fill-rule="evenodd" d="M6.704 5.153a.75.75 0 01.143 1.05l-4.29 5.646a.25.25 0 000 .302l4.29 5.645a.75.75 0 11-1.194.908l-4.29-5.645a1.75 1.75 0 010-2.118l4.29-5.645a.75.75 0 011.05-.143zm10.592 0a.75.75 0 00-.143 1.05l4.29 5.646a.25.25 0 010 .302l-4.29 5.645a.75.75 0 001.194.908l4.29-5.645a1.75 1.75 0 000-2.118l-4.29-5.645a.75.75 0 00-1.05-.143zM8.22 8.22a.75.75 0 011.06 0L12 10.94l2.72-2.72a.75.75 0 111.06 1.06L13.06 12l2.72 2.72a.75.75 0 11-1.06 1.06L12 13.06l-2.72 2.72a.75.75 0 01-1.06-1.06L10.94 12 8.22 9.28a.75.75 0 010-1.06z"/></svg>