<svg xmlns="http://www.w3.org/2000/svg" width="24" height="24"><path fill-rule="evenodd" d="M6.704 5.153a.75.75 0 01.143 1.05l-4.29 5.646a.25.25 0 000 .302l4.29 5.645a.75.75 0 11-1.194.908l-4.29-5.645a1.75 1.75 0 010-2.118l4.29-5.645a.75.75 0 011.05-.143zm10.592 0a.75.75 0 00-.143 1.05l4.29 5.646a.25.25 0 010 .302l-4.29 5.645a.75.75 0 001.194.908l4.29-5.645a1.75 1.75 0 000-2.118l-4.29-5.645a.75.75 0 00-1.05-.143zM7.25 10.75a1.25 1.25 0 100 2.5 1.25 1.25 0 000-2.5zm4.75 0a1.25 1.25 0 100 2.5 1.25 1.25 0 000-2.5zM15.5 12a1.25 1.25 0 112.5 0 1.25 1.25 0 01-2.5 0z"/></svg>