<svg xmlns="http://www.w3.org/2000/svg" width="24" height="24"><path d="M15.22 15.72l3.22-2.97H12v-1.5h6.44l-3.22-2.97a.751.751 0 111.06-1.06l4.5 4.25a.75.75 0 010 1.06l-4.5 4.25a.75.75 0 11-1.06-1.06z"/><path fill-rule="evenodd" d="M0 4.75C0 3.784.784 3 1.75 3h20.5c.966 0 1.75.784 1.75 1.75v14.5A1.75 1.75 0 0122.25 21H1.75A1.75 1.75 0 010 19.25V4.75zm22.5 14.5a.25.25 0 01-.25.25H12v-6.75H5.56l3.22 2.97a.75.75 0 01-1.06 1.06l-4.5-4.25a.75.75 0 010-1.06l4.5-4.25a.75.75 0 011.06 1.06l-3.22 2.97H12V4.5h10.25a.25.25 0 01.25.25v14.5z"/></svg>