<svg xmlns="http://www.w3.org/2000/svg" width="24" height="24"><path fill-rule="evenodd" d="M12 1.002a1.75 1.75 0 00-.4.047c-.302.07-.568.245-.818.408l-.063.04-.001.002-8.649 5.649a30.25 30.25 0 01-.053.034c-.211.137-.437.283-.609.489a1.75 1.75 0 00-.33.607C1 8.534 1 8.803 1 9.055v5.64c0 .252-.001.521.077.777.069.222.18.429.33.607.172.206.398.352.61.489l.045.03 8.643 5.9.014.01.063.041c.25.163.516.337.818.408a1.748 1.748 0 00.8 0c.302-.07.568-.245.818-.408.02-.014.042-.027.063-.04l.014-.01 8.643-5.901.046-.03c.211-.137.438-.283.609-.489a1.75 1.75 0 00.33-.607c.078-.256.078-.525.077-.777v-5.64c0-.252.001-.521-.077-.777a1.75 1.75 0 00-.33-.607c-.171-.206-.398-.352-.61-.489l-.052-.034-8.649-5.65h-.001l-.063-.041c-.25-.163-.516-.337-.818-.408a1.75 1.75 0 00-.4-.047zm8.242 7.488c.161-.114.242-.17.269-.241a.25.25 0 00-.004-.19c-.03-.069-.112-.123-.277-.23l-7.48-4.886v5.396l4.058 2.585 3.434-2.434zm-4.756 3.37L12 9.64l-3.486 2.22 3.255 2.307a.586.586 0 00.17.1c.04.01.082.01.122 0a.586.586 0 00.17-.1l3.255-2.307zm-4.236 3.778L7.147 12.73l-3.673 2.34c-.17.11-.256.163-.286.233a.25.25 0 00-.004.193c.029.07.112.128.28.242l7.786 5.316v-5.416zm1.5 5.416l7.786-5.316c.168-.114.251-.171.28-.242a.25.25 0 00-.004-.193c-.03-.07-.115-.124-.286-.233l-3.673-2.34-4.103 2.908v5.416zm8.75-7.142l-3.326-2.118L21.5 9.437v4.475zm-19 0V9.437l3.326 2.357L2.5 13.912zm4.692-2.988l4.058-2.585V2.943L3.77 7.829c-.165.107-.247.161-.277.23a.25.25 0 00-.004.19c.027.07.108.127.268.24l3.435 2.435z"/></svg>