<svg xmlns="http://www.w3.org/2000/svg" width="24" height="24"><path d="M6.8 3.24a.75.75 0 01-.04 1.06L3.852 7 6.76 9.7a.75.75 0 01-1.02 1.1l-3.5-3.25a.75.75 0 010-1.1l3.5-3.25a.75.75 0 011.06.04zm3.44 1.06a.75.75 0 111.02-1.1l3.5 3.25a.752.752 0 010 1.1l-3.5 3.25a.75.75 0 11-1.02-1.1L13.148 7 10.24 4.3z"/><path fill-rule="evenodd" d="M17 3.75a.75.75 0 01.75-.75h3.5c.966 0 1.75.784 1.75 1.75v14.5A1.75 1.75 0 0121.25 21H2.75A1.75 1.75 0 011 19.25v-6.5a.75.75 0 011.5 0v6.5c0 .138.112.25.25.25h18.5a.25.25 0 00.25-.25V4.75a.25.25 0 00-.25-.25h-3.5a.75.75 0 01-.75-.75z"/></svg>