<svg xmlns="http://www.w3.org/2000/svg" width="24" height="24"><path d="M9.805 12.255a.75.75 0 10-1.11-1.01l-2.5 2.75a.75.75 0 000 1.01l2.5 2.75a.75.75 0 101.11-1.01L7.764 14.5l2.04-2.245zm5.5-1.01a.75.75 0 00-1.11 1.01l2.041 2.245-2.041 2.245a.75.75 0 001.11 1.01l2.5-2.75a.75.75 0 000-1.01l-2.5-2.75z"/><path fill-rule="evenodd" d="M2.75 2A1.75 1.75 0 001 3.75v16.5c0 .966.784 1.75 1.75 1.75h18.5A1.75 1.75 0 0023 20.25V3.75A1.75 1.75 0 0021.25 2H2.75zM2.5 3.75a.25.25 0 01.25-.25h18.5a.25.25 0 01.25.25v3.5h-19v-3.5zm0 5h19v11.5a.25.25 0 01-.25.25H2.75a.25.25 0 01-.25-.25V8.75z"/></svg>