<svg xmlns="http://www.w3.org/2000/svg" width="24" height="24"><path d="M2.002 6.036C2.002 4.276 3.66 3 5.25 3a.75.75 0 010 1.5c-.936 0-1.748.77-1.748 1.536v4.821a.75.75 0 01-.186.495L2.748 12l.568.649a.75.75 0 01.186.494v4.821c0 .767.812 1.536 1.748 1.536a.75.75 0 010 1.5c-1.59 0-3.248-1.276-3.248-3.036v-4.388c0-.056 0-.084-.005-.11a.249.249 0 00-.026-.067.5.5 0 00-.068-.087l-.717-.817a.75.75 0 010-.99l.717-.817a.5.5 0 00.068-.087.249.249 0 00.026-.067c.005-.026.005-.054.005-.11V6.036zm19.995 0C21.997 4.276 20.34 3 18.75 3a.75.75 0 000 1.5c.936 0 1.747.77 1.747 1.536v4.821a.75.75 0 00.187.495l.568.648-.568.649a.75.75 0 00-.187.494v4.821c0 .767-.81 1.536-1.747 1.536a.75.75 0 000 1.5c1.59 0 3.247-1.276 3.247-3.036v-4.388c0-.056 0-.084.006-.11a.25.25 0 01.026-.067.5.5 0 01.068-.087l.717-.817a.75.75 0 000-.99l-.717-.817a.5.5 0 01-.068-.087.25.25 0 01-.026-.067c-.006-.026-.006-.054-.006-.11V6.036z"/><path d="M7.25 10.75a1.25 1.25 0 100 2.5 1.25 1.25 0 000-2.5zm4.75 0a1.25 1.25 0 100 2.5 1.25 1.25 0 000-2.5zm4.75 0a1.25 1.25 0 100 2.5 1.25 1.25 0 000-2.5z"/></svg>