<svg xmlns="http://www.w3.org/2000/svg" width="24" height="24"><path d="M5.25 3C3.66 3 2.002 4.277 2.002 6.036v4.388c0 .056 0 .084-.005.11a.249.249 0 01-.026.067.5.5 0 01-.068.087l-.717.817a.75.75 0 000 .99l.717.817a.5.5 0 01.068.087c.012.02.02.043.026.067a.532.532 0 01.005.11v4.388C2.002 19.724 3.66 21 5.25 21a.75.75 0 000-1.5c-.936 0-1.748-.77-1.748-1.536v-4.821a.75.75 0 00-.186-.495L2.748 12l.568-.649a.75.75 0 00.186-.494V6.036c0-.767.812-1.536 1.748-1.536a.75.75 0 000-1.5zm13.5 0c1.59 0 3.247 1.277 3.247 3.036v4.388c0 .056 0 .084.006.11a.25.25 0 00.026.067.5.5 0 00.068.087l.717.817a.75.75 0 010 .99l-.717.817a.5.5 0 00-.068.087.25.25 0 00-.026.067c-.006.026-.006.054-.006.11v4.388c0 1.76-1.657 3.036-3.247 3.036a.75.75 0 010-1.5c.936 0 1.747-.77 1.747-1.536v-4.821a.75.75 0 01.187-.495l.568-.648-.568-.649a.75.75 0 01-.187-.494V6.036c0-.767-.81-1.536-1.747-1.536a.75.75 0 010-1.5z"/></svg>