<svg xmlns="http://www.w3.org/2000/svg" width="24" height="24"><path fill-rule="evenodd" d="M3.964 4.38c-.408.325-.464.543-.464.62 0 .077.056.295.464.62.391.313.998.633 1.8.92 1.597.572 3.822.96 6.236.96 2.414 0 4.639-.388 6.236-.96.802-.287 1.409-.607 1.8-.92.408-.325.464-.543.464-.62 0-.077-.056-.295-.464-.62-.391-.313-.998-.633-1.8-.92C16.64 2.888 14.414 2.5 12 2.5c-2.414 0-4.639.388-6.236.96-.802.287-1.409.607-1.8.92zM20.5 7.125a9.058 9.058 0 01-1.758.826C16.957 8.592 14.557 9 12 9c-2.557 0-4.957-.409-6.742-1.048A9.058 9.058 0 013.5 7.126V11c0 .08.057.298.462.623.388.312.991.632 1.791.918 1.593.572 3.818.959 6.247.959 2.43 0 4.654-.387 6.247-.959.8-.286 1.403-.606 1.791-.918.405-.325.462-.543.462-.623V7.126zM22 5v6c0 .75-.474 1.353-1.023 1.793-.565.454-1.337.842-2.224 1.16-1.607.577-3.718.965-6.003 1.035v2.616c.916.259 1.637.98 1.896 1.896h6.604a.75.75 0 010 1.5h-6.604a2.751 2.751 0 01-5.292 0H2.75a.75.75 0 010-1.5h6.604a2.756 2.756 0 011.896-1.896v-2.616c-2.285-.07-4.396-.458-6.003-1.034-.888-.319-1.66-.708-2.224-1.161C2.474 12.353 2 11.75 2 11V5c0-.751.479-1.354 1.028-1.793.567-.453 1.341-.841 2.23-1.16C7.043 1.41 9.443 1 12 1c2.557 0 4.957.409 6.742 1.048.889.318 1.663.706 2.23 1.16C21.522 3.645 22 4.247 22 5zM12 19a1.25 1.25 0 100 2.5 1.25 1.25 0 000-2.5z"/></svg>