<svg xmlns="http://www.w3.org/2000/svg" width="24" height="24"><path fill-rule="evenodd" d="M3.964 4.38c-.408.325-.464.543-.464.62 0 .077.056.295.464.62.391.313.998.633 1.8.92 1.597.572 3.822.96 6.236.96 2.414 0 4.639-.388 6.236-.96.802-.287 1.409-.607 1.8-.92.408-.325.464-.543.464-.62 0-.077-.056-.295-.464-.62-.391-.313-.998-.633-1.8-.92C16.64 2.888 14.414 2.5 12 2.5c-2.414 0-4.639.388-6.236.96-.802.287-1.409.607-1.8.92zM20.5 7.125a9.058 9.058 0 01-1.758.826C16.957 8.592 14.557 9 12 9c-2.557 0-4.957-.409-6.742-1.048A9.058 9.058 0 013.5 7.126v4.594c0 .08.057.299.462.623.388.312.991.632 1.791.919 1.593.57 3.818.958 6.247.958 2.43 0 4.654-.387 6.247-.958.8-.287 1.403-.607 1.791-.919.405-.324.462-.543.462-.623V7.126zM22 5c0-.751-.479-1.354-1.028-1.793-.567-.453-1.341-.841-2.23-1.16C16.957 1.41 14.557 1 12 1c-2.557 0-4.957.409-6.742 1.048-.889.318-1.663.706-2.23 1.16C2.478 3.645 2 4.247 2 5v14c0 .75.474 1.353 1.023 1.793.565.454 1.336.842 2.224 1.16C7.029 22.593 9.429 23 12 23c2.57 0 4.971-.408 6.753-1.047.887-.318 1.66-.706 2.224-1.16C21.526 20.353 22 19.75 22 19V5zm-1.5 8.851a8.997 8.997 0 01-1.747.823c-1.782.639-4.182 1.046-6.753 1.046-2.57 0-4.971-.407-6.753-1.046A8.993 8.993 0 013.5 13.85V19c0 .08.057.298.462.623.388.312.991.632 1.791.918 1.593.572 3.818.959 6.247.959 2.43 0 4.654-.387 6.247-.959.8-.286 1.403-.606 1.791-.918.405-.325.462-.543.462-.623v-5.149z"/></svg>