<svg xmlns="http://www.w3.org/2000/svg" width="24" height="24"><path fill-rule="evenodd" d="M9.253 4.5v1.48h1.25V4.5h-1.25zm1.25 2.98h-1.25v1.27h1.25V7.48zm1.5 1.27V4a1 1 0 00-1-1h-2.25a1 1 0 00-1 1v1.98H5.75a1 1 0 00-1 1v1.77H3a1 1 0 00-1 1v1.859h-.993a.986.986 0 00-.99 1.06c.06.766.33 3.058 1.557 5.18C2.828 20.019 5.085 22 9 22c4.399 0 7.144-1.448 8.824-3.111 1.459-1.444 2.065-3 2.292-3.766a6.42 6.42 0 001.647-.727c.785-.496 1.612-1.3 1.927-2.548a.98.98 0 00-.446-1.08c-1.036-.622-2.127-.682-2.845-.627a6.96 6.96 0 00-.275-1.054c-.256-.729-.722-1.611-1.586-2.144a.976.976 0 00-1.17.113c-.932.852-1.29 1.944-1.397 2.889a6.914 6.914 0 00.022 1.664H14.75V9.75a1 1 0 00-1-1h-1.747zm-1.5 1.5h-1.25v1.359h1.25V10.25zm1.5 1.359V10.25h1.247v1.359h-1.247zm-4.25 0V10.25H6.25v1.359h1.503zm-3.003 0V10.25H3.5v1.359h1.25zm1.5-2.859h1.503V7.48H6.25v1.27zm11.83-.262c-.374.48-.553 1.05-.619 1.627-.082.718.02 1.39.099 1.76.128.603-.316 1.234-.991 1.234H1.572c.124.927.45 2.52 1.3 3.99C3.908 18.888 5.713 20.5 9 20.5c4.036 0 6.392-1.314 7.769-2.677 1.396-1.382 1.854-2.882 1.965-3.33.092-.374.386-.67.767-.76a4.97 4.97 0 001.46-.604c.474-.3.9-.705 1.142-1.261-.871-.361-1.761-.231-2.072-.164a.86.86 0 01-1.037-.767 5.753 5.753 0 00-.286-1.353c-.15-.429-.356-.814-.628-1.096z"/></svg>