<svg xmlns="http://www.w3.org/2000/svg" width="24" height="24"><path d="M9.75 2A1.75 1.75 0 008 3.75v3.5a.75.75 0 001.5 0v-3.5a.25.25 0 01.25-.25h10.5a.25.25 0 01.25.25v8a.25.25 0 01-.25.25h-1.5a.75.75 0 000 1.5h1.5A1.75 1.75 0 0022 11.75v-8A1.75 1.75 0 0020.25 2H9.75z"/><path d="M12 5.5A.75.75 0 0012 7h6a.75.75 0 000-1.5h-6zM6 13a.75.75 0 000 1.5h6a.75.75 0 000-1.5H6zm0 4a.75.75 0 000 1.5h6a.75.75 0 000-1.5H6z"/><path fill-rule="evenodd" d="M3.75 9.5A1.75 1.75 0 002 11.25v9c0 .966.784 1.75 1.75 1.75h10.5A1.75 1.75 0 0016 20.25v-9a1.75 1.75 0 00-1.75-1.75H3.75zm-.25 1.75a.25.25 0 01.25-.25h10.5a.25.25 0 01.25.25v9a.25.25 0 01-.25.25H3.75a.25.25 0 01-.25-.25v-9z"/></svg>