<svg xmlns="http://www.w3.org/2000/svg" width="24" height="24"><path fill-rule="evenodd" d="M3 3a2 2 0 012-2h9.982a2 2 0 011.414.586l4.018 4.018A2 2 0 0121 7.018V21a2 2 0 01-2 2H4.75a.75.75 0 110-1.5H19a.5.5 0 00.5-.5V8.5h-4a2 2 0 01-2-2v-4H5a.5.5 0 00-.5.5v6.25a.75.75 0 01-1.5 0V3zm12-.5v4a.5.5 0 00.5.5h4a.5.5 0 00-.146-.336l-4.018-4.018A.5.5 0 0015 2.5z"/><path d="M8 13a1 1 0 011-1h3.25a.75.75 0 010 1.5H9.5V15H12a1 1 0 011 1v2.5a1 1 0 01-1 1H8.75a.75.75 0 010-1.5h2.75v-1.5H9a1 1 0 01-1-1V13zm-2-.25a.75.75 0 00-1.5 0V18h-2v-1.25a.75.75 0 00-1.5 0v1.75a1 1 0 001 1h3a1 1 0 001-1v-5.75z"/></svg>