<svg xmlns="http://www.w3.org/2000/svg" width="24" height="24"><path d="M9.805 11.255a.75.75 0 10-1.11-1.01l-2.5 2.75a.75.75 0 000 1.01l2.5 2.75a.75.75 0 101.11-1.01L7.764 13.5l2.04-2.245zm5.5-1.01a.75.75 0 00-1.11 1.01l2.041 2.245-2.041 2.245a.75.75 0 001.11 1.01l2.5-2.75a.75.75 0 000-1.01l-2.5-2.75z"/><path fill-rule="evenodd" d="M3.75 3A1.75 1.75 0 002 4.75v14.5A1.75 1.75 0 003.75 21h16.5A1.75 1.75 0 0022 19.25V7.688a1.75 1.75 0 00-1.75-1.75h-8.471a.25.25 0 01-.207-.11l-1.404-2.063A1.75 1.75 0 008.721 3H3.75zm-.177 1.573A.25.25 0 013.75 4.5h4.97a.25.25 0 01.208.11l1.404 2.062a1.75 1.75 0 001.447.765h8.471a.25.25 0 01.25.25V19.25a.25.25 0 01-.25.25H3.75a.25.25 0 01-.25-.25V4.75a.25.25 0 01.073-.177z"/></svg>