<svg xmlns="http://www.w3.org/2000/svg" width="24" height="24"><path fill-rule="evenodd" d="M2.587 2.322a3.25 3.25 0 014.321.003 3.251 3.251 0 01-1.413 5.589A.76.76 0 015.5 8v8a.76.76 0 01-.005.086 3.25 3.25 0 11-2.903 5.589 3.25 3.25 0 011.413-5.589A.811.811 0 014 16V8c0-.029.002-.057.005-.086a3.25 3.25 0 01-1.418-5.592zm.546 1.758a1.75 1.75 0 103.234 1.34 1.75 1.75 0 00-3.234-1.34zm0 14.5a1.75 1.75 0 103.234 1.34 1.75 1.75 0 00-3.234-1.34zm13.819-1.628a3.25 3.25 0 104.596 4.596 3.25 3.25 0 00-4.596-4.596zm1.06 1.06a1.75 1.75 0 112.476 2.475 1.75 1.75 0 01-2.475-2.474z"/><path d="M20.487 5.487a1.75 1.75 0 11-2.474-2.474 1.75 1.75 0 012.474 2.474zm0 7a1.75 1.75 0 10-2.474-2.475 1.75 1.75 0 002.474 2.475z"/></svg>