<svg xmlns="http://www.w3.org/2000/svg" width="24" height="24"><path d="M22.434 2.467a.75.75 0 01-.168.244l-1.984 1.983 1.983 1.984a.75.75 0 01-1.06 1.06l-1.983-1.983-1.984 1.983a.75.75 0 01-1.06-1.06l1.983-1.984-1.983-1.983a.75.75 0 111.06-1.06l1.984 1.983 1.983-1.983a.75.75 0 011.229.816z"/><path fill-rule="evenodd" d="M2.587 2.322a3.25 3.25 0 014.321.003 3.251 3.251 0 01-1.413 5.589A.76.76 0 015.5 8v8a.76.76 0 01-.005.086 3.25 3.25 0 11-2.903 5.589 3.25 3.25 0 011.413-5.589A.811.811 0 014 16V8c0-.029.002-.057.005-.086a3.25 3.25 0 01-1.418-5.592zm.546 1.758a1.75 1.75 0 103.234 1.34 1.75 1.75 0 00-3.234-1.34zm0 14.5a1.75 1.75 0 103.234 1.34 1.75 1.75 0 00-3.234-1.34zM16.7 17.234a3.25 3.25 0 002.55 5.266 3.251 3.251 0 00.75-6.413V9.625a.75.75 0 10-1.5 0v6.462a3.251 3.251 0 00-1.8 1.147zm1.313.779a1.75 1.75 0 112.475 2.474 1.75 1.75 0 01-2.475-2.474z"/></svg>