<svg xmlns="http://www.w3.org/2000/svg" width="24" height="24"><path fill-rule="evenodd" d="M2.452 2.452a3.25 3.25 0 001.553 5.461A.75.75 0 004 8v8c0 .03.002.058.005.087a3.25 3.25 0 101.49 0A.75.75 0 005.5 16V8a.75.75 0 00-.005-.087 3.25 3.25 0 10-3.043-5.461zm1.628.681a1.75 1.75 0 111.34 3.234 1.75 1.75 0 01-1.34-3.234zM3 19.25a1.75 1.75 0 113.5 0 1.75 1.75 0 01-3.5 0zm13.952-2.298A3.25 3.25 0 1020 16.088V7.75A3.75 3.75 0 0016.25 4h-4.065l1.22-1.22a.75.75 0 00-1.06-1.06l-2.5 2.5a.75.75 0 000 1.06l2.5 2.5a.75.75 0 001.061-1.06l-1.22-1.22h4.064a2.25 2.25 0 012.25 2.25v8.338a3.25 3.25 0 00-1.548.864zm1.06 1.06a1.75 1.75 0 112.476 2.475 1.75 1.75 0 01-2.475-2.474z"/></svg>