<svg xmlns="http://www.w3.org/2000/svg" width="24" height="24"><path fill-rule="evenodd" d="M10 0a1.73 1.73 0 00-.875.238L.306 5.398a.754.754 0 00-.303.531L0 16.246a1.785 1.785 0 00.875 1.535l8.75 5.117a.743.743 0 001.025-.278.767.767 0 00.1-.38V11.86l7.75-4.532v2.644c0 .202.079.395.22.538a.745.745 0 001.06 0 .765.765 0 00.22-.538l-.003-4.042a.765.765 0 00-.303-.532L10.875.238A1.733 1.733 0 0010 0zM1.5 16.244V7.326l7.75 4.533v9.063l-7.625-4.46a.252.252 0 01-.125-.218zm.75-10.232l7.75 4.53v.002l7.75-4.532-7.625-4.46a.247.247 0 00-.25 0L2.25 6.012z"/><path d="M16.28 15.22a.75.75 0 10-1.06 1.06L17.94 19l-2.72 2.72a.75.75 0 101.06 1.06L19 20.06l2.72 2.72a.75.75 0 101.06-1.06L20.06 19l2.72-2.72a.75.75 0 10-1.06-1.06L19 17.94l-2.72-2.72z"/></svg>