<svg xmlns="http://www.w3.org/2000/svg" width="24" height="24"><path d="M14 12a2 2 0 11-4 0 2 2 0 014 0z"/><path fill-rule="evenodd" d="M12 3.944c-.405-.4-.811-.77-1.213-1.103-.955-.795-1.915-1.414-2.803-1.755-.867-.334-1.817-.456-2.609.002-.805.465-1.14 1.347-1.237 2.252-.1.92.023 2.029.295 3.215.104.453.23.924.38 1.408-.341.103-.668.213-.98.33-1.074.402-2.001.9-2.674 1.489C.49 10.369 0 11.117 0 12s.489 1.63 1.16 2.218c.672.59 1.599 1.087 2.674 1.49.313.117.642.227.986.33-.152.494-.282.973-.387 1.434-.272 1.186-.394 2.295-.295 3.215.097.905.432 1.787 1.237 2.252.792.458 1.742.336 2.61.003.887-.342 1.847-.961 2.802-1.756A19.14 19.14 0 0012 20.083c.405.4.811.77 1.213 1.103.955.795 1.915 1.414 2.803 1.756.867.333 1.817.455 2.609-.003.805-.465 1.14-1.347 1.237-2.252.1-.92-.023-2.029-.295-3.215a20.26 20.26 0 00-.387-1.433c.344-.104.673-.214.986-.332 1.075-.402 2.003-.9 2.675-1.489C23.51 13.631 24 12.883 24 12s-.489-1.63-1.16-2.218c-.671-.59-1.599-1.087-2.674-1.49a15.699 15.699 0 00-.978-.329 21.2 21.2 0 00.38-1.408c.27-1.186.393-2.295.294-3.215-.097-.905-.432-1.787-1.237-2.252-.792-.458-1.742-.336-2.61-.002-.887.34-1.847.96-2.803 1.755A19.37 19.37 0 0012 3.944zm5.875-1.557c.2.115.42.411.496 1.114.074.687-.013 1.613-.266 2.719-.1.437-.224.895-.371 1.368a25.13 25.13 0 00-3.016-.462 26.966 26.966 0 00-1.685-2.094c.383-.379.764-.726 1.139-1.038.885-.736 1.702-1.247 2.382-1.508.7-.27 1.109-.222 1.321-.1zm-6.908 2.645a17.907 17.907 0 00-1.139-1.038c-.885-.736-1.702-1.247-2.382-1.508-.7-.27-1.109-.222-1.321-.1-.2.116-.42.412-.496 1.115-.074.687.013 1.613.266 2.719.1.437.224.895.371 1.368.94-.206 1.954-.363 3.016-.462a26.977 26.977 0 011.685-2.094zm6.274 3.984a22.535 22.535 0 00-1.417-.25 32.034 32.034 0 01.893 1.541c.19-.436.364-.867.524-1.29zm.348 2.998c.422-.886.797-1.77 1.116-2.63.328.098.64.203.935.313.978.367 1.724.785 2.212 1.213.49.43.648.8.648 1.09 0 .29-.158.66-.648 1.09-.488.428-1.234.846-2.212 1.213-.297.111-.613.217-.944.315a32.218 32.218 0 00-1.107-2.604zm-1.67 0a34.255 34.255 0 00-.931-1.725 25.886 25.886 0 00-1.09-1.725 27.928 27.928 0 00-3.796 0 25.886 25.886 0 00-1.09 1.725c-.329.57-.64 1.147-.93 1.725.29.577.601 1.155.93 1.725.337.582.696 1.15 1.07 1.695a27.912 27.912 0 003.836 0 26.25 26.25 0 001.07-1.695c.329-.57.64-1.148.93-1.725zm-.077 3.216a27.455 27.455 0 00.875-1.509c.185.426.357.849.515 1.264-.445.094-.91.176-1.39.245zm-3.078 1.76a29.767 29.767 0 01-1.528 0c.252.315.507.618.764.91.257-.292.512-.595.764-.91zm.269 2.005a26.959 26.959 0 001.706-2.123c1.051-.1 2.055-.255 2.987-.458.15.482.277.948.379 1.393.253 1.106.34 2.032.266 2.72-.076.702-.297.998-.496 1.113-.212.123-.621.17-1.321-.099-.68-.26-1.497-.771-2.382-1.508a17.93 17.93 0 01-1.139-1.038zm-2.066 0a27 27 0 01-1.706-2.123 25.104 25.104 0 01-2.987-.458c-.15.482-.277.948-.379 1.393-.253 1.106-.34 2.032-.266 2.72.076.702.297.998.496 1.113.212.123.621.17 1.321-.099.68-.26 1.497-.771 2.382-1.508.375-.312.756-.66 1.139-1.038zm-4.199-4.01c.445.094.91.176 1.39.245a27.455 27.455 0 01-.875-1.509c-.185.426-.357.849-.515 1.264zm.514-4.678a32.069 32.069 0 01.894-1.54c-.49.07-.964.154-1.417.25.16.423.335.854.523 1.29zm-.87 1.707a32.19 32.19 0 00-1.108 2.604 14.315 14.315 0 01-.944-.315c-.978-.367-1.724-.785-2.212-1.213-.49-.43-.648-.8-.648-1.09 0-.29.158-.66.648-1.09.488-.428 1.234-.846 2.212-1.213.295-.11.607-.215.935-.312.319.859.694 1.743 1.116 2.629zm4.846-5.005a29.714 29.714 0 011.484 0A24.814 24.814 0 0012 6.128c-.25.282-.497.577-.742.881z"/></svg>