<svg xmlns="http://www.w3.org/2000/svg" width="24" height="24"><path fill-rule="evenodd" d="M5.251 3.192a.75.75 0 01.057 1.059C4.231 5.451 3.54 6.573 3.11 7.783 2.68 8.996 2.5 10.339 2.5 12c0 1.662.18 3.004.61 4.217.43 1.21 1.121 2.332 2.198 3.532a.75.75 0 11-1.116 1.002c-1.18-1.315-1.988-2.603-2.495-4.032C1.19 15.293 1 13.769 1 12c0-1.768.191-3.293.697-4.719.507-1.43 1.315-2.717 2.495-4.032a.75.75 0 011.059-.057zm13.498 0a.75.75 0 00-.057 1.059c1.077 1.2 1.769 2.322 2.198 3.532.43 1.213.61 2.556.61 4.217 0 1.662-.18 3.004-.61 4.217-.43 1.21-1.121 2.332-2.198 3.532a.75.75 0 001.116 1.002c1.18-1.315 1.989-2.603 2.495-4.032.506-1.426.697-2.95.697-4.719 0-1.768-.191-3.293-.697-4.719-.506-1.43-1.315-2.717-2.495-4.032a.75.75 0 00-1.059-.057zM7 11.75a.75.75 0 01.75-.75h8.5a.75.75 0 010 1.5h-8.5a.75.75 0 01-.75-.75z"/></svg>