<svg xmlns="http://www.w3.org/2000/svg" width="24" height="24"><path d="M5.308 4.251a.75.75 0 10-1.116-1.002c-1.18 1.315-1.988 2.603-2.495 4.032C1.19 8.707 1 10.231 1 12c0 1.768.191 3.293.697 4.719.507 1.43 1.315 2.717 2.495 4.032a.75.75 0 001.116-1.002c-1.077-1.2-1.769-2.322-2.198-3.532-.43-1.213-.61-2.555-.61-4.217 0-1.661.18-3.004.61-4.217.43-1.21 1.121-2.332 2.198-3.532zm13.384 0a.75.75 0 011.116-1.002c1.18 1.315 1.989 2.603 2.495 4.032C22.81 8.707 23 10.231 23 12c0 1.768-.191 3.293-.697 4.719-.506 1.43-1.315 2.717-2.495 4.032a.75.75 0 01-1.116-1.002c1.077-1.2 1.769-2.322 2.198-3.532.43-1.213.61-2.555.61-4.217 0-1.661-.18-3.004-.61-4.217-.43-1.21-1.121-2.332-2.198-3.532z"/></svg>