<svg xmlns="http://www.w3.org/2000/svg" width="24" height="24"><path fill-rule="evenodd" d="M7.2 2h9.6c.764 0 1.38 0 1.882.04.518.04.974.128 1.4.334a3.75 3.75 0 011.623 1.515c.236.412.354.86.43 1.374.074.498.117 1.113.17 1.875l.002.031.658 9.78c.023.183.035.367.035.551 0 2.28-1.838 4.5-4.25 4.5H5.25C2.838 22 1 19.78 1 17.5c0-.184.012-.368.035-.55l.659-9.782.002-.03c.052-.762.095-1.377.169-1.875.076-.514.194-.962.43-1.374a3.75 3.75 0 011.622-1.515c.428-.206.883-.293 1.401-.334C5.82 2 6.436 2 7.2 2zM2.5 17.524l.03-.441c.201-1.41 1.395-2.583 2.72-2.583h13.5c1.325 0 2.519 1.174 2.72 2.583l.03.44c-.013 1.578-1.303 2.977-2.75 2.977H5.25c-1.447 0-2.737-1.4-2.75-2.976zm18.756-3.622A3.986 3.986 0 0018.75 13H5.25c-.95 0-1.811.345-2.506.902l.446-6.63c.055-.8.094-1.356.158-1.788.063-.423.143-.666.249-.85a2.25 2.25 0 01.973-.91c.192-.092.44-.155.867-.189.435-.034.992-.035 1.793-.035h9.54c.8 0 1.358 0 1.794.035.426.034.674.097.866.19.408.197.748.514.973.908.106.185.186.428.249.851.064.432.103.988.158 1.786v.001l.446 6.63zM11 17.5a.75.75 0 01.75-.75h6.5a.75.75 0 010 1.5h-6.5a.75.75 0 01-.75-.75z"/><path d="M7 17.5a1 1 0 11-2 0 1 1 0 012 0z"/></svg>