<svg xmlns="http://www.w3.org/2000/svg" width="24" height="24"><path d="M11 10.75a.75.75 0 01.75-.75h6.5a.75.75 0 010 1.5h-6.5a.75.75 0 01-.75-.75zm-5 1a1 1 0 100-2 1 1 0 000 2z"/><path fill-rule="evenodd" d="M6.958 2h10.085c.724 0 1.311 0 1.79.037.495.038.932.119 1.345.31a3.75 3.75 0 011.604 1.416c.452.724.555 1.388.738 2.849l.422 3.434A4.25 4.25 0 0118.75 15h-6v2.611c.916.259 1.637.98 1.896 1.894h6.604a.75.75 0 110 1.498h-6.604a2.75 2.75 0 01-5.292 0H2.75a.75.75 0 110-1.498h6.604a2.754 2.754 0 011.896-1.894V15h-6a4.25 4.25 0 01-4.198-4.92l.428-3.468c.183-1.46.286-2.125.738-2.849a3.75 3.75 0 011.604-1.415c.413-.192.85-.273 1.345-.311C5.646 2 6.233 2 6.957 2zm-4.449 8.523l.028-.225A2.75 2.75 0 015.25 8h13.5c1.355 0 2.48.98 2.708 2.269l.035.285A2.75 2.75 0 0118.75 13.5H5.25a2.75 2.75 0 01-2.74-2.977zM21.08 7.195a4.23 4.23 0 00-2.33-.695H5.25a4.23 4.23 0 00-2.33.695l.049-.397c.19-1.517.272-1.842.521-2.24a2.25 2.25 0 01.962-.85c.187-.086.425-.144.83-.175.415-.032.944-.033 1.705-.033h10.026c.761 0 1.29 0 1.705.033.405.03.643.09.83.176.396.183.73.478.962.85.248.397.332.722.521 2.237v.002l.05.397zM12 19.005a1.249 1.249 0 10-.002 2.499A1.249 1.249 0 0012 19.006z"/></svg>