<svg xmlns="http://www.w3.org/2000/svg" width="24" height="24"><path fill-rule="evenodd" d="M6.958 2h10.085c.724 0 1.311 0 1.79.037.495.038.932.119 1.345.31a3.75 3.75 0 011.604 1.416c.452.724.555 1.388.738 2.849v.001l.422 3.433a4.245 4.245 0 01-1.78 4.204A4.25 4.25 0 0118.75 22H5.25a4.25 4.25 0 01-2.412-7.75 4.245 4.245 0 01-1.786-4.17l.428-3.468c.183-1.46.286-2.125.738-2.849a3.75 3.75 0 011.604-1.415c.413-.192.85-.273 1.345-.311C5.646 2 6.233 2 6.957 2zm-4.449 8.523l.028-.225A2.75 2.75 0 015.25 8h13.5c1.355 0 2.48.98 2.708 2.269l.035.285A2.75 2.75 0 0118.75 13.5H5.25a2.75 2.75 0 01-2.74-2.977zM5.25 15a2.75 2.75 0 100 5.5h13.5a2.75 2.75 0 100-5.5H5.25zm15.83-7.805a4.23 4.23 0 00-2.33-.695H5.25a4.23 4.23 0 00-2.33.695l.049-.397c.19-1.517.272-1.842.521-2.24a2.25 2.25 0 01.962-.85c.187-.086.425-.144.83-.175.415-.032.944-.033 1.705-.033h10.026c.761 0 1.29 0 1.705.033.405.03.643.09.83.176.396.183.73.478.962.85.248.397.332.722.521 2.237m0 .002l.05.397-.05-.397zM11 10.75a.75.75 0 01.75-.75h6.5a.75.75 0 010 1.5h-6.5a.75.75 0 01-.75-.75zm0 7a.75.75 0 01.75-.75h6.5a.75.75 0 010 1.5h-6.5a.75.75 0 01-.75-.75z"/><path d="M7 17.75a1 1 0 11-2 0 1 1 0 012 0zm0-7a1 1 0 11-2 0 1 1 0 012 0z"/></svg>