<svg xmlns="http://www.w3.org/2000/svg" width="24" height="24"><path d="M10 9.25a.75.75 0 01.75-.75h6.5a.75.75 0 010 1.5h-6.5a.75.75 0 01-.75-.75zM6.75 8.5a.75.75 0 000 1.5h.5a.75.75 0 000-1.5h-.5z"/><path fill-rule="evenodd" d="M3.75 4A1.75 1.75 0 002 5.75v7c0 .966.784 1.75 1.75 1.75h7.5v2.111a2.754 2.754 0 00-1.896 1.894H2.75a.75.75 0 100 1.498h6.604a2.75 2.75 0 005.293 0h6.603a.75.75 0 100-1.498h-6.604a2.754 2.754 0 00-1.896-1.894V14.5h7.5A1.75 1.75 0 0022 12.75v-7A1.75 1.75 0 0020.25 4H3.75zM3.5 5.75a.25.25 0 01.25-.25h16.5a.25.25 0 01.25.25v7a.25.25 0 01-.25.25H3.75a.25.25 0 01-.25-.25v-7zM12 18.006a1.249 1.249 0 10-.002 2.498A1.249 1.249 0 0012 18.006z"/></svg>