<svg xmlns="http://www.w3.org/2000/svg" width="24" height="24"><path d="M10.22 6.72a.75.75 0 01.53-.22h6.5a.75.75 0 110 1.5h-6.5a.75.75 0 01-.53-1.28zm-4 0A.75.75 0 006.75 8h.5a.75.75 0 000-1.5h-.5a.75.75 0 00-.53.22zm4 9a.75.75 0 00.53 1.28h6.5a.75.75 0 100-1.5h-6.5a.75.75 0 00-.53.22zm-4 0a.75.75 0 01.53-.22h.5a.75.75 0 110 1.5h-.5a.75.75 0 01-.53-1.28z"/><path fill-rule="evenodd" d="M2.513 2.513A1.75 1.75 0 013.75 2h16.5A1.75 1.75 0 0122 3.75v7c0 .372-.116.716-.314 1 .198.284.314.628.314 1v7a1.75 1.75 0 01-1.75 1.75H3.75A1.75 1.75 0 012 19.75v-7c0-.358.11-.707.314-1a1.741 1.741 0 01-.314-1v-7c0-.464.184-.91.513-1.237zM20.25 11H3.75a.25.25 0 01-.25-.25v-7a.25.25 0 01.25-.25h16.5a.25.25 0 01.25.25v7a.25.25 0 01-.25.25zM3.573 12.573a.25.25 0 01.177-.073h16.5a.25.25 0 01.25.25v7a.25.25 0 01-.25.25H3.75a.25.25 0 01-.25-.25v-7a.25.25 0 01.073-.177z"/></svg>