<svg xmlns="http://www.w3.org/2000/svg" width="24" height="24"><path fill-rule="evenodd" d="M1 4.75C1 3.784 1.784 3 2.75 3h2.5a.75.75 0 010 1.5h-2.5a.25.25 0 00-.25.25v14.5c0 .138.112.25.25.25h2.5a.75.75 0 010 1.5h-2.5A1.75 1.75 0 011 19.25V4.75zm22 14.5A1.75 1.75 0 0121.25 21h-2.5a.75.75 0 010-1.5h2.5a.25.25 0 00.25-.25V4.75a.25.25 0 00-.25-.25h-2.5a.75.75 0 010-1.5h2.5c.966 0 1.75.784 1.75 1.75v14.5zM15.645 6.112a.75.75 0 01.243 1.033l-6.5 10.5a.75.75 0 11-1.276-.79l6.5-10.5a.75.75 0 011.033-.243z"/></svg>