<svg xmlns="http://www.w3.org/2000/svg" width="24" height="24"><path d="M6.305 11.245a.75.75 0 10-1.11 1.01L7.236 14.5l-2.04 2.245a.75.75 0 001.109 1.01l2.5-2.75a.75.75 0 000-1.01l-2.5-2.75zM10.75 16.5a.75.75 0 000 1.5h4.5a.75.75 0 000-1.5h-4.5z"/><path fill-rule="evenodd" d="M2.75 2A1.75 1.75 0 001 3.75v16.5c0 .966.784 1.75 1.75 1.75h18.5A1.75 1.75 0 0023 20.25V3.75A1.75 1.75 0 0021.25 2H2.75zM2.5 3.75a.25.25 0 01.25-.25h18.5a.25.25 0 01.25.25v3.5h-19v-3.5zm0 5h19v11.5a.25.25 0 01-.25.25H2.75a.25.25 0 01-.25-.25V8.75z"/></svg>