<svg xmlns="http://www.w3.org/2000/svg" width="24" height="24"><path fill-rule="evenodd" d="M17.505 1.187a.75.75 0 01.867-.088l5.2 2.971a.85.85 0 01.428.738v14.384a.85.85 0 01-.428.738l-5.2 2.971a.75.75 0 01-.867-.088l-8.382-7.37-5.063 3.58a1 1 0 01-1.056.06L.391 17.659A.75.75 0 010 17V7a.75.75 0 01.39-.658l2.614-1.426a1 1 0 011.056.062l5.063 3.579 8.382-7.37zm-7.122 8.26l2.312 1.635 4.555-3.22V3.408l-6.867 6.039zm8.367-6.405v17.916l3.75-2.143V5.185l-3.75-2.143zm-1.5 17.55L4 8.94 2.034 7.154l1.415-.772 13.801 9.756v4.454zm0-6.29V9.698L13.994 12l3.256 2.301zM1.5 8.694v6.61l1.25-1.137V9.832L1.5 8.695zm2.75 2.463v1.684L5.207 12l-.957-.842zm2.093 1.84L4 15.06l-1.966 1.787 1.415.772 4.516-3.193L6.343 13z"/></svg>