<svg xmlns="http://www.w3.org/2000/svg" width="24" height="24"><path fill-rule="evenodd" d="M17.503 1.188a.75.75 0 01.87-.09l5.25 3A.75.75 0 0124 4.75v14.5a.75.75 0 01-.378.651l-5.25 3a.75.75 0 01-.869-.09l-8.482-7.498-4.827 3.542a.75.75 0 01-.732.087l-3-1.25a.75.75 0 01-.209-1.254L5.273 12 .253 7.562a.75.75 0 01.209-1.254l3-1.25a.75.75 0 01.732.087L9.02 8.687l8.482-7.499zM8.614 10.25L3.648 6.605l-1.504.627L17.25 20.586V16.87l-8.636-6.62zm8.636 4.731V9.02L13.363 12l3.887 2.98zm-5.12-3.925l5.12-3.925V3.414l-7.007 6.194 1.887 1.447zm6.62-8.013v17.916l3.75-2.143V5.185l-3.75-2.143zm-12.344 9.96l-4.262 3.766 1.504.627 4.223-3.099-1.465-1.295z"/></svg>