<svg xmlns="http://www.w3.org/2000/svg" width="24" height="24"><path fill-rule="evenodd" d="M12 19.404A5.624 5.624 0 017.26 22c-4 0-6.542-4.281-4.592-7.775L8.272 4.188a4.269 4.269 0 017.456 0l5.604 10.037C23.282 17.718 20.74 22 16.74 22A5.623 5.623 0 0112 19.404zM9.582 4.92a2.769 2.769 0 014.836 0l5.604 10.038c1.386 2.482-.415 5.543-3.283 5.543-1.409 0-2.72-.72-3.478-1.908l-.371-.583 2.12-3.328c1.513-2.375-.193-5.487-3.01-5.487-2.817 0-4.523 3.112-3.01 5.487l2.12 3.328-.372.584A4.125 4.125 0 017.261 20.5c-2.868 0-4.669-3.061-3.283-5.543L9.582 4.919zm4.162 8.957L12 16.613l-1.745-2.739c-.877-1.376.112-3.18 1.745-3.18s2.622 1.804 1.745 3.182z"/></svg>