<svg xmlns="http://www.w3.org/2000/svg" width="24" height="24"><path fill-rule="evenodd" d="M17.953 2.805a2.75 2.75 0 113.889 3.89l-3.057 3.057 2.546 10.016a.75.75 0 01-.196.715l-1.945 1.945a.75.75 0 01-1.22-.238l-3.456-8.168-2.275 2.276.787 3.304a.75.75 0 01-.2.704l-1.768 1.768a.75.75 0 01-1.15-.109l-2.925-4.3-4.301-2.926a.75.75 0 01-.109-1.15l1.768-1.768a.75.75 0 01.704-.2l3.305.788 2.275-2.276-8.167-3.455a.75.75 0 01-.238-1.22l1.944-1.945a.75.75 0 01.715-.197l10.017 2.547 3.057-3.058zm2.828 1.061a1.25 1.25 0 00-1.767 0l-3.36 3.359a.75.75 0 01-.714.196L4.923 4.875l-.855.856 8.167 3.455a.75.75 0 01.238 1.22l-3.359 3.36a.75.75 0 01-.704.199l-3.305-.787-.83.83 3.67 2.496c.078.053.145.12.198.199l2.496 3.67.83-.831-.787-3.305a.75.75 0 01.2-.704l3.359-3.358a.75.75 0 011.22.238l3.456 8.167.855-.856-2.546-10.016a.75.75 0 01.197-.715l3.358-3.36a1.25 1.25 0 000-1.767z"/></svg>