<svg xmlns="http://www.w3.org/2000/svg" width="24" height="24"><path fill-rule="evenodd" d="M14.75 3.75a2.75 2.75 0 10-5.5 0v4.323L.367 13.355A.75.75 0 000 14v2.75a.75.75 0 001.032.695l8.218-3.332v3.218l-2.893 1.78A.75.75 0 006 19.75v2.5a.75.75 0 00.89.737l5.11-.973 5.11.973a.75.75 0 00.89-.737v-2.5a.75.75 0 00-.357-.639l-2.893-1.78v-3.218l8.218 3.332A.75.75 0 0024 16.75V14a.75.75 0 00-.367-.645L14.75 8.073V3.75zM12 2.5c.69 0 1.25.56 1.25 1.25V8.5c0 .265.14.51.367.645l8.883 5.282v1.21l-8.218-3.332A.75.75 0 0013.25 13v4.75c0 .26.135.502.357.639l2.893 1.78v1.175l-4.36-.83a.752.752 0 00-.28 0l-4.36.83v-1.175l2.893-1.78a.75.75 0 00.357-.639V13a.75.75 0 00-1.032-.695L1.5 15.637v-1.21l8.883-5.282a.75.75 0 00.367-.645V3.75c0-.69.56-1.25 1.25-1.25z"/></svg>