<svg xmlns="http://www.w3.org/2000/svg" width="24" height="24"><path fill-rule="evenodd" d="M22.095 15.335a3.125 3.125 0 00-2.21-3.828l-5.035-1.35-1.801-5.723a1 1 0 00-.511-.596L9.602 2.386a1 1 0 00-1.44.98l.43 5.115-1.988-.533-.756-1.883a1 1 0 00-.485-.524L3.518 4.63a1 1 0 00-1.443.88l-.078 4.624a1 1 0 00.43.838l5.308 3.69a1 1 0 00.312.145l10.221 2.738a3.125 3.125 0 003.827-2.21zm-1.448-.389a1.625 1.625 0 00-1.15-1.99l-5.3-1.42a1 1 0 01-.695-.666l-1.82-5.782-1.95-.965.414 4.941a1 1 0 01-1.255 1.05l-2.916-.781a1 1 0 01-.67-.594l-.778-1.938-.966-.478-.06 3.568L8.52 13.38l10.136 2.716a1.625 1.625 0 001.99-1.149z"/><path d="M1 21.25a.75.75 0 01.75-.75h20.5a.75.75 0 010 1.5H1.75a.75.75 0 01-.75-.75z"/></svg>