<svg xmlns="http://www.w3.org/2000/svg" width="24" height="24"><path fill-rule="evenodd" d="M22.387 5.563a3.125 3.125 0 00-4.27-1.144l-4.514 2.607-5.321-2.774a1 1 0 00-.783-.06l-3.102 1.05a1 1 0 00-.325 1.71l3.92 3.313-1.782 1.03-1.866-.798a1 1 0 00-.714-.028l-1.95.66a1 1 0 00-.398 1.643l3.215 3.325a1 1 0 00.896.289l6.363-1.145a.998.998 0 00.323-.118l9.164-5.291a3.125 3.125 0 001.144-4.269zm-1.3.75a1.625 1.625 0 00-2.22-.595l-4.752 2.744a1 1 0 01-.962.02l-5.376-2.8-2.06.696 3.787 3.2a1 1 0 01-.146 1.63l-2.615 1.51a1 1 0 01-.892.054l-1.92-.82-1.022.345 2.48 2.565 6.016-1.082 9.088-5.247a1.625 1.625 0 00.595-2.22z"/><path d="M1 21.25a.75.75 0 01.75-.75h9.5a.75.75 0 010 1.5h-9.5a.75.75 0 01-.75-.75zm17.231-5.5v4.69l-1.97-1.97a.75.75 0 00-1.06 1.06l3.25 3.25a.75.75 0 001.06 0l3.25-3.25a.75.75 0 10-1.06-1.06l-1.97 1.97v-4.69a.75.75 0 10-1.5 0z"/></svg>