<svg xmlns="http://www.w3.org/2000/svg" width="24" height="24"><path fill-rule="evenodd" d="M18.118 4.42a3.125 3.125 0 113.125 5.412l-9.164 5.29a.998.998 0 01-.323.119l-6.363 1.145a1 1 0 01-.896-.29l-3.215-3.325a1 1 0 01.398-1.642l1.95-.66a1 1 0 01.714.028l1.866.797 1.782-1.029-3.92-3.313a1 1 0 01.325-1.71l3.102-1.05a1 1 0 01.783.06l5.321 2.774 4.515-2.607zm.75 1.298a1.625 1.625 0 011.625 2.815l-9.088 5.247-6.015 1.082-2.48-2.565 1.02-.346 1.92.82a1 1 0 00.893-.053l2.615-1.51a1 1 0 00.146-1.63l-3.787-3.2 2.06-.697 5.376 2.802a1 1 0 00.962-.02l4.753-2.745z"/><path d="M1.75 20.5a.75.75 0 000 1.5h9.5a.75.75 0 000-1.5h-9.5zm21.015-4.295a.75.75 0 01.03 1.06l-4.75 4.5a.75.75 0 01-1.05.04l-2.75-2.5a.75.75 0 011.01-1.11L17.46 20.2l4.245-3.965a.75.75 0 011.06-.03z"/></svg>