<svg xmlns="http://www.w3.org/2000/svg" width="24" height="24"><path fill-rule="evenodd" d="M9.75 13A1.75 1.75 0 008 14.75v3c0 .966.784 1.75 1.75 1.75h4.5A1.75 1.75 0 0016 17.75v-3A1.75 1.75 0 0014.25 13h-4.5zm-.25 1.75a.25.25 0 01.25-.25h4.5a.25.25 0 01.25.25v3a.25.25 0 01-.25.25h-4.5a.25.25 0 01-.25-.25v-3z"/><path d="M10 8.75a.75.75 0 01.75-.75h2.5a.75.75 0 010 1.5h-2.5a.75.75 0 01-.75-.75z"/><path fill-rule="evenodd" d="M11.75 1A2.75 2.75 0 009 3.75v.5h-.25A3.75 3.75 0 005 8v5H3.75A1.75 1.75 0 002 14.75v3.5c0 .966.784 1.75 1.75 1.75H5v.25A2.75 2.75 0 007.75 23h8.5A2.75 2.75 0 0019 20.25V20h1.25A1.75 1.75 0 0022 18.25v-3.5A1.75 1.75 0 0020.25 13H19V8a3.75 3.75 0 00-3.75-3.75H15v-.5A2.75 2.75 0 0012.25 1h-.5zM5 18.5v-4H3.75a.25.25 0 00-.25.25v3.5c0 .138.112.25.25.25H5zm15.25 0H19v-4h1.25a.25.25 0 01.25.25v3.5a.25.25 0 01-.25.25zM13.5 4.25v-.5c0-.69-.56-1.25-1.25-1.25h-.5c-.69 0-1.25.56-1.25 1.25v.5h3zM6.5 8a2.25 2.25 0 012.25-2.25h6.5A2.25 2.25 0 0117.5 8v12.25c0 .69-.56 1.25-1.25 1.25h-8.5c-.69 0-1.25-.56-1.25-1.25V8z"/></svg>