<svg xmlns="http://www.w3.org/2000/svg" width="24" height="24"><path fill-rule="evenodd" d="M16 5.75V7h4.25c.966 0 1.75.784 1.75 1.75v10.5A1.75 1.75 0 0120.25 21H3.75A1.75 1.75 0 012 19.25V8.75C2 7.784 2.784 7 3.75 7H8V5.75A2.75 2.75 0 0110.75 3h2.5A2.75 2.75 0 0116 5.75zm-6.5 0c0-.69.56-1.25 1.25-1.25h2.5c.69 0 1.25.56 1.25 1.25V7h-5V5.75zm6 2.75v3.75H14a1 1 0 00-1 1v2.5a1 1 0 001 1h1.5v2.75h-7v-11h7zm1.5 8.25v2.75h3.25a.25.25 0 00.25-.25V8.75a.25.25 0 00-.25-.25H17v3.75h1a1 1 0 011 1v2.5a1 1 0 01-1 1h-1zM7 8.5v11H3.75a.25.25 0 01-.25-.25V8.75a.25.25 0 01.25-.25H7z"/></svg>