<svg xmlns="http://www.w3.org/2000/svg" width="24" height="24"><path d="M8.25 9a.75.75 0 01.75.75v8.5a.75.75 0 01-1.5 0v-8.5A.75.75 0 018.25 9zM12 9a.75.75 0 01.75.75v8.5a.75.75 0 01-1.5 0v-8.5A.75.75 0 0112 9zm4.5.75a.75.75 0 00-1.5 0v8.5a.75.75 0 001.5 0v-8.5z"/><path fill-rule="evenodd" d="M10.25 0A1.75 1.75 0 008.5 1.75V6H5.75A1.75 1.75 0 004 7.75v12.5c0 .966.784 1.75 1.75 1.75H7v1a1 1 0 102 0v-1h6v1a1 1 0 102 0v-1h1.25A1.75 1.75 0 0020 20.25V7.75A1.75 1.75 0 0018.25 6H15.5V1.75A1.75 1.75 0 0013.75 0h-3.5zM14 6V1.75a.25.25 0 00-.25-.25h-3.5a.25.25 0 00-.25.25V6h4zM5.75 7.5a.25.25 0 00-.25.25v12.5c0 .138.112.25.25.25h12.5a.25.25 0 00.25-.25V7.75a.25.25 0 00-.25-.25H5.75z"/></svg>