<svg xmlns="http://www.w3.org/2000/svg" width="24" height="24"><path d="M6.25 17.5a1.25 1.25 0 100-2.5 1.25 1.25 0 000 2.5zM19 16.25a1.25 1.25 0 11-2.5 0 1.25 1.25 0 012.5 0zM10 16a1 1 0 100 2h4a1 1 0 100-2h-4z"/><path fill-rule="evenodd" d="M12 1c-3.496 0-6.875.27-8.43.415A1.732 1.732 0 002 3.145V6h-.5a1 1 0 00-1 1v3a1 1 0 001 1H2v7.355c0 .888.668 1.646 1.57 1.73l.43.04V22a1 1 0 001 1h1.5a1 1 0 001-1v-1.628a85.06 85.06 0 004.5.128 85.06 85.06 0 004.5-.128V22a1 1 0 001 1H19a1 1 0 001-1v-1.876l.43-.039a1.732 1.732 0 001.57-1.73V11h.5a1 1 0 001-1V7a1 1 0 00-1-1H22V3.146c0-.89-.668-1.647-1.57-1.731C18.876 1.27 15.497 1 12 1zM3.708 2.909C5.244 2.766 8.571 2.5 12 2.5c3.43 0 6.756.266 8.292.409.113.01.208.106.208.237V4h-17v-.854c0-.131.094-.227.208-.237zM20.5 12.53l-.217.009c-.584.023-1.4.054-2.329.085a191.91 191.91 0 01-5.954.125c-1.793 0-4.095-.062-5.954-.125a320.03 320.03 0 01-2.329-.085l-.217-.01V5.5h17v7.03zm-.157 1.508l.157-.007v4.323c0 .13-.095.226-.208.237-1.535.142-4.858.408-8.292.408s-6.757-.266-8.292-.408a.232.232 0 01-.208-.237v-4.323l.157.007c.587.023 1.406.054 2.338.086 1.863.062 4.186.125 6.005.125 1.82 0 4.142-.063 6.005-.125.932-.032 1.752-.063 2.338-.086z"/></svg>