<svg xmlns="http://www.w3.org/2000/svg" width="24" height="24"><path d="M12 18.5a1.5 1.5 0 100-3 1.5 1.5 0 000 3z"/><path fill-rule="evenodd" d="M7.25 2.735v1.5c-.533.057-1 .12-1.4.181-1.43.22-2.35 1.47-2.35 2.834V19.5h-.75a.75.75 0 000 1.5h3.286l-.957 1.915a.75.75 0 101.342.67L7.714 21h8.572l1.293 2.585a.75.75 0 101.342-.67L17.964 21h3.286a.75.75 0 000-1.5h-.75V7.25c0-1.365-.92-2.613-2.35-2.834-.4-.061-.867-.124-1.4-.18v-1.5c.425.044.807.092 1.146.14a.75.75 0 10.208-1.486c-.569-.08-1.25-.16-2.041-.226A48.435 48.435 0 0012 1c-1.57 0-2.928.068-4.063.164-.79.066-1.472.146-2.041.226a.75.75 0 00.208 1.486c.339-.048.721-.096 1.146-.14zm1.5-.129v1.5A48.174 48.174 0 0112 4c1.225 0 2.308.041 3.25.105V2.606A48.147 48.147 0 0012 2.5c-1.22 0-2.305.042-3.25.106zM6.079 5.9c1.248-.193 3.22-.4 5.921-.4s4.673.207 5.921.399c.373.057.689.279.88.601H5.2a1.24 1.24 0 01.88-.601zM15.5 8H19v5h-3.5V8zM19 19.5v-5H5v5h14zM8.5 13H5V8h3.5v5zm1.5 0V8h4v5h-4z"/></svg>