<svg xmlns="http://www.w3.org/2000/svg" width="24" height="24"><path d="M6.25 14.5a1.25 1.25 0 100-2.5 1.25 1.25 0 000 2.5zM19 13.25a1.25 1.25 0 11-2.5 0 1.25 1.25 0 012.5 0zM10 13a1 1 0 100 2h4a1 1 0 100-2h-4z"/><path fill-rule="evenodd" d="M18.98 5.776l1.193 3.378 1.42 2.028c.265.379.407.83.407 1.29v2.986c0 .764-.387 1.46-1 1.855V19a1 1 0 01-1 1h-1a1 1 0 01-1-1v-1.187A91.188 91.188 0 0112 18a91.19 91.19 0 01-6-.187V19a1 1 0 01-1 1H4a1 1 0 01-1-1v-1.687a2.207 2.207 0 01-1-1.855v-2.985c0-.462.142-.912.407-1.29l1.42-2.03 1.192-3.377a2.129 2.129 0 011.674-1.414C7.679 4.21 9.487 4 12 4c2.513 0 4.321.21 5.308.362a2.129 2.129 0 011.673 1.414zm-12.058.069C7.84 5.702 9.571 5.5 12 5.5c2.43 0 4.16.202 5.078.345a.63.63 0 01.488.43l.848 2.401A116.446 116.446 0 0012 8.5a116.446 116.446 0 00-6.414.176l.848-2.401a.63.63 0 01.488-.43zm-3.286 6.198l1.274-1.821a71.402 71.402 0 011.714-.098C7.936 10.062 9.799 10 12 10c2.201 0 4.064.062 5.376.124a84.816 84.816 0 011.714.098l1.274 1.82a.75.75 0 01.136.43v2.986a.68.68 0 01-.605.695c-1.456.146-4.152.347-7.895.347-3.743 0-6.439-.201-7.895-.347a.68.68 0 01-.605-.695v-2.985a.75.75 0 01.136-.43z"/></svg>