<svg xmlns="http://www.w3.org/2000/svg" width="24" height="24"><path d="M9 8.75a1 1 0 11-2 0 1 1 0 012 0zm7 1a1 1 0 100-2 1 1 0 000 2z"/><path fill-rule="evenodd" d="M6.472 3.615L5.658 5.81l-.97 1.319a2.25 2.25 0 00-.438 1.333v1.627c0 1.041.72 1.954 1.75 2.154V13a1 1 0 001 1h1a1 1 0 001-1v-.556a79.343 79.343 0 006 0V13a1 1 0 001 1h1a1 1 0 001-1v-.757c1.03-.2 1.75-1.113 1.75-2.154V8.462c0-.48-.153-.947-.438-1.333l-.97-1.319-.814-2.195c-.265-.713-.889-1.272-1.692-1.381C15.051 2.127 13.75 2 12 2s-3.05.127-3.836.234c-.803.109-1.427.668-1.692 1.381zm1.894.105c.723-.098 1.957-.22 3.634-.22 1.677 0 2.91.122 3.634.22a.619.619 0 01.488.417l.45 1.215a92.774 92.774 0 00-9.145 0l.451-1.215a.619.619 0 01.488-.417zm8.848 3.17l.064.004.826 1.124a.75.75 0 01.146.444v1.627c0 .377-.27.662-.607.69-1.151.1-3.069.221-5.643.221s-4.492-.12-5.643-.22a.674.674 0 01-.607-.691V8.462a.75.75 0 01.146-.444l.826-1.124.064-.004a91.268 91.268 0 0110.427 0zM3.125 15.335A.75.75 0 013.75 15h16.5a.75.75 0 01.691 1.041l-1.853 4.402c.04.016.078.033.117.05l2.342 1.036c.38.168.555.62.391 1.008a.744.744 0 01-.986.4L18.61 21.9a4.289 4.289 0 00-3.817.17 5.76 5.76 0 01-5.587 0 4.289 4.289 0 00-3.816-.17l-2.342 1.036a.744.744 0 01-.986-.4.774.774 0 01.39-1.008l2.342-1.036.118-.05L3.06 16.04a.75.75 0 01.066-.706zM19.12 16.5l-1.494 3.55a5.764 5.764 0 00-3.546.673 4.29 4.29 0 01-4.16 0 5.764 5.764 0 00-3.546-.674L4.88 16.5h14.24z"/></svg>