<svg xmlns="http://www.w3.org/2000/svg" width="24" height="24"><path fill-rule="evenodd" d="M3 19.355c0 .688.4 1.298 1 1.577V23a1 1 0 001 1h1.5a1 1 0 001-1v-1.657c1.236.087 2.724.157 4.5.157 1.776 0 3.264-.07 4.5-.157V23a1 1 0 001 1H19a1 1 0 001-1v-2.068c.6-.28 1-.89 1-1.577V13.5h.5a1 1 0 001-1v-3a1 1 0 00-1-1H21V2.146c0-.89-.668-1.647-1.57-1.731l-.545-.052C17.346.215 15.114 0 12 0S6.654.215 5.115.363l-.546.052A1.732 1.732 0 003 2.145V8.5h-.5a1 1 0 00-1 1v3a1 1 0 001 1H3v5.855zM5.258 1.856l-.55.053a.232.232 0 00-.208.237V7.25h15V2.146a.232.232 0 00-.208-.237l-.55-.053C17.207 1.71 15.039 1.5 12 1.5s-5.207.209-6.742.356zM4.5 8.75h15v4.787l-.067.003c-.49.023-1.18.054-1.982.086-1.608.062-3.66.124-5.451.124-1.792 0-3.843-.062-5.45-.124-.803-.032-1.494-.063-1.983-.086l-.067-.003V8.75zm15 6.288c-.493.024-1.186.055-1.991.086-1.615.063-3.688.126-5.509.126-1.82 0-3.894-.063-5.509-.126-.805-.03-1.498-.062-1.991-.086v4.317c0 .13.094.226.208.237l.549.052C6.79 19.79 8.956 20 12 20c3.044 0 5.21-.209 6.743-.356l.55-.052a.232.232 0 00.207-.237v-4.317z"/><path d="M10 17a1 1 0 100 2h4a1 1 0 100-2h-4zm-3.75 1.5a1.25 1.25 0 100-2.5 1.25 1.25 0 000 2.5zM19 17.25a1.25 1.25 0 11-2.5 0 1.25 1.25 0 012.5 0z"/></svg>