<svg xmlns="http://www.w3.org/2000/svg" width="24" height="24"><path fill-rule="evenodd" d="M14.5 1.75v.75h2.098a1.75 1.75 0 011.74 1.57l.857 8.327.248.075a1.75 1.75 0 011.128 2.295l-2.094 5.522c.247.07.49.157.729.26l2.342 1.013a.75.75 0 11-.596 1.376l-2.342-1.012a4.375 4.375 0 00-3.816.167 5.875 5.875 0 01-5.588 0 4.375 4.375 0 00-3.816-.167l-2.342 1.012a.75.75 0 11-.596-1.376l2.342-1.013c.239-.103.482-.19.73-.26l-2.095-5.522a1.75 1.75 0 011.128-2.295l.248-.075.857-8.326A1.75 1.75 0 017.402 2.5H9.5v-.75C9.5.784 10.284 0 11.25 0h1.5c.966 0 1.75.784 1.75 1.75zm-3.5 0a.25.25 0 01.25-.25h1.5a.25.25 0 01.25.25v.75h-2v-.75zM7.043 20.067a5.874 5.874 0 012.877.706 4.375 4.375 0 004.16 0 5.872 5.872 0 012.877-.706l2.212-5.832a.25.25 0 00-.161-.328l-.7-.212-5.591-1.264a3.25 3.25 0 00-1.434 0l-5.591 1.264-.7.212a.25.25 0 00-.161.328l2.212 5.832zM17.441 10l.206 2.008-4.6-1.04a4.751 4.751 0 00-2.095 0l-4.6 1.04L6.56 10h10.88zm-.155-1.5H6.714L6.868 7h10.264l.154 1.5zm-.309-3H7.022l.132-1.276A.25.25 0 017.402 4h9.196a.25.25 0 01.248.224l.131 1.276z"/></svg>