<svg xmlns="http://www.w3.org/2000/svg" width="24" height="24"><path d="M7.774 8.42a.75.75 0 011.056.104l2.264 2.756h2.156a.75.75 0 010 1.5h-2.167l-2.258 2.701a.75.75 0 11-1.15-.962l1.453-1.739H7.02l-.662.911a.75.75 0 01-1.214-.882l.576-.792-.584-.838a.75.75 0 011.23-.858l.67.959h2.117L7.67 9.476a.75.75 0 01.104-1.056zM18.75 10a.75.75 0 100-1.5.75.75 0 000 1.5zm.75 2a.75.75 0 11-1.5 0 .75.75 0 011.5 0zm-.75 3.5a.75.75 0 100-1.5.75.75 0 000 1.5z"/><path fill-rule="evenodd" d="M1 6.75C1 5.784 1.784 5 2.75 5h18.5c.966 0 1.75.784 1.75 1.75v10.5A1.75 1.75 0 0121.25 19H2.75A1.75 1.75 0 011 17.25V6.75zm1.75-.25a.25.25 0 00-.25.25v10.5c0 .138.112.25.25.25H18v-.25a.75.75 0 011.5 0v.25h1.75a.25.25 0 00.25-.25V6.75a.25.25 0 00-.25-.25H19.5v.25a.75.75 0 01-1.5 0V6.5H2.75z"/></svg>