<svg xmlns="http://www.w3.org/2000/svg" width="24" height="24"><path d="M8 5.25a.75.75 0 10-1.5 0 .75.75 0 001.5 0zM6.42 16.226a.75.75 0 01.104-1.055l2.756-2.265V10.75a.75.75 0 011.5 0v2.167l2.701 2.258a.75.75 0 11-.962 1.15l-1.739-1.453v2.109l.911.662a.75.75 0 01-.882 1.214l-.792-.576-.838.584a.75.75 0 11-.858-1.23l.959-.67v-2.117l-1.804 1.481a.75.75 0 01-1.056-.103zM10.75 5.25a.75.75 0 10-1.5 0 .75.75 0 001.5 0zm2.75 0a.75.75 0 10-1.5 0 .75.75 0 001.5 0z"/><path fill-rule="evenodd" d="M3 21.25c0 .966.784 1.75 1.75 1.75h10.5A1.75 1.75 0 0017 21.25V2.75A1.75 1.75 0 0015.25 1H4.75A1.75 1.75 0 003 2.75v18.5zm1.75.25a.25.25 0 01-.25-.25V6h.25a.75.75 0 000-1.5H4.5V2.75a.25.25 0 01.25-.25h10.5a.25.25 0 01.25.25V4.5h-.25a.75.75 0 000 1.5h.25v15.25a.25.25 0 01-.25.25H4.75z"/><path d="M18.75 23a.75.75 0 010-1.5h.5a.25.25 0 00.25-.25V2.75a.25.25 0 00-.25-.25h-.5a.75.75 0 010-1.5h.5c.966 0 1.75.784 1.75 1.75v18.5A1.75 1.75 0 0119.25 23h-.5z"/></svg>