<svg xmlns="http://www.w3.org/2000/svg" width="24" height="24"><path d="M6.774 7.42a.75.75 0 011.056.104l2.264 2.756h2.156a.75.75 0 010 1.5h-2.167l-2.258 2.701a.75.75 0 11-1.15-.962l1.453-1.739H6.02l-.662.911a.75.75 0 01-1.214-.882l.576-.792-.584-.838a.75.75 0 011.23-.858l.67.959h2.117L6.67 8.476a.75.75 0 01.104-1.056zM16.75 9a.75.75 0 100-1.5.75.75 0 000 1.5zm0 2.75a.75.75 0 100-1.5.75.75 0 000 1.5zm0 2.75a.75.75 0 100-1.5.75.75 0 000 1.5z"/><path fill-rule="evenodd" d="M1.75 4A1.75 1.75 0 000 5.75v10.5C0 17.216.784 18 1.75 18h17.5A1.75 1.75 0 0021 16.25V5.75A1.75 1.75 0 0019.25 4H1.75zM1.5 5.75a.25.25 0 01.25-.25H16v.25a.75.75 0 001.5 0V5.5h1.75a.25.25 0 01.25.25v10.5a.25.25 0 01-.25.25H17.5v-.25a.75.75 0 00-1.5 0v.25H1.75a.25.25 0 01-.25-.25V5.75z"/><path d="M24 7.75a.75.75 0 00-1.5 0v11.5a.25.25 0 01-.25.25H2.75a.75.75 0 000 1.5h19.5A1.75 1.75 0 0024 19.25V7.75z"/></svg>