<svg xmlns="http://www.w3.org/2000/svg" width="24" height="24"><path fill-rule="evenodd" d="M6 10c0-3.32 2.68-6 6-6s6 2.68 6 6-2.68 6-6 6-6-2.68-6-6zm1.562-.75a4.492 4.492 0 012.721-3.413A8.489 8.489 0 009.24 9.25H7.562zm8.876 0a4.492 4.492 0 00-2.721-3.413A8.49 8.49 0 0114.76 9.25h1.678zm-1.678 1.5h1.678a4.492 4.492 0 01-2.721 3.413 8.49 8.49 0 001.043-3.413zm-1.507-1.5A6.924 6.924 0 0012 5.929a6.924 6.924 0 00-1.253 3.321h2.506zm0 1.5A6.924 6.924 0 0112 14.071a6.924 6.924 0 01-1.253-3.321h2.506zm-4.013 0a8.488 8.488 0 001.043 3.413 4.492 4.492 0 01-2.721-3.413H9.24z"/><path d="M9 18.75a.75.75 0 01.75-.75h4.5a.75.75 0 010 1.5h-4.5a.75.75 0 01-.75-.75z"/><path fill-rule="evenodd" d="M4.75 1A1.75 1.75 0 003 2.75v18.5c0 .966.784 1.75 1.75 1.75h14.5A1.75 1.75 0 0021 21.25V2.75A1.75 1.75 0 0019.25 1H4.75zM4.5 2.75a.25.25 0 01.25-.25h14.5a.25.25 0 01.25.25v18.5a.25.25 0 01-.25.25H4.75a.25.25 0 01-.25-.25V2.75z"/></svg>