<svg xmlns="http://www.w3.org/2000/svg" width="24" height="24"><path fill-rule="evenodd" d="M11.108 1.09a.75.75 0 00-1.105.592v.002l-.001.013-.007.062a16.642 16.642 0 01-.195 1.2 20.929 20.929 0 01-.909 3.185c-.938 2.513-2.613 5.48-5.563 7.486A.75.75 0 003.75 15H10v1.75H3.75a.75.75 0 00-.725.943l.855 3.205-1.427.631a.774.774 0 00-.391 1.008.744.744 0 00.986.4L5.39 21.9a4.289 4.289 0 013.816.17 5.76 5.76 0 005.588 0 4.289 4.289 0 013.816-.17l2.342 1.036c.38.168.822-.01.986-.4a.774.774 0 00-.39-1.008l-1.863-.823 2.155-2.743a.75.75 0 00-.59-1.213H11.5V15h3c1.87 0 3.319-.518 4.176-1.558.868-1.052.979-2.45.577-3.866-.795-2.8-3.675-6.058-8.145-8.485zm7.1 19.067l1.499-1.907H4.727l.548 2.056a5.759 5.759 0 014.645.417 4.29 4.29 0 004.16 0 5.76 5.76 0 014.129-.566zM5.888 13.5C7.877 11.645 9.168 9.414 10 7.419V13.5H5.887zm8.613 0h-1.308C14.123 12.565 15 11.113 15 9c0-1.592-.499-3.053-1.119-4.259 2.17 1.79 3.487 3.69 3.929 5.245.317 1.116.162 1.952-.291 2.502-.463.56-1.389 1.012-3.019 1.012zm-3-9.744c.123.167.25.345.376.535C12.712 5.545 13.5 7.21 13.5 9c0 1.752-.756 2.876-1.51 3.576a5.236 5.236 0 01-.49.402V3.756z"/></svg>