<svg xmlns="http://www.w3.org/2000/svg" width="24" height="24"><path fill-rule="evenodd" d="M12 0C8.886 0 6.654.215 5.115.363l-.546.052A1.732 1.732 0 003 2.145V5h-.5a1 1 0 00-1 1v3a1 1 0 001 1H3v8.605c0 .698.409 1.3 1 1.581V22a1 1 0 001 1h1.5a1 1 0 001-1v-1.645h9V22a1 1 0 001 1H19a1 1 0 001-1v-1.814c.591-.28 1-.883 1-1.581V10h.5a1 1 0 001-1V6a1 1 0 00-1-1H21V2.146c0-.89-.668-1.647-1.57-1.731l-.545-.052C17.346.215 15.114 0 12 0zM5.258 1.856l-.55.053a.232.232 0 00-.208.237V4h15V2.146a.232.232 0 00-.208-.237l-.55-.053C17.207 1.71 15.039 1.5 12 1.5s-5.207.209-6.742.356zM4.567 8.54L4.5 8.537V5.5h15v3.037l-.067.003c-.49.023-1.18.054-1.982.086-1.608.062-3.66.124-5.451.124-1.792 0-3.843-.062-5.45-.124-.803-.032-1.494-.063-1.983-.086zM19.5 10.038c-.493.024-1.186.055-1.991.086-1.615.063-3.688.126-5.509.126-1.82 0-3.894-.063-5.509-.126-.805-.03-1.498-.062-1.991-.086V15.5H6A.75.75 0 016 17H4.5v1.605c0 .138.112.25.25.25H8V12.5a.75.75 0 01.75-.75h6.5a.75.75 0 01.75.75v6.355h3.25a.25.25 0 00.25-.25V17h-1.25a.75.75 0 010-1.5h1.25v-5.462zm-5 8.817V13.25h-5v5.605h5z"/></svg>