<svg xmlns="http://www.w3.org/2000/svg" width="24" height="24"><path fill-rule="evenodd" d="M19.25 13H19V9h.5a1 1 0 001-1V6a1 1 0 00-1-1H19V1.75A1.75 1.75 0 0017.25 0H6.75A1.75 1.75 0 005 1.75V5h-.5a1 1 0 00-1 1v2a1 1 0 001 1H5v4h-.25A1.75 1.75 0 003 14.75v1.418c-.591.281-1 .884-1 1.582v1c0 .966.784 1.75 1.75 1.75H4V22a1 1 0 001 1h1.5a1 1 0 001-1v-1.5h9V22a1 1 0 001 1H19a1 1 0 001-1v-1.5h.25A1.75 1.75 0 0022 18.75v-1c0-.698-.409-1.3-1-1.582V14.75A1.75 1.75 0 0019.25 13zM6.75 1.5a.25.25 0 00-.25.25V3h11V1.75a.25.25 0 00-.25-.25H6.75zM17.5 9.04V13H16V9.817c0-.235-.048-.465-.137-.675a84.703 84.703 0 001.637-.101zm0-1.503V4.5h-11v3.037l.057.004c.317.023.773.054 1.324.085 1.105.062 2.59.124 4.119.124a75.28 75.28 0 004.119-.124 79.415 79.415 0 001.381-.09zM6.5 9.04V13H8V9.817c0-.235.048-.465.137-.675A85.752 85.752 0 016.5 9.041zm13 5.709V16H16v-1.5h3.25a.25.25 0 01.25.25zM8 14.5H4.75a.25.25 0 00-.25.25V16H8v-1.5zm6.5-4.683V16h-5V9.817c0-.06.021-.108.047-.14a.142.142 0 01.096-.05A20.716 20.716 0 0112 9.5c1.016 0 1.821.065 2.357.127.04.004.07.022.096.05.026.032.047.08.047.14zM3.75 17.5a.25.25 0 00-.25.25v1c0 .138.112.25.25.25h16.5a.25.25 0 00.25-.25v-1a.25.25 0 00-.25-.25H3.75z"/></svg>