<svg xmlns="http://www.w3.org/2000/svg" width="24" height="24"><path stroke="#000" d="M17.695 19.43l-.65.15.325.581 1.107 1.985a.25.25 0 01-.45.216l-.005-.008-.004-.008-1.409-2.59-.147-.27-.306.01-.154.004H7.998l-.154-.004-.307-.01-.146.27-1.41 2.59-.004.008-.003.008a.25.25 0 01-.451-.216L6.63 20.16l.324-.582-.649-.149a2.694 2.694 0 01-2.1-2.599c-.011-1.298-.009-2.962.045-4.59a57.18 57.18 0 01.731-7.445C5.278 2.981 6.775 1.63 8.618 1.56 9.525 1.525 10.65 1.5 12 1.5c1.304 0 2.424.027 3.341.063a3.88 3.88 0 013.685 3.275c.333 2.043.627 4.485.724 7.404.054 1.627.056 3.29.044 4.589a2.694 2.694 0 01-2.1 2.6zm-.172-15.18h.978l-.572-.793a3.367 3.367 0 00-2.607-1.395A85.17 85.17 0 0012 2c-1.344 0-2.463.025-3.363.06a3.304 3.304 0 00-2.588 1.402l-.555.788h12.029zm-11.602.5h-.427l-.067.422a56.497 56.497 0 00-.637 6.116l-.024.49.49.033C6.357 11.886 8.595 12 12 12s5.642-.114 6.744-.189l.49-.033-.024-.49a56.492 56.492 0 00-.637-6.116l-.067-.422H5.921zm-.659 7.81l-.522-.037-.012.523a118.103 118.103 0 00-.022 3.78A2.202 2.202 0 006.923 19h.56v0h9v0h.595a2.202 2.202 0 002.216-2.174c.01-1.085.01-2.423-.022-3.78l-.012-.523-.522.036c-1.056.073-3.291.191-6.738.191-3.447 0-5.682-.118-6.738-.19zM8.5 15.75a.75.75 0 11-1.5 0 .75.75 0 011.5 0zm8.5 0a.75.75 0 11-1.5 0 .75.75 0 011.5 0z"/></svg>