<svg xmlns="http://www.w3.org/2000/svg" width="24" height="24"><path d="M9 15.75a1.25 1.25 0 11-2.5 0 1.25 1.25 0 012.5 0zM16.25 17a1.25 1.25 0 100-2.5 1.25 1.25 0 000 2.5z"/><path fill-rule="evenodd" d="M17.807 19.918a3.194 3.194 0 002.487-3.082c.012-1.302.01-2.974-.044-4.61a57.651 57.651 0 00-.73-7.469 4.38 4.38 0 00-4.16-3.694A86.16 86.16 0 0012 1a89.64 89.64 0 00-3.402.06c-2.085.08-3.776 1.611-4.11 3.655a57.681 57.681 0 00-.738 7.51 112.416 112.416 0 00-.044 4.61 3.194 3.194 0 002.487 3.082l-1.114 1.998a.75.75 0 101.342.67l1.409-2.59.16.005h8.02l.16-.005 1.41 2.59a.75.75 0 101.34-.67l-1.113-1.997zM8.656 2.559A88.27 88.27 0 0112 2.5c1.29 0 2.397.026 3.302.062a2.866 2.866 0 012.221 1.188H6.458a2.804 2.804 0 012.198-1.19zM5.92 5.25a55.995 55.995 0 00-.632 6.062c1.091.074 3.318.188 6.711.188 3.393 0 5.62-.114 6.71-.188a56.01 56.01 0 00-.63-6.062H5.92zm-.715 11.572c-.01-1.082-.01-2.414.022-3.764 1.067.074 3.314.192 6.772.192s5.705-.118 6.772-.192c.032 1.35.032 2.682.022 3.764a1.702 1.702 0 01-1.716 1.678H6.923a1.702 1.702 0 01-1.717-1.678z"/><path fill-rule="evenodd" d="M7.732 2.75c-.515.201-.957.55-1.274 1h11.065a2.866 2.866 0 00-2.22-1.188A84.657 84.657 0 0012 2.5c-1.338 0-2.45.025-3.344.06a2.833 2.833 0 00-.924.19zM7.991 20l-.161-.005-1.41 2.59a.75.75 0 11-1.34-.67l1.113-1.997a3.218 3.218 0 01-.935-.377 3.179 3.179 0 01-1.552-2.705c-.012-1.302-.01-2.974.044-4.61.098-2.965.399-5.442.738-7.51.334-2.045 2.025-3.576 4.11-3.656A89.64 89.64 0 0112 1c1.31 0 2.437.027 3.36.063a4.38 4.38 0 014.16 3.694c.335 2.06.632 4.524.73 7.468.054 1.637.056 3.309.044 4.61a3.18 3.18 0 01-1.552 2.706c-.286.171-.601.3-.935.377l1.114 1.997a.75.75 0 11-1.342.67l-1.409-2.59-.16.005H7.99zM18.079 5.25a56.01 56.01 0 01.632 6.062c-1.091.074-3.318.188-6.711.188-3.393 0-5.62-.114-6.71-.188.115-2.333.357-4.338.63-6.062h12.16zM7.517 18.5h-.594a1.702 1.702 0 01-1.717-1.678 125.228 125.228 0 01.022-3.764c.261.018.594.039.998.06 1.244.065 3.164.132 5.774.132s4.53-.067 5.774-.132c.404-.021.737-.042.998-.06a124.765 124.765 0 01.022 3.764 1.702 1.702 0 01-1.716 1.678H7.517zM9 15.75a1.25 1.25 0 11-2.5 0 1.25 1.25 0 012.5 0zM16.25 17a1.25 1.25 0 100-2.5 1.25 1.25 0 000 2.5z"/></svg>