<svg xmlns="http://www.w3.org/2000/svg" width="24" height="24"><path d="M6.25 15a1.25 1.25 0 100-2.5 1.25 1.25 0 000 2.5zM19 13.75a1.25 1.25 0 11-2.5 0 1.25 1.25 0 012.5 0zm-9-.25a1 1 0 100 2h4a1 1 0 100-2h-4z"/><path fill-rule="evenodd" d="M15.25 4.25v.876c.878.07 1.569.16 2.058.236a2.129 2.129 0 011.673 1.414l1.192 3.378 1.42 2.028c.265.379.407.83.407 1.29v2.986c0 .764-.387 1.46-1 1.855V20a1 1 0 01-1 1h-1a1 1 0 01-1-1v-1.187A91.188 91.188 0 0112 19a91.19 91.19 0 01-6-.187V20a1 1 0 01-1 1H4a1 1 0 01-1-1v-1.687a2.207 2.207 0 01-1-1.855v-2.985c0-.462.142-.912.407-1.29l1.42-2.03 1.192-3.377a2.129 2.129 0 011.674-1.414 28.356 28.356 0 012.057-.236V4.25A2.25 2.25 0 0111 2h2a2.25 2.25 0 012.25 2.25zm-5 0A.75.75 0 0111 3.5h2a.75.75 0 01.75.75v.785a42.86 42.86 0 00-3.5 0V4.25zm7.316 3.025l.848 2.401A116.446 116.446 0 0012 9.5a116.446 116.446 0 00-6.414.176l.848-2.401a.63.63 0 01.488-.43C7.84 6.702 9.571 6.5 12 6.5c2.43 0 4.16.202 5.078.345a.63.63 0 01.488.43zm-13.93 5.768l1.274-1.821a71.402 71.402 0 011.714-.098C7.936 11.062 9.799 11 12 11c2.201 0 4.064.062 5.376.124a84.816 84.816 0 011.714.098l1.274 1.82a.75.75 0 01.136.43v2.986a.68.68 0 01-.605.695c-1.456.146-4.152.347-7.895.347-3.743 0-6.439-.201-7.895-.347a.68.68 0 01-.605-.695v-2.985a.75.75 0 01.136-.43z"/></svg>