<svg xmlns="http://www.w3.org/2000/svg" width="24" height="24"><path fill-rule="evenodd" d="M19.5 9.75A1.75 1.75 0 0017.75 8h-6A1.75 1.75 0 0010 9.75v2.5c0 .966.784 1.75 1.75 1.75h6a1.75 1.75 0 001.75-1.75v-2.5zm-1.75-.25a.25.25 0 01.25.25v2.5a.25.25 0 01-.25.25h-6a.25.25 0 01-.25-.25v-2.5a.25.25 0 01.25-.25h6z"/><path fill-rule="evenodd" d="M21.25 4.25c.966 0 1.75.784 1.75 1.75v11.5a1.75 1.75 0 01-1.75 1.75H3.75A2.75 2.75 0 011 16.5v-1.328c0-1.521.252-3.032.747-4.47l1.116-3.246A4.75 4.75 0 017.355 4.25H21.25zM21.5 6a.25.25 0 00-.25-.25H7.355A3.25 3.25 0 004.28 7.943L4.261 8H6.25C7.216 8 8 8.784 8 9.75v2.5A1.75 1.75 0 016.25 14H2.556c-.037.389-.056.78-.056 1.172V16.5c0 .69.56 1.25 1.25 1.25h17.5a.25.25 0 00.25-.25V6zM2.795 12.5H6.25a.25.25 0 00.25-.25v-2.5a.25.25 0 00-.25-.25H3.746l-.58 1.69c-.149.43-.272.867-.371 1.31z"/></svg>