<svg xmlns="http://www.w3.org/2000/svg" width="24" height="24"><path fill-rule="evenodd" d="M2.761 4.5C1.788 4.5 1 5.284 1 6.25v11.5c0 .966.788 1.75 1.761 1.75h14.102c3.141 0 5.358-1.117 5.974-3.16.596-1.974-.478-4.316-2.688-6.384l-.002-.002-3.78-3.587A6.816 6.816 0 0011.675 4.5H2.76zM2.51 6.25A.25.25 0 012.76 6h8.915c1.359 0 2.665.52 3.648 1.452l.05.048H9.818c-.972 0-1.76.784-1.76 1.75v3c0 .966.788 1.75 1.76 1.75H21.14a.77.77 0 00.105-.007c.274.74.304 1.393.146 1.916C21.065 16.992 19.76 18 16.863 18H2.76a.25.25 0 01-.251-.25V6.25zm17.909 6.25c-.343-.47-.775-.957-1.306-1.454l-.004-.003L16.955 9H9.819a.25.25 0 00-.251.25v3c0 .138.112.25.251.25h10.6z"/></svg>