<svg xmlns="http://www.w3.org/2000/svg" width="24" height="24"><path fill-rule="evenodd" d="M5.75 8A1.75 1.75 0 004 9.75v2.5c0 .966.784 1.75 1.75 1.75h12.5A1.75 1.75 0 0020 12.25v-2.5A1.75 1.75 0 0018.25 8H5.75zM5.5 9.75a.25.25 0 01.25-.25h12.5a.25.25 0 01.25.25v2.5a.25.25 0 01-.25.25H5.75a.25.25 0 01-.25-.25v-2.5z"/><path fill-rule="evenodd" d="M2.75 4.5A1.75 1.75 0 001 6.25v11.5c0 .966.784 1.75 1.75 1.75h18.5A1.75 1.75 0 0023 17.75V6.25a1.75 1.75 0 00-1.75-1.75H2.75zM2.5 6.25A.25.25 0 012.75 6h18.5a.25.25 0 01.25.25v11.5a.25.25 0 01-.25.25H2.75a.25.25 0 01-.25-.25V6.25z"/></svg>