<svg xmlns="http://www.w3.org/2000/svg" width="24" height="24"><path d="M7.75 17a1.25 1.25 0 100-2.5 1.25 1.25 0 000 2.5zm9.75-1.25a1.25 1.25 0 11-2.5 0 1.25 1.25 0 012.5 0z"/><path fill-rule="evenodd" d="M20.294 16.836a3.196 3.196 0 01-2.668 3.118l1.311 2.995a.75.75 0 11-1.374.602l-.46-1.051H6.897l-.46 1.05a.75.75 0 01-1.374-.6l1.31-2.996a3.196 3.196 0 01-2.667-3.118c-.012-1.302-.01-2.974.044-4.61.098-2.965.399-5.442.738-7.51.334-2.045 2.025-3.576 4.11-3.656A89.64 89.64 0 0112 1c1.31 0 2.437.027 3.36.063a4.38 4.38 0 014.16 3.694c.335 2.06.632 4.524.73 7.468.054 1.637.056 3.309.044 4.61zM8.656 2.559A88.27 88.27 0 0112 2.5c1.29 0 2.397.026 3.302.062a2.866 2.866 0 012.221 1.188H6.458a2.804 2.804 0 012.198-1.19zM5.92 5.25a55.995 55.995 0 00-.632 6.062c1.091.074 3.318.188 6.711.188 3.393 0 5.62-.114 6.71-.188a56.01 56.01 0 00-.63-6.062H5.92zm-.715 11.572c-.01-1.082-.01-2.414.022-3.764 1.067.074 3.314.192 6.772.192s5.705-.118 6.772-.192c.032 1.35.032 2.682.022 3.764a1.702 1.702 0 01-1.716 1.678H6.923a1.702 1.702 0 01-1.717-1.678zM7.553 21h8.894l-.438-1H7.991l-.438 1z"/></svg>