<svg xmlns="http://www.w3.org/2000/svg" width="24" height="24"><path d="M17.75 10.5h1.858a.25.25 0 01.215.121l1.2 2a.25.25 0 01-.215.379H17.75a.25.25 0 01-.25-.25v-2a.25.25 0 01.25-.25z"/><path fill-rule="evenodd" d="M1.75 4A1.75 1.75 0 000 5.75v11c0 .966.784 1.75 1.75 1.75h1.291a3 3 0 005.918 0h5.082a3 3 0 005.918 0h2.291A1.75 1.75 0 0024 16.75v-3.478a1.75 1.75 0 00-.242-.887l-2.072-3.522A1.75 1.75 0 0020.178 8H16.5V5.75A1.75 1.75 0 0014.75 4h-13zm18.08 13h2.42a.25.25 0 00.25-.25v-3.478a.25.25 0 00-.035-.126l-2.072-3.523a.25.25 0 00-.215-.123H16.5v5.541A3.001 3.001 0 0119.83 17zM15 15.764V5.75a.25.25 0 00-.25-.25h-13a.25.25 0 00-.25.25v11c0 .138.112.25.25.25h1.42a3.001 3.001 0 015.66 0h5.34c.17-.48.459-.904.83-1.236zM6 16.5a1.5 1.5 0 100 3 1.5 1.5 0 000-3zm9.5 1.5a1.5 1.5 0 113 0 1.5 1.5 0 01-3 0z"/></svg>