<svg xmlns="http://www.w3.org/2000/svg" width="24" height="24"><path fill-rule="evenodd" d="M2.75 10A.75.75 0 012 9.25c0-1.94 1.215-3.759 2.864-5.058C6.527 2.882 9.75 2 12 2s3.473.882 5.136 2.192C18.785 5.492 20 7.311 20 9.25a.75.75 0 01-.75.75h-7.5v5.5h3.853l3.956-2.497a2.253 2.253 0 012.414 3.806l-4.603 2.953a1.5 1.5 0 01-.81.238h-.435l.817 1.962a.75.75 0 01-1.384.576L14.5 20h-9l-1.058 2.538a.75.75 0 01-1.384-.576L3.875 20H3.25a2.25 2.25 0 010-4.5h7V10h-7.5zm13.78 8.5l4.637-2.956a.754.754 0 00-.807-1.272l-4.132 2.607a.747.747 0 01-.389.116.773.773 0 01-.089.005H3.25a.75.75 0 000 1.5h13.28zm-7.76-10h4.46c-.08-1.402-.374-2.632-.79-3.532C11.923 3.848 11.36 3.5 11 3.5c-.36 0-.923.347-1.44 1.468-.416.9-.71 2.13-.79 3.532zm-.38-4.545a6.794 6.794 0 00-.192.385c-.518 1.12-.85 2.572-.93 4.16h-3.68C3.84 7.411 4.62 6.295 5.792 5.37A8.965 8.965 0 018.39 3.955zm5.22 0a6.9 6.9 0 01.192.385c.518 1.12.85 2.572.93 4.16h3.68c-.252-1.089-1.031-2.205-2.204-3.13a8.966 8.966 0 00-2.598-1.415z"/></svg>