<svg xmlns="http://www.w3.org/2000/svg" width="24" height="24"><path fill-rule="evenodd" d="M14.242 2.715a9.262 9.262 0 00-9.454 3.567c-.037.057-.04.074-.04.082v.001s-.002.008-.001.024a.407.407 0 00.031.143l.001.002.008.009c.01.01.032.03.075.061.099.07.239.152.488.296l3.17 1.83c1.334-2.162 2.873-3.943 4.352-5.107a9.341 9.341 0 011.37-.908zm3.379-.277C12.984-.236 7.185.934 3.914 4.96l-.054.066c-.244.299-.516.63-.593 1.095-.063.38.02.834.215 1.167.138.236.32.4.506.535.166.119.372.238.587.362L4.6 8.2l6.627 3.826L5.792 21.5H1.75a.75.75 0 000 1.5h20.5a.75.75 0 000-1.5H7.522l5.004-8.724 6.649 3.838c.215.124.421.243.607.328.21.094.442.169.716.17.386.002.82-.152 1.118-.397.364-.299.516-.7.652-1.06l.03-.08c1.852-4.848-.036-10.457-4.673-13.135l-.004-.002zm-.746 1.301c-.242-.14-.608-.19-1.152-.028-.546.162-1.202.523-1.923 1.09-1.305 1.027-2.724 2.65-3.98 4.68l5.61 3.239c1.13-2.102 1.826-4.144 2.063-5.786.13-.91.115-1.657-.017-2.211-.132-.553-.359-.844-.601-.984zm-.146 9.731c1.207-2.236 1.98-4.46 2.248-6.323.083-.573.12-1.124.102-1.64a9.262 9.262 0 011.638 9.972c-.031.06-.045.07-.051.075l-.001.001-.02.013a.4.4 0 01-.117.04l-.023.004h-.003s-.004 0-.011-.003a.59.59 0 01-.09-.034 6.62 6.62 0 01-.501-.274l-3.17-1.83z"/></svg>