<svg xmlns="http://www.w3.org/2000/svg" width="24" height="24"><path fill-rule="evenodd" d="M17.122.595L16.99-.03l-.638.03c-.7.034-1.395.272-2.079.668-.685.398-1.265.9-1.73 1.508-.365.46-.68 1.019-.95 1.66l-.003.008a5.619 5.619 0 00-.402 1.644 19.744 19.744 0 00-1.012-.397 4.677 4.677 0 00-1.63-.282c-1.058 0-2.071.293-3.028.858-.982.572-1.769 1.412-2.369 2.487l-.002.004c-.612 1.113-.897 2.444-.897 3.96 0 .954.11 1.906.326 2.856v.002c.215.93.505 1.82.871 2.665l.004.008c.37.83.784 1.574 1.242 2.225l.003.005a19.59 19.59 0 001.674 2.06l.003.005C7.028 22.625 7.828 23 8.748 23c.54 0 1.047-.092 1.503-.302.328-.145.673-.29 1.033-.436.264-.103.635-.17 1.142-.17.523 0 .868.066 1.08.153.339.146.667.292.982.438.454.21.986.293 1.557.293.644 0 1.24-.173 1.766-.528.47-.313.895-.708 1.275-1.176.35-.43.688-.877 1.014-1.339l.005-.008c.372-.544.681-1.07.922-1.576l.002-.004c.225-.48.398-.896.514-1.24a17.252 17.252 0 00.166-.486.799.799 0 00.019-.069c.002-.009.022-.09.022-.186V15.9l-.415-.207-.008-.004-.026-.013-.433-.222c-.23-.128-.521-.341-.878-.66-.298-.274-.582-.651-.841-1.154-.226-.444-.356-1.017-.356-1.747 0-.628.102-1.134.28-1.538.203-.462.43-.817.672-1.083.288-.317.523-.53.707-.66l.006-.004.007-.004.417-.31.579-.433-.412-.594c-.412-.595-.881-1.084-1.414-1.444a5.77 5.77 0 00-1.495-.743 6.152 6.152 0 00-1.292-.28 10.826 10.826 0 00-.71-.049c.264-.423.486-.884.67-1.38v-.003c.25-.687.377-1.394.377-2.117 0-.226-.02-.446-.063-.656zm-3.957 6.477c.29-.081.578-.199.862-.348.22-.085.454-.17.7-.255l.007-.002a3.895 3.895 0 011.31-.217c.12 0 .336.013.663.044h.002c.272.025.596.094.976.215l.004.001c.344.109.712.29 1.105.555.192.13.383.293.57.492-.236.194-.48.432-.728.706-.374.41-.682.912-.936 1.488-.28.635-.407 1.356-.407 2.142 0 .905.162 1.724.52 2.428l.001.004c.323.626.708 1.16 1.166 1.578l.006.005c.384.344.75.625 1.098.826a10.25 10.25 0 01-1.214 2.34c-.305.433-.62.85-.947 1.252a4.279 4.279 0 01-.945.875l-.006.004a1.596 1.596 0 01-.927.271c-.438 0-.735-.066-.927-.154a42.99 42.99 0 00-1.024-.457l-.007-.003c-.468-.195-1.037-.27-1.661-.27-.628 0-1.201.081-1.695.276l-.005.002a35.7 35.7 0 00-1.086.458l-.007.003-.006.003c-.221.102-.507.166-.88.166-.467 0-.888-.175-1.29-.593a18.228 18.228 0 01-1.54-1.898 11.776 11.776 0 01-1.095-1.968 13.946 13.946 0 01-.784-2.402 11.28 11.28 0 01-.288-2.522c0-1.33.25-2.397.71-3.234.488-.872 1.095-1.502 1.815-1.92l.004-.003c.746-.441 1.498-.651 2.268-.651.407 0 .775.065 1.112.19l.004.001c.419.152.804.307 1.156.464l.013.005c.438.186.882.295 1.322.295.327 0 .667-.072 1.011-.192zm.232-1.711a3.924 3.924 0 001.263-1.096 5.81 5.81 0 00.74-1.411c.142-.393.231-.79.267-1.193a4.077 4.077 0 00-.642.305c-.526.305-.954.68-1.293 1.125l-.005.007-.005.006c-.262.329-.513.761-.745 1.311a4.115 4.115 0 00-.297 1.233l.038-.01c.05-.017.102-.038.158-.06.167-.074.34-.146.52-.217z"/></svg>