<svg xmlns="http://www.w3.org/2000/svg" width="24" height="24"><path fill-rule="evenodd" d="M3.574 3h16.852c.258 0 .494 0 .692.016.213.018.446.058.677.175.329.168.596.435.764.765.118.23.157.463.175.676.016.198.016.434.016.692v1.102c0 .258 0 .494-.016.692a1.775 1.775 0 01-.175.676 1.75 1.75 0 01-.765.765 1.77 1.77 0 01-.676.175 5.721 5.721 0 01-.368.015v9.927c0 .258 0 .494-.016.692a1.775 1.775 0 01-.175.677 1.75 1.75 0 01-.765.764 1.77 1.77 0 01-.676.175c-.198.016-.434.016-.692.016H5.574c-.258 0-.494 0-.692-.016a1.775 1.775 0 01-.676-.175 1.75 1.75 0 01-.765-.765 1.774 1.774 0 01-.175-.676c-.016-.198-.016-.434-.016-.692V8.75a5.482 5.482 0 01-.368-.015 1.774 1.774 0 01-.676-.175 1.75 1.75 0 01-.765-.764 1.774 1.774 0 01-.175-.677c-.016-.198-.016-.434-.016-.692V5.324c0-.258 0-.494.016-.692a1.77 1.77 0 01.175-.676 1.75 1.75 0 01.765-.765c.23-.117.463-.157.676-.175C3.08 3 3.316 3 3.574 3zM4.75 8.75h14.5v9.9c0 .292 0 .467-.011.596a.636.636 0 01-.018.12.25.25 0 01-.105.105.638.638 0 01-.12.018c-.13.01-.304.011-.596.011H5.6c-.292 0-.467 0-.596-.011a.638.638 0 01-.12-.018.25.25 0 01-.105-.105.626.626 0 01-.018-.12 8.337 8.337 0 01-.011-.596v-9.9zm.03 10.62v-.002.001zm.1.1h.002-.001zm14.24 0l-.004.001h.003zm.1-.1v-.002.001zM2.883 4.528a.628.628 0 01.121-.018c.13-.01.304-.01.596-.01h16.8c.292 0 .467 0 .596.01a.626.626 0 01.12.018.25.25 0 01.105.105.638.638 0 01.018.12c.01.13.011.304.011.596V6.4c0 .292 0 .467-.011.596a.638.638 0 01-.018.12.25.25 0 01-.105.105.626.626 0 01-.12.018c-.13.01-.304.011-.596.011H3.6c-.292 0-.467 0-.596-.011a.627.627 0 01-.12-.018.25.25 0 01-.105-.104.628.628 0 01-.018-.121A8.34 8.34 0 012.75 6.4V5.35c0-.292 0-.466.011-.596a.628.628 0 01.018-.12.25.25 0 01.104-.105zm-.002 0h.001-.001zm-.101.102v.002-.002zm0 2.488v-.001.001zm.1.101h.002-.001zm18.24 0h-.003.002zm.1-.1v-.002.001zm0-2.489v.001-.001zm-.102-.102h.001-.001zM8.25 12.75A.75.75 0 019 12h6a.75.75 0 010 1.5H9a.75.75 0 01-.75-.75z"/></svg>