<svg xmlns="http://www.w3.org/2000/svg" width="24" height="24"><path fill-rule="evenodd" d="M2 12C2 6.477 6.477 2 12 2c5.556 0 9.72 4.511 9.999 9.962.011.22.011.49.008.694 0 .104-.003.195-.004.261l-.003.078v.017c0 .774-.064 1.365-.226 1.85-.172.517-.438.863-.744 1.168-.424.425-1.069.72-2.03.72a3.75 3.75 0 01-2.652-1.098 2.608 2.608 0 01-.46-.62 5.5 5.5 0 01-.404.452C14.58 16.387 13.334 17 12 17c-1.335 0-2.58-.613-3.484-1.516C7.613 14.58 7 13.334 7 12c0-1.335.613-2.58 1.516-3.484C9.42 7.613 10.666 7 12 7c1.335 0 2.58.613 3.484 1.516l.016.017V7.75a.75.75 0 011.5 0V13c0 .797.084 1.266.409 1.591A2.25 2.25 0 0019 15.25c.63 0 .87-.18.97-.28.194-.195.303-.349.381-.582.087-.262.149-.668.149-1.388v-.03l.001-.019.002-.07.005-.244a10.55 10.55 0 00-.007-.599C20.257 7.285 16.661 3.5 12 3.5A8.5 8.5 0 003.5 12c0 4.697 3.808 8.517 8.497 8.5 1.19-.004 2.124-.15 2.969-.466.844-.317 1.643-.822 2.543-1.6a.75.75 0 01.982 1.133c-.992.859-1.942 1.475-2.998 1.871-1.057.396-2.178.557-3.49.562C6.475 22.02 2 17.52 2 12zm13.5 0c0-.874-.407-1.754-1.077-2.423C13.753 8.907 12.874 8.5 12 8.5c-.874 0-1.754.407-2.423 1.077-.67.67-1.077 1.549-1.077 2.423 0 .874.407 1.754 1.077 2.423.67.67 1.549 1.077 2.423 1.077.874 0 1.754-.407 2.423-1.077.67-.67 1.077-1.549 1.077-2.423z"/></svg>