<svg xmlns="http://www.w3.org/2000/svg" width="24" height="24"><path fill-rule="evenodd" d="M12 6a.75.75 0 01.75.75V9h2.5a.75.75 0 010 1.5h-2.5v2.75a.75.75 0 01-1.5 0V10.5h-2.5a.75.75 0 010-1.5h2.5V6.75A.75.75 0 0112 6z"/><path fill-rule="evenodd" d="M5 3.75C5 2.784 5.784 2 6.75 2h10.5c.966 0 1.75.784 1.75 1.75v17.5a.75.75 0 01-1.218.586L12 17.21l-5.781 4.625A.75.75 0 015 21.25V3.75zm1.75-.25a.25.25 0 00-.25.25v15.94l5.031-4.026a.75.75 0 01.938 0L17.5 19.69V3.75a.25.25 0 00-.25-.25H6.75z"/></svg>