<svg xmlns="http://www.w3.org/2000/svg" width="24" height="24"><path d="M14.513 6a.75.75 0 01.75.75v2h1.987a.75.75 0 110 1.5h-1.987v2a.75.75 0 11-1.5 0v-2H11.75a.75.75 0 110-1.5h2.013v-2a.75.75 0 01.75-.75z"/><path fill-rule="evenodd" d="M7.024 3.75c0-.966.784-1.75 1.75-1.75H20.25c.966 0 1.75.784 1.75 1.75v11.498a1.75 1.75 0 01-1.75 1.75H8.774a1.75 1.75 0 01-1.75-1.75V3.75zm1.75-.25a.25.25 0 00-.25.25v11.498c0 .139.112.25.25.25H20.25a.25.25 0 00.25-.25V3.75a.25.25 0 00-.25-.25H8.774z"/><path d="M2.128 10.079a1.75 1.75 0 00-.133.67L2 20.25A1.75 1.75 0 003.75 22h9.5A1.75 1.75 0 0015 20.25v-1.51a.75.75 0 00-1.5 0v1.51a.25.25 0 01-.25.25h-9.5a.25.25 0 01-.25-.25l-.005-9.502a.25.25 0 01.25-.25H5.25a.75.75 0 000-1.5H3.745a1.75 1.75 0 00-1.617 1.081z"/></svg>