<svg xmlns="http://www.w3.org/2000/svg" width="24" height="24"><path d="M3.103 9.607C3.103 5.363 6.548 2 10.836 2c3.19 0 5.912 1.858 7.099 4.563a.596.596 0 01.01.022l.001.006C21.348 6.845 24 9.595 24 13.036c0 3.58-1.513 5.762-4.123 6.335-.467.103-.877-.28-.877-.758 0-.348.265-.634.604-.717 1.938-.471 2.896-2.163 2.896-4.86 0-2.759-2.226-4.965-5.069-4.965a.75.75 0 01-.696-.47l-.179-.446C15.606 5 13.424 3.5 10.836 3.5c-3.485 0-6.233 2.717-6.233 6.107 0 .284.022.602.052.756a.75.75 0 01-.552.869c-1.52.385-2.603 1.712-2.603 3.328 0 1.7 1.205 3.09 2.862 3.383.349.062.638.344.638.698 0 .475-.387.867-.855.79C1.774 19.038 0 17.04 0 14.56a4.9 4.9 0 013.112-4.581 8.012 8.012 0 01-.009-.372z"/><path d="M11.263 19.331V10.75a.75.75 0 111.5 0v8.58l2.95-3.11a.75.75 0 111.1 1.017l-4.25 4.52a.752.752 0 01-1.102 0l-4.25-4.52a.75.75 0 111.102-1.017l2.95 3.111z"/></svg>