<svg xmlns="http://www.w3.org/2000/svg" width="24" height="24"><path d="M20.363 14.42a11.359 11.359 0 001.524-2.011.797.797 0 000-.818A11.487 11.487 0 0012 6c-.81 0-1.6.083-2.363.241-.575.12-.688.845-.209 1.184a.67.67 0 00.522.106A10.285 10.285 0 0112 7.326c3.525 0 6.63 1.78 8.445 4.486a.338.338 0 010 .377c-.324.483-.69.936-1.09 1.356-.266.277-.24.732.073.953.292.206.69.18.935-.079zM1.317 5.362L3.648 7.01l1.254.889.366.26a11.444 11.444 0 00-3.155 3.432.797.797 0 000 .818A11.487 11.487 0 0012 18c1.929 0 3.747-.47 5.342-1.303l4.475 3.165a.75.75 0 10.866-1.224L7.899 8.181a10.14 10.14 0 00-1.472.796l2.785 1.97A2.913 2.913 0 009.016 12c0 1.63 1.336 2.95 2.985 2.95.725 0 1.39-.256 1.907-.681l2.193 1.55c-1.254.55-2.642.855-4.1.855-3.526 0-6.632-1.78-8.446-4.486a.338.338 0 010-.377 10.125 10.125 0 014.344-3.63L2.183 4.138a.75.75 0 10-.866 1.224z"/></svg>