<svg xmlns="http://www.w3.org/2000/svg" width="24" height="24"><path d="M14.985 12c0 1.63-1.336 2.95-2.984 2.95-1.649 0-2.985-1.32-2.985-2.95 0-1.63 1.336-2.95 2.985-2.95 1.648 0 2.984 1.32 2.984 2.95z"/><path fill-rule="evenodd" d="M12 6c4.212 0 7.893 2.245 9.887 5.591a.8.8 0 010 .818A11.487 11.487 0 0112 18a11.487 11.487 0 01-9.887-5.591.797.797 0 010-.818A11.487 11.487 0 0112 6zm-8.445 6.188A10.147 10.147 0 0012 16.674c3.525 0 6.63-1.78 8.445-4.486a.338.338 0 000-.377A10.147 10.147 0 0012 7.327c-3.525 0-6.63 1.78-8.445 4.486a.338.338 0 000 .377z"/></svg>