<svg xmlns="http://www.w3.org/2000/svg" width="24" height="24"><path fill-rule="evenodd" d="M19.995 11.693c.48-.47.921-.982 1.318-1.53A.73.73 0 0020.728 9a.778.778 0 00-.622.33c-1.856 2.525-4.797 4.155-8.106 4.155-3.31 0-6.25-1.63-8.106-4.155A.778.778 0 003.272 9a.73.73 0 00-.586 1.163c.397.548.838 1.06 1.319 1.53l-1.789 1.843a.787.787 0 000 1.084.69.69 0 001 0l1.906-1.963a11.45 11.45 0 003.446 1.792l-.695 2.576c-.11.41.118.837.507.948.383.11.778-.126.886-.529L9.98 14.8a11.35 11.35 0 004.041 0l.713 2.644c.108.403.503.639.886.53.39-.112.618-.539.507-.949l-.694-2.576a11.441 11.441 0 003.446-1.792l1.905 1.963a.69.69 0 001 0 .787.787 0 000-1.084l-1.788-1.843z"/></svg>