<svg xmlns="http://www.w3.org/2000/svg" width="24" height="24"><path fill-rule="evenodd" d="M14.829 14.828a4 4 0 10-5.656-5.656 4 4 0 005.656 5.656zm-1.06-1.06a2.5 2.5 0 10-3.537-3.536 2.5 2.5 0 003.536 3.536z"/><path fill-rule="evenodd" d="M11.204 1.028a11.674 11.674 0 011.593 0c.763.055 1.345.617 1.512 1.304l.353 1.45c.018.078.09.171.224.221.248.09.49.19.729.302.13.061.245.044.315.002l1.274-.776c.604-.368 1.412-.353 1.99.147.402.349.78.726 1.129 1.129.5.578.514 1.386.146 1.99l-.776 1.274c-.042.069-.058.185.002.315.113.238.214.48.303.728.049.135.142.205.22.225l1.45.352c.688.167 1.25.749 1.303 1.512.039.53.039 1.063 0 1.594-.053.763-.616 1.345-1.302 1.512l-1.45.352c-.079.019-.172.09-.222.225-.088.248-.19.491-.302.728-.06.13-.044.246-.002.315l.776 1.275c.368.603.354 1.411-.146 1.99-.35.402-.727.78-1.13 1.128-.578.501-1.386.515-1.99.147l-1.273-.776c-.07-.042-.185-.058-.314.002a8.606 8.606 0 01-.73.303c-.134.048-.204.142-.224.22l-.353 1.45c-.166.687-.748 1.249-1.511 1.303a11.13 11.13 0 01-1.595 0c-.762-.054-1.344-.616-1.511-1.303l-.352-1.45c-.02-.078-.09-.171-.225-.221a8.138 8.138 0 01-.728-.302c-.13-.061-.246-.044-.315-.002l-1.275.776c-.603.368-1.411.353-1.99-.147-.402-.349-.78-.726-1.128-1.129-.501-.578-.515-1.386-.147-1.99l.776-1.274c.042-.069.058-.185-.002-.314a8.606 8.606 0 01-.303-.729c-.048-.135-.142-.205-.22-.225l-1.45-.352c-.687-.167-1.25-.749-1.304-1.512a11.15 11.15 0 010-1.594c.055-.763.617-1.345 1.304-1.512l1.45-.352c.078-.019.17-.09.22-.225.09-.248.19-.491.303-.728.06-.13.044-.246.002-.315l-.776-1.275c-.368-.603-.353-1.411.147-1.99.349-.402.726-.78 1.129-1.128.578-.501 1.386-.515 1.99-.147l1.274.776c.069.042.185.058.315-.002.237-.112.48-.213.728-.303.135-.048.205-.142.225-.22l.352-1.45c.167-.687.748-1.249 1.511-1.304zm1.648 1.657c-.027-.11-.107-.156-.162-.16a9.648 9.648 0 00-1.38 0c-.055.004-.135.05-.16.161l-.354 1.45a1.832 1.832 0 01-1.171 1.277 6.955 6.955 0 00-.6.249 1.832 1.832 0 01-1.734-.074l-1.274-.776c-.098-.06-.186-.036-.228 0a9.774 9.774 0 00-.976.976c-.036.042-.06.131 0 .228l.776 1.274a1.832 1.832 0 01.074 1.734 6.955 6.955 0 00-.25.6 1.833 1.833 0 01-1.277 1.173l-1.45.351c-.11.027-.156.107-.16.162a9.63 9.63 0 000 1.38c.004.055.05.135.16.161l1.45.353a1.832 1.832 0 011.278 1.172c.073.204.156.404.249.6a1.832 1.832 0 01-.074 1.733l-.776 1.275c-.06.098-.036.186 0 .228.3.348.627.675.976.976.042.036.13.06.228 0l1.274-.776a1.832 1.832 0 011.734-.075c.195.093.396.176.6.25a1.833 1.833 0 011.172 1.278l.351 1.45c.027.11.107.156.162.16.46.033.921.033 1.38 0 .056-.004.136-.05.162-.161l.352-1.45a1.833 1.833 0 011.172-1.278c.204-.073.405-.156.6-.248a1.832 1.832 0 011.733.074l1.276.776c.098.06.186.036.227 0 .349-.301.675-.628.977-.976.035-.042.06-.131 0-.228l-.776-1.275a1.832 1.832 0 01-.076-1.733c.093-.196.177-.396.25-.6a1.833 1.833 0 011.279-1.173l1.45-.351c.11-.027.155-.107.16-.162a9.66 9.66 0 000-1.38c-.005-.055-.05-.135-.162-.161l-1.45-.353a1.832 1.832 0 01-1.277-1.172 6.576 6.576 0 00-.248-.6 1.832 1.832 0 01.074-1.734l.776-1.274c.06-.098.035-.186 0-.228a9.774 9.774 0 00-.977-.976c-.041-.036-.13-.06-.227 0l-1.276.776a1.832 1.832 0 01-1.732.074 6.88 6.88 0 00-.6-.249 1.835 1.835 0 01-1.174-1.278l-.35-1.45z"/></svg>