<svg xmlns="http://www.w3.org/2000/svg" width="24" height="24"><path fill-rule="evenodd" d="M16 12a4 4 0 11-7.999 0 4 4 0 018 0zm-1.5 0a2.5 2.5 0 11-5 0 2.5 2.5 0 015 0z"/><path fill-rule="evenodd" d="M16.502 1.979a1.733 1.733 0 00-2.022.218L12.708 3.8a.232.232 0 01-.155.06h-1.106a.232.232 0 01-.156-.06L9.52 2.197a1.733 1.733 0 00-2.023-.218L5.51 3.117a1.72 1.72 0 00-.827 1.865l.513 2.316a.217.217 0 01-.025.156l-.551.947a.227.227 0 01-.129.102l-2.283.719A1.723 1.723 0 001 10.864v2.272c0 .754.491 1.416 1.208 1.642l2.283.719a.23.23 0 01.129.102l.551.947a.217.217 0 01.025.156l-.513 2.316a1.72 1.72 0 00.827 1.865l1.987 1.138c.65.372 1.467.285 2.023-.218l1.771-1.603a.232.232 0 01.156-.06h1.106a.23.23 0 01.155.06l1.772 1.603c.555.503 1.372.59 2.022.218l1.988-1.137a1.72 1.72 0 00.827-1.865l-.513-2.317a.218.218 0 01.024-.156l.552-.947a.228.228 0 01.128-.102l2.284-.719A1.723 1.723 0 0023 13.136v-2.272c0-.754-.491-1.416-1.208-1.642l-2.284-.719a.227.227 0 01-.128-.102l-.552-.947a.218.218 0 01-.024-.156l.513-2.317a1.72 1.72 0 00-.827-1.864l-1.988-1.138zm-1.016 1.33a.233.233 0 01.271-.028l1.988 1.137a.22.22 0 01.107.24l-.513 2.315c-.093.422-.024.863.193 1.236l.552.947c.216.372.564.649.974.778l2.284.719c.097.03.158.117.158.211v2.272a.223.223 0 01-.158.211l-2.284.72c-.41.128-.758.405-.974.777l-.552.947a1.717 1.717 0 00-.193 1.236l.513 2.316a.22.22 0 01-.107.239l-1.988 1.137a.233.233 0 01-.271-.029l-1.771-1.602a1.732 1.732 0 00-1.162-.447h-1.106c-.43 0-.844.159-1.162.447L8.514 20.69a.233.233 0 01-.272.03l-1.987-1.14a.22.22 0 01-.108-.238l.513-2.316a1.717 1.717 0 00-.193-1.236l-.551-.947a1.728 1.728 0 00-.974-.778l-2.284-.719a.223.223 0 01-.158-.211v-2.272c0-.094.061-.18.158-.211l2.284-.72c.41-.128.757-.405.974-.777l.551-.947a1.71 1.71 0 00.193-1.236l-.513-2.316a.22.22 0 01.108-.238L8.243 3.28a.233.233 0 01.27.029l1.772 1.602c.318.288.733.447 1.162.447h1.106a1.733 1.733 0 001.162-.447l1.771-1.603z"/></svg>