<svg xmlns="http://www.w3.org/2000/svg" width="24" height="24"><path fill-rule="evenodd" d="M12 1C5.813 1 1 5.813 1 12s4.813 11 11 11 11-4.813 11-11S18.187 1 12 1zM4.576 5.981C6.298 3.84 8.952 2.5 12 2.5c3.506 0 6.491 1.773 8.136 4.5H12a5.002 5.002 0 00-4.771 3.5L4.576 5.981zM3.565 7.535A9.688 9.688 0 002.5 12c0 4.952 3.537 8.864 8.302 9.43l2.428-4.582a5.007 5.007 0 01-5.59-2.398L3.565 7.535zm8.96 13.952c5.102-.26 8.975-4.305 8.975-9.487a9.807 9.807 0 00-.634-3.5h-5.295A4.984 4.984 0 0117 12a4.978 4.978 0 01-1 3l-3.475 6.487zM14.5 14.45a3.5 3.5 0 11-5-4.899 3.5 3.5 0 015 4.899z"/></svg>