<svg xmlns="http://www.w3.org/2000/svg" width="24" height="24"><path fill-rule="evenodd" d="M12 2.5a9.5 9.5 0 100 19 9.5 9.5 0 000-19zM1 12C1 5.925 5.925 1 12 1s11 4.925 11 11-4.925 11-11 11S1 18.075 1 12z"/><path fill-rule="evenodd" d="M12.35 18.47a.775.775 0 01-.35.095.775.775 0 01-.35-.095l-.006-.003a17.366 17.366 0 01-2.906-2.113C7.313 15.064 5.7 13.106 5.7 10.755c0-2.156 1.66-3.79 3.429-3.79 1.21 0 2.204.607 2.871 1.542.667-.935 1.662-1.542 2.871-1.542 1.768 0 3.429 1.634 3.429 3.79 0 2.351-1.614 4.31-3.038 5.599a17.29 17.29 0 01-2.906 2.113l-.006.003zM12 16.985a15.891 15.891 0 002.329-1.739c1.371-1.242 2.553-2.821 2.553-4.49 0-1.381-1.06-2.32-2.01-2.32-.983 0-1.815.684-2.198 1.904a.737.737 0 01-.253.364.693.693 0 01-.842 0 .734.734 0 01-.253-.363c-.383-1.22-1.216-1.905-2.197-1.905-.951 0-2.01.939-2.01 2.32 0 1.668 1.18 3.248 2.552 4.49A15.917 15.917 0 0012 16.985z"/></svg>