<svg xmlns="http://www.w3.org/2000/svg" width="24" height="24"><path fill-rule="evenodd" d="M12.35 18.47a.775.775 0 01-.35.096.775.775 0 01-.35-.096l-.006-.003a17.377 17.377 0 01-2.906-2.113C7.313 15.064 5.7 13.106 5.7 10.755c0-2.156 1.66-3.79 3.429-3.79 1.21 0 2.204.607 2.871 1.542.667-.935 1.662-1.541 2.871-1.541 1.768 0 3.429 1.633 3.429 3.79 0 2.35-1.614 4.308-3.038 5.598a17.29 17.29 0 01-2.906 2.113l-.006.003zM12 16.985a15.902 15.902 0 002.329-1.739c1.371-1.242 2.553-2.821 2.553-4.49 0-1.381-1.06-2.32-2.01-2.32-.983 0-1.815.684-2.198 1.904a.737.737 0 01-.253.364.692.692 0 01-.842 0 .734.734 0 01-.253-.363c-.383-1.22-1.216-1.905-2.197-1.905-.951 0-2.01.939-2.01 2.32 0 1.669 1.18 3.248 2.552 4.49A15.91 15.91 0 0012 16.985z"/><path fill-rule="evenodd" d="M2 3.75C2 2.784 2.784 2 3.75 2h16.5c.966 0 1.75.784 1.75 1.75v16.5A1.75 1.75 0 0120.25 22H3.75A1.75 1.75 0 012 20.25V3.75zm1.75-.25a.25.25 0 00-.25.25v16.5c0 .138.112.25.25.25h16.5a.25.25 0 00.25-.25V3.75a.25.25 0 00-.25-.25H3.75z"/></svg>