<svg xmlns="http://www.w3.org/2000/svg" width="24" height="24"><path fill-rule="evenodd" d="M16.903 4.924c-.75-2.797-3.505-4.435-5.95-3.78-1.303.349-2.272 1.17-2.888 2.225-1.06-.606-2.311-.833-3.614-.484C2.006 3.54.44 6.337 1.188 9.133c.8 2.985 3.478 4.84 5.52 5.888l.004.002c.185.094.37.185.557.273a15.05 15.05 0 00.647 2.92l.001.002a21.131 21.131 0 001.776 3.992l.008.013.004.007c.105.171.294.404.565.561.272.157.568.204.77.209h.017a21.1 21.1 0 004.35-.458h.004c2.244-.484 5.311-1.583 6.857-4.26 1.448-2.508.658-5.614-1.534-6.88-1.168-.673-2.435-.778-3.616-.468a4.975 4.975 0 00-.515-1.224c-.24.69-.54 1.34-.86 1.933.022.119.04.24.05.363a.75.75 0 001.059.61c1.038-.473 2.144-.485 3.132.085 1.398.807 2.065 2.962.985 4.832-1.21 2.094-3.714 3.077-5.874 3.543a19.6 19.6 0 01-4.038.423.272.272 0 01-.036-.007l-.005-.005-.003-.003-.008-.009a.447.447 0 01-.018-.024 19.625 19.625 0 01-1.643-3.696c-.18-.56-.34-1.158-.457-1.775-.11-.586-.18-1.19-.187-1.79-.015-1.145.195-2.283.777-3.29 1.08-1.87 3.279-2.37 4.677-1.563.29.167.54.367.754.596.436.468.713 1.054.835 1.71.32-.592.62-1.242.86-1.933.511-1.47.746-3.122.3-4.786zm-1.448.388c-.56-2.085-2.555-3.137-4.114-2.72-1.102.295-1.875 1.086-2.274 2.154a.75.75 0 01-1.18.316c-.88-.725-1.945-1.023-3.048-.728-1.56.418-2.76 2.327-2.202 4.41.607 2.265 2.658 3.836 4.574 4.848.058-1.165.335-2.348.967-3.443 1.448-2.506 4.534-3.377 6.726-2.111.187.108.363.226.528.352.245-1.01.296-2.056.022-3.078z"/></svg>