<svg xmlns="http://www.w3.org/2000/svg" width="24" height="24"><path fill-rule="evenodd" d="M12.378 21.899A.918.918 0 0112 22a.918.918 0 01-.378-.101 31.154 31.154 0 01-5.233-3.585C3.8 16.105 1 12.856 1 9.029v-.001C1 5.559 3.829 3 6.736 3 9.03 3 10.881 4.229 12 6.113 13.12 4.229 14.97 3 17.264 3 20.17 3 23 5.558 23 9.029c0 3.827-2.801 7.077-5.389 9.285a31.14 31.14 0 01-5.233 3.585zM2.5 9.029c0-2.64 2.157-4.525 4.236-4.525 2.105 0 3.801 1.392 4.553 3.652a.751.751 0 001.149.37.751.751 0 00.273-.37c.752-2.26 2.447-3.652 4.553-3.652 2.079 0 4.236 1.884 4.236 4.525 0 3.115-2.324 5.975-4.861 8.14a29.546 29.546 0 01-3.436 2.508c-.469.295-.859.523-1.13.676l-.073.04-.073-.041a29.66 29.66 0 01-4.566-3.183C4.824 15.004 2.5 12.144 2.5 9.029z"/></svg>