<svg xmlns="http://www.w3.org/2000/svg" width="24" height="24"><path d="M10.97 8.265a1.45 1.45 0 00-.487.57.75.75 0 01-1.341-.67c.2-.402.513-.826.997-1.148C10.627 6.69 11.244 6.5 12 6.5c.658 0 1.369.195 1.934.619a2.45 2.45 0 011.004 2.006c0 1.033-.513 1.72-1.027 2.215-.19.183-.399.358-.579.508l-.147.123c-.154.126-.3.263-.435.409v1.37a.75.75 0 11-1.5 0v-1.473c0-.237.067-.504.247-.736.22-.28.486-.517.718-.714l.183-.153.001-.001c.172-.143.324-.27.47-.412.368-.355.569-.676.569-1.136a.953.953 0 00-.404-.806C12.766 8.118 12.384 8 12 8c-.494 0-.814.121-1.03.265zM13 17a1 1 0 11-2 0 1 1 0 012 0z"/><path fill-rule="evenodd" d="M2 3.75C2 2.784 2.784 2 3.75 2h16.5c.966 0 1.75.784 1.75 1.75v16.5A1.75 1.75 0 0120.25 22H3.75A1.75 1.75 0 012 20.25V3.75zm1.75-.25a.25.25 0 00-.25.25v16.5c0 .138.112.25.25.25h16.5a.25.25 0 00.25-.25V3.75a.25.25 0 00-.25-.25H3.75z"/></svg>