<svg xmlns="http://www.w3.org/2000/svg" width="24" height="24"><path fill-rule="evenodd" d="M12.15 2.554a.25.25 0 00-.3 0L4.5 8.111V20.25c0 .138.112.25.25.25H8v-6.75c0-.966.783-1.75 1.75-1.75h4.5c.966 0 1.75.784 1.75 1.75v6.75h3.25a.25.25 0 00.25-.25V8.111l-7.35-5.557zM21 9.245l.798.603a.75.75 0 10.904-1.196l-9.647-7.294a1.75 1.75 0 00-2.11 0L1.297 8.652a.75.75 0 00.904 1.196L3 9.245V20.25c0 .966.783 1.75 1.75 1.75h14.5A1.75 1.75 0 0021 20.25V9.245zM14.5 20.5v-6.75a.25.25 0 00-.25-.25h-4.5a.25.25 0 00-.25.25v6.75h5z"/></svg>