<svg xmlns="http://www.w3.org/2000/svg" width="24" height="24"><path fill-rule="evenodd" d="M12.153 2.553a.25.25 0 00-.306 0l-8.25 6.378a.25.25 0 00-.097.198v11.12c0 .138.112.25.25.25H8v-6.754a1.75 1.75 0 011.75-1.752h4.5c.966 0 1.75.784 1.75 1.752v6.754h4.25a.25.25 0 00.25-.25V9.129a.25.25 0 00-.097-.198l-8.25-6.378zM14.5 20.5v-6.754a.25.25 0 00-.25-.25h-4.5a.25.25 0 00-.25.25V20.5h5zM10.93 1.365a1.75 1.75 0 012.14 0l8.25 6.378c.429.332.68.844.68 1.386v11.12A1.75 1.75 0 0120.25 22H3.75A1.75 1.75 0 012 20.249V9.129c0-.542.251-1.054.68-1.386l8.25-6.378z"/></svg>