<svg xmlns="http://www.w3.org/2000/svg" width="24" height="24"><path fill-rule="evenodd" d="M2 3.75C2 2.784 2.784 2 3.75 2h16.5c.966 0 1.75.784 1.75 1.75v16.5A1.75 1.75 0 0120.25 22H3.75A1.75 1.75 0 012 20.25V3.75zm1.75-.25a.25.25 0 00-.25.25v16.5c0 .138.112.25.25.25h16.5a.25.25 0 00.25-.25V3.75a.25.25 0 00-.25-.25H3.75z"/><path d="M13 7.5a1 1 0 11-2 0 1 1 0 012 0zm-3 3.75a.75.75 0 01.75-.75h1.5a.75.75 0 01.75.75v4.25h.75a.75.75 0 110 1.5h-3a.75.75 0 110-1.5h.75V12h-.75a.75.75 0 01-.75-.75z"/></svg>