<svg xmlns="http://www.w3.org/2000/svg" width="24" height="24"><path fill-rule="evenodd" d="M12 23c-3.036 0-5.784-1.23-7.774-3.218l-.004-.004-.004-.003A10.966 10.966 0 011 12C1 5.925 5.925 1 12 1s11 4.925 11 11-4.925 11-11 11zM2.5 12c0-2.353.856-4.507 2.273-6.166l3.2 3.2A4.978 4.978 0 007 12c0 1.11.362 2.136.974 2.965l-3.201 3.201A9.463 9.463 0 012.5 12zm6.535 4.026l-3.201 3.201A9.462 9.462 0 0012 21.5a9.463 9.463 0 006.165-2.272l-3.201-3.2A4.977 4.977 0 0112 17a4.978 4.978 0 01-2.965-.974zm6.99-1.059l3.2 3.2A9.462 9.462 0 0021.5 12a9.463 9.463 0 00-2.274-6.168l-3.201 3.201c.613.83.975 1.856.975 2.967 0 1.11-.362 2.137-.975 2.967zm-1.061-6.994l3.2-3.201A9.463 9.463 0 0012 2.5a9.463 9.463 0 00-6.166 2.273l3.2 3.2A4.978 4.978 0 0112 7c1.11 0 2.134.361 2.964.973zM15.5 12a3.5 3.5 0 11-7 0 3.5 3.5 0 017 0z"/></svg>