<svg xmlns="http://www.w3.org/2000/svg" width="24" height="24"><path d="M12.75.75a.75.75 0 00-1.5 0v1.5a.75.75 0 001.5 0V.75zM4.28 3.22a.75.75 0 00-1.06 1.06l1.25 1.25a.75.75 0 001.06-1.06L4.28 3.22zm16.25 1.31a.75.75 0 00-1.06-1.06l-1 1a.75.75 0 001.06 1.06l1-1zM.75 11.25a.75.75 0 000 1.5h1.5a.75.75 0 000-1.5H.75zm21 0a.75.75 0 000 1.5h1.5a.75.75 0 000-1.5h-1.5zM12 7.5a5.5 5.5 0 00-4.517 8.639c.25.36.214.869-.134 1.137-.306.235-.746.198-.977-.113a7 7 0 1111.238.024c-.237.317-.69.346-.995.095-.333-.274-.36-.771-.111-1.124A5.5 5.5 0 0012 7.5zm-3.25 11a.75.75 0 100 1.5h6.5a.75.75 0 100-1.5h-6.5zm.75 3.75a.75.75 0 01.75-.75h3.5a.75.75 0 110 1.5h-3.5a.75.75 0 01-.75-.75z"/></svg>