<svg xmlns="http://www.w3.org/2000/svg" width="24" height="24"><path d="M4.604 3.09A.75.75 0 015 3.75V8.5h.75a.75.75 0 010 1.5h-3a.75.75 0 110-1.5h.75V5.151l-.334.223a.75.75 0 01-.832-1.248l1.5-1a.75.75 0 01.77-.037zM9.75 5.5a.75.75 0 000 1.5h11.5a.75.75 0 100-1.5H9.75zm0 6a.75.75 0 100 1.5h11.5a.75.75 0 100-1.5H9.75zm0 6a.75.75 0 100 1.5h11.5a.75.75 0 100-1.5H9.75zM6.5 15.75c0-.704-.271-1.286-.72-1.686a2.302 2.302 0 00-1.53-.564c-.535 0-1.094.178-1.53.565-.449.4-.72.982-.72 1.685a.75.75 0 101.5 0c0-.296.104-.464.217-.564A.805.805 0 014.25 15c.215 0 .406.072.533.185.113.101.217.268.217.565 0 .332-.069.48-.21.657a4.99 4.99 0 01-.403.42l-.147.14c-.152.143-.33.312-.52.503l-1.5 1.5a.75.75 0 00-.22.53v.25c0 .414.336.75.75.75H6A.75.75 0 106 19H4.31l.47-.47c.176-.176.333-.324.48-.465l.165-.156a6.1 6.1 0 00.536-.566c.358-.447.539-.925.539-1.593z"/></svg>