<svg width="24" height="24" viewBox="0 0 24 24" fill="none" xmlns="http://www.w3.org/2000/svg">
<path d="M4.604 3.08911C4.72363 3.15316 4.82364 3.24846 4.89338 3.36487C4.96311 3.48127 4.99996 3.61441 5 3.75011V8.50011H5.75C5.94891 8.50011 6.13968 8.57913 6.28033 8.71978C6.42098 8.86043 6.5 9.0512 6.5 9.25011C6.5 9.44902 6.42098 9.63979 6.28033 9.78044C6.13968 9.92109 5.94891 10.0001 5.75 10.0001H2.75C2.55109 10.0001 2.36032 9.92109 2.21967 9.78044C2.07902 9.63979 2 9.44902 2 9.25011C2 9.0512 2.07902 8.86043 2.21967 8.71978C2.36032 8.57913 2.55109 8.50011 2.75 8.50011H3.5V5.15111L3.166 5.37411C3.00049 5.48184 2.79917 5.51994 2.60573 5.48015C2.4123 5.44036 2.24237 5.32588 2.13282 5.16156C2.02328 4.99724 1.98296 4.79635 2.02063 4.60249C2.05829 4.40863 2.1709 4.23745 2.334 4.12611L3.834 3.12611C3.94698 3.05083 4.07828 3.00762 4.21388 3.00111C4.34949 2.99459 4.48432 3.02501 4.604 3.08911ZM9.75 5.50011C9.55109 5.50011 9.36032 5.57913 9.21967 5.71978C9.07902 5.86043 9 6.0512 9 6.25011C9 6.44902 9.07902 6.63979 9.21967 6.78044C9.36032 6.92109 9.55109 7.00011 9.75 7.00011H21.25C21.4489 7.00011 21.6397 6.92109 21.7803 6.78044C21.921 6.63979 22 6.44902 22 6.25011C22 6.0512 21.921 5.86043 21.7803 5.71978C21.6397 5.57913 21.4489 5.50011 21.25 5.50011H9.75ZM9.75 11.5001C9.55109 11.5001 9.36032 11.5791 9.21967 11.7198C9.07902 11.8604 9 12.0512 9 12.2501C9 12.449 9.07902 12.6398 9.21967 12.7804C9.36032 12.9211 9.55109 13.0001 9.75 13.0001H21.25C21.4489 13.0001 21.6397 12.9211 21.7803 12.7804C21.921 12.6398 22 12.449 22 12.2501C22 12.0512 21.921 11.8604 21.7803 11.7198C21.6397 11.5791 21.4489 11.5001 21.25 11.5001H9.75ZM9.75 17.5001C9.55109 17.5001 9.36032 17.5791 9.21967 17.7198C9.07902 17.8604 9 18.0512 9 18.2501C9 18.449 9.07902 18.6398 9.21967 18.7804C9.36032 18.9211 9.55109 19.0001 9.75 19.0001H21.25C21.4489 19.0001 21.6397 18.9211 21.7803 18.7804C21.921 18.6398 22 18.449 22 18.2501C22 18.0512 21.921 17.8604 21.7803 17.7198C21.6397 17.5791 21.4489 17.5001 21.25 17.5001H9.75ZM6.5 15.7501C6.5 15.0461 6.229 14.4641 5.78 14.0641C5.3559 13.6957 4.81173 13.4951 4.25 13.5001C3.715 13.5001 3.156 13.6781 2.72 14.0651C2.271 14.4641 2 15.0471 2 15.7501C2 15.949 2.07902 16.1398 2.21967 16.2804C2.36032 16.4211 2.55109 16.5001 2.75 16.5001C2.94891 16.5001 3.13968 16.4211 3.28033 16.2804C3.42098 16.1398 3.5 15.949 3.5 15.7501C3.5 15.4541 3.604 15.2861 3.717 15.1861C3.86639 15.0618 4.05571 14.9957 4.25 15.0001C4.465 15.0001 4.656 15.0721 4.783 15.1851C4.896 15.2861 5 15.4531 5 15.7501C5 16.0821 4.931 16.2301 4.79 16.4071C4.698 16.5201 4.574 16.6471 4.387 16.8261L4.24 16.9661C4.088 17.1101 3.91 17.2791 3.72 17.4701L2.22 18.9701C2.07931 19.1106 2.00018 19.3013 2 19.5001V19.7501C2 20.1641 2.336 20.5001 2.75 20.5001H6C6.19891 20.5001 6.38968 20.4211 6.53033 20.2804C6.67098 20.1398 6.75 19.949 6.75 19.7501C6.75 19.5512 6.67098 19.3604 6.53033 19.2198C6.38968 19.0791 6.19891 19.0001 6 19.0001H4.31L4.78 18.5301C4.956 18.3541 5.113 18.2061 5.26 18.0651L5.425 17.9091C5.61579 17.7323 5.79483 17.5432 5.961 17.3431C6.319 16.8961 6.5 16.4181 6.5 15.7501Z" fill="black"/>
</svg>
