<svg xmlns="http://www.w3.org/2000/svg" width="24" height="24"><path fill-rule="evenodd" d="M12 1a.75.75 0 01.75.75v4.5a.75.75 0 01-1.5 0v-4.5A.75.75 0 0112 1zM4.141 4.22a.75.75 0 011.06 0l3.08 3.078a.75.75 0 01-1.061 1.06L4.14 5.28a.75.75 0 010-1.06zm15.718 0a.75.75 0 010 1.06L16.78 8.36a.75.75 0 11-1.06-1.061l3.078-3.078a.75.75 0 011.06 0zM1 12a.75.75 0 01.75-.75h4.5a.75.75 0 010 1.5h-4.5A.75.75 0 011 12zm16 0a.75.75 0 01.75-.75h4.5a.75.75 0 010 1.5h-4.5A.75.75 0 0117 12zm-8.72 3.72a.75.75 0 010 1.06l-3.078 3.08a.75.75 0 01-1.06-1.06l3.078-3.08a.75.75 0 011.06 0zm7.44 0a.75.75 0 011.06 0l3.079 3.078a.75.75 0 01-1.06 1.06l-3.08-3.078a.75.75 0 010-1.06zM12 17a.75.75 0 01.75.75v4.5a.75.75 0 01-1.5 0v-4.5A.75.75 0 0112 17z"/></svg>