<svg xmlns="http://www.w3.org/2000/svg" width="24" height="24"><path fill-rule="evenodd" d="M5.918 3.253A1.75 1.75 0 017.594 1h8.812a1.75 1.75 0 011.676 2.253l-1.071 3.572a.25.25 0 00-.011.072V9.72c0 .045.013.09.037.13l2.678 3.99c.71 1.166-.13 2.66-1.494 2.66H12.75v5.75a.75.75 0 01-1.5 0V16.5H5.78c-1.366 0-2.205-1.494-1.495-2.66l2.679-3.99A.25.25 0 007 9.72V6.897a.25.25 0 00-.01-.072L5.917 3.253zM7.594 2.5a.25.25 0 00-.24.322l1.072 3.572c.05.163.074.332.074.503V9.72c0 .32-.088.635-.255.91l-2.68 3.99a.25.25 0 00.214.38h12.442a.25.25 0 00.213-.38l-2.679-3.99a1.75 1.75 0 01-.255-.91V6.897c0-.17.025-.34.074-.503l1.071-3.572a.25.25 0 00-.239-.322H7.594z"/></svg>