<svg xmlns="http://www.w3.org/2000/svg" width="24" height="24"><path fill-rule="evenodd" d="M2.92 11.522a1.75 1.75 0 01-.407-2.778l6.23-6.231a1.75 1.75 0 012.779.408l1.768 3.283a.252.252 0 00.044.058l1.995 1.996a.25.25 0 00.118.067l4.716.927c1.327.323 1.79 1.973.824 2.938l-3.868 3.868 4.566 4.566a.75.75 0 01-1.061 1.06l-4.566-4.565-3.868 3.868c-.966.966-2.615.503-2.938-.824l-.927-4.716a.25.25 0 00-.067-.117l-1.996-1.996a.25.25 0 00-.058-.044l-3.283-1.768zm.653-1.718a.25.25 0 00.059.397l3.283 1.768c.15.081.288.183.408.304l1.996 1.996c.227.227.387.512.463.824l.927 4.716a.25.25 0 00.42.117l8.797-8.797a.25.25 0 00-.117-.42l-4.716-.927a1.75 1.75 0 01-.824-.463l-1.996-1.996a1.752 1.752 0 01-.304-.408l-1.768-3.283a.25.25 0 00-.397-.059l-6.23 6.231z"/></svg>