<svg xmlns="http://www.w3.org/2000/svg" width="24" height="24"><path d="M6.72 6.22A.75.75 0 018 6.75v7.5a.75.75 0 11-1.5 0v-7.5a.75.75 0 01.22-.53zm4.75 0a.75.75 0 011.28.53v4.5a.75.75 0 11-1.5 0v-4.5a.75.75 0 01.22-.53zm4.75 0a.75.75 0 00-.22.53v9.5a.75.75 0 101.5 0v-9.5a.75.75 0 00-1.28-.53z"/><path fill-rule="evenodd" d="M2.513 2.513A1.75 1.75 0 013.75 2h16.5A1.75 1.75 0 0122 3.75v16.5A1.75 1.75 0 0120.25 22H3.75A1.75 1.75 0 012 20.25V3.75c0-.464.184-.91.513-1.237zm1.06 1.06a.25.25 0 00-.073.177v16.5a.25.25 0 00.25.25h16.5a.25.25 0 00.25-.25V3.75a.25.25 0 00-.25-.25H3.75a.25.25 0 00-.177.073z"/></svg>