<svg xmlns="http://www.w3.org/2000/svg" width="24" height="24"><path stroke="#000" stroke-linecap="round" stroke-linejoin="round" stroke-width="1.5" d="M22 11.75h-2.868c-.408 0-.611 0-.786.068a1 1 0 00-.398.281c-.121.142-.19.334-.325.719l-2.251 6.38c-.115.323-.172.485-.257.53a.25.25 0 01-.235.002c-.086-.045-.144-.207-.262-.53L9.37 4.769c-.114-.314-.171-.472-.256-.517a.25.25 0 00-.233 0c-.085.043-.144.2-.261.513l-2.23 5.948c-.141.374-.211.561-.333.7a1 1 0 01-.394.273c-.172.065-.372.065-.772.065H2"/></svg>