<svg xmlns="http://www.w3.org/2000/svg" width="24" height="24"><path fill-rule="evenodd" d="M8.533 3.585a1 1 0 01.936.005c.278.15.4.411.442.501v.002c.053.114.106.259.156.396l.008.023 4.915 13.514 1.926-5.458.027-.077c.106-.304.22-.628.436-.88a1.75 1.75 0 01.697-.493c.31-.12.652-.119.974-.118H22a.75.75 0 010 1.5h-2.868c-.214 0-.337 0-.43.007a.524.524 0 00-.086.01.25.25 0 00-.098.07.543.543 0 00-.038.078 7.106 7.106 0 00-.15.402l-2.26 6.403c-.05.141-.101.29-.154.406l-.001.002c-.041.091-.162.359-.443.51a1 1 0 01-.943.005c-.282-.15-.405-.415-.447-.506l-.001-.002a5.285 5.285 0 01-.159-.405L8.989 5.915l-1.897 5.06c-.01.025-.02.05-.028.075-.11.296-.228.612-.444.857a1.75 1.75 0 01-.69.479c-.306.116-.643.115-.959.114H2A.75.75 0 012 11h2.891c.21 0 .33 0 .421-.007a.519.519 0 00.085-.01.25.25 0 00.097-.067.519.519 0 00.04-.076c.037-.082.08-.195.153-.392l2.23-5.947.009-.023c.051-.136.105-.28.16-.394v-.002c.043-.09.167-.35.447-.497zm-3.04 7.333v-.002zm-.094.065h-.002zm13.12 1.602v.001zm.095-.067h.002z"/></svg>