<svg xmlns="http://www.w3.org/2000/svg" width="24" height="24"><path d="M7 6a1 1 0 11-2 0 1 1 0 012 0z"/><path fill-rule="evenodd" d="M2 3.75C2 2.784 2.784 2 3.75 2h4.5C9.216 2 10 2.784 10 3.75v4.5A1.75 1.75 0 018.25 10h-4.5A1.75 1.75 0 012 8.25v-4.5zm1.75-.25a.25.25 0 00-.25.25v4.5c0 .138.112.25.25.25h4.5a.25.25 0 00.25-.25v-4.5a.25.25 0 00-.25-.25h-4.5z"/><path d="M2 12a.75.75 0 01.75-.75h6.5a.75.75 0 010 1.5h-6.5A.75.75 0 012 12zm10-5a.75.75 0 01.75.75V11c0 .138.112.25.25.25h1.25a.75.75 0 010 1.5H13A1.75 1.75 0 0111.25 11V7.75A.75.75 0 0112 7zm0 7.25a.75.75 0 000 1.5h2.25a.75.75 0 000-1.5H12zm9.25-.25a.75.75 0 01.75.75v5.5A1.75 1.75 0 0120.25 22h-2.5a.75.75 0 010-1.5h2.5a.25.25 0 00.25-.25v-5.5a.75.75 0 01.75-.75zm-8.5 5a.25.25 0 01.25-.25h1.25a.75.75 0 000-1.5H13A1.75 1.75 0 0011.25 19v2.25a.75.75 0 001.5 0V19zM6 19a1 1 0 100-2 1 1 0 000 2z"/><path fill-rule="evenodd" d="M3.75 14A1.75 1.75 0 002 15.75v4.5c0 .966.784 1.75 1.75 1.75h4.5A1.75 1.75 0 0010 20.25v-4.5A1.75 1.75 0 008.25 14h-4.5zm-.25 1.75a.25.25 0 01.25-.25h4.5a.25.25 0 01.25.25v4.5a.25.25 0 01-.25.25h-4.5a.25.25 0 01-.25-.25v-4.5z"/><path d="M18 7a1 1 0 100-2 1 1 0 000 2z"/><path fill-rule="evenodd" d="M14 3.75c0-.966.784-1.75 1.75-1.75h4.5c.966 0 1.75.784 1.75 1.75v4.5A1.75 1.75 0 0120.25 10h-4.5A1.75 1.75 0 0114 8.25v-4.5zm1.75-.25a.25.25 0 00-.25.25v4.5c0 .138.112.25.25.25h4.5a.25.25 0 00.25-.25v-4.5a.25.25 0 00-.25-.25h-4.5z"/><path d="M19 12a1 1 0 11-2 0 1 1 0 012 0zm-1 7a1 1 0 100-2 1 1 0 000 2z"/></svg>