<svg xmlns="http://www.w3.org/2000/svg" width="24" height="24"><path fill-rule="evenodd" d="M3.75 3.5a.25.25 0 00-.25.25v16.5c0 .138.112.25.25.25H6v-5.75c0-.966.784-1.75 1.75-1.75h8.5c.966 0 1.75.784 1.75 1.75v5.75h2.25a.25.25 0 00.25-.25V8.414a.25.25 0 00-.073-.177L18 5.811V7.75a1.75 1.75 0 01-1.75 1.75h-8.5A1.75 1.75 0 016 7.75V3.5H3.75zm3.75 0v4.25c0 .138.112.25.25.25h8.5a.25.25 0 00.25-.25V4.31l-.737-.737a.25.25 0 00-.177-.073H7.5zm9 17v-5.75a.25.25 0 00-.25-.25h-8.5a.25.25 0 00-.25.25v5.75h9zM2 3.75C2 2.784 2.784 2 3.75 2h11.836c.464 0 .909.184 1.237.513l4.664 4.664c.329.328.513.773.513 1.237V20.25A1.75 1.75 0 0120.25 22H3.75A1.75 1.75 0 012 20.25V3.75z"/></svg>