<svg xmlns="http://www.w3.org/2000/svg" width="24" height="24"><path fill-rule="evenodd" d="M5.75 3.5a2.25 2.25 0 00-1.11 4.208l.136.071A2.25 2.25 0 105.75 3.5zm1.616 5.635a3.75 3.75 0 10-3.464-.12l.014.007c.064.036.13.07.195.102L9.605 12 4.11 14.876a3.737 3.737 0 00-.195.102l-.014.008A3.748 3.748 0 002 18.25a3.75 3.75 0 105.366-3.385l3.856-2.018 9.68 5.067a.75.75 0 10.696-1.328L12.838 12l8.76-4.586a.75.75 0 10-.696-1.328l-9.68 5.067-3.856-2.018zm-2.725 7.157l.135-.071a2.25 2.25 0 11-.136.071z"/></svg>