<svg xmlns="http://www.w3.org/2000/svg" width="24" height="24"><path fill-rule="evenodd" d="M15.525 1h-7.05c-.196 0-.405 0-.61.048a1.75 1.75 0 00-.505.21 2.57 2.57 0 00-.465.396l-.034.034-5.173 5.173-.034.034c-.138.138-.286.285-.396.465a1.75 1.75 0 00-.21.506A2.57 2.57 0 001 8.475v7.05c0 .196 0 .405.048.61.043.178.114.349.21.505.11.18.258.327.396.465l.034.034 5.173 5.173.034.034c.138.138.285.286.465.396.156.096.327.167.506.21.204.049.413.048.609.048h7.05c.196 0 .405 0 .61-.048.178-.043.349-.114.505-.21.18-.11.327-.258.465-.396l.034-.034 5.173-5.173.034-.034c.138-.138.286-.285.396-.465.096-.156.167-.327.21-.506.049-.204.048-.413.048-.609v-7.05c0-.196 0-.405-.048-.61a1.747 1.747 0 00-.21-.505c-.11-.18-.258-.327-.396-.465l-.034-.034-5.173-5.173-.034-.034c-.138-.138-.285-.286-.465-.396a1.75 1.75 0 00-.506-.21A2.57 2.57 0 0015.525 1zm.26 1.507zm-.052-.004a6.335 6.335 0 00-.256-.003l.256.003zm-7.466 0c.055-.003.127-.003.256-.003h6.954m-7.21.003a.456.456 0 00-.051.004l.051-.004zm-.052.004zm7.57 0a.25.25 0 01.071.03c-.004-.003.005.001.04.033.04.037.091.088.182.179l2.056 2.056-13.329 13.33-2.056-2.057a6.352 6.352 0 01-.179-.182c-.032-.035-.036-.044-.033-.04a.25.25 0 01-.03-.072c.001.005-.002-.004-.004-.052a6.33 6.33 0 01-.003-.255V8.523c0-.13 0-.201.003-.256.002-.047.005-.056.004-.051a.25.25 0 01.03-.072c-.003.003.001-.005.033-.04.037-.04.088-.091.179-.182l5.173-5.173a6.334 6.334 0 01.222-.212m.072-.03a.25.25 0 00-.072.03l.072-.03zm-2.35 16.688l13.329-13.33 2.056 2.057c.091.09.142.142.179.182.032.035.035.043.033.04a.25.25 0 01.03.072c-.001-.005.002.004.004.051.003.055.003.127.003.256v6.954a6.293 6.293 0 01-.007.307.249.249 0 01-.03.072 6.397 6.397 0 01-.212.222l-5.173 5.173a6.397 6.397 0 01-.182.179c-.035.032-.044.035-.04.033a.249.249 0 01-.072.03c.005-.001-.004.002-.051.004a6.3 6.3 0 01-.256.003H8.523c-.13 0-.201 0-.256-.003-.047-.002-.056-.005-.051-.004a.25.25 0 01-.072-.03c.003.002-.005-.001-.04-.033a6.393 6.393 0 01-.182-.179l-2.056-2.056z"/></svg>