<svg xmlns="http://www.w3.org/2000/svg" width="24" height="24"><path fill-rule="evenodd" d="M12 23c6.075 0 11-4.925 11-11S18.075 1 12 1 1 5.925 1 12s4.925 11 11 11zm-.75-3.5v1.97a9.458 9.458 0 01-5.416-2.243l1.393-1.394a.75.75 0 10-1.06-1.06l-1.394 1.393a9.459 9.459 0 01-2.244-5.416H4.5a.75.75 0 000-1.5H2.53c.159-2.04.962-3.9 2.207-5.374l1.39 1.39a.75.75 0 001.061-1.06L5.792 4.81a9.46 9.46 0 015.458-2.28V4.5a.75.75 0 001.5 0V2.53a9.46 9.46 0 015.456 2.277l-4.68 4.61a3 3 0 101.06 1.062l4.675-4.606a9.458 9.458 0 012.21 5.377H19.5a.75.75 0 000 1.5h1.97a9.458 9.458 0 01-2.243 5.416l-1.392-1.392a.75.75 0 10-1.06 1.061l1.391 1.392a9.458 9.458 0 01-5.416 2.244V19.5a.75.75 0 00-1.5 0zM13.5 12a1.5 1.5 0 11-3 0 1.5 1.5 0 013 0z"/></svg>