<svg xmlns="http://www.w3.org/2000/svg" width="24" height="24"><path fill-rule="evenodd" d="M12 1a.736.736 0 01.66.41l3 6.082 6.71.975a.736.736 0 01.408 1.255l-4.855 4.733 1.146 6.684a.736.736 0 01-1.067.777L12 18.759l-6 3.157a.736.736 0 01-1.068-.776l1.146-6.685-4.854-4.733a.736.736 0 01.408-1.256l6.709-.974L11.34 1.41A.736.736 0 0112 1zm0 2.4L9.49 8.49a.736.736 0 01-.555.402l-5.617.817 4.065 3.962a.736.736 0 01.211.652l-.96 5.596 5.025-2.642a.736.736 0 01.685 0l5.023 2.642-.959-5.596a.738.738 0 01.212-.652l4.064-3.962-5.617-.816a.736.736 0 01-.554-.402L12 3.398V3.4z"/></svg>