<svg xmlns="http://www.w3.org/2000/svg" width="24" height="24"><path fill-rule="evenodd" d="M12 1C6.224 1 1.488 5.452 1.035 11.112c-.062.779.263 1.497.77 2.004l9.079 9.079c.507.507 1.225.832 2.004.77C18.548 22.512 23 17.776 23 12c0-6.075-4.925-11-11-11zm-9.29 9.004C3.627 5.716 7.438 2.5 12 2.5a9.5 9.5 0 019.5 9.5c0 4.562-3.216 8.373-7.504 9.29.003-.096.004-.193.004-.29 0-6.075-4.925-11-11-11-.097 0-.194.001-.29.004zm-.157 1.506c.044.192.15.382.313.546l9.079 9.078c.163.163.353.269.545.313a9.5 9.5 0 00-9.937-9.937z"/></svg>