<svg xmlns="http://www.w3.org/2000/svg" width="24" height="24"><path fill-rule="evenodd" d="M11.25 3.555c-.231-.05-.504-.055-1.238-.055H7.55c-.852 0-1.447 0-1.91.038-.453.037-.714.107-.911.207a2.25 2.25 0 00-.984.984c-.1.197-.17.458-.207.912-.037.462-.038 1.057-.038 1.909v8.9c0 .852 0 1.447.038 1.91.037.453.107.714.207.912.216.423.56.767.984.983.197.1.458.17.912.207.462.037 1.057.038 1.909.038h8.9c.852 0 1.447 0 1.91-.038.453-.038.714-.107.912-.207.423-.216.767-.56.983-.983.1-.198.17-.459.207-.913.037-.462.038-1.057.038-1.909v-2.462c0-.734-.004-1.007-.055-1.238h-3.677c-.813 0-1.469 0-2-.043-.546-.045-1.026-.14-1.47-.366a3.75 3.75 0 01-1.64-1.638c-.226-.445-.32-.925-.365-1.472-.043-.53-.043-1.186-.043-1.999V3.555zm1.5 1.006V7.2c0 .852 0 1.447.038 1.91.037.453.107.714.207.912.216.423.56.767.984.983.197.1.458.17.912.207.462.037 1.056.038 1.909.038h2.64l-.126-.126-6.438-6.438-.126-.125zM10.097 2c.652 0 1.103 0 1.536.104a3.75 3.75 0 011.084.449c.38.232.698.551 1.159 1.012l.06.06 6.438 6.439.06.06c.462.46.78.78 1.013 1.16.206.335.358.7.45 1.083.103.433.103.884.103 1.536v2.579c0 .813 0 1.469-.043 2-.045.546-.14 1.026-.366 1.47a3.75 3.75 0 01-1.639 1.64c-.444.226-.924.32-1.47.365-.531.043-1.187.043-2 .043H7.518c-.813 0-1.469 0-2-.043-.546-.045-1.026-.14-1.47-.366a3.75 3.75 0 01-1.64-1.639c-.226-.444-.32-.924-.365-1.47C2 17.95 2 17.294 2 16.482V7.518c0-.813 0-1.469.043-2 .045-.546.14-1.026.366-1.47a3.75 3.75 0 011.639-1.64c.444-.226.924-.32 1.47-.365C6.05 2 6.706 2 7.519 2h2.579z"/></svg>