<svg xmlns="http://www.w3.org/2000/svg" width="24" height="24"><path fill-rule="evenodd" d="M19.846 1.415a.75.75 0 00-1.201-.195L15.57 4.295a.75.75 0 00-.22.53v2.599c0 .06 0 .091-.007.12a.25.25 0 01-.03.072c-.015.026-.037.047-.08.09L12.22 10.72a.75.75 0 001.06 1.06l3.014-3.013c.043-.043.064-.065.09-.08a.25.25 0 01.072-.03c.029-.007.06-.007.12-.007h2.599a.75.75 0 00.53-.22l3.075-3.075a.75.75 0 00-.195-1.2l-1.349-.675a2.113 2.113 0 01-.342-.192 1.003 1.003 0 01-.182-.182c-.059-.077-.103-.165-.192-.342l-.674-1.35zm-.864 5.618c-.044.043-.065.065-.09.08a.25.25 0 01-.073.03c-.029.007-.06.007-.12.007H17.25c-.14 0-.21 0-.264-.027a.25.25 0 01-.109-.11c-.027-.053-.027-.123-.027-.263V5.301c0-.06 0-.091.007-.12a.25.25 0 01.03-.072.538.538 0 01.08-.09l1.61-1.61c.133-.133.199-.2.27-.215a.25.25 0 01.182.03c.063.037.105.12.189.289l.311.622a.75.75 0 00.335.336l.623.311c.168.084.252.126.29.189a.25.25 0 01.029.182c-.016.071-.082.137-.215.27l-1.61 1.61z"/><path d="M2.5 12A9.5 9.5 0 0112 2.5.75.75 0 0012 1C5.925 1 1 5.925 1 12s4.925 11 11 11 11-4.925 11-11a.75.75 0 00-1.5 0 9.5 9.5 0 01-19 0z"/><path d="M7.5 12A4.5 4.5 0 0112 7.5.75.75 0 0012 6a6 6 0 106 6 .75.75 0 00-1.5 0 4.5 4.5 0 11-9 0z"/></svg>