<svg xmlns="http://www.w3.org/2000/svg" width="24" height="24"><path fill-rule="evenodd" d="M18.896 2.563c.117-.116.075-.314-.083-.362a4.584 4.584 0 00-5.612 6.058l-2.373 2.43-3.853-3.852V5.024c0-.69-.44-1.304-1.097-1.522l-1.854-.618a1.146 1.146 0 00-1.173.277l-.515.515c-.307.307-.415.76-.277 1.173l.618 1.854a1.603 1.603 0 001.522 1.098h1.795l3.873 3.872-7.073 7.243a1.833 1.833 0 102.593 2.592l5.471-5.603 5.36 5.36c1.028 1.028 2.779.945 3.806-.083 1.028-1.027 1.142-2.809.114-3.836l-5.406-5.407 1.062-1.088a4.584 4.584 0 006.058-5.612c-.049-.158-.246-.2-.363-.083l-2.562 2.562a.23.23 0 01-.324 0l-2.268-2.269a.229.229 0 010-.324l2.561-2.562zm-5.125 10.36l-1.952 1.999 5.372 5.372c.49.49 1.37.407 1.861-.084.49-.49.605-1.401.114-1.892l-5.395-5.395zM3.98 6.269a.229.229 0 00.218.157H5.35a.25.25 0 00.25-.25V5.024a.23.23 0 00-.156-.217L3.87 4.282a.25.25 0 00-.256.06l-.097.097a.25.25 0 00-.06.256L3.98 6.27z"/></svg>