<svg xmlns="http://www.w3.org/2000/svg" width="24" height="24"><path d="M8.65 2.75a.75.75 0 00-1.5 0V4h-5.4a.75.75 0 000 1.5h8.846a16.476 16.476 0 01-2.666 6.292c-.999-.9-1.766-1.964-2.24-3.084a.75.75 0 00-1.38.584c.58 1.374 1.517 2.649 2.715 3.702-1.546 1.859-3.652 3.48-5.61 4.46a.75.75 0 10.67 1.342c2.15-1.075 4.444-2.843 6.136-4.895a11.62 11.62 0 001.472.783.75.75 0 10.614-1.368c-.389-.175-.793-.38-1.18-.618A18.007 18.007 0 0012.123 5.5h2.127a.75.75 0 000-1.5h-5.6V2.75z"/><path fill-rule="evenodd" d="M17.386 9.649a1 1 0 00-1.804 0l-5.275 11.028a.75.75 0 001.354.647l1.828-3.823h5.99l1.828 3.823a.75.75 0 101.354-.647L17.386 9.65zm-.902 1.59l2.277 4.762h-4.554l2.277-4.762z"/></svg>