<svg xmlns="http://www.w3.org/2000/svg" width="24" height="24"><path d="M10.836 2C6.548 2 3.103 5.363 3.103 9.607c0 .124.003.248.009.372A4.9 4.9 0 000 14.56c0 2.48 1.774 4.479 4.145 4.87.468.078.855-.314.855-.789 0-.354-.289-.636-.638-.698C2.705 17.65 1.5 16.26 1.5 14.56c0-1.616 1.083-2.943 2.603-3.328a.75.75 0 00.552-.869 4.856 4.856 0 01-.052-.756c0-3.39 2.748-6.107 6.233-6.107 2.588 0 4.77 1.5 5.72 3.655l.179.446a.75.75 0 00.696.47c2.843 0 5.069 2.206 5.069 4.965 0 2.697-.958 4.389-2.895 4.86-.34.083-.605.369-.605.717 0 .478.41.86.877.758 2.61-.573 4.123-2.755 4.123-6.335 0-3.441-2.652-6.191-6.054-6.445l-.001-.006a.596.596 0 00-.01-.022C16.748 3.858 14.026 2 10.836 2z"/><path d="M12.784 21.248v-8.58l2.94 3.11a.747.747 0 001.258-.767.75.75 0 00-.16-.25l-4.236-4.52a.748.748 0 00-1.098 0l-4.236 4.52a.75.75 0 101.097 1.017l2.94-3.11v8.58a.751.751 0 00.747.75.746.746 0 00.748-.75z"/></svg>