<svg xmlns="http://www.w3.org/2000/svg" width="24" height="24"><path fill-rule="evenodd" d="M18.52 3.568a.623.623 0 00-.098.073 8.386 8.386 0 00-.429.413l-8.118 8.119a6.135 6.135 0 00-.12.122l-.024.026a.248.248 0 00-.026.047 6.028 6.028 0 00-.053.2l-.593 2.36 2.36-.593a5.928 5.928 0 00.2-.053m0 0a.254.254 0 00.047-.026l.026-.024c.027-.025.06-.058.122-.12l8.119-8.118c.206-.207.33-.33.413-.43a.622.622 0 00.073-.097.249.249 0 000-.148.622.622 0 00-.073-.098 8.332 8.332 0 00-.413-.43l-.738-.737a8.386 8.386 0 00-.429-.413.623.623 0 00-.098-.073.25.25 0 00-.148 0m-.466-1.426a1.75 1.75 0 011.081 0c.246.08.439.217.602.355.151.129.319.296.5.478l.775.774c.182.182.35.35.477.5.139.164.276.357.355.603.115.351.115.73 0 1.081-.08.246-.216.44-.355.602a8.636 8.636 0 01-.477.5l-8.137 8.138-.023.022a2.537 2.537 0 01-.31.278 1.745 1.745 0 01-.328.186 2.526 2.526 0 01-.43.131l-3.575.897a.75.75 0 01-.91-.91l.897-3.575.008-.031c.032-.128.067-.266.124-.398a1.75 1.75 0 01.186-.328c.084-.117.184-.217.277-.31l.023-.023 8.137-8.137c.182-.182.35-.35.5-.478.164-.138.357-.275.603-.355z"/><path fill-rule="evenodd" d="M1 4.75C1 3.784 1.784 3 2.75 3H11a.75.75 0 010 1.5H2.75a.25.25 0 00-.25.25v16.5c0 .138.112.25.25.25h16.5a.25.25 0 00.25-.25V13a.75.75 0 011.5 0v8.25A1.75 1.75 0 0119.25 23H2.75A1.75 1.75 0 011 21.25V4.75z"/></svg>