<svg xmlns="http://www.w3.org/2000/svg" width="24" height="24"><path fill-rule="evenodd" d="M8 12.25a3.75 3.75 0 116.667 2.357l2.113 2.113a.75.75 0 11-1.06 1.06l-2.216-2.215A3.75 3.75 0 018 12.25zM11.75 10a2.25 2.25 0 100 4.5 2.25 2.25 0 000-4.5z"/><path fill-rule="evenodd" d="M8.75 0A1.75 1.75 0 007 1.75V2H5a1.75 1.75 0 00-1.75 1.75v18.5c0 .966.784 1.75 1.75 1.75h14a1.75 1.75 0 001.75-1.75V3.75A1.75 1.75 0 0019 2h-2v-.25A1.75 1.75 0 0015.25 0h-6.5zM17 3.5v.75A1.75 1.75 0 0115.25 6h-6.5A1.75 1.75 0 017 4.25V3.5H5a.25.25 0 00-.25.25v18.5c0 .138.112.25.25.25h14a.25.25 0 00.25-.25V3.75A.25.25 0 0019 3.5h-2zM8.5 1.75a.25.25 0 01.25-.25h6.5a.25.25 0 01.25.25v2.5a.25.25 0 01-.25.25h-6.5a.25.25 0 01-.25-.25v-2.5z"/></svg>