<svg xmlns="http://www.w3.org/2000/svg" width="24" height="24"><path fill-rule="evenodd" d="M6.5 0a1.75 1.75 0 00-1.75 1.75V2h-2A1.75 1.75 0 001 3.75v18.5c0 .966.784 1.75 1.75 1.75h14a1.75 1.75 0 001.75-1.75V3.75A1.75 1.75 0 0016.75 2h-2v-.25A1.75 1.75 0 0013 0H6.5zm8.25 3.5v.75A1.75 1.75 0 0113 6H6.5a1.75 1.75 0 01-1.75-1.75V3.5h-2a.25.25 0 00-.25.25v18.5c0 .138.112.25.25.25h14a.25.25 0 00.25-.25V3.75a.25.25 0 00-.25-.25h-2zm-8.5-1.75a.25.25 0 01.25-.25H13a.25.25 0 01.25.25v2.5a.25.25 0 01-.25.25H6.5a.25.25 0 01-.25-.25v-2.5z"/><path d="M23 22.25A1.75 1.75 0 0121.25 24h-.5a.75.75 0 010-1.5h.5a.25.25 0 00.25-.25V3.75a.25.25 0 00-.25-.25h-.5a.75.75 0 010-1.5h.5c.966 0 1.75.784 1.75 1.75v18.5z"/></svg>