<svg xmlns="http://www.w3.org/2000/svg" width="24" height="24"><path d="M12 9a.75.75 0 01.75.75v5a.75.75 0 11-1.5 0v-5A.75.75 0 0112 9zm0 10a1 1 0 100-2 1 1 0 000 2z"/><path fill-rule="evenodd" d="M7 1.75C7 .784 7.784 0 8.75 0h6.5C16.216 0 17 .784 17 1.75V2h2c.966 0 1.75.784 1.75 1.75v18.5A1.75 1.75 0 0119 24H5a1.75 1.75 0 01-1.75-1.75V3.75C3.25 2.784 4.034 2 5 2h2v-.25zm10 2.5V3.5h2a.25.25 0 01.25.25v18.5a.25.25 0 01-.25.25H5a.25.25 0 01-.25-.25V3.75A.25.25 0 015 3.5h2v.75C7 5.216 7.784 6 8.75 6h6.5A1.75 1.75 0 0017 4.25zM8.75 1.5a.25.25 0 00-.25.25v2.5c0 .138.112.25.25.25h6.5a.25.25 0 00.25-.25v-2.5a.25.25 0 00-.25-.25h-6.5z"/></svg>