<svg xmlns="http://www.w3.org/2000/svg" width="24" height="24"><path d="M12.194 10.529a1.557 1.557 0 00-1.035.185 1.51 1.51 0 00-.669.797.77.77 0 01-.978.46.748.748 0 01-.468-.96 3.02 3.02 0 011.338-1.593 3.117 3.117 0 012.071-.37 3.08 3.08 0 011.827 1.026 2.97 2.97 0 01.72 1.939c0 1.15-.87 1.909-1.49 2.315-.2.13-.396.24-.574.329a.63.63 0 00-.163.097.24.24 0 00-.058.093c-.013.04-.013.085-.013.178v.223a.76.76 0 01-.767.752.76.76 0 01-.767-.752v-.982c0-.323.21-.61.523-.713 0 0 .198-.074.292-.115.189-.083.435-.204.676-.361.528-.345.808-.713.808-1.065a1.49 1.49 0 00-.36-.97 1.538 1.538 0 00-.913-.513zM12 17a1 1 0 110 2 1 1 0 010-2z"/><path fill-rule="evenodd" d="M8.75 0A1.75 1.75 0 007 1.75V2H5a1.75 1.75 0 00-1.75 1.75v18.5c0 .966.784 1.75 1.75 1.75h14a1.75 1.75 0 001.75-1.75V3.75A1.75 1.75 0 0019 2h-2v-.25A1.75 1.75 0 0015.25 0h-6.5zM17 3.5v.75A1.75 1.75 0 0115.25 6h-6.5A1.75 1.75 0 017 4.25V3.5H5a.25.25 0 00-.25.25v18.5c0 .138.112.25.25.25h14a.25.25 0 00.25-.25V3.75A.25.25 0 0019 3.5h-2zM8.5 1.75a.25.25 0 01.25-.25h6.5a.25.25 0 01.25.25v2.5a.25.25 0 01-.25.25h-6.5a.25.25 0 01-.25-.25v-2.5z"/></svg>