<svg xmlns="http://www.w3.org/2000/svg" width="24" height="24"><path d="M8.861 13.222l2.344 2.135v-5.61c0-.198.084-.388.232-.528A.812.812 0 0111.995 9c.21 0 .41.079.558.219.148.14.231.33.231.528v5.61l2.345-2.135a.825.825 0 011.121-.041.75.75 0 01.18.239.714.714 0 01-.148.823l-3.71 3.52a.792.792 0 01-.263.175.828.828 0 01-.891-.175l-3.71-3.52a.724.724 0 01-.207-.534.731.731 0 01.25-.517.815.815 0 01.561-.201.81.81 0 01.55.231z"/><path fill-rule="evenodd" d="M8.75 0A1.75 1.75 0 007 1.75V2H5a1.75 1.75 0 00-1.75 1.75v18.5c0 .966.784 1.75 1.75 1.75h14a1.75 1.75 0 001.75-1.75V3.75A1.75 1.75 0 0019 2h-2v-.25A1.75 1.75 0 0015.25 0h-6.5zM17 3.5v.75A1.75 1.75 0 0115.25 6h-6.5A1.75 1.75 0 017 4.25V3.5H5a.25.25 0 00-.25.25v18.5c0 .138.112.25.25.25h14a.25.25 0 00.25-.25V3.75A.25.25 0 0019 3.5h-2zM8.5 1.75a.25.25 0 01.25-.25h6.5a.25.25 0 01.25.25v2.5a.25.25 0 01-.25.25h-6.5a.25.25 0 01-.25-.25v-2.5z"/></svg>