<svg xmlns="http://www.w3.org/2000/svg" width="24" height="24"><path fill-rule="evenodd" d="M9.95 11.463c-.736 0-1.518.688-1.518 1.661 0 1.172.861 2.27 1.845 3.126.536.463 1.112.873 1.722 1.228a11.469 11.469 0 001.723-1.229c.983-.855 1.846-1.955 1.846-3.127 0-.973-.781-1.66-1.517-1.66-.519 0-.95.232-1.266.63-.4.504-1.17.504-1.57 0-.315-.398-.746-.629-1.265-.629zM7 13.124c0-1.78 1.423-3.122 2.95-3.123.81 0 1.513.31 2.05.814A2.957 2.957 0 0114.052 10c1.527 0 2.95 1.341 2.949 3.122 0 1.865-1.32 3.344-2.352 4.241l-.002.002a12.87 12.87 0 01-1.981 1.407h-.001a8.857 8.857 0 01-.239.131.99.99 0 01-.888-.017l-.003-.002a12.846 12.846 0 01-2.182-1.518l-.003-.001C8.318 16.467 7 14.989 7 13.125z"/><path fill-rule="evenodd" d="M8.75 0A1.75 1.75 0 007 1.75V2H5a1.75 1.75 0 00-1.75 1.75v18.5c0 .966.784 1.75 1.75 1.75h14a1.75 1.75 0 001.75-1.75V3.75A1.75 1.75 0 0019 2h-2v-.25A1.75 1.75 0 0015.25 0h-6.5zM17 3.5v.75A1.75 1.75 0 0115.25 6h-6.5A1.75 1.75 0 017 4.25V3.5H5a.25.25 0 00-.25.25v18.5c0 .138.112.25.25.25h14a.25.25 0 00.25-.25V3.75A.25.25 0 0019 3.5h-2zM8.5 1.75a.25.25 0 01.25-.25h6.5a.25.25 0 01.25.25v2.5a.25.25 0 01-.25.25h-6.5a.25.25 0 01-.25-.25v-2.5z"/></svg>