<svg xmlns="http://www.w3.org/2000/svg" width="24" height="24"><path fill-rule="evenodd" d="M3.336 1.586A2 2 0 002.75 3v18a2 2 0 002 2h14a2 2 0 002-2V7.018a2 2 0 00-.586-1.414l-4.018-4.018A2 2 0 0014.732 1H4.75a2 2 0 00-1.414.586zm1.06 1.06A.5.5 0 014.75 2.5h8.5v4a2 2 0 002 2h4V21a.5.5 0 01-.5.5h-14a.5.5 0 01-.5-.5V3a.5.5 0 01.146-.354zM14.75 6.5v-4a.5.5 0 01.336.146l4.018 4.018A.5.5 0 0119.25 7h-4a.5.5 0 01-.5-.5z"/><path fill-rule="evenodd" d="M11.75 18.5a4 4 0 01-.75-7.93v3.93c0 .414.336.75.75.75h3.93a4.001 4.001 0 01-3.93 3.25zm3.93-4.75H12.5v-3.18a4.004 4.004 0 013.18 3.18zm-9.43.75a5.5 5.5 0 1011 0 5.5 5.5 0 00-11 0z"/></svg>