<svg xmlns="http://www.w3.org/2000/svg" width="24" height="24"><path fill-rule="evenodd" d="M4 2.5a.5.5 0 00-.5.5v18a.5.5 0 00.5.5h6.25a.75.75 0 010 1.5H4a2 2 0 01-2-2V3a2 2 0 012-2h9.982a2 2 0 011.414.586l4.018 4.018A2 2 0 0120 7.018V9.75a.75.75 0 01-1.5 0V8.5h-4a2 2 0 01-2-2v-4H4zm10 4v-4a.5.5 0 01.336.146l4.018 4.018A.5.5 0 0118.5 7h-4a.5.5 0 01-.5-.5z"/><path d="M17.75 13a.75.75 0 01.75.75V17h3.75a.75.75 0 010 1.5H18.5v3.75a.75.75 0 01-1.5 0V18.5h-3.75a.75.75 0 010-1.5H17v-3.25a.75.75 0 01.75-.75z"/></svg>