<svg xmlns="http://www.w3.org/2000/svg" width="24" height="24"><path fill-rule="evenodd" d="M3.5 3a.5.5 0 01.5-.5h8.5v4a2 2 0 002 2h4v1.75a.75.75 0 001.5 0V7.018a2 2 0 00-.586-1.414l-4.018-4.018A2 2 0 0013.982 1H4a2 2 0 00-2 2v18a2 2 0 002 2h6.25a.75.75 0 000-1.5H4a.5.5 0 01-.5-.5V3zM14 2.5v4a.5.5 0 00.5.5h4a.5.5 0 00-.146-.336l-4.018-4.018A.5.5 0 0014 2.5z"/><path fill-rule="evenodd" d="M15.5 17v-1a3 3 0 116 0v1h.5a1 1 0 011 1v5a1 1 0 01-1 1h-7a1 1 0 01-1-1v-5a1 1 0 011-1h.5zm1.5-1a1.5 1.5 0 013 0v1h-3v-1z"/></svg>