<svg xmlns="http://www.w3.org/2000/svg" width="24" height="24"><path fill-rule="evenodd" d="M15 11.68v2.948a2.25 2.25 0 101.5 2.122v-5.69a1 1 0 00-1.212-.977l-5.25 1.141a1 1 0 00-.788.977v3.427a2.25 2.25 0 101.5 2.122v-5.146l4.25-.923zm-.22 4.54a.747.747 0 010 1.06.75.75 0 110-1.06zm-5.75 1a.748.748 0 010 1.06.75.75 0 110-1.06z"/><path fill-rule="evenodd" d="M4.75 2.5a.5.5 0 00-.5.5v18a.5.5 0 00.5.5h14a.5.5 0 00.5-.5V8.5h-4a2 2 0 01-2-2v-4h-8.5zm10 0v4a.5.5 0 00.5.5h4a.5.5 0 00-.146-.336l-4.018-4.018a.5.5 0 00-.336-.146zm-12 .5a2 2 0 012-2h9.982a2 2 0 011.414.586l4.018 4.018a2 2 0 01.586 1.414V21a2 2 0 01-2 2h-14a2 2 0 01-2-2V3z"/></svg>