<svg xmlns="http://www.w3.org/2000/svg" width="24" height="24"><path fill-rule="evenodd" d="M7.5 10a1.75 1.75 0 00-1.75 1.75v6.5c0 .966.784 1.75 1.75 1.75H16a1.75 1.75 0 001.75-1.75v-6.5A1.75 1.75 0 0016 10H7.5zm-.25 1.75a.25.25 0 01.25-.25H11v2.75H7.25v-2.5zm5.25 2.5V11.5H16a.25.25 0 01.25.25v2.5H12.5zm0 1.5h3.75v2.5a.25.25 0 01-.25.25h-3.5v-2.75zm-1.5 0v2.75H7.5a.25.25 0 01-.25-.25v-2.5H11z"/><path fill-rule="evenodd" d="M3.336 1.586A2 2 0 002.75 3v18a2 2 0 002 2h14a2 2 0 002-2V7.018a2 2 0 00-.586-1.414l-4.018-4.018A2 2 0 0014.732 1H4.75a2 2 0 00-1.414.586zm1.06 1.06A.5.5 0 014.75 2.5h8.5v4a2 2 0 002 2h4V21a.5.5 0 01-.5.5h-14a.5.5 0 01-.5-.5V3a.5.5 0 01.146-.354zM14.75 6.5v-4a.5.5 0 01.336.146l4.018 4.018A.5.5 0 0119.25 7h-4a.5.5 0 01-.5-.5z"/></svg>