<svg xmlns="http://www.w3.org/2000/svg" width="24" height="24"><path fill-rule="evenodd" d="M13.5 11a.75.75 0 01.75.75v7.5a.75.75 0 01-1.5 0v-7.5a.75.75 0 01.75-.75zm3 3a.75.75 0 01.75.75v1.5a.75.75 0 01-1.5 0v-1.5a.75.75 0 01.75-.75zm-6-2a.75.75 0 01.75.75v5.5a.75.75 0 01-1.5 0v-5.5a.75.75 0 01.75-.75zm-3 2a.75.75 0 01.75.75v2a.75.75 0 01-1.5 0v-2A.75.75 0 017.5 14z"/><path fill-rule="evenodd" d="M4.75 2.5a.5.5 0 00-.5.5v18a.5.5 0 00.5.5h14a.5.5 0 00.5-.5V8.5h-4a2 2 0 01-2-2v-4h-8.5zm10 0v4a.5.5 0 00.5.5h4a.5.5 0 00-.146-.336l-4.018-4.018a.5.5 0 00-.336-.146zm-12 .5a2 2 0 012-2h9.982a2 2 0 011.414.586l4.018 4.018a2 2 0 01.586 1.414V21a2 2 0 01-2 2h-14a2 2 0 01-2-2V3z"/></svg>