<svg xmlns="http://www.w3.org/2000/svg" width="24" height="24"><path fill-rule="evenodd" d="M17.75 18.004v.246A1.75 1.75 0 0116 20H7.5a1.75 1.75 0 01-1.75-1.75v-5.5c0-.966.784-1.75 1.75-1.75H16c.966 0 1.75.784 1.75 1.75v5.254zm-4.006-4.254a.75.75 0 01.556.24l1.95 2.1v-3.34a.25.25 0 00-.25-.25H7.5a.25.25 0 00-.25.25v4.293l1.899-1.706a.75.75 0 01.886-.086l1.32.789 1.838-2.042a.75.75 0 01.551-.248zM7.872 18.5H16a.25.25 0 00.247-.21l-2.488-2.678-1.702 1.89a.75.75 0 01-.942.142l-1.375-.822L7.872 18.5z"/><path fill-rule="evenodd" d="M4.75 2.5a.5.5 0 00-.5.5v18a.5.5 0 00.5.5h14a.5.5 0 00.5-.5V8.5h-4a2 2 0 01-2-2v-4h-8.5zm10 0v4a.5.5 0 00.5.5h4a.5.5 0 00-.146-.336l-4.018-4.018a.5.5 0 00-.336-.146zm-12 .5a2 2 0 012-2h9.982a2 2 0 011.414.586l4.018 4.018a2 2 0 01.586 1.414V21a2 2 0 01-2 2h-14a2 2 0 01-2-2V3z"/></svg>