<svg xmlns="http://www.w3.org/2000/svg" width="24" height="24"><path fill-rule="evenodd" d="M3.5 3a.5.5 0 01.5-.5h8.5v4a2 2 0 002 2h4v1.25a.75.75 0 001.5 0V7.018a2 2 0 00-.586-1.414l-4.018-4.018A2 2 0 0013.982 1H4a2 2 0 00-2 2v18a2 2 0 002 2h6.25a.75.75 0 000-1.5H4a.5.5 0 01-.5-.5V3zM14 2.5v4a.5.5 0 00.5.5h4a.5.5 0 00-.146-.336l-4.018-4.018A.5.5 0 0014 2.5z"/><path d="M22.795 16.265a.75.75 0 00-1.09-1.03L17.46 19.2l-2.206-2.005a.75.75 0 00-1.008 1.11l2.75 2.5a.75.75 0 001.05-.04l4.75-4.5z"/></svg>