<svg xmlns="http://www.w3.org/2000/svg" width="24" height="24"><path fill-rule="evenodd" d="M3.5 3a.5.5 0 01.5-.5h8.5v4a2 2 0 002 2h4v1.75a.75.75 0 001.5 0V7.018a2 2 0 00-.586-1.414l-4.018-4.018A2 2 0 0013.982 1H4a2 2 0 00-2 2v18a2 2 0 002 2h6.25a.75.75 0 000-1.5H4a.5.5 0 01-.5-.5V3zM14 2.5v4a.5.5 0 00.5.5h4a.5.5 0 00-.146-.336l-4.018-4.018A.5.5 0 0014 2.5z"/><path fill-rule="evenodd" d="M15.95 15.463c-.736 0-1.518.688-1.518 1.661 0 1.172.861 2.27 1.845 3.126.536.463 1.112.873 1.722 1.228a11.469 11.469 0 001.723-1.229c.983-.855 1.846-1.955 1.846-3.127 0-.973-.781-1.66-1.517-1.66-.519 0-.95.232-1.266.63-.4.504-1.17.504-1.57 0-.315-.398-.746-.629-1.265-.629zM13 17.124c0-1.78 1.423-3.122 2.95-3.123.81 0 1.512.31 2.05.814A2.957 2.957 0 0120.052 14c1.527 0 2.95 1.341 2.949 3.122 0 1.865-1.32 3.344-2.352 4.241l-.002.002a12.87 12.87 0 01-1.981 1.407h-.001a8.857 8.857 0 01-.239.131.99.99 0 01-.887-.017l-.004-.002a12.845 12.845 0 01-2.182-1.518l-.003-.001c-1.031-.898-2.35-2.376-2.349-4.24z"/></svg>