<svg xmlns="http://www.w3.org/2000/svg" width="24" height="24"><path fill-rule="evenodd" d="M2.75 3.5a.25.25 0 00-.25.25V6h8.086a.25.25 0 00.177-.073l1.176-1.177-1.176-1.177a.25.25 0 00-.177-.073H2.75zm10.56 2l-1.487 1.487a1.75 1.75 0 01-1.237.513H2.5v11.25c0 .138.112.25.25.25H6v-2.25c0-.966.784-1.75 1.75-1.75h8.5c.966 0 1.75.784 1.75 1.75V19h3.25a.25.25 0 00.25-.25v-13a.25.25 0 00-.25-.25h-7.94zm4.69 15v.75a.75.75 0 01-1.5 0v-4.5a.25.25 0 00-.25-.25h-8.5a.25.25 0 00-.25.25v4.5a.75.75 0 01-1.5 0v-.75H2.75A1.75 1.75 0 011 18.75v-15C1 2.784 1.784 2 2.75 2h7.836c.464 0 .909.184 1.237.513L13.311 4h7.939c.966 0 1.75.784 1.75 1.75v13a1.75 1.75 0 01-1.75 1.75H18zm-9-.75a.75.75 0 01.75-.75h4.5a.75.75 0 010 1.5h-4.5a.75.75 0 01-.75-.75z"/></svg>