<svg xmlns="http://www.w3.org/2000/svg" width="24" height="24"><path d="M7.25 7a.75.75 0 01.75.75v1.5a.75.75 0 11-1.5 0v-1.5A.75.75 0 017.25 7zm10.25.75a.75.75 0 00-1.5 0v1.5a.75.75 0 001.5 0v-1.5z"/><path fill-rule="evenodd" d="M8 7.75a.75.75 0 10-1.5 0v1.5a.75.75 0 101.5 0v-1.5z"/><path fill-rule="evenodd" d="M.967 3.75c0-.966.784-1.75 1.75-1.75h18.5c.966 0 1.75.784 1.75 1.75v16.5a1.75 1.75 0 01-1.75 1.75h-18.5a1.75 1.75 0 01-1.75-1.75V3.75zm1.533 0a.25.25 0 01.25-.25h9.829c-.293.48-.634 1.094-.977 1.832a20.007 20.007 0 00-1.85 8.157.999.999 0 00.998 1.011h2.75v1.924c-.466.048-.966.076-1.5.076-1.905 0-3.383-.357-4.375-.707a9.023 9.023 0 01-1.118-.476 5.29 5.29 0 01-.331-.185l-.012-.007a.75.75 0 00-.83 1.25h.002l.004.003.037.024.096.058c.081.048.198.114.348.191.301.155.738.357 1.304.556 1.133.4 2.78.793 4.875.793.529 0 1.03-.025 1.5-.069V20.5H2.75a.25.25 0 01-.25-.25V3.75zm12.467 13.965V20.5h6.25a.25.25 0 00.25-.25V3.75a.25.25 0 00-.25-.25h-6.876a9.999 9.999 0 00-.28.411 16.395 16.395 0 00-1.13 2.052 18.505 18.505 0 00-1.7 7.037h2.735a1 1 0 011 1v2.183c.53-.117.99-.254 1.375-.39a9.032 9.032 0 001.118-.476 5.323 5.323 0 00.331-.185l.01-.006.002-.001a.75.75 0 01.83 1.25h-.002l-.004.003s-.33.196-.481.273c-.301.155-.738.357-1.304.556-.52.183-1.146.365-1.875.508z"/></svg>