<svg xmlns="http://www.w3.org/2000/svg" width="24" height="24"><path d="M3.573 4.573A.25.25 0 013.75 4.5h4.97a.25.25 0 01.208.11l1.404 2.062a1.75 1.75 0 001.447.765h8.471a.25.25 0 01.25.25v2.563a.75.75 0 001.5 0V7.688a1.75 1.75 0 00-1.75-1.75h-8.471a.25.25 0 01-.207-.11l-1.404-2.063A1.75 1.75 0 008.721 3H3.75A1.75 1.75 0 002 4.75v14.5A1.75 1.75 0 003.75 21h5.668a.75.75 0 000-1.5H3.75a.25.25 0 01-.25-.25V4.75a.25.25 0 01.073-.177z"/><path d="M19.194 14.529a1.557 1.557 0 00-1.035.185 1.51 1.51 0 00-.669.797.77.77 0 01-.977.46.748.748 0 01-.47-.96 3.02 3.02 0 011.339-1.593 3.116 3.116 0 012.071-.37 3.08 3.08 0 011.827 1.026 2.97 2.97 0 01.72 1.939c0 1.15-.87 1.909-1.49 2.315-.2.13-.396.24-.574.329a.644.644 0 00-.163.097.24.24 0 00-.058.093c-.013.04-.013.085-.013.178v.223a.76.76 0 01-.767.752.76.76 0 01-.767-.752v-.982c0-.323.21-.61.523-.713 0 0 .198-.074.292-.115.189-.082.435-.204.676-.361.528-.345.808-.713.808-1.065a1.49 1.49 0 00-.36-.97 1.538 1.538 0 00-.913-.513zM19 21a1 1 0 110 2 1 1 0 010-2z"/></svg>