<svg xmlns="http://www.w3.org/2000/svg" width="24" height="24"><path d="M3.573 4.573A.25.25 0 013.75 4.5h4.97a.25.25 0 01.208.11l1.404 2.062a1.75 1.75 0 001.447.765h8.471a.25.25 0 01.25.25V9.25a.75.75 0 001.5 0V7.688a1.75 1.75 0 00-1.75-1.75h-8.471a.25.25 0 01-.207-.11l-1.404-2.063A1.75 1.75 0 008.721 3H3.75A1.75 1.75 0 002 4.75v14.5A1.75 1.75 0 003.75 21h5.668a.75.75 0 000-1.5H3.75a.25.25 0 01-.25-.25V4.75a.25.25 0 01.073-.177z"/><path fill-rule="evenodd" d="M18.75 13.5a.75.75 0 00-.75.75v5a.75.75 0 01-1.5 0v-5a2.25 2.25 0 014.5 0v5.125a3.625 3.625 0 01-7.25 0V16.75a.75.75 0 011.5 0v2.625a2.125 2.125 0 004.25 0V14.25a.75.75 0 00-.75-.75z"/></svg>