<svg xmlns="http://www.w3.org/2000/svg" width="24" height="24"><path d="M15.22 15.22a.75.75 0 011.06 0L19 17.94l2.72-2.72a.75.75 0 111.06 1.06L20.06 19l2.72 2.72a.75.75 0 11-1.06 1.06L19 20.06l-2.72 2.72a.75.75 0 11-1.06-1.06L17.94 19l-2.72-2.72a.75.75 0 010-1.06z"/><path d="M3.573 4.573A.25.25 0 013.75 4.5h4.97a.25.25 0 01.208.11l1.404 2.062a1.75 1.75 0 001.447.765h8.471a.25.25 0 01.25.25v2.563a.75.75 0 001.5 0V7.688a1.75 1.75 0 00-1.75-1.75h-8.471a.25.25 0 01-.207-.11l-1.404-2.063A1.75 1.75 0 008.721 3H3.75A1.75 1.75 0 002 4.75v14.5A1.75 1.75 0 003.75 21h5.668a.75.75 0 000-1.5H3.75a.25.25 0 01-.25-.25V4.75a.25.25 0 01.073-.177z"/></svg>