<svg xmlns="http://www.w3.org/2000/svg" width="24" height="24"><path fill-rule="evenodd" d="M12.357 3.309a.75.75 0 10-1.214.882l1.27 1.747H9.78a.25.25 0 01-.207-.11L8.168 3.765A1.75 1.75 0 006.721 3H1.75A1.75 1.75 0 000 4.75v14.5A1.75 1.75 0 001.75 21h15a1.75 1.75 0 001.75-1.75V7.688a1.75 1.75 0 00-1.75-1.75h-2.481l-1.912-2.63zM1.572 4.573A.25.25 0 011.75 4.5h4.97a.25.25 0 01.208.11l1.404 2.062a1.75 1.75 0 001.447.765h6.971a.25.25 0 01.25.25V19.25a.25.25 0 01-.25.25h-15a.25.25 0 01-.25-.25V4.75a.25.25 0 01.073-.177z"/><path d="M21.25 19.5a.25.25 0 00.25-.25V7.687a.25.25 0 00-.25-.25h-.5a.75.75 0 010-1.499h.5c.966 0 1.75.783 1.75 1.75V19.25A1.75 1.75 0 0121.25 21h-.5a.75.75 0 010-1.5h.5z"/></svg>