<svg xmlns="http://www.w3.org/2000/svg" width="24" height="24"><path d="M3.75 4.5a.25.25 0 00-.25.25v14.5c0 .138.112.25.25.25h5.668a.75.75 0 010 1.5H3.75A1.75 1.75 0 012 19.25V4.75C2 3.784 2.784 3 3.75 3h4.971c.58 0 1.12.286 1.447.765l1.404 2.063a.25.25 0 00.207.11h8.471c.966 0 1.75.783 1.75 1.75v2.562a.75.75 0 01-1.5 0V7.687a.25.25 0 00-.25-.25h-8.471a1.75 1.75 0 01-1.447-.765L8.928 4.61a.25.25 0 00-.208-.11H3.75z"/><path d="M18.5 13.75a.75.75 0 00-1.5 0V17h-3.75a.75.75 0 000 1.5H17v3.75a.75.75 0 001.5 0V18.5h3.75a.75.75 0 000-1.5H18.5v-3.25z"/></svg>