<svg xmlns="http://www.w3.org/2000/svg" width="24" height="24"><path d="M18.778 21.639l-2.135-2.344h5.61a.728.728 0 00.528-.232.812.812 0 00.219-.558c0-.21-.079-.41-.219-.558a.728.728 0 00-.528-.231h-5.61l2.135-2.345a.825.825 0 00.041-1.121.75.75 0 00-.239-.18.714.714 0 00-.823.148l-3.52 3.71a.792.792 0 00-.175.263.828.828 0 00.175.891l3.52 3.71a.723.723 0 00.534.207.731.731 0 00.517-.25.815.815 0 00.201-.561.81.81 0 00-.231-.55z"/><path d="M3.573 4.573A.25.25 0 013.75 4.5h4.97a.25.25 0 01.208.11l1.404 2.062a1.75 1.75 0 001.447.765h8.471a.25.25 0 01.25.25v2.563a.75.75 0 001.5 0V7.688a1.75 1.75 0 00-1.75-1.75h-8.471a.25.25 0 01-.207-.11l-1.404-2.063A1.75 1.75 0 008.721 3H3.75A1.75 1.75 0 002 4.75v14.5A1.75 1.75 0 003.75 21h5.668a.75.75 0 000-1.5H3.75a.25.25 0 01-.25-.25V4.75a.25.25 0 01.073-.177z"/></svg>