<svg xmlns="http://www.w3.org/2000/svg" width="24" height="24"><path d="M21.639 18.778l-2.344-2.135v5.61a.728.728 0 01-.232.528.812.812 0 01-.558.219.813.813 0 01-.558-.219.728.728 0 01-.231-.528v-5.61l-2.345 2.135a.825.825 0 01-1.121.041.75.75 0 01-.18-.239.714.714 0 01.148-.823l3.71-3.52a.792.792 0 01.263-.175.828.828 0 01.891.175l3.71 3.52a.723.723 0 01.207.534.731.731 0 01-.25.517.815.815 0 01-.561.201.81.81 0 01-.55-.231zM3.573 4.573A.25.25 0 013.75 4.5h4.97a.25.25 0 01.208.11l1.404 2.062a1.75 1.75 0 001.447.765h8.471a.25.25 0 01.25.25v2.563a.75.75 0 001.5 0V7.688a1.75 1.75 0 00-1.75-1.75h-8.471a.25.25 0 01-.207-.11l-1.404-2.063A1.75 1.75 0 008.721 3H3.75A1.75 1.75 0 002 4.75v14.5A1.75 1.75 0 003.75 21h5.668a.75.75 0 000-1.5H3.75a.25.25 0 01-.25-.25V4.75a.25.25 0 01.073-.177z"/></svg>