<svg xmlns="http://www.w3.org/2000/svg" width="24" height="24"><path fill-rule="evenodd" d="M19 0a5 5 0 100 10 5 5 0 000-10zm-1.887 2.052a3.5 3.5 0 014.835 4.835l-4.835-4.835zm-1.061 1.06a3.5 3.5 0 004.835 4.835l-4.835-4.834zm-6.254 8.436a3.25 3.25 0 10-4.596-4.596 3.25 3.25 0 004.596 4.596zM9.25 9.25a1.75 1.75 0 11-3.5 0 1.75 1.75 0 013.5 0z"/><path fill-rule="evenodd" d="M0 3.75C0 2.784.784 2 1.75 2h9.5a.75.75 0 010 1.5h-9.5a.25.25 0 00-.25.25v16.5c0 .138.112.25.25.25h3.012a1 1 0 00.716-.302l8.54-7.758a1.75 1.75 0 012.47-.035l6.012 4.824V13.75a.75.75 0 011.5 0v6.5A1.75 1.75 0 0122.25 22H1.75A1.75 1.75 0 010 20.25V3.75zm15.444 9.732l6.752 5.541a1 1 0 01.304.718v.509a.25.25 0 01-.25.25H7.279l7.812-7.013a.25.25 0 01.353-.005z"/></svg>