<svg xmlns="http://www.w3.org/2000/svg" width="24" height="24"><path fill-rule="evenodd" d="M15 3.75a3.75 3.75 0 116.667 2.357L23.78 8.22a.75.75 0 01-1.06 1.06l-2.215-2.215A3.75 3.75 0 0115 3.75zm3.75-2.25a2.25 2.25 0 100 4.5 2.25 2.25 0 000-4.5zM9.798 11.548a3.25 3.25 0 10-4.596-4.596 3.25 3.25 0 004.596 4.596zM9.25 9.25a1.75 1.75 0 11-3.5 0 1.75 1.75 0 013.5 0z"/><path fill-rule="evenodd" d="M0 3.75C0 2.784.784 2 1.75 2h9.5a.75.75 0 010 1.5h-9.5a.25.25 0 00-.25.25v16.5c0 .138.112.25.25.25h3.012a1 1 0 00.716-.302l8.54-8.758a1.75 1.75 0 012.47-.035l6.012 5.824V13.75a.75.75 0 011.5 0v6.5A1.75 1.75 0 0122.25 22H1.75A1.75 1.75 0 010 20.25V3.75zm15.444 8.732l6.752 6.541a1 1 0 01.304.718v.509a.25.25 0 01-.25.25H7.279l7.812-8.013a.25.25 0 01.353-.005z"/></svg>