<svg xmlns="http://www.w3.org/2000/svg" width="24" height="24"><path d="M20.194 1.525a1.558 1.558 0 00-1.035.185 1.51 1.51 0 00-.669.797.77.77 0 01-.977.46.748.748 0 01-.47-.96 3.02 3.02 0 011.34-1.592 3.117 3.117 0 012.071-.37A3.08 3.08 0 0122.28 1.07 2.97 2.97 0 0123 3.009c0 1.15-.87 1.91-1.49 2.315a5.92 5.92 0 01-.574.329.643.643 0 00-.163.097.24.24 0 00-.058.093c-.013.04-.013.085-.013.178v.223a.76.76 0 01-.767.752.76.76 0 01-.767-.752v-.982c0-.323.21-.61.523-.713 0 0 .198-.074.292-.115.189-.082.435-.204.676-.361.528-.345.808-.713.808-1.065a1.49 1.49 0 00-.36-.97 1.539 1.539 0 00-.913-.513zM20 7.996a1 1 0 110 2 1 1 0 010-2z"/><path fill-rule="evenodd" d="M9.798 11.548a3.25 3.25 0 10-4.596-4.596 3.25 3.25 0 004.596 4.596zM9.25 9.25a1.75 1.75 0 11-3.5 0 1.75 1.75 0 013.5 0z"/><path fill-rule="evenodd" d="M0 3.75C0 2.784.784 2 1.75 2h9.5a.75.75 0 010 1.5h-9.5a.25.25 0 00-.25.25v16.5c0 .138.112.25.25.25h3.012a1 1 0 00.716-.302l8.54-8.758a1.75 1.75 0 012.47-.035l6.012 5.824V11.75a.75.75 0 011.5 0v8.5A1.75 1.75 0 0122.25 22H1.75A1.75 1.75 0 010 20.25V3.75zm15.444 8.732l6.752 6.541a1 1 0 01.304.718v.509a.25.25 0 01-.25.25H7.279l7.812-8.013a.25.25 0 01.353-.005z"/></svg>