<svg xmlns="http://www.w3.org/2000/svg" width="24" height="24"><path fill-rule="evenodd" d="M9.798 9.548a3.25 3.25 0 10-4.596-4.596 3.25 3.25 0 004.596 4.596zM9.25 7.25a1.75 1.75 0 11-3.5 0 1.75 1.75 0 013.5 0z"/><path fill-rule="evenodd" d="M1.75 0A1.75 1.75 0 000 1.75v16.5C0 19.216.784 20 1.75 20h20.5A1.75 1.75 0 0024 18.25V1.75A1.75 1.75 0 0022.25 0H1.75zm0 1.5a.25.25 0 00-.25.25v16.5c0 .138.112.25.25.25h3.434l8.833-9.06a1.75 1.75 0 012.47-.035l6.013 5.824V1.75a.25.25 0 00-.25-.25H1.75zM22.5 17.318l-7.056-6.836a.25.25 0 00-.353.005L7.28 18.5h14.97a.25.25 0 00.25-.25v-.932z"/><path d="M.75 21a.75.75 0 01.75.75v.5c0 .138.112.25.25.25h20.5a.25.25 0 00.25-.25v-.5a.75.75 0 011.5 0v.5A1.75 1.75 0 0122.25 24H1.75A1.75 1.75 0 010 22.25v-.5A.75.75 0 01.75 21z"/></svg>