<svg xmlns="http://www.w3.org/2000/svg" width="24" height="24"><path fill-rule="evenodd" d="M9.798 11.548a3.25 3.25 0 10-4.596-4.596 3.25 3.25 0 004.596 4.596zM9.25 9.25a1.75 1.75 0 11-3.5 0 1.75 1.75 0 013.5 0z"/><path fill-rule="evenodd" d="M1.75 2A1.75 1.75 0 000 3.75v16.5C0 21.216.784 22 1.75 22h20.5A1.75 1.75 0 0024 20.25V3.75A1.75 1.75 0 0022.25 2H1.75zM1.5 3.75a.25.25 0 01.25-.25h20.5a.25.25 0 01.25.25v13.48l-6.012-5.825a1.75 1.75 0 00-2.47.035L5.183 20.5H1.75a.25.25 0 01-.25-.25V3.75zm13.944 8.732l7.056 6.836v.932a.25.25 0 01-.25.25H7.279l7.812-8.013a.25.25 0 01.353-.005z"/></svg>