<svg xmlns="http://www.w3.org/2000/svg" width="24" height="24"><path fill-rule="evenodd" d="M16.95 1.463c-.736 0-1.518.688-1.518 1.661 0 1.172.861 2.27 1.845 3.126.536.463 1.112.873 1.722 1.228a11.457 11.457 0 001.723-1.229c.983-.855 1.846-1.955 1.846-3.127 0-.973-.781-1.66-1.517-1.66-.519 0-.95.232-1.266.63-.4.504-1.17.504-1.57 0-.315-.398-.746-.629-1.265-.629zM14 3.124c0-1.78 1.423-3.122 2.95-3.123.81 0 1.512.31 2.05.814A2.958 2.958 0 0121.052 0c1.527 0 2.95 1.341 2.949 3.122 0 1.865-1.32 3.344-2.352 4.241l-.002.002a12.867 12.867 0 01-1.981 1.407h-.001a8.897 8.897 0 01-.239.131.99.99 0 01-.887-.017l-.004-.002a12.841 12.841 0 01-2.182-1.518l-.003-.001C15.318 6.467 14 4.989 14 3.125zm-4.202 8.424a3.25 3.25 0 10-4.596-4.596 3.25 3.25 0 004.596 4.596zM9.25 9.25a1.75 1.75 0 11-3.5 0 1.75 1.75 0 013.5 0z"/><path fill-rule="evenodd" d="M0 3.75C0 2.784.784 2 1.75 2h9.5a.75.75 0 010 1.5h-9.5a.25.25 0 00-.25.25v16.5c0 .138.112.25.25.25h3.012a1 1 0 00.716-.302l8.54-8.758a1.75 1.75 0 012.47-.035l6.012 5.824V11.75a.75.75 0 011.5 0v8.5A1.75 1.75 0 0122.25 22H1.75A1.75 1.75 0 010 20.25V3.75zm15.444 8.732l6.752 6.541a1 1 0 01.304.718v.509a.25.25 0 01-.25.25H7.279l7.812-8.013a.25.25 0 01.353-.005z"/></svg>