<svg xmlns="http://www.w3.org/2000/svg" width="24" height="24"><path d="M19 0a.75.75 0 01.75.75v4a.75.75 0 11-1.5 0v-4A.75.75 0 0119 0zm0 9a1 1 0 100-2 1 1 0 000 2z"/><path fill-rule="evenodd" d="M1.75 2A1.75 1.75 0 000 3.75v16.5C0 21.216.784 22 1.75 22h20.5A1.75 1.75 0 0024 20.25v-8.5a.75.75 0 00-1.5 0v5.48l-6.012-5.825a1.75 1.75 0 00-2.47.035l-8.54 8.758a1 1 0 01-.716.302H1.75a.25.25 0 01-.25-.25V3.75a.25.25 0 01.25-.25h9.5a.75.75 0 000-1.5h-9.5zm20.446 17.023l-6.752-6.54a.25.25 0 00-.353.004L7.28 20.5h14.97a.25.25 0 00.25-.25v-.509a1 1 0 00-.304-.718z"/><path fill-rule="evenodd" d="M10.75 9.25a3.25 3.25 0 11-6.5 0 3.25 3.25 0 016.5 0zm-1.633.67a1.75 1.75 0 10-3.234-1.34 1.75 1.75 0 003.234 1.34z"/></svg>