<svg xmlns="http://www.w3.org/2000/svg" width="24" height="24"><path fill-rule="evenodd" d="M16.95 1.463c-.736 0-1.518.688-1.518 1.661 0 1.172.861 2.27 1.845 3.126.536.463 1.112.873 1.722 1.228a11.457 11.457 0 001.723-1.229c.983-.855 1.846-1.955 1.846-3.127 0-.973-.781-1.66-1.517-1.66-.519 0-.95.232-1.266.63-.4.504-1.17.504-1.57 0-.315-.398-.746-.629-1.265-.629zM14 3.124c0-1.78 1.423-3.122 2.95-3.123.81 0 1.512.31 2.05.814A2.958 2.958 0 0121.052 0c1.527 0 2.95 1.341 2.949 3.122 0 1.865-1.32 3.344-2.352 4.241l-.002.002a12.867 12.867 0 01-1.981 1.407h-.001a8.897 8.897 0 01-.239.131.99.99 0 01-.887-.017l-.004-.002a12.841 12.841 0 01-2.182-1.518l-.003-.001C15.318 6.467 14 4.989 14 3.125z"/><path d="M9 8.416v7.169a.5.5 0 00.77.42l5.576-3.584a.5.5 0 000-.842L9.77 7.996a.5.5 0 00-.77.42z"/><path d="M1.75 4.5a.25.25 0 00-.25.25v14.5c0 .138.112.25.25.25h20.5a.25.25 0 00.25-.25v-7.5a.75.75 0 011.5 0v7.5A1.75 1.75 0 0122.25 21H1.75A1.75 1.75 0 010 19.25V4.75C0 3.784.784 3 1.75 3h9.5a.75.75 0 010 1.5h-9.5z"/></svg>