<svg xmlns="http://www.w3.org/2000/svg" width="24" height="24"><path d="M16.361 4.222l2.344 2.135V.747c0-.198.084-.388.232-.528A.812.812 0 0119.495 0c.21 0 .41.079.558.219.148.14.231.33.231.528v5.61l2.345-2.135a.825.825 0 011.121-.041.75.75 0 01.18.239.715.715 0 01-.148.823l-3.71 3.52a.792.792 0 01-.263.175.828.828 0 01-.891-.175l-3.71-3.52A.725.725 0 0115 4.709a.731.731 0 01.25-.517.815.815 0 01.562-.201.81.81 0 01.548.231zM9 8.416v7.169a.5.5 0 00.77.42l5.576-3.584a.5.5 0 000-.842L9.77 7.996a.5.5 0 00-.77.42z"/><path d="M1.75 4.5a.25.25 0 00-.25.25v14.5c0 .138.112.25.25.25h20.5a.25.25 0 00.25-.25v-7.5a.75.75 0 011.5 0v7.5A1.75 1.75 0 0122.25 21H1.75A1.75 1.75 0 010 19.25V4.75C0 3.784.784 3 1.75 3h9.5a.75.75 0 010 1.5h-9.5z"/></svg>