<svg xmlns="http://www.w3.org/2000/svg" width="24" height="24"><path fill-rule="evenodd" d="M17 4V3a3 3 0 116 0v1a1 1 0 011 1v3a1 1 0 01-1 1h-6a1 1 0 01-1-1V5a1 1 0 011-1zm1.5-1a1.5 1.5 0 013 0v1h-3V3z"/><path d="M9 8.416v7.169a.5.5 0 00.77.42l5.576-3.584a.5.5 0 000-.842L9.77 7.996a.5.5 0 00-.77.42z"/><path d="M1.75 4.5a.25.25 0 00-.25.25v14.5c0 .138.112.25.25.25h20.5a.25.25 0 00.25-.25v-7.5a.75.75 0 011.5 0v7.5A1.75 1.75 0 0122.25 21H1.75A1.75 1.75 0 010 19.25V4.75C0 3.784.784 3 1.75 3h9.5a.75.75 0 010 1.5h-9.5z"/></svg>