<svg xmlns="http://www.w3.org/2000/svg" width="24" height="24"><path fill-rule="evenodd" d="M19 0a5 5 0 100 10 5 5 0 000-10zm-1.887 2.052a3.5 3.5 0 014.835 4.835l-4.835-4.835zm-1.061 1.06a3.5 3.5 0 004.835 4.835l-4.835-4.834z"/><path d="M9 8.416v7.169a.5.5 0 00.77.42l5.576-3.584a.5.5 0 000-.842L9.77 7.996a.5.5 0 00-.77.42z"/><path d="M1.75 4.5a.25.25 0 00-.25.25v14.5c0 .138.112.25.25.25h20.5a.25.25 0 00.25-.25v-7.5a.75.75 0 011.5 0v7.5A1.75 1.75 0 0122.25 21H1.75A1.75 1.75 0 010 19.25V4.75C0 3.784.784 3 1.75 3h9.5a.75.75 0 010 1.5h-9.5z"/></svg>