<svg xmlns="http://www.w3.org/2000/svg" width="24" height="24"><path d="M19.778 7.639l-2.135-2.344h5.61a.728.728 0 00.528-.232.812.812 0 00.219-.558c0-.21-.079-.41-.219-.558a.728.728 0 00-.528-.231h-5.61l2.135-2.345A.826.826 0 0019.819.25a.75.75 0 00-.239-.18.714.714 0 00-.823.148l-3.52 3.71a.792.792 0 00-.175.263.828.828 0 00.175.891l3.52 3.71a.723.723 0 00.534.207.731.731 0 00.517-.25.815.815 0 00.201-.561.81.81 0 00-.231-.55zM9 8.416v7.169a.5.5 0 00.77.42l5.576-3.584a.5.5 0 000-.842L9.77 7.996a.5.5 0 00-.77.42z"/><path d="M1.75 4.5a.25.25 0 00-.25.25v14.5c0 .138.112.25.25.25h20.5a.25.25 0 00.25-.25v-7.5a.75.75 0 011.5 0v7.5A1.75 1.75 0 0122.25 21H1.75A1.75 1.75 0 010 19.25V4.75C0 3.784.784 3 1.75 3h9.5a.75.75 0 010 1.5h-9.5z"/></svg>