<svg xmlns="http://www.w3.org/2000/svg" width="24" height="24"><path d="M9 13.585V6.416a.5.5 0 01.77-.42l5.576 3.583a.5.5 0 010 .842L9.77 14.005a.5.5 0 01-.77-.42z"/><path fill-rule="evenodd" d="M0 2.75C0 1.784.784 1 1.75 1h20.5c.966 0 1.75.784 1.75 1.75v14.5A1.75 1.75 0 0122.25 19H1.75A1.75 1.75 0 010 17.25V2.75zm1.75-.25a.25.25 0 00-.25.25v14.5c0 .138.112.25.25.25h20.5a.25.25 0 00.25-.25V2.75a.25.25 0 00-.25-.25H1.75z"/><path d="M1.5 20.75a.75.75 0 00-1.5 0v.5C0 22.216.784 23 1.75 23h20.5A1.75 1.75 0 0024 21.25v-.5a.75.75 0 00-1.5 0v.5a.25.25 0 01-.25.25H1.75a.25.25 0 01-.25-.25v-.5z"/></svg>