<svg xmlns="http://www.w3.org/2000/svg" width="24" height="24"><path fill-rule="evenodd" d="M8.5 20A2.5 2.5 0 016 17.5V14a5.03 5.03 0 01-.787-.062 5.15 5.15 0 00-.336-.048c-.07-.004-.06-.004-.13 0-.048.004-.156.022-.373.058a3.75 3.75 0 01-3.133-6.485A5.002 5.002 0 0111 9v8.5A2.5 2.5 0 018.5 20zM3.545 6.506A3.5 3.5 0 019.5 9v8.5a1 1 0 11-2 0v-3.69c0-.588-.37-1.018-.83-1.207a3.75 3.75 0 00-3.125-6.098zm1.026 5.84a2.25 2.25 0 10-.111.04.743.743 0 01.11-.04zM15.5 20a2.5 2.5 0 002.5-2.5V14c.267 0 .53-.021.787-.062.192-.03.288-.045.336-.048.07-.004.06-.004.13 0 .048.004.156.022.373.058a3.75 3.75 0 003.133-6.485A5.002 5.002 0 0013 9v8.5a2.5 2.5 0 002.5 2.5zm4.955-13.494a3.75 3.75 0 00-3.125 6.098c-.46.188-.83.618-.83 1.206v3.69a1 1 0 11-2 0V9a3.5 3.5 0 015.955-2.494zm-.915 5.88a.742.742 0 00-.11-.04 2.25 2.25 0 11.11.04z"/></svg>