<svg xmlns="http://www.w3.org/2000/svg" width="24" height="24"><path fill-rule="evenodd" d="M11.198 15.323a1 1 0 011.603-.007l4.577 6.083A1 1 0 0116.58 23H7.496a1 1 0 01-.803-1.595l4.505-6.082zm.807 1.43L8.489 21.5h7.088l-3.572-4.746z"/><path fill-rule="evenodd" d="M12 8.75a3.25 3.25 0 00-2.668 5.106.75.75 0 11-1.23.858 4.75 4.75 0 117.798 0 .75.75 0 01-1.232-.858A3.25 3.25 0 0012 8.75z"/><path fill-rule="evenodd" d="M12 5.5a6.5 6.5 0 00-4.807 10.876.75.75 0 01-1.108 1.01 8 8 0 1111.831 0 .75.75 0 01-1.11-1.01A6.5 6.5 0 0012 5.5z"/><path fill-rule="evenodd" d="M12 2.5A9.5 9.5 0 002.5 12a9.468 9.468 0 002.783 6.718.75.75 0 01-1.061 1.06A10.968 10.968 0 011 12C1 5.925 5.925 1 12 1s11 4.925 11 11c0 3.037-1.232 5.788-3.222 7.778a.75.75 0 11-1.06-1.06A9.468 9.468 0 0021.5 12 9.5 9.5 0 0012 2.5z"/></svg>