<svg xmlns="http://www.w3.org/2000/svg" width="24" height="24"><path fill-rule="evenodd" d="M2 4.75C2 3.784 2.784 3 3.75 3h16.5c.966 0 1.75.784 1.75 1.75v12.5A1.75 1.75 0 0120.25 19h-.5a.75.75 0 010-1.5h.5a.25.25 0 00.25-.25V4.75a.25.25 0 00-.25-.25H3.75a.25.25 0 00-.25.25v12.5c0 .138.112.25.25.25h.5a.75.75 0 010 1.5h-.5A1.75 1.75 0 012 17.25V4.75z"/><path fill-rule="evenodd" d="M11.198 13.323a1 1 0 011.603-.007l4.577 6.083A1 1 0 0116.58 21H7.496a1 1 0 01-.803-1.595l4.505-6.082zm.807 1.43L8.489 19.5h7.088l-3.572-4.746z"/></svg>