<svg xmlns="http://www.w3.org/2000/svg" width="24" height="24"><path fill-rule="evenodd" d="M1.112 16.968a3.251 3.251 0 011.39-3.581.786.786 0 01-.03-.075A8.95 8.95 0 012 10.438C2 5.18 6.524 1 12 1s10 4.18 10 9.438a8.95 8.95 0 01-.472 2.874.778.778 0 01-.03.075 3.251 3.251 0 011.39 3.581l-.97 3.622a3.25 3.25 0 01-3.98 2.299l-.483-.13a2.25 2.25 0 01-1.591-2.756l1.488-5.554a2.25 2.25 0 012.71-1.602 7.409 7.409 0 00.4-2.409c0-4.316-3.742-7.898-8.462-7.898s-8.462 3.582-8.462 7.898a7.409 7.409 0 00.4 2.409 2.25 2.25 0 012.71 1.602l1.488 5.554a2.25 2.25 0 01-1.59 2.756l-.483.13a3.25 3.25 0 01-3.98-2.299l-.971-3.622zm1.448-.388a1.75 1.75 0 011.238-2.143l.483-.13a.75.75 0 01.918.53l1.489 5.555a.75.75 0 01-.53.918l-.484.13a1.75 1.75 0 01-2.143-1.238l-.97-3.622zm18.88 0a1.75 1.75 0 00-1.238-2.143l-.483-.13a.75.75 0 00-.918.53l-1.489 5.555a.75.75 0 00.53.918l.484.13a1.75 1.75 0 002.143-1.238l.97-3.622z"/><path d="M7.455 7.264a.75.75 0 11-.91-1.193A8.964 8.964 0 0112 4.231c2.05 0 3.941.685 5.455 1.84a.75.75 0 11-.91 1.193A7.464 7.464 0 0012 5.73c-1.71 0-3.284.571-4.545 1.534z"/></svg>