<svg xmlns="http://www.w3.org/2000/svg" width="24" height="24"><path fill-rule="evenodd" d="M9.537 1.5a1.25 1.25 0 00-1.208.928L7.976 4h8.048l-.353-1.572a1.25 1.25 0 00-1.208-.928H9.537zm8.055 2.558l-.471-2.017A2.75 2.75 0 0014.463 0H9.537a2.75 2.75 0 00-2.658 2.041l-.47 2.017A3.001 3.001 0 004 7v10a3 3 0 002.408 2.942l.471 2.017A2.75 2.75 0 009.537 24h4.926a2.75 2.75 0 002.658-2.041l.47-2.017A3 3 0 0020 17v-4.018a1.75 1.75 0 001.5-1.732v-1.5A1.75 1.75 0 0020 8.018V7a3.001 3.001 0 00-2.408-2.942zM16.024 20H7.976l.353 1.572a1.25 1.25 0 001.208.928h4.926a1.25 1.25 0 001.208-.928L16.024 20zM7 5.5A1.5 1.5 0 005.5 7v10A1.5 1.5 0 007 18.5h10a1.5 1.5 0 001.5-1.5V7A1.5 1.5 0 0017 5.5H7z"/></svg>