<svg xmlns="http://www.w3.org/2000/svg" width="24" height="24"><path d="M12.743 7.23a.75.75 0 10-1.152-.96l-4.167 5A.75.75 0 008 12.5h3.447l-3.201 4.034a.75.75 0 101.175.932l4.167-5.25A.75.75 0 0013 11H9.601l3.142-3.77zM1 7.75C1 6.784 1.784 6 2.75 6h2.5a.75.75 0 010 1.5h-2.5a.25.25 0 00-.25.25v8.5c0 .138.112.25.25.25h2.5a.75.75 0 010 1.5h-2.5A1.75 1.75 0 011 16.25v-8.5zm14 9.5c0 .414.336.75.75.75h2.5A1.75 1.75 0 0020 16.25v-8.5A1.75 1.75 0 0018.25 6h-2.5a.75.75 0 000 1.5h2.5a.25.25 0 01.25.25v8.5a.25.25 0 01-.25.25h-2.5a.75.75 0 00-.75.75zm8-7.5a.75.75 0 00-1.5 0v4.5a.75.75 0 001.5 0v-4.5z"/></svg>