<svg xmlns="http://www.w3.org/2000/svg" width="24" height="24"><path d="M5.75 9a.75.75 0 01.75.75v4.5a.75.75 0 01-1.5 0v-4.5A.75.75 0 015.75 9zM16 9.75a.75.75 0 00-1.5 0v4.5a.75.75 0 001.5 0v-4.5zM10.5 9a.75.75 0 01.75.75v4.5a.75.75 0 01-1.5 0v-4.5A.75.75 0 0110.5 9z"/><path fill-rule="evenodd" d="M1 7.75C1 6.784 1.784 6 2.75 6h15.5c.966 0 1.75.784 1.75 1.75v8.5A1.75 1.75 0 0118.25 18H2.75A1.75 1.75 0 011 16.25v-8.5zm1.75-.25a.25.25 0 00-.25.25v8.5c0 .138.112.25.25.25h15.5a.25.25 0 00.25-.25v-8.5a.25.25 0 00-.25-.25H2.75z"/><path d="M22.25 9a.75.75 0 01.75.75v4.5a.75.75 0 01-1.5 0v-4.5a.75.75 0 01.75-.75z"/></svg>