<svg xmlns="http://www.w3.org/2000/svg" width="24" height="24"><path fill-rule="evenodd" d="M19.707 5.891a.75.75 0 011.046.171c1.162 1.615 2.161 3.667 2.161 5.938 0 2.27-.999 4.323-2.16 5.938a.75.75 0 01-1.218-.876c1.065-1.481 1.878-3.228 1.878-5.062s-.813-3.58-1.878-5.062a.75.75 0 01.17-1.047zM16.57 8.242a.75.75 0 011.044.186c.634.908 1.37 2.156 1.37 3.572s-.736 2.664-1.37 3.572a.75.75 0 11-1.23-.858c.61-.874 1.1-1.793 1.1-2.714s-.49-1.84-1.1-2.714a.75.75 0 01.186-1.044zM8.412 2.08a.75.75 0 01.784.067l5.75 4.25a.75.75 0 01.047 1.168L9.909 12l5.084 4.435a.75.75 0 01-.047 1.168l-5.75 4.25A.75.75 0 018 21.25v-7.585l-4.757 4.15a.75.75 0 11-.986-1.13L7.627 12l-5.37-4.685a.75.75 0 01.986-1.13L8 10.335V2.75a.75.75 0 01.412-.67zM9.5 13.634l3.804 3.318L9.5 19.763v-6.13zm0-3.268V4.237l3.804 2.811L9.5 10.366z"/></svg>