<svg xmlns="http://www.w3.org/2000/svg" width="24" height="24"><path fill-rule="evenodd" d="M11.412 2.08a.75.75 0 01.784.067l5.75 4.25a.75.75 0 01.047 1.168l-3 2.617a.75.75 0 11-.986-1.13l2.297-2.004L12.5 4.237V7.25a.75.75 0 01-1.5 0v-4.5a.75.75 0 01.412-.67zM3.157 4.507a.75.75 0 011.058-.073l8.028 6.992.014.012 5.723 4.985a.752.752 0 01.024.02l2.766 2.41a.75.75 0 01-.985 1.13l-2.323-2.023-5.266 3.893A.75.75 0 0111 21.25v-7.585l-4.757 4.15a.75.75 0 11-.986-1.13l5.366-4.68-7.393-6.44a.75.75 0 01-.073-1.058zM12.5 13.64v6.124l3.803-2.812L12.5 13.64z"/></svg>