<svg xmlns="http://www.w3.org/2000/svg" width="24" height="24"><path fill-rule="evenodd" d="M8.412 2.08a.75.75 0 01.784.067l5.75 4.25a.75.75 0 01.047 1.168L9.909 12l5.084 4.435a.75.75 0 01-.047 1.168l-5.75 4.25A.75.75 0 018 21.25v-7.585l-4.757 4.15a.75.75 0 11-.986-1.13L7.627 12l-5.37-4.685a.75.75 0 01.986-1.13L8 10.335V2.75a.75.75 0 01.412-.67zM9.5 13.634l3.804 3.318L9.5 19.763v-6.13zm0-3.268V4.237l3.804 2.811L9.5 10.366z"/><path d="M22 12a1 1 0 11-2 0 1 1 0 012 0zm-3.5 0a1 1 0 11-2 0 1 1 0 012 0zM15 12a1 1 0 11-2 0 1 1 0 012 0z"/></svg>