<svg xmlns="http://www.w3.org/2000/svg" width="24" height="24"><path d="M14.842 9.29a.75.75 0 01-.132 1.052L11.936 12.5h2.314a.75.75 0 01.559 1.25l-3.57 3.99.834.833a.25.25 0 01-.177.427H9.5a.5.5 0 01-.5-.5v-2.396a.25.25 0 01.427-.177l.75.75L12.573 14H9.75a.75.75 0 01-.46-1.342l4.5-3.5a.75.75 0 011.052.132z"/><path fill-rule="evenodd" d="M9.75 0A1.75 1.75 0 008 1.75V6h-.25A1.75 1.75 0 006 7.75V20c0 .966.784 1.75 1.75 1.75H11v2c0 .138.112.25.25.25h1.5a.25.25 0 00.25-.25v-2h3.25A1.75 1.75 0 0018 20V7.75A1.75 1.75 0 0016.25 6H16V1.75A1.75 1.75 0 0014.25 0h-4.5zM9.5 6h5V1.75a.25.25 0 00-.25-.25h-4.5a.25.25 0 00-.25.25V6zM7.75 7.5a.25.25 0 00-.25.25V20c0 .138.112.25.25.25h8.5a.25.25 0 00.25-.25V7.75a.25.25 0 00-.25-.25h-8.5z"/></svg>