<svg xmlns="http://www.w3.org/2000/svg" width="24" height="24"><path fill-rule="evenodd" d="M3.28 2.22a.75.75 0 00-1.06 1.06L4.94 6H2.75A1.75 1.75 0 001 7.75v11.5c0 .966.784 1.75 1.75 1.75h17.19l.78.78a.75.75 0 101.06-1.06L3.28 2.22zM18.44 19.5l-2.935-2.934a5 5 0 01-7.07-7.07L6.438 7.499H2.75a.25.25 0 00-.25.25v11.5c0 .138.112.25.25.25h15.69zm-8.945-8.944a3.5 3.5 0 004.95 4.95l-4.95-4.95z"/><path d="M8 3.75A.75.75 0 018.75 3h6.014a2.75 2.75 0 012.46 1.52l.394.789A1.25 1.25 0 0018.736 6h2.514c.966 0 1.75.784 1.75 1.75v9.5a.75.75 0 01-1.5 0v-9.5a.25.25 0 00-.25-.25h-2.514a2.75 2.75 0 01-2.46-1.52l-.394-.789a1.25 1.25 0 00-1.118-.691H8.75A.75.75 0 018 3.75z"/></svg>