<svg xmlns="http://www.w3.org/2000/svg" width="24" height="24"><path fill-rule="evenodd" d="M2.325 2.268a.75.75 0 10-1.15.964L2.238 4.5H1.75A1.75 1.75 0 000 6.25v11C0 18.216.784 19 1.75 19h12.636l2.29 2.732a.75.75 0 001.149-.964l-2.428-2.897a.755.755 0 00-.16-.191L2.325 2.268zM13.13 17.5L3.495 6H1.75a.25.25 0 00-.25.25v11c0 .138.112.25.25.25h11.38zm-5.38-13a.75.75 0 000 1.5h7a.25.25 0 01.25.25v7.15c0 .646.356 1.24.927 1.544l6.235 3.326A1.25 1.25 0 0024 17.167V6.333a1.25 1.25 0 00-1.838-1.103L16.5 8.25v-2a1.75 1.75 0 00-1.75-1.75h-7zm8.75 8.9V9.95l6-3.2v10l-5.868-3.13a.25.25 0 01-.132-.22z"/></svg>