<svg xmlns="http://www.w3.org/2000/svg" width="24" height="24"><path fill-rule="evenodd" d="M12 8a5 5 0 100 10 5 5 0 000-10zm-3.5 5a3.5 3.5 0 117 0 3.5 3.5 0 01-7 0z"/><path fill-rule="evenodd" d="M9.236 3a2.75 2.75 0 00-2.46 1.52l-.394.789A1.25 1.25 0 015.264 6H2.75A1.75 1.75 0 001 7.75v11.5c0 .966.784 1.75 1.75 1.75h18.5A1.75 1.75 0 0023 19.25V7.75A1.75 1.75 0 0021.25 6h-2.514a1.25 1.25 0 01-1.118-.691l-.394-.789A2.75 2.75 0 0014.764 3H9.236zM8.118 5.191A1.25 1.25 0 019.236 4.5h5.528c.473 0 .906.268 1.118.691l.394.789a2.75 2.75 0 002.46 1.52h2.514a.25.25 0 01.25.25v11.5a.25.25 0 01-.25.25H2.75a.25.25 0 01-.25-.25V7.75a.25.25 0 01.25-.25h2.514a2.75 2.75 0 002.46-1.52l.394-.789z"/></svg>