<svg xmlns="http://www.w3.org/2000/svg" width="24" height="24"><path fill-rule="evenodd" d="M5 2.75C5 1.784 5.784 1 6.75 1h10.5c.966 0 1.75.784 1.75 1.75v2.346c0 .32-.088.633-.253.907l-2.21 3.647a.25.25 0 00-.037.13V12a1.5 1.5 0 010 3v2.25A1.75 1.75 0 0114.75 19h-.25v2.25A1.75 1.75 0 0112.75 23h-1.5a1.75 1.75 0 01-1.75-1.75V19h-.25a1.75 1.75 0 01-1.75-1.75V15a1.5 1.5 0 010-3V9.78a.25.25 0 00-.036-.13l-2.21-3.647A1.75 1.75 0 015 5.096V2.75zM11 19v2.25c0 .138.112.25.25.25h1.5a.25.25 0 00.25-.25V19h-2zM6.75 2.5a.25.25 0 00-.25.25v2.346c0 .045.013.09.036.13l2.21 3.646c.166.274.254.588.254.907v7.471c0 .138.112.25.25.25h5.5a.25.25 0 00.25-.25V9.78c0-.32.088-.634.253-.908l2.21-3.647a.25.25 0 00.037-.13V2.75a.25.25 0 00-.25-.25H6.75z"/></svg>