<svg xmlns="http://www.w3.org/2000/svg" width="24" height="24"><path d="M3.75 3A1.75 1.75 0 002 4.75v3.5a.75.75 0 101.5 0v-3.5a.25.25 0 01.25-.25h16.5a.25.25 0 01.25.25v14.5a.25.25 0 01-.25.25h-6.5a.75.75 0 000 1.5h6.5A1.75 1.75 0 0022 19.25V4.75A1.75 1.75 0 0020.25 3H3.75z"/><path d="M1.833 11.555a.75.75 0 10-.166 1.49 8.25 8.25 0 017.288 7.288.75.75 0 101.49-.166 9.75 9.75 0 00-8.612-8.612zm.067 4.06a.75.75 0 00-.3 1.47A4.25 4.25 0 014.915 20.4a.75.75 0 001.47-.3A5.75 5.75 0 001.9 15.615zM1.75 19.5a.75.75 0 000 1.5h.01a.75.75 0 000-1.5h-.01z"/></svg>