<svg xmlns="http://www.w3.org/2000/svg" width="24" height="24"><path fill-rule="evenodd" d="M8.22 8.22A.75.75 0 018.75 8h6.5a.75.75 0 01.75.75v6.5a.75.75 0 01-.75.75h-6.5a.75.75 0 01-.75-.75v-6.5a.75.75 0 01.22-.53zM9.5 9.5v5h5v-5h-5z"/><path fill-rule="evenodd" d="M15.78 1.22a.75.75 0 00-1.28.53V4h-5V1.75a.75.75 0 00-1.5 0V4H5.75A1.75 1.75 0 004 5.75V8H1.75a.75.75 0 000 1.5H4v5H1.75a.75.75 0 100 1.5H4v2.25A1.75 1.75 0 005.75 20H8v2.25a.75.75 0 101.5 0V20h5v2.25a.75.75 0 101.5 0V20h2.25A1.75 1.75 0 0020 18.25V16h2.25a.75.75 0 100-1.5H20v-5h2.25a.75.75 0 100-1.5H20V5.75A1.75 1.75 0 0018.25 4H16V1.75a.75.75 0 00-.22-.53zm2.647 17.207a.25.25 0 01-.177.073H5.75a.25.25 0 01-.25-.25V5.75a.25.25 0 01.25-.25h12.5a.25.25 0 01.25.25v12.5a.25.25 0 01-.073.177z"/></svg>