<svg xmlns="http://www.w3.org/2000/svg" width="24" height="24"><path fill-rule="evenodd" d="M1.632 1.016C1.83 1 2.066 1 2.324 1h15.352c.258 0 .494 0 .692.016.213.018.446.057.677.175.329.168.596.435.764.765.118.23.157.463.175.676.016.198.016.434.016.692V7h1.676c.258 0 .494 0 .692.016.213.018.446.057.677.175.329.168.596.435.764.765.118.23.157.463.175.676.016.198.016.434.016.692v7.352c0 .258 0 .494-.016.692a1.775 1.775 0 01-.175.677 1.75 1.75 0 01-.765.764 1.77 1.77 0 01-.676.175c-.198.016-.434.016-.692.016H16.75v2.5h1.5a.75.75 0 010 1.5h-4.5a.75.75 0 010-1.5h1.5V19h-4.5v1.5h1.5a.75.75 0 010 1.5h-4.5a.75.75 0 010-1.5h1.5v-1.579a1.503 1.503 0 01-.294-.112A1.75 1.75 0 018.169 18H2.324c-.258 0-.494 0-.692-.016a1.775 1.775 0 01-.676-.175 1.75 1.75 0 01-.765-.765 1.774 1.774 0 01-.175-.676A9.055 9.055 0 010 15.676V3.324c0-.258 0-.494.016-.692a1.77 1.77 0 01.175-.676 1.75 1.75 0 01.765-.765 1.77 1.77 0 01.676-.175zM10.324 7c-.258 0-.494 0-.692.016a1.774 1.774 0 00-.676.175 1.75 1.75 0 00-.765.765 1.77 1.77 0 00-.175.676A9.052 9.052 0 008 9.324V16.5H2.35c-.292 0-.467 0-.596-.011a.638.638 0 01-.12-.018.25.25 0 01-.105-.105.625.625 0 01-.018-.12 8.336 8.336 0 01-.011-.596V3.35c0-.292 0-.467.011-.596a.626.626 0 01.018-.12.25.25 0 01.104-.105.628.628 0 01.121-.018c.13-.01.304-.011.596-.011h15.3c.292 0 .467 0 .596.011a.626.626 0 01.12.018.25.25 0 01.105.104.638.638 0 01.018.121c.01.13.011.304.011.596V7h-8.176zm-.57 1.511a.627.627 0 00-.12.018.25.25 0 00-.105.104.626.626 0 00-.018.121c-.01.13-.011.304-.011.596v7.3c0 .292 0 .467.011.596a.625.625 0 00.018.12.25.25 0 00.104.105.638.638 0 00.121.018c.13.01.304.011.596.011h11.3c.292 0 .467 0 .596-.011a.636.636 0 00.12-.018.25.25 0 00.105-.105.636.636 0 00.018-.12c.01-.13.011-.304.011-.596v-7.3c0-.292 0-.467-.011-.596a.639.639 0 00-.018-.12.25.25 0 00-.105-.105.625.625 0 00-.12-.018 8.344 8.344 0 00-.596-.011h-11.3c-.292 0-.467 0-.596.011z"/></svg>