<svg xmlns="http://www.w3.org/2000/svg" width="24" height="24"><path d="M12.756 12.248v-8.58h.001l1.95 2.11a.751.751 0 101.101-1.017l-3.25-3.52a.75.75 0 00-1.102 0l-3.25 3.52a.75.75 0 101.101 1.017l1.95-2.11v8.58a.75.75 0 001.5 0z"/><path d="M5.25 3H3.324c-.258 0-.494 0-.692.016a1.774 1.774 0 00-.676.175 1.75 1.75 0 00-.765.765 1.77 1.77 0 00-.175.676C1 4.83 1 5.066 1 5.324v11.352c0 .258 0 .494.016.692.018.213.057.446.175.677.168.329.435.596.765.764.23.118.463.157.676.175.198.016.434.016.692.016h7.926v2.5h-4.5a.75.75 0 000 1.5h10.5a.75.75 0 000-1.5h-4.5V19h7.926c.258 0 .494 0 .692-.016a1.78 1.78 0 00.677-.175 1.75 1.75 0 00.764-.765 1.77 1.77 0 00.175-.676c.016-.198.016-.434.016-.692V5.324c0-.258 0-.494-.016-.692a1.775 1.775 0 00-.175-.676 1.75 1.75 0 00-.765-.765 1.774 1.774 0 00-.676-.175C21.17 3 20.934 3 20.676 3H18.75a.75.75 0 000 1.5h1.9c.292 0 .467 0 .596.011a.626.626 0 01.12.018.25.25 0 01.105.104.638.638 0 01.018.121c.01.13.011.304.011.596v11.3c0 .292 0 .467-.011.596a.638.638 0 01-.018.12.25.25 0 01-.105.105.636.636 0 01-.12.018c-.13.01-.304.011-.596.011H3.35c-.292 0-.467 0-.596-.011a.638.638 0 01-.12-.018.25.25 0 01-.105-.105.626.626 0 01-.018-.12 8.337 8.337 0 01-.011-.596V5.35c0-.292 0-.467.011-.596a.628.628 0 01.018-.12.25.25 0 01.104-.105.628.628 0 01.121-.018c.13-.01.304-.011.596-.011h1.9a.75.75 0 000-1.5z"/></svg>