<svg xmlns="http://www.w3.org/2000/svg" width="24" height="24"><path d="M11.25 10.331V1.75a.75.75 0 111.5 0v8.58l1.949-2.11A.75.75 0 1115.8 9.237l-3.25 3.52a.75.75 0 01-1.102 0l-3.25-3.52A.75.75 0 119.3 8.22l1.949 2.111h.001z"/><path d="M3.324 3H7.25a.75.75 0 110 1.5h-3.9c-.292 0-.467 0-.596.011a.628.628 0 00-.12.018.25.25 0 00-.105.104.628.628 0 00-.018.121c-.01.13-.011.304-.011.596v11.3c0 .292 0 .467.011.596a.626.626 0 00.018.12.25.25 0 00.104.105.638.638 0 00.121.018c.13.01.304.011.596.011h17.3c.292 0 .467 0 .596-.011a.636.636 0 00.12-.018.25.25 0 00.105-.105.638.638 0 00.018-.12c.01-.13.011-.304.011-.596V5.35c0-.292 0-.467-.011-.596a.638.638 0 00-.018-.12.25.25 0 00-.105-.105.626.626 0 00-.12-.018 8.337 8.337 0 00-.596-.011h-3.9a.75.75 0 010-1.5h3.926c.258 0 .494 0 .692.016.213.018.446.057.677.175.329.168.596.435.764.765.118.23.157.463.175.676.016.198.016.434.016.692v11.352c0 .258 0 .494-.016.692a1.775 1.775 0 01-.175.677 1.75 1.75 0 01-.765.764 1.77 1.77 0 01-.676.175c-.198.016-.434.016-.692.016H12.75v2.5h4.5a.75.75 0 010 1.5H6.75a.75.75 0 010-1.5h4.5V19H3.324c-.258 0-.494 0-.692-.016a1.775 1.775 0 01-.676-.175 1.75 1.75 0 01-.765-.765 1.774 1.774 0 01-.175-.676C1 17.17 1 16.934 1 16.676V5.324c0-.258 0-.494.016-.692a1.77 1.77 0 01.175-.676 1.75 1.75 0 01.765-.765 1.77 1.77 0 01.676-.175C2.83 3 3.066 3 3.324 3z"/></svg>