<svg xmlns="http://www.w3.org/2000/svg" width="24" height="24"><path fill-rule="evenodd" d="M3.35 1h-.026c-.258 0-.494 0-.692.016a1.774 1.774 0 00-.676.175 1.75 1.75 0 00-.765.765 1.77 1.77 0 00-.175.676C1 2.83 1 3.066 1 3.324v11.352c0 .258 0 .494.016.692.018.213.057.446.175.676.168.33.435.598.765.765.23.118.463.157.676.175.198.016.434.016.692.016H8v4.863c0 .058 0 .139.006.212.007.088.027.229.103.379a1 1 0 00.437.437c.15.077.29.096.379.103.073.006.154.006.212.006h5.726c.058 0 .139 0 .212-.006a.99.99 0 00.379-.103 1 1 0 00.437-.437c.076-.15.096-.29.103-.379.006-.073.006-.154.006-.212V17h4.676c.258 0 .494 0 .692-.016a1.78 1.78 0 00.677-.175 1.75 1.75 0 00.764-.765 1.77 1.77 0 00.175-.676c.016-.198.016-.434.016-.692V3.324c0-.258 0-.494-.016-.692a1.775 1.775 0 00-.175-.676 1.75 1.75 0 00-.765-.765 1.774 1.774 0 00-.676-.175C21.17 1 20.934 1 20.676 1H3.35zM9.5 17v4.5h5V17H13a1 1 0 11-2 0H9.5zM2.754 2.511a.626.626 0 00-.12.018.25.25 0 00-.105.104.626.626 0 00-.018.121c-.01.13-.011.304-.011.596v11.3c0 .292 0 .467.011.596a.625.625 0 00.018.12.25.25 0 00.104.105.638.638 0 00.121.018c.13.01.304.011.596.011h17.3c.292 0 .467 0 .596-.011a.636.636 0 00.12-.018.25.25 0 00.105-.104.636.636 0 00.018-.121c.01-.13.011-.304.011-.596V3.35c0-.292 0-.467-.011-.596a.638.638 0 00-.018-.12.25.25 0 00-.105-.105.625.625 0 00-.12-.018 8.336 8.336 0 00-.596-.011H3.35c-.292 0-.467 0-.596.011z"/></svg>