<svg xmlns="http://www.w3.org/2000/svg" width="24" height="24"><path fill-rule="evenodd" d="M3.324 1h17.352c.258 0 .494 0 .692.016.213.018.446.057.677.175.329.168.596.435.764.765.118.23.157.463.175.676.016.198.016.434.016.692v11.352c0 .258 0 .494-.016.692a1.775 1.775 0 01-.175.676 1.75 1.75 0 01-.765.765 1.77 1.77 0 01-.676.175c-.198.016-.434.016-.692.016H16v4.863c0 .058 0 .139-.006.212a1.003 1.003 0 01-.103.379 1 1 0 01-.437.437.986.986 0 01-.379.103c-.073.006-.154.006-.212.006H9.137c-.058 0-.139 0-.212-.006a1.003 1.003 0 01-.379-.103 1 1 0 01-.437-.437 1.003 1.003 0 01-.103-.379A2.672 2.672 0 018 21.863V17H3.324c-.258 0-.494 0-.692-.016a1.775 1.775 0 01-.676-.175 1.75 1.75 0 01-.765-.765 1.774 1.774 0 01-.175-.676C1 15.17 1 14.934 1 14.676V3.324c0-.258 0-.494.016-.692a1.77 1.77 0 01.175-.676 1.75 1.75 0 01.765-.765 1.77 1.77 0 01.676-.175C2.83 1 3.066 1 3.324 1zM9.5 17v4.5h5V17h-5zM2.63 2.53h.002zm.003-.001a.626.626 0 01.121-.018c.13-.01.304-.011.596-.011h17.3c.292 0 .467 0 .596.011a.625.625 0 01.12.018.25.25 0 01.105.104.638.638 0 01.018.121c.01.13.011.304.011.596v11.3c0 .292 0 .467-.011.596a.636.636 0 01-.018.12.25.25 0 01-.105.105.636.636 0 01-.12.018c-.13.01-.304.011-.596.011H3.35c-.292 0-.467 0-.596-.011a.638.638 0 01-.12-.018.25.25 0 01-.105-.104.625.625 0 01-.018-.121 8.336 8.336 0 01-.011-.596V3.35c0-.292 0-.467.011-.596a.626.626 0 01.018-.12.25.25 0 01.104-.105zm-.103.102v.001zm0 12.738v-.001zm.1.101h.002zm18.74 0l-.004.001zm.1-.1v-.002zm0-12.74v.002zm-.102-.1h.001z"/></svg>