<svg xmlns="http://www.w3.org/2000/svg" width="24" height="24"><path fill-rule="evenodd" d="M3.324 2h17.352c.258 0 .494 0 .692.016.213.018.446.057.677.175.329.168.596.435.764.765.118.23.157.463.175.676.016.198.016.434.016.692v11.352c0 .258 0 .494-.016.692a1.775 1.775 0 01-.175.677 1.75 1.75 0 01-.765.764 1.77 1.77 0 01-.676.175c-.198.016-.434.016-.692.016H12.75v2.5h4.5a.75.75 0 010 1.5H6.75a.75.75 0 010-1.5h4.5V18H3.324c-.258 0-.494 0-.692-.016a1.775 1.775 0 01-.676-.175 1.75 1.75 0 01-.765-.765 1.774 1.774 0 01-.175-.676C1 16.17 1 15.934 1 15.676V4.324c0-.258 0-.494.016-.692a1.77 1.77 0 01.175-.676 1.75 1.75 0 01.765-.765 1.77 1.77 0 01.676-.175C2.83 2 3.066 2 3.324 2zM2.63 3.53h.001zm.002-.001a.626.626 0 01.121-.018c.13-.01.304-.011.596-.011h17.3c.292 0 .467 0 .596.011a.625.625 0 01.12.018.25.25 0 01.105.104.638.638 0 01.018.121c.01.13.011.304.011.596v11.3c0 .292 0 .467-.011.596a.636.636 0 01-.018.12.25.25 0 01-.105.105.636.636 0 01-.12.018c-.13.01-.304.011-.596.011H3.35c-.292 0-.467 0-.596-.011a.638.638 0 01-.12-.018.25.25 0 01-.105-.105.625.625 0 01-.018-.12 8.336 8.336 0 01-.011-.596V4.35c0-.292 0-.467.011-.596a.626.626 0 01.018-.12.25.25 0 01.104-.105zm-.103.102v.001zm0 12.738v-.001zm.1.101h.002zm18.74 0l-.004.001zm.1-.1v-.002zm0-12.74v.002zm-.102-.1h.001z"/><path fill-rule="evenodd" d="M9 9V8a3 3 0 116 0v1a1 1 0 011 1v4a1 1 0 01-1 1H9a1 1 0 01-1-1v-4a1 1 0 011-1zm1.5-1a1.5 1.5 0 013 0v1h-3V8z"/></svg>