<svg xmlns="http://www.w3.org/2000/svg" width="24" height="24"><path fill-rule="evenodd" d="M3.677 3a1.75 1.75 0 00-1.745 1.618l-.808 10.713a2.25 2.25 0 002.243 2.419H4.5A3.25 3.25 0 007.75 21h8.5a3.25 3.25 0 003.25-3.25h1.133a2.25 2.25 0 002.243-2.42l-.808-10.712A1.75 1.75 0 0020.323 3H3.677zM18 17.75H6c0 .966.784 1.75 1.75 1.75h8.5A1.75 1.75 0 0018 17.75zM3.428 4.731a.25.25 0 01.25-.231h16.645c.13 0 .24.1.249.231l.808 10.713a.75.75 0 01-.747.806H3.367a.75.75 0 01-.747-.806L3.428 4.73z"/></svg>