<svg xmlns="http://www.w3.org/2000/svg" width="24" height="24"><path fill-rule="evenodd" d="M12 5c-1.83 0-3.523.414-4.786 1.12C5.976 6.815 5 7.89 5 9.25c0 1.36.976 2.436 2.214 3.13 1.263.706 2.956 1.12 4.786 1.12 1.83 0 3.523-.414 4.786-1.12C18.024 11.685 19 10.61 19 9.25c0-1.36-.976-2.436-2.214-3.13C15.523 5.415 13.83 5 12 5zM6.5 9.25c0-.573.423-1.247 1.447-1.82 1-.56 2.431-.93 4.053-.93 1.622 0 3.053.37 4.053.93 1.024.573 1.447 1.247 1.447 1.82s-.423 1.247-1.447 1.82c-1 .56-2.431.93-4.053.93-1.622 0-3.053-.37-4.053-.93C6.923 10.497 6.5 9.823 6.5 9.25z"/><path fill-rule="evenodd" d="M2.75 22A1.75 1.75 0 011 20.25v-4.166c0-.098.008-.196.025-.293L3.119 3.457A1.75 1.75 0 014.844 2h14.311a1.75 1.75 0 011.726 1.457l2.094 12.334c.017.097.025.195.025.293v4.166A1.75 1.75 0 0121.25 22H2.75zm-.25-1.75v-3.5a.25.25 0 01.25-.25h18.5a.25.25 0 01.25.25v3.5a.25.25 0 01-.25.25H18v-1a.5.5 0 00-.5-.5h-2a.5.5 0 00-.5.5v1h-2v-1a.5.5 0 00-.5-.5h-7a.5.5 0 00-.5.5v1H2.75a.25.25 0 01-.25-.25zm18.534-5.249a.25.25 0 00.246-.292l-1.878-11a.25.25 0 00-.247-.209H4.845a.25.25 0 00-.247.208L2.73 14.71a.25.25 0 00.246.291h18.058z"/></svg>