<svg xmlns="http://www.w3.org/2000/svg" width="24" height="24"><path d="M18 2.5C18 3.88 15.314 5 12 5S6 3.88 6 2.5 8.686 0 12 0s6 1.12 6 2.5z"/><path d="M4.962 3.987a.75.75 0 10-1.424-.474l-.089.268A8.75 8.75 0 003 6.548v12.083c0 1.582.884 3.032 2.29 3.756a14.651 14.651 0 0013.42 0A4.225 4.225 0 0021 18.631V6.548a8.75 8.75 0 00-.449-2.767l-.09-.268a.75.75 0 00-1.422.474l.089.269a7.25 7.25 0 01.372 2.292v12.083c0 1.02-.57 1.955-1.477 2.423a13.15 13.15 0 01-12.046 0A2.725 2.725 0 014.5 18.63V6.548c0-.779.126-1.553.372-2.292l.09-.269z"/></svg>