<svg xmlns="http://www.w3.org/2000/svg" width="24" height="24"><path d="M12 8c3.314 0 6-1.12 6-2.5S15.314 3 12 3 6 4.12 6 5.5 8.686 8 12 8z"/><path d="M4.545 8.396a.75.75 0 00-1.274-.792A8.28 8.28 0 002 12c0 1.772.242 3.048.727 4.094.484 1.046 1.183 1.797 1.962 2.548C6.587 20.472 9.245 21 12 21s5.413-.529 7.311-2.358c.78-.75 1.478-1.502 1.962-2.548.485-1.046.727-2.322.727-4.094 0-1.6-.464-3.1-1.271-4.396a.75.75 0 00-1.274.792A6.78 6.78 0 0120.5 12c0 1.64-.225 2.68-.588 3.464-.363.784-.894 1.377-1.642 2.098C16.79 18.989 14.613 19.5 12 19.5c-2.613 0-4.789-.51-6.27-1.938-.748-.72-1.279-1.314-1.642-2.098C3.725 14.68 3.5 13.64 3.5 12a6.78 6.78 0 011.045-3.604z"/></svg>