<svg xmlns="http://www.w3.org/2000/svg" width="24" height="24"><path d="M3.75 18.5a.75.75 0 000 1.5h4.5a.75.75 0 000-1.5h-4.5z"/><path fill-rule="evenodd" d="M2.75 5.75A2.75 2.75 0 000 8.5v11.75A2.75 2.75 0 002.75 23h6.5A2.75 2.75 0 0012 20.25V8.5a2.75 2.75 0 00-2.75-2.75h-6.5zM1.5 8.5c0-.69.56-1.25 1.25-1.25H4v.5a1 1 0 001 1h2a1 1 0 001-1v-.5h1.25c.69 0 1.25.56 1.25 1.25v11.75c0 .69-.56 1.25-1.25 1.25h-6.5c-.69 0-1.25-.56-1.25-1.25V8.5z"/><path d="M4.75 2A1.75 1.75 0 003 3.75a.75.75 0 001.5 0 .25.25 0 01.25-.25h14.5a.25.25 0 01.25.25V15.5a.25.25 0 01-.25.25H14.5a.5.5 0 00-.5.5v1.25a.5.5 0 00.5.5h8.375a1.125 1.125 0 000-2.25h-1.893A1.72 1.72 0 0021 15.5V3.75A1.75 1.75 0 0019.25 2H4.75z"/></svg>