<svg xmlns="http://www.w3.org/2000/svg" width="24" height="24"><path fill-rule="evenodd" d="M9 10v1a1 1 0 00-1 1v4a1 1 0 001 1h6a1 1 0 001-1v-4a1 1 0 00-1-1v-1a3 3 0 10-6 0zm3-1.5a1.5 1.5 0 00-1.5 1.5v1h3v-1A1.5 1.5 0 0012 8.5z"/><path fill-rule="evenodd" d="M6.75 0A2.75 2.75 0 004 2.75v18.5A2.75 2.75 0 006.75 24h10.5A2.75 2.75 0 0020 21.25V2.75A2.75 2.75 0 0017.25 0H6.75zM5.5 2.75c0-.69.56-1.25 1.25-1.25H9V2a1 1 0 001 1h4a1 1 0 001-1v-.5h2.25c.69 0 1.25.56 1.25 1.25v18.5c0 .69-.56 1.25-1.25 1.25H6.75c-.69 0-1.25-.56-1.25-1.25V2.75z"/></svg>