<svg xmlns="http://www.w3.org/2000/svg" width="24" height="24"><path d="M1 3.75A2.75 2.75 0 013.75 1h17.5A2.75 2.75 0 0124 3.75v12.5A2.75 2.75 0 0121.25 19h-6.5a.75.75 0 010-1.5h6.5c.69 0 1.25-.56 1.25-1.25V3.75c0-.69-.56-1.25-1.25-1.25H3.75c-.69 0-1.25.56-1.25 1.25a.75.75 0 01-1.5 0zM3.75 18.5a.75.75 0 000 1.5h4.5a.75.75 0 000-1.5h-4.5z"/><path fill-rule="evenodd" d="M2.75 5.75A2.75 2.75 0 000 8.5v11.75A2.75 2.75 0 002.75 23h6.5A2.75 2.75 0 0012 20.25V8.5a2.75 2.75 0 00-2.75-2.75h-6.5zM1.5 8.5c0-.69.56-1.25 1.25-1.25H4v.5a1 1 0 001 1h2a1 1 0 001-1v-.5h1.25c.69 0 1.25.56 1.25 1.25v11.75c0 .69-.56 1.25-1.25 1.25h-6.5c-.69 0-1.25-.56-1.25-1.25V8.5z"/></svg>