<svg xmlns="http://www.w3.org/2000/svg" width="24" height="24"><path fill-rule="evenodd" d="M4 1.75C4 .784 4.784 0 5.75 0h12.5C19.216 0 20 .784 20 1.75v20.5A1.75 1.75 0 0118.25 24H5.75A1.75 1.75 0 014 22.25V1.75zm1.75-.25a.25.25 0 00-.25.25v20.5c0 .138.112.25.25.25h12.5a.25.25 0 00.25-.25V1.75a.25.25 0 00-.25-.25H5.75z"/><path fill-rule="evenodd" d="M7 4a1 1 0 011-1h8a1 1 0 011 1v6.5a1 1 0 01-1 1H8a1 1 0 01-1-1V4zm1.5.5V10h7V4.5h-7zM12 14.75a2.25 2.25 0 100 4.5 2.25 2.25 0 000-4.5zM8.25 17a3.75 3.75 0 117.5 0 3.75 3.75 0 01-7.5 0z"/></svg>