<svg xmlns="http://www.w3.org/2000/svg" width="24" height="24"><path d="M7.5 15a.5.5 0 00-.5.5v1a.5.5 0 00.5.5h9a.5.5 0 00.5-.5v-1a.5.5 0 00-.5-.5h-9zm-4 .5A.5.5 0 014 15h1a.5.5 0 01.5.5v1a.5.5 0 01-.5.5H4a.5.5 0 01-.5-.5v-1zM4 7a.5.5 0 00-.5.5v1A.5.5 0 004 9h1a.5.5 0 00.5-.5v-1A.5.5 0 005 7H4zm-.5 4.5A.5.5 0 014 11h1a.5.5 0 01.5.5v1a.5.5 0 01-.5.5H4a.5.5 0 01-.5-.5v-1zM7.75 7a.5.5 0 00-.5.5v1a.5.5 0 00.5.5h1a.5.5 0 00.5-.5v-1a.5.5 0 00-.5-.5h-1zm-.5 4.5a.5.5 0 01.5-.5h1a.5.5 0 01.5.5v1a.5.5 0 01-.5.5h-1a.5.5 0 01-.5-.5v-1zM11.5 7a.5.5 0 00-.5.5v1a.5.5 0 00.5.5h1a.5.5 0 00.5-.5v-1a.5.5 0 00-.5-.5h-1zm-.5 4.5a.5.5 0 01.5-.5h1a.5.5 0 01.5.5v1a.5.5 0 01-.5.5h-1a.5.5 0 01-.5-.5v-1zM19 7a.5.5 0 00-.5.5v1a.5.5 0 00.5.5h1a.5.5 0 00.5-.5v-1A.5.5 0 0020 7h-1zm-.5 4.5a.5.5 0 01.5-.5h1a.5.5 0 01.5.5v1a.5.5 0 01-.5.5h-1a.5.5 0 01-.5-.5v-1zM15.25 7a.5.5 0 00-.5.5v1a.5.5 0 00.5.5h1a.5.5 0 00.5-.5v-1a.5.5 0 00-.5-.5h-1zm-.5 4.5a.5.5 0 01.5-.5h1a.5.5 0 01.5.5v1a.5.5 0 01-.5.5h-1a.5.5 0 01-.5-.5v-1zM19 15a.5.5 0 00-.5.5v1a.5.5 0 00.5.5h1a.5.5 0 00.5-.5v-1a.5.5 0 00-.5-.5h-1z"/><path fill-rule="evenodd" d="M2.75 4A2.75 2.75 0 000 6.75v10.5A2.75 2.75 0 002.75 20h18.5A2.75 2.75 0 0024 17.25V6.75A2.75 2.75 0 0021.25 4H2.75zM1.5 6.75c0-.69.56-1.25 1.25-1.25h18.5c.69 0 1.25.56 1.25 1.25v10.5c0 .69-.56 1.25-1.25 1.25H2.75c-.69 0-1.25-.56-1.25-1.25V6.75z"/></svg>