<svg xmlns="http://www.w3.org/2000/svg" width="24" height="24"><path fill-rule="evenodd" d="M7.25 0A.75.75 0 018 .75V3h8V.75a.75.75 0 011.5 0V3h2.75c.966 0 1.75.784 1.75 1.75v14.5A1.75 1.75 0 0120.25 21H17.5v1.5h.75a.75.75 0 010 1.5h-3a.75.75 0 010-1.5H16V21H8v1.5h.75a.75.75 0 010 1.5h-3a.75.75 0 010-1.5h.75V21H3.75A1.75 1.75 0 012 19.25V4.75C2 3.784 2.784 3 3.75 3H6.5V.75A.75.75 0 017.25 0zm-3.5 4.5a.25.25 0 00-.25.25v14.5c0 .138.112.25.25.25h16.5a.25.25 0 00.25-.25V4.75a.25.25 0 00-.25-.25H3.75z"/></svg>