<svg xmlns="http://www.w3.org/2000/svg" width="24" height="24"><path fill-rule="evenodd" d="M0 6.25C0 5.284.784 4.5 1.75 4.5h20.5c.966 0 1.75.784 1.75 1.75v11.5a1.75 1.75 0 01-1.75 1.75H1.75A1.75 1.75 0 010 17.75V6.25zM1.75 6a.25.25 0 00-.25.25v11.5c0 .138.112.25.25.25h20.5a.25.25 0 00.25-.25V6.25a.25.25 0 00-.25-.25H1.75z"/><path fill-rule="evenodd" d="M3.75 8a.75.75 0 01.75.75v6.5a.75.75 0 01-1.5 0v-6.5A.75.75 0 013.75 8zm16.5 0a.75.75 0 01.75.75v6.5a.75.75 0 01-1.5 0v-6.5a.75.75 0 01.75-.75z"/><path d="M9.5 12a1 1 0 11-2 0 1 1 0 012 0zM8 9a1 1 0 11-2 0 1 1 0 012 0zm0 6a1 1 0 11-2 0 1 1 0 012 0zm5-3a1 1 0 11-2 0 1 1 0 012 0zm-1.5-3a1 1 0 11-2 0 1 1 0 012 0zm0 6a1 1 0 11-2 0 1 1 0 012 0zm5-3a1 1 0 11-2 0 1 1 0 012 0zM15 9a1 1 0 11-2 0 1 1 0 012 0zm0 6a1 1 0 11-2 0 1 1 0 012 0zm3.5-6a1 1 0 11-2 0 1 1 0 012 0zm0 6a1 1 0 11-2 0 1 1 0 012 0z"/></svg>