<svg xmlns="http://www.w3.org/2000/svg" width="24" height="24"><path d="M19 13.5a1 1 0 11-2 0 1 1 0 012 0zm-12.5-.75a.75.75 0 00-1.5 0v1.5a.75.75 0 001.5 0v-1.5zM8.75 12a.75.75 0 01.75.75v1.5a.75.75 0 01-1.5 0v-1.5a.75.75 0 01.75-.75zm3 .75a.75.75 0 000 1.5h2.5a.75.75 0 000-1.5h-2.5z"/><path fill-rule="evenodd" d="M2 7.75C2 6.784 2.784 6 3.75 6h16.5c.966 0 1.75.784 1.75 1.75v8.5A1.75 1.75 0 0120.25 18H3.75A1.75 1.75 0 012 16.25v-8.5zm1.75-.25a.25.25 0 00-.25.25v8.5c0 .138.112.25.25.25h16.5a.25.25 0 00.25-.25v-8.5a.25.25 0 00-.25-.25H3.75z"/></svg>