<svg xmlns="http://www.w3.org/2000/svg" width="24" height="24"><path fill-rule="evenodd" d="M9 11v-1a3 3 0 116 0v1a1 1 0 011 1v3a1 1 0 01-1 1H9a1 1 0 01-1-1v-3a1 1 0 011-1zm1.5-1a1.5 1.5 0 013 0v1h-3v-1z"/><path fill-rule="evenodd" d="M3 5.75C3 4.784 3.784 4 4.75 4h14.5c.966 0 1.75.784 1.75 1.75V17.5c0 .085-.006.168-.018.25h1.893a1.125 1.125 0 010 2.25H1.125a1.125 1.125 0 010-2.25h1.893A1.765 1.765 0 013 17.5V5.75zM19.5 17.5a.25.25 0 01-.25.25H4.75a.25.25 0 01-.25-.25V5.75a.25.25 0 01.25-.25h14.5a.25.25 0 01.25.25V17.5z"/></svg>