<svg xmlns="http://www.w3.org/2000/svg" width="24" height="24"><path d="M4.75 2A1.75 1.75 0 003 3.75v2.5a.75.75 0 001.5 0v-2.5a.25.25 0 01.25-.25h14.5a.25.25 0 01.25.25V15.5a.25.25 0 01-.25.25h-.75a.5.5 0 00-.5.5v1.25a.5.5 0 00.5.5h4.375a1.125 1.125 0 000-2.25h-1.893A1.72 1.72 0 0021 15.5V3.75A1.75 1.75 0 0019.25 2H4.75zm.75 16.25a.75.75 0 01.75-.75h4a.75.75 0 010 1.5h-4a.75.75 0 01-.75-.75z"/><path fill-rule="evenodd" d="M0 10.75A2.75 2.75 0 012.75 8h11a2.75 2.75 0 012.75 2.75v8.5A2.75 2.75 0 0113.75 22h-11A2.75 2.75 0 010 19.25v-8.5zm1.5 0c0-.69.56-1.25 1.25-1.25h11c.69 0 1.25.56 1.25 1.25v8.5c0 .69-.56 1.25-1.25 1.25h-11c-.69 0-1.25-.56-1.25-1.25v-8.5z"/></svg>