<svg xmlns="http://www.w3.org/2000/svg" width="24" height="24"><path d="M12 1a3.75 3.75 0 00-3.75 3.75.75.75 0 001.5 0 2.25 2.25 0 014.5 0v6a.75.75 0 001.5 0v-6A3.75 3.75 0 0012 1z"/><path fill-rule="evenodd" d="M13.588 14.648A3.75 3.75 0 018.25 11.25V9.31L2.22 3.28a.75.75 0 011.06-1.06l18.5 18.5a.75.75 0 11-1.06 1.06l-3.872-3.871a8.396 8.396 0 01-4.098 1.556V21.5h3.5a.75.75 0 010 1.5h-8.5a.75.75 0 010-1.5h3.5v-2.036C7.351 19.092 4 15.868 4 12.25v-1.5a.75.75 0 011.5 0v1.5C5.5 15.134 8.477 18 12 18a6.812 6.812 0 003.77-1.169l-2.182-2.183zM9.75 10.811v.439a2.25 2.25 0 002.653 2.214L9.75 10.811z"/><path d="M20 10.75a.75.75 0 00-1.5 0v1.5c0 .582-.119 1.162-.342 1.722a.75.75 0 101.393.556A6.14 6.14 0 0020 12.25v-1.5z"/></svg>