<svg xmlns="http://www.w3.org/2000/svg" width="24" height="24"><path fill-rule="evenodd" d="M5.25 4C4.56 4 4 4.56 4 5.25v6.5c0 .69.56 1.25 1.25 1.25h6.5c.69 0 1.25-.56 1.25-1.25v-6.5C13 4.56 12.44 4 11.75 4h-6.5zm.25 7.5v-6h6v6h-6z"/><path d="M16.25 4a.75.75 0 01.75.75v7.5a.75.75 0 01-1.5 0v-7.5a.75.75 0 01.75-.75zM4.75 15.5a.75.75 0 000 1.5h14.5a.75.75 0 000-1.5H4.75zM4 19.25a.75.75 0 01.75-.75h14.5a.75.75 0 010 1.5H4.75a.75.75 0 01-.75-.75zm16-14.5a.75.75 0 00-1.5 0v7.5a.75.75 0 001.5 0v-7.5z"/><path fill-rule="evenodd" d="M20.676 1H3.324c-.258 0-.494 0-.692.016a1.774 1.774 0 00-.676.175 1.75 1.75 0 00-.765.765 1.77 1.77 0 00-.175.676C1 2.83 1 3.066 1 3.324v17.352c0 .258 0 .494.016.692.018.213.057.446.175.677.168.329.435.596.765.764.23.118.463.157.676.175.198.016.434.016.692.016h17.352c.258 0 .494 0 .692-.016a1.78 1.78 0 00.677-.175 1.75 1.75 0 00.764-.765 1.77 1.77 0 00.175-.676c.016-.198.016-.434.016-.692V3.324c0-.258 0-.494-.016-.692a1.775 1.775 0 00-.175-.676 1.75 1.75 0 00-.765-.765 1.774 1.774 0 00-.676-.175C21.17 1 20.934 1 20.676 1zM2.754 2.511a.627.627 0 00-.12.018.25.25 0 00-.105.104.627.627 0 00-.018.121c-.01.13-.011.304-.011.596v17.3c0 .292 0 .467.011.596a.625.625 0 00.018.12.25.25 0 00.104.105.638.638 0 00.121.018c.13.01.304.011.596.011h17.3c.292 0 .467 0 .596-.011a.636.636 0 00.12-.018.25.25 0 00.105-.105.636.636 0 00.018-.12c.01-.13.011-.304.011-.596V3.35c0-.292 0-.467-.011-.596a.638.638 0 00-.018-.12.25.25 0 00-.105-.105.625.625 0 00-.12-.018 8.336 8.336 0 00-.596-.011H3.35c-.292 0-.467 0-.596.011z"/></svg>