<svg xmlns="http://www.w3.org/2000/svg" width="24" height="24"><path fill-rule="evenodd" d="M14.255 5.449l.011.016a5.25 5.25 0 00-4.708 9.184l-.826.336a2.75 2.75 0 00-1.62 3.259l.25.936a2.75 2.75 0 003.034 2.012l2.244-.31a.75.75 0 00.622-.938l-.293-1.09a.746.746 0 00.155-.152l3.474-4.604a5.234 5.234 0 001.427-3.598 5.237 5.237 0 00-1.65-3.822 6.123 6.123 0 00-.87-2.06c-.8-1.2-2.248-2.368-4.73-2.368a.75.75 0 000 1.5c1.919 0 2.924.864 3.48 1.699zm-1.768 11.606l1.024-1.356a5.299 5.299 0 01-1.384.011l.36 1.345zm2.711-9.417a3.75 3.75 0 10-4.846 5.724 3.75 3.75 0 004.846-5.724zM10.19 19.706l1.403-.194-.984-3.671-1.312.533a1.25 1.25 0 00-.736 1.482l.25.935a1.25 1.25 0 001.38.915z"/></svg>