<svg xmlns="http://www.w3.org/2000/svg" width="24" height="24"><path d="M11.982 12a1 1 0 100 2h1a1 1 0 100-2h-1z"/><path fill-rule="evenodd" d="M17.007 10a5 5 0 00-10 0v2.5c0 .476.067.937.191 1.373a2.75 2.75 0 00-1.104 2.982l.25.936a2.75 2.75 0 003.034 2.012l1.122-.155a1.75 1.75 0 001.46-2.148h.047a5 5 0 005-5V10zm-9.464 6.467a1.25 1.25 0 01.306-1.19 5.014 5.014 0 002.482 1.935l.17.638a.25.25 0 01-.207.312l-1.122.155a1.25 1.25 0 01-1.378-.914l-.251-.936zM12.007 6.5a3.5 3.5 0 013.5 3.5v2.5a3.5 3.5 0 11-7 0V10a3.5 3.5 0 013.5-3.5z"/></svg>