<svg xmlns="http://www.w3.org/2000/svg" width="24" height="24"><path d="M12 19a1 1 0 100-2 1 1 0 000 2z"/><path fill-rule="evenodd" d="M12 1c-1.954 0-3.784.617-5.264 1.866C5.257 4.114 4.17 5.955 3.633 8.334 3.383 9.44 3.25 10.664 3.25 12c0 3.512.792 6.267 2.323 8.157C7.123 22.07 9.353 23 12 23s4.877-.93 6.427-2.843c1.532-1.89 2.323-4.645 2.323-8.157 0-1.337-.132-2.56-.383-3.666-.538-2.38-1.624-4.22-3.103-5.468C15.784 1.617 13.954 1 12 1zM6.57 8.003a46.85 46.85 0 01-1.265-.134c.518-1.71 1.364-2.984 2.398-3.857C8.89 3.01 10.37 2.5 12 2.5s3.11.51 4.297 1.512c1.034.873 1.88 2.148 2.398 3.857-.332.04-.758.087-1.265.134a59.551 59.551 0 01-10.86 0zm10.998 1.494a47.195 47.195 0 001.47-.158c.138.81.212 1.697.212 2.661 0 3.313-.75 5.683-1.988 7.212-1.22 1.506-2.99 2.288-5.262 2.288-2.271 0-4.041-.782-5.262-2.288C5.5 17.683 4.75 15.312 4.75 12c0-.964.074-1.851.212-2.661.366.045.862.101 1.47.158 1.366.127 3.299.253 5.568.253 2.27 0 4.201-.126 5.569-.253z"/></svg>