<svg xmlns="http://www.w3.org/2000/svg" width="24" height="24"><path fill-rule="evenodd" d="M9.77 5.449l-.01.016a5.25 5.25 0 014.708 9.184l.825.336a2.75 2.75 0 011.62 3.259l-.25.936a2.75 2.75 0 01-3.034 2.012l-2.244-.31a.75.75 0 01-.621-.938l.292-1.09a.748.748 0 01-.155-.152l-3.474-4.604A5.234 5.234 0 016 10.5c0-1.507.635-2.865 1.65-3.822a6.121 6.121 0 01.87-2.06c.8-1.2 2.248-2.368 4.73-2.368a.75.75 0 010 1.5c-1.919 0-2.924.864-3.48 1.699zm1.768 11.606l.36-1.345a5.292 5.292 0 01-1.384-.011l1.024 1.356zM8.827 7.638a3.75 3.75 0 114.846 5.724 3.75 3.75 0 01-4.846-5.724zm5.008 12.068l-1.403-.194.984-3.671 1.312.533c.584.238.9.873.736 1.482l-.25.935a1.25 1.25 0 01-1.38.915z"/></svg>