<svg xmlns="http://www.w3.org/2000/svg" width="24" height="24"><path fill-rule="evenodd" d="M3.77 5.449l-.01.016a5.25 5.25 0 014.708 9.184l.825.336a2.75 2.75 0 011.62 3.259l-.25.936a2.75 2.75 0 01-3.034 2.012l-2.244-.31a.75.75 0 01-.621-.938l.292-1.09a.75.75 0 01-.155-.152l-3.474-4.604A5.234 5.234 0 010 10.5c0-1.507.635-2.865 1.65-3.822a6.121 6.121 0 01.87-2.06c.8-1.2 2.248-2.368 4.73-2.368a.75.75 0 010 1.5c-1.919 0-2.924.864-3.48 1.699zm1.768 11.606l.36-1.345a5.292 5.292 0 01-1.384-.011l1.024 1.356zM2.827 7.638a3.75 3.75 0 114.846 5.724 3.75 3.75 0 01-4.846-5.724zm5.008 12.068l-1.403-.194.984-3.671 1.312.533c.584.238.9.873.736 1.482l-.25.935a1.25 1.25 0 01-1.38.915zM20.266 5.465l-.01-.016c-.557-.835-1.562-1.699-3.48-1.699a.75.75 0 110-1.5c2.481 0 3.93 1.169 4.728 2.367a6.124 6.124 0 01.87 2.061 5.237 5.237 0 011.651 3.822c0 1.392-.543 2.66-1.427 3.598l-3.474 4.604a.75.75 0 01-.154.152l.292 1.09a.75.75 0 01-.622.938l-2.244.31a2.75 2.75 0 01-3.033-2.012l-.251-.936a2.75 2.75 0 011.62-3.26l.826-.335a5.239 5.239 0 01-2.033-4.149 5.25 5.25 0 016.741-5.035zM18.127 15.71l.36 1.345 1.024-1.356a5.3 5.3 0 01-1.384.011zm.648-8.96c.925 0 1.77.334 2.423.888a3.74 3.74 0 011.327 2.862c0 1.007-.395 1.92-1.041 2.594a3.737 3.737 0 01-2.709 1.156 3.733 3.733 0 01-2.487-.943 3.75 3.75 0 012.487-6.557zM16.19 19.706l1.403-.194-.984-3.671-1.312.533a1.25 1.25 0 00-.736 1.482l.25.935a1.25 1.25 0 001.38.915z"/></svg>