<svg xmlns="http://www.w3.org/2000/svg" width="24" height="24"><path d="M4 12a1 1 0 100 2h1a1 1 0 100-2H4z"/><path fill-rule="evenodd" d="M0 10a5 5 0 0110 0v2.5c0 .476-.067.937-.19 1.373a2.75 2.75 0 011.103 2.982l-.25.936a2.75 2.75 0 01-3.034 2.012l-1.122-.155a1.75 1.75 0 01-1.46-2.148H5a5 5 0 01-5-5V10zm6.677 7.212l-.171.638a.25.25 0 00.207.312l1.122.155a1.25 1.25 0 001.379-.914l.25-.936a1.25 1.25 0 00-.306-1.19 5.014 5.014 0 01-2.481 1.935zM5 6.5A3.5 3.5 0 001.5 10v2.5a3.5 3.5 0 107 0V10A3.5 3.5 0 005 6.5z"/><path d="M18 13a1 1 0 011-1h1a1 1 0 110 2h-1a1 1 0 01-1-1z"/><path fill-rule="evenodd" d="M19.025 5a5 5 0 015 5v2.5a5 5 0 01-5 5h-.047a1.75 1.75 0 01-1.46 2.148l-1.122.155a2.75 2.75 0 01-3.033-2.012l-.251-.936a2.75 2.75 0 011.104-2.982 5.003 5.003 0 01-.19-1.373V10a5 5 0 015-5zm-4.158 10.277a1.25 1.25 0 00-.306 1.19l.25.936a1.25 1.25 0 001.38.915l1.121-.156a.25.25 0 00.208-.312l-.171-.638a5.014 5.014 0 01-2.482-1.935zM22.525 10a3.5 3.5 0 10-7 0v2.5a3.5 3.5 0 107 0V10z"/></svg>