<svg xmlns="http://www.w3.org/2000/svg" width="24" height="24"><path d="M10 12a1 1 0 100 2h1a1 1 0 100-2h-1z"/><path fill-rule="evenodd" d="M6 10a5 5 0 0110 0v2.5c0 .476-.066.937-.19 1.373a2.751 2.751 0 011.103 2.982l-.25.936a2.75 2.75 0 01-3.034 2.012l-1.122-.155a1.75 1.75 0 01-1.46-2.148H11a5 5 0 01-5-5V10zm6.677 7.212a5.014 5.014 0 002.481-1.935c.295.307.423.755.306 1.19l-.25.936a1.25 1.25 0 01-1.38.915l-1.121-.156a.25.25 0 01-.207-.312l.17-.638zM11 6.5A3.5 3.5 0 007.5 10v2.5a3.5 3.5 0 107 0V10A3.5 3.5 0 0011 6.5z"/></svg>