<svg xmlns="http://www.w3.org/2000/svg" width="24" height="24"><path d="M6 9.75a.75.75 0 111.5 0 .75.75 0 01-1.5 0zm3 6a.75.75 0 01.75-.75h4.5a.75.75 0 010 1.5h-4.5a.75.75 0 01-.75-.75zM9.75 18a.75.75 0 000 1.5h4.5a.75.75 0 000-1.5h-4.5z"/><path fill-rule="evenodd" d="M6.25 6h-1.5A2.75 2.75 0 002 8.75v7.5A2.75 2.75 0 004.75 19h1.5v2.25c0 .966.784 1.75 1.75 1.75h8a1.75 1.75 0 001.75-1.75V19h1.5A2.75 2.75 0 0022 16.25v-7.5A2.75 2.75 0 0019.25 6h-1.5V2.75A1.75 1.75 0 0016 1H8a1.75 1.75 0 00-1.75 1.75V6zm1.5-3.25A.25.25 0 018 2.5h8a.25.25 0 01.25.25V6h-8.5V2.75zm10 14.75h1.5c.69 0 1.25-.56 1.25-1.25v-7.5c0-.69-.56-1.25-1.25-1.25H4.75c-.69 0-1.25.56-1.25 1.25v7.5c0 .69.56 1.25 1.25 1.25h1.5v-3.75c0-.966.784-1.75 1.75-1.75h8c.966 0 1.75.784 1.75 1.75v3.75zm-10 3.75c0 .138.112.25.25.25h8a.25.25 0 00.25-.25v-7.5a.25.25 0 00-.25-.25H8a.25.25 0 00-.25.25v7.5z"/></svg>