<svg xmlns="http://www.w3.org/2000/svg" width="24" height="24"><path fill-rule="evenodd" d="M1 8.75C1 7.784 1.784 7 2.75 7h18.5c.966 0 1.75.784 1.75 1.75v6.5A1.75 1.75 0 0121.25 17H20v.5a1 1 0 01-1 1h-1a1 1 0 01-1-1V17H7v.5a1 1 0 01-1 1H5a1 1 0 01-1-1V17H2.75A1.75 1.75 0 011 15.25v-6.5zm17.57 6.75h2.68a.25.25 0 00.25-.25v-6.5a.25.25 0 00-.25-.25h-2.68A4.984 4.984 0 0120 12a4.984 4.984 0 01-1.43 3.5zM15 8.5a3.5 3.5 0 110 7 3.5 3.5 0 010-7zm-3.57 0A4.984 4.984 0 0010 12a4.98 4.98 0 001.43 3.5H2.75a.25.25 0 01-.25-.25v-6.5a.25.25 0 01.25-.25h8.68z"/></svg>