<svg xmlns="http://www.w3.org/2000/svg" width="24" height="24"><path fill-rule="evenodd" d="M6.19 6.5H4A.75.75 0 004 8h1.07a7.95 7.95 0 00-1.035 3.25H4a.75.75 0 000 1.5h.035A7.95 7.95 0 005.07 16H4a.75.75 0 000 1.5h2.19A7.978 7.978 0 0012 20c2.288 0 4.351-.96 5.81-2.5H20a.75.75 0 000-1.5h-1.07a7.949 7.949 0 001.035-3.25H20a.75.75 0 000-1.5h-.035A7.948 7.948 0 0018.93 8H20a.75.75 0 000-1.5h-2.19A7.977 7.977 0 0012 4c-2.288 0-4.351.96-5.81 2.5zm2.344 0A6.47 6.47 0 0112 5.5a6.47 6.47 0 013.466 1H8.534zm9.923 4.75A6.468 6.468 0 0017.124 8H6.876a6.468 6.468 0 00-1.333 3.25H8.07a4.001 4.001 0 017.86 0h2.527zm-4.071 0a2.501 2.501 0 00-4.772 0h4.772zm-4.772 1.5h4.772a2.501 2.501 0 01-4.772 0zm-1.544 0H5.543A6.468 6.468 0 006.876 16h10.248a6.468 6.468 0 001.333-3.25H15.93a4.001 4.001 0 01-7.86 0zM12 18.5a6.47 6.47 0 01-3.466-1h6.932a6.47 6.47 0 01-3.466 1z"/><path fill-rule="evenodd" d="M3.324 1h17.352c.258 0 .494 0 .692.016.213.018.446.057.677.175.329.168.596.435.764.765.118.23.157.463.175.676.016.198.016.434.016.692v17.352c0 .258 0 .494-.016.692a1.775 1.775 0 01-.175.677 1.75 1.75 0 01-.765.764 1.77 1.77 0 01-.676.175c-.198.016-.434.016-.692.016H3.324c-.258 0-.494 0-.692-.016a1.775 1.775 0 01-.676-.175 1.75 1.75 0 01-.765-.765 1.774 1.774 0 01-.175-.676C1 21.17 1 20.934 1 20.676V3.324c0-.258 0-.494.016-.692a1.77 1.77 0 01.175-.676 1.75 1.75 0 01.765-.765 1.77 1.77 0 01.676-.175C2.83 1 3.066 1 3.324 1zm-.69 1.529a.627.627 0 01.12-.018c.13-.01.304-.011.596-.011h17.3c.292 0 .467 0 .596.011a.625.625 0 01.12.018.25.25 0 01.105.104.638.638 0 01.018.121c.01.13.011.304.011.596v17.3c0 .292 0 .467-.011.596a.636.636 0 01-.018.12.25.25 0 01-.105.105.636.636 0 01-.12.018c-.13.01-.304.011-.596.011H3.35c-.292 0-.467 0-.596-.011a.638.638 0 01-.12-.018.25.25 0 01-.105-.105.625.625 0 01-.018-.12 8.336 8.336 0 01-.011-.596V3.35c0-.292 0-.467.011-.596a.627.627 0 01.018-.12.25.25 0 01.104-.105z"/></svg>