<svg xmlns="http://www.w3.org/2000/svg" width="24" height="24"><path fill-rule="evenodd" d="M0 6.75C0 5.784.784 5 1.75 5h20.5c.966 0 1.75.784 1.75 1.75v8.5A1.75 1.75 0 0122.25 17H21v1.5a.5.5 0 01-.5.5h-8a.5.5 0 01-.5-.5V17h-2v1.5a.5.5 0 01-.5.5h-6a.5.5 0 01-.5-.5V17H1.75A1.75 1.75 0 010 15.25v-8.5zm1.75-.25a.25.25 0 00-.25.25V10h11.086a.25.25 0 00.177-.073l1.414-1.414A1.75 1.75 0 0115.414 8H22.5V6.75a.25.25 0 00-.25-.25H1.75zm20.75 3h-7.086a.25.25 0 00-.177.073l-1.414 1.414a1.75 1.75 0 01-1.237.513H1.5v3.75c0 .138.112.25.25.25h20.5a.25.25 0 00.25-.25V9.5z"/></svg>