<svg xmlns="http://www.w3.org/2000/svg" width="24" height="24"><path d="M15 6a3 3 0 11-6 0 3 3 0 016 0zm-5.5 7a1.5 1.5 0 100-3 1.5 1.5 0 000 3zm1.5 2.5a1.5 1.5 0 11-3 0 1.5 1.5 0 013 0zM9.5 21a1.5 1.5 0 100-3 1.5 1.5 0 000 3zm6.5-9.5a1.5 1.5 0 11-3 0 1.5 1.5 0 013 0zm0 4a1.5 1.5 0 00-3 0c.013.175.005 2.74 0 4a1.5 1.5 0 003 0v-4z"/><path fill-rule="evenodd" d="M5 3.75A3.75 3.75 0 018.75 0h6.5A3.75 3.75 0 0119 3.75v16.5A3.75 3.75 0 0115.25 24h-6.5A3.75 3.75 0 015 20.25V3.75zM8.75 1.5A2.25 2.25 0 006.5 3.75v16.5a2.25 2.25 0 002.25 2.25h6.5a2.25 2.25 0 002.25-2.25V3.75a2.25 2.25 0 00-2.25-2.25h-6.5z"/></svg>