<svg xmlns="http://www.w3.org/2000/svg" width="24" height="24"><path fill-rule="evenodd" d="M12.337 2.5c.13 0 .201 0 .256.003l.122.033h.001c.004.003.015.011.04.034.04.037.091.088.182.179l6.313 6.313c.091.09.142.142.179.182.032.035.035.043.033.04a.25.25 0 01.03.072c0 .004.003.018.004.051.003.055.003.127.003.256v5.587a.75.75 0 001.5 0V9.615c0-.195 0-.405-.048-.61a1.747 1.747 0 00-.21-.505 2.49 2.49 0 00-.396-.464L20.313 8l-6.347-6.347a2.574 2.574 0 00-.465-.396 1.75 1.75 0 00-.506-.21 2.57 2.57 0 00-.61-.047H7.683a.75.75 0 000 1.5h4.654zm.308.007a.474.474 0 00-.052-.004l.052.004zm8.165 19.537c.02-.04.038-.08.054-.12l.856.856a.75.75 0 101.06-1.06L2.28 1.22a.75.75 0 00-1.06 1.06L3 4.06v16.616c0 .258 0 .494.016.692.018.213.057.446.175.677.168.329.435.596.765.764.23.118.463.157.676.175.198.016.434.016.692.016h13.352c.258 0 .494 0 .692-.016a1.78 1.78 0 00.677-.175 1.75 1.75 0 00.764-.765zM19.5 20.65c0 .292 0 .467-.011.596a.636.636 0 01-.018.12.25.25 0 01-.105.105.636.636 0 01-.12.018c-.13.01-.304.011-.596.011H5.35c-.292 0-.467 0-.596-.011a.638.638 0 01-.12-.018.25.25 0 01-.105-.105.625.625 0 01-.018-.12 8.336 8.336 0 01-.011-.596V5.56l15 15v.09z"/></svg>