<svg xmlns="http://www.w3.org/2000/svg" width="24" height="24"><path fill-rule="evenodd" d="M7.53 11c-.122 0-.255 0-.37.01-.13.01-.3.036-.477.126a1.25 1.25 0 00-.547.546c-.09.177-.116.349-.127.479-.01.114-.009.246-.009.369v5.94c0 .122 0 .255.01.37.01.13.036.3.126.477.12.236.311.427.547.547.176.09.348.116.478.127.113.009.244.009.365.009h8.948c.121 0 .252 0 .366-.01.13-.01.3-.036.477-.126a1.25 1.25 0 00.547-.547c.09-.176.116-.348.127-.477.009-.114.009-.245.009-.366v-5.948c0-.121 0-.252-.01-.365a1.259 1.259 0 00-.126-.479 1.25 1.25 0 00-.547-.546 1.259 1.259 0 00-.477-.127c-.115-.01-.247-.009-.37-.009H7.53zm-.03 1.5h9v6h-9v-6z"/><path fill-rule="evenodd" d="M12.994 1.048A2.57 2.57 0 0012.385 1H5.324c-.258 0-.494 0-.692.016a1.774 1.774 0 00-.676.175 1.75 1.75 0 00-.765.765 1.77 1.77 0 00-.175.676A9.052 9.052 0 003 3.324v17.352c0 .258 0 .494.016.692.018.213.057.446.175.677.168.329.435.596.765.764.23.118.463.157.676.175.198.016.434.016.692.016h13.352c.258 0 .494 0 .692-.016a1.78 1.78 0 00.677-.175 1.75 1.75 0 00.764-.765 1.77 1.77 0 00.175-.676c.016-.198.016-.434.016-.692V9.615c0-.195 0-.405-.048-.61a1.747 1.747 0 00-.21-.505 2.49 2.49 0 00-.396-.464L20.313 8l-6.347-6.347a2.574 2.574 0 00-.465-.396 1.75 1.75 0 00-.506-.21zM12.337 2.5c.13 0 .201 0 .256.003l.123.034a.26.26 0 01.04.033c.04.037.091.088.182.179l6.313 6.313c.091.09.142.142.179.182.032.035.035.043.033.04a.25.25 0 01.03.072c-.001-.005.002.004.004.051.003.055.003.127.003.256V20.65c0 .292 0 .467-.011.596a.636.636 0 01-.018.12.25.25 0 01-.105.105.636.636 0 01-.12.018c-.13.01-.304.011-.596.011H5.35c-.292 0-.467 0-.596-.011a.638.638 0 01-.12-.018.25.25 0 01-.105-.105.625.625 0 01-.018-.12 8.336 8.336 0 01-.011-.596V3.35c0-.292 0-.467.011-.596a.626.626 0 01.018-.12.25.25 0 01.104-.105.628.628 0 01.121-.018c.13-.01.304-.011.596-.011h6.987zm.378.036l-.122-.033c.04.002.052.004.052.004a.25.25 0 01.07.03z"/></svg>