<svg xmlns="http://www.w3.org/2000/svg" width="24" height="24"><path d="M12.627 7.101A.75.75 0 0113 7.75v8.75h1.25a.75.75 0 010 1.5h-4.5a.75.75 0 010-1.5h1.75V9.042l-1.378.61a.75.75 0 11-.744-1.303l2.5-1.25a.75.75 0 01.749.002z"/><path fill-rule="evenodd" d="M12.385 1c.196 0 .405 0 .61.048.178.043.349.114.505.21.18.11.327.258.465.396l6.347 6.347.034.035c.139.137.286.285.396.464.096.156.167.327.21.506.049.204.048.414.048.609v11.061c0 .258 0 .494-.016.692a1.775 1.775 0 01-.175.677 1.75 1.75 0 01-.765.764 1.77 1.77 0 01-.676.175c-.198.016-.434.016-.692.016H5.324c-.258 0-.494 0-.692-.016a1.775 1.775 0 01-.676-.175 1.75 1.75 0 01-.765-.765 1.774 1.774 0 01-.175-.676A9.052 9.052 0 013 20.676V3.324c0-.258 0-.494.016-.692a1.77 1.77 0 01.175-.676 1.75 1.75 0 01.765-.765 1.77 1.77 0 01.676-.175C4.83 1 5.066 1 5.324 1h7.061zm.208 1.503a6.335 6.335 0 00-.256-.003H5.35c-.292 0-.467 0-.596.011a.628.628 0 00-.12.018.25.25 0 00-.105.104.626.626 0 00-.018.121c-.01.13-.011.304-.011.596v17.3c0 .292 0 .467.011.596a.625.625 0 00.018.12.25.25 0 00.104.105.638.638 0 00.121.018c.13.01.304.011.596.011h13.3c.292 0 .467 0 .596-.011a.636.636 0 00.12-.018.25.25 0 00.105-.105.636.636 0 00.018-.12c.01-.13.011-.304.011-.596V9.663c0-.13 0-.201-.003-.256-.002-.047-.005-.056-.004-.051a.246.246 0 00-.03-.072.413.413 0 00-.033-.04 6.38 6.38 0 00-.179-.182l-6.313-6.313a6.338 6.338 0 00-.222-.212l-.123-.034zm.051.004a.249.249 0 01.071.03l-.122-.034a.442.442 0 01.051.004z"/></svg>