<svg xmlns="http://www.w3.org/2000/svg" width="24" height="24"><path fill-rule="evenodd" d="M12 5a5 5 0 100 10 5 5 0 000-10zm-2 5a2 2 0 114 0 2 2 0 01-4 0z"/><path fill-rule="evenodd" d="M5.75 2A2.75 2.75 0 003 4.75v10.5A2.75 2.75 0 005.75 18h.5v2.25c0 .966.784 1.75 1.75 1.75h8a1.75 1.75 0 001.75-1.75V18h.5A2.75 2.75 0 0021 15.25V4.75A2.75 2.75 0 0018.25 2H5.75zm10.5 16h-8.5v2.25c0 .138.112.25.25.25h8a.25.25 0 00.25-.25V18zm2-1.5c.69 0 1.25-.56 1.25-1.25V4.75c0-.69-.56-1.25-1.25-1.25H5.75c-.69 0-1.25.56-1.25 1.25v10.5c0 .69.56 1.25 1.25 1.25h12.5z"/></svg>