<svg xmlns="http://www.w3.org/2000/svg" width="24" height="24"><path fill-rule="evenodd" d="M6.25 7C5.56 7 5 7.56 5 8.25v7.5c0 .69.56 1.25 1.25 1.25h9.5c.69 0 1.25-.56 1.25-1.25v-7.5C17 7.56 16.44 7 15.75 7h-9.5zm.25 8.5v-7h9v7h-9z"/><path fill-rule="evenodd" d="M2.75 3A1.75 1.75 0 001 4.75v14.5c0 .966.784 1.75 1.75 1.75h18.5A1.75 1.75 0 0023 19.25V4.75A1.75 1.75 0 0021.25 3H2.75zM2.5 4.75a.25.25 0 01.25-.25h18.5a.25.25 0 01.25.25V6h-1a.5.5 0 00-.5.5v2a.5.5 0 00.5.5h1v2h-1a.5.5 0 00-.5.5v6a.5.5 0 00.5.5h1v1.25a.25.25 0 01-.25.25H2.75a.25.25 0 01-.25-.25V4.75z"/></svg>