<svg xmlns="http://www.w3.org/2000/svg" width="24" height="24"><path fill-rule="evenodd" d="M6 9.25C6 8.56 6.56 8 7.25 8h8.5c.69 0 1.25.56 1.25 1.25v5.5c0 .69-.56 1.25-1.25 1.25h-8.5C6.56 16 6 15.44 6 14.75v-5.5zm9.5.25h-8v5h8v-5z"/><path fill-rule="evenodd" d="M1.75 5A1.75 1.75 0 000 6.75v3c0 .414.336.75.75.75 1.043 0 1.75.744 1.75 1.5s-.707 1.5-1.75 1.5a.75.75 0 00-.75.75v3C0 18.216.784 19 1.75 19h18.5A1.75 1.75 0 0022 17.25V17h1.5a.5.5 0 00.5-.5v-1a.5.5 0 00-.5-.5H22v-1.5h1.5a.5.5 0 00.5-.5v-2a.5.5 0 00-.5-.5H22V9h1.5a.5.5 0 00.5-.5v-1a.5.5 0 00-.5-.5H22v-.25A1.75 1.75 0 0020.25 5H1.75zm-.055 4.13a.263.263 0 01-.195-.25V6.75a.25.25 0 01.25-.25h18.5a.25.25 0 01.25.25v10.5a.25.25 0 01-.25.25H1.75a.25.25 0 01-.25-.25v-2.13c0-.118.082-.219.195-.25C2.993 14.503 4 13.402 4 12S2.993 9.496 1.695 9.13z"/></svg>