<svg xmlns="http://www.w3.org/2000/svg" width="24" height="24"><path fill-rule="evenodd" d="M2.35 1h-.026c-.258 0-.494 0-.692.016a1.774 1.774 0 00-.676.175 1.75 1.75 0 00-.765.765 1.77 1.77 0 00-.175.676A9.052 9.052 0 000 3.324v14.352c0 .258 0 .494.016.692.018.213.057.446.175.677.168.329.435.596.765.764.23.118.463.157.676.175.198.016.434.016.692.016h19.352c.258 0 .494 0 .692-.016a1.78 1.78 0 00.677-.175 1.75 1.75 0 00.764-.765 1.77 1.77 0 00.175-.676c.016-.198.016-.434.016-.692V3.324c0-.258 0-.494-.016-.692a1.775 1.775 0 00-.175-.676 1.75 1.75 0 00-.765-.765 1.774 1.774 0 00-.676-.175C22.17 1 21.934 1 21.676 1H2.35zm-.596 1.511a.628.628 0 00-.12.018.25.25 0 00-.105.104.626.626 0 00-.018.121c-.01.13-.011.304-.011.596v14.3c0 .292 0 .467.011.596a.625.625 0 00.018.12.25.25 0 00.104.105.638.638 0 00.121.018c.13.01.304.011.596.011h19.3c.292 0 .467 0 .596-.011a.636.636 0 00.12-.018.25.25 0 00.105-.105.638.638 0 00.018-.12c.01-.13.011-.304.011-.596V3.35c0-.292 0-.467-.011-.596a.638.638 0 00-.018-.12.25.25 0 00-.105-.105.626.626 0 00-.12-.018 8.337 8.337 0 00-.596-.011H2.35c-.292 0-.467 0-.596.011z"/><path d="M17.25 21.5H6.75a.75.75 0 000 1.5h10.5a.75.75 0 000-1.5z"/></svg>