<svg xmlns="http://www.w3.org/2000/svg" width="24" height="24"><path fill-rule="evenodd" d="M9 10V9a3 3 0 116 0v1a1 1 0 011 1v3a1 1 0 01-1 1H9a1 1 0 01-1-1v-3a1 1 0 011-1zm1.5-1a1.5 1.5 0 013 0v1h-3V9z"/><path fill-rule="evenodd" d="M2.324 1h19.352c.258 0 .494 0 .692.016.213.018.446.057.677.175.329.168.596.435.764.765.118.23.157.463.175.676.016.198.016.434.016.692v14.352c0 .258 0 .494-.016.692a1.775 1.775 0 01-.175.677 1.75 1.75 0 01-.765.764 1.77 1.77 0 01-.676.175c-.198.016-.434.016-.692.016H2.324c-.258 0-.494 0-.692-.016a1.775 1.775 0 01-.676-.175 1.75 1.75 0 01-.765-.765 1.774 1.774 0 01-.175-.676A9.053 9.053 0 010 17.676V3.324c0-.258 0-.494.016-.692a1.77 1.77 0 01.175-.676 1.75 1.75 0 01.765-.765 1.77 1.77 0 01.676-.175C1.83 1 2.066 1 2.324 1zm-.69 1.529a.628.628 0 01.12-.018c.13-.01.304-.011.596-.011h19.3c.292 0 .467 0 .596.011a.626.626 0 01.12.018.25.25 0 01.105.104.638.638 0 01.018.121c.01.13.011.304.011.596v14.3c0 .292 0 .467-.011.596a.636.636 0 01-.018.12.25.25 0 01-.105.105.636.636 0 01-.12.018c-.13.01-.304.011-.596.011H2.35c-.292 0-.467 0-.596-.011a.638.638 0 01-.12-.018.25.25 0 01-.105-.105.625.625 0 01-.018-.12 8.336 8.336 0 01-.011-.596V3.35c0-.292 0-.467.011-.596a.626.626 0 01.018-.12.25.25 0 01.104-.105z"/><path d="M6.75 21.5h10.5a.75.75 0 010 1.5H6.75a.75.75 0 010-1.5z"/></svg>