<svg xmlns="http://www.w3.org/2000/svg" width="24" height="24"><path d="M9.25 7a.25.25 0 00-.25.25v1.5c0 .138.112.25.25.25h1.5a.25.25 0 00.25-.25v-1.5a.25.25 0 00-.25-.25h-1.5zm4 0a.25.25 0 00-.25.25v1.5c0 .138.112.25.25.25h1.5a.25.25 0 00.25-.25v-1.5a.25.25 0 00-.25-.25h-1.5z"/><path fill-rule="evenodd" d="M5.5 12h-.75A1.75 1.75 0 003 13.75v6.5c0 .414.336.75.75.75h16.5a.75.75 0 00.75-.75v-6.5A1.75 1.75 0 0019.25 12h-.75V4.75A1.75 1.75 0 0016.75 3h-10c-.966 0-1.25.784-1.25 1.75V12zm14 7.5V18h-15v1.5h15zm0-3h-15v-2.75a.25.25 0 01.25-.25h14.5a.25.25 0 01.25.25v2.75zM7 4.75a.25.25 0 01.25-.25h9.5a.25.25 0 01.25.25V12H7V4.75z"/></svg>