<svg xmlns="http://www.w3.org/2000/svg" width="24" height="24"><path d="M9 6.25A.25.25 0 019.25 6h1.5a.25.25 0 01.25.25v1.5a.25.25 0 01-.25.25h-1.5A.25.25 0 019 7.75v-1.5zm4 0a.25.25 0 01.25-.25h1.5a.25.25 0 01.25.25v1.5a.25.25 0 01-.25.25h-1.5a.25.25 0 01-.25-.25v-1.5z"/><path fill-rule="evenodd" d="M5.5 11h-.75A1.75 1.75 0 003 12.75v8.5a.75.75 0 001.5 0v-8.5a.25.25 0 01.25-.25h14.5a.25.25 0 01.25.25v8.5a.75.75 0 001.5 0v-8.5A1.75 1.75 0 0019.25 11h-.75V3.75A1.75 1.75 0 0016.75 2h-10c-.966 0-1.25.784-1.25 1.75V11zM7 3.75a.25.25 0 01.25-.25h9.5a.25.25 0 01.25.25V11H7V3.75z"/></svg>