<svg xmlns="http://www.w3.org/2000/svg" width="24" height="24"><path fill-rule="evenodd" d="M12 4.252c0-1.1-1.318-1.663-2.113-.904L5.522 7.433a.25.25 0 01-.173.069H2.75A1.75 1.75 0 001 9.252v5.5c0 .966.784 1.75 1.75 1.75h2.6a.25.25 0 01.172.07l4.365 4.078c.795.759 2.113.195 2.113-.904V4.252zM6.558 8.518L10.5 4.837V19.16l-3.942-3.675a1.75 1.75 0 00-1.209-.484H2.75a.25.25 0 01-.25-.25v-5.5a.25.25 0 01.25-.25h2.6c.45 0 .882-.173 1.208-.484z"/><path d="M15.75 11.25a.75.75 0 000 1.5h6.5a.75.75 0 000-1.5h-6.5z"/></svg>