<svg xmlns="http://www.w3.org/2000/svg" width="24" height="24"><path fill-rule="evenodd" d="M12 4.252c0-1.1-1.318-1.663-2.113-.904L5.522 7.433a.25.25 0 01-.173.069H2.75A1.75 1.75 0 001 9.252v5.5c0 .966.784 1.75 1.75 1.75h2.6a.25.25 0 01.172.07l4.365 4.078c.795.759 2.113.195 2.113-.904V4.252zM6.558 8.518L10.5 4.837V19.16l-3.942-3.675a1.75 1.75 0 00-1.209-.484H2.75a.25.25 0 01-.25-.25v-5.5a.25.25 0 01.25-.25h2.6c.45 0 .882-.173 1.208-.484z"/><path d="M20.357 4.312a.75.75 0 10-1.218.876C20.487 7.062 21.5 9.58 21.5 12s-1.013 4.938-2.36 6.812a.75.75 0 001.217.876C21.843 17.622 23 14.805 23 12c0-2.805-1.157-5.622-2.643-7.688zM16.36 7.32a.75.75 0 10-1.23.86c.74 1.06 1.37 2.54 1.37 3.82 0 1.28-.63 2.76-1.37 3.82a.75.75 0 101.23.86C17.202 15.471 18 13.693 18 12c0-1.694-.798-3.472-1.64-4.68z"/></svg>