<svg xmlns="http://www.w3.org/2000/svg" width="24" height="24"><path d="M15.817 9.241a.75.75 0 00-1.134-.982l-2.856 3.296-2.721-1.465a.75.75 0 00-.712 1.32l3.074 1.655a1 1 0 001.23-.225l3.119-3.599z"/><path fill-rule="evenodd" d="M4 7.75A3.75 3.75 0 017.75 4h8.5A3.75 3.75 0 0120 7.75v.268c.848.121 1.5.85 1.5 1.732v1.5a1.75 1.75 0 01-1.5 1.732v3.268A3.75 3.75 0 0116.25 20h-8.5A3.75 3.75 0 014 16.25v-8.5zM7.75 5.5A2.25 2.25 0 005.5 7.75v8.5a2.25 2.25 0 002.25 2.25h8.5a2.25 2.25 0 002.25-2.25v-8.5a2.25 2.25 0 00-2.25-2.25h-8.5z"/></svg>