<svg xmlns="http://www.w3.org/2000/svg" width="24" height="24"><path d="M5.34 2.287a.75.75 0 10-1.18.926l1.122 1.43A15.218 15.218 0 001.22 7.659a.807.807 0 000 1.107.728.728 0 001.06 0 13.726 13.726 0 013.98-2.873l1.869 2.384a10.646 10.646 0 00-3.624 2.36.807.807 0 00-.021 1.107.728.728 0 001.06.021c.989-.991 2.243-1.747 3.595-2.198l1.998 2.549c-1.239.176-2.473.718-3.345 1.513a.806.806 0 00-.072 1.104.728.728 0 001.058.075c.824-.75 2.106-1.19 3.222-1.19.107 0 .215.004.324.012l6.336 8.084a.75.75 0 001.18-.926l-14.5-18.5zM12 4.565c-.793 0-1.584.075-2.36.22a.833.833 0 01-.811-.297c-.353-.45-.135-1.111.426-1.22C10.155 3.091 11.075 3 12 3c4.07 0 8.018 1.774 10.78 4.658a.807.807 0 010 1.107.728.728 0 01-1.06 0c-2.507-2.617-6.081-4.2-9.72-4.2zm6.456 7.199c-1.478-1.483-3.552-2.439-5.655-2.635a.825.825 0 01-.575-.307c-.403-.514-.035-1.257.616-1.199 3.07.273 5.003 1.357 6.654 3.013.298.3.307.795.02 1.107a.728.728 0 01-1.06.021z"/><path d="M14 19a2 2 0 11-4 0 2 2 0 014 0z"/></svg>