<svg xmlns="http://www.w3.org/2000/svg" width="24" height="24"><path d="M2.28 8.765c2.507-2.617 6.081-4.2 9.72-4.2 3.639 0 7.213 1.583 9.72 4.2a.728.728 0 001.06 0 .807.807 0 000-1.107C20.018 4.774 16.07 3 12 3 7.93 3 3.982 4.774 1.22 7.658a.807.807 0 000 1.107.728.728 0 001.06 0z"/><path d="M5.544 11.764C7.21 10.094 9.632 9.091 12 9.091c2.368 0 4.79 1.002 6.456 2.674.298.3.773.29 1.06-.022a.807.807 0 00-.02-1.107c-1.922-1.928-4.708-3.11-7.496-3.11-2.788 0-5.574 1.182-7.495 3.11a.807.807 0 00-.021 1.107.728.728 0 001.06.021z"/><path d="M8.778 14.807c.824-.75 2.106-1.19 3.222-1.19 1.1 0 2.367.426 3.185 1.156a.728.728 0 001.057-.085.806.806 0 00-.082-1.104c-1.069-.954-2.677-1.532-4.16-1.532-1.506 0-3.133.596-4.208 1.576a.806.806 0 00-.072 1.104.728.728 0 001.058.075zM12 21a2 2 0 100-4 2 2 0 000 4z"/></svg>