<svg xmlns="http://www.w3.org/2000/svg" width="24" height="24"><path d="M7.623 5.813a.75.75 0 010 1.06A7.225 7.225 0 005.5 12c0 2.002.81 3.814 2.123 5.127a.75.75 0 01-1.06 1.06A8.725 8.725 0 014 12c0-2.416.98-4.605 2.563-6.187a.75.75 0 011.06 0zm8.754 0a.75.75 0 011.06 0A8.725 8.725 0 0120 12c0 2.416-.98 4.605-2.563 6.187a.75.75 0 01-1.06-1.06A7.225 7.225 0 0018.5 12c0-2.002-.81-3.814-2.123-5.127a.75.75 0 010-1.06zm-2.73.611a.75.75 0 01.096 1.056L10.85 11h3.399a.75.75 0 01.588 1.216l-3.917 5a.75.75 0 01-1.175-.932l2.951-3.784H9.25a.75.75 0 01-.576-1.23l3.917-4.75a.75.75 0 011.056-.096z"/><path fill-rule="evenodd" d="M12 23c6.075 0 11-4.925 11-11S18.075 1 12 1 1 5.925 1 12s4.925 11 11 11zm0-1.5a9.5 9.5 0 100-19 9.5 9.5 0 000 19z"/></svg>