<svg xmlns="http://www.w3.org/2000/svg" width="24" height="24"><path d="M3.121 3.121a3.001 3.001 0 00-.578 3.432c.242.497.895.494 1.285.104l2.829-2.829c.39-.39.393-1.043-.104-1.285a3.001 3.001 0 00-3.432.578zM12.5 8A.75.75 0 1011 8v5.5c0 .27.144.518.378.651l3.5 2a.75.75 0 00.744-1.302L12.5 13.065V8z"/><path fill-rule="evenodd" d="M21 13a8.96 8.96 0 01-1.69 5.25l2.47 2.47a.75.75 0 11-1.06 1.06l-2.386-2.386A8.971 8.971 0 0112 22a8.971 8.971 0 01-6.334-2.606L3.28 21.78a.75.75 0 01-1.06-1.06l2.47-2.47A9 9 0 1121 13zm-1.5 0a7.5 7.5 0 11-15 0 7.5 7.5 0 0115 0z"/><path d="M21.457 6.56a3.001 3.001 0 00-4.01-4.01c-.497.242-.494.895-.104 1.286l2.829 2.828c.39.39 1.043.394 1.285-.103z"/></svg>