<svg xmlns="http://www.w3.org/2000/svg" width="24" height="24"><path fill-rule="evenodd" d="M18.75 14.5a.75.75 0 00-.75.75v5a.75.75 0 01-1.5 0v-5a2.25 2.25 0 014.5 0v5.125a3.625 3.625 0 01-7.25 0V17.75a.75.75 0 011.5 0v2.625a2.125 2.125 0 004.25 0V15.25a.75.75 0 00-.75-.75z"/><path fill-rule="evenodd" d="M6.75 0a.75.75 0 01.75.75V3h9V.75a.75.75 0 111.5 0V3h2.75c.966 0 1.75.784 1.75 1.75v5.625a.75.75 0 01-1.5 0V9.5H3v11.25c0 .138.112.25.25.25h6a.75.75 0 010 1.5h-6a1.75 1.75 0 01-1.75-1.75v-16C1.5 3.784 2.284 3 3.25 3H6V.75A.75.75 0 016.75 0zM3.073 4.573A.25.25 0 013.25 4.5h17.5a.25.25 0 01.25.25V8H3V4.75a.25.25 0 01.073-.177z"/></svg>