<svg xmlns="http://www.w3.org/2000/svg" width="24" height="24"><path d="M15.361 19.222l2.344 2.135v-5.61c0-.198.084-.388.232-.528a.812.812 0 01.558-.219c.21 0 .41.079.558.219.148.14.231.33.231.528v5.61l2.345-2.135a.825.825 0 011.121-.041.75.75 0 01.18.239.714.714 0 01-.148.823l-3.71 3.52a.792.792 0 01-.263.175.828.828 0 01-.891-.175l-3.71-3.52a.725.725 0 01-.207-.534.731.731 0 01.25-.517.815.815 0 01.562-.201.81.81 0 01.548.231z"/><path fill-rule="evenodd" d="M6.75 0a.75.75 0 01.75.75V3h9V.75a.75.75 0 111.5 0V3h2.75c.966 0 1.75.784 1.75 1.75v5.625a.75.75 0 01-1.5 0V9.5H3v11.25c0 .138.112.25.25.25h6a.75.75 0 010 1.5h-6a1.75 1.75 0 01-1.75-1.75v-16C1.5 3.784 2.284 3 3.25 3H6V.75A.75.75 0 016.75 0zM3.073 4.573A.25.25 0 013.25 4.5h17.5a.25.25 0 01.25.25V8H3V4.75a.25.25 0 01.073-.177z"/></svg>