<svg xmlns="http://www.w3.org/2000/svg" width="24" height="24"><path d="M19.222 22.639l2.135-2.344h-5.61a.728.728 0 01-.528-.232.812.812 0 01-.219-.558c0-.21.079-.41.219-.558a.728.728 0 01.528-.231h5.61l-2.135-2.345a.825.825 0 01-.041-1.121.75.75 0 01.239-.18.714.714 0 01.823.148l3.52 3.71a.792.792 0 01.175.263.828.828 0 01-.175.891l-3.52 3.71a.724.724 0 01-.534.207.731.731 0 01-.517-.25.815.815 0 01-.201-.561.81.81 0 01.231-.55z"/><path d="M2.5 12a9.5 9.5 0 1119 0 .75.75 0 001.5 0c0-6.075-4.925-11-11-11S1 5.925 1 12s4.925 11 11 11a.75.75 0 000-1.5A9.5 9.5 0 012.5 12z"/><path d="M11.704 6.72a.75.75 0 00-.22.53v5.065l-3.121 1.784a.75.75 0 00.744 1.302l3.5-2a.747.747 0 00.378-.651v-5.5a.75.75 0 00-1.28-.53z"/></svg>