<svg xmlns="http://www.w3.org/2000/svg" width="24" height="24"><path d="M16.22 16.22a.75.75 0 011.06 0L20 18.94l2.72-2.72a.75.75 0 111.06 1.06L21.06 20l2.72 2.72a.75.75 0 11-1.06 1.06L20 21.06l-2.72 2.72a.75.75 0 11-1.06-1.06L18.94 20l-2.72-2.72a.75.75 0 010-1.06z"/><path d="M2.5 12a9.5 9.5 0 1119 0 .75.75 0 001.5 0c0-6.075-4.925-11-11-11S1 5.925 1 12s4.925 11 11 11a.75.75 0 000-1.5A9.5 9.5 0 012.5 12z"/><path d="M11.704 6.72a.75.75 0 00-.22.53v5.065l-3.121 1.784a.75.75 0 00.744 1.302l3.5-2a.747.747 0 00.378-.651v-5.5a.75.75 0 00-1.28-.53z"/></svg>