<svg xmlns="http://www.w3.org/2000/svg" width="24" height="24"><path d="M20.194 15.529a1.557 1.557 0 00-1.035.185 1.51 1.51 0 00-.669.797.77.77 0 01-.977.46.748.748 0 01-.47-.96 3.02 3.02 0 011.339-1.593 3.116 3.116 0 012.071-.37 3.08 3.08 0 011.827 1.026 2.97 2.97 0 01.72 1.939c0 1.15-.87 1.909-1.49 2.315-.2.13-.396.24-.574.329a.644.644 0 00-.163.097.24.24 0 00-.058.093c-.013.04-.013.085-.013.178v.223a.76.76 0 01-.767.752.76.76 0 01-.767-.752v-.982c0-.323.21-.61.523-.713 0 0 .198-.074.292-.115.189-.082.435-.204.676-.361.528-.345.808-.713.808-1.065a1.49 1.49 0 00-.36-.97 1.538 1.538 0 00-.913-.513zM20 22a1 1 0 110 2 1 1 0 010-2z"/><path d="M2.5 12a9.5 9.5 0 1119 0 .75.75 0 001.5 0c0-6.075-4.925-11-11-11S1 5.925 1 12s4.925 11 11 11a.75.75 0 000-1.5A9.5 9.5 0 012.5 12z"/><path d="M11.704 6.72a.75.75 0 00-.22.53v5.065l-3.121 1.784a.75.75 0 00.744 1.302l3.5-2a.747.747 0 00.378-.651v-5.5a.75.75 0 00-1.28-.53z"/></svg>