<svg xmlns="http://www.w3.org/2000/svg" width="24" height="24"><path fill-rule="evenodd" d="M19 14a5 5 0 100 10 5 5 0 000-10zm-1.887 2.052a3.5 3.5 0 014.835 4.835l-4.835-4.835zm-1.061 1.06a3.5 3.5 0 004.835 4.835l-4.835-4.834z"/><path d="M2.5 12a9.5 9.5 0 1119 0 .75.75 0 001.5 0c0-6.075-4.925-11-11-11S1 5.925 1 12s4.925 11 11 11a.75.75 0 000-1.5A9.5 9.5 0 012.5 12z"/><path d="M11.704 6.72a.75.75 0 00-.22.53v5.065l-3.121 1.784a.75.75 0 00.744 1.302l3.5-2a.747.747 0 00.378-.651v-5.5a.75.75 0 00-1.28-.53z"/></svg>