<svg xmlns="http://www.w3.org/2000/svg" width="24" height="24"><path d="M6.887 3.992A9.502 9.502 0 003.38 8h2.37a.75.75 0 010 1.5H2a1 1 0 01-1-1V4.75a.75.75 0 011.5 0v1.702A10.995 10.995 0 0112 1c5.15 0 9.473 3.539 10.671 8.318a.75.75 0 11-1.456.364 9.502 9.502 0 00-14.328-5.69zm-4.446 9.873c.17.1.293.263.344.453C3.819 18.445 7.554 21.5 12 21.5a9.502 9.502 0 008.62-5.5h-2.37a.75.75 0 110-1.5H22a1 1 0 011 1v3.75a.75.75 0 11-1.5 0v-1.701A10.995 10.995 0 0112 23c-5.15 0-9.473-3.539-10.67-8.318a.75.75 0 011.111-.817z"/><path d="M12.28 6.72c.141.14.22.331.22.53v5.065l3.122 1.784a.75.75 0 01-.744 1.302l-3.5-2A.747.747 0 0111 12.75v-5.5a.75.75 0 011.28-.53z"/></svg>