<svg xmlns="http://www.w3.org/2000/svg" width="24" height="24"><path d="M6.885 3.992A9.503 9.503 0 0111.998 2.5c5.248 0 9.502 4.253 9.502 9.5s-4.254 9.5-9.502 9.5A9.5 9.5 0 012.5 12.238a.75.75 0 00-1.5.037C1.146 18.223 6.014 23 11.998 23 18.074 23 23 18.075 23 12S18.074 1 11.998 1A10.997 10.997 0 002.5 6.447V4.75a.75.75 0 10-1.5 0V8.5a1 1 0 001 1h3.75a.75.75 0 100-1.5H3.378a9.503 9.503 0 013.507-4.008z"/><path d="M12.28 6.72c.141.14.22.331.22.53v5.065l3.122 1.784a.75.75 0 01-.744 1.302l-3.5-2A.747.747 0 0111 12.75v-5.5a.75.75 0 011.28-.53z"/></svg>