<svg xmlns="http://www.w3.org/2000/svg" width="24" height="24"><path d="M11.36 9.251c.381.24.899.24 1.28 0l2.043-1.29a1.75 1.75 0 00.817-1.479V5h-7v1.486a1.751 1.751 0 00.816 1.475l2.044 1.29zm1.28 5.497a1.228 1.228 0 00-1.28 0l-2.044 1.29a1.75 1.75 0 00-.816 1.476V19h7v-1.482a1.756 1.756 0 00-.817-1.48l-2.044-1.29z"/><path fill-rule="evenodd" d="M4.22 2.22A.75.75 0 014.75 2h14.5a.75.75 0 110 1.5h-.75v2.982a4.75 4.75 0 01-2.215 4.017l-2.044 1.29a.25.25 0 000 .422l2.044 1.29a4.751 4.751 0 012.215 4.017V20.5h.75a.75.75 0 110 1.5H4.75a.75.75 0 110-1.5h.75v-2.982a4.75 4.75 0 012.215-4.017l2.044-1.29a.25.25 0 000-.422l-2.044-1.29A4.75 4.75 0 015.5 6.482V3.5h-.75a.75.75 0 01-.53-1.28zm3.184 5.83A3.25 3.25 0 017 6.482V3.5h10v2.982a3.25 3.25 0 01-1.516 2.748l-2.044 1.29a1.75 1.75 0 000 2.96l2.044 1.29A3.25 3.25 0 0117 17.518V20.5H7v-2.982a3.25 3.25 0 011.516-2.748l2.044-1.29a1.75 1.75 0 000-2.96L8.516 9.23a3.25 3.25 0 01-1.112-1.179z"/></svg>