<svg xmlns="http://www.w3.org/2000/svg" width="24" height="24"><path d="M23.795 17.265a.75.75 0 00-1.09-1.03L18.46 20.2l-2.206-2.005a.75.75 0 10-1.009 1.11l2.75 2.5a.75.75 0 001.05-.04l4.75-4.5zM8.75 1a.75.75 0 000 1.5h6.5a.75.75 0 000-1.5h-6.5zm4 6.75v5.5a.75.75 0 01-1.5 0v-5.5a.75.75 0 011.5 0z"/><path d="M12 5.5a7.5 7.5 0 00-.71 14.967c.39.037.71.351.71.744 0 .436-.355.793-.789.755a9 9 0 115.78-16.457l1.211-1.211a1 1 0 011.414 0l1.147 1.146a1 1 0 010 1.415l-1.224 1.223c.36.55.66 1.142.894 1.766.152.408-.097.845-.517.961-.378.106-.767-.118-.908-.486A7.503 7.503 0 0012 5.5z"/></svg>