<svg xmlns="http://www.w3.org/2000/svg" width="24" height="24"><path fill-rule="evenodd" d="M16.95 16.463c-.736 0-1.518.688-1.518 1.661 0 1.172.861 2.27 1.845 3.126.536.463 1.112.873 1.722 1.228a11.469 11.469 0 001.723-1.229c.983-.855 1.846-1.955 1.846-3.127 0-.973-.781-1.66-1.517-1.66-.519 0-.95.232-1.266.63-.4.504-1.17.504-1.57 0-.315-.398-.746-.629-1.265-.629zM14 18.124c0-1.78 1.423-3.122 2.95-3.123.81 0 1.512.31 2.05.814A2.957 2.957 0 0121.052 15c1.527 0 2.95 1.341 2.949 3.122 0 1.865-1.32 3.344-2.352 4.241l-.002.002a12.87 12.87 0 01-1.981 1.407h-.001a8.857 8.857 0 01-.239.131.99.99 0 01-.887-.017l-.004-.002a12.845 12.845 0 01-2.182-1.518l-.003-.001c-1.031-.898-2.35-2.376-2.349-4.24z"/><path d="M8.75 1a.75.75 0 000 1.5h6.5a.75.75 0 000-1.5h-6.5zm4 6.75v5.5a.75.75 0 01-1.5 0v-5.5a.75.75 0 011.5 0z"/><path d="M12 5.5a7.5 7.5 0 00-.71 14.967c.39.037.71.351.71.744 0 .436-.355.793-.789.755a9 9 0 115.78-16.457l1.211-1.211a1 1 0 011.414 0l1.147 1.146a1 1 0 010 1.415l-1.224 1.223c.36.55.66 1.142.894 1.766.152.408-.097.845-.517.961-.378.106-.767-.118-.908-.486A7.503 7.503 0 0012 5.5z"/></svg>