<svg xmlns="http://www.w3.org/2000/svg" width="24" height="24"><path d="M20.194 15.529a1.557 1.557 0 00-1.035.185 1.51 1.51 0 00-.669.797.77.77 0 01-.977.46.748.748 0 01-.47-.96 3.02 3.02 0 011.339-1.593 3.116 3.116 0 012.071-.37 3.08 3.08 0 011.827 1.026 2.97 2.97 0 01.72 1.939c0 1.15-.87 1.909-1.49 2.315-.2.13-.396.24-.574.329a.644.644 0 00-.163.097.24.24 0 00-.058.093c-.013.04-.013.085-.013.178v.223a.76.76 0 01-.767.752.76.76 0 01-.767-.752v-.982c0-.323.21-.61.523-.713 0 0 .198-.074.292-.115.189-.082.435-.204.676-.361.528-.345.808-.713.808-1.065a1.49 1.49 0 00-.36-.97 1.538 1.538 0 00-.913-.513zM20 22a1 1 0 110 2 1 1 0 010-2zM8.75 1a.75.75 0 000 1.5h6.5a.75.75 0 000-1.5h-6.5zm4 6.75v5.5a.75.75 0 01-1.5 0v-5.5a.75.75 0 011.5 0z"/><path d="M12 5.5a7.5 7.5 0 00-.71 14.967c.39.037.71.351.71.744 0 .436-.355.793-.789.755a9 9 0 115.78-16.457l1.211-1.211a1 1 0 011.414 0l1.147 1.146a1 1 0 010 1.415l-1.224 1.223c.36.55.66 1.142.894 1.766.152.408-.097.845-.517.961-.378.106-.767-.118-.908-.486A7.503 7.503 0 0012 5.5z"/></svg>