<svg xmlns="http://www.w3.org/2000/svg" width="24" height="24"><path d="M16.22 16.22a.75.75 0 011.06 0L20 18.94l2.72-2.72a.75.75 0 111.06 1.06L21.06 20l2.72 2.72a.75.75 0 11-1.06 1.06L20 21.06l-2.72 2.72a.75.75 0 11-1.06-1.06L18.94 20l-2.72-2.72a.75.75 0 010-1.06z"/><path fill-rule="evenodd" d="M16.03 8.97a.75.75 0 010 1.06l-2.381 2.382a1.75 1.75 0 11-1.06-1.06l2.38-2.382a.751.751 0 011.061 0z"/><path d="M10.25 0a.75.75 0 000 1.5h1v1.528a9.955 9.955 0 00-5.635 2.276L4.28 3.97a.75.75 0 00-1.06 1.06l1.315 1.316A9.962 9.962 0 002 13c0 5.257 4.057 9.567 9.21 9.97.435.033.79-.323.79-.76 0-.392-.319-.707-.71-.74a8.5 8.5 0 119.18-9.18c.033.391.348.71.741.71.436 0 .793-.354.759-.788a9.963 9.963 0 00-2.505-5.866L20.78 5.03a.75.75 0 00-1.06-1.06l-1.334 1.334a9.955 9.955 0 00-5.636-2.276V1.5h1a.75.75 0 100-1.5h-3.5z"/></svg>