<svg xmlns="http://www.w3.org/2000/svg" width="24" height="24"><path fill-rule="evenodd" d="M16.95 16.463c-.736 0-1.518.688-1.518 1.661 0 1.172.861 2.27 1.845 3.126.536.463 1.112.873 1.722 1.228a11.469 11.469 0 001.723-1.229c.983-.855 1.846-1.955 1.846-3.127 0-.973-.781-1.66-1.517-1.66-.519 0-.95.232-1.266.63-.4.504-1.17.504-1.57 0-.315-.398-.746-.629-1.265-.629zM14 18.124c0-1.78 1.423-3.122 2.95-3.123.81 0 1.512.31 2.05.814A2.957 2.957 0 0121.052 15c1.527 0 2.95 1.341 2.949 3.122 0 1.865-1.32 3.344-2.352 4.241l-.002.002a12.87 12.87 0 01-1.981 1.407h-.001a8.857 8.857 0 01-.239.131.99.99 0 01-.887-.017l-.004-.002a12.845 12.845 0 01-2.182-1.518l-.003-.001c-1.031-.898-2.35-2.376-2.349-4.24zm2.03-9.154a.75.75 0 010 1.06l-2.381 2.382a1.75 1.75 0 11-1.06-1.06l2.38-2.382a.751.751 0 011.061 0z"/><path d="M10.25 0a.75.75 0 000 1.5h1v1.528a9.955 9.955 0 00-5.635 2.276L4.28 3.97a.75.75 0 00-1.06 1.06l1.315 1.316A9.962 9.962 0 002 13c0 5.257 4.057 9.567 9.21 9.97.435.033.79-.323.79-.76 0-.392-.319-.707-.71-.74a8.5 8.5 0 119.18-9.18c.033.391.348.71.741.71.436 0 .793-.354.759-.788a9.963 9.963 0 00-2.505-5.866L20.78 5.03a.75.75 0 00-1.06-1.06l-1.334 1.334a9.955 9.955 0 00-5.636-2.276V1.5h1a.75.75 0 100-1.5h-3.5z"/></svg>