<svg xmlns="http://www.w3.org/2000/svg" width="24" height="24"><path d="M20.53 15.22a.75.75 0 00-1.28.53v4a.75.75 0 101.5 0v-4a.75.75 0 00-.22-.53zm.177 8.487a1 1 0 11-1.414-1.414 1 1 0 011.414 1.414zM8.75 1a.75.75 0 000 1.5h6.5a.75.75 0 000-1.5h-6.5zm4 6.75v5.5a.75.75 0 01-1.5 0v-5.5a.75.75 0 011.5 0z"/><path d="M12 5.5a7.5 7.5 0 00-.71 14.967c.39.037.71.351.71.744 0 .436-.355.793-.789.755a9 9 0 115.78-16.457l1.211-1.211a1 1 0 011.414 0l1.147 1.146a1 1 0 010 1.415l-1.224 1.223a8.947 8.947 0 011.427 4.13c.038.434-.32.788-.756.788-.392 0-.707-.32-.743-.71A7.5 7.5 0 0012 5.5z"/></svg>