<svg xmlns="http://www.w3.org/2000/svg" width="24" height="24"><path d="M20.194 15.529a1.557 1.557 0 00-1.035.185 1.51 1.51 0 00-.669.797.77.77 0 01-.977.46.748.748 0 01-.47-.96 3.02 3.02 0 011.339-1.593 3.116 3.116 0 012.071-.37 3.08 3.08 0 011.827 1.026 2.97 2.97 0 01.72 1.939c0 1.15-.87 1.909-1.49 2.315-.2.13-.396.24-.574.329a.644.644 0 00-.163.097.24.24 0 00-.058.093c-.013.04-.013.085-.013.178v.223a.76.76 0 01-.767.752.76.76 0 01-.767-.752v-.982c0-.323.21-.61.523-.713 0 0 .198-.074.292-.115.189-.082.435-.204.676-.361.528-.345.808-.713.808-1.065a1.49 1.49 0 00-.36-.97 1.538 1.538 0 00-.913-.513zM20 22a1 1 0 110 2 1 1 0 010-2z"/><path fill-rule="evenodd" d="M16.03 8.97a.75.75 0 010 1.06l-2.381 2.382a1.75 1.75 0 11-1.06-1.06l2.38-2.382a.751.751 0 011.061 0z"/><path d="M10.25 0a.75.75 0 000 1.5h1v1.528a9.955 9.955 0 00-5.635 2.276L4.28 3.97a.75.75 0 00-1.06 1.06l1.315 1.316A9.962 9.962 0 002 13c0 5.257 4.057 9.567 9.21 9.97.435.033.79-.323.79-.76 0-.392-.319-.707-.71-.74a8.5 8.5 0 118.397-12.098c.168.356.577.545.946.406.408-.154.617-.61.433-1.005a9.958 9.958 0 00-1.601-2.427L20.78 5.03a.75.75 0 00-1.06-1.06l-1.334 1.334a9.955 9.955 0 00-5.636-2.276V1.5h1a.75.75 0 100-1.5h-3.5z"/></svg>