<svg xmlns="http://www.w3.org/2000/svg" width="24" height="24"><path d="M16.22 16.22a.75.75 0 011.06 0L20 18.94l2.72-2.72a.75.75 0 111.06 1.06L21.06 20l2.72 2.72a.75.75 0 11-1.06 1.06L20 21.06l-2.72 2.72a.75.75 0 11-1.06-1.06L18.94 20l-2.72-2.72a.75.75 0 010-1.06zm-2.523-2.398a1.5 1.5 0 000-2.121c-.586-.586-6.308-5.359-6.894-4.773-.586.586 4.187 6.308 4.773 6.894a1.5 1.5 0 002.121 0zM11.25 1.75A.75.75 0 0112 1c5.81 0 10.567 4.504 10.972 10.21.03.435-.326.79-.762.79-.392 0-.707-.32-.736-.71a9.502 9.502 0 00-8.724-8.76v2.72a.75.75 0 01-1.5 0v-3.5z"/><path d="M2.5 12c0 5.008 3.875 9.11 8.79 9.474.39.029.71.344.71.736 0 .436-.355.793-.79.762C5.504 22.567 1 17.81 1 12c0-3.037 1.232-5.788 3.222-7.778a.75.75 0 111.06 1.06A9.468 9.468 0 002.5 12z"/></svg>