<svg xmlns="http://www.w3.org/2000/svg" width="24" height="24"><path fill-rule="evenodd" d="M19 14a5 5 0 100 10 5 5 0 000-10zm-1.887 2.052a3.5 3.5 0 014.835 4.835l-4.835-4.835zm-1.061 1.06a3.5 3.5 0 004.835 4.835l-4.835-4.834z"/><path d="M13.697 13.822a1.5 1.5 0 000-2.121c-.586-.586-6.308-5.359-6.894-4.773-.586.586 4.187 6.308 4.773 6.894a1.5 1.5 0 002.121 0zM11.25 1.75A.75.75 0 0112 1c5.81 0 10.567 4.504 10.972 10.21.03.435-.326.79-.762.79-.392 0-.707-.32-.736-.71a9.502 9.502 0 00-8.724-8.76v2.72a.75.75 0 01-1.5 0v-3.5z"/><path d="M2.5 12c0 5.008 3.875 9.11 8.79 9.474.39.029.71.344.71.736 0 .436-.355.793-.79.762C5.504 22.567 1 17.81 1 12c0-3.037 1.232-5.788 3.222-7.778a.75.75 0 111.06 1.06A9.468 9.468 0 002.5 12z"/></svg>