<svg xmlns="http://www.w3.org/2000/svg" width="24" height="24"><path fill-rule="evenodd" d="M16.95 16.463c-.736 0-1.518.688-1.518 1.661 0 1.172.861 2.27 1.845 3.126.536.463 1.112.873 1.722 1.228a11.469 11.469 0 001.723-1.229c.983-.855 1.846-1.955 1.846-3.127 0-.973-.781-1.66-1.517-1.66-.519 0-.95.232-1.266.63-.4.504-1.17.504-1.57 0-.315-.398-.746-.629-1.265-.629zM14 18.124c0-1.78 1.423-3.122 2.95-3.123.81 0 1.512.31 2.05.814A2.957 2.957 0 0121.052 15c1.527 0 2.95 1.341 2.949 3.122 0 1.865-1.32 3.344-2.352 4.241l-.002.002a12.87 12.87 0 01-1.981 1.407h-.001a8.857 8.857 0 01-.239.131.99.99 0 01-.887-.017l-.004-.002a12.845 12.845 0 01-2.182-1.518l-.003-.001c-1.031-.898-2.35-2.376-2.349-4.24z"/><path d="M13.697 13.822a1.5 1.5 0 000-2.121c-.586-.586-6.308-5.359-6.894-4.773-.586.586 4.187 6.308 4.773 6.894a1.5 1.5 0 002.121 0zM11.25 1.75A.75.75 0 0112 1c5.81 0 10.567 4.504 10.972 10.21.03.435-.326.79-.762.79-.392 0-.707-.32-.736-.71a9.502 9.502 0 00-8.724-8.76v2.72a.75.75 0 01-1.5 0v-3.5z"/><path d="M2.5 12c0 5.008 3.875 9.11 8.79 9.474.39.029.71.344.71.736 0 .436-.355.793-.79.762C5.504 22.567 1 17.81 1 12c0-3.037 1.232-5.788 3.222-7.778a.75.75 0 111.06 1.06A9.468 9.468 0 002.5 12z"/></svg>