<svg xmlns="http://www.w3.org/2000/svg" width="24" height="24"><path d="M12 7a.75.75 0 01.75.75v3.94l1.78 1.78a.75.75 0 11-1.06 1.06l-2-2a.75.75 0 01-.22-.53V7.75A.75.75 0 0112 7z"/><path fill-rule="evenodd" d="M6.954 2.235L6.294 5.7A8.478 8.478 0 003.5 12a8.478 8.478 0 002.794 6.3l.66 3.465A2.75 2.75 0 009.655 24h4.69a2.75 2.75 0 002.701-2.235l.66-3.465A8.478 8.478 0 0020.5 12a8.478 8.478 0 00-2.794-6.3l-.66-3.465A2.75 2.75 0 0014.345 0h-4.69a2.75 2.75 0 00-2.701 2.235zM9.655 1.5c-.6 0-1.116.427-1.228 1.016L8.055 4.47A8.463 8.463 0 0112 3.5c1.424 0 2.766.35 3.945.969l-.372-1.953A1.25 1.25 0 0014.345 1.5h-4.69zm6.29 18.031A8.463 8.463 0 0112 20.5a8.463 8.463 0 01-3.945-.969l.372 1.953A1.25 1.25 0 009.655 22.5h4.69c.6 0 1.116-.427 1.228-1.016l.372-1.953zM12 5a7 7 0 100 14 7 7 0 000-14z"/></svg>