<svg xmlns="http://www.w3.org/2000/svg" width="24" height="24"><path fill-rule="evenodd" d="M11.974 1a3.25 3.25 0 00-3.25 3.25v1.753a1.75 1.75 0 00-1.62 1.403l-.004.018-.355 2.025A2.248 2.248 0 014.54 11.25H2.75a.75.75 0 000 1.5H4v7.5A2.75 2.75 0 006.75 23H17a2.75 2.75 0 002.75-2.75v-7.5h1.5a.75.75 0 000-1.5h-1.791a2.25 2.25 0 01-2.205-1.801l-.355-2.025-.003-.016A1.748 1.748 0 0015.224 6V4.25A3.25 3.25 0 0011.974 1zm1.75 5V4.25a1.75 1.75 0 10-3.5 0V6h3.5zm4.526 6.55a3.752 3.752 0 01-2.468-2.815l-.004-.017-.355-2.023a.248.248 0 00-.243-.195H8.82a.25.25 0 00-.244.196L8.22 9.718l-.004.017a3.75 3.75 0 01-2.717 2.89v7.625c0 .69.56 1.25 1.25 1.25H17c.69 0 1.25-.56 1.25-1.25v-7.7z"/><path fill-rule="evenodd" d="M8.002 13.69A.75.75 0 018.75 13h6.5a.758.758 0 01.752.76c.002.04.005.096.006.166.004.14.004.334-.009.567a6.99 6.99 0 01-.305 1.736c-.206.642-.558 1.339-1.164 1.878-.62.553-1.457.893-2.53.893-1.073 0-1.91-.34-2.53-.893-.606-.54-.958-1.236-1.164-1.878a6.99 6.99 0 01-.305-1.736 7.484 7.484 0 01-.003-.733l.004-.067v-.003zm1.733 2.08a5.42 5.42 0 01-.231-1.27h4.992a5.42 5.42 0 01-.23 1.27c-.156.484-.391.912-.733 1.217-.327.29-.8.513-1.533.513-.733 0-1.206-.222-1.533-.513-.342-.305-.577-.733-.732-1.216z"/></svg>