<svg xmlns="http://www.w3.org/2000/svg" width="24" height="24"><path fill-rule="evenodd" d="M7.457 4.065A4.873 4.873 0 0112.002 1a4.872 4.872 0 014.544 3.065c1.885-.531 4.037.06 5.324 1.835 1.075 1.483 1.166 3.519.268 5.101a4.694 4.694 0 01-2.716 2.196l-.007 6.832.004 1.214a1.75 1.75 0 01-1.752 1.756L6.324 23a1.75 1.75 0 01-1.75-1.75l.007-8.049a4.732 4.732 0 01-2.707-2.181c-.91-1.58-.82-3.62.249-5.105 1.286-1.786 3.445-2.383 5.335-1.85zm1.228 1.127C8.977 3.67 10.34 2.5 12.002 2.5c1.118 0 2.103.53 2.715 1.343.296.393.505.852.6 1.349a.75.75 0 001.064.534 3.473 3.473 0 011.438-.349 3.374 3.374 0 012.837 1.403c.722.997.791 2.4.178 3.481-.533.94-1.374 1.44-2.3 1.615a.75.75 0 00-.611.737l-.004 3.887H6.077l.004-3.88a.75.75 0 00-.61-.738c-.922-.176-1.763-.68-2.298-1.61a3.114 3.114 0 01-.252-.558c-.328-.972-.182-2.088.418-2.922a3.38 3.38 0 013.055-1.403c.421.035.838.148 1.227.337a.75.75 0 001.064-.534zM6.075 18l-.002 2.026v1.224c0 .138.112.25.25.25l11.346-.001a.25.25 0 00.25-.25l-.004-1.219v-.003L17.917 18H6.075z"/></svg>