<svg xmlns="http://www.w3.org/2000/svg" width="24" height="24"><path fill-rule="evenodd" d="M2.75 1A1.75 1.75 0 001 2.75v3.5C1 7.216 1.784 8 2.75 8H4v10H2.75A1.75 1.75 0 001 19.75v1.5c0 .966.784 1.75 1.75 1.75h18.5A1.75 1.75 0 0023 21.25v-1.5A1.75 1.75 0 0021.25 18H20V8h1.25A1.75 1.75 0 0023 6.25v-3.5A1.75 1.75 0 0021.25 1H2.75zM18.5 8H17v1.25a.75.75 0 01-1.5 0V8h-2.75v1.25a.75.75 0 01-1.5 0V8H8.5v1.25a.75.75 0 01-1.5 0V8H5.5v10h3.377A3.983 3.983 0 018 15.5V13a1 1 0 011-1h8a.75.75 0 010 1.5h-1v2c0 .946-.328 1.815-.877 2.5H18.5V8zM12 18a2.5 2.5 0 002.5-2.5v-2h-5v2A2.5 2.5 0 0012 18zm-9.25 1.5a.25.25 0 00-.25.25v1.5c0 .138.112.25.25.25h18.5a.25.25 0 00.25-.25v-1.5a.25.25 0 00-.25-.25H2.75zM2.5 2.75a.25.25 0 01.25-.25h18.5a.25.25 0 01.25.25v3.5a.25.25 0 01-.25.25H2.75a.25.25 0 01-.25-.25v-3.5z"/></svg>