<svg xmlns="http://www.w3.org/2000/svg" width="24" height="24"><path fill-rule="evenodd" d="M1 2.75C1 1.784 1.784 1 2.75 1h18.5c.966 0 1.75.784 1.75 1.75v18.5A1.75 1.75 0 0121.25 23H2.75A1.75 1.75 0 011 21.25V2.75zm1.75-.25a.25.25 0 00-.25.25v18.5c0 .138.112.25.25.25h18.5a.25.25 0 00.25-.25V2.75a.25.25 0 00-.25-.25H2.75z"/><path fill-rule="evenodd" d="M7 8.5a1.5 1.5 0 100-3 1.5 1.5 0 000 3zM7 10a3 3 0 100-6 3 3 0 000 6zm1 8.5a2.5 2.5 0 100-5 2.5 2.5 0 000 5zM8 20a4 4 0 100-8 4 4 0 000 8zm8-9.5a2.5 2.5 0 100-5 2.5 2.5 0 000 5zm0 1.5a4 4 0 100-8 4 4 0 000 8zm1 6.5a1.5 1.5 0 100-3 1.5 1.5 0 000 3zm0 1.5a3 3 0 100-6 3 3 0 000 6z"/></svg>