<svg xmlns="http://www.w3.org/2000/svg" width="24" height="24"><path d="M4.25 2a.75.75 0 01.75.75v7.5c0 .138.112.25.25.25h1.5V2.75a.75.75 0 011.5 0v7.75h1.5a.25.25 0 00.25-.25v-7.5a.75.75 0 011.5 0v7.5A1.75 1.75 0 019.75 12h-1.5v9.25a.75.75 0 01-1.5 0V12h-1.5a1.75 1.75 0 01-1.75-1.75v-7.5A.75.75 0 014.25 2z"/><path fill-rule="evenodd" d="M18.25 11.935c1.976-.344 3.5-2.027 3.5-4.085 0-1.54-.427-2.968-1.157-4.03C19.866 2.76 18.785 2 17.5 2s-2.366.76-3.093 1.82c-.73 1.062-1.157 2.49-1.157 4.03 0 2.058 1.524 3.74 3.5 4.085v9.315a.75.75 0 001.5 0v-9.315zm-3.5-4.085c0-1.277.356-2.4.893-3.182.54-.786 1.21-1.168 1.857-1.168.648 0 1.317.382 1.857 1.168.537.783.893 1.905.893 3.182 0 1.443-1.21 2.65-2.75 2.65s-2.75-1.207-2.75-2.65z"/></svg>