<svg xmlns="http://www.w3.org/2000/svg" width="24" height="24"><path fill-rule="evenodd" d="M10.5 12.75V13h1.25a2.75 2.75 0 012.75 2.75v1.98l8.583-1.961a.75.75 0 11.334 1.462L14.5 19.25A2.75 2.75 0 0111.75 22h-9A2.75 2.75 0 010 19.25v-3.5A2.75 2.75 0 012.75 13H4v-.25A2.75 2.75 0 016.75 10h1a2.75 2.75 0 012.75 2.75zm-5 0c0-.69.56-1.25 1.25-1.25h1c.69 0 1.25.56 1.25 1.25V13H5.5v-.25zm-4 3c0-.69.56-1.25 1.25-1.25h9c.69 0 1.25.56 1.25 1.25V16H1.5v-.25zm0 1.75H13v1.75c0 .69-.56 1.25-1.25 1.25h-9c-.69 0-1.25-.56-1.25-1.25V17.5z"/></svg>