<svg xmlns="http://www.w3.org/2000/svg" width="24" height="24"><path d="M8 9a1 1 0 110 2 1 1 0 010-2zm1 5a1 1 0 10-2 0 1 1 0 002 0zm-1 3a1 1 0 110 2 1 1 0 010-2zm5-3a1 1 0 10-2 0 1 1 0 002 0zm-1 3a1 1 0 110 2 1 1 0 010-2zm1-7a1 1 0 10-2 0 1 1 0 002 0zm3 3a1 1 0 110 2 1 1 0 010-2zm1 5a1 1 0 10-2 0 1 1 0 002 0zm-1-9a1 1 0 110 2 1 1 0 010-2z"/><path fill-rule="evenodd" d="M15.75 3.75V5h1.174a2.75 2.75 0 012.738 2.501l1.137 12.5A2.75 2.75 0 0118.059 23H5.94a2.75 2.75 0 01-2.739-2.999l1.137-12.5A2.75 2.75 0 017.076 5H8.25V3.75A2.75 2.75 0 0111 1h2a2.75 2.75 0 012.75 2.75zm-6 0c0-.69.56-1.25 1.25-1.25h2c.69 0 1.25.56 1.25 1.25V5h-4.5V3.75zM5.832 7.637A1.25 1.25 0 017.076 6.5h9.848a1.25 1.25 0 011.244 1.137l1.137 12.5A1.25 1.25 0 0118.06 21.5H5.94a1.25 1.25 0 01-1.245-1.363l1.137-12.5z"/></svg>