<svg xmlns="http://www.w3.org/2000/svg" width="24" height="24"><path fill-rule="evenodd" d="M17.718 2.22L16.27 4.247l-.12-.12a1.758 1.758 0 00-2.5.014L4.21 13.8a1.758 1.758 0 00.013 2.471l.009.009-2.013 1.437a2.912 2.912 0 104.062 4.063l1.438-2.013.41.41a1.758 1.758 0 002.501-.014l9.44-9.658a1.758 1.758 0 00-.014-2.472l-.303-.303 2.028-1.45a2.912 2.912 0 10-4.063-4.062zm3.364.699a1.405 1.405 0 00-2.137.176l-1.522 2.13a.753.753 0 01-.08.096l1.337 1.337a.76.76 0 01.095-.08l2.13-1.522c.706-.505.79-1.523.177-2.137zM6.644 18.693l-1.337-1.337a.751.751 0 01-.082.067l-2.13 1.521a1.406 1.406 0 101.96 1.96l1.522-2.13a.766.766 0 01.067-.08zm8.44-13.5a.251.251 0 00-.357.002l-9.44 9.659a.251.251 0 00.002.353l3.906 3.906c.1.1.26.098.357-.002l9.44-9.658a.251.251 0 00-.001-.353l-3.907-3.907z"/></svg>