<svg xmlns="http://www.w3.org/2000/svg" width="24" height="24"><path fill-rule="evenodd" d="M4.75 0a.75.75 0 000 1.5A2.25 2.25 0 017 3.75v14A6.25 6.25 0 0013.25 24a6.25 6.25 0 006.25-6.25v-.5c0-.577-.324-1.03-.693-1.347-.372-.32-.866-.574-1.412-.772-1.097-.399-2.562-.631-4.145-.631-1.583 0-3.048.232-4.145.63-.21.077-.414.162-.605.256V3.75A3.75 3.75 0 004.75 0zm3.982 19.221a4.751 4.751 0 009.036 0c-.12.052-.245.102-.373.148-1.097.399-2.562.631-4.145.631-1.583 0-3.048-.232-4.145-.63a6.57 6.57 0 01-.373-.149zm-.06-2.18c-.14.12-.167.19-.172.209.005.018.031.09.171.21.185.159.496.336.946.5.894.324 2.178.54 3.633.54s2.74-.216 3.633-.54c.45-.164.761-.341.946-.5.14-.12.166-.192.17-.21-.004-.018-.03-.09-.17-.21-.185-.159-.496-.336-.946-.5-.894-.324-2.178-.54-3.633-.54s-2.74.216-3.633.54c-.45.164-.761.341-.946.5z"/></svg>