<svg xmlns="http://www.w3.org/2000/svg" width="24" height="24"><path fill-rule="evenodd" d="M13.003 5a1.581 1.581 0 00-2.21-.105L8 7.384v11.122h8.5c2.21 0 4-1.784 4-3.985v-.996c0-2.2-1.79-3.985-4-3.985h-3.748c-.748 0-1.14-.884-.638-1.435l.897-.983A1.567 1.567 0 0013.003 5zM6.5 18.506V7.796H2.75a.25.25 0 00-.25.25v10.21a.25.25 0 00.25.25H6.5zm.463-12.204l2.83-2.521a3.085 3.085 0 014.312.205 3.057 3.057 0 01.088 4.06H16.5c3.038 0 5.5 2.453 5.5 5.479v.996C22 17.547 19.538 20 16.5 20H2.75C1.784 20 1 19.22 1 18.257V8.046c0-.963.784-1.744 1.75-1.744h4.213z"/></svg>