<svg xmlns="http://www.w3.org/2000/svg" width="24" height="24"><path fill-rule="evenodd" d="M7.843 3.934a1.581 1.581 0 00-1.638 1.489l-.214 3.734 7.864 7.865 6.01-6.01a3.992 3.992 0 00.012-5.647l-.705-.704a3.992 3.992 0 00-5.646.01l-2.65 2.651c-.53.53-1.432.182-1.466-.564L9.35 5.43a1.567 1.567 0 00-1.507-1.495zm4.952 14.149L5.222 10.51l-2.651 2.652a.25.25 0 00-.001.353l7.22 7.22a.25.25 0 00.353 0l2.652-2.652zM4.493 9.126l.218-3.783a3.085 3.085 0 013.194-2.905 3.057 3.057 0 012.933 2.809l1.631-1.632c2.148-2.148 5.624-2.154 7.764-.015l.704.705c2.14 2.14 2.133 5.615-.015 7.763L11.2 21.791a1.747 1.747 0 01-2.47.005l-7.22-7.22a1.747 1.747 0 01.004-2.47l2.98-2.98z"/></svg>