<svg xmlns="http://www.w3.org/2000/svg" width="24" height="24"><path fill-rule="evenodd" d="M11 7.5c-.69 0-1.25.56-1.25 1.25V9h4.5v-.25c0-.69-.56-1.25-1.25-1.25h-2zM15.75 9v-.25A2.75 2.75 0 0013 6h-2a2.75 2.75 0 00-2.75 2.75V9h-2.5A2.75 2.75 0 003 11.75v1.96l-2.013-.671a.75.75 0 00-.474 1.422l2.487.83v3.959A2.75 2.75 0 005.75 22h12.5A2.75 2.75 0 0021 19.25v-3.96l2.487-.829a.75.75 0 00-.474-1.422l-2.013.67V11.75A2.75 2.75 0 0018.25 9h-2.5zm-10 1.5c-.69 0-1.25.56-1.25 1.25V12h15v-.25c0-.69-.56-1.25-1.25-1.25H5.75zm13.75 3h-15v5.75c0 .69.56 1.25 1.25 1.25h12.5c.69 0 1.25-.56 1.25-1.25V13.5z"/></svg>