<svg xmlns="http://www.w3.org/2000/svg" width="24" height="24"><path fill-rule="evenodd" d="M11 3.5c-.69 0-1.25.56-1.25 1.25V5h4.5v-.25c0-.69-.56-1.25-1.25-1.25h-2zM15.75 5v-.25A2.75 2.75 0 0013 2h-2a2.75 2.75 0 00-2.75 2.75V5h-2.5A2.75 2.75 0 003 7.75v1.96L.987 9.037a.75.75 0 10-.474 1.423L3 11.29v7.959A2.75 2.75 0 005.75 22h12.5A2.75 2.75 0 0021 19.25v-7.96l2.487-.829a.75.75 0 00-.474-1.423L21 9.71V7.75A2.75 2.75 0 0018.25 5h-2.5zm-10 1.5c-.69 0-1.25.56-1.25 1.25V8h15v-.25c0-.69-.56-1.25-1.25-1.25H5.75zm13.75 3h-15v9.75c0 .69.56 1.25 1.25 1.25h12.5c.69 0 1.25-.56 1.25-1.25V9.5z"/></svg>