<svg xmlns="http://www.w3.org/2000/svg" width="24" height="24"><path fill-rule="evenodd" d="M6.75 2A2.75 2.75 0 004 4.75v2.891l-2.828 9.544C.46 19.588 2.262 22 4.768 22h8.464c2.507 0 4.308-2.412 3.596-4.815L14 7.64V4.75A2.75 2.75 0 0011.25 2h-4.5zM2.61 17.61l2.7-9.11h7.38l2.7 9.11a2.25 2.25 0 01-2.158 2.89H4.768a2.25 2.25 0 01-2.157-2.89zM12.5 4.75V7h-7V4.75c0-.69.56-1.25 1.25-1.25h4.5c.69 0 1.25.56 1.25 1.25z"/><path d="M15.75 2a.75.75 0 000 1.5h1.5c.69 0 1.25.56 1.25 1.25V7h-1.75a.75.75 0 000 1.5h1.94l2.7 9.11a2.25 2.25 0 01-2.158 2.89h-.982a.75.75 0 000 1.5h.982c2.507 0 4.308-2.412 3.596-4.815L20 7.64V4.75A2.75 2.75 0 0017.25 2h-1.5z"/></svg>