<svg xmlns="http://www.w3.org/2000/svg" width="24" height="24"><path fill-rule="evenodd" d="M10.5 6.75V7h1.25a2.75 2.75 0 012.75 2.75v2.23l8.583-1.961a.75.75 0 11.334 1.462L14.5 13.5v3.75A2.75 2.75 0 0111.75 20h-9A2.75 2.75 0 010 17.25v-7.5A2.75 2.75 0 012.75 7H4v-.25A2.75 2.75 0 016.75 4h1a2.75 2.75 0 012.75 2.75zm-5 0c0-.69.56-1.25 1.25-1.25h1C8.44 5.5 9 6.06 9 6.75V7H5.5v-.25zm-4 3c0-.69.56-1.25 1.25-1.25h9c.69 0 1.25.56 1.25 1.25V10H1.5v-.25zm0 1.75H13v5.75c0 .69-.56 1.25-1.25 1.25h-9c-.69 0-1.25-.56-1.25-1.25V11.5z"/></svg>