<svg xmlns="http://www.w3.org/2000/svg" width="24" height="24"><path fill-rule="evenodd" d="M14.405 6.793a3 3 0 10-4.81 0c-4.188 1.05-7.298 4.83-7.575 9.957h-.27A1.75 1.75 0 000 18.5v1.75C0 21.216.784 22 1.75 22h20.5A1.75 1.75 0 0024 20.25V18.5a1.75 1.75 0 00-1.75-1.75h-.27c-.277-5.127-3.387-8.907-7.575-9.957zM10.5 5a1.5 1.5 0 113 0 1.5 1.5 0 01-3 0zM12 8c-4.44 0-8.158 3.43-8.478 8.75h16.956C20.158 11.43 16.439 8 12 8zM1.5 20.25c0 .138.112.25.25.25h20.5a.25.25 0 00.25-.25V18.5a.25.25 0 00-.25-.25H1.75a.25.25 0 00-.25.25v1.75z"/></svg>