<svg xmlns="http://www.w3.org/2000/svg" width="24" height="24"><path fill-rule="evenodd" d="M13.448.52a1.773 1.773 0 012.508 0l7.525 7.523a1.774 1.774 0 010 2.509l-4.187 4.186c-.328.328-.77.514-1.234.52l-4.596.051a1.77 1.77 0 01-1.146-.403l-8.426 8.426a2.28 2.28 0 01-3.224-3.224l8.426-8.426a1.773 1.773 0 01-.403-1.146l.052-4.596c.005-.463.191-.906.519-1.234L13.448.519zm-3.286 12.243l-8.42 8.42a.76.76 0 001.076 1.074l8.42-8.42-1.075-1.074zm4.72-11.169a.253.253 0 00-.359 0l-4.186 4.187a.253.253 0 00-.074.176l-.052 4.596a.251.251 0 00.074.182l2.98 2.98a.253.253 0 00.182.074l4.596-.052c.066 0 .13-.027.176-.074l4.187-4.186a.253.253 0 000-.359l-7.524-7.524zm.358 2.508a.76.76 0 010 1.075l-2.15 2.15a.76.76 0 11-1.075-1.075l2.15-2.15a.76.76 0 011.075 0zm2.329 2.33a.76.76 0 010 1.074l-2.15 2.15a.76.76 0 01-1.075-1.075l2.15-2.15a.76.76 0 011.075 0zm2.329 2.328a.76.76 0 010 1.075l-2.15 2.15a.76.76 0 01-1.075-1.075l2.15-2.15a.76.76 0 011.075 0z"/></svg>