<svg xmlns="http://www.w3.org/2000/svg" width="24" height="24"><path fill-rule="evenodd" d="M8.113 12.508l.016.166-6.467 6.466a2.26 2.26 0 003.197 3.198l6.467-6.467.166.016c.898.071 1.89-.075 2.889-.375 1.994-.6 4.133-1.856 5.79-3.511 3.302-3.303 3.651-7.266 1.373-9.545C19.265.178 15.302.527 11.999 3.83c-1.655 1.656-2.91 3.795-3.511 5.79-.3.997-.446 1.99-.375 2.888zM18.5 2.558c-1.525-.225-3.48.384-5.434 2.338-1.483 1.483-2.607 3.407-3.134 5.158a7.625 7.625 0 00-.312 1.583c.136-.235.285-.477.444-.723.988-1.53 2.465-3.35 4.068-4.953 1.6-1.6 3.061-2.72 4.253-3.344l.115-.06zM21.442 5.5l-.059.115c-.625 1.192-1.744 2.652-3.344 4.253-1.603 1.603-3.423 3.08-4.953 4.068-.246.16-.488.308-.724.444a7.625 7.625 0 001.584-.312c1.751-.527 3.675-1.65 5.158-3.134 1.954-1.954 2.563-3.909 2.338-5.434zM9.104 14.884l.006.006.006.006c.181.18.38.333.594.46l-5.916 5.916a.754.754 0 11-1.066-1.066l5.916-5.915c.127.213.28.412.46.593zm6.093-7.857c1.538-1.538 2.877-2.546 3.887-3.075.509-.267.894-.392 1.155-.424a.676.676 0 01.233 0 .675.675 0 010 .233c-.033.26-.157.646-.424 1.155-.53 1.01-1.537 2.349-3.075 3.887-1.537 1.537-3.275 2.944-4.705 3.868-.72.465-1.33.787-1.779.95a2.93 2.93 0 01-.164.054c.015-.05.032-.104.054-.164.163-.45.485-1.06.95-1.78.924-1.43 2.33-3.167 3.868-4.704z"/></svg>