<svg xmlns="http://www.w3.org/2000/svg" width="24" height="24"><path fill-rule="evenodd" d="M16.433 1.516a1.762 1.762 0 00-2.491 0l-2.491 2.491a1.762 1.762 0 000 2.492l2.476 2.476-1.492 1.496a.142.142 0 01-.056.036.078.078 0 01-.037.003l-1.994-.402C9.157 9.868 8.303 11.211 9 12.19l2.117 2.97-4.42-1.71c-1.247-.481-2.344.966-1.551 2.037l2.74 3.698-2.611-.526a1.617 1.617 0 00-1.459.453l-2.595 2.6a.755.755 0 001.068 1.066l2.596-2.6c.041-.04.081-.04.091-.039l3.064.618c1.198.24 2.058-1.122 1.332-2.101l-2.65-3.577 4.403 1.702c1.24.48 2.327-.946 1.565-2.018l-2.201-3.086 1.557.314h.002a1.622 1.622 0 001.456-.453l1.49-1.495 2.507 2.506a1.762 1.762 0 002.492 0l2.491-2.491a1.762 1.762 0 000-2.491l-6.05-6.051zM15.01 2.584a.252.252 0 01.356 0l6.05 6.05a.252.252 0 010 .356l-2.491 2.492a.252.252 0 01-.356 0l-6.05-6.05a.252.252 0 010-.357l2.49-2.491z"/></svg>