<svg xmlns="http://www.w3.org/2000/svg" width="24" height="24"><path fill-rule="evenodd" d="M10.5 7.75V8h1.25a2.75 2.75 0 012.75 2.75v2.23l8.583-1.961a.75.75 0 11.334 1.462l-8.917 2.02C14.5 17.675 11.926 20 8.75 20h-3A5.75 5.75 0 010 14.25v-3.5A2.75 2.75 0 012.75 8H4v-.25A2.75 2.75 0 016.75 5h1a2.75 2.75 0 012.75 2.75zM1.5 11H13v-.25c0-.69-.56-1.25-1.25-1.25h-9c-.69 0-1.25.56-1.25 1.25V11zM13 12.5H1.5v1.75a4.25 4.25 0 004.25 4.25h3A4.25 4.25 0 0013 14.25V12.5zm-6.25-6c-.69 0-1.25.56-1.25 1.25V8H9v-.25c0-.69-.56-1.25-1.25-1.25h-1z"/></svg>