<svg xmlns="http://www.w3.org/2000/svg" width="24" height="24"><path fill-rule="evenodd" d="M10.5 9.75V10h1.25a2.75 2.75 0 012.75 2.75v2.23l8.583-1.961a.75.75 0 11.334 1.462l-8.917 2.02C14.5 19.675 11.926 22 8.75 22h-3A5.75 5.75 0 010 16.25v-3.5A2.75 2.75 0 012.75 10H4v-.25A2.75 2.75 0 016.75 7h1a2.75 2.75 0 012.75 2.75zM1.5 13H13v-.25c0-.69-.56-1.25-1.25-1.25h-9c-.69 0-1.25.56-1.25 1.25V13zM13 14.5H1.5v1.75a4.25 4.25 0 004.25 4.25h3A4.25 4.25 0 0013 16.25V14.5zm-6.25-6c-.69 0-1.25.56-1.25 1.25V10H9v-.25c0-.69-.56-1.25-1.25-1.25h-1z"/></svg>