<svg xmlns="http://www.w3.org/2000/svg" width="24" height="24"><path fill-rule="evenodd" d="M21.048 18C22.678 18 24 16.656 24 14.998v-1.036c0-1.442-.728-2.764-1.903-3.58C19.53 8.603 15.956 7.5 12 7.5c-3.956 0-7.53 1.102-10.098 2.883C.728 11.198 0 12.52 0 13.962v1.035c0 1.658 1.322 3.001 2.952 3.001h1.834c1.325 0 2.4-1.092 2.4-2.44l-.001-1.436c0-.024.007-.046.017-.062a.055.055 0 01.025-.023c1.41-.556 3.034-.878 4.773-.878 1.74 0 3.362.323 4.77.88a.055.055 0 01.026.022c.01.016.018.039.018.063v1.301c0 1.444 1.036 2.575 2.399 2.575h1.835zm0-1.509a1.48 1.48 0 001.468-1.493v-1.036c0-.913-.46-1.782-1.255-2.333-2.288-1.587-5.56-2.62-9.261-2.62-3.7 0-6.973 1.033-9.261 2.62-.795.551-1.255 1.42-1.255 2.333v1.035a1.48 1.48 0 001.468 1.493h1.834a.923.923 0 00.916-.93L5.7 14.122c0-.633.367-1.247.99-1.493 1.585-.624 3.39-.98 5.309-.98s3.723.357 5.307.982c.623.245.99.86.99 1.492v1.301c0 .689.446 1.066.916 1.066h1.835z"/></svg>