<svg xmlns="http://www.w3.org/2000/svg" width="24" height="24"><path d="M8.188 2.876a2.985 2.985 0 00-4.221 0l-.73.728C2.225 4.618 1.816 6.068 2.082 7.481c.423 2.234 1.47 4.594 3.089 6.8a.73.73 0 001.11.07.775.775 0 00.067-1.003C4.867 11.32 3.929 9.18 3.555 7.203c-.18-.956.101-1.896.744-2.538l.728-.729c.58-.58 1.52-.58 2.1 0L8.44 5.248c.336.336.39.92-.095 1.405l-.915.914a1.587 1.587 0 00-.342 1.757c.29.655.638 1.305 1.046 1.938a.722.722 0 001.13.097.788.788 0 00.09-.972 12.589 12.589 0 01-.893-1.668.055.055 0 01-.002-.034.116.116 0 01.032-.057l.915-.914c1.015-1.016 1.07-2.552.095-3.526L8.188 2.876z"/><path fill-rule="evenodd" d="M21.78 3.28a.75.75 0 00-1.06-1.06l-18.5 18.5a.75.75 0 101.06 1.06l4.533-4.532c2.707 2.527 5.814 4.125 8.708 4.672 1.414.267 2.863-.142 3.877-1.156l.728-.728a2.985 2.985 0 000-4.22l-1.311-1.312a2.426 2.426 0 00-3.432 0l-1.008 1.01a.115.115 0 01-.057.032.056.056 0 01-.034-.002 13.226 13.226 0 01-3.488-2.28L21.78 3.28zM10.734 14.326l-1.86 1.86c2.518 2.339 5.358 3.775 7.926 4.26.956.18 1.895-.1 2.538-.743l.727-.727c.58-.58.58-1.52 0-2.1l-1.31-1.311a.925.925 0 00-1.31 0l-1.01 1.01a1.587 1.587 0 01-1.757.342 14.748 14.748 0 01-3.944-2.59z"/></svg>