<svg xmlns="http://www.w3.org/2000/svg" width="24" height="24"><path fill-rule="evenodd" d="M9.498 0C11.156 0 12.5 1.322 12.5 2.952v1.835c0 1.363-1.13 2.4-2.575 2.4h-1.3a.118.118 0 00-.064.017.055.055 0 00-.023.025A13.036 13.036 0 007.658 12c0 1.74.323 3.363.879 4.773a.056.056 0 00.023.025c.016.01.038.017.062.017h1.436c1.348-.002 2.44 1.074 2.44 2.4v1.833c0 1.63-1.343 2.952-3.001 2.952H8.462c-1.442 0-2.764-.728-3.58-1.902C3.103 19.529 2 15.956 2 12 2 8.044 3.101 4.47 4.882 1.903 5.698.728 7.02 0 8.462 0h1.036zm0 1.484a1.48 1.48 0 011.494 1.468v1.835c0 .47-.378.916-1.067.916h-1.3c-.633 0-1.248.367-1.493.99C6.507 8.277 6.15 10.08 6.15 12c0 1.918.356 3.724.98 5.309.246.623.86.99 1.493.99h1.436a.921.921 0 01.93.915l.001 1.834a1.48 1.48 0 01-1.493 1.468H8.462c-.914 0-1.782-.46-2.333-1.255-1.587-2.288-2.62-5.56-2.62-9.261 0-3.7 1.033-6.973 2.62-9.261.551-.795 1.42-1.255 2.333-1.255h1.036z"/><path d="M15.643 12.795l2.135 2.344a.81.81 0 01.231.549.815.815 0 01-.2.562.731.731 0 01-.518.25.724.724 0 01-.534-.207l-3.52-3.711a.827.827 0 010-1.154l3.52-3.71a.712.712 0 01.823-.148.75.75 0 01.239.18.83.83 0 01.132.87.789.789 0 01-.173.252l-2.135 2.344h5.61a.73.73 0 01.528.23.818.818 0 010 1.117.728.728 0 01-.528.232h-5.61z"/></svg>