<svg xmlns="http://www.w3.org/2000/svg" width="24" height="24"><path d="M13.5.75a.75.75 0 01.75-.75A9.75 9.75 0 0124 9.75a.75.75 0 01-1.5 0 8.25 8.25 0 00-8.25-8.25.75.75 0 01-.75-.75z"/><path fill-rule="evenodd" d="M8.188 2.876a2.985 2.985 0 00-4.221 0l-.73.728C2.225 4.618 1.816 6.068 2.082 7.481c.584 3.089 2.364 6.418 5.193 9.246 2.828 2.828 6.157 4.608 9.245 5.192 1.414.267 2.863-.143 3.877-1.156l.728-.728a2.985 2.985 0 000-4.221l-1.311-1.311a2.426 2.426 0 00-3.432 0l-1.008 1.01a.115.115 0 01-.057.032.056.056 0 01-.034-.002c-1.399-.618-2.786-1.551-4.03-2.795-1.243-1.243-2.176-2.63-2.792-4.029a.055.055 0 01-.002-.034.116.116 0 01.032-.057l.915-.914c1.015-1.016 1.07-2.552.095-3.526L8.188 2.876zm-1.06 1.06c-.58-.58-1.52-.58-2.1 0l-.73.729c-.642.642-.923 1.582-.743 2.538.52 2.752 2.134 5.818 4.78 8.463 2.645 2.646 5.71 4.259 8.463 4.78.956.18 1.895-.102 2.538-.744l.727-.728c.58-.58.58-1.52 0-2.1l-1.31-1.31a.925.925 0 00-1.31 0l-1.01 1.01a1.587 1.587 0 01-1.757.341c-1.572-.694-3.113-1.734-4.485-3.106-1.371-1.372-2.41-2.913-3.104-4.485a1.587 1.587 0 01.342-1.757l.915-.914c.484-.484.43-1.07.095-1.405L7.127 3.936z"/><path d="M13.75 4a.75.75 0 000 1.5 4.75 4.75 0 014.75 4.75.75.75 0 001.5 0A6.25 6.25 0 0013.75 4z"/></svg>