<svg xmlns="http://www.w3.org/2000/svg" width="24" height="24"><path d="M16.28 1.22a.75.75 0 10-1.06 1.06L17.94 5l-2.72 2.72a.75.75 0 001.06 1.06L19 6.06l2.72 2.72a.75.75 0 101.06-1.06L20.06 5l2.72-2.72a.75.75 0 00-1.06-1.06L19 3.94l-2.72-2.72z"/><path fill-rule="evenodd" d="M3.967 2.876a2.985 2.985 0 014.22 0L9.5 4.188c.974.974.92 2.51-.095 3.526l-.915.914a.116.116 0 00-.032.057.055.055 0 00.002.034c.616 1.399 1.549 2.786 2.792 4.03 1.244 1.243 2.631 2.176 4.03 2.794a.056.056 0 00.034.002.115.115 0 00.056-.032l1.01-1.01a2.426 2.426 0 013.43 0l1.312 1.31a2.985 2.985 0 010 4.222l-.728.728c-1.014 1.013-2.463 1.423-3.877 1.156-3.088-.584-6.417-2.364-9.245-5.192-2.829-2.828-4.609-6.157-5.193-9.246-.266-1.413.143-2.863 1.157-3.877l.729-.728zm1.06 1.06c.58-.58 1.52-.58 2.1 0L8.44 5.248c.336.336.39.92-.095 1.405l-.915.914a1.587 1.587 0 00-.342 1.757c.694 1.572 1.733 3.113 3.104 4.485 1.372 1.372 2.913 2.412 4.485 3.106a1.587 1.587 0 001.758-.341l1.009-1.01a.925.925 0 011.31 0l1.31 1.31c.58.58.58 1.52 0 2.1l-.727.728c-.643.642-1.582.924-2.538.743-2.752-.52-5.818-2.133-8.464-4.779-2.645-2.645-4.258-5.711-4.779-8.463-.18-.956.101-1.896.744-2.538l.728-.729z"/></svg>