<svg xmlns="http://www.w3.org/2000/svg" width="25" height="24"><path fill-rule="evenodd" d="M8.19 2.876a2.985 2.985 0 00-4.222 0l-.729.728C2.225 4.618 1.816 6.068 2.083 7.481c.584 3.089 2.364 6.418 5.192 9.246 2.828 2.828 6.157 4.608 9.246 5.192 1.413.267 2.863-.143 3.877-1.156l.727-.728a2.985 2.985 0 000-4.221l-1.31-1.311a2.426 2.426 0 00-3.432 0l-1.01 1.01a.115.115 0 01-.056.032.056.056 0 01-.034-.002c-1.398-.618-2.786-1.551-4.03-2.795-1.243-1.243-2.175-2.63-2.792-4.029a.055.055 0 01-.002-.034.116.116 0 01.032-.057l.915-.914c1.016-1.016 1.07-2.552.095-3.526L8.19 2.876zm-1.062 1.06c-.58-.58-1.52-.58-2.1 0l-.728.729c-.642.642-.924 1.582-.743 2.538.52 2.752 2.133 5.818 4.779 8.463 2.645 2.646 5.711 4.259 8.463 4.78.956.18 1.896-.102 2.538-.744l.728-.728c.58-.58.58-1.52 0-2.1l-1.311-1.31a.925.925 0 00-1.31 0l-1.009 1.01a1.587 1.587 0 01-1.758.341c-1.572-.694-3.113-1.734-4.484-3.106-1.372-1.372-2.411-2.913-3.104-4.485a1.587 1.587 0 01.342-1.757l.914-.914c.485-.484.43-1.07.095-1.405L7.128 3.936zm8.824-1.473c-.737 0-1.519.688-1.519 1.661 0 1.172.861 2.27 1.845 3.126.536.463 1.113.873 1.722 1.228a11.45 11.45 0 001.723-1.229c.984-.855 1.846-1.955 1.847-3.127 0-.973-.782-1.66-1.518-1.66-.518 0-.95.232-1.266.63-.4.504-1.169.504-1.57 0-.315-.398-.746-.629-1.264-.629zm-2.95 1.661c0-1.78 1.422-3.122 2.95-3.123.809 0 1.512.31 2.05.814A2.958 2.958 0 0120.052 1c1.527 0 2.95 1.341 2.95 3.122-.001 1.865-1.32 3.344-2.353 4.241l-.001.002a12.869 12.869 0 01-1.982 1.407 8.674 8.674 0 01-.24.131.991.991 0 01-.887-.017l-.004-.002a12.846 12.846 0 01-2.182-1.518l-.002-.001C14.319 7.467 13 5.989 13 4.125z"/></svg>