<svg xmlns="http://www.w3.org/2000/svg" width="24" height="24"><path fill-rule="evenodd" d="M24 20.015C24 21.664 22.678 23 21.048 23h-1.835c-1.363 0-2.4-1.124-2.4-2.56v-1.294a.117.117 0 00-.017-.063.054.054 0 00-.025-.022c-1.41-.553-3.032-.875-4.771-.875-1.74 0-3.363.32-4.773.873a.055.055 0 00-.025.023.116.116 0 00-.017.062v1.428a2.413 2.413 0 01-2.4 2.427H2.953C1.322 22.998 0 21.661 0 20.013v-1.03c0-1.433.728-2.748 1.902-3.559C4.471 13.655 8.044 12.56 12 12.56c3.956 0 7.53 1.095 10.097 2.866 1.175.811 1.903 2.126 1.903 3.56v1.03zm-1.484 0c0 .82-.657 1.485-1.468 1.485h-1.835c-.47 0-.916-.376-.916-1.06v-1.294c0-.629-.367-1.24-.99-1.484-1.584-.621-3.388-.976-5.307-.976-1.918 0-3.724.354-5.309.974-.623.244-.99.855-.99 1.485v1.428a.92.92 0 01-.915.925H2.952a1.477 1.477 0 01-1.468-1.484v-1.03c0-.908.46-1.771 1.255-2.32C5.027 15.087 8.299 14.06 12 14.06c3.7 0 6.973 1.027 9.261 2.606.795.548 1.255 1.411 1.255 2.32v1.03z"/><path d="M11.753 10.78L5.504 4.558v3.67a.746.746 0 01-.458.716.755.755 0 01-.996-.422.746.746 0 01-.05-.294V2.749A.748.748 0 014.752 2h5.508a.755.755 0 01.78.75.746.746 0 01-.484.699.755.755 0 01-.296.049H6.568l5.74 5.717 6.427-5.973a.754.754 0 011.045.018c.3.3.292.788-.019 1.077l-6.934 6.444a.754.754 0 01-.532.219h-.01c-.2 0-.39-.079-.532-.22z"/></svg>