<svg xmlns="http://www.w3.org/2000/svg" width="24" height="24"><path d="M12.25 7.25a.75.75 0 011.5 0v4.125a2.125 2.125 0 01-4.25 0V8.75a.75.75 0 00-1.5 0v2.625a3.625 3.625 0 007.25 0V7.25a2.25 2.25 0 00-4.5 0v4a.75.75 0 001.5 0v-4z"/><path fill-rule="evenodd" d="M1 3.75C1 2.784 1.784 2 2.75 2h18.5c.966 0 1.75.784 1.75 1.75v12.5A1.75 1.75 0 0121.25 18H11.14a.25.25 0 00-.169.066l-3.874 3.571c-.8.739-2.097.17-2.097-.919V18H2.75A1.75 1.75 0 011 16.25V3.75zm1.75-.25a.25.25 0 00-.25.25v12.5c0 .138.112.25.25.25H5.5a1 1 0 011 1v2.648l3.454-3.185a1.75 1.75 0 011.187-.463H21.25a.25.25 0 00.25-.25V3.75a.25.25 0 00-.25-.25H2.75z"/></svg>