<svg xmlns="http://www.w3.org/2000/svg" width="24" height="24"><path fill-rule="evenodd" d="M9.95 5.501C8.424 5.501 7 6.844 7 8.624c0 1.865 1.318 3.343 2.35 4.24l.001.002a12.846 12.846 0 002.183 1.518l.003.002a.992.992 0 00.931-.004c.064-.035.13-.071.196-.11a12.87 12.87 0 001.981-1.408l.003-.001C15.68 11.966 17 10.487 17 8.622c0-1.78-1.422-3.122-2.949-3.122-.81 0-1.512.31-2.05.815A2.955 2.955 0 009.95 5.5zM8.433 8.624c0-.973.782-1.66 1.518-1.66.519 0 .95.23 1.266.628.4.504 1.168.504 1.569 0 .316-.398.747-.63 1.266-.63.736 0 1.518.687 1.517 1.66 0 1.172-.863 2.272-1.847 3.127A11.469 11.469 0 0112 12.978a11.412 11.412 0 01-1.722-1.228c-.984-.856-1.846-1.954-1.845-3.126z"/><path fill-rule="evenodd" d="M2.75 2A1.75 1.75 0 001 3.75v12.5c0 .966.784 1.75 1.75 1.75H5v2.718c0 1.09 1.296 1.658 2.097.92l3.874-3.572a.25.25 0 01.17-.066H21.25A1.75 1.75 0 0023 16.25V3.75A1.75 1.75 0 0021.25 2H2.75zM2.5 3.75a.25.25 0 01.25-.25h18.5a.25.25 0 01.25.25v12.5a.25.25 0 01-.25.25H11.14c-.439 0-.862.165-1.186.463L6.5 20.148V17.5a1 1 0 00-1-1H2.75a.25.25 0 01-.25-.25V3.75z"/></svg>