<svg xmlns="http://www.w3.org/2000/svg" width="24" height="24"><path d="M16.72 1.72A.75.75 0 0017.25 3h3.69l-6.22 6.22a.75.75 0 101.06 1.06L22 4.06v3.69a.75.75 0 101.5 0v-5.5a.75.75 0 00-.75-.75h-5.5a.75.75 0 00-.53.22z"/><path d="M1 3.75C1 2.784 1.784 2 2.75 2h10.5a.75.75 0 010 1.5H2.75a.25.25 0 00-.25.25v12.5c0 .138.112.25.25.25H5.5a1 1 0 011 1v2.648l3.454-3.185a1.75 1.75 0 011.187-.463H21.25a.25.25 0 00.25-.25v-4.5a.75.75 0 011.5 0v4.5A1.75 1.75 0 0121.25 18H11.14a.25.25 0 00-.169.066l-3.874 3.571c-.8.739-2.097.17-2.097-.919V18H2.75A1.75 1.75 0 011 16.25V3.75z"/></svg>