<svg xmlns="http://www.w3.org/2000/svg" width="24" height="24"><path fill-rule="evenodd" d="M1 3.75C1 2.784 1.784 2 2.75 2h18.5c.966 0 1.75.784 1.75 1.75v12.5A1.75 1.75 0 0121.25 18H11.14a.25.25 0 00-.169.066l-3.874 3.571c-.8.739-2.097.17-2.097-.919V18H2.75A1.75 1.75 0 011 16.25V3.75zm1.75-.25a.25.25 0 00-.25.25v12.5c0 .138.112.25.25.25H5.5a1 1 0 011 1v2.648l3.454-3.185a1.75 1.75 0 011.187-.463H21.25a.25.25 0 00.25-.25V3.75a.25.25 0 00-.25-.25H2.75z"/><path d="M11.722 13.139l2.135-2.344h-5.61a.728.728 0 01-.528-.232.812.812 0 01-.219-.558c0-.21.079-.41.219-.558a.728.728 0 01.528-.231h5.61l-2.135-2.344a.826.826 0 01-.041-1.121.75.75 0 01.239-.181.714.714 0 01.823.148l3.52 3.71a.792.792 0 01.175.263.828.828 0 01-.175.891l-3.52 3.71a.725.725 0 01-.534.207.731.731 0 01-.517-.25.815.815 0 01-.201-.562.81.81 0 01.231-.548z"/></svg>