<svg xmlns="http://www.w3.org/2000/svg" width="24" height="24"><path d="M10 8a1 1 0 11-2 0 1 1 0 012 0zm5 1a1 1 0 100-2 1 1 0 000 2z"/><path fill-rule="evenodd" d="M2.75 2A1.75 1.75 0 001 3.75v12.5c0 .966.784 1.75 1.75 1.75H5v2.718c0 1.09 1.296 1.658 2.097.92l3.874-3.572a.25.25 0 01.17-.066H21.25A1.75 1.75 0 0023 16.25V3.75A1.75 1.75 0 0021.25 2H2.75zM2.5 3.75a.25.25 0 01.25-.25h18.5a.25.25 0 01.25.25v12.5a.25.25 0 01-.25.25H11.14c-.439 0-.862.165-1.186.463L6.5 20.148V17.5a1 1 0 00-1-1H2.75a.25.25 0 01-.25-.25V3.75z"/><path d="M9.062 11.253a.75.75 0 00-1.126.992l.001.001.003.003.006.007.018.02.06.063a5.8 5.8 0 001.008.797A5.594 5.594 0 0012 14a5.59 5.59 0 002.967-.864c.343-.214.61-.428.794-.593.092-.082.293-.287.293-.287l.01-.012a.75.75 0 00-1.126-.99l-.004.004a2.962 2.962 0 01-.173.167 4.3 4.3 0 01-.587.439A4.095 4.095 0 0112 12.5a4.095 4.095 0 01-2.174-.636 4.305 4.305 0 01-.73-.574 1.812 1.812 0 01-.03-.032l-.004-.005z"/></svg>