<svg xmlns="http://www.w3.org/2000/svg" width="24" height="24"><path fill-rule="evenodd" d="M.513 1.513A1.75 1.75 0 011.75 1h12.5A1.75 1.75 0 0116 2.75v9.5A1.75 1.75 0 0114.25 14H8.061l-2.574 2.573A1.457 1.457 0 013 15.543V14H1.75A1.75 1.75 0 010 12.25v-9.5c0-.464.184-.91.513-1.237zm1.06 1.06a.25.25 0 00-.073.177v9.5a.25.25 0 00.25.25h2a.75.75 0 01.75.75v2.19l2.72-2.72a.75.75 0 01.53-.22h6.5a.25.25 0 00.25-.25v-9.5a.25.25 0 00-.25-.25H1.75a.25.25 0 00-.177.073z"/><path d="M22.427 8.573a.25.25 0 01.073.177v9.5a.25.25 0 01-.25.25h-2a.75.75 0 00-.75.75v2.19l-2.72-2.72a.75.75 0 00-.53-.22h-5.5a.25.25 0 01-.25-.25v-1.465a.75.75 0 10-1.5 0v1.465A1.75 1.75 0 0010.75 20h5.189l2.574 2.573A1.457 1.457 0 0021 21.543V20h1.25A1.75 1.75 0 0024 18.25v-9.5A1.75 1.75 0 0022.25 7h-3.5a.75.75 0 100 1.5h3.5a.25.25 0 01.177.073z"/></svg>