<svg xmlns="http://www.w3.org/2000/svg" width="24" height="24"><path d="M11.159 6.71a1.558 1.558 0 011.948.328c.233.271.36.616.36.97 0 .352-.28.72-.808 1.065a4.663 4.663 0 01-.968.476.753.753 0 00-.523.713v.732a.76.76 0 00.767.752.76.76 0 00.767-.752v.027c0-.093 0-.139.013-.178a.24.24 0 01.058-.093.63.63 0 01.163-.097 5.9 5.9 0 00.573-.33C14.13 9.919 15 9.16 15 8.01a2.97 2.97 0 00-.72-1.94 3.08 3.08 0 00-1.827-1.026 3.117 3.117 0 00-2.071.371 3.02 3.02 0 00-1.338 1.594c-.14.391.069.82.468.958a.77.77 0 00.978-.46 1.51 1.51 0 01.669-.796zM13 13.746a1 1 0 10-2 0 1 1 0 002 0z"/><path fill-rule="evenodd" d="M2.75 2A1.75 1.75 0 001 3.75v12.5c0 .966.784 1.75 1.75 1.75H5v2.718c0 1.09 1.296 1.658 2.097.92l3.874-3.572a.25.25 0 01.17-.066H21.25A1.75 1.75 0 0023 16.25V3.75A1.75 1.75 0 0021.25 2H2.75zM2.5 3.75a.25.25 0 01.25-.25h18.5a.25.25 0 01.25.25v12.5a.25.25 0 01-.25.25H11.14c-.439 0-.862.165-1.186.463L6.5 20.148V17.5a1 1 0 00-1-1H2.75a.25.25 0 01-.25-.25V3.75z"/></svg>