<svg xmlns="http://www.w3.org/2000/svg" width="24" height="24"><path d="M12.53 5.72a.75.75 0 00-1.28.53v4a.75.75 0 101.5 0v-4a.75.75 0 00-.22-.53zm.177 8.487a1 1 0 11-1.414-1.414 1 1 0 011.414 1.414z"/><path fill-rule="evenodd" d="M2.75 2A1.75 1.75 0 001 3.75v12.5c0 .966.784 1.75 1.75 1.75H5v2.718c0 1.09 1.296 1.658 2.097.92l3.874-3.572a.25.25 0 01.17-.066H21.25A1.75 1.75 0 0023 16.25V3.75A1.75 1.75 0 0021.25 2H2.75zM2.5 3.75a.25.25 0 01.25-.25h18.5a.25.25 0 01.25.25v12.5a.25.25 0 01-.25.25H11.14c-.439 0-.862.165-1.186.463L6.5 20.148V17.5a1 1 0 00-1-1H2.75a.25.25 0 01-.25-.25V3.75z"/></svg>