<svg xmlns="http://www.w3.org/2000/svg" width="24" height="24"><path d="M18.5 13.75a.75.75 0 00-1.5 0V17h-3.75a.75.75 0 000 1.5H17v3.75a.75.75 0 001.5 0V18.5h3.75a.75.75 0 000-1.5H18.5v-3.25z"/><path fill-rule="evenodd" d="M0 4.75C0 3.784.784 3 1.75 3h20.5c.966 0 1.75.784 1.75 1.75v6.625a.75.75 0 01-1.5 0V7.187l-9.748 4.636a1.75 1.75 0 01-1.504 0L1.5 7.187V18.75c0 .138.112.25.25.25h7.5a.75.75 0 010 1.5h-7.5A1.75 1.75 0 010 18.75v-14zm1.5.776l10.393 4.943a.25.25 0 00.214 0L22.5 5.526V4.75a.25.25 0 00-.25-.25H1.75a.25.25 0 00-.25.25v.776z"/></svg>