<svg xmlns="http://www.w3.org/2000/svg" width="24" height="24"><path fill-rule="evenodd" d="M0 4.75C0 3.784.784 3 1.75 3h20.5c.966 0 1.75.784 1.75 1.75v6.625a.75.75 0 01-1.5 0V7.187l-9.748 4.636a1.75 1.75 0 01-1.504 0L1.5 7.187V18.75c0 .138.112.25.25.25h7.5a.75.75 0 010 1.5h-7.5A1.75 1.75 0 010 18.75v-14zm1.5.776l10.393 4.943a.25.25 0 00.214 0L22.5 5.526V4.75a.25.25 0 00-.25-.25H1.75a.25.25 0 00-.25.25v.776z"/><path d="M16.75 16a1 1 0 11-2 0 1 1 0 012 0zm5 1a1 1 0 100-2 1 1 0 000 2zm-5.939 2.253a.75.75 0 00-1.125.992v.001l.003.003.006.007.019.02.06.063a5.8 5.8 0 001.008.797A5.594 5.594 0 0018.75 22c1.27 0 2.28-.436 2.967-.863a5.8 5.8 0 00.793-.594c.092-.082.294-.287.294-.287l.01-.012a.75.75 0 00-1.126-.99l-.005.004a2.05 2.05 0 01-.173.167c-.13.117-.329.278-.587.438a4.095 4.095 0 01-2.173.637 4.094 4.094 0 01-2.174-.637 4.3 4.3 0 01-.73-.573 1.648 1.648 0 01-.03-.032l-.005-.005z"/></svg>