<svg xmlns="http://www.w3.org/2000/svg" width="24" height="24"><path fill-rule="evenodd" d="M1.75 3A1.75 1.75 0 000 4.75v10c0 .966.784 1.75 1.75 1.75h15a1.75 1.75 0 001.75-1.75v-10A1.75 1.75 0 0016.75 3h-15zM1.5 4.75a.25.25 0 01.25-.25h15a.25.25 0 01.25.25v.768l-7.384 4.531a.25.25 0 01-.256.003L1.5 5.505V4.75zm8.9 6.578l6.6-4.05v7.472a.25.25 0 01-.25.25h-15a.25.25 0 01-.25-.25V7.238l7.109 4.113a1.75 1.75 0 001.791-.024z"/><path d="M20.75 7.5a.75.75 0 000 1.5h1.5a.25.25 0 01.25.25v10a.25.25 0 01-.25.25h-15a.25.25 0 01-.25-.25v-.5a.75.75 0 00-1.5 0v.5c0 .966.784 1.75 1.75 1.75h15A1.75 1.75 0 0024 19.25v-10a1.75 1.75 0 00-1.75-1.75h-1.5z"/></svg>