<svg xmlns="http://www.w3.org/2000/svg" width="24" height="24"><path fill-rule="evenodd" d="M11.5 8.28V5.046a1 1 0 011.653-.758l7.5 6.455a1 1 0 010 1.516l-7.5 6.455a1 1 0 01-1.653-.758v-3.098c-1.494.058-2.864.382-4.022 1.03-1.275.712-2.336 1.838-3.035 3.529A.75.75 0 013 19.129V18c0-2.977.997-5.417 2.647-7.117C7.183 9.3 9.25 8.397 11.5 8.28zm1.5.728V6.135l6.233 5.365L13 16.865v-2.772c0-.414-.344-.746-.87-.746-1.87 0-3.815.354-5.383 1.23-.784.437-1.495 1-2.113 1.7.294-1.819 1.051-3.28 2.089-4.35 1.35-1.39 3.215-2.159 5.278-2.159.71 0 1-.346 1-.76z"/></svg>