<svg xmlns="http://www.w3.org/2000/svg" width="24" height="24"><path fill-rule="evenodd" d="M4.801 3.57A1.75 1.75 0 016.414 2.5h11.174c.702 0 1.337.42 1.611 1.067l3.741 8.828c.04.092.06.192.06.293v7.562A1.75 1.75 0 0121.25 22H2.75A1.75 1.75 0 011 20.25v-7.5c0-.1.02-.199.059-.291L4.8 3.571l.001-.001zM6.414 4a.25.25 0 00-.23.153l-3.158 7.5a.25.25 0 00.23.347H8a.75.75 0 01.648.372l1.46 2.504a.25.25 0 00.216.124h3.35a.25.25 0 00.216-.124l1.461-2.504a.75.75 0 01.64-.372l4.757-.047a.25.25 0 00.227-.348l-3.158-7.453a.25.25 0 00-.23-.152H6.414zM21.5 13.697a.25.25 0 00-.253-.25l-4.672.047a.25.25 0 00-.213.124l-1.464 2.51a.75.75 0 01-.648.372h-4.5a.75.75 0 01-.648-.372l-1.46-2.504a.25.25 0 00-.216-.124H2.75a.25.25 0 00-.25.25v6.5c0 .138.112.25.25.25h18.5a.25.25 0 00.25-.25v-6.553z"/></svg>