<svg xmlns="http://www.w3.org/2000/svg" width="24" height="24"><path fill-rule="evenodd" d="M13.623 18.643l.2.002a8.806 8.806 0 003.384-.672l4.708.615a1 1 0 001.086-1.286l-1.166-3.78c.52-1.126.81-2.38.81-3.699a8.822 8.822 0 10-17.583 1.033 6.25 6.25 0 00-2.955 8.333L1.08 21.612a1 1 0 001.047 1.382l3.874-.492a6.253 6.253 0 007.622-3.859zm7.522-8.82a7.322 7.322 0 10-14.623.548 6.25 6.25 0 017.445 6.773 7.286 7.286 0 002.828-.627.746.746 0 01.439-.054l4.104.537-1.023-3.318c-.068-.22-.014-.428.115-.698a7.29 7.29 0 00.715-3.16zM7.75 11.75a4.75 4.75 0 00-4.286 6.8c.022.046.071.137.071.137.125.2.2.504.088.768L2.8 21.396l3.17-.403a.747.747 0 01.342.036 4.75 4.75 0 101.437-9.28z"/></svg>