<svg xmlns="http://www.w3.org/2000/svg" width="25" height="24"><path d="M19.195 14.529a1.557 1.557 0 00-1.035.185 1.51 1.51 0 00-.669.797.77.77 0 01-.977.46.748.748 0 01-.469-.96 3.02 3.02 0 011.338-1.593 3.117 3.117 0 012.072-.37c.713.12 1.36.483 1.826 1.026a2.97 2.97 0 01.72 1.939c0 1.15-.87 1.909-1.49 2.315-.199.13-.396.24-.573.329a.595.595 0 00-.163.097.242.242 0 00-.058.093c-.014.04-.014.085-.014.178v.223a.76.76 0 01-.767.752.76.76 0 01-.766-.752v-.982c0-.323.21-.61.522-.713 0 0 .199-.074.292-.115.19-.082.435-.204.676-.361.529-.345.808-.713.808-1.065a1.49 1.49 0 00-.36-.97 1.539 1.539 0 00-.913-.513zM19.001 21a1 1 0 110 2 1 1 0 010-2z"/><path d="M12.501 3.5a8 8 0 00-7.218 11.454.75.75 0 01-.045.729l-1.435 3.412 4.547-.582a.746.746 0 01.458.086c.312.162.636.305.97.426.398.144.641.564.522.97-.113.389-.516.62-.899.488a9.462 9.462 0 01-1.086-.453l-5.183.663a1 1 0 01-1.048-1.38l1.698-4.036A9.5 9.5 0 0112.502 2c4.994 0 9.088 3.854 9.47 8.75.032.413-.306.75-.72.75-.415 0-.747-.337-.785-.75A8 8 0 0012.5 3.5z"/></svg>