<svg width="24" height="24" viewBox="0 0 24 24" fill="none" xmlns="http://www.w3.org/2000/svg">
<path fill-rule="evenodd" clip-rule="evenodd" d="M3.78056 15.2767C3.2782 14.1184 3 12.8408 3 11.5C3 6.25329 7.25329 2 12.5 2C17.7467 2 22 6.25329 22 11.5C22 16.7467 17.7467 21 12.5 21C10.9989 21 9.57728 20.6513 8.31349 20.03L3.13105 20.6928C2.36665 20.7906 1.7836 20.0234 2.08243 19.3131L3.78056 15.2767ZM4.5 11.5C4.5 7.08172 8.08172 3.5 12.5 3.5C16.9183 3.5 20.5 7.08172 20.5 11.5C20.5 15.9183 16.9183 19.5 12.5 19.5C11.1663 19.5 9.91091 19.1742 8.80691 18.5986C8.78316 18.5862 8.75905 18.5752 8.73468 18.5656C8.61691 18.516 8.48486 18.4958 8.34897 18.5132L3.8016 19.0948L5.23707 15.6828C5.37226 15.4713 5.39824 15.1969 5.28176 14.9539C4.7809 13.9092 4.5 12.7385 4.5 11.5Z" fill="black"/>
</svg>
