<svg xmlns="http://www.w3.org/2000/svg" width="24" height="24"><path d="M10.5 9a1 1 0 11-2 0 1 1 0 012 0zm5 1a1 1 0 100-2 1 1 0 000 2zm-6.994 2.186a.75.75 0 011.056.067l.004.005.03.032a4.304 4.304 0 00.73.574 4.095 4.095 0 002.174.636c.917 0 1.656-.314 2.173-.636a4.3 4.3 0 00.73-.574l.03-.032.005-.005a.75.75 0 011.126.99l-.01.013s-.201.205-.293.287a5.8 5.8 0 01-.794.594A5.594 5.594 0 0112.5 15a5.594 5.594 0 01-2.967-.864 5.8 5.8 0 01-1.008-.797 3.245 3.245 0 01-.06-.063l-.02-.02-.005-.007-.003-.003v-.001a.751.751 0 01.069-1.06z"/><path fill-rule="evenodd" d="M3 11.5c0 1.34.278 2.618.78 3.777l-1.698 4.036a1 1 0 001.05 1.38l5.181-.663A9.5 9.5 0 103 11.5zm9.5-8a8 8 0 00-7.218 11.454.75.75 0 01-.045.729l-1.435 3.412 4.547-.582a.746.746 0 01.458.086A8 8 0 1012.5 3.5z"/></svg>