<svg xmlns="http://www.w3.org/2000/svg" width="24" height="24"><path d="M14.357 12.295l-2.135 2.344a.81.81 0 00-.231.549.815.815 0 00.2.561.733.733 0 00.518.25.725.725 0 00.534-.206l3.52-3.711a.827.827 0 000-1.154l-3.52-3.71a.712.712 0 00-.823-.148.75.75 0 00-.239.18.83.83 0 00-.132.87c.042.096.1.181.173.251l2.135 2.345h-5.61a.728.728 0 00-.528.23.813.813 0 00-.219.56c0 .209.079.41.219.557.14.148.33.232.528.232h5.61z"/><path fill-rule="evenodd" d="M3 11.5c0 1.34.278 2.618.78 3.777l-1.698 4.036a1 1 0 001.05 1.38l5.181-.663A9.5 9.5 0 103 11.5zm9.5-8a8 8 0 00-7.218 11.454.75.75 0 01-.045.729l-1.435 3.412 4.547-.582a.746.746 0 01.458.086A8 8 0 1012.5 3.5z"/></svg>