<svg xmlns="http://www.w3.org/2000/svg" width="24" height="24"><path d="M10.643 12.295l2.135 2.344a.81.81 0 01.231.549.815.815 0 01-.2.561.731.731 0 01-.518.25.725.725 0 01-.534-.206l-3.52-3.711a.827.827 0 010-1.154l3.52-3.71a.712.712 0 01.823-.148.75.75 0 01.239.18.83.83 0 01.132.87.789.789 0 01-.173.251l-2.135 2.345h5.61a.73.73 0 01.528.23.818.818 0 010 1.117.728.728 0 01-.528.232h-5.61z"/><path fill-rule="evenodd" d="M3 11.5c0 1.34.278 2.618.78 3.777l-1.698 4.036a1 1 0 001.05 1.38l5.181-.663A9.5 9.5 0 103 11.5zm9.5-8a8 8 0 00-7.218 11.454.75.75 0 01-.045.729l-1.435 3.412 4.547-.582a.746.746 0 01.458.086A8 8 0 1012.5 3.5z"/></svg>