<svg xmlns="http://www.w3.org/2000/svg" width="24" height="24"><path d="M15.22 15.22a.75.75 0 011.06 0L19 17.94l2.72-2.72a.75.75 0 111.06 1.06L20.06 19l2.72 2.72a.75.75 0 11-1.06 1.06L19 20.06l-2.72 2.72a.75.75 0 11-1.06-1.06L17.94 19l-2.72-2.72a.75.75 0 010-1.06z"/><path d="M12.5 3.5a8 8 0 00-7.218 11.454.75.75 0 01-.045.729l-1.435 3.412 4.547-.582a.746.746 0 01.458.086c.312.162.635.305.97.426.398.144.64.564.522.97-.114.389-.516.62-.899.488a9.461 9.461 0 01-1.087-.453l-5.182.663a1 1 0 01-1.049-1.38l1.699-4.036A9.5 9.5 0 0112.5 2c4.993 0 9.087 3.854 9.47 8.75.032.413-.307.75-.721.75s-.746-.337-.785-.75A8 8 0 0012.5 3.5z"/></svg>