<svg xmlns="http://www.w3.org/2000/svg" width="24" height="24"><path d="M12.694 8.152a1.558 1.558 0 00-1.035.185 1.51 1.51 0 00-.669.797.77.77 0 01-.978.46.748.748 0 01-.468-.96 3.02 3.02 0 011.338-1.593 3.117 3.117 0 012.071-.37 3.08 3.08 0 011.827 1.026 2.97 2.97 0 01.72 1.939c0 1.15-.87 1.909-1.49 2.315-.2.13-.396.24-.574.329a.63.63 0 00-.163.097.24.24 0 00-.058.093c-.013.04-.013.085-.013.178v-.027a.76.76 0 01-.767.752.76.76 0 01-.767-.752v-.732c0-.323.21-.61.523-.713 0 0 .198-.074.292-.115.189-.082.435-.204.676-.361.528-.345.808-.713.808-1.065a1.49 1.49 0 00-.36-.97 1.539 1.539 0 00-.913-.513zm-.194 6.221a1 1 0 110 2 1 1 0 010-2z"/><path fill-rule="evenodd" d="M3 11.5c0 1.34.278 2.618.78 3.777l-1.698 4.036a1 1 0 001.05 1.38l5.181-.663A9.5 9.5 0 103 11.5zm9.5-8a8 8 0 00-7.218 11.454.75.75 0 01-.045.729l-1.435 3.412 4.547-.582a.746.746 0 01.458.086A8 8 0 1012.5 3.5z"/></svg>