<svg xmlns="http://www.w3.org/2000/svg" width="24" height="24"><path d="M19 21a1 1 0 110 2 1 1 0 010-2zm.53-7.78a.75.75 0 00-1.28.53v5a.75.75 0 101.5 0v-5a.75.75 0 00-.22-.53z"/><path d="M19.707 22.707a1 1 0 11-1.414-1.414 1 1 0 011.414 1.414zM12.5 3.5a8 8 0 00-7.218 11.454.75.75 0 01-.045.729l-1.435 3.412 4.547-.582a.746.746 0 01.458.086c.312.162.635.305.97.426.398.144.64.564.522.97-.114.389-.516.62-.899.488a9.461 9.461 0 01-1.087-.453l-5.182.663a1 1 0 01-1.049-1.38l1.699-4.036A9.5 9.5 0 0112.5 2c4.993 0 9.087 3.854 9.47 8.75.032.413-.307.75-.721.75s-.746-.337-.785-.75A8 8 0 0012.5 3.5z"/></svg>