<svg xmlns="http://www.w3.org/2000/svg" width="24" height="24"><path fill-rule="evenodd" d="M12.5 8.28V5.046a1 1 0 00-1.652-.758l-7.5 6.455a1 1 0 000 1.516l7.5 6.455a1 1 0 001.652-.758v-3.098c1.494.058 2.864.382 4.022 1.03 1.276.712 2.336 1.838 3.036 3.529A.75.75 0 0021 19.129V18c0-2.977-.997-5.417-2.647-7.117C16.817 9.3 14.751 8.397 12.5 8.28zm-1.5.728V6.135L4.767 11.5 11 16.865v-2.772c0-.414.344-.746.87-.746 1.87 0 3.816.354 5.383 1.23.784.437 1.495 1 2.113 1.7-.293-1.819-1.05-3.28-2.088-4.35-1.35-1.39-3.215-2.159-5.278-2.159-.71 0-1-.346-1-.76z"/></svg>