<svg xmlns="http://www.w3.org/2000/svg" width="24" height="24"><path fill-rule="evenodd" d="M10.5 7.168V5.045a1 1 0 00-1.653-.758l-7.5 6.455a1 1 0 000 1.516l7.5 6.455a1 1 0 001.653-.758v-2.123l3.347 2.88a1 1 0 001.653-.757v-3.098c1.494.058 2.863.382 4.022 1.03 1.275.712 2.336 1.838 3.035 3.529A.75.75 0 0024 19.129V18c0-2.977-.997-5.417-2.647-7.117C19.817 9.3 17.75 8.397 15.5 8.28V5.045a1 1 0 00-1.653-.758L10.5 7.168zM9 6.135L2.766 11.5 9 16.865V14.54l-2.652-2.283a1 1 0 010-1.516L9 8.46V6.135zm5 0v2.873c0 .414.289.76 1 .76 2.062 0 3.927.77 5.277 2.16 1.038 1.069 1.796 2.53 2.09 4.348a8.036 8.036 0 00-2.114-1.7c-1.568-.875-3.513-1.229-5.383-1.229-.526 0-.87.332-.87.746v2.772L7.766 11.5 14 6.135z"/></svg>