<svg xmlns="http://www.w3.org/2000/svg" width="24" height="24"><path fill-rule="evenodd" d="M13.675 2.007a6 6 0 018.485 8.486L10.493 22.16a6 6 0 01-8.486-8.485L13.675 2.007zm7.424 1.061a4.5 4.5 0 00-6.364 0l-1.237 1.237 6.364 6.364 1.237-1.237a4.5 4.5 0 000-6.364zm-2.298 8.662l-6.364-6.364-7.07 7.071 6.363 6.364 7.071-7.07zm-8.132 8.132l-6.364-6.364-1.237 1.237A4.5 4.5 0 109.432 21.1l1.237-1.237z"/><path d="M12.79 9.962a1 1 0 11-1.413-1.414 1 1 0 011.414 1.414zM9.962 12.79a1 1 0 11-1.414-1.414 1 1 0 011.414 1.415zm5.658 0a1 1 0 11-1.415-1.414 1 1 0 011.414 1.415zm-2.83 2.83a1 1 0 11-1.413-1.415 1 1 0 011.414 1.414z"/></svg>