<svg xmlns="http://www.w3.org/2000/svg" width="24" height="24"><path fill-rule="evenodd" d="M10.78 4h2.44c.122 0 .255 0 .37.01.13.01.3.036.478.126.235.12.426.311.546.547.09.176.116.348.127.478.01.114.009.247.009.369V6h5.918a1.75 1.75 0 110 1.5H16.88c2.292 1.547 3.932 4.147 4.105 7h.485c.122 0 .255 0 .37.01.13.01.3.036.477.126.236.12.427.311.547.546.09.177.116.349.127.479.01.114.009.247.009.369v2.44c0 .122 0 .255-.01.37-.01.13-.036.3-.126.477a1.25 1.25 0 01-.547.547c-.176.09-.348.116-.477.127-.115.01-.248.009-.37.009h-2.44c-.122 0-.255 0-.37-.01a1.259 1.259 0 01-.477-.126 1.25 1.25 0 01-.547-.547 1.259 1.259 0 01-.127-.477c-.01-.115-.009-.248-.009-.37v-2.44c0-.122 0-.255.01-.37.01-.13.036-.3.126-.478a1.25 1.25 0 01.547-.546 1.26 1.26 0 01.477-.127c.115-.01.248-.009.37-.009h.451c-.21-2.832-2.19-5.394-4.731-6.456 0 .1-.002.203-.01.295-.01.13-.036.302-.126.478a1.25 1.25 0 01-.546.547c-.177.09-.349.116-.479.127-.114.01-.247.009-.369.009h-2.44c-.122 0-.255 0-.37-.01a1.259 1.259 0 01-.477-.126 1.25 1.25 0 01-.547-.547 1.259 1.259 0 01-.127-.478 3.895 3.895 0 01-.009-.295C6.708 9.106 4.73 11.668 4.52 14.5h.451c.122 0 .255 0 .37.01.13.01.3.036.477.126.236.12.427.311.547.546.09.177.116.349.127.479.01.114.009.247.009.369v2.44c0 .122 0 .255-.01.37-.01.13-.036.3-.126.477a1.25 1.25 0 01-.547.547c-.176.09-.348.116-.478.127-.114.01-.247.009-.369.009H2.53c-.122 0-.255 0-.37-.01a1.259 1.259 0 01-.477-.126 1.25 1.25 0 01-.547-.547 1.259 1.259 0 01-.127-.477C1 18.725 1 18.591 1 18.47v-2.44c0-.122 0-.255.01-.37.01-.13.036-.3.126-.478a1.25 1.25 0 01.547-.546 1.26 1.26 0 01.478-.127c.114-.01.247-.009.369-.009h.485c.173-2.853 1.813-5.453 4.105-7H3.332a1.75 1.75 0 110-1.5H9.25v-.47c0-.122 0-.255.01-.37.01-.13.036-.3.126-.477a1.25 1.25 0 01.547-.547c.176-.09.348-.116.478-.127.114-.01.247-.009.369-.009zm2.47 2.986V8h-2.5V5.5h2.5v1.486zM2.5 16H5v2.5H2.5V16zM19 16h2.5v2.5H19V16z"/></svg>