<svg xmlns="http://www.w3.org/2000/svg" width="24" height="24"><path fill-rule="evenodd" d="M2 3.75C2 2.784 2.784 2 3.75 2h9.5c.966 0 1.75.784 1.75 1.75V9h5.25c.966 0 1.75.784 1.75 1.75v9.5A1.75 1.75 0 0120.25 22h-9.5A1.75 1.75 0 019 20.25V15H3.75A1.75 1.75 0 012 13.25v-9.5zm11.5 0V9h-2.75A1.75 1.75 0 009 10.75v2.75H3.75a.25.25 0 01-.25-.25v-9.5a.25.25 0 01.25-.25h9.5a.25.25 0 01.25.25zM13.25 15H10.5v5.25c0 .138.112.25.25.25h9.5a.25.25 0 00.25-.25v-9.5a.25.25 0 00-.25-.25H15v2.75A1.75 1.75 0 0113.25 15z"/></svg>