<svg xmlns="http://www.w3.org/2000/svg" width="24" height="24"><path fill-rule="evenodd" d="M4.324 1h12.352c.258 0 .494 0 .692.016.213.018.446.057.677.175.329.168.596.435.764.765.118.23.157.463.175.676.016.198.016.434.016.692V4.5h.676c.258 0 .494 0 .692.016.213.018.446.057.677.175.329.168.596.435.764.765.118.23.157.463.175.676.016.198.016.434.016.692v2.852c0 .258 0 .494-.016.692a1.775 1.775 0 01-.175.676 1.75 1.75 0 01-.765.765c-.23.118-.463.158-.676.175-.198.016-.434.016-.692.016H12.35c-.292 0-.467 0-.596.011a.638.638 0 00-.12.018.25.25 0 00-.105.104.636.636 0 00-.018.121c-.01.13-.011.304-.011.596V14h.176c.258 0 .494 0 .692.016.213.018.446.057.676.175.33.167.598.435.765.764.118.23.158.464.175.677.016.198.016.434.016.692v4.352c0 .258 0 .494-.016.692a1.775 1.775 0 01-.175.677 1.75 1.75 0 01-.764.764c-.23.118-.464.157-.677.175-.198.016-.434.016-.692.016h-1.352c-.258 0-.494 0-.692-.016a1.775 1.775 0 01-.676-.175 1.75 1.75 0 01-.765-.765 1.774 1.774 0 01-.175-.676A9.053 9.053 0 018 20.676v-4.352c0-.258 0-.494.016-.692a1.77 1.77 0 01.175-.676 1.75 1.75 0 01.765-.765c.23-.118.463-.158.676-.175.111-.009.235-.013.368-.015v-1.177c0-.258 0-.494.016-.692a1.77 1.77 0 01.175-.676 1.75 1.75 0 01.764-.765c.23-.118.464-.158.677-.175.198-.016.434-.016.692-.016h7.326c.292 0 .467 0 .596-.011a.636.636 0 00.12-.018.25.25 0 00.105-.104.636.636 0 00.018-.121c.01-.13.011-.304.011-.596v-2.8c0-.292 0-.467-.011-.596a.638.638 0 00-.018-.12.25.25 0 00-.105-.105.625.625 0 00-.12-.018A8.336 8.336 0 0019.65 6H19v.676c0 .258 0 .494-.016.692a1.775 1.775 0 01-.175.676 1.75 1.75 0 01-.765.765 1.77 1.77 0 01-.676.175C17.17 9 16.934 9 16.676 9H4.324c-.258 0-.494 0-.692-.016a1.774 1.774 0 01-.676-.175 1.75 1.75 0 01-.765-.765 1.774 1.774 0 01-.175-.676A9.052 9.052 0 012 6.676V3.324c0-.258 0-.494.016-.692a1.77 1.77 0 01.175-.676 1.75 1.75 0 01.765-.765 1.77 1.77 0 01.676-.175C3.83 1 4.066 1 4.324 1zm16.045 5.03h-.001.001zm.101.1v.002-.001zm0 4.24v-.002.001zm-.1.1h-.002.001zm-8.84 1.66v.002-.001zm.1-.1h.002-.001zM3.634 2.529a.626.626 0 01.121-.018c.13-.01.304-.011.596-.011h12.3c.292 0 .467 0 .596.011a.625.625 0 01.12.018.25.25 0 01.105.104.638.638 0 01.018.121c.01.13.011.304.011.596v3.3c0 .292 0 .467-.011.596a.638.638 0 01-.018.12.25.25 0 01-.105.105.626.626 0 01-.12.018c-.13.01-.304.011-.596.011H4.35c-.292 0-.467 0-.596-.011a.627.627 0 01-.12-.018.25.25 0 01-.105-.104.626.626 0 01-.018-.121A8.337 8.337 0 013.5 6.65v-3.3c0-.292 0-.467.011-.596a.626.626 0 01.018-.12.25.25 0 01.104-.105zm-.002 0h.001-.001zm-.101.102v.001-.001zm0 4.738v-.001.001zm.1.101h.002-.001zm13.74 0h-.002.001zm.1-.1v-.002.001zm0-4.74v.002-.001zm-.102-.1h.001-.001zm-7.737 13h.001-.001zm.002-.001a.638.638 0 01.121-.018c.13-.01.304-.011.596-.011h1.3c.292 0 .467 0 .596.011a.636.636 0 01.12.018.25.25 0 01.105.104.636.636 0 01.018.121c.01.13.011.304.011.596v4.3c0 .292 0 .467-.011.596a.636.636 0 01-.018.12.25.25 0 01-.104.105.636.636 0 01-.121.018c-.13.01-.304.011-.596.011h-1.3c-.292 0-.467 0-.596-.011a.638.638 0 01-.12-.018.25.25 0 01-.105-.105.625.625 0 01-.018-.12 8.336 8.336 0 01-.011-.596v-4.3c0-.292 0-.467.011-.596a.625.625 0 01.018-.12.25.25 0 01.104-.105zm-.103.102v.001-.001zm0 5.738v-.001.001zm.1.101h.002-.001zm2.74 0h-.002.001zm.1-.1v-.002.001zm0-5.74v.002-.001zm-.102-.1h.001-.001z"/></svg>