<svg xmlns="http://www.w3.org/2000/svg" width="24" height="24"><path fill-rule="evenodd" d="M11.518 0h.964c.813 0 1.469 0 2 .043.546.045 1.026.14 1.47.366a3.75 3.75 0 011.64 1.639c.226.444.32.924.365 1.47.043.531.043 1.187.043 2v8.658c0 .258 0 .494-.016.692a1.775 1.775 0 01-.175.676 1.75 1.75 0 01-.765.765 1.77 1.77 0 01-.676.175c-.198.016-.434.016-.692.016H15V21a3 3 0 11-6 0v-4.5h-.676c-.258 0-.494 0-.692-.016a1.775 1.775 0 01-.676-.175 1.75 1.75 0 01-.765-.765 1.774 1.774 0 01-.175-.676A9.053 9.053 0 016 14.176V5.518c0-.813 0-1.469.043-2 .045-.546.14-1.026.366-1.47A3.75 3.75 0 018.048.408c.444-.226.924-.32 1.47-.365C10.05 0 10.706 0 11.519 0zM10.5 16.5V21a1.5 1.5 0 003 0v-4.5h-3zM9.64 1.538c-.453.037-.714.107-.911.207a2.25 2.25 0 00-.984.984c-.1.197-.17.458-.207.912-.037.462-.038 1.057-.038 1.909V11h9V5.55c0-.852 0-1.447-.038-1.91-.038-.453-.107-.714-.207-.911a2.25 2.25 0 00-.983-.984c-.198-.1-.459-.17-.913-.207-.462-.037-1.056-.038-1.909-.038h-.9c-.853 0-1.447 0-1.91.038zM16.5 12.5h-9v1.65c0 .292 0 .467.011.596a.625.625 0 00.018.12.25.25 0 00.104.105.638.638 0 00.121.018c.13.01.304.011.596.011h7.3c.292 0 .467 0 .596-.011a.636.636 0 00.12-.018.25.25 0 00.105-.104.636.636 0 00.018-.121c.01-.13.011-.304.011-.596V12.5zm-.03 2.37v-.002.001zm-.1.1h-.002.001zm-8.74 0h.002-.001zm-.1-.102v.001-.001z"/></svg>