<svg xmlns="http://www.w3.org/2000/svg" width="24" height="24"><path fill-rule="evenodd" d="M19.473 9.138a7.5 7.5 0 10-14.947 0A7.5 7.5 0 0012 22.135a7.5 7.5 0 007.473-12.997zM12 2.5a6 6 0 00-6 5.927A7.488 7.488 0 018.5 8c1.264 0 2.455.313 3.5.865A7.467 7.467 0 0115.5 8c.876 0 1.718.15 2.5.427A6 6 0 0012 2.5zm5.82 7.465A5.982 5.982 0 0015.5 9.5a5.98 5.98 0 00-2.055.361 7.505 7.505 0 012.213 3.395 6.004 6.004 0 002.162-3.291zm-7.265-.104A5.989 5.989 0 008.5 9.5c-.822 0-1.606.165-2.32.465a6.004 6.004 0 002.161 3.29 7.505 7.505 0 012.214-3.394zm-.875 4.174A6.007 6.007 0 0112 10.626a6.007 6.007 0 012.32 3.41A5.993 5.993 0 0112 14.5a5.983 5.983 0 01-2.32-.465zm-1.653.827a7.519 7.519 0 01-3.186-4.118 6 6 0 005.713 10.395 7.482 7.482 0 01-2.527-6.277zM12 20.374a5.992 5.992 0 01-2.5-4.8A7.488 7.488 0 0012 16c.876 0 1.718-.15 2.5-.427a5.992 5.992 0 01-2.5 4.801zm1.445.765a7.482 7.482 0 002.528-6.277 7.518 7.518 0 003.185-4.118 6 6 0 01-5.713 10.395z"/></svg>