<svg xmlns="http://www.w3.org/2000/svg" width="24" height="24"><path fill-rule="evenodd" d="M11.116.51a1.25 1.25 0 011.768 0l3.889 3.889a1.25 1.25 0 010 1.767l-3.89 3.89a1.25 1.25 0 01-1.767 0l-3.889-3.89a1.25 1.25 0 010-1.767l3.89-3.89zm1.06 1.414a.25.25 0 00-.353 0L8.641 5.106a.25.25 0 000 .353l3.182 3.182a.25.25 0 00.354 0l3.182-3.182a.25.25 0 000-.353l-3.182-3.182zm-6.01 5.303a1.25 1.25 0 00-1.767 0l-3.89 3.89a1.25 1.25 0 000 1.767l3.89 3.889a1.25 1.25 0 001.767 0l3.89-3.89a1.25 1.25 0 000-1.767l-3.89-3.889zm-4.242 4.95a.25.25 0 010-.354l3.182-3.182a.25.25 0 01.353 0l3.182 3.182a.25.25 0 010 .354L5.46 15.359a.25.25 0 01-.353 0l-3.182-3.182zm9.192 1.767l-3.889 3.89a1.25 1.25 0 000 1.767l3.89 3.89a1.25 1.25 0 001.767 0l3.889-3.89a1.25 1.25 0 000-1.767l-3.89-3.89a1.25 1.25 0 00-1.767 0zm-2.475 4.95a.25.25 0 010-.353l3.182-3.182a.25.25 0 01.354 0l3.182 3.182a.25.25 0 010 .353l-3.182 3.182a.25.25 0 01-.354 0l-3.182-3.182zm10.96-11.667a1.25 1.25 0 00-1.767 0l-3.89 3.89a1.25 1.25 0 000 1.767l3.89 3.889a1.25 1.25 0 001.767 0l3.89-3.89a1.25 1.25 0 000-1.767L19.6 7.227zm-4.242 4.95a.25.25 0 010-.354l3.182-3.182a.25.25 0 01.353 0l3.182 3.182a.25.25 0 010 .354l-3.182 3.182a.25.25 0 01-.353 0l-3.182-3.182z"/></svg>