<svg xmlns="http://www.w3.org/2000/svg" width="24" height="24"><path d="M12.335 1.139a.475.475 0 00-.67 0L7.639 5.165a.474.474 0 000 .67l4.026 4.026a.475.475 0 00.67 0l4.026-4.026a.474.474 0 000-.67l-4.026-4.026zm0 13a.474.474 0 00-.67 0l-4.026 4.026a.475.475 0 000 .67l4.026 4.026a.474.474 0 00.67 0l4.026-4.026a.474.474 0 000-.67l-4.026-4.026zm10.526-2.474a.474.474 0 010 .67l-4.026 4.026a.474.474 0 01-.67 0l-4.026-4.026a.474.474 0 010-.67l4.026-4.026a.475.475 0 01.67 0l4.026 4.026zm-13 .67a.475.475 0 000-.67L5.835 7.639a.474.474 0 00-.67 0l-4.026 4.026a.475.475 0 000 .67l4.026 4.026a.474.474 0 00.67 0l4.026-4.026z"/></svg>