<svg xmlns="http://www.w3.org/2000/svg" width="24" height="24"><path fill-rule="evenodd" d="M11.5 2.529c-4.938.382-9 4.497-9 9.471s4.062 9.089 9 9.471V2.529zm1.5 0c.304.024.604.062.899.113a.75.75 0 10.258-1.477A11.065 11.065 0 0012.25 1C6.198 1 1 5.902 1 12s5.198 11 11.25 11c.65 0 1.286-.056 1.905-.165a.75.75 0 00-.258-1.477c-.294.051-.594.09-.897.113V2.529zm4.267.644a.75.75 0 011.045-.183 11.058 11.058 0 012.7 2.701.75.75 0 11-1.228.862 9.557 9.557 0 00-2.333-2.335.75.75 0 01-.184-1.045zm4.7 6.31a.75.75 0 01.868.61 11.064 11.064 0 010 3.814.75.75 0 01-1.477-.258 9.568 9.568 0 000-3.297.75.75 0 01.61-.869zm-1.142 7.787a.75.75 0 01.183 1.045 11.059 11.059 0 01-2.697 2.695.75.75 0 11-.861-1.227 9.559 9.559 0 002.33-2.33.75.75 0 011.045-.183z"/></svg>