<svg xmlns="http://www.w3.org/2000/svg" width="24" height="24"><path fill-rule="evenodd" d="M20.25 2a.75.75 0 01.75.75v2.5A1.75 1.75 0 0119.25 7H4.75A1.75 1.75 0 013 5.25v-2.5a.75.75 0 011.5 0v2.5c0 .138.112.25.25.25h14.5a.25.25 0 00.25-.25v-2.5a.75.75 0 01.75-.75zm0 20a.75.75 0 00.75-.75v-2.5A1.75 1.75 0 0019.25 17H4.75A1.75 1.75 0 003 18.75v2.5a.75.75 0 001.5 0v-2.5a.25.25 0 01.25-.25h14.5a.25.25 0 01.25.25v2.5c0 .414.336.75.75.75zM22 12a.75.75 0 00-.75-.75H2.75a.75.75 0 000 1.5h18.5A.75.75 0 0022 12z"/></svg>