<svg xmlns="http://www.w3.org/2000/svg" width="24" height="24"><path fill-rule="evenodd" d="M22 20.25a.75.75 0 01-.75.75h-2.5A1.75 1.75 0 0117 19.25V4.75c0-.966.784-1.75 1.75-1.75h2.5a.75.75 0 010 1.5h-2.5a.25.25 0 00-.25.25v14.5c0 .138.112.25.25.25h2.5a.75.75 0 01.75.75zm-20 0c0 .414.336.75.75.75h2.5A1.75 1.75 0 007 19.25V4.75A1.75 1.75 0 005.25 3h-2.5a.75.75 0 000 1.5h2.5a.25.25 0 01.25.25v14.5a.25.25 0 01-.25.25h-2.5a.75.75 0 00-.75.75zM12 22a.75.75 0 00.75-.75V2.75a.75.75 0 00-1.5 0v18.5c0 .414.336.75.75.75z"/></svg>