<svg xmlns="http://www.w3.org/2000/svg" width="24" height="24"><path d="M15.353 8.244c.995-.619 2.638-.95 4.154-1.11A25.419 25.419 0 0122.112 7h.047c.456.009.832-.32.84-.735.01-.414-.353-.756-.809-.764h-.235a27.233 27.233 0 00-2.638.145c-1.54.162-3.541.519-4.895 1.361-1.211.753-2.01 2.001-2.495 2.973a11.838 11.838 0 00-.715 1.794l-.009.032-.002.01-.001.003v.001l-.002.004-.006.02-.026.09a10.393 10.393 0 01-.595 1.47c-.449.897-1.094 1.836-1.924 2.353-.995.619-2.639.95-4.154 1.11A25.425 25.425 0 011.888 17H1.84c-.456-.009-.832.32-.84.735-.01.414.353.756.808.764h.237a27.223 27.223 0 002.638-.145c1.54-.162 3.541-.519 4.895-1.361 1.211-.753 2.01-2.001 2.495-2.973a11.836 11.836 0 00.715-1.794l.009-.032.002-.01.001-.003v-.001l.002-.004.006-.02.026-.09a10.393 10.393 0 01.595-1.47c.449-.897 1.094-1.836 1.924-2.353z"/></svg>