<svg xmlns="http://www.w3.org/2000/svg" width="24" height="24"><path d="M23.78 12.53a.75.75 0 00-.53-1.28h-3.5a.75.75 0 100 1.5h3.5a.75.75 0 00.53-.22zm-19 0a.75.75 0 00-.53-1.28H.75a.75.75 0 100 1.5h3.5a.75.75 0 00.53-.22zm16.174-8.735a.75.75 0 00-1.28-.53l-2.267 2.268a.75.75 0 001.06 1.06l2.268-2.268a.75.75 0 00.22-.53zM6.812 17.937a.75.75 0 00-1.28-.53l-2.267 2.268a.75.75 0 101.06 1.06l2.268-2.268a.75.75 0 00.22-.53zM12.53.22a.75.75 0 00-1.28.53v3.5a.75.75 0 101.5 0V.75a.75.75 0 00-.22-.53zm0 19a.75.75 0 00-1.28.53v3.5a.75.75 0 101.5 0v-3.5a.75.75 0 00-.22-.53zM3.795 3.046a.75.75 0 00-.53 1.279l2.268 2.268a.75.75 0 101.06-1.06L4.325 3.265a.75.75 0 00-.53-.22zm14.142 14.142a.75.75 0 00-.53 1.28l2.268 2.267a.75.75 0 001.06-1.06l-2.268-2.268a.75.75 0 00-.53-.22z"/><path fill-rule="evenodd" d="M12 8a4 4 0 100 8 4 4 0 000-8zm-2.5 4a2.5 2.5 0 115 0 2.5 2.5 0 01-5 0z"/></svg>