<svg xmlns="http://www.w3.org/2000/svg" width="24" height="24"><path fill-rule="evenodd" d="M17.58 1.937l-.019-.019a9.074 9.074 0 00-.503-.477 1.787 1.787 0 00-.605-.355 1.768 1.768 0 00-1.087 0 1.78 1.78 0 00-.605.355c-.152.128-.32.294-.502.476l-.001.001-.019.019L1.922 14.189c-.182.182-.35.349-.48.5a1.783 1.783 0 00-.356.602c-.115.351-.115.73 0 1.081.08.246.218.44.357.602.129.151.297.319.48.5l3.941 3.921C6.132 21.66 6.5 22 7 22h14.357a.752.752 0 00.754-.75.752.752 0 00-.754-.75h-9.535a.25.25 0 01-.176-.427l10.43-10.377c.184-.182.352-.349.481-.5a1.77 1.77 0 00.357-.602c.115-.351.115-.73 0-1.081a1.77 1.77 0 00-.357-.602 9.08 9.08 0 00-.48-.5L17.58 1.936zM8.71 20.5a1 1 0 00.707-.293l8.158-8.154-5.686-5.657-8.881 8.834a8.17 8.17 0 00-.416.43.625.625 0 00-.073.098.249.249 0 000 .148.627.627 0 00.073.097c.085.1.208.223.416.43l3.755 3.772a1 1 0 00.709.295H8.71zm9.931-9.507l-5.686-5.657 2.35-2.339a8.42 8.42 0 01.432-.413.633.633 0 01.098-.073.253.253 0 01.149 0 .636.636 0 01.098.073c.1.084.224.207.432.413l4.478 4.455c.208.207.331.33.416.43.051.06.069.09.073.097.015.048.015.1 0 .148a.635.635 0 01-.073.098 8.391 8.391 0 01-.416.43l-2.35 2.338z"/></svg>