<svg xmlns="http://www.w3.org/2000/svg" width="24" height="24"><path fill-rule="evenodd" d="M4 4.5A4.5 4.5 0 018.5 0h7a4.5 4.5 0 012.532 8.22 4.375 4.375 0 11-5.282 6.952v4.453a4.375 4.375 0 01-8.75 0v-.25a4.62 4.62 0 012.013-3.817A4.372 4.372 0 014 11.875a4.37 4.37 0 011.968-3.654A4.495 4.495 0 014 4.5zm7.25 10.25V9H8.375a2.875 2.875 0 000 5.75h2.875zm-2.625 1.5A3.125 3.125 0 005.5 19.375v.25a2.875 2.875 0 005.75 0V16.25H8.625zm7-1.5a2.875 2.875 0 110-5.75 2.875 2.875 0 010 5.75zM11.25 7.5H8.5a3 3 0 010-6h2.75v6zm4.25 0h-2.75v-6h2.75a3 3 0 110 6z"/></svg>