<svg xmlns="http://www.w3.org/2000/svg" width="24" height="24"><path d="M14 3.5A1.5 1.5 0 0012.5 2h-9A1.5 1.5 0 002 3.5v6A1.5 1.5 0 003.5 11h9A1.5 1.5 0 0014 9.5v-6zm4.999 18.502h1a.25.25 0 00.25-.25V7.002h2.5a.25.25 0 00.19-.412l-.003-.004a.406.406 0 01-.022-.027l-3.227-4.47a.165.165 0 00-.026-.03.25.25 0 00-.324 0 .166.166 0 00-.027.03l-3.224 4.47c-.007.01-.015.018-.023.027l-.003.004a.25.25 0 00.19.412h2.499v14.75c0 .138.112.25.25.25z"/><path fill-rule="evenodd" d="M3.75 22A1.75 1.75 0 012 20.25v-5.5c0-.966.784-1.75 1.75-1.75h8.5c.966 0 1.75.784 1.75 1.75v5.5A1.75 1.75 0 0112.25 22h-8.5zm-.25-1.75c0 .138.112.25.25.25h8.5a.25.25 0 00.25-.25v-5.5a.25.25 0 00-.25-.25h-8.5a.25.25 0 00-.25.25v5.5z"/></svg>