<svg xmlns="http://www.w3.org/2000/svg" width="24" height="24"><path fill-rule="evenodd" d="M3.75 11A1.75 1.75 0 012 9.25v-5.5C2 2.784 2.784 2 3.75 2h8.5c.966 0 1.75.784 1.75 1.75v5.5A1.75 1.75 0 0112.25 11h-8.5zM3.5 9.25c0 .138.112.25.25.25h8.5a.25.25 0 00.25-.25v-5.5a.25.25 0 00-.25-.25h-8.5a.25.25 0 00-.25.25v5.5z"/><path d="M18.999 2h1a.25.25 0 01.25.25V17h2.5a.25.25 0 01.19.412l-.003.004-.022.027-3.227 4.47a.167.167 0 01-.026.03.25.25 0 01-.324 0 .164.164 0 01-.027-.03l-3.224-4.47c-.007-.01-.015-.018-.023-.027l-.003-.004a.25.25 0 01.19-.412h2.499V2.25a.25.25 0 01.25-.25zM14 14.5a1.5 1.5 0 00-1.5-1.5h-9A1.5 1.5 0 002 14.5v6A1.5 1.5 0 003.5 22h9a1.5 1.5 0 001.5-1.5v-6z"/></svg>