<svg xmlns="http://www.w3.org/2000/svg" width="24" height="24"><path fill-rule="evenodd" d="M2.75 1A1.75 1.75 0 001 2.75v6.5c0 .966.784 1.75 1.75 1.75h2.5A1.75 1.75 0 007 9.25v-6.5A1.75 1.75 0 005.25 1h-2.5zM2.5 2.75a.25.25 0 01.25-.25h2.5a.25.25 0 01.25.25v6.5a.25.25 0 01-.25.25h-2.5a.25.25 0 01-.25-.25v-6.5zM10.75 13A1.75 1.75 0 009 14.75v6.5c0 .966.784 1.75 1.75 1.75h2.5A1.75 1.75 0 0015 21.25v-6.5A1.75 1.75 0 0013.25 13h-2.5zm-.25 1.75a.25.25 0 01.25-.25h2.5a.25.25 0 01.25.25v6.5a.25.25 0 01-.25.25h-2.5a.25.25 0 01-.25-.25v-6.5zm6.5-12c0-.966.784-1.75 1.75-1.75h2.5c.966 0 1.75.784 1.75 1.75v6.5A1.75 1.75 0 0121.25 11h-2.5A1.75 1.75 0 0117 9.25v-6.5zm1.75-.25a.25.25 0 00-.25.25v6.5c0 .138.112.25.25.25h2.5a.25.25 0 00.25-.25v-6.5a.25.25 0 00-.25-.25h-2.5z"/><path d="M13.5 11A1.5 1.5 0 0015 9.5v-7A1.5 1.5 0 0013.5 1h-3A1.5 1.5 0 009 2.5v7a1.5 1.5 0 001.5 1.5h3zm9 10.5A1.5 1.5 0 0121 23h-3a1.5 1.5 0 01-1.5-1.5v-7A1.5 1.5 0 0118 13h3a1.5 1.5 0 011.5 1.5v7zM5.5 23A1.5 1.5 0 007 21.5v-7A1.5 1.5 0 005.5 13h-3A1.5 1.5 0 001 14.5v7A1.5 1.5 0 002.5 23h3z"/></svg>