<svg xmlns="http://www.w3.org/2000/svg" width="24" height="24"><path fill-rule="evenodd" d="M1 8.75C1 7.784 1.784 7 2.75 7h2.5C6.216 7 7 7.784 7 8.75v6.5A1.75 1.75 0 015.25 17h-2.5A1.75 1.75 0 011 15.25v-6.5zm1.75-.25a.25.25 0 00-.25.25v6.5c0 .138.112.25.25.25h2.5a.25.25 0 00.25-.25v-6.5a.25.25 0 00-.25-.25h-2.5zM17 8.75c0-.966.784-1.75 1.75-1.75h2.5c.966 0 1.75.784 1.75 1.75v6.5A1.75 1.75 0 0121.25 17h-2.5A1.75 1.75 0 0117 15.25v-6.5zm1.75-.25a.25.25 0 00-.25.25v6.5c0 .138.112.25.25.25h2.5a.25.25 0 00.25-.25v-6.5a.25.25 0 00-.25-.25h-2.5z"/><path d="M13.5 17a1.5 1.5 0 001.5-1.5v-7A1.5 1.5 0 0013.5 7h-3A1.5 1.5 0 009 8.5v7a1.5 1.5 0 001.5 1.5h3z"/></svg>