<svg xmlns="http://www.w3.org/2000/svg" width="24" height="24"><path fill-rule="evenodd" d="M2 2.75C2 1.784 2.784 1 3.75 1h5.5c.966 0 1.75.784 1.75 1.75v8.5A1.75 1.75 0 019.25 13h-5.5A1.75 1.75 0 012 11.25v-8.5zm1.75-.25a.25.25 0 00-.25.25v8.5c0 .138.112.25.25.25h5.5a.25.25 0 00.25-.25v-8.5a.25.25 0 00-.25-.25h-5.5z"/><path d="M2 20v-1a.25.25 0 01.25-.25H17v-2.5a.25.25 0 01.412-.19l.004.002c.009.008.017.016.027.023l4.47 3.226.03.027a.25.25 0 010 .324.164.164 0 01-.03.027l-4.47 3.224a.204.204 0 00-.027.023l-.004.003a.25.25 0 01-.412-.19V20.25H2.25A.25.25 0 012 20zM14.5 1A1.5 1.5 0 0013 2.5v9a1.5 1.5 0 001.5 1.5h6a1.5 1.5 0 001.5-1.5v-9A1.5 1.5 0 0020.5 1h-6z"/></svg>