<svg xmlns="http://www.w3.org/2000/svg" width="24" height="24"><path fill-rule="evenodd" d="M14 2.75c0-.966.784-1.75 1.75-1.75h5.5c.966 0 1.75.784 1.75 1.75v8.5A1.75 1.75 0 0121.25 13h-5.5A1.75 1.75 0 0114 11.25v-8.5zm1.75-.25a.25.25 0 00-.25.25v8.5c0 .138.112.25.25.25h5.5a.25.25 0 00.25-.25v-8.5a.25.25 0 00-.25-.25h-5.5z"/><path d="M22 20.001v-1a.25.25 0 00-.25-.25H7.001v-2.5a.25.25 0 00-.412-.19l-.003.002a.406.406 0 01-.028.023L2.09 19.313a.169.169 0 00-.03.026.25.25 0 000 .324l.03.027 4.47 3.224.027.023.003.003a.25.25 0 00.412-.19v-2.5H21.75A.25.25 0 0022 20zM4.25 1a1.5 1.5 0 00-1.5 1.5v9a1.5 1.5 0 001.5 1.5h6a1.5 1.5 0 001.5-1.5v-9a1.5 1.5 0 00-1.5-1.5h-6z"/></svg>