<svg xmlns="http://www.w3.org/2000/svg" width="24" height="24"><path fill-rule="evenodd" d="M23 2.75A1.75 1.75 0 0021.25 1h-6.5A1.75 1.75 0 0013 2.75v2.5c0 .966.784 1.75 1.75 1.75h6.5A1.75 1.75 0 0023 5.25v-2.5zm-1.75-.25a.25.25 0 01.25.25v2.5a.25.25 0 01-.25.25h-6.5a.25.25 0 01-.25-.25v-2.5a.25.25 0 01.25-.25h6.5zM11 10.75A1.75 1.75 0 009.25 9h-6.5A1.75 1.75 0 001 10.75v2.5c0 .966.784 1.75 1.75 1.75h6.5A1.75 1.75 0 0011 13.25v-2.5zm-1.75-.25a.25.25 0 01.25.25v2.5a.25.25 0 01-.25.25h-6.5a.25.25 0 01-.25-.25v-2.5a.25.25 0 01.25-.25h6.5zm12 6.5c.966 0 1.75.784 1.75 1.75v2.5A1.75 1.75 0 0121.25 23h-6.5A1.75 1.75 0 0113 21.25v-2.5c0-.966.784-1.75 1.75-1.75h6.5zm.25 1.75a.25.25 0 00-.25-.25h-6.5a.25.25 0 00-.25.25v2.5c0 .138.112.25.25.25h6.5a.25.25 0 00.25-.25v-2.5z"/><path d="M13 13.5a1.5 1.5 0 001.5 1.5h7a1.5 1.5 0 001.5-1.5v-3A1.5 1.5 0 0021.5 9h-7a1.5 1.5 0 00-1.5 1.5v3zM2.5 23A1.5 1.5 0 011 21.5v-3A1.5 1.5 0 012.5 17h7a1.5 1.5 0 011.5 1.5v3A1.5 1.5 0 019.5 23h-7zM1 5.5A1.5 1.5 0 002.5 7h7A1.5 1.5 0 0011 5.5v-3A1.5 1.5 0 009.5 1h-7A1.5 1.5 0 001 2.5v3z"/></svg>