<svg xmlns="http://www.w3.org/2000/svg" width="24" height="24"><path d="M21.25 2.5a.75.75 0 000-1.5H2.75a.75.75 0 000 1.5h18.5zM22 22.25a.75.75 0 01-.75.75H2.75a.75.75 0 010-1.5h18.5a.75.75 0 01.75.75zm-4.53-7.604l1.97-1.916H4.56l1.97 1.916a.719.719 0 01-.019 1.014.76.76 0 01-1.042.018l-3.25-3.162a.72.72 0 010-1.032l3.25-3.162a.762.762 0 011.042.018.719.719 0 01.018 1.013L4.56 11.27h14.88l-1.97-1.916a.73.73 0 01-.238-.521.712.712 0 01.22-.53.752.752 0 01.543-.213.767.767 0 01.536.232l3.25 3.162A.72.72 0 0122 12a.72.72 0 01-.22.516l-3.25 3.162a.75.75 0 01-.536.232.769.769 0 01-.543-.214.73.73 0 01-.22-.528.712.712 0 01.239-.521z"/></svg>