<svg xmlns="http://www.w3.org/2000/svg" width="24" height="24"><path d="M2.5 2.75a.75.75 0 00-1.5 0v18.5a.75.75 0 001.5 0V2.75zM22.25 2a.75.75 0 01.75.75v18.5a.75.75 0 01-1.5 0V2.75a.75.75 0 01.75-.75zm-7.604 4.53L12.73 4.56v14.88l1.916-1.97a.719.719 0 011.014.019.76.76 0 01.018 1.042l-3.162 3.25a.72.72 0 01-1.032 0l-3.162-3.25a.762.762 0 01.018-1.042.719.719 0 011.013-.018l1.917 1.97V4.56L9.354 6.53a.73.73 0 01-.521.238.712.712 0 01-.53-.22.752.752 0 01-.213-.543.768.768 0 01.232-.536l3.162-3.25A.72.72 0 0112 2a.72.72 0 01.516.22l3.162 3.25a.75.75 0 01.232.536.769.769 0 01-.214.543.728.728 0 01-.528.22.713.713 0 01-.521-.239z"/></svg>