<svg xmlns="http://www.w3.org/2000/svg" width="24" height="24"><path d="M23 1.75a.75.75 0 01-.75.75H1.75a.75.75 0 010-1.5h20.5a.75.75 0 01.75.75zM12.73 6.56l1.916 1.97a.73.73 0 00.521.239.713.713 0 00.53-.22.752.752 0 00.213-.543.769.769 0 00-.232-.536l-3.162-3.25A.72.72 0 0012 4a.72.72 0 00-.516.22L8.322 7.47a.75.75 0 00-.232.536.768.768 0 00.214.543.729.729 0 00.529.22.713.713 0 00.52-.239l1.917-1.97v10.88l-1.916-1.97a.719.719 0 00-1.014.019.762.762 0 00-.018 1.042l3.162 3.25a.72.72 0 001.031 0l3.163-3.25a.762.762 0 00-.018-1.042.719.719 0 00-1.014-.018l-1.916 1.97V6.56zM22.25 23a.75.75 0 000-1.5H1.75a.75.75 0 000 1.5h20.5z"/></svg>