<svg xmlns="http://www.w3.org/2000/svg" width="24" height="24"><path d="M1.75 1a.75.75 0 01.75.75v20.5a.75.75 0 01-1.5 0V1.75A.75.75 0 011.75 1zm4.81 10.27l1.97-1.917a.73.73 0 00.239-.52.712.712 0 00-.22-.53.752.752 0 00-.543-.213.768.768 0 00-.536.232l-3.25 3.162A.72.72 0 004 12c0 .193.08.379.22.516l3.25 3.162a.75.75 0 00.536.232.767.767 0 00.543-.214.728.728 0 00.22-.528.713.713 0 00-.239-.521L6.56 12.73h10.88l-1.97 1.916a.719.719 0 00.019 1.014.76.76 0 001.042.018l3.25-3.162a.72.72 0 000-1.031l-3.25-3.163a.762.762 0 00-1.042.018.719.719 0 00-.018 1.013l1.97 1.917H6.56zM23 1.75a.75.75 0 00-1.5 0v20.5a.75.75 0 001.5 0V1.75z"/></svg>