<svg xmlns="http://www.w3.org/2000/svg" width="24" height="24"><path fill-rule="evenodd" d="M2 3.75C2 2.784 2.784 2 3.75 2h5.5c.966 0 1.75.784 1.75 1.75v5.5A1.75 1.75 0 019.25 11h-5.5A1.75 1.75 0 012 9.25v-5.5zm1.75-.25a.25.25 0 00-.25.25v5.5c0 .138.112.25.25.25h5.5a.25.25 0 00.25-.25v-5.5a.25.25 0 00-.25-.25h-5.5zM2 14.75c0-.966.784-1.75 1.75-1.75h5.5c.966 0 1.75.784 1.75 1.75v5.5A1.75 1.75 0 019.25 22h-5.5A1.75 1.75 0 012 20.25v-5.5zm1.75-.25a.25.25 0 00-.25.25v5.5c0 .138.112.25.25.25h5.5a.25.25 0 00.25-.25v-5.5a.25.25 0 00-.25-.25h-5.5zm11-12.5A1.75 1.75 0 0013 3.75v5.5c0 .966.784 1.75 1.75 1.75h5.5A1.75 1.75 0 0022 9.25v-5.5A1.75 1.75 0 0020.25 2h-5.5zm-.25 1.75a.25.25 0 01.25-.25h5.5a.25.25 0 01.25.25v5.5a.25.25 0 01-.25.25h-5.5a.25.25 0 01-.25-.25v-5.5zm-1.5 11c0-.966.784-1.75 1.75-1.75h5.5c.966 0 1.75.784 1.75 1.75v5.5A1.75 1.75 0 0120.25 22h-5.5A1.75 1.75 0 0113 20.25v-5.5zm1.75-.25a.25.25 0 00-.25.25v5.5c0 .138.112.25.25.25h5.5a.25.25 0 00.25-.25v-5.5a.25.25 0 00-.25-.25h-5.5z"/></svg>