<svg xmlns="http://www.w3.org/2000/svg" width="24" height="24"><path d="M5.25 2.5H2.5v2.75a.75.75 0 01-1.5 0V2a1 1 0 011-1h3.25a.75.75 0 010 1.5zM2.5 10.75a.75.75 0 00-1.5 0v2.5a.75.75 0 001.5 0v-2.5zM22.25 10a.75.75 0 01.75.75v2.5a.75.75 0 01-1.5 0v-2.5a.75.75 0 01.75-.75zm-9-7.5a.75.75 0 000-1.5h-2.5a.75.75 0 000 1.5h2.5zM14 22.25a.75.75 0 01-.75.75h-2.5a.75.75 0 010-1.5h2.5a.75.75 0 01.75.75zM18.75 2.5h2.75v2.75a.75.75 0 001.5 0V2a1 1 0 00-1-1h-3.25a.75.75 0 000 1.5zM2.5 21.5h2.75a.75.75 0 010 1.5H2a1 1 0 01-1-1v-3.25a.75.75 0 011.5 0v2.75zm16.25 0h2.75v-2.75a.75.75 0 011.5 0V22a1 1 0 01-1 1h-3.25a.75.75 0 010-1.5z"/></svg>