<svg xmlns="http://www.w3.org/2000/svg" width="24" height="24"><path fill-rule="evenodd" d="M13.93 17.119a16.43 16.43 0 01-3.761.552c-.859 1.806-2.523 3.54-5.511 4.31a.75.75 0 11-.374-1.453c2.133-.55 3.44-1.67 4.209-2.909a12.008 12.008 0 01-2.63-.527c-2.485-.807-4.155-2.374-4.684-4.358-.53-1.983.14-4.174 1.892-6.111C4.82 4.69 7.372 3.299 10.064 2.58s5.598-.782 8.077.024c2.484.808 4.155 2.375 4.684 4.358.529 1.984-.14 4.174-1.893 6.112-1.708 1.888-4.183 3.26-6.807 3.99a13.644 13.644 0 01-.195.053zm-9.746-9.49c1.514-1.673 3.79-2.938 6.267-3.599 2.476-.66 5.08-.696 7.226.002 2.14.696 3.335 1.952 3.699 3.318.364 1.365-.046 3.05-1.556 4.719-1.513 1.672-3.787 2.936-6.262 3.597a12.24 12.24 0 01-2.816.369c.16-.674.225-1.319.225-1.886v-.002c0-1.313-.414-2.361-1.093-3.108A3.828 3.828 0 007.419 9.81c-.883-.088-1.798.128-2.507.672-.726.557-1.191 1.424-1.191 2.516 0 .522.095.994.267 1.417-.714-.607-1.161-1.32-1.36-2.067-.364-1.365.046-3.05 1.556-4.719zm1.037 5.369c0 1.235.911 2.163 2.607 2.67.432.13.9.225 1.39.286a6.812 6.812 0 00.249-1.807v-.002c0-.984-.305-1.659-.703-2.097a2.327 2.327 0 00-1.495-.745c-.553-.056-1.076.087-1.444.37-.35.268-.604.693-.604 1.325z"/></svg>