<svg xmlns="http://www.w3.org/2000/svg" width="24" height="24"><path fill-rule="evenodd" d="M12.23 3.521a1.25 1.25 0 00-.46 0c-.179.034-.339.115-.436.164l-.027.014-9.9 5.075a.75.75 0 000 1.334L5.1 12l-3.691 1.892a.75.75 0 000 1.335l9.892 5.071.007.004.027.014c.097.049.257.13.436.163.152.029.308.029.46 0 .179-.033.339-.114.436-.163l.027-.014 9.9-5.075a.75.75 0 000-1.335L18.9 12l3.691-1.892a.75.75 0 000-1.334L12.7 3.702l-.007-.003-.027-.014a1.637 1.637 0 00-.436-.164zm-8.836 5.92l8.587-4.402.019-.01.019.01 8.587 4.402-8.587 4.402-.019.01-.019-.01-8.587-4.402zm13.863 3.402l-4.564 2.34-.027.014c-.097.049-.257.13-.436.164a1.25 1.25 0 01-.46 0 1.647 1.647 0 01-.436-.164l-.027-.014-.007-.003-4.557-2.337-3.349 1.717 8.587 4.402.019.01.019-.01 8.587-4.402-3.349-1.717z"/></svg>