<svg xmlns="http://www.w3.org/2000/svg" width="24" height="24"><path fill-rule="evenodd" d="M5.04 9.47L1.408 7.608a.75.75 0 010-1.334l9.899-5.075.027-.014c.097-.05.257-.13.436-.164a1.25 1.25 0 01.46 0c.179.034.339.115.436.164l.027.014.007.003 9.892 5.072a.75.75 0 010 1.334L18.96 9.47l3.632 1.863a.75.75 0 010 1.334l-3.635 1.864 3.635 1.863a.75.75 0 010 1.335l-9.899 5.075-.027.014c-.097.049-.257.13-.436.163a1.25 1.25 0 01-.46 0 1.647 1.647 0 01-.436-.164l-.027-.013-.007-.004-9.892-5.07a.75.75 0 010-1.336l3.635-1.863-3.635-1.864a.75.75 0 010-1.334L5.04 9.47zM3.394 6.941l8.587-4.402.019-.01.019.01 8.587 4.402-3.527 1.808a.752.752 0 00-.226.116l-4.834 2.478-.019.01-.019-.01-4.834-2.478a.752.752 0 00-.226-.116L3.394 6.94zm3.29 3.372L3.394 12l3.54 1.815a.754.754 0 01.201.103l4.846 2.484.019.01.019-.01 4.846-2.484a.752.752 0 01.2-.103L20.605 12l-3.29-1.687-4.622 2.37-.027.014c-.097.049-.257.13-.436.164a1.25 1.25 0 01-.46 0 1.647 1.647 0 01-.436-.164l-.027-.014-.007-.003-4.616-2.367zm-3.29 6.749l3.293-1.688 4.613 2.365.007.003.027.014c.097.049.257.13.436.164.152.028.308.028.46 0 .179-.034.339-.115.436-.164l.027-.014 4.62-2.368 3.293 1.688-8.587 4.402-.019.01-.019-.01-8.587-4.402z"/></svg>