<svg xmlns="http://www.w3.org/2000/svg" width="24" height="24"><path d="M22 7.25a.75.75 0 01-1.5 0V2.5h-17v4.75a.75.75 0 01-1.5 0v-5.5A.75.75 0 012.75 1h18.5a.75.75 0 01.75.75v5.5z"/><path d="M2 12a.75.75 0 01.75-.75H7V6a1 1 0 011-1h2a1 1 0 011 1v5.25h2V9a1 1 0 011-1h2a1 1 0 011 1v2.25h4.25a.75.75 0 010 1.5H17V15a1 1 0 01-1 1h-2a1 1 0 01-1-1v-2.25h-2V18a1 1 0 01-1 1H8a1 1 0 01-1-1v-5.25H2.75A.75.75 0 012 12z"/><path d="M21.25 16a.75.75 0 01.75.75v5.5a.75.75 0 01-.75.75H2.75a.75.75 0 01-.75-.75v-5.5a.75.75 0 011.5 0v4.75h17v-4.75a.75.75 0 01.75-.75z"/></svg>