<svg xmlns="http://www.w3.org/2000/svg" width="24" height="24"><path d="M5 5.25A.25.25 0 015.25 5h2.5a.25.25 0 01.25.25v2.5a.25.25 0 01-.25.25h-2.5A.25.25 0 015 7.75v-2.5zm5.5 0a.25.25 0 01.25-.25h2.5a.25.25 0 01.25.25v2.5a.25.25 0 01-.25.25h-2.5a.25.25 0 01-.25-.25v-2.5zM16.25 5a.25.25 0 00-.25.25v2.5c0 .138.112.25.25.25h2.5a.25.25 0 00.25-.25v-2.5a.25.25 0 00-.25-.25h-2.5zM5 10.75a.25.25 0 01.25-.25h2.5a.25.25 0 01.25.25v2.5a.25.25 0 01-.25.25h-2.5a.25.25 0 01-.25-.25v-2.5zm5.75-.25a.25.25 0 00-.25.25v2.5c0 .138.112.25.25.25h2.5a.25.25 0 00.25-.25v-2.5a.25.25 0 00-.25-.25h-2.5zm5.25.25a.25.25 0 01.25-.25h2.5a.25.25 0 01.25.25v2.5a.25.25 0 01-.25.25h-2.5a.25.25 0 01-.25-.25v-2.5zM5.25 16a.25.25 0 00-.25.25v2.5c0 .138.112.25.25.25h2.5a.25.25 0 00.25-.25v-2.5a.25.25 0 00-.25-.25h-2.5zm5.25.25a.25.25 0 01.25-.25h2.5a.25.25 0 01.25.25v2.5a.25.25 0 01-.25.25h-2.5a.25.25 0 01-.25-.25v-2.5zm5.75-.25a.25.25 0 00-.25.25v2.5c0 .138.112.25.25.25h2.5a.25.25 0 00.25-.25v-2.5a.25.25 0 00-.25-.25h-2.5z"/></svg>