<svg xmlns="http://www.w3.org/2000/svg" width="24" height="24"><path d="M8 21.25a.75.75 0 01-.75.75h-5.5a.75.75 0 01-.75-.75V2.75A.75.75 0 011.75 2h5.5a.75.75 0 010 1.5H2.5v17h4.75a.75.75 0 01.75.75z"/><path d="M12 2a.75.75 0 01.75.75V7H18a1 1 0 011 1v2a1 1 0 01-1 1h-5.25v2H15a1 1 0 011 1v2a1 1 0 01-1 1h-2.25v4.25a.75.75 0 01-1.5 0V17H9a1 1 0 01-1-1v-2a1 1 0 011-1h2.25v-2H6a1 1 0 01-1-1V8a1 1 0 011-1h5.25V2.75A.75.75 0 0112 2z"/><path d="M16.75 22a.75.75 0 010-1.5h4.75v-17h-4.75a.75.75 0 010-1.5h5.5a.75.75 0 01.75.75v18.5a.75.75 0 01-.75.75h-5.5z"/></svg>