<svg xmlns="http://www.w3.org/2000/svg" width="24" height="24"><path fill-rule="evenodd" d="M15.25 1a.75.75 0 01.75.75v2a.75.75 0 01-1.5 0v-2a.75.75 0 01.75-.75zm-4.53 3.22a.75.75 0 011.06 0l1.2 1.2a.75.75 0 01-1.06 1.06l-1.2-1.2a.75.75 0 010-1.06zm9.06 0a.75.75 0 010 1.06l-1.2 1.2a.75.75 0 11-1.06-1.06l1.2-1.2a.75.75 0 011.06 0zM7.5 8.75A.75.75 0 018.25 8h2a.75.75 0 010 1.5h-2a.75.75 0 01-.75-.75zm12 0a.75.75 0 01.75-.75h2a.75.75 0 010 1.5h-2a.75.75 0 01-.75-.75zm-1.98 2.27a.75.75 0 011.06 0l1.2 1.2a.75.75 0 11-1.06 1.06l-1.2-1.2a.75.75 0 010-1.06zm-4.74.2a.75.75 0 010 1.06l-10.5 10.5a.75.75 0 01-1.06-1.06l10.5-10.5a.75.75 0 011.06 0zM15.25 13a.75.75 0 01.75.75v2a.75.75 0 01-1.5 0v-2a.75.75 0 01.75-.75z"/></svg>