<svg xmlns="http://www.w3.org/2000/svg" width="24" height="24"><path fill-rule="evenodd" d="M11.159 1.513a1.748 1.748 0 012.474 0l1.77 1.77a1.75 1.75 0 010 2.474l-7.99 7.985c-.909.91-.943 2.106-.105 2.958.445.453.95.632 1.437.612.496-.02 1.034-.25 1.51-.727l7.99-7.984a1.749 1.749 0 012.473 0l1.77 1.77a1.75 1.75 0 010 2.474l-7.971 7.967c-3.055 3.055-8.146 2.831-11.153-.176-3.007-3.008-3.231-8.1-.176-11.156l7.971-7.967zm1.417 1.057c-.1-.1-.26-.1-.36 0l-1.951 1.95 2.13 2.13 1.95-1.95c.1-.1.1-.26 0-.36l-1.769-1.77zm-1.24 5.137l-2.129-2.13-4.962 4.96c-2.424 2.424-2.296 6.57.176 9.041 2.471 2.473 6.615 2.601 9.039.177l4.962-4.96-2.129-2.13-4.98 4.978c-.705.704-1.586 1.125-2.507 1.163-.93.038-1.838-.32-2.564-1.058-1.477-1.502-1.309-3.64.115-5.063l4.98-4.978zm6.014 3.9l2.13 2.13 1.95-1.95c.1-.099.1-.26 0-.36l-1.769-1.77a.255.255 0 00-.36 0l-1.95 1.95z"/></svg>