<svg xmlns="http://www.w3.org/2000/svg" width="24" height="24"><path fill-rule="evenodd" d="M17.599 2.573a.25.25 0 00-.346-.008L6.387 12.498a.25.25 0 00-.008.361l5.238 5.239c.1.1.265.097.361-.008l9.933-10.867a.25.25 0 00-.008-.345L17.6 2.573zM16.24 1.458a1.75 1.75 0 012.418.055l4.305 4.304a1.75 1.75 0 01.054 2.418l-9.933 10.867a1.75 1.75 0 01-2.302.248l-1.078 1.078a1.75 1.75 0 01-1.826.412l-1.97 1.97a1.75 1.75 0 01-1.135.51l-2.177.128a1.75 1.75 0 01-1.34-.51l-.743-.743a1.75 1.75 0 010-2.475l3.124-3.124a1.75 1.75 0 01.411-1.826l1.078-1.078a1.75 1.75 0 01.249-2.302L16.24 1.458zM6.17 14.771l-1.06 1.061a.25.25 0 000 .354l3.182 3.182a.25.25 0 00.353 0l1.06-1.06L6.17 14.77zm-1.59 3.006l-3.006 3.005a.25.25 0 000 .354l.743.743c.05.05.12.077.192.072l2.177-.128a.25.25 0 00.162-.073L6.7 19.898l-2.122-2.121z"/></svg>