<svg xmlns="http://www.w3.org/2000/svg" width="24" height="24"><path fill-rule="evenodd" d="M6.017 2H1.75A1.75 1.75 0 000 3.75v16.5C0 21.216.784 22 1.75 22h20.5A1.75 1.75 0 0024 20.25V3.75A1.75 1.75 0 0022.25 2h-9.233a.76.76 0 00-.033 0H6.017zm6.816 1.5H8.58c1.603 1.4 2.51 3.266 2.913 5.256.827.305 1.554.714 2.23 1.138.311.195.605.389.89.576.896.588 1.697 1.114 2.636 1.446-.04-3.545-1.25-6.887-4.416-8.416zm2.672 0c2.385 2.152 3.23 5.423 3.245 8.512v.222c1.006.074 2.213-.103 3.75-.723V3.75a.25.25 0 00-.25-.25h-6.745zm6.995 9.615c-1.463.523-2.712.694-3.824.618a19.166 19.166 0 01-.742 3.843c-.338 1.107-.768 2.117-1.259 2.924h5.575a.25.25 0 00.25-.25v-7.135zM14.027 20.5a7.514 7.514 0 00-.257-.544c-.377-.723-.978-1.587-1.88-2.233a5.062 5.062 0 00-1.164-.623c-.046.126-.093.25-.141.373-.446 1.138-1.006 2.18-1.645 3.027h5.087zm-7.097 0a.754.754 0 01.053-.053c.81-.741 1.601-1.981 2.206-3.522l.059-.153a6.835 6.835 0 00-1.132.003c-1.672.137-3.841.867-6.616 2.661v.814c0 .138.112.25.25.25h5.18zM1.5 17.669c2.546-1.528 4.688-2.24 6.493-2.39a8.129 8.129 0 011.725.036c.299-1.109.486-2.288.525-3.464a12.78 12.78 0 00-.078-1.93 6.69 6.69 0 00-1.457-.17c-1.713-.017-3.978.566-7.208 2.39v5.528zm0-7.238V3.75a.25.25 0 01.25-.25h4.088c2.17 1.008 3.431 2.765 4.015 4.837a8.342 8.342 0 00-1.13-.087c-1.92-.018-4.229.587-7.223 2.18zm14.999 6.708c-.33 1.081-.733 1.986-1.146 2.648a9.09 9.09 0 00-.253-.525c-.445-.852-1.182-1.931-2.337-2.759a6.564 6.564 0 00-1.586-.836c.32-1.204.523-2.485.565-3.768.015-.47.009-.943-.022-1.416.413.201.81.433 1.205.681.25.157.503.324.764.495.999.659 2.09 1.379 3.36 1.77.048.015.096.03.144.043a17.676 17.676 0 01-.694 3.667z"/></svg>