<svg xmlns="http://www.w3.org/2000/svg" width="24" height="24"><path d="M18 5c-2.067 0-4 1.818-4 4.073a.75.75 0 001.5 0C15.5 7.656 16.752 6.5 18 6.5s2.5 1.156 2.5 2.573c0 .9-.64 1.41-1.432 2.002-.823.613-1.818 1.544-1.818 3.26a.75.75 0 101.5 0c0-.999.52-1.54 1.214-2.057l.08-.06C20.752 11.694 22 10.766 22 9.074 22 6.818 20.067 5 18 5z"/><path fill-rule="evenodd" d="M6.32 5.842c.393-1.114 1.967-1.114 2.36 0l2.864 8.143.012.033L12.958 18a.75.75 0 11-1.415.498L10.31 15H4.69l-1.232 3.499A.75.75 0 112.043 18l1.401-3.984a.767.767 0 01.012-.032L6.32 5.842zM9.785 13.5L7.5 7.01 5.216 13.5h4.568z"/><path d="M19 18a1 1 0 11-2 0 1 1 0 012 0z"/></svg>