<svg xmlns="http://www.w3.org/2000/svg" width="24" height="24"><path d="M9.784 13.5H5.216L7.5 7.01l2.284 6.49z"/><path fill-rule="evenodd" d="M1 2a1 1 0 00-1 1v18a1 1 0 001 1h22a1 1 0 001-1V3a1 1 0 00-1-1H1zm7.68 3.842c-.393-1.114-1.967-1.114-2.36 0l-2.864 8.143a.767.767 0 00-.012.033L2.043 18a.75.75 0 101.414.498L4.69 15h5.622l1.232 3.499A.75.75 0 1012.957 18l-1.402-3.984a.753.753 0 00-.012-.032L8.68 5.842zM19 18a1 1 0 11-2 0 1 1 0 012 0zM18 5c-2.067 0-4 1.818-4 4.073a.75.75 0 001.5 0C15.5 7.656 16.752 6.5 18 6.5s2.5 1.156 2.5 2.573c0 .9-.64 1.41-1.432 2.002-.823.613-1.818 1.544-1.818 3.26a.75.75 0 101.5 0c0-.999.52-1.54 1.214-2.057l.08-.06C20.752 11.694 22 10.766 22 9.074 22 6.818 20.067 5 18 5z"/></svg>