<svg xmlns="http://www.w3.org/2000/svg" width="24" height="24"><path fill-rule="evenodd" d="M2 2.75A.75.75 0 012.75 2h5.5C9.216 2 10 2.784 10 3.75v4.32a4.001 4.001 0 010 7.86v4.32A1.75 1.75 0 018.25 22h-5.5a.75.75 0 010-1.5h5.5a.25.25 0 00.25-.25v-4.32a4.001 4.001 0 010-7.86V3.75a.25.25 0 00-.25-.25h-5.5A.75.75 0 012 2.75zM9.25 9.5a2.5 2.5 0 100 5 2.5 2.5 0 000-5z"/><path d="M15.28 8.22a.75.75 0 10-1.06 1.06L16.94 12l-2.72 2.72a.75.75 0 101.06 1.06L18 13.06l2.72 2.72a.75.75 0 101.06-1.06L19.06 12l2.72-2.72a.75.75 0 00-1.06-1.06L18 10.94l-2.72-2.72z"/></svg>