<svg xmlns="http://www.w3.org/2000/svg" width="24" height="24"><path fill-rule="evenodd" d="M3.75 2A1.75 1.75 0 002 3.75v16.5c0 .966.784 1.75 1.75 1.75h12.5A1.75 1.75 0 0018 20.25V18h2.25A1.75 1.75 0 0022 16.25v-8.5A1.75 1.75 0 0020.25 6H18V3.75A1.75 1.75 0 0016.25 2H3.75zM16.5 6V3.75a.25.25 0 00-.25-.25H3.75a.25.25 0 00-.25.25v16.5c0 .138.112.25.25.25h12.5a.25.25 0 00.25-.25V18h-2.75A1.75 1.75 0 0112 16.25v-8.5c0-.966.784-1.75 1.75-1.75h2.75zm-3 1.75a.25.25 0 01.25-.25h6.5a.25.25 0 01.25.25v8.5a.25.25 0 01-.25.25h-6.5a.25.25 0 01-.25-.25v-8.5z"/></svg>