<svg xmlns="http://www.w3.org/2000/svg" width="24" height="24"><path d="M6 14a2 2 0 100-4 2 2 0 000 4zm6-7a2 2 0 11-4 0 2 2 0 014 0zm4 3a2 2 0 100-4 2 2 0 000 4z"/><path fill-rule="evenodd" d="M12 1C5.925 1 1 5.925 1 12s4.925 11 11 11a3.825 3.825 0 003.825-3.825v-.512c0-.5.002-.678.02-.817a2.325 2.325 0 012.001-2.001c.14-.018.317-.02.817-.02h.512A3.825 3.825 0 0023 12c0-6.075-4.925-11-11-11zM2.5 12a9.5 9.5 0 1119 0 2.325 2.325 0 01-2.325 2.325h-.57c-.42 0-.705 0-.954.033a3.825 3.825 0 00-3.293 3.293c-.033.25-.033.533-.033.953v.571A2.325 2.325 0 0112 21.5 9.5 9.5 0 012.5 12z"/></svg>