<svg xmlns="http://www.w3.org/2000/svg" width="24" height="24"><path d="M7 18.5a1.5 1.5 0 100-3 1.5 1.5 0 000 3z"/><path fill-rule="evenodd" d="M4.75 1A2.75 2.75 0 002 3.75v15.5A2.75 2.75 0 004.75 22h15.5A2.75 2.75 0 0023 19.25v-4.5A2.75 2.75 0 0020.25 12h-.087l.295-.295a2.75 2.75 0 000-3.89l-3.182-3.181a2.75 2.75 0 00-3.89 0L12 6.02V3.75A2.75 2.75 0 009.25 1h-4.5zm6.986 19.427l6.927-6.927h1.587c.69 0 1.25.56 1.25 1.25v4.5c0 .69-.56 1.25-1.25 1.25H11.7c.013-.024.025-.049.036-.073zm7.661-9.783L12 18.042v-9.9l2.448-2.447a1.25 1.25 0 011.767 0l3.182 3.182a1.25 1.25 0 010 1.767zM9.25 20.5c.69 0 1.25-.56 1.25-1.25V3.75c0-.69-.56-1.25-1.25-1.25h-4.5c-.69 0-1.25.56-1.25 1.25v15.5c0 .69.56 1.25 1.25 1.25h4.5z"/></svg>