<svg xmlns="http://www.w3.org/2000/svg" width="24" height="24"><path d="M6 2a.75.75 0 01.75.75V5h2.5a.75.75 0 010 1.5h-2.5v2.75a.75.75 0 01-1.5 0V6.5h-2.5a.75.75 0 010-1.5h2.5V2.75A.75.75 0 016 2z"/><path fill-rule="evenodd" d="M5.35 20.608a47.32 47.32 0 011.086-4.372c.387-1.285.876-2.683 1.472-3.965.592-1.273 1.31-2.48 2.173-3.342 1.479-1.479 3.685-1.749 5.491-1.25l2.02-2.018a1.75 1.75 0 012.474 0l1.414 1.414a1.75 1.75 0 010 2.475l-2.019 2.019c.5 1.806.23 4.013-1.249 5.492-.821.821-2.01 1.517-3.269 2.099-1.271.586-2.673 1.08-3.968 1.479a52.309 52.309 0 01-4.424 1.143l-1.104.216a.25.25 0 01-.294-.29l.196-1.1zm11.7-12.285a5.51 5.51 0 011.768 1.768L20.42 8.49a.25.25 0 000-.354l-1.414-1.414a.25.25 0 00-.353 0l-1.601 1.6zM7.292 18.789c.159-.64.352-1.362.58-2.12.375-1.245.842-2.57 1.397-3.766.56-1.205 1.19-2.23 1.873-2.913 1.091-1.092 2.896-1.295 4.381-.752a4.005 4.005 0 012.382 2.381c.542 1.485.339 3.29-.752 4.381-.636.636-1.636 1.243-2.837 1.797-1.19.55-2.522 1.021-3.78 1.408a49.82 49.82 0 01-2.141.603l4.264-4.264a2 2 0 10-1.06-1.061L7.29 18.789z"/></svg>