<svg xmlns="http://www.w3.org/2000/svg" width="24" height="24"><path fill-rule="evenodd" d="M13.414 2.908a42.588 42.588 0 00-.577-.883l-.639-.918a.25.25 0 00-.412.003l-.63.934a52.43 52.43 0 00-2.32 3.937C8.204 7.178 7.563 8.52 7.08 9.833c-.48 1.301-.828 2.633-.828 3.796 0 2.091 1.37 3.842 3 4.766v2.855c0 .966.784 1.75 1.75 1.75h2a1.75 1.75 0 001.75-1.75v-2.855c1.63-.924 3-2.675 3-4.766 0-1.22-.345-2.581-.827-3.9-.485-1.327-1.127-2.662-1.762-3.845a47.262 47.262 0 00-1.747-2.976zM12 19.128c.43 0 .848-.049 1.25-.142v2.264a.25.25 0 01-.25.25h-2a.25.25 0 01-.25-.25v-2.264c.402.093.82.143 1.25.143zm1.84-12.535a44.37 44.37 0 00-1.09-1.909v6.09a2 2 0 11-1.5 0v-6.03a48.98 48.98 0 00-1.087 1.94c-.616 1.162-1.225 2.439-1.678 3.668-.458 1.24-.735 2.377-.735 3.277 0 1.543 1.132 2.963 2.566 3.63.511.237 1.08.37 1.684.37a3.99 3.99 0 001.684-.37c1.434-.667 2.566-2.087 2.566-3.63 0-.967-.28-2.137-.736-3.385-.452-1.238-1.06-2.505-1.675-3.65z"/></svg>