<svg xmlns="http://www.w3.org/2000/svg" width="24" height="24"><path fill-rule="evenodd" d="M1 3.27C1 1.83 2.31.756 3.707 1.048L21.605 4.79A1.76 1.76 0 0123 6.518v10.964a1.76 1.76 0 01-1.395 1.728L3.707 22.952C2.31 23.244 1 22.168 1 20.73V3.27zm2.402-.74a.752.752 0 00-.902.74v7.974H9V3.7L3.402 2.53zM10.5 4.012v7.23h5.75V5.216L10.5 4.013zm7.25 1.516v5.715h3.75V6.518a.252.252 0 00-.2-.247l-3.55-.742zm3.75 7.227h-3.75v5.715l3.55-.742a.252.252 0 00.2-.247v-4.726zm-5.25 6.029v-6.029H10.5v7.23l5.75-1.201zM9 20.3v-7.544H2.5v7.974c0 .48.437.838.902.74L9 20.3z"/></svg>