<svg xmlns="http://www.w3.org/2000/svg" width="24" height="24"><path d="M11.74 3.585a.248.248 0 01.353 0l5.628 5.675a.745.745 0 001.06 0 .76.76 0 000-1.07l-5.628-5.674a1.738 1.738 0 00-2.473 0l-8.168 8.237a1.774 1.774 0 000 2.494l8.168 8.236c.683.69 1.79.69 2.473 0l3.54-3.57a.76.76 0 000-1.068.745.745 0 00-1.06 0l-3.54 3.57a.248.248 0 01-.353 0l-8.168-8.237a.253.253 0 010-.356l8.168-8.237z"/><path d="M13.015 9.295l-2.129 1.955h3.364c4.22.008 7.75 3.2 7.75 7.25a6.837 6.837 0 01-.678 2.97.75.75 0 11-1.352-.65c.341-.71.53-1.494.53-2.32 0-3.124-2.745-5.75-6.25-5.75h-3.364l2.129 1.955a.75.75 0 01-1.03 1.09l-3.5-3.25a.75.75 0 010-1.09l3.5-3.25a.75.75 0 011.03 1.09z"/></svg>