<svg xmlns="http://www.w3.org/2000/svg" width="24" height="24"><path d="M8 3a.75.75 0 000 1.5h3a6.75 6.75 0 016.75 6.75v2.857l-2.509-2.174a.75.75 0 00-.982 1.134l3.75 3.25a.75.75 0 00.982 0l3.75-3.25a.75.75 0 00-.982-1.134l-2.509 2.175V11.25A8.25 8.25 0 0011 3H8z"/><path fill-rule="evenodd" d="M2.75 10A1.75 1.75 0 001 11.75v7.5c0 .966.784 1.75 1.75 1.75h7.5A1.75 1.75 0 0012 19.25v-7.5A1.75 1.75 0 0010.25 10h-7.5zm-.25 1.75a.25.25 0 01.25-.25h7.5a.25.25 0 01.25.25v7.5a.25.25 0 01-.25.25h-7.5a.25.25 0 01-.25-.25v-7.5z"/></svg>