<svg xmlns="http://www.w3.org/2000/svg" width="24" height="24"><path d="M9.11 10.705l-.925.926a23.38 23.38 0 01.261-3.206c.25-1.646.667-3.09 1.187-4.233.732-1.61 1.478-2.265 1.994-2.474A1.098 1.098 0 0112 1.636c.47 0 1.43.494 2.367 2.556.334.735.626 1.595.858 2.553a25.028 25.028 0 00-1.674-.154A26.505 26.505 0 0012 6.545h-.488c-1.203.043-1.223.743-1.221.82v.006s.029.81.942.81H12c.648 0 1.28.026 1.891.073.575.044 1.131.108 1.666.189A23.323 23.323 0 0115.818 12c0 3.135-.58 5.894-1.45 7.808-.352.773-.707 1.326-1.038 1.715-.551.648-1.036.84-1.33.84h-.046a1.07 1.07 0 01-.334-.084c-.515-.212-1.258-.867-1.987-2.47l-.172-.39a.809.809 0 00-.738-.516.89.89 0 00-.682.272c-.16.174-.275.434-.13.864.736 1.755 1.865 3.44 3.405 3.867.22.061.448.094.684.094.88 0 1.71-.458 2.445-1.27 1.785-1.973 3.01-6.037 3.01-10.73 0-.525-.016-1.043-.046-1.55a24.985 24.985 0 00-.154-1.675 15.93 15.93 0 011.696.508c.301.11.588.227.857.35 1.604.729 2.259 1.472 2.47 1.987a1.07 1.07 0 01.086.38c0 .294-.193.779-.841 1.33-.39.331-.942.686-1.715 1.037-.27.123-.568.258-.87.377a1.33 1.33 0 00-.304.198c-.198.175-.279.379-.271.573.016.457.516.862 1.12.714l.236-.051c1.102-.319 2.255-.956 3.086-1.77C23.522 13.706 24 12.873 24 12c0-.236-.033-.468-.097-.696-.447-1.596-2.411-2.976-5.214-3.833a19.215 19.215 0 00-1.722-.438C16.108 2.884 14.207 0 12 0a2.554 2.554 0 00-.916.168C8.999.944 7.317 4.322 6.75 8.73a24.99 24.99 0 00-.201 2.852l-.877-.877a.75.75 0 10-1.061 1.06l2.25 2.25a.75.75 0 001.06 0l2.25-2.25a.75.75 0 00-1.06-1.06z"/><path d="M4.453 7.76c1.602-.437 1.66 1.218.596 1.523-.301.11-.588.227-.857.35-.757.344-1.303.69-1.69 1.016-.437.366-.673.704-.784.978l-.078.298a.744.744 0 00-.004.075c0 .47.494 1.43 2.556 2.367.27.123.556.24.857.35.526.192 1.098.364 1.71.512.527.127 1.084.237 1.666.326.54.082 1.103.147 1.684.191.52.04 1.057.064 1.605.07l-.962-.961a.75.75 0 111.06-1.06l2.25 2.25a.75.75 0 010 1.06l-2.25 2.25a.75.75 0 01-1.06-1.06l.842-.844a24.971 24.971 0 01-2.864-.202 22.603 22.603 0 01-1.657-.274 19.26 19.26 0 01-1.762-.446C2.108 15.55 0 13.887 0 12a2.513 2.513 0 01.096-.69c.441-1.566 2.33-2.822 4.357-3.55z"/></svg>