<svg xmlns="http://www.w3.org/2000/svg" width="24" height="24"><path d="M2.5 2.75a.25.25 0 01.25-.25h5.5a.75.75 0 000-1.5h-5.5A1.75 1.75 0 001 2.75v18.5c0 .966.784 1.75 1.75 1.75h18.5A1.75 1.75 0 0023 21.25v-5.5a.75.75 0 00-1.5 0v5.5a.25.25 0 01-.25.25H2.75a.25.25 0 01-.25-.25V2.75z"/><path d="M16 1.75a.75.75 0 01.75-.75h5.5a.75.75 0 01.75.75v5.5a.75.75 0 01-1.5 0V3.56l-9.94 9.94h3.69a.75.75 0 010 1.5h-5.5a.75.75 0 01-.75-.75v-5.5a.75.75 0 011.5 0v3.69l9.94-9.94h-3.69a.75.75 0 01-.75-.75z"/></svg>