<svg xmlns="http://www.w3.org/2000/svg" width="24" height="24"><path fill-rule="evenodd" d="M11.898 1.007a.75.75 0 01.204 0l7.25 1a.75.75 0 01.537.35l4 6.5a.75.75 0 01-.072.884l-11.25 13a.75.75 0 01-1.134 0l-11.25-13a.75.75 0 01-.072-.884l4-6.5a.75.75 0 01.537-.35l7.25-1zM4 5.4L2.092 8.5H4V5.4zm.31 4.6H2.39l5.397 6.236L4.31 10zm11.903 6.236L21.609 10H19.69l-3.477 6.236zM20 8.5h1.908L20 5.4v3.1zm-1.5-5.096l-4.452-.614L18.5 7.395V3.404zM17.482 8.5L12 2.83 6.518 8.5h10.964zM6.027 10h11.946L12 20.71 6.027 10zM5.5 7.395L9.952 2.79 5.5 3.404v3.991z"/></svg>