<svg xmlns="http://www.w3.org/2000/svg" width="24" height="24"><path fill-rule="evenodd" d="M4 3.25C4 2.56 4.56 2 5.25 2h4c.69 0 1.25.56 1.25 1.25v1h7v-1c0-.69.56-1.25 1.25-1.25h4c.69 0 1.25.56 1.25 1.25v4c0 .69-.56 1.25-1.25 1.25h-1.166l-3.72 7h.886c.69 0 1.25.56 1.25 1.25v4c0 .69-.56 1.25-1.25 1.25h-4c-.69 0-1.25-.56-1.25-1.25v-1h-7v1c0 .69-.56 1.25-1.25 1.25h-4C.56 22 0 21.44 0 20.75v-4c0-.69.56-1.25 1.25-1.25h1.166l3.72-7H5.25C4.56 8.5 4 7.94 4 7.25v-4zM19.885 8.5H18.75c-.69 0-1.25-.56-1.25-1.25v-1.5h-7v1.5c0 .69-.56 1.25-1.25 1.25H7.834l-3.72 7H5.25c.69 0 1.25.56 1.25 1.25v1.5h7v-1.5c0-.69.56-1.25 1.25-1.25h1.416l3.72-7zM5.5 3.5V7H9V3.5H5.5zm-4 17V17H5v3.5H1.5zm13.5 0V17h3.5v3.5H15zM19 7V3.5h3.5V7H19z"/></svg>