<svg xmlns="http://www.w3.org/2000/svg" width="24" height="24"><path fill-rule="evenodd" d="M2 3.75A.75.75 0 012.75 3h2.5C6.216 3 7 3.784 7 4.75v14.5A1.75 1.75 0 015.25 21h-2.5a.75.75 0 010-1.5h2.5a.25.25 0 00.25-.25V4.75a.25.25 0 00-.25-.25h-2.5A.75.75 0 012 3.75zm20 0a.75.75 0 00-.75-.75h-2.5A1.75 1.75 0 0017 4.75v14.5c0 .966.784 1.75 1.75 1.75h2.5a.75.75 0 000-1.5h-2.5a.25.25 0 01-.25-.25V4.75a.25.25 0 01.25-.25h2.5a.75.75 0 00.75-.75zM12 8a.75.75 0 00-.75.75v6.5a.75.75 0 001.5 0v-6.5A.75.75 0 0012 8z"/></svg>