<svg xmlns="http://www.w3.org/2000/svg" width="24" height="24"><path d="M13.83 5.268l7.827-3.13a.25.25 0 01.343.231v6.262a.25.25 0 01-.343.232l-7.827-3.13a.25.25 0 010-.465z"/><path fill-rule="evenodd" d="M12 4.75v3.29c.513.11.957.447 1.197.927l1.724 3.448a.75.75 0 01.079.335v9.5A1.75 1.75 0 0113.25 24h-8.5A1.75 1.75 0 013 22.25v-9.5a.75.75 0 01.08-.335l1.723-3.448A1.75 1.75 0 016 8.04V4.75C6 3.784 6.784 3 7.75 3h2.5c.966 0 1.75.784 1.75 1.75zm-4.5 0a.25.25 0 01.25-.25h2.5a.25.25 0 01.25.25V8h-3V4.75zM6.144 9.638a.25.25 0 01.224-.138h5.264a.25.25 0 01.224.138L13.036 12H4.965l1.18-2.362zM4.5 13.5h9v8.75a.25.25 0 01-.25.25h-8.5a.25.25 0 01-.25-.25V13.5z"/></svg>