<svg xmlns="http://www.w3.org/2000/svg" width="24" height="24"><path d="M2.5 2.75a.25.25 0 01.25-.25h6.5a.75.75 0 000-1.5h-6.5A1.75 1.75 0 001 2.75v3.5a.75.75 0 001.5 0v-3.5zM14.75 1a.75.75 0 000 1.5h6.5a.25.25 0 01.25.25v3.5a.75.75 0 001.5 0v-3.5A1.75 1.75 0 0021.25 1h-6.5zM2.5 17.75a.75.75 0 00-1.5 0v3.5c0 .966.784 1.75 1.75 1.75h6.5a.75.75 0 000-1.5h-6.5a.25.25 0 01-.25-.25v-3.5zm20.5 3.5v-3.5a.75.75 0 00-1.5 0v3.5a.25.25 0 01-.25.25h-6.5a.75.75 0 000 1.5h6.5A1.75 1.75 0 0023 21.25zm-6.44-8.52l1.97 1.916a.719.719 0 01-.018 1.014.762.762 0 01-1.042.018l-3.25-3.162A.72.72 0 0114 12a.72.72 0 01.22-.516l3.25-3.162a.75.75 0 01.536-.232.768.768 0 01.543.214.727.727 0 01.22.529.713.713 0 01-.239.52l-1.97 1.917h5.69a.76.76 0 01.53.214.72.72 0 010 1.032.76.76 0 01-.53.214h-5.69zm-14.81 0h5.69l-1.97 1.916a.719.719 0 00.018 1.014.762.762 0 001.042.018l3.25-3.162a.72.72 0 000-1.032L6.53 8.322a.75.75 0 00-.535-.232.768.768 0 00-.544.214.728.728 0 00-.22.529.713.713 0 00.239.52l1.97 1.917H1.75a.76.76 0 00-.53.214A.72.72 0 001 12c0 .194.079.38.22.516a.76.76 0 00.53.214z"/></svg>