<svg xmlns="http://www.w3.org/2000/svg" width="24" height="24"><path d="M6 6.25A.25.25 0 016.25 6h1.5a.25.25 0 01.25.25v1.5a.25.25 0 01-.25.25h-1.5A.25.25 0 016 7.75v-1.5zm0 5a.25.25 0 01.25-.25h1.5a.25.25 0 01.25.25v1.5a.25.25 0 01-.25.25h-1.5a.25.25 0 01-.25-.25v-1.5zM6.25 16a.25.25 0 00-.25.25v1.5c0 .138.112.25.25.25h1.5a.25.25 0 00.25-.25v-1.5a.25.25 0 00-.25-.25h-1.5zM16 11.25a.25.25 0 01.25-.25h1.5a.25.25 0 01.25.25v1.5a.25.25 0 01-.25.25h-1.5a.25.25 0 01-.25-.25v-1.5zM16.25 6a.25.25 0 00-.25.25v1.5c0 .138.112.25.25.25h1.5a.25.25 0 00.25-.25v-1.5a.25.25 0 00-.25-.25h-1.5zM11 11.25a.25.25 0 01.25-.25h1.5a.25.25 0 01.25.25v1.5a.25.25 0 01-.25.25h-1.5a.25.25 0 01-.25-.25v-1.5zM16.25 16a.25.25 0 00-.25.25v1.5c0 .138.112.25.25.25h1.5a.25.25 0 00.25-.25v-1.5a.25.25 0 00-.25-.25h-1.5zM11 6.25a.25.25 0 01.25-.25h1.5a.25.25 0 01.25.25v1.5a.25.25 0 01-.25.25h-1.5a.25.25 0 01-.25-.25v-1.5zm.25 9.75a.25.25 0 00-.25.25v1.5c0 .138.112.25.25.25h1.5a.25.25 0 00.25-.25v-1.5a.25.25 0 00-.25-.25h-1.5z"/></svg>