<svg xmlns="http://www.w3.org/2000/svg" width="24" height="24"><path fill-rule="evenodd" d="M2.53 1c-.122 0-.255 0-.37.01-.13.01-.3.036-.477.126a1.25 1.25 0 00-.547.547c-.09.176-.116.348-.127.478C1 2.275 1 2.408 1 2.53v3.44c0 .122 0 .255.01.37.01.13.036.3.126.477.12.236.311.427.547.547.176.09.348.116.478.127.114.01.247.009.369.009h.855a.755.755 0 00-.01.125V16.5H2.53c-.122 0-.255 0-.37.01-.13.01-.3.036-.477.126a1.25 1.25 0 00-.547.547c-.09.176-.116.348-.127.477-.01.115-.009.248-.009.37v3.44c0 .122 0 .255.01.37.01.13.036.3.126.477.12.236.311.427.547.547.176.09.348.116.478.127.114.01.247.009.369.009h3.44c.122 0 .255 0 .37-.01.13-.01.3-.036.477-.126a1.25 1.25 0 00.547-.547c.09-.176.116-.348.127-.477.01-.115.009-.248.009-.37v-.72h9v.72c0 .122 0 .255.01.37.01.13.036.3.126.477.12.236.311.427.547.547.176.09.348.116.477.127.115.01.248.009.37.009h3.44c.122 0 .255 0 .37-.01.13-.01.3-.036.477-.126a1.25 1.25 0 00.547-.547c.09-.176.116-.348.127-.477.01-.115.009-.248.009-.37v-3.44c0-.122 0-.255-.01-.37a1.259 1.259 0 00-.126-.477 1.25 1.25 0 00-.547-.547 1.259 1.259 0 00-.477-.127c-.115-.01-.248-.009-.37-.009h-.845V7.625a.747.747 0 00-.01-.125h.855c.122 0 .255 0 .37-.01.13-.01.3-.036.477-.126a1.25 1.25 0 00.547-.547c.09-.176.116-.348.127-.478.01-.114.009-.247.009-.369V2.53c0-.122 0-.255-.01-.37a1.259 1.259 0 00-.126-.477 1.25 1.25 0 00-.547-.547 1.259 1.259 0 00-.477-.127A4.749 4.749 0 0021.47 1h-3.44c-.122 0-.255 0-.37.01-.13.01-.3.036-.477.126a1.25 1.25 0 00-.547.547c-.09.176-.116.348-.127.478-.01.114-.009.247-.009.369v.97h-9v-.97c0-.122 0-.255-.01-.37a1.259 1.259 0 00-.126-.477 1.25 1.25 0 00-.547-.547 1.259 1.259 0 00-.478-.127A4.748 4.748 0 005.97 1H2.53zm2.345 15.5H5.97c.122 0 .255 0 .37.01.13.01.3.036.477.126.236.12.427.311.547.547.09.176.116.348.127.477.01.115.009.248.009.37v1.22h9v-1.22c0-.122 0-.255.01-.37.01-.13.036-.3.126-.477a1.25 1.25 0 01.547-.547c.176-.09.348-.116.477-.127.115-.01.248-.009.37-.009h1.095V7.625c0-.043.004-.084.01-.125H18.03c-.122 0-.255 0-.37-.01a1.26 1.26 0 01-.477-.126 1.25 1.25 0 01-.547-.547 1.259 1.259 0 01-.127-.478c-.01-.114-.009-.247-.009-.369V5h-9v.97c0 .122 0 .255-.01.37-.01.13-.036.3-.126.477a1.25 1.25 0 01-.547.547 1.26 1.26 0 01-.478.127 4.75 4.75 0 01-.369.009H4.865c.006.04.01.082.01.125V16.5zM2.5 2.5H6V6H2.5V2.5zm0 15.5H6v3.5H2.5V18zM18 2.5V6h3.5V2.5H18zM18 18h3.5v3.5H18V18z"/></svg>