<svg xmlns="http://www.w3.org/2000/svg" width="24" height="24"><path fill-rule="evenodd" d="M2.53 1c-.122 0-.255 0-.37.01-.13.01-.3.036-.477.126a1.25 1.25 0 00-.547.547c-.09.176-.116.348-.127.478C1 2.275 1 2.408 1 2.53v3.44c0 .122 0 .255.01.37.01.13.036.3.126.477.12.236.311.427.547.547.176.09.348.116.478.127.114.01.247.009.369.009h.97v9h-.97c-.122 0-.255 0-.37.01-.13.01-.3.036-.477.126a1.25 1.25 0 00-.547.547c-.09.176-.116.348-.127.477-.01.115-.009.248-.009.37v3.44c0 .122 0 .255.01.37.01.13.036.3.126.477.12.236.311.427.547.547.176.09.348.116.478.127.114.01.247.009.369.009h3.44c.122 0 .255 0 .37-.01.13-.01.3-.036.477-.126a1.25 1.25 0 00.547-.547c.09-.176.116-.348.127-.477.01-.115.009-.248.009-.37v-.805l9-1.8v.605c0 .122 0 .255.01.37.01.13.036.3.126.477.12.236.311.427.547.547.176.09.348.116.477.127.115.01.248.009.37.009h3.44c.122 0 .255 0 .37-.01.13-.01.3-.036.477-.126a1.25 1.25 0 00.547-.547c.09-.176.116-.348.127-.477.01-.115.009-.248.009-.37v-3.44c0-.122 0-.255-.01-.37a1.259 1.259 0 00-.126-.478 1.25 1.25 0 00-.547-.546 1.259 1.259 0 00-.477-.127c-.115-.01-.248-.009-.37-.009h-.97v-5h.97c.122 0 .255 0 .37-.01.13-.01.3-.036.477-.126a1.25 1.25 0 00.547-.547c.09-.176.116-.348.127-.478.01-.114.009-.247.009-.369V4.53c0-.122 0-.255-.01-.37a1.259 1.259 0 00-.126-.477 1.25 1.25 0 00-.547-.547 1.259 1.259 0 00-.477-.127A4.746 4.746 0 0021.47 3h-3.44c-.122 0-.255 0-.37.01-.13.01-.3.036-.477.126a1.25 1.25 0 00-.547.547c-.09.176-.116.348-.127.478-.01.114-.009.247-.009.369v1.105l-9-1.8V2.53c0-.122 0-.255-.01-.37a1.259 1.259 0 00-.126-.477 1.25 1.25 0 00-.547-.547 1.259 1.259 0 00-.478-.127C6.225 1 6.092 1 5.97 1H2.53zM5 16.5h.97c.122 0 .255 0 .37.01.13.01.3.036.477.126.236.12.427.311.547.547.09.176.116.348.127.477.01.115.009.248.009.37v1.105l9-1.8V16.03c0-.122 0-.255.01-.37.01-.13.036-.3.126-.478a1.25 1.25 0 01.547-.546c.176-.09.348-.116.477-.127.115-.01.248-.009.37-.009H19v-5h-.97c-.122 0-.255 0-.37-.01a1.259 1.259 0 01-.477-.126 1.25 1.25 0 01-.547-.547 1.259 1.259 0 01-.127-.478c-.01-.114-.009-.247-.009-.369v-.805l-9-1.8v.605c0 .122 0 .255-.01.37-.01.13-.036.3-.126.477a1.25 1.25 0 01-.547.547c-.176.09-.348.116-.478.127-.114.01-.247.009-.369.009H5v9zm-2.5-14V6H6V2.5H2.5zm0 15.5v3.5H6V18H2.5zM18 8V4.5h3.5V8H18zm0 8v3.5h3.5V16H18z"/></svg>