<svg xmlns="http://www.w3.org/2000/svg" width="24" height="24"><path fill-rule="evenodd" d="M5.5 2a3.5 3.5 0 00-.75 6.92v6.16a3.501 3.501 0 104.17 4.17h6.16a3.501 3.501 0 104.17-4.17V8.92a3.501 3.501 0 10-4.17-4.17H8.92A3.501 3.501 0 005.5 2zm-2 3.5a2 2 0 114 0 2 2 0 01-4 0zm14.25 9.58V8.92a3.505 3.505 0 01-2.67-2.67H8.92a3.505 3.505 0 01-2.67 2.67v6.16a3.505 3.505 0 012.67 2.67h6.16a3.505 3.505 0 012.67-2.67zM16.5 5.5a2 2 0 114 0 2 2 0 01-4 0zm-11 11a2 2 0 100 4 2 2 0 000-4zm11 2a2 2 0 114 0 2 2 0 01-4 0z"/></svg>