<svg xmlns="http://www.w3.org/2000/svg" width="24" height="24"><path fill-rule="evenodd" d="M3.833 9.173a1.001 1.001 0 00-1.416 0L.293 11.297a1.001 1.001 0 000 1.416l2.124 2.124a1.001 1.001 0 001.416 0L5.92 12.75h3.175a3.001 3.001 0 005.81 0h3.175l2.087 2.087c.391.39 1.025.39 1.416 0l2.124-2.124c.39-.391.39-1.025 0-1.416l-2.124-2.124a1.001 1.001 0 00-1.416 0L18.09 11.25h-3.184a3.001 3.001 0 00-5.811 0H5.91L3.833 9.173zm-.708 4.248l-1.416-1.416 1.416-1.416 1.416 1.416-1.416 1.416zm16.334-1.416l1.416 1.416 1.416-1.416-1.416-1.416-1.416 1.416z"/></svg>