<svg xmlns="http://www.w3.org/2000/svg" width="24" height="24"><path fill-rule="evenodd" d="M13.676 22h-3.352c-.258 0-.494 0-.692-.016a1.775 1.775 0 01-.676-.175 1.75 1.75 0 01-.765-.765 1.774 1.774 0 01-.175-.676C8 20.17 8 19.934 8 19.676V12H4.75a.75.75 0 01-.57-1.237l7.25-8.5a.75.75 0 011.14 0l7.25 8.5A.75.75 0 0119.25 12H16v7.676c0 .258 0 .494-.016.692a1.775 1.775 0 01-.175.677 1.75 1.75 0 01-.764.764c-.23.118-.464.157-.677.175-.198.016-.434.016-.692.016zm.693-1.53h-.001.001zm-.002.001a.638.638 0 01-.121.018c-.13.01-.304.011-.596.011h-3.3c-.292 0-.467 0-.596-.011a.638.638 0 01-.12-.018.25.25 0 01-.105-.105.626.626 0 01-.018-.12 8.337 8.337 0 01-.011-.596v-8.4a.75.75 0 00-.75-.75H6.375L12 3.906l5.625 6.594H15.25a.75.75 0 00-.75.75v8.4c0 .292 0 .467-.011.596a.636.636 0 01-.018.12.25.25 0 01-.104.105zm.103-.102v-.001.001zm-4.94 0v-.001.001zm.1.101h.002-.001z"/></svg>