<svg xmlns="http://www.w3.org/2000/svg" width="24" height="24"><path fill-rule="evenodd" d="M2 13.676v-3.352c0-.258 0-.494.016-.692a1.77 1.77 0 01.175-.676 1.75 1.75 0 01.765-.765 1.77 1.77 0 01.676-.175C3.83 8 4.066 8 4.324 8H12V4.75a.75.75 0 011.237-.57l8.5 7.25a.75.75 0 010 1.14l-8.5 7.25A.75.75 0 0112 19.25V16H4.324c-.258 0-.494 0-.692-.016a1.775 1.775 0 01-.676-.175 1.75 1.75 0 01-.765-.764 1.774 1.774 0 01-.175-.677A9.053 9.053 0 012 13.676zm1.53.693v-.001.001zm-.001-.002a.625.625 0 01-.018-.121 8.336 8.336 0 01-.011-.596v-3.3c0-.292 0-.467.011-.596a.626.626 0 01.018-.12.25.25 0 01.104-.105.627.627 0 01.121-.018c.13-.01.304-.011.596-.011h8.4a.75.75 0 00.75-.75V6.375L20.094 12 13.5 17.625V15.25a.75.75 0 00-.75-.75h-8.4c-.292 0-.467 0-.596-.011a.638.638 0 01-.12-.018.25.25 0 01-.105-.104zm.102.103h.001-.001zm0-4.94h.001-.001zm-.101.1v.002-.001z"/></svg>