<svg xmlns="http://www.w3.org/2000/svg" width="24" height="24"><path d="M7.75 11.25a.75.75 0 000 1.5h6.614l-3.129 2.955a.75.75 0 001.03 1.09l4.5-4.25a.75.75 0 000-1.09l-4.5-4.25a.75.75 0 00-1.03 1.09l3.129 2.955H7.75z"/><path fill-rule="evenodd" d="M2 20.25c0 .966.784 1.75 1.75 1.75h16.5A1.75 1.75 0 0022 20.25V3.75A1.75 1.75 0 0020.25 2H3.75A1.75 1.75 0 002 3.75v16.5zm1.573.177a.25.25 0 01-.073-.177V3.75a.25.25 0 01.25-.25h16.5a.25.25 0 01.25.25v16.5a.25.25 0 01-.25.25H3.75a.25.25 0 01-.177-.073z"/></svg>