<svg xmlns="http://www.w3.org/2000/svg" width="24" height="24"><path d="M16.25 12.75a.75.75 0 000-1.5H9.636l3.129-2.955a.75.75 0 00-1.03-1.09l-4.5 4.25a.75.75 0 000 1.09l4.5 4.25a.75.75 0 001.03-1.09L9.636 12.75h6.614z"/><path fill-rule="evenodd" d="M22 3.75A1.75 1.75 0 0020.25 2H3.75A1.75 1.75 0 002 3.75v16.5A1.75 1.75 0 003.75 22h16.5A1.75 1.75 0 0022 20.25V3.75zm-1.573-.177a.25.25 0 01.073.177v16.5a.25.25 0 01-.25.25H3.75a.25.25 0 01-.25-.25V3.75a.25.25 0 01.25-.25h16.5a.25.25 0 01.177.073z"/></svg>