<svg xmlns="http://www.w3.org/2000/svg" width="24" height="24"><path d="M11.25 16.25a.75.75 0 001.5 0V9.636l2.955 3.129a.75.75 0 001.09-1.03l-4.25-4.5a.75.75 0 00-1.09 0l-4.25 4.5a.75.75 0 001.09 1.03l2.955-3.129v6.614z"/><path fill-rule="evenodd" d="M20.25 22A1.75 1.75 0 0022 20.25V3.75A1.75 1.75 0 0020.25 2H3.75A1.75 1.75 0 002 3.75v16.5c0 .966.784 1.75 1.75 1.75h16.5zm.177-1.573a.25.25 0 01-.177.073H3.75a.25.25 0 01-.25-.25V3.75a.25.25 0 01.25-.25h16.5a.25.25 0 01.25.25v16.5a.25.25 0 01-.073.177z"/></svg>