<svg xmlns="http://www.w3.org/2000/svg" width="24" height="24"><path fill-rule="evenodd" d="M10.324 2h3.352c.258 0 .494 0 .692.016.213.018.446.057.676.175.33.168.598.435.765.765.118.23.158.463.175.676.016.198.016.434.016.692V12h3.25a.75.75 0 01.57 1.237l-7.25 8.5a.75.75 0 01-1.14 0l-7.25-8.5A.75.75 0 014.75 12H8V4.324c0-.258 0-.494.016-.692a1.77 1.77 0 01.175-.676 1.75 1.75 0 01.765-.765 1.77 1.77 0 01.676-.175C9.83 2 10.066 2 10.324 2zM9.63 3.53h.001-.001zm.002-.001a.626.626 0 01.121-.018c.13-.01.304-.011.596-.011h3.3c.292 0 .467 0 .596.011a.625.625 0 01.12.018.25.25 0 01.105.104.638.638 0 01.018.121c.01.13.011.304.011.596v8.4c0 .414.336.75.75.75h2.375L12 20.094 6.375 13.5H8.75a.75.75 0 00.75-.75v-8.4c0-.292 0-.467.011-.596a.628.628 0 01.018-.12.25.25 0 01.104-.105zm-.103.102v.001-.001zm4.94 0v.001-.001zm-.1-.101h-.002.001z"/></svg>