<svg xmlns="http://www.w3.org/2000/svg" width="24" height="24"><path d="M12.75 7.75a.75.75 0 00-1.5 0v6.614l-2.955-3.129a.75.75 0 00-1.09 1.03l4.25 4.5a.75.75 0 001.09 0l4.25-4.5a.75.75 0 00-1.09-1.03l-2.955 3.129V7.75z"/><path fill-rule="evenodd" d="M3.75 2A1.75 1.75 0 002 3.75v16.5A1.75 1.75 0 003.75 22h16.5A1.75 1.75 0 0022 20.25V3.75A1.75 1.75 0 0020.25 2H3.75zm-.177 1.573A.25.25 0 013.75 3.5h16.5a.25.25 0 01.25.25v16.5a.25.25 0 01-.25.25H3.75a.25.25 0 01-.25-.25V3.75a.25.25 0 01.073-.177z"/></svg>