<svg xmlns="http://www.w3.org/2000/svg" width="24" height="24"><path d="M15.79 4.48a.752.752 0 01-1.063 1.063l-1.975-1.975v7.68h7.68l-1.975-1.975a.752.752 0 011.064-1.064l3.259 3.26a.752.752 0 010 1.063l-3.26 3.259a.752.752 0 01-1.063-1.064l1.975-1.975h-7.68v7.68l1.975-1.975a.752.752 0 011.064 1.064l-3.26 3.259a.752.752 0 01-1.063 0L8.21 19.52a.752.752 0 011.064-1.063l1.975 1.975v-7.68h-7.68l1.975 1.975a.752.752 0 01-1.064 1.064L1.22 12.53a.752.752 0 010-1.063L4.48 8.21a.752.752 0 011.063 1.064l-1.975 1.975h7.68v-7.68L9.273 5.543a.752.752 0 01-1.064-1.064l3.26-3.259a.752.752 0 011.063 0l3.259 3.26z"/></svg>