<svg xmlns="http://www.w3.org/2000/svg" width="24" height="24"><path fill-rule="evenodd" d="M22 13.676v-3.352c0-.258 0-.494-.016-.692a1.775 1.775 0 00-.175-.676 1.75 1.75 0 00-.765-.765 1.774 1.774 0 00-.676-.175C20.17 8 19.934 8 19.676 8H12V4.75a.75.75 0 00-1.237-.57l-8.5 7.25a.75.75 0 000 1.14l8.5 7.25A.75.75 0 0012 19.25V16h7.676c.258 0 .494 0 .692-.016a1.78 1.78 0 00.677-.175 1.75 1.75 0 00.764-.764c.118-.23.157-.464.175-.677.016-.198.016-.434.016-.692zm-1.53.693v-.001.001zm.001-.002a.638.638 0 00.018-.121c.01-.13.011-.304.011-.596v-3.3c0-.292 0-.467-.011-.596a.638.638 0 00-.018-.12.25.25 0 00-.105-.105.626.626 0 00-.12-.018 8.337 8.337 0 00-.596-.011h-8.4a.75.75 0 01-.75-.75V6.375L3.906 12l6.594 5.625V15.25a.75.75 0 01.75-.75h8.4c.292 0 .467 0 .596-.011a.636.636 0 00.12-.018.25.25 0 00.105-.104zm-.102.103h-.001.001zm0-4.94h-.001.001zm.101.1v.002-.001z"/></svg>