<svg xmlns="http://www.w3.org/2000/svg" width="24" height="24"><path d="M8 7.25v-4.5a.75.75 0 00-1.5 0v2.69L3.28 2.22a.75.75 0 00-1.06 1.06L5.44 6.5H2.75a.75.75 0 000 1.5h4.5A.75.75 0 008 7.25zM21.25 8a.75.75 0 000-1.5h-2.69l3.22-3.22a.75.75 0 00-1.06-1.06L17.5 5.44V2.75a.75.75 0 00-1.5 0v4.5c0 .414.336.75.75.75h4.5zm-4.5 14a.75.75 0 01-.75-.75v-4.5a.75.75 0 01.75-.75h4.5a.75.75 0 010 1.5h-2.69l3.22 3.22a.75.75 0 11-1.06 1.06l-3.22-3.22v2.69a.75.75 0 01-.75.75zM8 16.75v4.5a.75.75 0 01-1.5 0v-2.69l-3.22 3.22a.75.75 0 01-1.06-1.06l3.22-3.22H2.75a.75.75 0 010-1.5h4.5a.75.75 0 01.75.75z"/></svg>