<svg xmlns="http://www.w3.org/2000/svg" width="24" height="24"><path d="M2 7.25a.75.75 0 001.5 0V4.56l3.22 3.22a.75.75 0 001.06-1.06L4.56 3.5h2.69a.75.75 0 000-1.5h-4.5a.75.75 0 00-.75.75v4.5zM16.75 2a.75.75 0 000 1.5h2.69l-3.22 3.22a.75.75 0 001.06 1.06l3.22-3.22v2.69a.75.75 0 001.5 0v-4.5a.75.75 0 00-.75-.75h-4.5zm0 20h4.5a.75.75 0 00.75-.75v-4.5a.75.75 0 00-1.5 0v2.69l-3.22-3.22a.75.75 0 10-1.06 1.06l3.22 3.22h-2.69a.75.75 0 000 1.5zM2 16.75a.75.75 0 011.5 0v2.69l3.22-3.22a.75.75 0 011.06 1.06L4.56 20.5h2.69a.75.75 0 010 1.5h-4.5a.75.75 0 01-.75-.75v-4.5z"/></svg>