<svg xmlns="http://www.w3.org/2000/svg" width="24" height="24"><path fill-rule="evenodd" d="M3.75 2A1.75 1.75 0 002 3.75v16.5c0 .966.784 1.75 1.75 1.75h16.5A1.75 1.75 0 0022 20.25V3.75A1.75 1.75 0 0020.25 2H3.75zM3.5 3.75a.25.25 0 01.25-.25h16.5a.25.25 0 01.25.25v16.5a.25.25 0 01-.25.25H3.75a.25.25 0 01-.25-.25V3.75z"/><path fill-rule="evenodd" d="M5.482 16.881c-.435 1.033.604 2.072 1.637 1.637l10.979-4.622c1.092-.46.99-2.04-.151-2.357l-4.294-1.192-1.192-4.294c-.317-1.142-1.897-1.243-2.357-.15L5.482 16.88zm11.37-4.089l-9.75 4.106 4.106-9.75 1.037 3.737c.118.422.448.752.87.87l3.738 1.037z"/></svg>