<svg xmlns="http://www.w3.org/2000/svg" width="24" height="24"><path fill-rule="evenodd" d="M3.75 2A1.75 1.75 0 002 3.75v16.5c0 .966.784 1.75 1.75 1.75h16.5A1.75 1.75 0 0022 20.25V3.75A1.75 1.75 0 0020.25 2H3.75zM3.5 3.75a.25.25 0 01.25-.25h16.5a.25.25 0 01.25.25v16.5a.25.25 0 01-.25.25H3.75a.25.25 0 01-.25-.25V3.75z"/><path fill-rule="evenodd" d="M5.854 10.842c-1.038.423-1.038 1.893 0 2.316l11.031 4.494c1.098.447 2.143-.741 1.56-1.773L16.252 12l2.193-3.88c.583-1.03-.462-2.22-1.56-1.772L5.854 10.842zm10.931 5.15L6.988 12l9.797-3.992-1.909 3.377a1.25 1.25 0 000 1.23l1.91 3.377z"/></svg>