<svg xmlns="http://www.w3.org/2000/svg" width="24" height="24"><path fill-rule="evenodd" d="M8.119 17.518c-1.033.435-2.072-.604-1.637-1.637l4.622-10.979c.46-1.092 2.04-.99 2.357.151l1.192 4.294 4.294 1.192c1.142.317 1.243 1.897.15 2.357L8.12 17.518zm4.089-11.37l-4.106 9.75 9.75-4.106-3.737-1.037a1.25 1.25 0 01-.87-.87l-1.037-3.738z"/><path fill-rule="evenodd" d="M19.778 19.778c-4.296 4.296-11.26 4.296-15.556 0-4.296-4.296-4.296-11.26 0-15.556 4.296-4.296 11.26-4.296 15.556 0 4.296 4.296 4.296 11.26 0 15.556zm-14.496-1.06a9.5 9.5 0 0013.436 0 9.5 9.5 0 10-13.435 0z"/></svg>