<svg xmlns="http://www.w3.org/2000/svg" width="24" height="24"><path fill-rule="evenodd" d="M2 20.25c0 .966.784 1.75 1.75 1.75h16.5A1.75 1.75 0 0022 20.25V3.75A1.75 1.75 0 0020.25 2H3.75A1.75 1.75 0 002 3.75v16.5zm1.75.25a.25.25 0 01-.25-.25V3.75a.25.25 0 01.25-.25h16.5a.25.25 0 01.25.25v16.5a.25.25 0 01-.25.25H3.75z"/><path fill-rule="evenodd" d="M10.842 18.146c.423 1.038 1.893 1.038 2.316 0l4.494-11.031c.447-1.098-.741-2.143-1.773-1.56L12 7.748 8.12 5.555c-1.03-.583-2.22.462-1.772 1.56l4.494 11.031zm5.15-10.932L12 17.012 8.008 7.214l3.377 1.91a1.25 1.25 0 001.23 0l3.377-1.91z"/></svg>