<svg xmlns="http://www.w3.org/2000/svg" width="24" height="24"><path fill-rule="evenodd" d="M2 3.75C2 2.784 2.784 2 3.75 2h16.5c.966 0 1.75.784 1.75 1.75v16.5A1.75 1.75 0 0120.25 22H3.75A1.75 1.75 0 012 20.25V3.75zm1.75-.25a.25.25 0 00-.25.25v16.5c0 .138.112.25.25.25h16.5a.25.25 0 00.25-.25V3.75a.25.25 0 00-.25-.25H3.75z"/><path fill-rule="evenodd" d="M10.842 5.854c.423-1.038 1.893-1.038 2.316 0l4.494 11.031c.447 1.098-.741 2.143-1.773 1.56L12 16.252l-3.88 2.193c-1.03.583-2.22-.462-1.772-1.56l4.494-11.031zm5.15 10.931L12 6.988l-3.992 9.797 3.377-1.909a1.25 1.25 0 011.23 0l3.377 1.91z"/></svg>