<svg xmlns="http://www.w3.org/2000/svg" width="24" height="24"><path fill-rule="evenodd" d="M6.482 8.119c-.435-1.033.604-2.072 1.637-1.637l10.979 4.622c1.092.46.99 2.04-.151 2.357l-4.294 1.192-1.192 4.294c-.317 1.142-1.897 1.243-2.357.15L6.482 8.12zm11.37 4.089l-9.75-4.106 4.106 9.75 1.037-3.737a1.25 1.25 0 01.87-.87l3.738-1.037z"/><path fill-rule="evenodd" d="M4.222 19.778c-4.296-4.296-4.296-11.26 0-15.556 4.296-4.296 11.26-4.296 15.556 0 4.296 4.296 4.296 11.26 0 15.556-4.296 4.296-11.26 4.296-15.556 0zm1.06-14.496a9.5 9.5 0 000 13.436 9.5 9.5 0 0013.436 0A9.5 9.5 0 105.283 5.283z"/></svg>