<svg xmlns="http://www.w3.org/2000/svg" width="24" height="24"><path fill-rule="evenodd" d="M15.881 6.482c1.033-.435 2.072.604 1.637 1.637l-4.622 10.979c-.46 1.092-2.04.99-2.357-.151l-1.192-4.294-4.294-1.192c-1.142-.317-1.243-1.897-.15-2.357L15.88 6.482zm-4.089 11.37l4.106-9.75-9.75 4.106 3.737 1.037c.422.118.752.448.87.87l1.037 3.738z"/><path fill-rule="evenodd" d="M4.222 4.222c4.296-4.296 11.26-4.296 15.556 0 4.296 4.296 4.296 11.26 0 15.556-4.296 4.296-11.26 4.296-15.556 0-4.296-4.296-4.296-11.26 0-15.556zm14.495 1.06a9.5 9.5 0 100 13.435 9.5 9.5 0 000-13.435z"/></svg>