<svg xmlns="http://www.w3.org/2000/svg" width="24" height="24"><path fill-rule="evenodd" d="M20.25 2c.966 0 1.75.784 1.75 1.75v16.5A1.75 1.75 0 0120.25 22H3.75A1.75 1.75 0 012 20.25V3.75C2 2.784 2.784 2 3.75 2h16.5zm.25 1.75a.25.25 0 00-.25-.25H3.75a.25.25 0 00-.25.25v16.5c0 .138.112.25.25.25h16.5a.25.25 0 00.25-.25V3.75z"/><path fill-rule="evenodd" d="M18.146 10.842c1.038.423 1.038 1.893 0 2.316L7.115 17.652c-1.098.447-2.143-.741-1.56-1.773L7.748 12 5.555 8.12c-.583-1.03.462-2.22 1.56-1.772l11.031 4.494zm-10.932 5.15L17.012 12 7.214 8.008l1.91 3.377a1.25 1.25 0 010 1.23l-1.91 3.377z"/></svg>