<svg xmlns="http://www.w3.org/2000/svg" width="24" height="24"><path fill-rule="evenodd" d="M2 20.25c0 .966.784 1.75 1.75 1.75h16.5A1.75 1.75 0 0022 20.25V3.75A1.75 1.75 0 0020.25 2H3.75A1.75 1.75 0 002 3.75v16.5zm1.75.25a.25.25 0 01-.25-.25V3.75a.25.25 0 01.25-.25h16.5a.25.25 0 01.25.25v16.5a.25.25 0 01-.25.25H3.75z"/><path fill-rule="evenodd" d="M16.881 18.518c1.033.435 2.072-.604 1.637-1.637L13.896 5.902c-.46-1.092-2.04-.99-2.357.151l-1.192 4.294-4.294 1.192c-1.142.317-1.243 1.897-.15 2.357l10.978 4.622zm-4.089-11.37l4.106 9.75-9.75-4.106 3.737-1.037a1.25 1.25 0 00.87-.87l1.037-3.738z"/></svg>