<svg xmlns="http://www.w3.org/2000/svg" width="24" height="24"><path fill-rule="evenodd" d="M2 3.75C2 2.784 2.784 2 3.75 2h16.5c.966 0 1.75.784 1.75 1.75v16.5A1.75 1.75 0 0120.25 22H3.75A1.75 1.75 0 012 20.25V3.75zm1.75-.25a.25.25 0 00-.25.25v16.5c0 .138.112.25.25.25h16.5a.25.25 0 00.25-.25V3.75a.25.25 0 00-.25-.25H3.75z"/><path fill-rule="evenodd" d="M16.881 5.482c1.033-.435 2.072.604 1.637 1.637l-4.622 10.979c-.46 1.092-2.04.99-2.357-.151l-1.192-4.294-4.294-1.192c-1.142-.317-1.243-1.897-.15-2.357L16.88 5.482zm-4.089 11.37l4.106-9.75-9.75 4.106 3.737 1.037c.422.118.752.448.87.87l1.037 3.738z"/></svg>