<svg xmlns="http://www.w3.org/2000/svg" width="24" height="24"><path fill-rule="evenodd" d="M17.518 15.881c.435 1.033-.604 2.072-1.637 1.637L4.902 12.896c-1.092-.46-.99-2.04.151-2.357l4.294-1.192 1.192-4.294c.317-1.142 1.897-1.243 2.357-.15l4.622 10.978zm-11.37-4.089l9.75 4.106-4.106-9.75-1.037 3.737a1.25 1.25 0 01-.87.87l-3.738 1.037z"/><path fill-rule="evenodd" d="M19.778 4.222c4.296 4.296 4.296 11.26 0 15.556-4.296 4.296-11.26 4.296-15.556 0-4.296-4.296-4.296-11.26 0-15.556 4.296-4.296 11.26-4.296 15.556 0zm-1.06 14.495a9.5 9.5 0 10-13.435 0 9.5 9.5 0 0013.435 0z"/></svg>