<svg xmlns="http://www.w3.org/2000/svg" width="24" height="24"><path fill-rule="evenodd" d="M10.784 12a.76.76 0 01.213-.53.72.72 0 01.517-.22h.973a.72.72 0 01.515.22.76.76 0 010 1.06.72.72 0 01-.516.22h-.973a.72.72 0 01-.515-.22.76.76 0 01-.214-.53zm3.892 0a.76.76 0 01.213-.53.72.72 0 01.516-.22h.973a.72.72 0 01.516.22.76.76 0 010 1.06.72.72 0 01-.516.22h-.973a.72.72 0 01-.516-.22.76.76 0 01-.213-.53zm3.892 0a.76.76 0 01.213-.53.72.72 0 01.516-.22h.973a.72.72 0 01.516.22.76.76 0 010 1.06.72.72 0 01-.516.22h-.973a.72.72 0 01-.516-.22.76.76 0 01-.213-.53zM6.892 12a.76.76 0 01.214-.53.72.72 0 01.516-.22h.973a.72.72 0 01.516.22.76.76 0 010 1.06.72.72 0 01-.516.22h-.973a.72.72 0 01-.516-.22.76.76 0 01-.214-.53zM3 12a.76.76 0 01.214-.53.72.72 0 01.516-.22h.973a.72.72 0 01.516.22.76.76 0 010 1.06.72.72 0 01-.516.22H3.73a.72.72 0 01-.516-.22A.76.76 0 013 12zm3.224-9.553a.745.745 0 01.27-.325A.716.716 0 016.892 2h10.216c.142 0 .28.042.399.122a.753.753 0 01.27.325.77.77 0 01-.13.809l-5.108 5.75A.73.73 0 0112 9.25a.713.713 0 01-.539-.244l-5.108-5.75a.759.759 0 01-.129-.809zM12 7.387L15.454 3.5H8.546L12 7.388v-.001zm5.776 14.166a.746.746 0 01-.27.325.716.716 0 01-.398.122H6.892a.716.716 0 01-.399-.122.745.745 0 01-.27-.325.77.77 0 01.13-.809l5.108-5.75A.731.731 0 0112 14.75a.713.713 0 01.539.244l5.108 5.75a.758.758 0 01.129.809zM12 16.613L8.546 20.5h6.908L12 16.612v.001z"/></svg>