<svg xmlns="http://www.w3.org/2000/svg" width="24" height="24"><path fill-rule="evenodd" d="M5 20.25c0 .414.336.75.75.75h1.883c1.092 0 1.958 0 2.655-.057.714-.058 1.317-.18 1.868-.46a4.75 4.75 0 002.076-2.076c.281-.552.403-1.155.461-1.869.057-.697.057-1.563.057-2.655V5.636l2.955 3.129a.75.75 0 101.09-1.03l-4.25-4.5a.75.75 0 00-1.09 0l-4.25 4.5a.75.75 0 001.09 1.03l2.955-3.129v8.214c0 1.133 0 1.937-.052 2.566-.05.62-.147 1.005-.302 1.31a3.25 3.25 0 01-1.42 1.42c-.305.155-.69.251-1.31.302-.63.051-1.434.052-2.566.052H5.75a.75.75 0 00-.75.75z"/></svg>