<svg xmlns="http://www.w3.org/2000/svg" width="24" height="24"><path fill-rule="evenodd" d="M19 20.25a.75.75 0 01-.75.75h-1.883c-1.092 0-1.958 0-2.655-.057-.714-.058-1.317-.18-1.868-.46a4.75 4.75 0 01-2.076-2.076c-.281-.552-.403-1.155-.461-1.869-.057-.697-.057-1.563-.057-2.655V5.636L6.295 8.765a.75.75 0 11-1.09-1.03l4.25-4.5a.75.75 0 011.09 0l4.25 4.5a.75.75 0 01-1.09 1.03L10.75 5.636v8.214c0 1.133 0 1.937.052 2.566.05.62.147 1.005.302 1.31a3.25 3.25 0 001.42 1.42c.305.155.69.251 1.31.302.63.051 1.434.052 2.566.052h1.85a.75.75 0 01.75.75z"/></svg>