<svg xmlns="http://www.w3.org/2000/svg" width="24" height="24"><path fill-rule="evenodd" d="M5 3.75A.75.75 0 015.75 3h1.883c1.092 0 1.958 0 2.655.057.714.058 1.317.18 1.868.46a4.75 4.75 0 012.076 2.077c.281.55.403 1.154.461 1.868.057.697.057 1.563.057 2.655v8.247l2.955-3.129a.75.75 0 111.09 1.03l-4.25 4.5a.75.75 0 01-1.09 0l-4.25-4.5a.75.75 0 011.09-1.03l2.955 3.129V10.15c0-1.132 0-1.937-.052-2.566-.05-.62-.147-1.005-.302-1.31a3.25 3.25 0 00-1.42-1.42c-.305-.155-.69-.251-1.31-.302C9.536 4.501 8.732 4.5 7.6 4.5H5.75A.75.75 0 015 3.75z"/></svg>