<svg xmlns="http://www.w3.org/2000/svg" width="24" height="24"><path d="M8.25 11.27H3.56l1.97-1.917a.73.73 0 00.239-.52.712.712 0 00-.22-.53.752.752 0 00-.543-.213.768.768 0 00-.536.232l-3.25 3.162A.72.72 0 001 12c0 .193.08.379.22.516l3.25 3.162a.75.75 0 00.536.232.769.769 0 00.543-.214.728.728 0 00.22-.528.714.714 0 00-.239-.521L3.56 12.73h4.69a.76.76 0 00.53-.214A.72.72 0 009 12a.72.72 0 00-.22-.516.76.76 0 00-.53-.214zm3.75-.486c.2 0 .39.077.53.213a.72.72 0 01.22.517v.973a.72.72 0 01-.22.515.761.761 0 01-1.06 0 .72.72 0 01-.22-.516v-.973a.72.72 0 01.22-.515.76.76 0 01.53-.214zM12 3c.2 0 .39.077.53.214a.72.72 0 01.22.516v.973a.72.72 0 01-.22.516.761.761 0 01-1.06 0 .72.72 0 01-.22-.516V3.73a.72.72 0 01.22-.516A.76.76 0 0112 3zm0 11.676c.2 0 .39.077.53.213a.72.72 0 01.22.516v.973a.72.72 0 01-.22.516.761.761 0 01-1.06 0 .72.72 0 01-.22-.516v-.973a.72.72 0 01.22-.516.76.76 0 01.53-.213zm0-7.784c.2 0 .39.077.53.214a.72.72 0 01.22.516v.973a.72.72 0 01-.22.516.761.761 0 01-1.06 0 .72.72 0 01-.22-.516v-.973a.72.72 0 01.22-.516.76.76 0 01.53-.214zm0 11.676c.2 0 .39.076.53.213a.72.72 0 01.22.516v.973a.72.72 0 01-.22.516.761.761 0 01-1.06 0 .72.72 0 01-.22-.516v-.973a.72.72 0 01.22-.516.76.76 0 01.53-.213zm10.78-7.084a.72.72 0 010 1.031l-3.25 3.163a.762.762 0 01-1.041-.018.719.719 0 01-.018-1.014l1.97-1.916h-4.69a.76.76 0 01-.53-.214.72.72 0 010-1.032.76.76 0 01.53-.214h4.69l-1.97-1.916a.719.719 0 01.018-1.014.762.762 0 011.042-.018l3.25 3.162z"/></svg>