<svg xmlns="http://www.w3.org/2000/svg" width="24" height="24"><path d="M11.25 15.75v4.69l-1.97-1.97a.75.75 0 10-1.06 1.06l3.25 3.25a.75.75 0 001.06 0l3.25-3.25a.75.75 0 10-1.06-1.06l-1.97 1.97v-4.69a.75.75 0 10-1.5 0zm-.5-3.75a.75.75 0 01.75-.75h1a.75.75 0 110 1.5h-1a.75.75 0 01-.75-.75zm-8 0a.75.75 0 01.75-.75h1a.75.75 0 110 1.5h-1a.75.75 0 01-.75-.75zm12 0a.75.75 0 01.75-.75h1a.75.75 0 110 1.5h-1a.75.75 0 01-.75-.75zm-8 0a.75.75 0 01.75-.75h1a.75.75 0 110 1.5h-1a.75.75 0 01-.75-.75zm12 0a.75.75 0 01.75-.75h1a.75.75 0 110 1.5h-1a.75.75 0 01-.75-.75zM11.47 1.22a.75.75 0 011.06 0l3.25 3.25a.75.75 0 01-1.06 1.06l-1.97-1.97v4.69a.75.75 0 11-1.5 0V3.56L9.28 5.53a.75.75 0 01-1.06-1.06l3.25-3.25z"/></svg>