<svg xmlns="http://www.w3.org/2000/svg" width="24" height="24"><path fill-rule="evenodd" d="M16.954 5.43l.001.005C19.79 5.653 22 8.01 22 10.96c0 3.096-2.437 5.541-5.474 5.541H6.18C3.858 16.5 2 14.64 2 12.266a4.285 4.285 0 01.706-2.377 4.106 4.106 0 011.887-1.55c0-3.638 2.864-6.839 6.437-6.839a6.407 6.407 0 015.924 3.93zM6.094 8.34a1.5 1.5 0 01-.94 1.39c-.48.194-.899.535-1.197.986-.298.452-.459.99-.457 1.544v.006C3.5 13.825 4.7 15 6.18 15h10.346c2.196 0 3.974-1.76 3.974-4.04 0-2.174-1.615-3.872-3.66-4.03a1.5 1.5 0 01-1.286-.958A4.907 4.907 0 0011.03 3C8.391 3 6.093 5.42 6.093 8.34z"/><path d="M3 19.25a.75.75 0 01.75-.75h16.5a.75.75 0 010 1.5H3.75a.75.75 0 01-.75-.75zm.75 2.25a.75.75 0 000 1.5h16.5a.75.75 0 000-1.5H3.75z"/></svg>