<svg xmlns="http://www.w3.org/2000/svg" width="24" height="24"><path d="M15.185 1.06a6.455 6.455 0 007.754 7.753l.003-.002c.189-.044.375-.096.56-.156.282-.094.574.15.48.432a7.236 7.236 0 01-.236.613l-.003.007a7.174 7.174 0 01-6.243 4.285c-.034-2.794-1.947-5.11-4.548-5.71a6.688 6.688 0 00-2.855-2.63A7.174 7.174 0 0114.29.257l.007-.004c.2-.088.405-.166.613-.235.281-.094.525.198.432.48-.06.184-.113.37-.156.56l-.002.002z"/><path d="M2.075 11.971c0-2.91 2.29-5.471 5.149-5.471a5.149 5.149 0 014.74 3.144C14.23 9.818 16 11.708 16 14.068c0 2.096-1.396 3.819-3.299 4.299a.265.265 0 01-.275-.111 1.835 1.835 0 00-1.095-.708.349.349 0 01-.264-.396C11.278 16.058 10.444 15 9.373 15H7.087a1.76 1.76 0 00-1.605 1.035l-1.04 2.317a.25.25 0 01-.229.148h-.868C1.487 18.5 0 17.012 0 15.113a3.428 3.428 0 01.565-1.901c.37-.561.896-.993 1.51-1.24z"/><path d="M7.087 16.5a.258.258 0 00-.236.15l-1.58 3.513a.252.252 0 00.237.352h1.839c.172 0 .296.16.247.321l-.858 2.84c-.078.26.26.44.442.236l4.008-4.487c.145-.163.027-.416-.194-.416H9.103a.252.252 0 01-.24-.344l.749-1.82a.252.252 0 00-.24-.345H7.088z"/></svg>