<svg xmlns="http://www.w3.org/2000/svg" width="24" height="24"><path d="M16.954 3.93l.001.005C19.79 4.153 22 6.51 22 9.46c0 3.095-2.437 5.54-5.474 5.54H6.18C3.858 15 2 13.14 2 10.766a4.285 4.285 0 01.706-2.377 4.106 4.106 0 011.887-1.55C4.593 3.201 7.457 0 11.03 0a6.407 6.407 0 015.924 3.93zM7.636 16.607a.75.75 0 01.257 1.029l-1.5 2.5a.75.75 0 11-1.286-.772l1.5-2.5a.75.75 0 011.029-.257zm8.257 1.029a.75.75 0 10-1.286-.772l-1.5 2.5a.75.75 0 101.286.772l1.5-2.5zm-5.257 2.471a.75.75 0 01.257 1.029l-1.5 2.5a.75.75 0 11-1.286-.772l1.5-2.5a.75.75 0 011.029-.257zm8.257 1.029a.75.75 0 10-1.286-.772l-1.5 2.5a.75.75 0 101.286.772l1.5-2.5z"/></svg>