<svg xmlns="http://www.w3.org/2000/svg" width="24" height="24"><path d="M15 0a.75.75 0 01.75.75v1a.75.75 0 11-1.5 0v-1A.75.75 0 0115 0zm6.704 3.045a.75.75 0 00-1.28-.53l-.767.768a.75.75 0 001.06 1.06l.768-.768a.75.75 0 00.22-.53zM24 9a.75.75 0 01-.75.75h-1a.75.75 0 110-1.5h1A.75.75 0 0124 9zM9.045 2.296a.75.75 0 00-.53 1.279l.768.768a.75.75 0 101.06-1.06l-.768-.768a.75.75 0 00-.53-.22zm-2.152 18.84a.75.75 0 00-1.286-.772l-1.5 2.5a.75.75 0 001.286.772l1.5-2.5zm4.743-1.029a.75.75 0 01.257 1.029l-1.5 2.5a.75.75 0 11-1.286-.772l1.5-2.5a.75.75 0 011.029-.257zm5.257 1.029a.75.75 0 10-1.286-.772l-1.5 2.5a.75.75 0 001.286.772l1.5-2.5z"/><path fill-rule="evenodd" d="M10.659 6.518a5.215 5.215 0 00-.435-.018c-2.859 0-5.15 2.561-5.15 5.471-.613.248-1.14.68-1.51 1.24A3.428 3.428 0 003 15.114C3 17.012 4.487 18.5 6.345 18.5h8.276c2.43 0 4.379-1.956 4.379-4.432 0-.598-.113-1.166-.32-1.683a5 5 0 10-8.022-5.867zm-4.084 5.453a1.5 1.5 0 01-.94 1.392 1.785 1.785 0 00-.819.675 1.928 1.928 0 00-.316 1.069v.006C4.5 16.197 5.328 17 6.345 17h8.276c1.588 0 2.879-1.27 2.879-2.932 0-1.586-1.175-2.815-2.652-2.928a1.5 1.5 0 01-1.264-.907A3.649 3.649 0 0010.224 8c-1.924 0-3.65 1.78-3.65 3.971zm5.628-5.076a3.5 3.5 0 015.637 4.15 4.336 4.336 0 00-2.877-1.401 5.183 5.183 0 00-2.76-2.749z"/></svg>