<svg xmlns="http://www.w3.org/2000/svg" width="24" height="24"><path d="M11.357 16.59a.75.75 0 01.303 1.017l-3.25 6a.75.75 0 11-1.32-.714l3.25-6a.75.75 0 011.017-.303zM7.66 17.607a.75.75 0 00-1.32-.714l-3.25 6a.75.75 0 001.32.714l3.25-6zm11.697-1.017a.75.75 0 01.303 1.017l-3.25 6a.75.75 0 01-1.32-.714l3.25-6a.75.75 0 011.017-.303zm-3.697 1.017a.75.75 0 00-1.32-.714l-3.25 6a.75.75 0 001.32.714l3.25-6zm1.295-13.672V3.93A6.407 6.407 0 0011.03 0C7.456 0 4.592 3.201 4.592 6.84a4.095 4.095 0 00-1.887 1.55c-.463.7-.71 1.529-.706 2.376C2 13.14 3.858 15 6.18 15h10.346C19.563 15 22 12.555 22 9.46c0-2.95-2.21-5.307-5.045-5.525z"/></svg>