<svg xmlns="http://www.w3.org/2000/svg" width="24" height="24"><path d="M12.53 1.22a.75.75 0 00-1.28.53v2.5a.75.75 0 101.5 0v-2.5a.75.75 0 00-.22-.53zm7.955 3.295a.75.75 0 010 1.06l-1.768 1.768a.75.75 0 01-1.06-1.06l1.767-1.768a.751.751 0 011.061 0zM24 13a.75.75 0 01-.75.75h-2.5a.75.75 0 110-1.5h2.5A.75.75 0 0124 13zM3.515 4.515a.75.75 0 011.06 0l1.768 1.768a.75.75 0 11-1.06 1.06L3.515 5.575a.75.75 0 010-1.06zm14.672 13.923a.75.75 0 00-.53 1.28l1.768 1.767a.75.75 0 001.06-1.06l-1.768-1.768a.75.75 0 00-.53-.22z"/><path fill-rule="evenodd" d="M6.31 11.089c-2.417.474-4.235 2.79-4.235 5.382-.614.248-1.14.68-1.51 1.24A3.428 3.428 0 000 19.614C0 21.512 1.487 23 3.345 23h8.276C14.05 23 16 21.044 16 18.567c0-.344-.038-.679-.11-1a6 6 0 10-9.58-6.479zM12 8.5a4.5 4.5 0 013.267 7.595 4.343 4.343 0 00-3.303-1.947 5.164 5.164 0 00-4.02-3.098A4.5 4.5 0 0112 8.5zm-9.364 9.363a1.5 1.5 0 00.939-1.392c0-2.192 1.725-3.971 3.649-3.971 1.499 0 2.794.91 3.36 2.237a1.5 1.5 0 001.265.907c1.478.113 2.651 1.34 2.651 2.923 0 1.662-1.291 2.933-2.88 2.933H3.346c-1.017 0-1.845-.803-1.845-1.887v-.006a1.93 1.93 0 01.316-1.069c.206-.31.493-.544.82-.675z"/></svg>