<svg xmlns="http://www.w3.org/2000/svg" width="24" height="24"><path fill-rule="evenodd" d="M16.954 3.93l.001.005C19.79 4.153 22 6.51 22 9.46c0 3.095-2.437 5.54-5.474 5.54H6.18C3.858 15 2 13.14 2 10.766a4.285 4.285 0 01.706-2.377 4.106 4.106 0 011.887-1.55C4.593 3.201 7.457 0 11.03 0a6.407 6.407 0 015.924 3.93z"/><path d="M7.386 16.607a.75.75 0 01.257 1.029l-1.5 2.5a.75.75 0 11-1.286-.772l1.5-2.5a.75.75 0 011.029-.257zm8.257 1.029a.75.75 0 10-1.286-.772l-1.5 2.5a.75.75 0 101.286.772l1.5-2.5zm-4.286-1.046a.75.75 0 01.303 1.017l-3.25 6a.75.75 0 11-1.32-.714l3.25-6a.75.75 0 011.017-.303zm8.303 1.017a.75.75 0 00-1.32-.714l-3.25 6a.75.75 0 001.32.714l3.25-6z"/></svg>