<svg xmlns="http://www.w3.org/2000/svg" width="24" height="24"><path fill-rule="evenodd" d="M16.954 3.93l.001.005C19.79 4.153 22 6.51 22 9.46c0 3.095-2.437 5.54-5.474 5.54H6.18C3.858 15 2 13.14 2 10.766a4.285 4.285 0 01.706-2.377 4.106 4.106 0 011.887-1.55C4.593 3.201 7.457 0 11.03 0a6.407 6.407 0 015.924 3.93zM6.094 6.84a1.5 1.5 0 01-.94 1.39c-.48.194-.899.535-1.197.986-.298.452-.459.99-.457 1.544v.006c0 1.559 1.2 2.734 2.68 2.734h10.346c2.196 0 3.974-1.76 3.974-4.04 0-2.174-1.615-3.872-3.66-4.03a1.5 1.5 0 01-1.286-.958A4.907 4.907 0 0011.03 1.5c-2.639 0-4.937 2.42-4.937 5.34z"/><path d="M15.982 21.43a1 1 0 11-1.732-1 1 1 0 011.732 1zm-11.866.367a1 1 0 101-1.732 1 1 0 00-1 1.732zm13.5-5.197a.75.75 0 01.274 1.025l-.75 1.299a.75.75 0 11-1.299-.75l.75-1.299a.75.75 0 011.025-.274zM7.39 17.625a.75.75 0 00-1.298-.75l-.75 1.299a.75.75 0 001.299.75l.75-1.299zm2.476 5.321a1 1 0 11-1.732-1 1 1 0 011.732 1zm2.784-5.321a.75.75 0 00-1.3-.75L9.727 19.69a.75.75 0 001.299.75l1.625-2.815z"/></svg>