<svg xmlns="http://www.w3.org/2000/svg" width="24" height="24"><path fill-rule="evenodd" d="M10.795 6.543a7.175 7.175 0 012.982-3.036l.01-.006a7.218 7.218 0 01.138-.071l.003-.002c.12-.06.24-.118.362-.171l.008-.004a7.226 7.226 0 01.613-.235c.281-.094.525.198.432.48-.048.145-.09.291-.127.438v.002l-.03.12-.001.002a6.548 6.548 0 00-.085.438l-.008.049a6.455 6.455 0 007.36 7.36l.05-.008a7.33 7.33 0 00.437-.086l.003-.002.121-.03h.002a6.7 6.7 0 00.437-.126c.282-.093.574.15.48.431a7.106 7.106 0 01-.179.48l-.002.005a6.597 6.597 0 01-.055.129l-.003.007a7.098 7.098 0 01-.171.364l-.002.003-.03.057a6.412 6.412 0 01-.04.079l-.006.01a7.175 7.175 0 01-7.497 3.683 4.5 4.5 0 01.003.165c0 2.476-1.95 4.432-4.38 4.432H3.346C1.487 21.5 0 20.012 0 18.113a3.428 3.428 0 01.565-1.901c.37-.561.896-.993 1.51-1.24 0-2.91 2.29-5.472 5.149-5.472 1.03 0 1.989.303 2.794.827a7.173 7.173 0 01.777-3.784zm2.724-1.058v.039a7.957 7.957 0 007.995 7.956 5.673 5.673 0 01-5.874 1.809 4.354 4.354 0 00-3.368-2.606 5.672 5.672 0 011.247-7.198zm-2.578 8.589l-.357-.837A3.653 3.653 0 007.224 11c-1.924 0-3.65 1.78-3.65 3.971v1.013l-.938.379a1.785 1.785 0 00-.82.675 1.928 1.928 0 00-.316 1.069v.006C1.5 19.197 2.328 20 3.345 20h8.276c1.588 0 2.879-1.27 2.879-2.933 0-.21-.02-.413-.06-.609a2.865 2.865 0 00-2.59-2.314l-.909-.07z"/></svg>