<svg xmlns="http://www.w3.org/2000/svg" width="24" height="24"><path fill-rule="evenodd" d="M16.955 3.935V3.93A6.407 6.407 0 0011.03 0C7.456 0 4.592 3.201 4.592 6.84a4.095 4.095 0 00-1.887 1.55c-.463.7-.71 1.529-.706 2.376C2 13.14 3.858 15 6.18 15h10.346C19.563 15 22 12.555 22 9.46c0-2.95-2.21-5.307-5.045-5.525z"/><path d="M10.837 16.5h2.286c.182 0 .307.18.239.344l-.748 1.821a.252.252 0 00.239.344h1.889c.22 0 .34.253.194.416l-4.008 4.487c-.182.204-.52.023-.442-.235l.858-2.84a.252.252 0 00-.247-.322H9.258a.252.252 0 01-.236-.352L10.6 16.65a.258.258 0 01.236-.15z"/></svg>