<svg xmlns="http://www.w3.org/2000/svg" width="24" height="24"><path d="M15.02 5.523a6.493 6.493 0 01.165-1.463l.002-.003c.043-.188.095-.375.156-.559.093-.282-.15-.574-.432-.48a7.005 7.005 0 00-.613.235l-.008.004a7.174 7.174 0 00-4.193 5.395 6.688 6.688 0 012.855 2.63c2.6.6 4.514 2.916 4.548 5.71a7.175 7.175 0 006.243-4.285l.003-.007c.088-.2.167-.405.236-.614.094-.28-.198-.524-.48-.431-.184.06-.371.112-.56.156l-.003.002a6.458 6.458 0 01-7.92-6.29z"/><path fill-rule="evenodd" d="M7.224 9.5c-2.859 0-5.15 2.561-5.15 5.471-.613.248-1.14.68-1.51 1.24A3.428 3.428 0 000 18.114C0 20.012 1.487 21.5 3.345 21.5h8.276c.373 0 .735-.046 1.08-.133"/><path d="M7.224 9.5c.266 0 .527.02.782.059L7.224 9.5zm.782.059a5.158 5.158 0 013.957 3.085L8.006 9.559zm3.957 3.085a4.352 4.352 0 013.61 2.496l-3.61-2.496zm3.611 2.496c.273.581.426 1.234.426 1.927l-.426-1.927zM16 17.067c0 2.097-1.397 3.82-3.3 4.3l3.3-4.3z"/><path d="M2.075 14.971c0-2.91 2.29-5.471 5.149-5.471a5.158 5.158 0 014.74 3.144 4.352 4.352 0 013.61 2.496c.273.581.426 1.234.426 1.927 0 2.097-1.397 3.82-3.3 4.3a4.413 4.413 0 01-1.08.133H3.346C1.487 21.5 0 20.012 0 18.113a3.428 3.428 0 01.565-1.901c.37-.561.896-.993 1.51-1.24z"/></svg>