<svg xmlns="http://www.w3.org/2000/svg" width="24" height="24"><path d="M15.53.22a.75.75 0 00-1.28.53v1a.75.75 0 101.5 0v-1a.75.75 0 00-.22-.53zm5.955 2.295a.75.75 0 010 1.06l-.768.768a.75.75 0 01-1.06-1.06l.767-.768a.749.749 0 011.061 0zM23.78 9.53a.75.75 0 00-.53-1.28h-1a.75.75 0 100 1.5h1a.75.75 0 00.53-.22zM8.515 2.515a.75.75 0 011.06 0l.768.768a.75.75 0 11-1.06 1.06l-.768-.768a.75.75 0 010-1.06zM10.224 6.5c-2.859 0-5.15 2.561-5.15 5.471-.613.248-1.14.68-1.51 1.24A3.428 3.428 0 003 15.114C3 17.012 4.487 18.5 6.345 18.5h.868a.25.25 0 00.228-.148l1.041-2.317A1.758 1.758 0 0110.087 15h2.286c1.07 0 1.905 1.058 1.694 2.152a.349.349 0 00.264.396c.45.095.841.359 1.095.708.064.087.17.137.275.11 1.903-.48 3.299-2.202 3.299-4.298 0-2.36-1.769-4.25-4.037-4.424A5.149 5.149 0 0010.224 6.5z"/><path d="M9.85 16.65a.258.258 0 01.237-.15h2.286c.182 0 .307.18.239.344l-.748 1.821a.252.252 0 00.239.344h1.889c.22 0 .34.253.194.416l-4.008 4.487c-.182.204-.52.023-.442-.235l.858-2.84a.252.252 0 00-.247-.322H8.508a.252.252 0 01-.236-.352L9.85 16.65zm9.767-5.728a5 5 0 00-7.845-5.74 6.658 6.658 0 014.18 3.1 5.847 5.847 0 013.665 2.64z"/></svg>