<svg xmlns="http://www.w3.org/2000/svg" width="24" height="24"><path d="M7.224 6.5c-2.859 0-5.15 2.561-5.15 5.471-.613.248-1.14.68-1.51 1.24A3.428 3.428 0 000 15.114C0 17.012 1.487 18.5 3.345 18.5h8.276c.373 0 .735-.046 1.08-.133 1.902-.48 3.299-2.203 3.299-4.3 0-.693-.153-1.346-.426-1.927a4.352 4.352 0 00-3.61-2.496A5.158 5.158 0 007.223 6.5zM3.893 21.136a.75.75 0 00-1.286-.772l-1.5 2.5a.75.75 0 001.286.772l1.5-2.5zm4.743-1.029a.75.75 0 01.257 1.029l-1.5 2.5a.75.75 0 11-1.286-.772l1.5-2.5a.75.75 0 011.029-.257zm5 0a.75.75 0 01.257 1.029l-1.5 2.5a.75.75 0 11-1.286-.772l1.5-2.5a.75.75 0 011.029-.257z"/></svg>