<svg xmlns="http://www.w3.org/2000/svg" width="24" height="24"><g fill-rule="evenodd"><path d="M7.087 16.5h2.286c.182 0 .307.18.239.344l-.748 1.821a.252.252 0 00.239.344h1.889c.22 0 .34.253.194.416l-4.008 4.487c-.182.204-.52.023-.442-.235l.858-2.84a.252.252 0 00-.247-.322H5.508a.252.252 0 01-.236-.352L6.85 16.65a.258.258 0 01.236-.15z"/><path d="M13.777.507a7.175 7.175 0 00-3.76 6.82A5.102 5.102 0 007.225 6.5c-2.859 0-5.15 2.561-5.15 5.471-.613.248-1.14.68-1.51 1.24A3.428 3.428 0 000 15.114C0 17.012 1.487 18.5 3.345 18.5h.405a.75.75 0 000-1.5h-.405C2.328 17 1.5 16.197 1.5 15.113v-.006a1.949 1.949 0 01.316-1.069c.206-.31.493-.544.82-.675l.939-.38v-1.012C3.575 9.78 5.3 8 7.224 8c1.499 0 2.794.91 3.36 2.237l.357.837.908.07a2.865 2.865 0 012.591 2.314c.04.196.06.4.06.61 0 .91-.388 1.704-1 2.235-.33.286-.724.496-1.159.607-.378.097-.688.426-.65.815.04.434.416.77.843.68a4.332 4.332 0 002.114-1.12 4.39 4.39 0 00.989-1.431 4.517 4.517 0 00.36-1.951 7.16 7.16 0 005.1-1.071 7.175 7.175 0 002.397-2.612l.005-.01.041-.079.03-.057.002-.004c.06-.119.117-.24.171-.363l.003-.007.055-.129.002-.005c.066-.157.125-.317.18-.48.093-.28-.2-.525-.481-.431a6.73 6.73 0 01-.437.126h-.002l-.12.03-.004.002a6.455 6.455 0 01-.437.086l-.05.007a6.457 6.457 0 01-7.36-7.36l.008-.048c.023-.147.052-.293.085-.438l.002-.003.028-.119V.936a6.47 6.47 0 01.128-.438c.093-.282-.15-.574-.432-.48a7.017 7.017 0 00-.613.235l-.008.004a7.19 7.19 0 00-.362.17l-.003.003a5.88 5.88 0 00-.138.071l-.01.006zM17.172 12.5a5.677 5.677 0 01-1.532-.211 4.353 4.353 0 00-3.368-2.606 5.672 5.672 0 011.247-7.198v.04a7.956 7.956 0 007.995 7.955 5.673 5.673 0 01-4.342 2.02z"/></g></svg>