<svg xmlns="http://www.w3.org/2000/svg" width="24" height="24"><path fill-rule="evenodd" d="M13.777.507a7.175 7.175 0 00-3.76 6.82A5.102 5.102 0 007.225 6.5c-2.859 0-5.15 2.561-5.15 5.471-.613.248-1.14.68-1.51 1.24A3.428 3.428 0 000 15.114C0 17.012 1.487 18.5 3.345 18.5h8.276c2.43 0 4.379-1.956 4.379-4.432a4.5 4.5 0 00-.003-.165 7.16 7.16 0 005.1-1.071 7.175 7.175 0 002.397-2.612l.005-.01.041-.079.03-.057.002-.003c.06-.12.117-.241.171-.364l.003-.007.055-.129.002-.005c.066-.157.125-.317.18-.48.093-.28-.2-.525-.481-.431a6.73 6.73 0 01-.437.126h-.002l-.12.03-.004.002a6.455 6.455 0 01-.437.086l-.05.007a6.457 6.457 0 01-7.36-7.36l.008-.048c.023-.147.052-.293.085-.438l.002-.003.028-.119V.936c.038-.147.08-.293.128-.438.093-.282-.15-.574-.432-.48a6.996 6.996 0 00-.613.235l-.008.004c-.122.053-.243.11-.362.17l-.003.003a7.285 7.285 0 00-.138.071l-.01.006zm-.258 2.017v-.039a5.674 5.674 0 00-1.247 7.198 4.353 4.353 0 013.368 2.606 5.677 5.677 0 004.636-.713 5.673 5.673 0 001.238-1.096 7.953 7.953 0 01-7.204-4.497 7.957 7.957 0 01-.79-3.46zm-2.935 7.713l.357.837.908.07a2.865 2.865 0 012.591 2.314c.04.196.06.4.06.61 0 1.661-1.291 2.932-2.88 2.932H3.346C2.328 17 1.5 16.197 1.5 15.113v-.006a1.93 1.93 0 01.316-1.069c.206-.31.493-.544.82-.675l.939-.38v-1.012C3.575 9.78 5.3 8 7.224 8c1.499 0 2.794.91 3.36 2.237z"/><path d="M3.893 21.136a.75.75 0 00-1.286-.772l-1.5 2.5a.75.75 0 001.286.772l1.5-2.5zm4.743-1.029a.75.75 0 01.257 1.029l-1.5 2.5a.75.75 0 11-1.286-.772l1.5-2.5a.75.75 0 011.029-.257zm5 0a.75.75 0 01.257 1.029l-1.5 2.5a.75.75 0 11-1.286-.772l1.5-2.5a.75.75 0 011.029-.257z"/></svg>