<svg xmlns="http://www.w3.org/2000/svg" width="24" height="24"><path d="M15.53.22a.75.75 0 00-1.28.53v1a.75.75 0 101.5 0v-1a.75.75 0 00-.22-.53zm5.955 2.295a.75.75 0 010 1.06l-.768.768a.75.75 0 01-1.06-1.06l.767-.768a.749.749 0 011.061 0zM24 9a.75.75 0 01-.75.75h-1a.75.75 0 110-1.5h1A.75.75 0 0124 9zM8.515 2.515a.75.75 0 011.06 0l.768.768a.75.75 0 11-1.06 1.06l-.768-.768a.75.75 0 010-1.06z"/><path fill-rule="evenodd" d="M6.75 17h-.405C5.328 17 4.5 16.197 4.5 15.113v-.006a1.93 1.93 0 01.316-1.069c.206-.31.493-.544.82-.675a1.5 1.5 0 00.939-1.392C6.575 9.78 8.3 8 10.224 8c1.5 0 2.794.907 3.36 2.233a1.5 1.5 0 001.264.907c1.477.113 2.652 1.342 2.652 2.928 0 1.4-.918 2.524-2.159 2.842-.378.097-.688.426-.65.815.04.434.416.77.843.68 1.987-.418 3.466-2.18 3.466-4.338 0-.597-.113-1.165-.32-1.682a5 5 0 10-8.022-5.867 5.215 5.215 0 00-.434-.018c-2.859 0-5.15 2.561-5.15 5.471-.613.248-1.14.68-1.51 1.24A3.428 3.428 0 003 15.114C3 17.012 4.487 18.5 6.345 18.5h.405a.75.75 0 000-1.5zm5.453-10.105a3.5 3.5 0 015.637 4.15 4.336 4.336 0 00-2.877-1.401 5.183 5.183 0 00-2.76-2.749z"/><path d="M12.373 16.5h-2.286a.258.258 0 00-.236.15l-1.58 3.513a.252.252 0 00.237.352h1.839c.172 0 .296.16.247.321l-.858 2.84c-.078.26.26.44.442.236l4.008-4.487c.145-.163.027-.416-.194-.416h-1.889a.252.252 0 01-.24-.344l.749-1.82a.252.252 0 00-.24-.345z"/></svg>