<svg xmlns="http://www.w3.org/2000/svg" width="24" height="24"><path d="M15 0a.75.75 0 01.75.75v1a.75.75 0 11-1.5 0v-1A.75.75 0 0115 0zm6.704 3.045a.75.75 0 00-1.28-.53l-.767.768a.75.75 0 001.06 1.06l.768-.768a.75.75 0 00.22-.53zM24 9a.75.75 0 01-.75.75h-1a.75.75 0 110-1.5h1A.75.75 0 0124 9zM9.045 2.296a.75.75 0 00-.53 1.279l.768.768a.75.75 0 101.06-1.06l-.768-.768a.75.75 0 00-.53-.22zm-2.152 18.84a.75.75 0 00-1.286-.772l-1.5 2.5a.75.75 0 001.286.772l1.5-2.5zm4.743-1.029a.75.75 0 01.257 1.029l-1.5 2.5a.75.75 0 11-1.286-.772l1.5-2.5a.75.75 0 011.029-.257zm5.257 1.029a.75.75 0 10-1.286-.772l-1.5 2.5a.75.75 0 001.286.772l1.5-2.5zM5.075 11.971c0-2.91 2.29-5.471 5.149-5.471a5.149 5.149 0 014.74 3.144C17.23 9.818 19 11.708 19 14.068c0 2.476-1.95 4.432-4.38 4.432H6.346C4.487 18.5 3 17.012 3 15.113a3.428 3.428 0 01.565-1.901c.37-.561.896-.993 1.51-1.24zm14.542-1.049a5 5 0 00-7.845-5.74 6.658 6.658 0 014.18 3.1 5.847 5.847 0 013.665 2.64z"/></svg>