<svg xmlns="http://www.w3.org/2000/svg" width="24" height="24"><path fill-rule="evenodd" d="M2.28 1.22a.75.75 0 00-1.06 1.06l5.208 5.21C5.104 9.715 4 12.356 4 15a8 8 0 0014.543 4.604l3.177 3.176a.75.75 0 101.06-1.06L2.28 1.22zM5.5 15c0-2.153.868-4.394 2.025-6.414l9.938 9.938A6.5 6.5 0 015.5 15z"/><path d="M19.246 15.235c.415 0 .753-.336.722-.75-.221-2.963-1.7-6.044-3.23-8.31a33.934 33.934 0 00-4.044-4.886.985.985 0 00-1.388 0 33.659 33.659 0 00-2.744 3.103.737.737 0 00.064.974.763.763 0 001.139-.077A33.26 33.26 0 0112 2.72a32.745 32.745 0 013.494 4.295c1.465 2.168 2.748 4.934 2.968 7.47.036.414.37.75.784.75z"/></svg>