<svg xmlns="http://www.w3.org/2000/svg" width="24" height="24"><path fill-rule="evenodd" d="M12.185 21.495c4.059 0 7.065-2.849 7.065-6.771 0-2.345-1.093-3.5-2.678-5.175l-.021-.023c-1.44-1.521-3.139-3.361-3.649-6.577a6.148 6.148 0 00-1.911 1.765c-.787 1.148-1.147 2.641-.216 4.51.603 1.208.777 2.748-.277 3.806-.657.659-1.762 1.103-2.956.587-.752-.325-1.353-.958-1.838-1.795-.567.708-.954 1.745-.954 2.902 0 3.859 3.288 6.771 7.435 6.771zm2.08-19.936c-.017-.346-.296-.627-.632-.545-2.337.577-6.605 4.055-4.2 8.883.474.948.392 1.68.004 2.068-.64.642-1.874.686-2.875-1.82-.131-.329-.498-.511-.803-.336-1.547.891-2.509 2.87-2.509 4.915C3.25 19.568 7.372 23 12.185 23c4.812 0 8.565-3.449 8.565-8.276 0-2.949-1.466-4.496-3.006-6.122-1.61-1.699-3.479-3.487-3.479-7.043z"/></svg>