<svg xmlns="http://www.w3.org/2000/svg" width="24" height="24"><path d="M19.965 11.25a8.005 8.005 0 00-6.334-7.084c.24.308.5.674.758 1.096.853 1.39 1.7 3.395 1.84 5.988h3.736zm-12.195 0H4.035a8.005 8.005 0 016.334-7.084c-.24.308-.5.674-.758 1.096-.853 1.39-1.7 3.395-1.84 5.988zm1.84 7.488c.26.422.519.788.759 1.096a8.005 8.005 0 01-6.334-7.084H7.77c.14 2.593.988 4.599 1.84 5.988zm-.337-5.988c.137 2.263.879 4.002 1.616 5.204.406.661.81 1.16 1.111 1.49.3-.33.705-.829 1.11-1.49.738-1.202 1.48-2.941 1.617-5.204H9.273zm1.617-6.704c-.738 1.202-1.48 2.941-1.617 5.204h5.454c-.137-2.263-.879-4.002-1.616-5.204A9.973 9.973 0 0012 4.556c-.3.33-.705.829-1.11 1.49zm9.075 6.704a8.005 8.005 0 01-6.334 7.084c.24-.308.5-.674.758-1.096.853-1.39 1.7-3.395 1.84-5.988h3.736z"/><path fill-rule="evenodd" d="M23 12c0 6.075-4.925 11-11 11S1 18.075 1 12 5.925 1 12 1s11 4.925 11 11zm-1.5 0a9.5 9.5 0 11-19 0 9.5 9.5 0 0119 0z"/></svg>