<svg xmlns="http://www.w3.org/2000/svg" width="24" height="24"><path d="M22 18c0-1.594-.802-3.184-1.631-4.414a16.972 16.972 0 00-2.022-2.443.493.493 0 00-.694 0 16.972 16.972 0 00-2.022 2.443C14.801 14.816 14 16.406 14 18a4 4 0 108 0zM4.788 7.425c3.06.777 5.332.006 7.417-.703l.036-.012c2.088-.709 3.99-1.344 6.602-.681.424.108.959.275 1.399.42a42.25 42.25 0 01.701.238l.042.015.014.005a.75.75 0 00.502-1.414l-.062-.021a31.225 31.225 0 00-.728-.248 24.303 24.303 0 00-1.499-.449c-3.06-.777-5.332-.006-7.417.702l-.036.013c-2.088.709-3.99 1.344-6.602.681a22.91 22.91 0 01-1.399-.42 42.108 42.108 0 01-.701-.238l-.042-.015-.013-.005a.75.75 0 00-.959.456.765.765 0 00.473.964l.21.073.563.19a24.32 24.32 0 001.499.449zM3 17.293a.75.75 0 00-.5 1.414l.016.006.045.015.165.058.563.19c.447.147 1.023.328 1.499.449 2.808.713 4.946.123 6.897-.527a.75.75 0 10-.474-1.423c-1.875.625-3.673 1.1-6.054.496a22.848 22.848 0 01-1.399-.42 41.826 41.826 0 01-.701-.238l-.042-.015L3 17.293zm8.758-6.003l.274-.093c.175-.059.35-.118.53-.176a.733.733 0 01.926.49.769.769 0 01-.501.949c-.157.051-.315.104-.474.158l-.27.092c-.635.215-1.297.44-1.98.623-1.59.424-3.34.634-5.475.092a24.334 24.334 0 01-1.499-.45 44.766 44.766 0 01-.728-.247l-.045-.015-.017-.006a.75.75 0 11.502-1.414l.014.005.042.015a42.54 42.54 0 00.701.238c.44.145.975.313 1.399.42 1.821.463 3.3.291 4.718-.088a29.724 29.724 0 001.883-.593z"/></svg>