<svg xmlns="http://www.w3.org/2000/svg" width="24" height="24"><path fill-rule="evenodd" d="M2.658 2.727a.749.749 0 00-1.13.417c-.903 3.091-.637 6.718.776 9.733 1.42 3.032 4.024 5.492 7.797 6.107 2.124.346 4.304.127 6.12-.49 1.411-.48 2.678-1.227 3.5-2.211.267.323.49.64.68.97.515.89.83 1.927 1.116 3.525a.75.75 0 101.475-.265c-.298-1.663-.65-2.9-1.294-4.012a8.983 8.983 0 00-1.176-1.58c1.035-2.42.976-5.246-.748-7.602-1.671-2.281-4.306-2.839-6.661-2.88-1.188-.02-2.35.09-3.348.2l-.567.064c-.76.087-1.365.156-1.817.156-1.787 0-2.6-.598-3.682-1.396-.314-.232-.65-.48-1.041-.736zM19.355 13.78c.626-1.865.448-3.884-.79-5.574-1.251-1.71-3.283-2.228-5.478-2.267-1.087-.018-2.171.082-3.157.191l-.519.059c-.765.088-1.484.17-2.03.17-2.29 0-3.535-.906-4.665-1.748-.475 2.494-.157 5.278.944 7.63 1.251 2.67 3.485 4.741 6.682 5.262 1.877.306 3.81.11 5.398-.43 1.354-.46 2.372-1.138 2.935-1.883a25.555 25.555 0 00-.791-.706c-1.418-1.214-3.254-1.664-5.261-2.155l-.022-.006c-1.924-.471-4.05-.991-5.576-2.518a.75.75 0 011.06-1.061c1.184 1.185 2.88 1.634 4.89 2.127l.155.037c1.895.464 4.037.987 5.728 2.437.173.148.338.293.497.435z"/></svg>