<svg xmlns="http://www.w3.org/2000/svg" width="24" height="24"><path fill-rule="evenodd" d="M3.645 16a9.994 9.994 0 01-.807-1.485l-.004-.01a9.942 9.942 0 01-.329-.855c-.13-.392.277-.732.67-.602.257.084.517.157.78.218l.004.002A9 9 0 0014.999 4.5c0-.687-.077-1.37-.231-2.04l-.002-.004a8.942 8.942 0 00-.218-.779c-.13-.394.21-.8.602-.67.29.096.575.205.855.328l.01.005a10.002 10.002 0 014.328 14.666.75.75 0 01-.093 1.494H.75a.75.75 0 010-1.5h2.895zM6 15c5.799 0 10.5-4.701 10.5-10.5 0-.426-.025-.847-.075-1.26A8.5 8.5 0 0118.468 16H5.518a8.494 8.494 0 01-.778-1.075c.413.049.834.075 1.26.075z"/><path d="M24 19.75a.75.75 0 00-.75-.75H3.75a.75.75 0 000 1.5h19.5a.75.75 0 00.75-.75zM20.25 22a.75.75 0 010 1.5H.75a.75.75 0 010-1.5h19.5z"/></svg>