<svg xmlns="http://www.w3.org/2000/svg" width="24" height="24"><path fill-rule="evenodd" d="M6.42.415a.75.75 0 00-1.34 0l-.872 1.743c-.308.615-.42.833-.563 1.018a2.584 2.584 0 01-.47.469c-.184.142-.402.255-1.017.563l-1.743.871a.75.75 0 000 1.342l1.743.871c.615.308.833.42 1.018.563.176.136.333.293.469.469.142.185.255.403.563 1.018l.871 1.743a.75.75 0 001.342 0l.871-1.743c.308-.615.42-.833.563-1.018.136-.176.293-.333.469-.469.185-.142.403-.255 1.018-.563l1.743-.871a.75.75 0 000-1.342l-1.743-.871c-.615-.308-.833-.42-1.018-.563a2.584 2.584 0 01-.469-.47c-.142-.184-.255-.402-.563-1.017L6.421.415zm-.67 2.012l.233.465c.264.53.442.886.684 1.2.214.278.463.527.741.74.314.243.67.421 1.2.685l.465.233-.465.233c-.53.264-.886.442-1.2.684a4.083 4.083 0 00-.74.741c-.243.314-.421.67-.685 1.2l-.233.465-.233-.465c-.264-.53-.442-.886-.684-1.2a4.083 4.083 0 00-.741-.74c-.314-.243-.67-.421-1.2-.685l-.465-.233.465-.233c.53-.264.886-.442 1.2-.684.278-.214.527-.463.74-.741.243-.314.421-.67.685-1.2l.233-.465zM15.999 7c0-.687-.077-1.37-.231-2.04l-.002-.004a8.942 8.942 0 00-.218-.779c-.13-.394.21-.8.602-.67.29.096.575.205.855.328l.01.005A10.002 10.002 0 0113 23a10.002 10.002 0 01-9.162-5.985l-.004-.01a9.942 9.942 0 01-.329-.855c-.13-.392.277-.732.67-.602.257.084.517.157.78.218l.004.002A9 9 0 0015.999 7zM7 17.5c5.799 0 10.5-4.701 10.5-10.5 0-.426-.025-.847-.075-1.26A8.5 8.5 0 115.74 17.425c.413.049.834.075 1.26.075z"/></svg>