<svg xmlns="http://www.w3.org/2000/svg" width="24" height="24"><path d="M5.75 0a.75.75 0 01.67.415l.872 1.743c.308.615.42.833.563 1.018.136.176.293.333.469.469.185.142.403.255 1.018.563l1.743.871a.75.75 0 010 1.342l-1.743.871c-.615.308-.833.42-1.018.563a2.584 2.584 0 00-.469.469c-.142.185-.255.403-.563 1.018l-.871 1.743a.75.75 0 01-1.342 0l-.871-1.743c-.308-.615-.42-.833-.563-1.018a2.583 2.583 0 00-.47-.469c-.184-.142-.402-.255-1.017-.563L.415 6.421a.75.75 0 010-1.342l1.743-.871c.615-.308.833-.42 1.018-.563.176-.136.333-.293.469-.47.142-.184.255-.402.563-1.017L5.079.415A.75.75 0 015.75 0zm10.249 7c0-.687-.077-1.37-.231-2.04l-.002-.004a8.942 8.942 0 00-.218-.779c-.13-.394.21-.8.602-.67.29.096.575.205.855.328l.01.005A10.002 10.002 0 0113 23a10.002 10.002 0 01-9.162-5.985l-.004-.01a9.942 9.942 0 01-.329-.855c-.13-.392.277-.732.67-.602.257.084.517.157.78.218l.004.002A9 9 0 0015.999 7z"/></svg>