<svg xmlns="http://www.w3.org/2000/svg" width="24" height="24"><path d="M16.978 9.718A5.936 5.936 0 0014.127 9c-3.216 0-5.793 2.775-5.793 5.927a3.66 3.66 0 00-1.699 1.344A3.615 3.615 0 006 18.33C6 20.387 7.673 22 9.763 22h9.31C21.807 22 24 19.881 24 17.198c0-2.237-1.53-4.096-3.62-4.652a5.051 5.051 0 00-.929-.156 5.664 5.664 0 00-2.473-2.672z"/><path d="M5.5 15c.45-.504 1.396-1.02 1.396-1.02.463-3.524 3.465-6.48 7.231-6.48.8 0 1.571.124 2.294.356-.738-1.382-2.111-2.34-3.717-2.466C11.864 3.38 9.935 2 7.676 2 4.638 2 2.204 4.775 2.204 7.927A3.506 3.506 0 00.6 9.271a3.767 3.767 0 00-.6 2.06C0 13.387 1.58 15 3.554 15H5.5z"/></svg>