<svg xmlns="http://www.w3.org/2000/svg" width="24" height="24"><path fill-rule="evenodd" d="M16.978 9.718c-.22-2.33-2.017-4.152-4.274-4.328C11.864 3.38 9.935 2 7.676 2 4.638 2 2.204 4.775 2.204 7.927A3.506 3.506 0 00.6 9.271a3.767 3.767 0 00-.6 2.06C0 13.387 1.58 15 3.554 15H8.16a3.666 3.666 0 00-1.525 1.27A3.615 3.615 0 006 18.33C6 20.388 7.673 22 9.763 22h9.31C21.807 22 24 19.881 24 17.198c0-2.556-1.997-4.62-4.549-4.808a5.664 5.664 0 00-2.473-2.672zM3.704 7.928a1.5 1.5 0 01-.93 1.387 2.006 2.006 0 00-.915.771c-.233.36-.36.791-.359 1.239v.005c0 1.27.948 2.17 2.054 2.17h4.958c.635-2.518 2.897-4.5 5.615-4.5.414 0 .818.041 1.207.12-.402-1.257-1.49-2.136-2.747-2.235a1.5 1.5 0 01-1.267-.916C10.7 4.486 9.298 3.5 7.676 3.5c-2.077 0-3.972 1.964-3.972 4.427zm5.173 8.398a1.5 1.5 0 00.957-1.399c0-2.38 1.96-4.427 4.293-4.427 1.804 0 3.305 1.035 3.953 2.497a1.5 1.5 0 001.26.889c1.803.133 3.16 1.576 3.16 3.312 0 1.815-1.481 3.302-3.427 3.302h-9.31c-1.303 0-2.263-.98-2.263-2.17v-.005a2.115 2.115 0 01.372-1.206 2.169 2.169 0 011.005-.793z"/></svg>