<svg xmlns="http://www.w3.org/2000/svg" width="24" height="24"><path fill-rule="evenodd" d="M15.475 1.117a1.025 1.025 0 00-.95 0 1.06 1.06 0 00-.454.499 4.862 4.862 0 00-.162.391l-.921 2.394c-.324.842-.443 1.136-.615 1.377a2.49 2.49 0 01-.595.595c-.24.172-.535.29-1.377.615l-2.394.92a5.222 5.222 0 00-.391.163 1.073 1.073 0 00-.5.454 1.025 1.025 0 000 .95c.148.282.408.41.5.454.114.056.257.111.391.162l2.394.921c.842.324 1.136.443 1.377.615.23.163.432.364.595.595.172.24.29.535.615 1.377l.92 2.394c.052.134.107.277.163.391.044.092.171.352.454.5.298.155.652.155.95 0 .283-.148.41-.408.454-.5a5.2 5.2 0 00.162-.391l.921-2.394c.324-.842.443-1.136.615-1.377a2.49 2.49 0 01.595-.595c.24-.172.535-.29 1.377-.615l2.394-.92c.134-.052.277-.107.391-.163.092-.044.352-.172.5-.454a1.026 1.026 0 000-.95 1.073 1.073 0 00-.5-.454 5.213 5.213 0 00-.391-.163l-2.394-.92c-.842-.324-1.136-.443-1.377-.615a2.527 2.527 0 01-.595-.595c-.172-.24-.29-.535-.615-1.377l-.92-2.394c-.052-.134-.107-.277-.163-.391a1.073 1.073 0 00-.454-.5zM6.933 12.098a1.011 1.011 0 00-.866 0 1.038 1.038 0 00-.432.405 4.03 4.03 0 00-.165.308l-.53 1.058c-.31.622-.424.842-.568 1.029a2.612 2.612 0 01-.474.474c-.187.144-.407.258-1.03.569l-1.057.529c-.1.05-.215.107-.308.165a1.04 1.04 0 00-.405.432 1.01 1.01 0 000 .866c.116.246.316.377.405.432.093.058.209.116.308.165l1.058.53c.622.31.842.424 1.029.568.178.137.337.296.474.474.144.187.258.407.569 1.03l.529 1.057c.05.1.107.215.165.308.055.09.186.289.432.405.274.13.592.13.866 0 .246-.116.377-.316.432-.405.058-.093.116-.209.165-.308l.53-1.058c.31-.622.424-.842.568-1.029.137-.178.296-.337.474-.474.187-.144.407-.258 1.03-.569l1.057-.529a4.07 4.07 0 00.308-.165 1.04 1.04 0 00.405-.432 1.01 1.01 0 000-.866 1.04 1.04 0 00-.405-.432 3.782 3.782 0 00-.308-.165l-1.058-.53c-.622-.31-.842-.424-1.029-.568a2.612 2.612 0 01-.474-.474c-.144-.187-.258-.407-.569-1.03l-.529-1.057a4.027 4.027 0 00-.165-.308 1.038 1.038 0 00-.432-.405z"/></svg>