<svg xmlns="http://www.w3.org/2000/svg" width="24" height="24"><path d="M12.53 1.22a.75.75 0 00-1.28.53v2.5a.75.75 0 101.5 0v-2.5a.75.75 0 00-.22-.53zm7.955 3.25a.754.754 0 010 1.065L18.717 7.31a.748.748 0 01-1.261-.538.755.755 0 01.201-.526l1.767-1.775a.75.75 0 011.061 0zM3.78 13.52a.754.754 0 00-.53-1.284H.75a.749.749 0 00-.75.752.754.754 0 00.75.753h2.5c.199 0 .39-.079.53-.22zm20 0a.754.754 0 00-.53-1.284h-2.5a.748.748 0 00-.75.752.754.754 0 00.75.753h2.5c.199 0 .39-.079.53-.22zM4.045 4.25a.749.749 0 00-.75.753c0 .2.08.39.22.532L5.283 7.31a.75.75 0 001.234-.82.753.753 0 00-.174-.244L4.575 4.47a.749.749 0 00-.53-.22z"/><path fill-rule="evenodd" d="M17.197 16A6.02 6.02 0 0018 12.988c0-3.326-2.686-6.023-6-6.023s-6 2.697-6 6.023c0 1.098.292 2.126.803 3.012H3.75a.75.75 0 000 1.5h19.5a.75.75 0 000-1.5h-6.053z"/><path d="M0 19.75A.75.75 0 01.75 19h19.5a.75.75 0 010 1.5H.75a.75.75 0 01-.75-.75zM3.75 22a.75.75 0 000 1.5h19.5a.75.75 0 000-1.5H3.75z"/></svg>