<svg xmlns="http://www.w3.org/2000/svg" width="24" height="24"><path d="M12.53 1.22a.75.75 0 00-1.28.53v2.5a.75.75 0 101.5 0v-2.5a.75.75 0 00-.22-.53zm7.955 3.25a.754.754 0 010 1.065L18.717 7.31a.748.748 0 01-1.261-.538.755.755 0 01.201-.526l1.767-1.775a.75.75 0 011.061 0zM4 12.988a.754.754 0 01-.75.753H.75a.749.749 0 01-.75-.753.754.754 0 01.75-.752h2.5a.749.749 0 01.75.752zm19.78.532a.754.754 0 00-.53-1.284h-2.5a.748.748 0 00-.75.752.754.754 0 00.75.753h2.5c.199 0 .39-.079.53-.22zM3.515 4.47a.749.749 0 011.06 0l1.768 1.776a.753.753 0 01-.817 1.238.75.75 0 01-.243-.174L3.515 5.535a.754.754 0 010-1.064z"/><path fill-rule="evenodd" d="M17.197 16A6.02 6.02 0 0018 12.988c0-3.326-2.686-6.023-6-6.023s-6 2.697-6 6.023c0 1.098.292 2.126.803 3.012H.75a.75.75 0 000 1.5h22.5a.75.75 0 000-1.5h-6.053z"/><path d="M2.5 19.75a.75.75 0 11-1.5 0 .75.75 0 011.5 0zm3.75.75a.75.75 0 100-1.5.75.75 0 000 1.5zm5.25-.75a.75.75 0 11-1.5 0 .75.75 0 011.5 0zm3.75.75a.75.75 0 100-1.5.75.75 0 000 1.5zm5.25-.75a.75.75 0 11-1.5 0 .75.75 0 011.5 0zM4.25 23a.75.75 0 100-1.5.75.75 0 000 1.5zm5.25-.75a.75.75 0 11-1.5 0 .75.75 0 011.5 0zm3.75.75a.75.75 0 100-1.5.75.75 0 000 1.5zm5.25-.75a.75.75 0 11-1.5 0 .75.75 0 011.5 0zm3.75.75a.75.75 0 100-1.5.75.75 0 000 1.5z"/></svg>