<svg xmlns="http://www.w3.org/2000/svg" width="24" height="24"><path d="M23.78 12.53a.75.75 0 00-.53-1.28h-2.5a.75.75 0 100 1.5h2.5a.75.75 0 00.53-.22zm-20 0a.75.75 0 00-.53-1.28H.75a.75.75 0 100 1.5h2.5a.75.75 0 00.53-.22zm16.924-8.485a.75.75 0 00-1.28-.53l-1.767 1.768a.75.75 0 001.06 1.06l1.768-1.768a.75.75 0 00.22-.53zM6.562 18.187a.75.75 0 00-1.28-.53l-1.767 1.768a.75.75 0 101.06 1.06l1.768-1.768a.75.75 0 00.22-.53zM12.53.22a.75.75 0 00-1.28.53v2.5a.75.75 0 101.5 0V.75a.75.75 0 00-.22-.53zm0 20a.75.75 0 00-1.28.53v2.5a.75.75 0 101.5 0v-2.5a.75.75 0 00-.22-.53zM4.045 3.296a.75.75 0 00-.53 1.279l1.768 1.768a.75.75 0 101.06-1.06L4.575 3.515a.75.75 0 00-.53-.22zm14.142 14.142a.75.75 0 00-.53 1.28l1.768 1.767a.75.75 0 001.06-1.06l-1.768-1.768a.75.75 0 00-.53-.22z"/><path fill-rule="evenodd" d="M18 12a6 6 0 11-12 0 6 6 0 0112 0z"/></svg>