<svg xmlns="http://www.w3.org/2000/svg" width="24" height="24"><path d="M21.78 12.53a.75.75 0 00-.53-1.28h-.5a.75.75 0 100 1.5h.5a.75.75 0 00.53-.22zm-18 0a.75.75 0 00-.53-1.28h-.5a.75.75 0 100 1.5h.5a.75.75 0 00.53-.22zm15.674-7.235a.75.75 0 00-1.28-.53l-.517.518a.75.75 0 001.06 1.06l.518-.518a.75.75 0 00.22-.53zM6.562 18.187a.75.75 0 00-1.28-.53l-.517.518a.75.75 0 101.06 1.06l.518-.518a.75.75 0 00.22-.53zM12.53 2.22a.75.75 0 00-1.28.53v.5a.75.75 0 101.5 0v-.5a.75.75 0 00-.22-.53zm0 18a.75.75 0 00-1.28.53v.5a.75.75 0 101.5 0v-.5a.75.75 0 00-.22-.53zM5.295 4.546a.75.75 0 00-.53 1.279l.518.518a.75.75 0 101.06-1.06l-.518-.518a.75.75 0 00-.53-.22zm12.892 12.892a.75.75 0 00-.53 1.28l.518.517a.75.75 0 001.06-1.06l-.518-.518a.75.75 0 00-.53-.22z"/><path fill-rule="evenodd" d="M18 12a6 6 0 11-12 0 6 6 0 0112 0z"/></svg>