<svg xmlns="http://www.w3.org/2000/svg" width="24" height="24"><path d="M12.53 6.72a.75.75 0 00-1.28.53v2.5a.75.75 0 101.5 0v-2.5a.75.75 0 00-.22-.53zm7.955 3.25a.754.754 0 010 1.065l-1.768 1.775a.749.749 0 01-1.261-.538.755.755 0 01.201-.527l1.767-1.774a.75.75 0 011.061 0zM3.78 19.02a.754.754 0 00-.53-1.285H.75a.749.749 0 00-.75.753.754.754 0 00.75.753h2.5c.199 0 .39-.079.53-.22zm20 0a.754.754 0 00-.53-1.285h-2.5a.748.748 0 00-.75.753.754.754 0 00.75.753h2.5c.199 0 .39-.079.53-.22zM4.045 9.75a.749.749 0 00-.75.753c0 .2.08.39.22.532l1.768 1.775a.75.75 0 101.06-1.065L4.575 9.971a.749.749 0 00-.53-.22z"/><path fill-rule="evenodd" d="M17.197 21.5A6.02 6.02 0 0018 18.488c0-3.326-2.686-6.023-6-6.023s-6 2.697-6 6.023c0 1.098.292 2.126.803 3.012H.75a.75.75 0 000 1.5h22.5a.75.75 0 000-1.5h-6.053zm-1.843 0H8.646A4.51 4.51 0 017.5 18.488c0-2.494 2.015-4.517 4.5-4.517s4.5 2.023 4.5 4.517a4.51 4.51 0 01-1.146 3.012z"/></svg>