<svg xmlns="http://www.w3.org/2000/svg" width="24" height="24"><path d="M20.485 8.97a.754.754 0 010 1.065l-1.768 1.775a.749.749 0 01-1.261-.538.755.755 0 01.201-.527l1.767-1.774a.75.75 0 011.061 0zM3.78 18.02a.754.754 0 00-.53-1.285H.75a.749.749 0 00-.75.753.754.754 0 00.75.753h2.5c.199 0 .39-.079.53-.22zM24 17.488a.754.754 0 01-.75.753h-2.5a.748.748 0 01-.75-.753.754.754 0 01.75-.753h2.5a.748.748 0 01.75.753zM4.045 8.75a.749.749 0 00-.75.753c0 .2.08.39.22.532l1.768 1.775a.75.75 0 101.06-1.065L4.575 8.971a.749.749 0 00-.53-.22zm11.094-3.972l-2.344-2.135v5.61a.728.728 0 01-.232.528.812.812 0 01-.558.219.813.813 0 01-.558-.219.728.728 0 01-.231-.528v-5.61L8.87 4.778a.826.826 0 01-1.121.041.75.75 0 01-.18-.239.714.714 0 01.148-.823l3.71-3.52a.792.792 0 01.263-.175.828.828 0 01.891.175l3.71 3.52a.723.723 0 01.207.534.731.731 0 01-.25.517.815.815 0 01-.561.201.81.81 0 01-.55-.231zM24 23.25a.75.75 0 00-.75-.75H.75a.75.75 0 000 1.5h22.5a.75.75 0 00.75-.75zM12 11.5A6 6 0 007.126 21h9.748A6 6 0 0012 11.5z"/></svg>