<svg xmlns="http://www.w3.org/2000/svg" width="24" height="24"><path d="M12.795 7.357l2.344-2.135a.81.81 0 01.549-.231.815.815 0 01.562.2.741.741 0 01.25.518.725.725 0 01-.207.534l-3.711 3.52a.827.827 0 01-1.154 0l-3.71-3.52a.712.712 0 01-.148-.823.75.75 0 01.18-.239.83.83 0 01.87-.132c.096.042.181.1.252.173l2.344 2.135v-5.61a.73.73 0 01.23-.528.813.813 0 01.56-.219.81.81 0 01.557.219c.148.14.232.33.232.528v5.61zm7.69 2.613a.754.754 0 010 1.065l-1.768 1.775a.749.749 0 01-1.261-.538.755.755 0 01.201-.527l1.767-1.774a.75.75 0 011.061 0zM3.78 19.02a.754.754 0 00-.53-1.285H.75a.749.749 0 00-.75.753.754.754 0 00.75.753h2.5c.199 0 .39-.079.53-.22zm20 0a.754.754 0 00-.53-1.285h-2.5a.748.748 0 00-.75.753.754.754 0 00.75.753h2.5c.199 0 .39-.079.53-.22zM4.045 9.75a.749.749 0 00-.75.753c0 .2.08.39.22.532l1.768 1.775a.75.75 0 101.06-1.065L4.575 9.971a.749.749 0 00-.53-.22z"/><path fill-rule="evenodd" d="M17.197 21.5A6.02 6.02 0 0018 18.488c0-3.326-2.686-6.023-6-6.023s-6 2.697-6 6.023c0 1.098.292 2.126.803 3.012H.75a.75.75 0 000 1.5h22.5a.75.75 0 000-1.5h-6.053zm-1.843 0H8.646A4.51 4.51 0 017.5 18.488c0-2.494 2.015-4.517 4.5-4.517s4.5 2.023 4.5 4.517a4.51 4.51 0 01-1.146 3.012z"/></svg>