<svg xmlns="http://www.w3.org/2000/svg" width="24" height="24"><g fill-rule="evenodd"><path d="M12 7.25a.75.75 0 01.75.75v7.38c0 .437.297.808.657 1.054a2.5 2.5 0 11-2.814 0c.36-.246.658-.617.658-1.054V8A.75.75 0 0112 7.25zm0 12.25a1 1 0 100-2 1 1 0 000 2z"/><path d="M15.747 14.032V3.75A3.749 3.749 0 0012 0a3.749 3.749 0 00-3.747 3.75v10.282c0 .277-.119.54-.307.744a5.487 5.487 0 00-1.446 3.72A5.502 5.502 0 0012 24c3.038 0 5.5-2.464 5.5-5.504 0-1.434-.548-2.74-1.446-3.72a1.11 1.11 0 01-.307-.744zm-1.499.623V3.75a2.25 2.25 0 10-4.496 0v10.904c0 .331-.17.635-.417.855A4.003 4.003 0 0012 22.5a4.003 4.003 0 002.665-6.99c-.247-.221-.417-.525-.417-.855z"/></g></svg>