<svg xmlns="http://www.w3.org/2000/svg" width="24" height="24"><path fill-rule="evenodd" d="M9 8a.75.75 0 10-1.5 0v7.38c0 .437-.297.808-.657 1.054a2.5 2.5 0 102.814 0C9.297 16.188 9 15.817 9 15.38V8zm.25 10.5a1 1 0 11-2 0 1 1 0 012 0z"/><path fill-rule="evenodd" d="M11.997 3.75v10.282c0 .277.12.54.307.744a5.487 5.487 0 011.446 3.72A5.502 5.502 0 018.25 24a5.502 5.502 0 01-5.5-5.504c0-1.434.548-2.74 1.446-3.72a1.11 1.11 0 00.307-.744V3.75A3.749 3.749 0 018.25 0a3.749 3.749 0 013.747 3.75zm-1.499 0v10.905c0 .33.17.634.417.854.82.733 1.336 1.8 1.336 2.987A4.003 4.003 0 018.25 22.5a4.003 4.003 0 01-2.665-6.99c.247-.221.417-.525.417-.856V3.75a2.25 2.25 0 114.496 0z"/><path d="M14.78.22a.75.75 0 10-1.06 1.06l1.78 1.78v9.38l-1.242.992a.75.75 0 101.06 1.061l.932-.681 1.47 1.47a.75.75 0 101.06-1.061L17 12.44V9.055l2.601 1.684.22 2.794a.75.75 0 101.453-.372l-.115-2.384 2.29-.903a.75.75 0 10-.397-1.446l-2.696 1.014-2.617-1.693 2.617-1.693 2.696.764a.75.75 0 10.397-1.446l-2.29-.653.115-2.384a.75.75 0 10-1.453-.372L19.6 4.76 17 6.444V3.061l1.78-1.78A.75.75 0 0017.72.22l-1.47 1.47L14.78.22z"/></svg>