<svg xmlns="http://www.w3.org/2000/svg" width="24" height="24"><path fill-rule="evenodd" d="M11.27 8a.75.75 0 00-1.5 0v7.38c0 .437-.298.808-.659 1.054a2.5 2.5 0 102.816 0c-.36-.246-.658-.617-.658-1.054V8zm.25 10.5a1 1 0 11-2 0 1 1 0 012 0z"/><path fill-rule="evenodd" d="M14.27 14.032V3.75a3.75 3.75 0 10-7.5 0v10.282c0 .277-.12.54-.307.744a5.504 5.504 0 108.113 0 1.11 1.11 0 01-.307-.744zm-1.5.623V3.75a2.25 2.25 0 00-4.5 0v10.904c0 .331-.17.635-.417.855a4.004 4.004 0 105.333 0c-.247-.22-.417-.524-.417-.854z"/><path d="M16.773 4.112a.75.75 0 000 1.5h3a.75.75 0 100-1.5h-3zm0 3.114a.75.75 0 000 1.5h3a.75.75 0 100-1.5h-3zm0 3.114a.75.75 0 000 1.5h3a.75.75 0 100-1.5h-3z"/></svg>