<svg xmlns="http://www.w3.org/2000/svg" width="24" height="24"><path d="M17.748.694a.75.75 0 01-.692.804C12.087 1.87 8.688 2.612 6.555 3.56 4.406 4.516 3.75 5.57 3.75 6.5c0 .751.556 1.447 2.081 1.98 1.494.52 3.646.77 6.169.77 2.498 0 4.729-.33 6.31-.842.794-.258 1.383-.548 1.757-.835.385-.296.433-.496.433-.573 0-.045-.012-.191-.37-.412-.36-.222-.94-.43-1.745-.6C16.788 5.647 14.538 5.5 12 5.5A.75.75 0 0112 4c2.57 0 4.945.148 6.697.52.869.185 1.644.436 2.22.791C21.495 5.667 22 6.217 22 7c0 .751-.47 1.34-1.02 1.763-.563.43-1.329.787-2.208 1.072-1.767.573-4.161.915-6.772.915-2.586 0-4.934-.25-6.663-.854C3.64 9.303 2.25 8.249 2.25 6.5c0-1.82 1.344-3.265 3.695-4.31C8.312 1.138 11.913.38 16.944.002a.75.75 0 01.804.692zM5.613 11.771a.75.75 0 011.034-.24c1.253.781 3.905 1.386 7.103 1.386s5.85-.605 7.103-1.386a.75.75 0 01.794 1.273c-1.61 1.003-4.601 1.613-7.897 1.613-3.296 0-6.287-.61-7.897-1.613a.75.75 0 01-.24-1.033zm2.185 4.145a.75.75 0 01.967-.437c1.375.52 2.929.854 5.235.854 2.306 0 3.86-.335 5.235-.854a.75.75 0 01.53 1.403c-1.557.588-3.292.951-5.765.951s-4.208-.363-5.765-.95a.75.75 0 01-.437-.967zm.974 3.652a.75.75 0 01.91-.545c1.207.302 2.203.477 3.818.477 1.437 0 1.97-.135 2.978-.391l.003-.001.337-.085a.75.75 0 01.364 1.455l-.328.083h-.002c-1.056.268-1.728.439-3.352.439-1.761 0-2.882-.197-4.182-.522a.75.75 0 01-.546-.91zm1.694 2.714a.75.75 0 00-.432 1.436c.498.15 1.091.232 1.716.232.624 0 1.218-.082 1.716-.232a.75.75 0 10-.432-1.436 4.576 4.576 0 01-1.284.168c-.501 0-.947-.067-1.284-.168z"/></svg>