<svg xmlns="http://www.w3.org/2000/svg" width="24" height="24"><path fill-rule="evenodd" d="M11.5 11.756c-.613.07-1.317.25-1.945.447a18.605 18.605 0 00-1.343.48l-.018.007-.004.002c-.24.1-.515.07-.726-.082h-.001l-.006-.005a5.902 5.902 0 00-.786-.435c-.51-.232-1.168-.445-1.846-.445-.678 0-1.336.213-1.845.445a5.902 5.902 0 00-.787.435l-.005.004A.75.75 0 011 12C1 5.925 5.925 1 12 1s11 4.925 11 11a.75.75 0 01-1.187.61v-.001l-.006-.004a5.912 5.912 0 00-.786-.435c-.51-.232-1.168-.445-1.846-.445-.678 0-1.336.213-1.846.445a5.912 5.912 0 00-.785.435.762.762 0 01-.733.087l-.005-.002-.018-.007a11.431 11.431 0 00-.36-.141 18.62 18.62 0 00-.983-.339 12.91 12.91 0 00-1.445-.37v7.917C13 21.671 11.481 23 9.688 23 7.844 23 6.5 21.622 6.5 19.75a.75.75 0 011.5 0c0 1.072.7 1.75 1.688 1.75 1.036 0 1.812-.727 1.812-1.75v-7.994zm-6.675-1.531c-.857 0-1.642.233-2.237.48C3.219 6.07 7.193 2.5 12 2.5s8.78 3.57 9.413 8.205c-.596-.247-1.381-.48-2.238-.48-.972 0-1.852.3-2.467.58a7.44 7.44 0 00-.688.357l-.064-.024a19.94 19.94 0 00-1.063-.366c-.715-.224-1.642-.468-2.489-.531a.753.753 0 00-.225-.013 4.923 4.923 0 00-.179-.003c-.946 0-2.062.287-2.893.547a19.94 19.94 0 00-1.063.366l-.064.024a7.438 7.438 0 00-.688-.357c-.615-.28-1.495-.58-2.467-.58z"/></svg>