<svg xmlns="http://www.w3.org/2000/svg" width="24" height="24"><path fill-rule="evenodd" d="M6.161 7.173c-.505.245-1.098.398-1.848.398-.772 0-1.373-.151-1.88-.4-.481-.235-.849-.544-1.146-.794l-.02-.018a.75.75 0 01.966-1.147c.315.265.556.464.859.612.287.14.66.247 1.22.247.531 0 .9-.105 1.195-.248.311-.151.569-.355.897-.62l.02-.017c.31-.25.686-.555 1.165-.787C8.094 4.154 8.687 4 9.437 4c.772 0 1.373.152 1.88.4.481.235.849.545 1.146.795l.02.017c.315.265.556.464.859.612.287.14.66.247 1.22.247.531 0 .9-.105 1.195-.248.311-.151.569-.355.897-.62l.02-.017c.31-.25.686-.555 1.165-.787.505-.245 1.098-.399 1.849-.399.771 0 1.372.152 1.88.4.48.235.848.545 1.144.795l.021.017a.75.75 0 01-.966 1.147c-.315-.265-.556-.464-.859-.612-.287-.14-.66-.247-1.22-.247-.531 0-.9.105-1.195.248-.311.152-.569.356-.896.621l-.021.017c-.31.25-.686.555-1.165.787-.505.245-1.098.398-1.849.398-.771 0-1.372-.151-1.88-.4-.48-.235-.848-.544-1.145-.794l-.02-.018c-.315-.265-.556-.464-.859-.612-.287-.14-.66-.247-1.22-.247-.531 0-.9.105-1.195.248-.311.152-.569.356-.897.621l-.02.017c-.31.25-.686.555-1.165.787zm0 6.214c-.505.245-1.098.399-1.848.399-.772 0-1.373-.152-1.88-.4-.481-.235-.849-.545-1.146-.795l-.02-.017a.75.75 0 01.966-1.148c.315.265.556.464.859.612.287.14.66.248 1.22.248.531 0 .9-.105 1.195-.249.311-.15.569-.355.897-.62l.02-.017c.31-.25.686-.555 1.165-.787.505-.245 1.098-.399 1.848-.399.772 0 1.373.152 1.88.4.481.235.849.545 1.146.795l.02.017c.315.265.556.464.859.612.287.14.66.248 1.22.248.531 0 .9-.105 1.195-.249.311-.15.569-.355.897-.62l.02-.017c.31-.25.686-.555 1.165-.787.505-.245 1.098-.399 1.849-.399.771 0 1.372.152 1.88.4.48.235.848.545 1.144.795l.021.017a.75.75 0 01-.966 1.148c-.315-.265-.556-.464-.859-.612-.287-.14-.66-.248-1.22-.248-.531 0-.9.105-1.195.249-.311.15-.569.355-.896.62l-.021.017c-.31.25-.686.555-1.165.787-.505.245-1.098.399-1.849.399-.771 0-1.372-.152-1.88-.4-.48-.235-.848-.545-1.145-.795l-.02-.017c-.315-.265-.556-.464-.859-.612-.287-.14-.66-.248-1.22-.248-.531 0-.9.105-1.195.249-.311.15-.569.355-.897.62l-.02.017c-.31.25-.686.555-1.165.787zm0 6.214c-.505.245-1.098.399-1.848.399-.772 0-1.373-.152-1.88-.4-.481-.235-.849-.545-1.146-.795l-.02-.017a.75.75 0 01.966-1.147c.315.265.556.464.859.612.287.14.66.247 1.22.247.531 0 .9-.105 1.195-.248.311-.152.569-.356.897-.621l.02-.017c.31-.25.686-.555 1.165-.787.505-.245 1.098-.398 1.848-.398.772 0 1.373.151 1.88.4.481.235.849.544 1.146.794l.02.018c.315.265.556.464.859.612.287.14.66.247 1.22.247.531 0 .9-.105 1.195-.248.311-.152.569-.356.897-.621l.02-.017c.31-.25.686-.555 1.165-.787.505-.245 1.098-.398 1.849-.398.771 0 1.372.151 1.88.4.48.235.848.544 1.144.794l.021.018a.75.75 0 01-.966 1.147c-.315-.265-.556-.464-.859-.612-.287-.14-.66-.247-1.22-.247-.531 0-.9.105-1.195.248-.311.151-.569.355-.896.62l-.021.017c-.31.25-.686.555-1.165.787-.505.245-1.098.399-1.849.399-.771 0-1.372-.152-1.88-.4-.48-.235-.848-.545-1.145-.795l-.02-.017c-.315-.265-.556-.464-.859-.612-.287-.14-.66-.247-1.22-.247-.531 0-.9.105-1.195.248-.311.151-.569.355-.897.62l-.02.017c-.31.25-.686.555-1.165.787z"/></svg>