<svg xmlns="http://www.w3.org/2000/svg" width="24" height="24"><path d="M11.25 5c-.373 0-.708.163-.938.423a.75.75 0 11-1.124-.992A2.75 2.75 0 1111.25 9h-9.5a.75.75 0 010-1.501h9.5a1.25 1.25 0 100-2.5zm3 14c-.373 0-.708-.163-.938-.423a.75.75 0 00-1.124.992A2.75 2.75 0 1014.25 15H1.75a.75.75 0 000 1.501h12.5a1.25 1.25 0 110 2.5z"/><path d="M17.824 7.498a2.044 2.044 0 011.569-.748c1.13 0 2.107.972 2.107 2.25 0 1.277-.977 2.25-2.107 2.25H1.75a.75.75 0 000 1.5h17.643C21.419 12.75 23 11.036 23 9s-1.58-3.75-3.607-3.75a3.544 3.544 0 00-2.717 1.283.75.75 0 101.148.965z"/></svg>