<svg xmlns="http://www.w3.org/2000/svg" width="24" height="24"><path fill-rule="evenodd" d="M18.488 13.765a.75.75 0 11-.979-1.136l1.963-1.689a.25.25 0 00-.164-.439H14a.75.75 0 01-.687-1.05l2.855-6.526-4.697 4.085a.75.75 0 01-.984-1.132l5.229-4.548a1.341 1.341 0 012.109 1.55l-2.678 6.121h4.161c1.623 0 2.372 2.016 1.143 3.075l-1.963 1.689zM3.28 2.22a.75.75 0 00-1.06 1.062l5.234 5.234-3.928 3.415c-1.222 1.062-.471 3.07 1.148 3.07h4.322l-2.704 6.404a1.149 1.149 0 001.81 1.317l7.281-6.277 5.337 5.337a.75.75 0 001.06-1.061L3.28 2.22zm1.151 10.97a.25.25 0 01.079-.128l4.006-3.484 5.804 5.804-6.063 5.226 2.559-6.066a.75.75 0 00-.692-1.04h-5.45a.25.25 0 01-.243-.313z"/></svg>