<svg width="24" height="24" viewBox="0 0 24 24" fill="none" xmlns="http://www.w3.org/2000/svg">
<path d="M13 15.5C13 15.7652 12.8946 16.0196 12.7071 16.2071C12.5196 16.3946 12.2652 16.5 12 16.5C11.7348 16.5 11.4804 16.3946 11.2929 16.2071C11.1054 16.0196 11 15.7652 11 15.5C11 15.2348 11.1054 14.9804 11.2929 14.7929C11.4804 14.6054 11.7348 14.5 12 14.5C12.2652 14.5 12.5196 14.6054 12.7071 14.7929C12.8946 14.9804 13 15.2348 13 15.5ZM12.75 7.25C12.75 7.05109 12.671 6.86033 12.5303 6.71967C12.3897 6.57902 12.1989 6.5 12 6.5C11.8011 6.5 11.6103 6.57902 11.4697 6.71967C11.329 6.86033 11.25 7.05109 11.25 7.25V11.75C11.25 11.9489 11.329 12.1397 11.4697 12.2803C11.6103 12.421 11.8011 12.5 12 12.5C12.1989 12.5 12.3897 12.421 12.5303 12.2803C12.671 12.1397 12.75 11.9489 12.75 11.75V7.25Z" fill="black"/>
<path fill-rule="evenodd" clip-rule="evenodd" d="M11.46 0.637003C11.811 0.523139 12.189 0.523139 12.54 0.637003L20.79 3.312C21.1416 3.42605 21.448 3.64848 21.6654 3.94741C21.8827 4.24633 21.9999 4.6064 22 4.976V10C22 16.19 18.23 20.705 12.599 22.83C12.2129 22.9755 11.7871 22.9755 11.401 22.83C5.771 20.704 2 16.19 2 10V4.976C2 4.216 2.49 3.546 3.21 3.312L11.46 0.637003ZM12.077 2.063C12.0269 2.0468 11.9731 2.0468 11.923 2.063L3.673 4.74C3.62278 4.7561 3.57897 4.78772 3.54788 4.83031C3.51679 4.87291 3.50003 4.92427 3.5 4.977V10C3.5 15.461 6.78 19.483 11.93 21.426C11.9751 21.4429 12.0249 21.4429 12.07 21.426C17.22 19.483 20.5 15.46 20.5 10V4.976C20.4998 4.92331 20.483 4.87202 20.4519 4.82945C20.4209 4.78689 20.3771 4.75523 20.327 4.739L12.077 2.063Z" fill="black"/>
</svg>
