<svg width="24" height="24" viewBox="0 0 24 24" fill="none" xmlns="http://www.w3.org/2000/svg">
<path d="M12.7071 16.7071C12.8946 16.5196 13 16.2652 13 16C13 15.7348 12.8946 15.4804 12.7071 15.2929C12.5196 15.1054 12.2652 15 12 15C11.7348 15 11.4804 15.1054 11.2929 15.2929C11.1054 15.4804 11 15.7348 11 16C11 16.2652 11.1054 16.5196 11.2929 16.7071C11.4804 16.8946 11.7348 17 12 17C12.2652 17 12.5196 16.8946 12.7071 16.7071Z" fill="black"/>
<path d="M12.5303 7.21967C12.671 7.36032 12.75 7.55109 12.75 7.75V12.25C12.75 12.4489 12.671 12.6397 12.5303 12.7803C12.3897 12.921 12.1989 13 12 13C11.8011 13 11.6103 12.921 11.4697 12.7803C11.329 12.6397 11.25 12.4489 11.25 12.25V7.75C11.25 7.55109 11.329 7.36032 11.4697 7.21967C11.6103 7.07902 11.8011 7 12 7C12.1989 7 12.3897 7.07902 12.5303 7.21967Z" fill="black"/>
<path fill-rule="evenodd" clip-rule="evenodd" d="M1 12C1 5.925 5.925 1 12 1C18.075 1 23 5.925 23 12C23 18.075 18.075 23 12 23C5.925 23 1 18.075 1 12ZM5.28249 5.28249C3.50089 7.06408 2.5 9.48044 2.5 12C2.5 14.5196 3.50089 16.9359 5.28249 18.7175C7.06408 20.4991 9.48044 21.5 12 21.5C14.5196 21.5 16.9359 20.4991 18.7175 18.7175C20.4991 16.9359 21.5 14.5196 21.5 12C21.5 9.48044 20.4991 7.06408 18.7175 5.28249C16.9359 3.50089 14.5196 2.5 12 2.5C9.48044 2.5 7.06408 3.50089 5.28249 5.28249Z" fill="black"/>
</svg>
