<svg width="24" height="24" viewBox="0 0 24 24" fill="none" xmlns="http://www.w3.org/2000/svg">
<path d="M13 17.5C13 17.7652 12.8946 18.0196 12.7071 18.2071C12.5196 18.3946 12.2652 18.5 12 18.5C11.7348 18.5 11.4804 18.3946 11.2929 18.2071C11.1054 18.0196 11 17.7652 11 17.5C11 17.2348 11.1054 16.9804 11.2929 16.7929C11.4804 16.6054 11.7348 16.5 12 16.5C12.2652 16.5 12.5196 16.6054 12.7071 16.7929C12.8946 16.9804 13 17.2348 13 17.5ZM12.75 9.25C12.75 9.05109 12.671 8.86033 12.5303 8.71968C12.3897 8.57902 12.1989 8.5 12 8.5C11.8011 8.5 11.6103 8.57902 11.4697 8.71968C11.329 8.86033 11.25 9.05109 11.25 9.25V13.75C11.25 13.9489 11.329 14.1397 11.4697 14.2803C11.6103 14.421 11.8011 14.5 12 14.5C12.1989 14.5 12.3897 14.421 12.5303 14.2803C12.671 14.1397 12.75 13.9489 12.75 13.75V9.25Z" fill="black"/>
<path fill-rule="evenodd" clip-rule="evenodd" d="M9.836 3.244C10.799 1.579 13.201 1.579 14.164 3.244L23.131 18.748C24.094 20.415 22.891 22.5 20.966 22.5H3.034C1.108 22.5 -0.0939969 20.415 0.869003 18.748L9.836 3.244ZM12.866 3.995C12.7782 3.843 12.652 3.71677 12.5 3.62901C12.348 3.54125 12.1755 3.49505 12 3.49505C11.8245 3.49505 11.652 3.54125 11.5 3.62901C11.348 3.71677 11.2218 3.843 11.134 3.995L2.168 19.499C2.07999 19.651 2.03358 19.8236 2.03345 19.9993C2.03332 20.175 2.07948 20.3476 2.16727 20.4997C2.25507 20.6519 2.3814 20.7783 2.53356 20.8661C2.68571 20.9539 2.85832 21.0001 3.034 21H20.966C21.1415 21 21.314 20.9538 21.466 20.866C21.618 20.7782 21.7442 20.652 21.832 20.5C21.9198 20.348 21.966 20.1755 21.966 20C21.966 19.8245 21.9198 19.652 21.832 19.5L12.866 3.995Z" fill="black"/>
</svg>
