<svg xmlns="http://www.w3.org/2000/svg" width="24" height="24"><path fill-rule="evenodd" d="M5 7c0-3.435 3.318-6 7-6 .32 0 .639.02.952.057.437.053.693.499.563.92-.114.37-.492.59-.879.553-.208-.02-.42-.03-.636-.03-3.117 0-5.5 2.136-5.5 4.5v4.539a4.75 4.75 0 01-.797 2.635l-2.2 3.298-.003.01.001.007.004.006.006.004.007.001h16.964l.007-.001.006-.004.004-.006.001-.006a.017.017 0 00-.003-.01l-2.199-3.299a4.753 4.753 0 01-.798-2.635v-1.52a.75.75 0 011.5 0v1.52c0 .642.19 1.269.545 1.803l2.2 3.298A1.518 1.518 0 0120.482 19H15.5a3.5 3.5 0 11-7 0H3.519a1.518 1.518 0 01-1.265-2.359l2.2-3.299A3.25 3.25 0 005 11.539V7zm8.414 13.414A2 2 0 0014 19h-4a2 2 0 003.414 1.414z"/><path d="M22 4a3 3 0 11-6 0 3 3 0 016 0z"/></svg>