<svg xmlns="http://www.w3.org/2000/svg" width="24" height="24"><path fill-rule="evenodd" d="M16.95 1.001c-1.527 0-2.95 1.343-2.95 3.123 0 1.865 1.318 3.343 2.35 4.24l.002.002a12.841 12.841 0 002.182 1.518l.004.002a.991.991 0 00.93-.004c.064-.035.13-.071.196-.11a12.867 12.867 0 001.981-1.408l.003-.001C22.68 7.466 24 5.987 24 4.122 24 2.342 22.578 1 21.051 1c-.81 0-1.512.31-2.05.815A2.955 2.955 0 0016.95 1zm-1.518 3.123c0-.973.781-1.66 1.518-1.66.519 0 .95.23 1.266.628.4.504 1.168.504 1.569 0 .316-.398.747-.63 1.266-.63.736 0 1.518.687 1.517 1.66 0 1.172-.863 2.272-1.847 3.127A11.457 11.457 0 0119 8.478a11.409 11.409 0 01-1.722-1.228c-.984-.856-1.846-1.954-1.845-3.126z"/><path fill-rule="evenodd" d="M5 11.539V7c0-3.148 2.786-5.565 6.085-5.947a.691.691 0 01.748.573c.087.454-.263.871-.72.933C8.442 2.918 6.5 4.866 6.5 7v4.539a4.75 4.75 0 01-.797 2.635l-2.2 3.298-.003.01.001.007.004.006.006.004.007.001h16.964l.007-.001.006-.004.004-.006.001-.006a.017.017 0 00-.003-.01l-1.783-2.675a.75.75 0 011.247-.832l1.784 2.674A1.518 1.518 0 0120.482 19H15.5a3.5 3.5 0 11-7 0H3.519a1.518 1.518 0 01-1.265-2.359l2.2-3.299A3.25 3.25 0 005 11.539zM14 19h-4a2 2 0 004 0z"/></svg>