<svg width="24" height="24" viewBox="0 0 24 24" fill="none" xmlns="http://www.w3.org/2000/svg">
<path fill-rule="evenodd" clip-rule="evenodd" d="M1.22001 1.22C1.36064 1.07955 1.55126 1.00066 1.75001 1.00066C1.94876 1.00066 2.13939 1.07955 2.28001 1.22L22.78 21.72C22.8537 21.7887 22.9128 21.8715 22.9538 21.9635C22.9948 22.0555 23.0168 22.1548 23.0186 22.2555C23.0204 22.3562 23.0019 22.4562 22.9641 22.5496C22.9264 22.643 22.8703 22.7278 22.799 22.799C22.7278 22.8703 22.643 22.9264 22.5496 22.9641C22.4562 23.0018 22.3562 23.0204 22.2555 23.0186C22.1548 23.0168 22.0555 22.9948 21.9635 22.9538C21.8715 22.9128 21.7887 22.8537 21.72 22.78L17.94 19H15.5C15.5 19.4596 15.4095 19.9148 15.2336 20.3394C15.0577 20.764 14.7999 21.1499 14.4749 21.4749C14.1499 21.7999 13.764 22.0577 13.3394 22.2336C12.9148 22.4095 12.4596 22.5 12 22.5C11.5404 22.5 11.0853 22.4095 10.6606 22.2336C10.236 22.0577 9.85014 21.7999 9.52514 21.4749C9.20013 21.1499 8.94232 20.764 8.76643 20.3394C8.59054 19.9148 8.50001 19.4596 8.50001 19H3.51801C3.24326 19 2.97367 18.9254 2.73798 18.7842C2.50229 18.643 2.30934 18.4405 2.1797 18.1983C2.05006 17.956 1.98859 17.6831 2.00186 17.4087C2.01512 17.1343 2.10262 16.8686 2.25501 16.64L4.45501 13.342C4.81067 12.808 5.0003 12.1806 5.00001 11.539V7C5.00001 6.706 5.02501 6.417 5.07301 6.134L1.22001 2.28C1.07956 2.13937 1.00067 1.94875 1.00067 1.75C1.00067 1.55125 1.07956 1.36063 1.22001 1.22ZM10 19C10 19.5304 10.2107 20.0391 10.5858 20.4142C10.9609 20.7893 11.4696 21 12 21C12.5304 21 13.0392 20.7893 13.4142 20.4142C13.7893 20.0391 14 19.5304 14 19H10ZM6.50001 7.56L16.44 17.5H3.51701L3.51001 17.499L3.50401 17.495L3.50001 17.489L3.49901 17.482L3.50201 17.472L5.70201 14.174C6.22196 13.3936 6.49927 12.4767 6.49901 11.539L6.50001 7.56Z" fill="black"/>
<path d="M12 2.5C10.537 2.5 9.20001 2.985 8.21201 3.757L8.17201 3.789C8.09499 3.85039 8.00663 3.89601 7.91198 3.92326C7.81733 3.95051 7.71824 3.95884 7.62037 3.94779C7.52249 3.93674 7.42775 3.90652 7.34156 3.85886C7.25537 3.81119 7.1794 3.74702 7.11801 3.67C7.05662 3.59298 7.011 3.50462 6.98375 3.40997C6.95651 3.31532 6.94817 3.21623 6.95922 3.11835C6.97027 3.02048 7.00049 2.92574 7.04815 2.83955C7.09582 2.75336 7.15999 2.67739 7.23701 2.616L7.28701 2.576C8.54801 1.59 10.212 1 12 1C15.681 1 19 3.565 19 7V11.539C19 12.181 19.19 12.808 19.546 13.342L20.874 15.334C20.9299 15.4159 20.9691 15.5081 20.9891 15.6053C21.0092 15.7024 21.0097 15.8025 20.9908 15.8999C20.9719 15.9973 20.9339 16.0899 20.8789 16.1725C20.8239 16.255 20.7531 16.3259 20.6706 16.3809C20.5881 16.4359 20.4955 16.474 20.3981 16.493C20.3008 16.512 20.2006 16.5115 20.1035 16.4915C20.0063 16.4715 19.9141 16.4324 19.8321 16.3766C19.7502 16.3207 19.6801 16.2491 19.626 16.166L18.298 14.174C17.7777 13.3937 17.5 12.4769 17.5 11.539V7C17.5 4.636 15.117 2.5 12 2.5Z" fill="black"/>
</svg>
