<svg width="24" height="24" viewBox="0 0 24 24" fill="none" xmlns="http://www.w3.org/2000/svg">
<path fill-rule="evenodd" clip-rule="evenodd" d="M12 1C8.31802 1 5.00001 3.565 5.00001 7V11.539C5.00001 12.1807 4.81003 12.8081 4.45401 13.342L2.25401 16.641C2.10179 16.8697 2.01451 17.1355 2.00147 17.41C1.98843 17.6844 2.05012 17.9572 2.17996 18.1994C2.30981 18.4415 2.50294 18.6439 2.73877 18.7849C2.97459 18.9259 3.24426 19.0002 3.51901 19H8.50001C8.50001 19.4596 8.59054 19.9148 8.76644 20.3394C8.94233 20.764 9.20014 21.1499 9.52514 21.4749C9.85015 21.7999 10.236 22.0577 10.6606 22.2336C11.0853 22.4095 11.5404 22.5 12 22.5C12.4596 22.5 12.9148 22.4095 13.3394 22.2336C13.764 22.0577 14.1499 21.7999 14.4749 21.4749C14.7999 21.1499 15.0577 20.764 15.2336 20.3394C15.4095 19.9148 15.5 19.4596 15.5 19H20.482C20.7568 19 21.0264 18.9254 21.262 18.7842C21.4977 18.643 21.6907 18.4405 21.8203 18.1983C21.95 17.956 22.0114 17.6831 21.9982 17.4087C21.9849 17.1343 21.8974 16.8686 21.745 16.64L19.545 13.342C19.1894 12.808 18.9997 12.1806 19 11.539V7C19 3.565 15.681 1 12 1ZM6.50001 7C6.50001 4.636 8.88302 2.5 12 2.5C15.117 2.5 17.5 4.636 17.5 7V11.539C17.5 12.477 17.778 13.393 18.298 14.174L20.497 17.473C20.499 17.4759 20.5001 17.4794 20.5 17.483L20.499 17.489L20.495 17.495L20.489 17.499L20.482 17.5H3.51801L3.51101 17.499L3.50501 17.495L3.50101 17.489L3.50001 17.482L3.50301 17.472L5.70301 14.174C6.22296 13.3936 6.50027 12.4767 6.50001 11.539V7ZM14 19H10C10 19.5304 10.2107 20.0391 10.5858 20.4142C10.9609 20.7893 11.4696 21 12 21C12.5304 21 13.0392 20.7893 13.4142 20.4142C13.7893 20.0391 14 19.5304 14 19Z" fill="black"/>
</svg>
