<svg xmlns="http://www.w3.org/2000/svg" width="24" height="24"><path d="M18.75 1a.75.75 0 01.75.75V5h3.75a.75.75 0 010 1.5H19.5v3.75a.75.75 0 01-1.5 0V6.5h-3.75a.75.75 0 010-1.5H18V1.75a.75.75 0 01.75-.75z"/><path fill-rule="evenodd" d="M5 11.539V7c0-3.148 2.786-5.565 6.085-5.947a.691.691 0 01.748.573c.087.454-.263.871-.72.933C8.442 2.918 6.5 4.866 6.5 7v4.539a4.75 4.75 0 01-.797 2.635l-2.2 3.298-.003.01.001.007.004.006.006.004.007.001h16.964l.007-.001.006-.004.004-.006.001-.006a.017.017 0 00-.003-.01l-1.783-2.675a.75.75 0 011.247-.832l1.784 2.674A1.518 1.518 0 0120.482 19H15.5a3.5 3.5 0 11-7 0H3.519a1.518 1.518 0 01-1.265-2.359l2.2-3.299A3.25 3.25 0 005 11.539zM14 19h-4a2 2 0 004 0z"/></svg>