<svg width="24" height="24" viewBox="0 0 24 24" fill="none" xmlns="http://www.w3.org/2000/svg">
<path fill-rule="evenodd" clip-rule="evenodd" d="M22 1.75001C21.9999 1.6148 21.9633 1.48212 21.894 1.36602C21.8247 1.24991 21.7254 1.1547 21.6064 1.09045C21.4874 1.0262 21.3533 0.995309 21.2182 1.00104C21.0831 1.00677 20.9521 1.04891 20.839 1.12301C20.792 1.15301 20.745 1.18001 20.697 1.20801C20.5364 1.30028 20.373 1.38765 20.207 1.47001C19.766 1.69001 19.097 1.98901 18.205 2.29001C16.425 2.89001 13.755 3.50001 10.25 3.50001H6.5C5.17156 3.49873 3.88754 3.9783 2.8852 4.85013C1.88286 5.72195 1.22993 6.9271 1.04706 8.2429C0.864194 9.5587 1.16374 10.8962 1.89036 12.0083C2.61698 13.1204 3.72156 13.932 5 14.293V14.75C5 17.811 5.684 20.255 6.061 21.371C6.301 22.08 6.965 22.5 7.661 22.5H9.674C10.968 22.5 11.774 21.178 11.406 20.047C10.994 18.779 10.5 16.779 10.5 14.5C10.5 14.47 10.498 14.44 10.495 14.412C13.877 14.44 16.46 15.056 18.198 15.663C19.088 15.975 19.757 16.283 20.198 16.512C20.282 16.555 20.369 16.608 20.459 16.662C20.816 16.876 21.216 17.117 21.601 16.912C21.7213 16.8483 21.8221 16.753 21.8924 16.6364C21.9626 16.5197 21.9999 16.3862 22 16.25V1.75001ZM10.5 12.912C14.064 12.941 16.813 13.59 18.693 14.247C19.43 14.505 20.033 14.764 20.5 14.987V2.99301C20.033 3.20901 19.427 3.46001 18.685 3.71101C16.807 4.34501 14.061 4.97101 10.5 4.99901V12.912ZM6.5 14.75V14.5H9C9 16.986 9.537 19.148 9.98 20.51C9.99708 20.5678 10.0008 20.6286 9.99094 20.6881C9.98107 20.7475 9.95784 20.8039 9.92301 20.853C9.85301 20.957 9.761 21 9.674 21H7.661C7.556 21 7.5 20.942 7.482 20.891C7.138 19.873 6.5 17.597 6.5 14.75ZM6.5 5.00001H9V13H6.5C5.43914 13 4.42172 12.5786 3.67158 11.8284C2.92143 11.0783 2.5 10.0609 2.5 9.00001C2.5 7.93914 2.92143 6.92173 3.67158 6.17158C4.42172 5.42143 5.43914 5.00001 6.5 5.00001Z" fill="black"/>
</svg>
