<svg xmlns="http://www.w3.org/2000/svg" width="24" height="24"><path fill-rule="evenodd" d="M14 3.5h-4c-1.425 0-2.403.001-3.162.063-.74.06-1.139.172-1.427.318a3.5 3.5 0 00-1.53 1.53c-.146.288-.257.686-.318 1.427C3.501 7.597 3.5 8.575 3.5 10v4c0 1.425.001 2.403.063 3.162.06.74.172 1.139.318 1.427a3.5 3.5 0 001.53 1.53c.288.146.686.257 1.427.318.759.062 1.737.063 3.162.063h4c1.425 0 2.403-.001 3.162-.063.74-.06 1.139-.172 1.427-.319a3.5 3.5 0 001.53-1.529c.146-.288.257-.686.318-1.427.062-.759.063-1.737.063-3.162v-4c0-1.425-.001-2.403-.063-3.162-.06-.74-.172-1.139-.319-1.427a3.5 3.5 0 00-1.529-1.53c-.288-.146-.686-.257-1.427-.318C16.403 3.501 15.425 3.5 14 3.5zM2.545 4.73C2 5.8 2 7.2 2 10v4c0 2.8 0 4.2.545 5.27a5 5 0 002.185 2.185C5.8 22 7.2 22 10 22h4c2.8 0 4.2 0 5.27-.545a5 5 0 002.185-2.185C22 18.2 22 16.8 22 14v-4c0-2.8 0-4.2-.545-5.27a5 5 0 00-2.185-2.185C18.2 2 16.8 2 14 2h-4c-2.8 0-4.2 0-5.27.545A5 5 0 002.545 4.73z"/></svg>