<svg xmlns="http://www.w3.org/2000/svg" width="24" height="24"><path fill-rule="evenodd" d="M15.832 2.5H8.168a.25.25 0 00-.177.073L2.573 7.992a.25.25 0 00-.073.177v7.662c0 .067.026.13.073.177l5.419 5.419a.25.25 0 00.177.073h7.662a.25.25 0 00.177-.073l5.419-5.419a.25.25 0 00.073-.176V8.168a.25.25 0 00-.073-.177l-5.419-5.419a.25.25 0 00-.176-.073zM8.168 1h7.662c.465 0 .91.184 1.238.513l5.418 5.418c.329.328.513.773.513 1.238v7.662c0 .465-.184.91-.513 1.238l-5.418 5.418a1.75 1.75 0 01-1.237.513H8.168a1.75 1.75 0 01-1.238-.513L1.513 17.07A1.75 1.75 0 011 15.832V8.168c0-.465.184-.91.513-1.238L6.93 1.513A1.75 1.75 0 018.17 1z"/></svg>