<svg xmlns="http://www.w3.org/2000/svg" width="24" height="24"><path fill-rule="evenodd" d="M12.174 1.57a.25.25 0 00-.354 0L8.891 4.499H4.75a.25.25 0 00-.25.25V8.89l-2.93 2.93a.25.25 0 000 .353l2.93 2.929v4.142c0 .138.112.25.25.25h4.14l2.93 2.93a.25.25 0 00.353 0l2.929-2.93h4.142a.25.25 0 00.25-.25v-4.142l2.93-2.93a.25.25 0 000-.353l-2.93-2.929V4.75a.25.25 0 00-.25-.25h-4.142l-2.93-2.93zm1.06-1.06L15.724 3h3.521c.966 0 1.75.782 1.75 1.749v3.52l2.49 2.49a1.75 1.75 0 010 2.475l-2.49 2.49v3.521a1.75 1.75 0 01-1.75 1.75h-3.521l-2.49 2.49a1.75 1.75 0 01-2.474 0l-2.49-2.49H4.749a1.75 1.75 0 01-1.75-1.75v-3.521l-2.49-2.49a1.75 1.75 0 010-2.474L3 8.27V4.749c0-.967.784-1.75 1.75-1.75h3.52L10.76.51a1.75 1.75 0 012.474 0z"/></svg>