<svg xmlns="http://www.w3.org/2000/svg" width="24" height="24"><path d="M8.25 7.375c0-1.547 1.439-2.875 3-2.875.87 0 1.693.2 2.278.633.55.407.972 1.08.972 2.242 0 .021 0 .042.003.063a.76.76 0 00-.003.062v2.25H13a.75.75 0 000 1.5h1.5v6.052l.005.117c.006.097.016.232.036.393.04.317.12.754.288 1.201.166.445.434.94.872 1.329.453.403 1.052.658 1.799.658 1.137 0 2-.57 2.543-1.077a5.18 5.18 0 00.791-.942c.02-.03.067-.108.067-.108a.751.751 0 00-1.3-.748l-.001.001-.003.005-.024.039a3.684 3.684 0 01-.553.657c-.394.367-.907.673-1.52.673-.378 0-.623-.12-.803-.28-.195-.173-.349-.428-.464-.733a3.87 3.87 0 01-.221-1.025 3.739 3.739 0 01-.012-.197V11.25h3.5a.75.75 0 000-1.5H16V7.5a.76.76 0 00-.003-.063.76.76 0 00.003-.062c0-1.59-.611-2.73-1.579-3.447C13.49 3.238 12.313 3 11.25 3c-2.305 0-4.5 1.918-4.5 4.375 0 .775.198 1.5.543 2.128-1.084.035-2.091.342-2.86.855C3.62 10.9 3 11.731 3 12.75c0 .812.204 1.7.999 2.348.753.616 1.903.902 3.501.902 1.473 0 2.199.274 2.552.563.313.256.448.619.448 1.187 0 .362-.22.78-.764 1.144-.54.36-1.328.606-2.236.606-.762 0-1.444-.174-1.964-.446-.528-.276-.841-.624-.967-.946a.75.75 0 10-1.397.545c.293.754.922 1.34 1.669 1.73.754.394 1.677.617 2.659.617 1.163 0 2.25-.313 3.068-.858C11.38 19.6 12 18.769 12 17.75c0-.812-.204-1.7-.999-2.348-.753-.616-1.903-.902-3.501-.902-1.473 0-2.199-.274-2.552-.563-.313-.255-.448-.619-.448-1.187 0-.362.22-.78.764-1.144.54-.36 1.328-.606 2.236-.606 1.522 0 2.594.67 2.9 1.32a.75.75 0 001.357-.64c-.352-.747-1.034-1.325-1.876-1.697a2.868 2.868 0 01-1.63-2.608z"/></svg>