<svg xmlns="http://www.w3.org/2000/svg" width="24" height="24"><path fill-rule="evenodd" d="M19.683 1.138a.75.75 0 01.18 1.045l-14.5 20.5a.75.75 0 11-1.225-.866l14.5-20.5a.75.75 0 011.045-.18zM6.626 2.1A.75.75 0 017 2.75v9.5a.75.75 0 01-1.5 0V4.042l-2.378 1.36a.75.75 0 01-.744-1.303l3.5-2a.75.75 0 01.748.002zm12.496 9.151c1.51.046 3.322.78 3.695 2.564.307 1.464-.571 2.522-1.488 3.136-.1.067-.202.13-.307.19.105.06.207.124.307.19.917.615 1.795 1.673 1.488 3.136-.373 1.784-2.184 2.52-3.695 2.564-1.506.046-3.357-.57-3.923-2.206a.75.75 0 011.417-.49c.246.71 1.216 1.235 2.461 1.197 1.241-.037 2.112-.608 2.272-1.372.126-.602-.178-1.128-.855-1.582-.685-.46-1.544-.683-1.99-.683a.75.75 0 01-.75-.75v-.007a.75.75 0 01.75-.75c.446 0 1.305-.224 1.99-.683.677-.454.981-.98.855-1.582-.16-.764-1.03-1.335-2.272-1.372-1.245-.038-2.215.487-2.46 1.197a.75.75 0 11-1.418-.49c.566-1.636 2.417-2.252 3.923-2.207z"/></svg>