<svg xmlns="http://www.w3.org/2000/svg" width="24" height="24"><path d="M16.25 19h-8.5a.25.25 0 01-.25-.25v-.567a1 1 0 01.273-.685l4.436-4.702c1.65-1.747 2.422-2.692 2.422-3.966 0-1.456-1.183-2.374-2.73-2.374-1.561 0-2.586.935-2.692 2.366a.265.265 0 01-.26.25H7.806a.24.24 0 01-.243-.25C7.688 6.534 9.545 5 11.96 5c2.507 0 4.29 1.698 4.29 3.83 0 1.53-.725 2.717-3.177 5.26l-3.294 3.425h6.472a.25.25 0 01.25.25v.985a.25.25 0 01-.25.25z"/><path fill-rule="evenodd" d="M20.487 22.487A1.75 1.75 0 0119.25 23H4.75A1.75 1.75 0 013 21.25V2.75C3 1.784 3.784 1 4.75 1h14.5A1.75 1.75 0 0121 2.75v18.5c0 .464-.184.91-.513 1.237zm-1.06-1.06a.25.25 0 00.073-.177V2.75a.25.25 0 00-.25-.25H4.75a.25.25 0 00-.25.25v18.5a.25.25 0 00.25.25h14.5a.25.25 0 00.177-.073z"/></svg>