<svg xmlns="http://www.w3.org/2000/svg" width="24" height="24"><path fill-rule="evenodd" d="M20.25 10.96a.75.75 0 01.75.75v7.54a.75.75 0 01-1.5 0v-7.54a.75.75 0 01.75-.75z"/><path d="M15.5 4c-1.886 0-2.748 1.497-3.12 2.644a8.174 8.174 0 00-.333 1.612 8.62 8.62 0 00-.047.737V10H6.5V8.993a2.653 2.653 0 01.008-.19c.007-.136.023-.33.055-.558.065-.465.191-1.032.427-1.525.235-.495.545-.845.944-1.01.389-.16 1.014-.205 2.019.229a.75.75 0 10.594-1.378c-1.245-.537-2.307-.599-3.184-.238-.867.357-1.4 1.065-1.728 1.751-.327.687-.482 1.421-.557 1.963A8.5 8.5 0 005 8.974V10H2.75a.75.75 0 000 1.5H5v7.75a.75.75 0 001.5 0V11.5H12v7.75a.75.75 0 001.5 0V11.5h2.25a.75.75 0 000-1.5H13.5V8.968l.005-.116c.004-.103.014-.254.034-.436a6.69 6.69 0 01.268-1.31c.316-.978.83-1.606 1.693-1.606.38 0 .96.096 1.558.477.59.375 1.245 1.057 1.746 2.303a.75.75 0 001.392-.56c-.605-1.504-1.458-2.452-2.333-3.009A4.439 4.439 0 0015.5 4z"/></svg>