<svg xmlns="http://www.w3.org/2000/svg" width="24" height="24"><path fill-rule="evenodd" d="M16.072 8.75a.75.75 0 01.75-.75h5.4a.75.75 0 01.64 1.143l-2.419 3.93c1.46.482 2.557 1.802 2.557 3.384C23 18.472 21.23 20 19.222 20c-2.033 0-3.722-1.572-3.722-3.563a.75.75 0 011.5 0c0 1.094.946 2.063 2.222 2.063 1.302 0 2.278-.973 2.278-2.043 0-1.082-.99-2.082-2.278-2.082a.75.75 0 01-.638-1.143L20.88 9.5h-4.058a.75.75 0 01-.75-.75zM5.104 8.089a.75.75 0 01.396.661v8a.75.75 0 01-1.5 0v-6.599l-1.834 1.223a.75.75 0 11-.832-1.248l3-2a.75.75 0 01.77-.037z"/><path d="M10.417 7.75a1.906 1.906 0 00-1.914 1.898.75.75 0 11-1.5 0 3.406 3.406 0 013.414-3.398 3.406 3.406 0 013.413 3.397c0 1.014-.312 1.76-.828 2.358-.442.513-1.027.9-1.548 1.244l-.125.082c-.929.616-1.876 1.28-2.51 2.669h4.931a.75.75 0 010 1.5h-6a.75.75 0 01-.721-.956c.741-2.596 2.26-3.66 3.472-4.463l.065-.043c.58-.386 1-.663 1.3-1.013.276-.318.464-.714.464-1.377a1.906 1.906 0 00-1.913-1.898z"/></svg>