<svg xmlns="http://www.w3.org/2000/svg" width="24" height="24"><path fill-rule="evenodd" d="M12.625 18.528A7.963 7.963 0 0017.25 20c2.139 0 4.083-.84 5.517-2.207a.75.75 0 10-1.034-1.086A6.475 6.475 0 0117.25 18.5a6.469 6.469 0 01-3.45-.99A7.973 7.973 0 0016 12a7.973 7.973 0 00-2.2-5.51 6.47 6.47 0 013.45-.99c1.738 0 3.316.681 4.483 1.793a.75.75 0 101.034-1.086A7.975 7.975 0 0017.25 4a7.96 7.96 0 00-4.625 1.472 8 8 0 100 13.057zM1.5 12a6.5 6.5 0 019.95-5.51A7.973 7.973 0 009.25 12c0 2.135.837 4.075 2.2 5.51A6.5 6.5 0 011.5 12zm11.125-4.567A6.48 6.48 0 0114.5 12a6.48 6.48 0 01-1.875 4.567A6.48 6.48 0 0110.75 12a6.48 6.48 0 011.875-4.567z"/></svg>