<svg xmlns="http://www.w3.org/2000/svg" width="24" height="24"><path fill-rule="evenodd" d="M7.884 8.805c-.411-1.073-1.905-1.073-2.317 0L3.028 15.42a.744.744 0 00-.012.032l-.965 2.512c-.15.39.04.83.424.983a.742.742 0 00.966-.431l.786-2.046h4.998l.785 2.046c.15.39.583.583.967.43a.763.763 0 00.423-.982l-.964-2.512a.76.76 0 00-.012-.033l-2.54-6.615zm.759 6.149H4.809L6.726 9.96l1.917 4.994zm9.79-6.149c-.412-1.073-1.905-1.073-2.317 0l-2.54 6.616a.709.709 0 00-.012.032l-.964 2.512c-.15.39.04.83.423.983a.742.742 0 00.967-.431l.785-2.046h4.998l.785 2.046c.15.39.583.583.967.43a.763.763 0 00.424-.982l-.965-2.512a.76.76 0 00-.012-.033l-2.54-6.615zm.758 6.149h-3.834l1.917-4.994 1.917 4.994z"/></svg>