<svg xmlns="http://www.w3.org/2000/svg" width="24" height="24"><path d="M2.75 2a.75.75 0 000 1.5h18.5a.75.75 0 000-1.5H2.75zM2 8.75A.75.75 0 012.75 8h6.5a.75.75 0 110 1.5h-6.5A.75.75 0 012 8.75zm0 6.5a.75.75 0 01.75-.75h6.5a.75.75 0 010 1.5h-6.5a.75.75 0 01-.75-.75zm0 6a.75.75 0 01.75-.75h18.5a.75.75 0 010 1.5H2.75a.75.75 0 01-.75-.75z"/><path fill-rule="evenodd" d="M20.75 7c.69 0 1.25.56 1.25 1.25v7.5c0 .69-.56 1.25-1.25 1.25h-7.5c-.69 0-1.25-.56-1.25-1.25v-7.5c0-.69.56-1.25 1.25-1.25h7.5zm-.25 8.5v-7h-7v7h7z"/></svg>