<svg xmlns="http://www.w3.org/2000/svg" width="24" height="24"><path d="M21.25 2a.75.75 0 010 1.5H2.75a.75.75 0 010-1.5h18.5zM22 8.75a.75.75 0 00-.75-.75h-6.5a.75.75 0 000 1.5h6.5a.75.75 0 00.75-.75zm0 6.5a.75.75 0 00-.75-.75h-6.5a.75.75 0 000 1.5h6.5a.75.75 0 00.75-.75zm0 6a.75.75 0 00-.75-.75H2.75a.75.75 0 000 1.5h18.5a.75.75 0 00.75-.75z"/><path fill-rule="evenodd" d="M3.25 7C2.56 7 2 7.56 2 8.25v7.5c0 .69.56 1.25 1.25 1.25h7.5c.69 0 1.25-.56 1.25-1.25v-7.5C12 7.56 11.44 7 10.75 7h-7.5zm.25 8.5v-7h7v7h-7z"/></svg>