<svg xmlns="http://www.w3.org/2000/svg" width="24" height="24"><path d="M22 2.75a.75.75 0 00-.75-.75H2.75a.75.75 0 100 1.5h18.5a.75.75 0 00.75-.75zm-.75 3.75a.75.75 0 010 1.5H11.5a.75.75 0 010-1.5h9.75zM22 12a.75.75 0 00-.75-.75h-9.5a.75.75 0 000 1.5h9.5A.75.75 0 0022 12zm0 4.75a.75.75 0 00-.75-.75h-9.5a.75.75 0 000 1.5h9.5a.75.75 0 00.75-.75zm0 4.5a.75.75 0 00-.75-.75H2.75a.75.75 0 000 1.5h18.5a.75.75 0 00.75-.75zM7.906 12.411a.5.5 0 000-.822L2.785 8.043A.5.5 0 002 8.454v7.092a.5.5 0 00.785.41l5.121-3.545z"/></svg>