<svg xmlns="http://www.w3.org/2000/svg" width="24" height="24"><path d="M22 1.75a.75.75 0 00-.75-.75H2.75a.75.75 0 100 1.5h18.5a.75.75 0 00.75-.75zm-.75 19.75a.75.75 0 010 1.5H2.75a.75.75 0 010-1.5h18.5zm.75-3.25a.75.75 0 00-.75-.75H2.75a.75.75 0 000 1.5h18.5a.75.75 0 00.75-.75zM9 13a.75.75 0 011.28-.53l.97.97V6.56l-.97 1.22a.749.749 0 11-1.06-1.06l2.25-2.5a.75.75 0 011.06 0l2.25 2.5a.75.75 0 11-1.06 1.06l-.97-1.22v6.88l.97-.97a.75.75 0 011.06 1.06l-2.25 2.25a.75.75 0 01-1.06 0l-2.25-2.25A.75.75 0 019 13z"/></svg>