<svg xmlns="http://www.w3.org/2000/svg" width="24" height="24"><path d="M2.02 18a.75.75 0 011.279-.53l.97.97V5.56l-.97 1.22a.75.75 0 11-1.06-1.06l2.25-2.5a.75.75 0 011.06 0l2.25 2.5a.75.75 0 11-1.06 1.06l-.97-1.22v12.88l.97-.97a.75.75 0 011.06 1.06l-2.25 2.25a.75.75 0 01-1.06 0l-2.25-2.25a.75.75 0 01-.22-.53zM22 5.75a.75.75 0 00-.75-.75h-10.5a.75.75 0 000 1.5h10.5a.75.75 0 00.75-.75zM21.25 9a.75.75 0 010 1.5h-10.5a.75.75 0 010-1.5h10.5zm.75 4.75a.75.75 0 00-.75-.75h-10.5a.75.75 0 000 1.5h10.5a.75.75 0 00.75-.75zM21.25 17a.75.75 0 010 1.5h-10.5a.75.75 0 010-1.5h10.5z"/></svg>