<svg xmlns="http://www.w3.org/2000/svg" width="24" height="24"><path d="M15.043 9.492a.5.5 0 01.159-.366l2.437-2.272c.77-.716 1.053-1.065 1.053-1.513a.746.746 0 00-.273-.597c-.174-.144-.431-.236-.745-.236-.332 0-.585.1-.752.253a.846.846 0 00-.266.648v.02a.25.25 0 01-.25.25H15.25a.25.25 0 01-.25-.25v-.02c0-.717.284-1.327.774-1.754C16.26 3.23 16.934 3 17.695 3c1.53 0 2.652.966 2.652 2.318 0 1.055-.61 1.758-1.783 2.832l-.934.86h3.12a.25.25 0 01.25.25v1.03a.25.25 0 01-.25.25h-5.457a.25.25 0 01-.25-.25v-.798z"/><path fill-rule="evenodd" d="M8.072 5.774L4.51 14.462v.003l-1.452 3.497a.75.75 0 001.385.575l1.26-3.037h6.708l1.138 3.014a.75.75 0 001.403-.53l-1.32-3.496v-.003l-3.233-8.673-.001-.003c-.4-1.06-1.89-1.084-2.324-.038l-.002.003zM11.85 14L9.216 6.936 6.321 14h5.529z"/></svg>