<svg xmlns="http://www.w3.org/2000/svg" width="24" height="24"><path d="M14.25 19h8.5a.25.25 0 00.25-.25v-.985a.25.25 0 00-.25-.25h-6.472l3.294-3.424c2.452-2.544 3.178-3.73 3.178-5.261 0-2.132-1.783-3.83-4.29-3.83-2.415 0-4.271 1.534-4.398 3.822a.24.24 0 00.244.25h1.144a.265.265 0 00.26-.25c.105-1.431 1.13-2.366 2.692-2.366 1.546 0 2.73.918 2.73 2.374 0 1.274-.772 2.219-2.423 3.966l-4.435 4.702a1 1 0 00-.273.685v.567c0 .138.111.25.25.25z"/><path fill-rule="evenodd" d="M6.072 5.774L2.51 14.463v.003l-1.452 3.496a.75.75 0 001.385.576l1.26-3.038h6.708l1.138 3.015a.75.75 0 101.403-.53l-1.32-3.497v-.003L8.398 5.812l-.001-.003c-.4-1.06-1.89-1.084-2.324-.038l-.002.003zM9.85 14L7.217 6.937 4.321 14H9.85z"/></svg>