<svg xmlns="http://www.w3.org/2000/svg" width="24" height="24"><path fill-rule="evenodd" d="M7.072 5.774L3.51 14.463v.003l-1.452 3.496a.75.75 0 001.385.576l1.26-3.038h6.708l1.138 3.015a.75.75 0 101.403-.53l-1.32-3.497v-.003L9.398 5.812l-.001-.003c-.4-1.06-1.89-1.084-2.324-.038l-.002.003zM10.85 14L8.216 6.937 5.321 14h5.529z"/><path d="M16.043 19.952a.5.5 0 01.159-.366l2.437-2.272c.77-.716 1.053-1.065 1.053-1.513a.746.746 0 00-.273-.597c-.174-.144-.431-.236-.745-.236-.332 0-.585.1-.752.253a.846.846 0 00-.266.648v.02a.25.25 0 01-.25.25H16.25a.25.25 0 01-.25-.25v-.02c0-.717.284-1.327.774-1.754.486-.425 1.16-.655 1.921-.655 1.53 0 2.652.966 2.652 2.318 0 1.055-.61 1.758-1.783 2.832l-.934.86h3.12a.25.25 0 01.25.25v1.03a.25.25 0 01-.25.25h-5.457a.25.25 0 01-.25-.25v-.798z"/></svg>