<svg xmlns="http://www.w3.org/2000/svg" width="24" height="24"><path fill-rule="evenodd" d="M2.51 14.463l3.562-8.689.002-.003c.434-1.046 1.924-1.021 2.324.038v.003l3.233 8.673.001.003 1.32 3.497a.75.75 0 01-1.403.53L10.41 15.5H3.704l-1.261 3.038a.75.75 0 01-1.385-.576l1.451-3.496.001-.003zm4.707-7.526L9.85 14H4.32l2.896-7.063z"/><path d="M20.759 10.726a2.423 2.423 0 00-.506-.56c-.424-.334-.975-.666-1.627-.666-.829 0-1.542.355-2.064 1-.524.647-1.062 1.743-1.062 3 0 1.262.532 2.352 1.062 3 .527.646 1.27 1 2.133 1 .788 0 1.624-.29 2.236-.907.386-.389.522-.913.556-1.547a.249.249 0 00-.249-.261h-1.484a.765.765 0 110-1.53H22a1 1 0 011 1v.319c0 1.35-.446 2.458-1.212 3.229C21.095 18.5 20 19 18.695 19c-1.396 0-2.368-.544-3.195-1.5a6.085 6.085 0 010-8c.824-.955 1.79-1.5 3.126-1.5 1.656 0 3.035.801 3.777 2.075.217.37.049.83-.32 1.051-.45.272-1.031.037-1.324-.4z"/></svg>