<svg xmlns="http://www.w3.org/2000/svg" width="24" height="24"><path d="M5.269 4.56v16.754a.75.75 0 101.5 0V4.56l1.97 1.97a.75.75 0 101.06-1.06l-3.25-3.25a.75.75 0 00-1.06 0l-3.25 3.25a.75.75 0 101.06 1.06l1.97-1.97z"/><path fill-rule="evenodd" d="M14.58 10.533l6.615 2.553c1.073.413 1.073 1.915 0 2.328l-6.615 2.553a.64.64 0 01-.03.011l-.003.001-2.512.97a.761.761 0 01-.983-.426.747.747 0 01.431-.972l2.046-.789v-5.024l-2.046-.79a.747.747 0 01-.43-.97.761.761 0 01.982-.427l2.512.97a.846.846 0 01.033.012zm.466 1.79v3.854l4.994-1.927-4.994-1.927z"/></svg>