<svg xmlns="http://www.w3.org/2000/svg" width="24" height="24"><path d="M19.259 10.726a2.423 2.423 0 00-.506-.56c-.424-.334-.975-.666-1.627-.666-.829 0-1.542.355-2.064 1-.524.647-1.062 1.743-1.062 3 0 1.262.532 2.352 1.062 3 .527.646 1.27 1 2.133 1 .788 0 1.624-.29 2.236-.907.386-.389.522-.913.556-1.547a.249.249 0 00-.249-.261h-1.484a.765.765 0 110-1.53H20.5a1 1 0 011 1v.319c0 1.35-.446 2.458-1.212 3.229C19.595 18.5 18.5 19 17.195 19c-1.396 0-2.368-.544-3.195-1.5a6.085 6.085 0 010-8c.824-.955 1.79-1.5 3.126-1.5 1.656 0 3.035.801 3.777 2.075.217.37.049.83-.32 1.051-.45.272-1.031.037-1.324-.4z"/><path fill-rule="evenodd" d="M8.415 8.805C8 7.732 6.5 7.732 6.085 8.805L3.534 15.42a.733.733 0 00-.012.032l-.97 2.512c-.15.39.04.83.427.983.385.152.82-.04.97-.431l.79-2.046h5.024l.79 2.046c.15.39.585.583.97.43a.761.761 0 00.427-.982l-.97-2.512a.648.648 0 00-.012-.033L8.415 8.805zm.762 6.149H5.324L7.25 9.96l1.927 4.994z"/></svg>