<svg xmlns="http://www.w3.org/2000/svg" width="24" height="24"><path d="M5.269 19.504V2.75a.75.75 0 011.5 0v16.754l1.97-1.97a.75.75 0 111.06 1.06l-3.25 3.25a.75.75 0 01-1.06 0l-3.25-3.25a.75.75 0 111.06-1.06l1.97 1.97z"/><path fill-rule="evenodd" d="M16.086 5.805c.414-1.073 1.915-1.073 2.329 0l2.552 6.615.013.033.969 2.512c.15.39-.04.83-.426.983a.747.747 0 01-.971-.431l-.79-2.046h-5.024l-.79 2.046a.747.747 0 01-.97.43.761.761 0 01-.426-.982l.969-2.512a.61.61 0 01.012-.032l2.553-6.616zm-.762 6.149h3.853L17.25 6.96l-1.926 4.994z"/></svg>