<svg xmlns="http://www.w3.org/2000/svg" width="24" height="24"><path fill-rule="evenodd" d="M3.324 6h8.926a.75.75 0 010 1.5h-8.9c-.292 0-.467 0-.596.011a.628.628 0 00-.12.018.25.25 0 00-.105.104.626.626 0 00-.018.121c-.01.13-.011.304-.011.596v7.3c0 .292 0 .467.011.596a.625.625 0 00.018.12.25.25 0 00.104.105.638.638 0 00.121.018c.13.01.304.011.596.011h8.9a.75.75 0 010 1.5H3.324c-.258 0-.494 0-.692-.016a1.775 1.775 0 01-.676-.175 1.75 1.75 0 01-.765-.765 1.774 1.774 0 01-.175-.676C1 16.17 1 15.934 1 15.676V8.324c0-.258 0-.494.016-.692a1.77 1.77 0 01.175-.676 1.75 1.75 0 01.765-.765 1.77 1.77 0 01.676-.175C2.83 6 3.066 6 3.324 6zM2.63 16.47h.001-.001zm-.101-.1v-.002.001zm0-8.74v.002-.001zm.102-.1H2.63h.001zm18.737 0h-.001.001zm.101.1v.002-.001zm0 8.74v-.002.001zm-.1.1h-.003.002zm-.001-10.454C21.17 6 20.934 6 20.676 6H17.5V3.5h2a.75.75 0 000-1.5H14a.75.75 0 000 1.5h2v17h-2a.75.75 0 000 1.5h5.5a.75.75 0 000-1.5h-2V18h3.176c.258 0 .494 0 .692-.016a1.78 1.78 0 00.677-.175 1.75 1.75 0 00.764-.765 1.77 1.77 0 00.175-.676c.016-.198.016-.434.016-.692V8.324c0-.258 0-.494-.016-.692a1.775 1.775 0 00-.175-.676 1.75 1.75 0 00-.765-.765 1.774 1.774 0 00-.676-.175zm-.122 1.495a8.337 8.337 0 00-.596-.011H17.5v8.989l3.15.011c.292 0 .467 0 .596-.011a.636.636 0 00.12-.018.25.25 0 00.105-.105.636.636 0 00.018-.12c.01-.13.011-.304.011-.596v-7.3c0-.292 0-.467-.011-.596a.638.638 0 00-.018-.12.25.25 0 00-.105-.105.626.626 0 00-.12-.018z"/></svg>