<svg xmlns="http://www.w3.org/2000/svg" width="24" height="24"><path d="M18.732 19.504V2.75a.75.75 0 10-1.5 0v16.754l-1.97-1.97a.75.75 0 10-1.06 1.06l3.25 3.25a.75.75 0 001.06 0l3.25-3.25a.75.75 0 10-1.06-1.06l-1.97 1.97z"/><path fill-rule="evenodd" d="M2.805 10.978c-1.073-.414-1.073-1.915 0-2.329L9.42 6.097a.77.77 0 01.033-.013l2.512-.969c.39-.15.83.04.983.426a.747.747 0 01-.431.971l-2.046.79v5.024l2.046.79c.39.15.583.585.43.97a.761.761 0 01-.982.426l-2.512-.969a.88.88 0 01-.033-.012l-6.615-2.553zm6.149.762V7.887L3.96 9.814l4.994 1.926z"/></svg>