<svg xmlns="http://www.w3.org/2000/svg" width="24" height="24"><path fill-rule="evenodd" d="M6.737 8c-1.581 0-3.371.522-4.284 2.205a.75.75 0 001.318.716c.537-.99 1.647-1.42 2.966-1.42.766 0 1.488.23 2.001.6.506.365.769.829.769 1.332v.57h-2.77c-1.569 0-2.759.393-3.569 1.087C2.349 13.792 2 14.734 2 15.403c0 1.124.457 2.059 1.217 2.702.747.633 1.744.948 2.795.948 1.355 0 2.558-.265 3.451-.785l.044-.025v.06a.75.75 0 101.5 0v-6.87c0-1.093-.591-1.971-1.392-2.548C8.821 8.312 7.784 8 6.737 8zm2.77 5.503h-2.77c-1.331 0-2.134.333-2.593.726-.206.175-.644.57-.644 1.174 0 .603.267 1.203.686 1.557.43.365 1.065.593 1.826.593 1.183 0 2.102-.235 2.697-.581.582-.34.798-.74.798-1.134v-2.335zM22 8.75a.75.75 0 00-1.5 0v.507C19.704 8.487 18.653 8 17.5 8c-1.985 0-4.75 1-4.75 5.5S15.515 19 17.5 19c1.153 0 2.205-.487 3-1.258v.101l.003.396c.006.733.01 1.295-.201 1.81-.14.34-.37.69-.756.959-.383.266-.975.492-1.907.492a4.41 4.41 0 01-2.901-1.077 2.833 2.833 0 01-.171-.165l-.004-.004a.75.75 0 00-1.127.99l.003.003.006.008.08.085c.052.052.125.123.218.206A5.91 5.91 0 0017.64 23c1.185 0 2.09-.291 2.765-.762a3.633 3.633 0 001.285-1.618c.338-.822.325-1.732.315-2.448a25.924 25.924 0 01-.003-.329L22 8.75zm-6.638 8.053c.577.499 1.366.697 2.138.697 1.554 0 3-1.487 3-3.25v-1.5c0-1.763-1.446-3.25-3-3.25-.772 0-1.561.198-2.138.697-.533.461-1.112 1.376-1.112 3.303 0 1.928.579 2.842 1.112 3.303z"/></svg>