<svg xmlns="http://www.w3.org/2000/svg" width="24" height="24"><path fill-rule="evenodd" d="M17.432 2.113c1.052-.466 2.113.595 1.647 1.647l-2.873 6.482a.821.821 0 01-.014.032L15.1 12.736a.762.762 0 01-.996.394.747.747 0 01-.382-.992l.889-2.005-3.553-3.552-2.004.888a.747.747 0 01-.992-.382.761.761 0 01.393-.996l2.462-1.09a.746.746 0 01.032-.015l6.483-2.873zm-4.887 3.809l2.725 2.725 2.169-4.894-4.894 2.169z"/><path d="M16.01 19.45L3.28 6.72a.75.75 0 10-1.06 1.06l12.73 12.73h-2.786a.75.75 0 100 1.5h4.596a.75.75 0 00.75-.75v-4.596a.75.75 0 10-1.5 0v2.786z"/></svg>