<svg xmlns="http://www.w3.org/2000/svg" width="24" height="24"><path fill-rule="evenodd" d="M6.072 5.774L2.51 14.463v.003l-1.452 3.496a.75.75 0 001.385.576l1.26-3.038h6.708l1.138 3.015a.75.75 0 101.403-.53l-1.32-3.497v-.003L8.398 5.812l-.001-.003c-.4-1.06-1.89-1.084-2.324-.038l-.002.003zM9.85 14L7.217 6.937 4.321 14H9.85zM23 8.75a.75.75 0 00-1.5 0v.507C20.704 8.487 19.653 8 18.5 8c-1.985 0-4.75 1-4.75 5.5S16.515 19 18.5 19c1.153 0 2.205-.487 3-1.258v.101l.003.396c.006.733.01 1.295-.201 1.81-.14.34-.37.69-.756.959-.383.266-.975.492-1.907.492a4.41 4.41 0 01-2.901-1.077 2.833 2.833 0 01-.171-.165l-.004-.004a.75.75 0 00-1.127.99l.003.003.006.008.08.085c.052.052.125.123.218.206A5.91 5.91 0 0018.64 23c1.185 0 2.09-.291 2.765-.762a3.633 3.633 0 001.285-1.618c.338-.822.325-1.732.315-2.448a25.924 25.924 0 01-.003-.329L23 8.75zm-6.638 8.053c.577.499 1.366.697 2.138.697 1.554 0 3-1.487 3-3.25v-1.5c0-1.763-1.446-3.25-3-3.25-.772 0-1.561.198-2.138.697-.533.461-1.112 1.376-1.112 3.303 0 1.928.579 2.842 1.112 3.303z"/></svg>