<svg xmlns="http://www.w3.org/2000/svg" width="24" height="24"><path fill-rule="evenodd" d="M9.086 2.805c.414-1.073 1.915-1.073 2.329 0l2.552 6.615.013.033.969 2.512c.15.39-.04.83-.426.983a.747.747 0 01-.971-.431l-.79-2.046H7.738l-.79 2.046a.747.747 0 01-.97.43.761.761 0 01-.426-.982l.969-2.512a.758.758 0 01.012-.033l2.553-6.615zM10.25 3.96L8.324 8.954h3.853L10.25 3.96z"/><path d="M19.504 18.769H2.75a.75.75 0 110-1.5h16.754l-1.97-1.97a.75.75 0 111.06-1.06l3.25 3.25a.75.75 0 010 1.06l-3.25 3.25a.75.75 0 11-1.06-1.06l1.97-1.97z"/></svg>