<svg xmlns="http://www.w3.org/2000/svg" width="24" height="24"><path fill-rule="evenodd" d="M2.113 5.76c-.466-1.052.595-2.113 1.647-1.647l6.482 2.873.032.014 2.462 1.091c.383.17.559.616.394.996a.747.747 0 01-.992.382l-2.005-.888-3.552 3.552.888 2.005a.747.747 0 01-.382.992.762.762 0 01-.996-.394l-1.09-2.462a.806.806 0 01-.015-.031L2.113 5.76zm3.809 4.887l2.725-2.725-4.894-2.169 2.169 4.894z"/><path d="M20.51 9.06L7.78 21.79a.75.75 0 11-1.06-1.06L19.45 8h-2.786a.75.75 0 110-1.5h4.596a.75.75 0 01.75.75v4.596a.75.75 0 11-1.5 0V9.06z"/></svg>