<svg xmlns="http://www.w3.org/2000/svg" width="24" height="24"><path fill-rule="evenodd" d="M2 3.75C2 2.784 2.784 2 3.75 2h16.5c.966 0 1.75.784 1.75 1.75v16.5A1.75 1.75 0 0120.25 22H3.75A1.75 1.75 0 012 20.25V3.75zm9.467 10.79a3.119 3.119 0 00-2.872-.395l-1.09.394a.75.75 0 11-.51-1.411l1.09-.394a4.618 4.618 0 014.253.586c.92.657 2.123.765 3.145.282l.947-.447a.75.75 0 01.64 1.357l-.947.447a4.619 4.619 0 01-4.656-.418zm-2.872-4.395a3.118 3.118 0 012.872.396 4.619 4.619 0 004.656.418l.947-.447a.75.75 0 10-.64-1.357l-.947.447a3.119 3.119 0 01-3.145-.282 4.619 4.619 0 00-4.253-.586l-1.09.394a.75.75 0 00.51 1.41l1.09-.393z"/></svg>