<svg xmlns="http://www.w3.org/2000/svg" width="24" height="24"><path fill-rule="evenodd" d="M12 1C5.925 1 1 5.925 1 12s4.925 11 11 11 11-4.925 11-11S18.075 1 12 1zM2.5 12a9.5 9.5 0 1119 0 9.5 9.5 0 01-19 0z"/><path d="M8.595 10.145a3.118 3.118 0 012.872.396 4.619 4.619 0 004.656.418l.947-.447a.75.75 0 10-.64-1.357l-.947.447a3.119 3.119 0 01-3.145-.282 4.619 4.619 0 00-4.253-.586l-1.09.394a.75.75 0 00.51 1.41l1.09-.393zm0 4a3.119 3.119 0 012.872.396 4.619 4.619 0 004.656.418l.947-.447a.75.75 0 10-.64-1.357l-.947.447a3.119 3.119 0 01-3.145-.282 4.618 4.618 0 00-4.253-.586l-1.09.394a.75.75 0 00.51 1.41l1.09-.393z"/></svg>