<svg xmlns="http://www.w3.org/2000/svg" width="24" height="24"><path fill-rule="evenodd" d="M3.75 2A1.75 1.75 0 002 3.75v16.5c0 .966.784 1.75 1.75 1.75h16.5A1.75 1.75 0 0022 20.25V3.75A1.75 1.75 0 0020.25 2H3.75zM3.5 3.75a.25.25 0 01.25-.25h16.5a.25.25 0 01.25.25v16.5a.25.25 0 01-.25.25H3.75a.25.25 0 01-.25-.25V3.75z"/><path d="M8.595 10.145a3.118 3.118 0 012.872.396 4.619 4.619 0 004.656.418l.947-.447a.75.75 0 10-.64-1.357l-.947.447a3.119 3.119 0 01-3.145-.282 4.619 4.619 0 00-4.253-.586l-1.09.394a.75.75 0 00.51 1.41l1.09-.393zm0 4a3.119 3.119 0 012.872.396 4.619 4.619 0 004.656.418l.947-.447a.75.75 0 10-.64-1.357l-.947.447a3.119 3.119 0 01-3.145-.282 4.618 4.618 0 00-4.253-.586l-1.09.394a.75.75 0 00.51 1.41l1.09-.393z"/></svg>