<svg xmlns="http://www.w3.org/2000/svg" width="24" height="24"><path fill-rule="evenodd" d="M3.75 2A1.75 1.75 0 002 3.75v16.5c0 .966.784 1.75 1.75 1.75h16.5A1.75 1.75 0 0022 20.25V3.75A1.75 1.75 0 0020.25 2H3.75zM3.5 3.75a.25.25 0 01.25-.25h16.5a.25.25 0 01.25.25v16.5a.25.25 0 01-.25.25H3.75a.25.25 0 01-.25-.25V3.75z"/><path d="M17.5 7.75a.75.75 0 01-.75.75H11a3.501 3.501 0 00-3.42 2.75h9.17a.75.75 0 010 1.5H7.58A3.501 3.501 0 0011 15.5h5.75a.75.75 0 010 1.5H11a5 5 0 010-10h5.75a.75.75 0 01.75.75z"/></svg>