<svg xmlns="http://www.w3.org/2000/svg" width="24" height="24"><path fill-rule="evenodd" d="M12 0a.75.75 0 01.75.75v3.345a3.001 3.001 0 011.164 5.215l1.912 5.19h1.424a.75.75 0 010 1.5h-.872l2.576 6.99a.75.75 0 01-1.408.52L14.78 16h-2.03v1.25a.75.75 0 01-1.5 0V16H9.22l-2.766 7.51a.75.75 0 11-1.408-.52L7.622 16H6.75a.75.75 0 010-1.5h1.424l1.912-5.19a3.001 3.001 0 011.164-5.216V.75A.75.75 0 0112 0zM9.773 14.5h1.477v-.75a.75.75 0 011.5 0v.75h1.477l-1.676-4.55a3.018 3.018 0 01-1.102 0L9.773 14.5zM13.5 7a1.5 1.5 0 01-.725 1.285.785.785 0 00-.214.106 1.495 1.495 0 01-1.122 0 .752.752 0 00-.214-.106A1.499 1.499 0 0112 5.5 1.5 1.5 0 0113.5 7z"/></svg>