<svg xmlns="http://www.w3.org/2000/svg" width="24" height="24"><path fill-rule="evenodd" d="M16.25 8.5a.75.75 0 000-1.5h-.805l.47-.904a.75.75 0 00-1.33-.692L13.755 7H10.5a5 5 0 00-1.776 9.675l-.64 1.229a.75.75 0 101.331.692l.834-1.602c.083.004.167.006.251.006h5.75a.75.75 0 000-1.5h-5.225l1.43-2.75h3.795a.75.75 0 000-1.5h-3.015l1.43-2.75h1.585zm-3.275 0H10.5a3.501 3.501 0 00-3.42 2.75h4.465l1.43-2.75zm-2.21 4.25H7.08a3.506 3.506 0 002.342 2.581l1.342-2.581z"/><path fill-rule="evenodd" d="M12 1c6.075 0 11 4.925 11 11s-4.925 11-11 11S1 18.075 1 12 5.925 1 12 1zm6.718 4.282A9.5 9.5 0 105.283 18.717 9.5 9.5 0 0018.717 5.282z"/></svg>