<svg xmlns="http://www.w3.org/2000/svg" width="24" height="24"><path d="M12.975 8.5H10.5a3.501 3.501 0 00-3.42 2.75h4.465l1.43-2.75zm-2.21 4.25H7.08a3.506 3.506 0 002.342 2.581l1.342-2.581z"/><path fill-rule="evenodd" d="M12 1C5.925 1 1 5.925 1 12s4.925 11 11 11 11-4.925 11-11S18.075 1 12 1zm4.25 7.5a.75.75 0 000-1.5h-.805l.47-.904a.75.75 0 00-1.33-.692L13.755 7H10.5a5 5 0 00-1.776 9.675l-.64 1.229a.75.75 0 101.331.692l.834-1.602c.083.004.167.006.251.006h5.75a.75.75 0 000-1.5h-5.225l1.43-2.75h3.795a.75.75 0 000-1.5h-3.015l1.43-2.75h1.585z"/></svg>