<svg xmlns="http://www.w3.org/2000/svg" width="24" height="24"><path fill-rule="evenodd" d="M18 12c0-1.386-.47-2.663-1.26-3.68l1.04-1.04a.75.75 0 00-1.06-1.06l-1.04 1.04a6 6 0 00-8.42 8.42l-1.04 1.04a.75.75 0 101.06 1.06l1.04-1.04A6 6 0 0018 12zm-6 4.5a4.5 4.5 0 003.668-7.107l-6.275 6.275A4.48 4.48 0 0012 16.5zm2.607-8.168l-6.275 6.275a4.5 4.5 0 016.275-6.275z"/><path fill-rule="evenodd" d="M1 12C1 5.925 5.925 1 12 1s11 4.925 11 11-4.925 11-11 11S1 18.075 1 12zm4.282-6.718a9.5 9.5 0 1013.435 13.435A9.5 9.5 0 005.282 5.282z"/></svg>