<svg xmlns="http://www.w3.org/2000/svg" width="24" height="24"><path fill-rule="evenodd" d="M2 3.75C2 2.784 2.784 2 3.75 2h16.5c.966 0 1.75.784 1.75 1.75v16.5A1.75 1.75 0 0120.25 22H3.75A1.75 1.75 0 012 20.25V3.75zm8.293 3.482a.75.75 0 01-.025 1.06L9.518 9h4.964l-.75-.707a.75.75 0 011.036-1.086l4.5 4.25a.75.75 0 010 1.085l-4.5 4.25a.75.75 0 01-1.036-1.085l.75-.707H9.518l.75.707a.75.75 0 01-1.036 1.085l-4.5-4.25a.75.75 0 010-1.085l4.5-4.25a.75.75 0 011.06.025zm5.78 6.268l1.59-1.5-1.59-1.5H7.927L6.337 12l1.59 1.5h8.146z"/></svg>