<svg xmlns="http://www.w3.org/2000/svg" width="24" height="24"><path fill-rule="evenodd" d="M3.75 2A1.75 1.75 0 002 3.75v16.5c0 .966.784 1.75 1.75 1.75h16.5A1.75 1.75 0 0022 20.25V3.75A1.75 1.75 0 0020.25 2H3.75zM3.5 3.75a.25.25 0 01.25-.25h16.5a.25.25 0 01.25.25v16.5a.25.25 0 01-.25.25H3.75a.25.25 0 01-.25-.25V3.75z"/><path fill-rule="evenodd" d="M7.49 6.047a.75.75 0 01.963.443L9.382 9h5.238l.928-2.51a.75.75 0 011.406.52l-4.25 11.5a.75.75 0 01-1.406 0l-4.25-11.5a.75.75 0 01.443-.963zm6.575 4.453h-4.13L12 16.086l2.065-5.586z"/></svg>