<svg xmlns="http://www.w3.org/2000/svg" width="24" height="24"><path fill-rule="evenodd" d="M3.75 2A1.75 1.75 0 002 3.75v16.5c0 .966.784 1.75 1.75 1.75h16.5A1.75 1.75 0 0022 20.25V3.75A1.75 1.75 0 0020.25 2H3.75zM3.5 3.75a.25.25 0 01.25-.25h16.5a.25.25 0 01.25.25v16.5a.25.25 0 01-.25.25H3.75a.25.25 0 01-.25-.25V3.75z"/><path d="M14.404 5.5a2.75 2.75 0 00-2.713 2.297l-.45 2.703H9.5a.75.75 0 000 1.5h1.49l-.66 3.956A1.25 1.25 0 019.095 17H8.75a.75.75 0 000 1.5h.346a2.75 2.75 0 002.713-2.297L12.51 12H15a.75.75 0 000-1.5h-2.24l.41-2.456A1.25 1.25 0 0114.405 7h.346a.75.75 0 000-1.5h-.346z"/></svg>