<svg xmlns="http://www.w3.org/2000/svg" width="24" height="24"><path d="M3.691 7.797A2.75 2.75 0 016.404 5.5h.346a.75.75 0 110 1.5h-.346A1.25 1.25 0 005.17 8.044L4.76 10.5H7A.75.75 0 017 12H4.51l-.701 4.203A2.75 2.75 0 011.096 18.5H.75a.75.75 0 010-1.5h.346a1.25 1.25 0 001.233-1.044L2.99 12H1.5a.75.75 0 010-1.5h1.74l.451-2.703zm17.066-.982a.75.75 0 01.982-1.134l.001.001.002.002.003.003.01.008a1.957 1.957 0 01.112.107c.07.07.162.168.27.298.218.26.497.642.774 1.159C23.466 8.295 24 9.854 24 12c0 2.146-.534 3.705-1.089 4.741a6.89 6.89 0 01-.773 1.16 4.691 4.691 0 01-.383.404l-.01.008-.004.004h-.001l-.001.002a.75.75 0 01-.982-1.134l.006-.006.042-.04c.04-.04.103-.107.182-.202.158-.188.379-.487.602-.904.445-.83.911-2.147.911-4.033 0-1.887-.466-3.203-.911-4.033a5.34 5.34 0 00-.602-.904 3.174 3.174 0 00-.224-.242l-.006-.006zm-5.864 1.049a.75.75 0 10-1.286.772L15.625 12l-2.018 3.364a.75.75 0 101.286.772l1.607-2.678 1.607 2.678a.75.75 0 101.286-.772L17.375 12l2.018-3.364a.75.75 0 10-1.286-.772L16.5 10.542l-1.607-2.678zm-2.65 9.321l-.006-.006a3.172 3.172 0 01-.224-.242 5.343 5.343 0 01-.602-.904c-.445-.83-.911-2.147-.911-4.033 0-1.887.466-3.203.911-4.033a5.34 5.34 0 01.602-.904 3.174 3.174 0 01.224-.242l.006-.006a.75.75 0 00-.983-1.133l-.002.002-.003.003-.037.033-.085.082c-.07.07-.162.168-.27.298a6.81 6.81 0 00-.774 1.159C9.534 8.295 9 9.854 9 12c0 2.146.534 3.705 1.089 4.741.277.517.556.9.773 1.16a4.691 4.691 0 00.356.38l.043.038a.75.75 0 00.982-1.134z"/></svg>