<svg xmlns="http://www.w3.org/2000/svg" width="24" height="24"><path fill-rule="evenodd" d="M20.25 2c.966 0 1.75.784 1.75 1.75v16.5A1.75 1.75 0 0120.25 22H3.75A1.75 1.75 0 012 20.25V3.75C2 2.784 2.784 2 3.75 2h16.5zm.25 1.75a.25.25 0 00-.25-.25H3.75a.25.25 0 00-.25.25v16.5c0 .138.112.25.25.25h16.5a.25.25 0 00.25-.25V3.75z"/><path d="M7.947 7.436a.75.75 0 01.606-1.372l8.5 3.75a.75.75 0 010 1.372l-8.5 3.75a.75.75 0 01-.606-1.372l6.945-3.064-6.945-3.064zM16.5 16.5a.75.75 0 010 1.5H8.25a.75.75 0 010-1.5h8.25z"/></svg>