<svg xmlns="http://www.w3.org/2000/svg" width="24" height="24"><path d="M8.511 7.775a.75.75 0 01.525.201L12 10.939l2.964-2.963a.75.75 0 111.06 1.06L13.061 12l2.963 2.964a.75.75 0 01-1.061 1.06L12 13.06l-2.964 2.963a.75.75 0 11-1.06-1.06L10.939 12 7.976 9.036a.75.75 0 01.535-1.261z"/><path fill-rule="evenodd" d="M3.75 2A1.75 1.75 0 002 3.75v16.5c0 .966.784 1.75 1.75 1.75h16.5A1.75 1.75 0 0022 20.25V3.75A1.75 1.75 0 0020.25 2H3.75zM3.5 3.75a.25.25 0 01.25-.25h16.5a.25.25 0 01.25.25v16.5a.25.25 0 01-.25.25H3.75a.25.25 0 01-.25-.25V3.75z"/></svg>