<svg xmlns="http://www.w3.org/2000/svg" width="24" height="24"><path fill-rule="evenodd" d="M11.432 5.772a.75.75 0 01.546.91l-.642 2.568h2.703l.733-2.932a.75.75 0 011.456.364l-.642 2.568h2.164a.75.75 0 010 1.5h-2.54l-.624 2.5h2.164a.75.75 0 010 1.5h-2.54l-.732 2.932a.75.75 0 01-1.456-.364l.642-2.568H9.961l-.733 2.932a.75.75 0 01-1.456-.364l.642-2.568H5.75a.75.75 0 010-1.5h3.04l.624-2.5H6.75a.75.75 0 010-1.5h3.04l.732-2.932a.75.75 0 01.91-.546zm2.232 4.978l-.625 2.5h-2.703l.625-2.5h2.703z"/><path fill-rule="evenodd" d="M2 3.75C2 2.784 2.784 2 3.75 2h16.5c.966 0 1.75.784 1.75 1.75v16.5A1.75 1.75 0 0120.25 22H3.75A1.75 1.75 0 012 20.25V3.75zm1.75-.25a.25.25 0 00-.25.25v16.5c0 .138.112.25.25.25h16.5a.25.25 0 00.25-.25V3.75a.25.25 0 00-.25-.25H3.75z"/></svg>