<svg xmlns="http://www.w3.org/2000/svg" width="24" height="24"><path fill-rule="evenodd" d="M1 12C1 5.925 5.925 1 12 1s11 4.925 11 11-4.925 11-11 11S1 18.075 1 12zm10.978-5.318a.75.75 0 00-1.456-.364L9.79 9.25H6.75a.75.75 0 000 1.5h2.664l-.625 2.5H5.75a.75.75 0 000 1.5h2.664l-.642 2.568a.75.75 0 001.456.364l.733-2.932h2.703l-.642 2.568a.75.75 0 001.456.364l.733-2.932h2.539a.75.75 0 000-1.5h-2.164l.625-2.5h2.539a.75.75 0 000-1.5h-2.164l.642-2.568a.75.75 0 00-1.456-.364L14.04 9.25h-2.703l.642-2.568zm1.061 6.568l.625-2.5h-2.703l-.625 2.5h2.703z"/></svg>