<svg xmlns="http://www.w3.org/2000/svg" width="24" height="24"><path fill-rule="evenodd" d="M11.432 5.772a.75.75 0 01.546.91l-.642 2.568h2.703l.733-2.932a.75.75 0 011.456.364l-.642 2.568h2.164a.75.75 0 010 1.5h-2.54l-.624 2.5h2.164a.75.75 0 010 1.5h-2.54l-.732 2.932a.75.75 0 01-1.456-.364l.642-2.568H9.961l-.733 2.932a.75.75 0 01-1.456-.364l.642-2.568H5.75a.75.75 0 010-1.5h3.04l.624-2.5H6.75a.75.75 0 010-1.5h3.04l.732-2.932a.75.75 0 01.91-.546zm2.232 4.978l-.625 2.5h-2.703l.625-2.5h2.703z"/><path fill-rule="evenodd" d="M1 12C1 5.925 5.925 1 12 1s11 4.925 11 11-4.925 11-11 11S1 18.075 1 12zm4.282-6.718a9.5 9.5 0 1013.435 13.435A9.5 9.5 0 005.282 5.282z"/></svg>