<svg xmlns="http://www.w3.org/2000/svg" width="24" height="24"><path fill-rule="evenodd" d="M3.75 2A1.75 1.75 0 002 3.75v16.5c0 .966.784 1.75 1.75 1.75h16.5A1.75 1.75 0 0022 20.25V3.75A1.75 1.75 0 0020.25 2H3.75zM3.5 3.75a.25.25 0 01.25-.25h16.5a.25.25 0 01.25.25v16.5a.25.25 0 01-.25.25H3.75a.25.25 0 01-.25-.25V3.75z"/><path fill-rule="evenodd" d="M15.645 6.112a.75.75 0 01.243 1.033l-6.5 10.5a.75.75 0 01-1.276-.79l6.5-10.5a.75.75 0 011.033-.243z"/><path d="M11 7.5a1.5 1.5 0 11-3 0 1.5 1.5 0 013 0zm5 9a1.5 1.5 0 11-3 0 1.5 1.5 0 013 0z"/></svg>