<svg xmlns="http://www.w3.org/2000/svg" width="24" height="24"><path d="M2.75 5.769h16.69l-1.97 1.97a.75.75 0 101.06 1.06l3.25-3.25a.75.75 0 000-1.06l-3.25-3.25a.75.75 0 10-1.06 1.06l1.97 1.97H2.75a.75.75 0 000 1.5z"/><path fill-rule="evenodd" d="M13.508 23a.75.75 0 01-.75-.75l-.001-9.093-.002-3.406a.75.75 0 111.5-.002l.002 3.408v.101c.796-.77 1.848-1.258 3-1.258 1.986 0 4.75 1 4.75 5.5s-2.764 5.5-4.75 5.5c-1.152 0-2.203-.487-3-1.257v.507a.75.75 0 01-.75.75zm5.888-8.803c-.577-.499-1.366-.697-2.138-.697-1.554 0-3 1.487-3 3.25v1.5c0 1.763 1.446 3.25 3 3.25.772 0 1.561-.198 2.138-.697.533-.461 1.112-1.376 1.112-3.303 0-1.928-.579-2.842-1.112-3.303zM6.737 12c-1.581 0-3.371.522-4.284 2.205a.75.75 0 001.318.716c.537-.99 1.647-1.42 2.966-1.42.766 0 1.488.23 2.001.6.506.365.769.829.769 1.332v.57h-2.77c-1.569 0-2.759.393-3.569 1.087C2.349 17.792 2 18.734 2 19.403c0 1.124.457 2.059 1.217 2.702.747.633 1.744.948 2.795.948 1.355 0 2.558-.265 3.451-.785l.044-.025v.06a.75.75 0 101.5 0v-6.87c0-1.093-.591-1.971-1.392-2.548C8.821 12.312 7.784 12 6.737 12zm2.77 5.503h-2.77c-1.331 0-2.134.333-2.593.726-.206.175-.644.57-.644 1.174 0 .603.267 1.203.686 1.557.43.365 1.065.593 1.826.593 1.183 0 2.102-.235 2.697-.581.582-.34.798-.74.798-1.134v-2.335z"/></svg>