<svg xmlns="http://www.w3.org/2000/svg" width="24" height="24"><path fill-rule="evenodd" d="M3.75 2A1.75 1.75 0 002 3.75v16.5c0 .966.784 1.75 1.75 1.75h16.5A1.75 1.75 0 0022 20.25V3.75A1.75 1.75 0 0020.25 2H3.75zM3.5 3.75a.25.25 0 01.25-.25h16.5a.25.25 0 01.25.25v16.5a.25.25 0 01-.25.25H3.75a.25.25 0 01-.25-.25V3.75z"/><path d="M11.293 7.232a.75.75 0 01-.025 1.06l-.75.708h6.732a.75.75 0 010 1.5H8.927L7.337 12l1.59 1.5h8.323a.75.75 0 010 1.5h-6.732l.75.707a.75.75 0 01-1.036 1.085l-4.5-4.25a.75.75 0 010-1.085l4.5-4.25a.75.75 0 011.06.025z"/></svg>