<svg xmlns="http://www.w3.org/2000/svg" width="24" height="24"><path fill-rule="evenodd" d="M3.75 2A1.75 1.75 0 002 3.75v16.5c0 .966.784 1.75 1.75 1.75h16.5A1.75 1.75 0 0022 20.25V3.75A1.75 1.75 0 0020.25 2H3.75zM3.5 3.75a.25.25 0 01.25-.25h16.5a.25.25 0 01.25.25v16.5a.25.25 0 01-.25.25H3.75a.25.25 0 01-.25-.25V3.75z"/><path fill-rule="evenodd" d="M8 6.75A.75.75 0 018.75 6h6.5a.75.75 0 01.75.75v10.5a.75.75 0 01-.75.75h-6.5a.75.75 0 010-1.5h5.75v-3.75H8.75a.75.75 0 010-1.5h5.75V7.5H8.75A.75.75 0 018 6.75z"/></svg>