<svg xmlns="http://www.w3.org/2000/svg" width="24" height="24"><path fill-rule="evenodd" d="M7.016 11.25h9.968c-.102-2.42-.695-4.567-1.572-6.13C14.432 3.371 13.195 2.5 12 2.5c-1.195 0-2.432.872-3.412 2.62-.877 1.563-1.47 3.71-1.572 6.13zm9.968 1.5H7.016c.102 2.42.695 4.567 1.572 6.13.98 1.748 2.217 2.62 3.412 2.62 1.195 0 2.432-.872 3.412-2.62.877-1.563 1.47-3.71 1.572-6.13zM7.28 4.385C8.381 2.423 10.02 1 12 1c1.98 0 3.619 1.423 4.72 3.385C17.834 6.372 18.5 9.065 18.5 12c0 2.934-.666 5.628-1.78 7.615C15.619 21.577 13.98 23 12 23c-1.98 0-3.619-1.423-4.72-3.385C6.166 17.628 5.5 14.935 5.5 12c0-2.935.666-5.628 1.78-7.615z"/></svg>