<svg width="24" height="24" viewBox="0 0 24 24" fill="none" xmlns="http://www.w3.org/2000/svg">
<path fill-rule="evenodd" clip-rule="evenodd" d="M17.795 4.15379C18.0217 3.98076 18.327 3.95131 18.5826 4.07779C18.8382 4.20427 19 4.4648 19 4.75001V19.25C19 19.5352 18.8382 19.7957 18.5826 19.9222C18.327 20.0487 18.0217 20.0192 17.795 19.8462L8.295 12.5962C8.10909 12.4543 8 12.2339 8 12C8 11.7661 8.10909 11.5457 8.295 11.4038L17.795 4.15379ZM9.98625 12L17.5 17.7342V6.26583L9.98625 12Z" fill="black"/>
<path d="M5 4.75001C5 4.33579 5.33579 4 5.75 4C6.16421 4 6.5 4.33579 6.5 4.75001V19.25C6.5 19.6642 6.16421 20 5.75 20C5.33579 20 5 19.6642 5 19.25V4.75001Z" fill="black"/>
</svg>
