<svg width="24" height="24" viewBox="0 0 24 24" fill="none" xmlns="http://www.w3.org/2000/svg">
<path fill-rule="evenodd" clip-rule="evenodd" d="M13.795 4.15379C14.0217 3.98076 14.327 3.95131 14.5826 4.07779C14.8382 4.20427 15 4.4648 15 4.75001V19.25C15 19.5352 14.8382 19.7957 14.5826 19.9222C14.327 20.0487 14.0217 20.0192 13.795 19.8462L4.295 12.5962C4.10909 12.4543 4 12.2339 4 12C4 11.7661 4.10909 11.5457 4.295 11.4038L13.795 4.15379ZM5.98625 12L13.5 17.7342V6.26583L5.98625 12Z" fill="black"/>
<path d="M17.5 4.75001C17.5 4.33579 17.8358 4 18.25 4C18.6642 4 19 4.33579 19 4.75001V19.25C19 19.6642 18.6642 20 18.25 20C17.8358 20 17.5 19.6642 17.5 19.25V4.75001Z" fill="black"/>
</svg>
