<svg width="24" height="24" viewBox="0 0 24 24" fill="none" xmlns="http://www.w3.org/2000/svg">
<path fill-rule="evenodd" clip-rule="evenodd" d="M3.75 3.5C3.05964 3.5 2.5 4.05964 2.5 4.75V7.5H6.47468L7.92922 3.5H3.75ZM9.52532 3.5L8.07078 7.5H13.9747L15.4292 3.5H9.52532ZM17.0253 3.5L15.5708 7.5H21.5V4.75C21.5 4.05964 20.9404 3.5 20.25 3.5H17.0253ZM21.5 9H2.5V19.25C2.5 19.9404 3.05964 20.5 3.75 20.5H20.25C20.9404 20.5 21.5 19.9404 21.5 19.25V9ZM1 4.75C1 3.23122 2.23122 2 3.75 2H20.25C21.7688 2 23 3.23122 23 4.75V19.25C23 20.7688 21.7688 22 20.25 22H3.75C2.23122 22 1 20.7688 1 19.25V4.75Z" fill="black"/>
</svg>
