<svg xmlns="http://www.w3.org/2000/svg" width="24" height="24"><path fill-rule="evenodd" d="M4.92 1h14.16c.535 0 .98 0 1.345.03.38.03.736.098 1.073.27A2.75 2.75 0 0122.7 2.502c.172.337.24.693.27 1.073.03.365.03.81.03 1.345v14.16c0 .535 0 .98-.03 1.345-.03.38-.098.736-.27 1.073a2.751 2.751 0 01-1.2 1.202c-.338.172-.694.24-1.074.27-.365.03-.81.03-1.345.03H4.92c-.535 0-.98 0-1.345-.03-.38-.03-.736-.098-1.073-.27A2.75 2.75 0 011.3 21.5c-.172-.338-.24-.694-.27-1.074C1 20.06 1 19.615 1 19.08V4.92c0-.535 0-.98.03-1.345.03-.38.098-.736.27-1.073A2.75 2.75 0 012.502 1.3c.337-.172.693-.24 1.073-.27C3.94 1 4.385 1 4.92 1zM7.5 21.5h3.75V18H7.5v3.5zM6 18v3.5H4.95c-.572 0-.957 0-1.253-.025-.287-.023-.424-.065-.514-.111a1.25 1.25 0 01-.547-.547c-.046-.09-.088-.227-.111-.515-.024-.295-.025-.68-.025-1.252V18H6zm15.5-1.5v-9h-19v9h19zM2.5 6H6V2.5H4.95c-.572 0-.957 0-1.253.025-.287.023-.424.065-.514.111a1.25 1.25 0 00-.547.547c-.046.09-.088.227-.111.514-.024.296-.025.68-.025 1.253V6zm5-3.5V6h3.75V2.5H7.5zm5.25 0V6h3.75V2.5h-3.75zm5.25 0V6h3.5V4.95c0-.572 0-.957-.025-1.253-.023-.287-.065-.424-.111-.514a1.25 1.25 0 00-.547-.547c-.09-.046-.227-.088-.515-.111-.295-.024-.68-.025-1.252-.025H18zM21.5 18H18v3.5h1.05c.572 0 .957 0 1.252-.025.288-.023.425-.065.515-.111a1.25 1.25 0 00.547-.547c.046-.09.088-.227.111-.515.024-.295.025-.68.025-1.252V18zm-5 3.5V18h-3.75v3.5h3.75z"/></svg>