<svg xmlns="http://www.w3.org/2000/svg" width="24" height="24"><path fill-rule="evenodd" d="M20.183 15.417a.75.75 0 011.061 0l2.475 2.475a.75.75 0 010 1.06l-4.42 4.42a.75.75 0 01-.437.214l-2.828.353a.75.75 0 01-.837-.837l.353-2.828a.75.75 0 01.214-.438l4.42-4.419zm.53 1.591l-3.707 3.707-.201 1.616 1.616-.202 3.707-3.707-1.414-1.414zM12 2.5a9.5 9.5 0 100 19 .75.75 0 010 1.5C5.925 23 1 18.075 1 12S5.925 1 12 1s11 4.925 11 11a.75.75 0 01-1.5 0A9.5 9.5 0 0012 2.5z"/><path fill-rule="evenodd" d="M12 13.5a1.5 1.5 0 100-3 1.5 1.5 0 000 3zm0 1.5a3 3 0 100-6 3 3 0 000 6z"/></svg>