<svg xmlns="http://www.w3.org/2000/svg" width="24" height="24"><g fill-rule="evenodd"><path d="M20.578 14.723a4.077 4.077 0 00-2.657 0l-2.646.912-.013.004c-.061.02-.254.082-.409.213a1 1 0 00-.285.4c-.073.189-.07.392-.068.456v2.196c0 1.534.968 2.505 1.884 3.33.935.842 1.96 1.4 2.362 1.604l.009.005c.04.02.16.084.308.112.121.023.253.023.374 0 .147-.028.267-.091.308-.112l.009-.005a11.444 11.444 0 002.362-1.604c.916-.825 1.884-1.796 1.884-3.33v-2.197c.001-.063.005-.266-.068-.455a1 1 0 00-.285-.4c-.155-.131-.348-.193-.409-.213l-.013-.004-2.647-.912zM18.41 16.14a2.577 2.577 0 011.678 0l2.412.831v1.933c0 .887-.574 1.482-1.387 2.215a9.863 9.863 0 01-1.863 1.29 9.86 9.86 0 01-1.863-1.29C16.573 20.386 16 19.79 16 18.904V16.97l2.41-.83z"/><path d="M12 2.5a9.5 9.5 0 100 19 .75.75 0 010 1.5C5.925 23 1 18.075 1 12S5.925 1 12 1s11 4.925 11 11a.75.75 0 01-1.5 0A9.5 9.5 0 0012 2.5z"/><path d="M12 13.5a1.5 1.5 0 100-3 1.5 1.5 0 000 3zm0 1.5a3 3 0 100-6 3 3 0 000 6z"/></g></svg>