<svg width="24" height="24" viewBox="0 0 24 24" fill="none" xmlns="http://www.w3.org/2000/svg">
<path fill-rule="evenodd" clip-rule="evenodd" d="M15.5 18.75C15.5 16.6789 17.1789 15 19.25 15C21.3211 15 23 16.6789 23 18.75C23 19.6427 22.688 20.4626 22.1672 21.1066L23.7803 22.7197C24.0732 23.0126 24.0732 23.4874 23.7803 23.7803C23.4874 24.0732 23.0126 24.0732 22.7197 23.7803L21.0045 22.0651C20.481 22.3427 19.8838 22.5 19.25 22.5C17.1789 22.5 15.5 20.8211 15.5 18.75ZM19.25 16.5C18.0074 16.5 17 17.5074 17 18.75C17 19.9926 18.0074 21 19.25 21C20.4926 21 21.5 19.9926 21.5 18.75C21.5 17.5074 20.4926 16.5 19.25 16.5Z" fill="black"/>
<path fill-rule="evenodd" clip-rule="evenodd" d="M12 2.5C6.75329 2.5 2.5 6.75329 2.5 12C2.5 17.2467 6.75329 21.5 12 21.5C12.4142 21.5 12.75 21.8358 12.75 22.25C12.75 22.6642 12.4142 23 12 23C5.92487 23 1 18.0751 1 12C1 5.92487 5.92487 1 12 1C18.0751 1 23 5.92487 23 12C23 12.4142 22.6642 12.75 22.25 12.75C21.8358 12.75 21.5 12.4142 21.5 12C21.5 6.75329 17.2467 2.5 12 2.5Z" fill="black"/>
<path fill-rule="evenodd" clip-rule="evenodd" d="M12 13.5C12.8284 13.5 13.5 12.8284 13.5 12C13.5 11.1716 12.8284 10.5 12 10.5C11.1716 10.5 10.5 11.1716 10.5 12C10.5 12.8284 11.1716 13.5 12 13.5ZM12 15C13.6569 15 15 13.6569 15 12C15 10.3431 13.6569 9 12 9C10.3431 9 9 10.3431 9 12C9 13.6569 10.3431 15 12 15Z" fill="black"/>
</svg>
