<svg xmlns="http://www.w3.org/2000/svg" width="24" height="24"><path d="M16.22 16.22a.75.75 0 011.06 0L20 18.94l2.72-2.72a.75.75 0 111.06 1.06L21.06 20l2.72 2.72a.75.75 0 11-1.06 1.06L20 21.06l-2.72 2.72a.75.75 0 11-1.06-1.06L18.94 20l-2.72-2.72a.75.75 0 010-1.06z"/><path fill-rule="evenodd" d="M12 2.5a9.5 9.5 0 100 19 .75.75 0 010 1.5C5.925 23 1 18.075 1 12S5.925 1 12 1s11 4.925 11 11a.75.75 0 01-1.5 0A9.5 9.5 0 0012 2.5z"/><path fill-rule="evenodd" d="M12 13.5a1.5 1.5 0 100-3 1.5 1.5 0 000 3zm0 1.5a3 3 0 100-6 3 3 0 000 6z"/></svg>