<svg width="24" height="24" viewBox="0 0 24 24" fill="none" xmlns="http://www.w3.org/2000/svg">
<g clip-path="url(#clip0_410_2654)">
<path d="M23.7953 18.015C24.0797 17.7138 24.0661 17.2392 23.765 16.9547C23.4638 16.6703 22.9892 16.6839 22.7047 16.985L18.46 21.2L16.2545 19.195C15.948 18.9164 15.4737 18.939 15.1951 19.2455C14.9164 19.552 14.939 20.0263 15.2455 20.305L17.9955 22.805C18.2979 23.0798 18.7647 23.0621 19.0453 22.765L23.7953 18.015Z" fill="black"/>
<path fill-rule="evenodd" clip-rule="evenodd" d="M12 2.5C6.75329 2.5 2.5 6.75329 2.5 12C2.5 17.2467 6.75329 21.5 12 21.5C12.4142 21.5 12.75 21.8358 12.75 22.25C12.75 22.6642 12.4142 23 12 23C5.92487 23 1 18.0751 1 12C1 5.92487 5.92487 1 12 1C18.0751 1 23 5.92487 23 12C23 12.4142 22.6642 12.75 22.25 12.75C21.8358 12.75 21.5 12.4142 21.5 12C21.5 6.75329 17.2467 2.5 12 2.5Z" fill="black"/>
<path fill-rule="evenodd" clip-rule="evenodd" d="M12 13.5C12.8284 13.5 13.5 12.8284 13.5 12C13.5 11.1716 12.8284 10.5 12 10.5C11.1716 10.5 10.5 11.1716 10.5 12C10.5 12.8284 11.1716 13.5 12 13.5ZM12 15C13.6569 15 15 13.6569 15 12C15 10.3431 13.6569 9 12 9C10.3431 9 9 10.3431 9 12C9 13.6569 10.3431 15 12 15Z" fill="black"/>
</g>
<defs>
<clipPath id="clip0_410_2654">
<rect width="24" height="24" fill="white"/>
</clipPath>
</defs>
</svg>
