<svg width="24" height="24" viewBox="0 0 24 24" fill="none" xmlns="http://www.w3.org/2000/svg">
<path d="M20.5303 14.2197C20.3897 14.079 20.1989 14 20 14C19.8011 14 19.6103 14.079 19.4697 14.2197C19.329 14.3603 19.25 14.5511 19.25 14.75V19.75C19.25 19.9489 19.329 20.1397 19.4697 20.2803C19.6103 20.421 19.8011 20.5 20 20.5C20.1989 20.5 20.3897 20.421 20.5303 20.2803C20.671 20.1397 20.75 19.9489 20.75 19.75V14.75C20.75 14.5511 20.671 14.3603 20.5303 14.2197Z" fill="black"/>
<path d="M20.7071 23.7071C20.5196 23.8946 20.2652 24 20 24C19.7348 24 19.4804 23.8946 19.2929 23.7071C19.1054 23.5196 19 23.2652 19 23C19 22.7348 19.1054 22.4804 19.2929 22.2929C19.4804 22.1054 19.7348 22 20 22C20.2652 22 20.5196 22.1054 20.7071 22.2929C20.8946 22.4804 21 22.7348 21 23C21 23.2652 20.8946 23.5196 20.7071 23.7071Z" fill="black"/>
<path fill-rule="evenodd" clip-rule="evenodd" d="M12 2.5C6.75329 2.5 2.5 6.75329 2.5 12C2.5 17.2467 6.75329 21.5 12 21.5C12.4142 21.5 12.75 21.8358 12.75 22.25C12.75 22.6642 12.4142 23 12 23C5.92487 23 1 18.0751 1 12C1 5.92487 5.92487 1 12 1C18.0751 1 23 5.92487 23 12C23 12.4142 22.6642 12.75 22.25 12.75C21.8358 12.75 21.5 12.4142 21.5 12C21.5 6.75329 17.2467 2.5 12 2.5Z" fill="black"/>
<path fill-rule="evenodd" clip-rule="evenodd" d="M12 13.5C12.8284 13.5 13.5 12.8284 13.5 12C13.5 11.1716 12.8284 10.5 12 10.5C11.1716 10.5 10.5 11.1716 10.5 12C10.5 12.8284 11.1716 13.5 12 13.5ZM12 15C13.6569 15 15 13.6569 15 12C15 10.3431 13.6569 9 12 9C10.3431 9 9 10.3431 9 12C9 13.6569 10.3431 15 12 15Z" fill="black"/>
</svg>
