<svg xmlns="http://www.w3.org/2000/svg" width="24" height="24"><path d="M20.194 15.752a1.557 1.557 0 00-1.035.186 1.51 1.51 0 00-.669.796.77.77 0 01-.977.46.748.748 0 01-.47-.959 3.02 3.02 0 011.339-1.593 3.117 3.117 0 012.071-.371 3.08 3.08 0 011.827 1.026 2.97 2.97 0 01.72 1.94c0 1.15-.87 1.909-1.49 2.314-.2.13-.396.24-.574.33a.636.636 0 00-.163.096.24.24 0 00-.058.093c-.013.04-.013.086-.013.178a.76.76 0 01-.767.752.76.76 0 01-.767-.752v-.759c0-.323.21-.61.523-.712 0 0 .198-.075.292-.116.189-.082.435-.203.676-.36.528-.346.808-.713.808-1.065 0-.355-.127-.7-.36-.97a1.538 1.538 0 00-.913-.514zM20 22a1 1 0 110 2 1 1 0 010-2z"/><path fill-rule="evenodd" d="M12 2.5a9.5 9.5 0 100 19 .75.75 0 010 1.5C5.925 23 1 18.075 1 12S5.925 1 12 1s11 4.925 11 11a.75.75 0 01-1.5 0A9.5 9.5 0 0012 2.5z"/><path fill-rule="evenodd" d="M12 13.5a1.5 1.5 0 100-3 1.5 1.5 0 000 3zm0 1.5a3 3 0 100-6 3 3 0 000 6z"/></svg>