<svg xmlns="http://www.w3.org/2000/svg" width="24" height="24"><path fill-rule="evenodd" d="M19.75 15.5a.75.75 0 00-.75.75v4a.75.75 0 01-1.5 0v-4a2.25 2.25 0 014.5 0v4.125a3.625 3.625 0 01-7.25 0V18.75a.75.75 0 011.5 0v1.625a2.125 2.125 0 004.25 0V16.25a.75.75 0 00-.75-.75z"/><path fill-rule="evenodd" d="M12 2.5a9.5 9.5 0 100 19 .75.75 0 010 1.5C5.925 23 1 18.075 1 12S5.925 1 12 1s11 4.925 11 11a.75.75 0 01-1.5 0A9.5 9.5 0 0012 2.5z"/><path fill-rule="evenodd" d="M12 13.5a1.5 1.5 0 100-3 1.5 1.5 0 000 3zm0 1.5a3 3 0 100-6 3 3 0 000 6z"/></svg>