<svg xmlns="http://www.w3.org/2000/svg" width="24" height="24"><path fill-rule="evenodd" d="M15.5 18.75a3.75 3.75 0 116.667 2.357l1.613 1.613a.75.75 0 11-1.06 1.06l-1.715-1.715A3.75 3.75 0 0115.5 18.75zm3.75-2.25a2.25 2.25 0 100 4.5 2.25 2.25 0 000-4.5z"/><path fill-rule="evenodd" d="M12 2.5a9.5 9.5 0 100 19 .75.75 0 010 1.5C5.925 23 1 18.075 1 12S5.925 1 12 1s11 4.925 11 11a.75.75 0 01-1.5 0A9.5 9.5 0 0012 2.5z"/><path fill-rule="evenodd" d="M12 13.5a1.5 1.5 0 100-3 1.5 1.5 0 000 3zm0 1.5a3 3 0 100-6 3 3 0 000 6z"/></svg>