<svg width="24" height="24" viewBox="0 0 24 24" fill="none" xmlns="http://www.w3.org/2000/svg">
<path fill-rule="evenodd" clip-rule="evenodd" d="M6.205 4.15379C5.97828 3.98076 5.67303 3.95131 5.4174 4.07779C5.16177 4.20427 5 4.4648 5 4.75001V19.25C5 19.5352 5.16177 19.7957 5.4174 19.9222C5.67303 20.0487 5.97828 20.0192 6.205 19.8462L15.705 12.5962C15.8909 12.4543 16 12.2339 16 12C16 11.7661 15.8909 11.5457 15.705 11.4038L6.205 4.15379ZM14.0138 12L6.5 17.7342V6.26583L14.0138 12Z" fill="black"/>
<path d="M19 4.75001C19 4.33579 18.6642 4 18.25 4C17.8358 4 17.5 4.33579 17.5 4.75001V19.25C17.5 19.6642 17.8358 20 18.25 20C18.6642 20 19 19.6642 19 19.25V4.75001Z" fill="black"/>
</svg>
