<svg width="24" height="24" viewBox="0 0 24 24" fill="none" xmlns="http://www.w3.org/2000/svg">
<path fill-rule="evenodd" clip-rule="evenodd" d="M10.205 4.15379C9.97828 3.98076 9.67303 3.95131 9.4174 4.07779C9.16177 4.20427 9 4.4648 9 4.75001V19.25C9 19.5352 9.16177 19.7957 9.4174 19.9222C9.67303 20.0487 9.97828 20.0192 10.205 19.8462L19.705 12.5962C19.8909 12.4543 20 12.2339 20 12C20 11.7661 19.8909 11.5457 19.705 11.4038L10.205 4.15379ZM18.0138 12L10.5 17.7342V6.26583L18.0138 12Z" fill="black"/>
<path d="M6.5 4.75001C6.5 4.33579 6.16421 4 5.75 4C5.33579 4 5 4.33579 5 4.75001V19.25C5 19.6642 5.33579 20 5.75 20C6.16421 20 6.5 19.6642 6.5 19.25V4.75001Z" fill="black"/>
</svg>
