<svg width="24" height="24" viewBox="0 0 24 24" fill="none" xmlns="http://www.w3.org/2000/svg">
<path d="M13.589 0.580996C13.3369 0.453244 13.0344 0.478064 12.8065 0.6452L9.05648 3.3952C8.86382 3.53648 8.75 3.7611 8.75 4C8.75 4.23891 8.86382 4.46353 9.05648 4.60481L12.8065 7.35481C13.0344 7.52194 13.3369 7.54676 13.589 7.41901C13.8411 7.29126 14 7.03263 14 6.75V4.73663C17.7294 5.63603 20.5 8.99446 20.5 13C20.5 17.6944 16.6944 21.5 12 21.5C7.30558 21.5 3.5 17.6944 3.5 13C3.5 10.6526 4.45057 8.52861 5.98959 6.98959C6.28249 6.6967 6.28249 6.22183 5.98959 5.92893C5.6967 5.63604 5.22182 5.63604 4.92893 5.92893C3.12011 7.73776 2 10.2388 2 13C2 18.5228 6.47715 23 12 23C17.5228 23 22 18.5228 22 13C22 8.16208 18.5645 4.12658 14 3.20004V1.25C14 0.967376 13.8411 0.708748 13.589 0.580996Z" fill="black"/>
</svg>
