<svg width="24" height="24" viewBox="0 0 24 24" fill="none" xmlns="http://www.w3.org/2000/svg">
<path d="M12.8065 0.6452C13.0344 0.478064 13.3369 0.453244 13.589 0.580996C13.8411 0.708748 14 0.967376 14 1.25V3.20004C18.5645 4.12658 22 8.16208 22 13C22 18.5228 17.5228 23 12 23C6.47715 23 2 18.5228 2 13C2 10.2388 3.12011 7.73776 4.92893 5.92893C5.22182 5.63604 5.6967 5.63604 5.98959 5.92893C6.28249 6.22183 6.28249 6.6967 5.98959 6.98959C4.45057 8.52861 3.5 10.6526 3.5 13C3.5 17.6944 7.30558 21.5 12 21.5C16.6944 21.5 20.5 17.6944 20.5 13C20.5 8.99446 17.7294 5.63603 14 4.73663V6.75C14 7.03263 13.8411 7.29126 13.589 7.41901C13.3369 7.54676 13.0344 7.52194 12.8065 7.35481L9.05648 4.60481C8.86382 4.46353 8.75 4.23891 8.75 4C8.75 3.7611 8.86382 3.53648 9.05648 3.3952L12.8065 0.6452Z" fill="black"/>
<path d="M15.75 13.75C16.1642 13.75 16.5 13.4142 16.5 13C16.5 12.5858 16.1642 12.25 15.75 12.25H8.25C7.83579 12.25 7.5 12.5858 7.5 13C7.5 13.4142 7.83579 13.75 8.25 13.75H15.75Z" fill="black"/>
</svg>
