<svg xmlns="http://www.w3.org/2000/svg" width="24" height="24"><path d="M13.589.581a.75.75 0 00-.783.064l-3.75 2.75a.75.75 0 000 1.21l3.75 2.75A.75.75 0 0014 6.75V4.737A8.5 8.5 0 115.99 6.99a.75.75 0 10-1.061-1.061A9.971 9.971 0 002 13c0 5.523 4.477 10 10 10s10-4.477 10-10c0-4.838-3.436-8.873-8-9.8V1.25a.75.75 0 00-.411-.669z"/><path fill-rule="evenodd" d="M9.38 9.104a.75.75 0 01.37.646v7.5a.75.75 0 01-1.5 0v-6.225l-1.136.63a.75.75 0 11-.728-1.31l2.25-1.25a.75.75 0 01.744.009zm6.056 6.746c.329-.494.564-1.3.564-2.35s-.235-1.856-.564-2.35c-.29-.435-.653-.65-1.186-.65-.532 0-.895.215-1.186.65-.329.494-.564 1.3-.564 2.35s.235 1.856.564 2.35c.29.435.654.65 1.186.65.533 0 .896-.215 1.186-.65zM14.25 18c2.157 0 3.25-2.015 3.25-4.5S16.407 9 14.25 9 11 11.015 11 13.5s1.093 4.5 3.25 4.5z"/></svg>