<svg xmlns="http://www.w3.org/2000/svg" width="24" height="24"><path d="M11.194.645A.75.75 0 0010 1.25V3.2c-4.564.927-8 4.962-8 9.8 0 5.523 4.477 10 10 10s10-4.477 10-10a9.971 9.971 0 00-2.929-7.071.75.75 0 00-1.06 1.06A8.5 8.5 0 1110 4.737V6.75a.75.75 0 001.193.605l3.75-2.75a.75.75 0 000-1.21l-3.75-2.75z"/><path d="M9.75 9.75a.75.75 0 00-1.114-.656l-2.25 1.25a.75.75 0 10.728 1.312l1.136-.631v6.225a.75.75 0 001.5 0v-7.5z"/><path fill-rule="evenodd" d="M17.5 13.5c0 2.485-1.093 4.5-3.25 4.5S11 15.985 11 13.5 12.093 9 14.25 9s3.25 2.015 3.25 4.5zm-1.5 0c0 1.05-.235 1.856-.564 2.35-.29.435-.653.65-1.186.65-.532 0-.895-.215-1.186-.65-.329-.494-.564-1.3-.564-2.35s.235-1.856.564-2.35c.29-.435.654-.65 1.186-.65.533 0 .896.215 1.186.65.329.494.564 1.3.564 2.35z"/></svg>