<svg xmlns="http://www.w3.org/2000/svg" width="24" height="24"><path d="M10.411.581a.75.75 0 01.783.064l3.75 2.75a.75.75 0 010 1.21l-3.75 2.75A.75.75 0 0110 6.75V4.737a8.5 8.5 0 108.01 2.253.75.75 0 111.061-1.061A9.971 9.971 0 0122 13c0 5.523-4.477 10-10 10S2 18.523 2 13c0-4.838 3.436-8.873 8-9.8V1.25a.75.75 0 01.411-.669z"/><path fill-rule="evenodd" d="M11.589 9.75a.75.75 0 01.75-.75h4.177a.75.75 0 010 1.5H13.09v1.665c.354-.11.746-.165 1.177-.165.764 0 1.562.231 2.185.73.641.513 1.065 1.288 1.065 2.27 0 1.955-1.642 3.25-3.25 3.25-1.512 0-2.49-1.017-2.938-1.916a.75.75 0 011.344-.668c.289.583.84 1.084 1.594 1.084.878 0 1.75-.72 1.75-1.75 0-.511-.205-.86-.503-1.1-.316-.252-.768-.4-1.247-.4-.492 0-.818.1-1.044.233a1.11 1.11 0 01-1.016.045c-.288-.13-.617-.444-.617-.932V9.75z"/><path d="M9.75 9.75a.75.75 0 00-1.114-.656l-2.25 1.25a.75.75 0 10.728 1.312l1.136-.631v6.225a.75.75 0 001.5 0v-7.5z"/></svg>