<svg width="24" height="24" viewBox="0 0 24 24" fill="none" xmlns="http://www.w3.org/2000/svg">
<path fill-rule="evenodd" clip-rule="evenodd" d="M21.2388 2.18118C21.4046 2.32366 21.5 2.53139 21.5 2.75001V16C21.5 18.0711 19.8211 19.75 17.75 19.75C15.6789 19.75 14 18.0711 14 16C14 13.9289 15.6789 12.25 17.75 12.25C18.5942 12.25 19.3733 12.529 20 12.9997V3.62277L10 5.14451V18.25C10 20.3211 8.32107 22 6.25 22C4.17893 22 2.5 20.3211 2.5 18.25C2.5 16.1789 4.17893 14.5 6.25 14.5C7.0942 14.5 7.87325 14.779 8.5 15.2497V4.50001C8.5 4.12936 8.77074 3.8143 9.13717 3.75854L20.6372 2.00854C20.8533 1.97565 21.073 2.0387 21.2388 2.18118ZM8.5 18.25C8.5 17.0074 7.49264 16 6.25 16C5.00736 16 4 17.0074 4 18.25C4 19.4926 5.00736 20.5 6.25 20.5C7.49264 20.5 8.5 19.4926 8.5 18.25ZM20 16C20 14.7574 18.9926 13.75 17.75 13.75C16.5074 13.75 15.5 14.7574 15.5 16C15.5 17.2426 16.5074 18.25 17.75 18.25C18.9926 18.25 20 17.2426 20 16Z" fill="black"/>
</svg>
