<svg width="24" height="24" viewBox="0 0 24 24" fill="none" xmlns="http://www.w3.org/2000/svg">
<path fill-rule="evenodd" clip-rule="evenodd" d="M2 3.75C2 2.7835 2.7835 2 3.75 2H20.25C21.2165 2 22 2.7835 22 3.75V20.25C22 21.2165 21.2165 22 20.25 22H3.75C2.7835 22 2 21.2165 2 20.25V3.75ZM10.5 7.75C10.5 7.33579 10.1642 7 9.75 7C9.33579 7 9 7.33579 9 7.75V16.25C9 16.6642 9.33579 17 9.75 17C10.1642 17 10.5 16.6642 10.5 16.25V7.75ZM14.25 7C14.6642 7 15 7.33579 15 7.75V16.25C15 16.6642 14.6642 17 14.25 17C13.8358 17 13.5 16.6642 13.5 16.25V7.75C13.5 7.33579 13.8358 7 14.25 7Z" fill="black"/>
</svg>
