<svg width="24" height="24" viewBox="0 0 24 24" fill="none" xmlns="http://www.w3.org/2000/svg">
<path d="M10.5 7.75C10.5 7.33579 10.1642 7 9.75 7C9.33579 7 9 7.33579 9 7.75V16.25C9 16.6642 9.33579 17 9.75 17C10.1642 17 10.5 16.6642 10.5 16.25V7.75Z" fill="black"/>
<path d="M15 7.75C15 7.33579 14.6642 7 14.25 7C13.8358 7 13.5 7.33579 13.5 7.75V16.25C13.5 16.6642 13.8358 17 14.25 17C14.6642 17 15 16.6642 15 16.25V7.75Z" fill="black"/>
<path fill-rule="evenodd" clip-rule="evenodd" d="M1 12C1 5.925 5.925 1 12 1C18.075 1 23 5.925 23 12C23 18.075 18.075 23 12 23C5.925 23 1 18.075 1 12ZM5.28249 5.28249C3.50089 7.06408 2.5 9.48044 2.5 12C2.5 14.5196 3.50089 16.9359 5.28249 18.7175C7.06408 20.4991 9.48044 21.5 12 21.5C14.5196 21.5 16.9359 20.4991 18.7175 18.7175C20.4991 16.9359 21.5 14.5196 21.5 12C21.5 9.48044 20.4991 7.06408 18.7175 5.28249C16.9359 3.50089 14.5196 2.5 12 2.5C9.48044 2.5 7.06408 3.50089 5.28249 5.28249Z" fill="black"/>
</svg>
