<svg xmlns="http://www.w3.org/2000/svg" width="24" height="24"><path fill-rule="evenodd" d="M15.5 6.18v3.448A2.25 2.25 0 1017 11.75V5.56a1 1 0 00-1.212-.977l-5.75 1.141a1 1 0 00-.788.978v3.926a2.25 2.25 0 101.5 2.122V7.104l4.75-.923zm-.22 5.04a.747.747 0 010 1.06.75.75 0 110-1.06zm-6.25 1a.748.748 0 010 1.06.75.75 0 110-1.06z"/><path fill-rule="evenodd" d="M3.75 1A1.75 1.75 0 002 2.75v14.5c0 .966.784 1.75 1.75 1.75h16.5A1.75 1.75 0 0022 17.25V2.75A1.75 1.75 0 0020.25 1H3.75zM3.5 2.75a.25.25 0 01.25-.25h16.5a.25.25 0 01.25.25v14.5a.25.25 0 01-.25.25H3.75a.25.25 0 01-.25-.25V2.75z"/><path d="M3.75 23A1.75 1.75 0 012 21.25v-.5a.75.75 0 011.5 0v.5c0 .138.112.25.25.25h16.5a.25.25 0 00.25-.25v-.5a.75.75 0 011.5 0v.5A1.75 1.75 0 0120.25 23H3.75z"/></svg>