<svg xmlns="http://www.w3.org/2000/svg" width="24" height="24"><path fill-rule="evenodd" d="M17.25 12.128V8.681l-4.75.923v5.646a2.25 2.25 0 11-1.5-2.122V9.202a1 1 0 01.788-.978l5.75-1.141a1 1 0 011.212.977v6.19a2.25 2.25 0 11-1.5-2.122zm0 2.122a.75.75 0 10-1.5 0 .75.75 0 001.5 0zm-6.25 1a.75.75 0 10-1.5 0 .75.75 0 001.5 0z"/><path fill-rule="evenodd" d="M2 3.75C2 2.784 2.784 2 3.75 2h16.5c.966 0 1.75.784 1.75 1.75v16.5A1.75 1.75 0 0120.25 22H3.75A1.75 1.75 0 012 20.25V3.75zM6.544 20.5H20.25a.25.25 0 00.25-.25V3.75a.25.25 0 00-.25-.25H6.544v17zm-1.5-17v17H3.75a.25.25 0 01-.25-.25V3.75a.25.25 0 01.25-.25h1.294z"/></svg>