<svg xmlns="http://www.w3.org/2000/svg" width="24" height="24"><path d="M2.75 4.5a.75.75 0 000 1.5h6a.75.75 0 000-1.5h-6z"/><path fill-rule="evenodd" d="M20.5 8.18v4.448A2.25 2.25 0 1022 14.75V7.56a1 1 0 00-1.212-.977l-5.75 1.141a1 1 0 00-.788.978v4.926a2.25 2.25 0 101.5 2.122V9.104l4.75-.923zm-.22 6.04a.747.747 0 010 1.06.75.75 0 110-1.06zm-6.25 1a.747.747 0 010 1.06.75.75 0 110-1.06z"/><path d="M2 19.25a.75.75 0 01.75-.75h6a.75.75 0 010 1.5h-6a.75.75 0 01-.75-.75zM2.75 8a.75.75 0 000 1.5h6a.75.75 0 000-1.5h-6zM2 15.75a.75.75 0 01.75-.75h6a.75.75 0 010 1.5h-6a.75.75 0 01-.75-.75zm.75-4.25a.75.75 0 000 1.5h6a.75.75 0 000-1.5h-6z"/></svg>