<svg width="24" height="24" viewBox="0 0 24 24" fill="none" xmlns="http://www.w3.org/2000/svg">
<path fill-rule="evenodd" clip-rule="evenodd" d="M1 12C1 5.925 5.925 1 12 1C18.075 1 23 5.925 23 12C23 18.075 18.075 23 12 23C5.925 23 1 18.075 1 12ZM9.5 15.5852C9.50015 15.6748 9.52442 15.7628 9.57026 15.8399C9.61611 15.917 9.68184 15.9803 9.76057 16.0233C9.83931 16.0662 9.92814 16.0872 10.0178 16.084C10.1074 16.0808 10.1945 16.0536 10.27 16.0052L15.846 12.4212C15.9166 12.3759 15.9747 12.3137 16.0149 12.2401C16.0552 12.1665 16.0763 12.084 16.0763 12.0002C16.0763 11.9163 16.0552 11.8338 16.0149 11.7602C15.9747 11.6867 15.9166 11.6244 15.846 11.5792L10.27 7.99616C10.1945 7.94773 10.1074 7.9205 10.0178 7.91731C9.92814 7.91412 9.83931 7.9351 9.76057 7.97804C9.68184 8.02099 9.61611 8.08432 9.57026 8.1614C9.52442 8.23848 9.50015 8.32648 9.5 8.41616V15.5852Z" fill="black"/>
</svg>
