<svg width="24" height="24" viewBox="0 0 24 24" fill="none" xmlns="http://www.w3.org/2000/svg">
<path fill-rule="evenodd" clip-rule="evenodd" d="M3.75 2C2.7835 2 2 2.7835 2 3.75V20.25C2 21.2165 2.7835 22 3.75 22H20.25C21.2165 22 22 21.2165 22 20.25V3.75C22 2.7835 21.2165 2 20.25 2H3.75ZM3.5 3.75C3.5 3.61193 3.61193 3.5 3.75 3.5H20.25C20.3881 3.5 20.5 3.61193 20.5 3.75V20.25C20.5 20.3881 20.3881 20.5 20.25 20.5H3.75C3.61193 20.5 3.5 20.3881 3.5 20.25V3.75Z" fill="black"/>
<path fill-rule="evenodd" clip-rule="evenodd" d="M9.39316 7.09033C9.63538 6.9593 9.92994 6.97156 10.1604 7.12227L16.6604 11.3723C16.8723 11.5108 17 11.7469 17 12C17 12.2531 16.8723 12.4892 16.6604 12.6277L10.1604 16.8777C9.92994 17.0284 9.63538 17.0407 9.39316 16.9097C9.15093 16.7786 9 16.5254 9 16.25V7.75C9 7.47461 9.15093 7.22136 9.39316 7.09033ZM10.5 9.13648V14.8635L14.8795 12L10.5 9.13648Z" fill="black"/>
</svg>
