<svg xmlns="http://www.w3.org/2000/svg" width="24" height="24"><path d="M12 1C6.496 1 2 5.349 2 10.755c0 2.72 1.145 5.173 2.98 6.936a.75.75 0 001.04-1.082c-1.56-1.497-2.52-3.566-2.52-5.854C3.5 6.215 7.287 2.5 12 2.5s8.5 3.715 8.5 8.255c0 2.288-.961 4.357-2.52 5.854a.75.75 0 001.04 1.082c1.835-1.763 2.98-4.216 2.98-6.936C22 5.349 17.504 1 12 1z"/><path d="M7 10.686C7 8.137 9.199 6 12 6s5 2.137 5 4.686a4.44 4.44 0 01-.863 2.623.75.75 0 101.214.882 5.939 5.939 0 001.149-3.505C18.5 7.23 15.55 4.5 12 4.5s-6.5 2.73-6.5 6.186a5.94 5.94 0 001.15 3.505.75.75 0 001.213-.882A4.44 4.44 0 017 10.686z"/><path d="M12 13a2 2 0 100-4 2 2 0 000 4z"/><path fill-rule="evenodd" d="M12 14.5A2.5 2.5 0 009.5 17v3.5a2.5 2.5 0 005 0V17a2.5 2.5 0 00-2.5-2.5zM11 17a1 1 0 112 0v3.5a1 1 0 11-2 0V17z"/></svg>