<svg width="24" height="24" viewBox="0 0 24 24" fill="none" xmlns="http://www.w3.org/2000/svg">
<path fill-rule="evenodd" clip-rule="evenodd" d="M12 2C12.4142 2 12.75 2.33579 12.75 2.75V21.25C12.75 21.6642 12.4142 22 12 22C11.5858 22 11.25 21.6642 11.25 21.25V2.75C11.25 2.33579 11.5858 2 12 2ZM7.5 5C7.91421 5 8.25 5.33579 8.25 5.75L8.25 18.25C8.25 18.6642 7.91421 19 7.5 19C7.08579 19 6.75 18.6642 6.75 18.25L6.75 5.75C6.75 5.33579 7.08579 5 7.5 5ZM16.5 5C16.9142 5 17.25 5.33579 17.25 5.75V18.25C17.25 18.6642 16.9142 19 16.5 19C16.0858 19 15.75 18.6642 15.75 18.25V5.75C15.75 5.33579 16.0858 5 16.5 5ZM2.75 9C3.16421 9 3.5 9.33579 3.5 9.75L3.5 14.25C3.5 14.6642 3.16421 15 2.75 15C2.33579 15 2 14.6642 2 14.25L2 9.75C2 9.33579 2.33579 9 2.75 9ZM21.25 9C21.6642 9 22 9.33579 22 9.75V14.25C22 14.6642 21.6642 15 21.25 15C20.8358 15 20.5 14.6642 20.5 14.25V9.75C20.5 9.33579 20.8358 9 21.25 9Z" fill="black"/>
</svg>
