<svg width="24" height="24" viewBox="0 0 24 24" fill="none" xmlns="http://www.w3.org/2000/svg">
<path d="M12.75 5.75C12.75 5.33579 12.4142 5 12 5C11.5858 5 11.25 5.33579 11.25 5.75V18.25C11.25 18.6642 11.5858 19 12 19C12.4142 19 12.75 18.6642 12.75 18.25V5.75Z" fill="black"/>
<path d="M9.5 8.75C9.5 8.33579 9.16421 8 8.75 8C8.33579 8 8 8.33579 8 8.75L8 15.25C8 15.6642 8.33579 16 8.75 16C9.16421 16 9.5 15.6642 9.5 15.25V8.75Z" fill="black"/>
<path d="M16 8.75C16 8.33579 15.6642 8 15.25 8C14.8358 8 14.5 8.33579 14.5 8.75V15.25C14.5 15.6642 14.8358 16 15.25 16C15.6642 16 16 15.6642 16 15.25V8.75Z" fill="black"/>
<path d="M6.25 10.75C6.25 10.3358 5.91421 10 5.5 10C5.08579 10 4.75 10.3358 4.75 10.75V13.25C4.75 13.6642 5.08579 14 5.5 14C5.91421 14 6.25 13.6642 6.25 13.25V10.75Z" fill="black"/>
<path d="M19.25 10.75C19.25 10.3358 18.9142 10 18.5 10C18.0858 10 17.75 10.3358 17.75 10.75V13.25C17.75 13.6642 18.0858 14 18.5 14C18.9142 14 19.25 13.6642 19.25 13.25V10.75Z" fill="black"/>
<path fill-rule="evenodd" clip-rule="evenodd" d="M1 12C1 5.925 5.925 1 12 1C18.075 1 23 5.925 23 12C23 18.075 18.075 23 12 23C5.925 23 1 18.075 1 12ZM5.28249 5.28249C3.50089 7.06408 2.5 9.48044 2.5 12C2.5 14.5196 3.50089 16.9359 5.28249 18.7175C7.06408 20.4991 9.48044 21.5 12 21.5C14.5196 21.5 16.9359 20.4991 18.7175 18.7175C20.4991 16.9359 21.5 14.5196 21.5 12C21.5 9.48044 20.4991 7.06408 18.7175 5.28249C16.9359 3.50089 14.5196 2.5 12 2.5C9.48044 2.5 7.06408 3.50089 5.28249 5.28249Z" fill="black"/>
</svg>
