<svg xmlns="http://www.w3.org/2000/svg" width="24" height="24"><path fill-rule="evenodd" d="M3.75 2A1.75 1.75 0 002 3.75v16.5c0 .966.784 1.75 1.75 1.75h16.5A1.75 1.75 0 0022 20.25V3.75A1.75 1.75 0 0020.25 2H3.75zM3.5 3.75a.25.25 0 01.25-.25h16.5a.25.25 0 01.25.25v16.5a.25.25 0 01-.25.25H3.75a.25.25 0 01-.25-.25V3.75z"/><path fill-rule="evenodd" d="M12 5a.75.75 0 01.75.75v12.5a.75.75 0 01-1.5 0V5.75A.75.75 0 0112 5zM9 8a.75.75 0 01.75.75v6.5a.75.75 0 01-1.5 0v-6.5A.75.75 0 019 8zm6 0a.75.75 0 01.75.75v6.5a.75.75 0 01-1.5 0v-6.5A.75.75 0 0115 8zm-9 2a.75.75 0 01.75.75v2.5a.75.75 0 01-1.5 0v-2.5A.75.75 0 016 10zm12 0a.75.75 0 01.75.75v2.5a.75.75 0 01-1.5 0v-2.5A.75.75 0 0118 10z"/></svg>