<svg xmlns="http://www.w3.org/2000/svg" width="24" height="24"><path d="M12.75 5.75a.75.75 0 00-1.5 0v12.5a.75.75 0 001.5 0V5.75zm-3.25 3a.75.75 0 00-1.5 0v6.5a.75.75 0 001.5 0v-6.5zm6.5 0a.75.75 0 00-1.5 0v6.5a.75.75 0 001.5 0v-6.5zm-9.75 2a.75.75 0 00-1.5 0v2.5a.75.75 0 001.5 0v-2.5zm13 0a.75.75 0 00-1.5 0v2.5a.75.75 0 001.5 0v-2.5z"/><path fill-rule="evenodd" d="M1 12C1 5.925 5.925 1 12 1s11 4.925 11 11-4.925 11-11 11S1 18.075 1 12zm4.282-6.718a9.5 9.5 0 1013.435 13.435A9.5 9.5 0 005.282 5.282z"/></svg>