<svg xmlns="http://www.w3.org/2000/svg" width="24" height="24"><path fill-rule="evenodd" d="M3.75 2A1.75 1.75 0 002 3.75v16.5c0 .966.784 1.75 1.75 1.75h16.5A1.75 1.75 0 0022 20.25V3.75A1.75 1.75 0 0020.25 2H3.75zM12 5a.75.75 0 01.75.75v12.5a.75.75 0 01-1.5 0V5.75A.75.75 0 0112 5zM9.5 8.75a.75.75 0 00-1.5 0v6.5a.75.75 0 001.5 0v-6.5zM5.5 10a.75.75 0 01.75.75v2.5a.75.75 0 01-1.5 0v-2.5A.75.75 0 015.5 10zM16 8.75a.75.75 0 00-1.5 0v6.5a.75.75 0 001.5 0v-6.5zM18.5 10a.75.75 0 01.75.75v2.5a.75.75 0 01-1.5 0v-2.5a.75.75 0 01.75-.75z"/></svg>