<svg xmlns="http://www.w3.org/2000/svg" width="24" height="24"><path d="M2.75 12a.75.75 0 01-.75-.75V9.857c0-1.482-.001-2.255.409-3.06A3.75 3.75 0 014.048 5.16c.444-.227.924-.321 1.47-.366.531-.043 1.187-.043 2-.043H9.75v-2a.75.75 0 011.194-.605l3.75 2.75a.75.75 0 010 1.21l-3.75 2.75A.75.75 0 019.75 8.25v-2h-2.2c-.852 0-1.447 0-1.91.038-.453.037-.714.107-.911.207a2.25 2.25 0 00-.984.984c-.226.444-.245.82-.245 2.571v1.2a.75.75 0 01-.75.75zm18.5 0a.75.75 0 01.75.75v1.393c0 1.482.001 2.255-.409 3.06a3.75 3.75 0 01-1.639 1.638c-.444.227-.924.321-1.47.366-.531.043-1.187.043-2 .043H8.25v2a.75.75 0 01-1.194.605l-3.75-2.75a.75.75 0 010-1.21l3.75-2.75a.75.75 0 011.194.605v2h8.2c.852 0 1.447 0 1.91-.038.453-.038.714-.107.912-.207.423-.216.767-.56.983-.983.226-.445.245-.82.245-2.572v-1.2a.75.75 0 01.75-.75zm.37-9.903a.75.75 0 01.38.653v5.5a.75.75 0 01-1.5 0V4.075l-1.364.818a.75.75 0 01-.772-1.286l2.5-1.5a.75.75 0 01.755-.01z"/></svg>