<svg xmlns="http://www.w3.org/2000/svg" width="24" height="24"><path d="M16.944 2.145a.75.75 0 00-1.194.605v2H7.518c-.813 0-1.469 0-2 .043-.546.045-1.026.14-1.47.366a3.75 3.75 0 00-1.64 1.639C1.999 7.602 2 8.375 2 9.857v1.393a.75.75 0 001.5 0v-1.2c0-1.751.019-2.127.245-2.571a2.25 2.25 0 01.984-.984c.197-.1.458-.17.912-.207.462-.037 1.057-.038 1.909-.038h8.2v2a.75.75 0 001.194.605l3.75-2.75a.75.75 0 000-1.21l-3.75-2.75zM22 12.75a.75.75 0 00-1.5 0v1.2c0 1.751-.019 2.127-.245 2.572-.216.423-.56.767-.983.983-.198.1-.459.17-.913.207-.462.037-1.057.038-1.909.038h-8.2v-2a.75.75 0 00-1.194-.605l-3.75 2.75a.75.75 0 000 1.21l3.75 2.75a.75.75 0 001.194-.605v-2h8.232c.813 0 1.469 0 2-.043.546-.045 1.026-.14 1.47-.366a3.75 3.75 0 001.64-1.639c.41-.804.409-1.577.408-3.059V12.75z"/></svg>