<svg width="24" height="24" viewBox="0 0 24 24" fill="none" xmlns="http://www.w3.org/2000/svg">
<path fill-rule="evenodd" clip-rule="evenodd" d="M3.5 3.25C3.5 3.05109 3.57902 2.86032 3.71967 2.71967C3.86032 2.57902 4.05109 2.5 4.25 2.5C14.053 2.5 22 10.447 22 20.25C22 20.4489 21.921 20.6397 21.7803 20.7803C21.6397 20.921 21.4489 21 21.25 21C21.0511 21 20.8603 20.921 20.7197 20.7803C20.579 20.6397 20.5 20.4489 20.5 20.25C20.5 11.275 13.225 4 4.25 4C4.05109 4 3.86032 3.92098 3.71967 3.78033C3.57902 3.63968 3.5 3.44891 3.5 3.25ZM3.5 19C3.5 18.4696 3.71071 17.9609 4.08579 17.5858C4.46086 17.2107 4.96957 17 5.5 17C6.03043 17 6.53914 17.2107 6.91421 17.5858C7.28929 17.9609 7.5 18.4696 7.5 19C7.5 19.5304 7.28929 20.0391 6.91421 20.4142C6.53914 20.7893 6.03043 21 5.5 21C4.96957 21 4.46086 20.7893 4.08579 20.4142C3.71071 20.0391 3.5 19.5304 3.5 19ZM4.25 9.5C4.05109 9.5 3.86032 9.57902 3.71967 9.71967C3.57902 9.86032 3.5 10.0511 3.5 10.25C3.5 10.4489 3.57902 10.6397 3.71967 10.7803C3.86032 10.921 4.05109 11 4.25 11C5.46473 11 6.66756 11.2393 7.78982 11.7041C8.91208 12.169 9.9318 12.8503 10.7907 13.7093C11.6497 14.5682 12.331 15.5879 12.7959 16.7102C13.2607 17.8324 13.5 19.0353 13.5 20.25C13.5 20.4489 13.579 20.6397 13.7197 20.7803C13.8603 20.921 14.0511 21 14.25 21C14.4489 21 14.6397 20.921 14.7803 20.7803C14.921 20.6397 15 20.4489 15 20.25C15 14.313 10.187 9.5 4.25 9.5Z" fill="black"/>
</svg>
