<svg xmlns="http://www.w3.org/2000/svg" width="24" height="24"><path d="M17.944 3.395A.75.75 0 0016.75 4v2h-1.304c-.908 0-1.535 0-2.11.189a3.75 3.75 0 00-1.362.8c-.445.409-.75.957-1.193 1.75l-1.1 1.972-.962-1.722c-.442-.793-.748-1.341-1.193-1.75a3.75 3.75 0 00-1.363-.8c-.574-.19-1.201-.19-2.11-.189H2.75a.75.75 0 000 1.5h1.182c1.077 0 1.445.009 1.761.113.304.1.583.264.818.48.245.225.432.543.957 1.483l1.353 2.424-1.353 2.424c-.525.94-.712 1.258-.957 1.483a2.25 2.25 0 01-.818.48c-.316.104-.684.113-1.761.113H2.75a.75.75 0 000 1.5h1.304c.908 0 1.535 0 2.11-.189a3.75 3.75 0 001.362-.8c.445-.409.75-.957 1.193-1.75l.961-1.722 1.1 1.972c.443.793.749 1.341 1.194 1.75.392.36.857.634 1.363.8.574.19 1.201.19 2.11.189h1.303v2a.75.75 0 001.194.605l3.75-2.75a.75.75 0 000-1.21l-3.75-2.75A.75.75 0 0016.75 15v2h-1.182c-1.077 0-1.445-.009-1.761-.113a2.25 2.25 0 01-.818-.48c-.245-.226-.433-.543-.958-1.483L10.54 12.25l1.492-2.674c.525-.94.713-1.258.958-1.483a2.25 2.25 0 01.818-.48c.316-.104.684-.113 1.761-.113h1.182v2a.75.75 0 001.194.605l3.75-2.75a.75.75 0 000-1.21l-3.75-2.75z"/></svg>