<svg xmlns="http://www.w3.org/2000/svg" width="24" height="24"><path fill-rule="evenodd" d="M5.75 2.75a.75.75 0 00-1.5 0v10.345a3.001 3.001 0 000 5.81v2.345a.75.75 0 001.5 0v-2.345a3.001 3.001 0 000-5.81V2.75zM5 17.5a1.5 1.5 0 100-3 1.5 1.5 0 000 3zM19.75 2.75a.75.75 0 00-1.5 0v10.345a3.001 3.001 0 000 5.81v2.345a.75.75 0 001.5 0v-2.345a3.001 3.001 0 000-5.81V2.75zM20.5 16a1.5 1.5 0 11-3 0 1.5 1.5 0 013 0zM12 22a.75.75 0 00.75-.75V10.905a3.001 3.001 0 000-5.81V2.75a.75.75 0 00-1.5 0v2.345a3.001 3.001 0 000 5.81V21.25c0 .414.336.75.75.75zm0-15.5a1.5 1.5 0 110 3 1.5 1.5 0 010-3z"/></svg>