<svg xmlns="http://www.w3.org/2000/svg" width="24" height="24"><path fill-rule="evenodd" d="M2.75 1A1.75 1.75 0 001 2.75v10.5c0 .966.784 1.75 1.75 1.75h18.5A1.75 1.75 0 0023 13.25V2.75A1.75 1.75 0 0021.25 1H2.75zM2.5 2.75a.25.25 0 01.25-.25h18.5a.25.25 0 01.25.25v10.5a.25.25 0 01-.25.25H2.75a.25.25 0 01-.25-.25V2.75zM23 19.5a.75.75 0 01-.75.75H9.905a3.001 3.001 0 01-5.81 0H1.75a.75.75 0 010-1.5h2.345a3.001 3.001 0 015.81 0H22.25a.75.75 0 01.75.75zm-17.5 0a1.5 1.5 0 103 0 1.5 1.5 0 00-3 0z"/></svg>