<svg width="24" height="24" viewBox="0 0 24 24" fill="none" xmlns="http://www.w3.org/2000/svg">
<path fill-rule="evenodd" clip-rule="evenodd" d="M5.75 2.75C5.75 2.33579 5.41421 2 5 2C4.58579 2 4.25 2.33579 4.25 2.75V13.0945C2.95608 13.4275 2 14.6021 2 16C2 17.3979 2.95608 18.5725 4.25 18.9055V21.25C4.25 21.6642 4.58579 22 5 22C5.41421 22 5.75 21.6642 5.75 21.25V18.9055C7.04392 18.5725 8 17.3979 8 16C8 14.6021 7.04392 13.4275 5.75 13.0945V2.75ZM5 17.5C5.82843 17.5 6.5 16.8284 6.5 16C6.5 15.1716 5.82843 14.5 5 14.5C4.17157 14.5 3.5 15.1716 3.5 16C3.5 16.8284 4.17157 17.5 5 17.5Z" fill="black"/>
<path fill-rule="evenodd" clip-rule="evenodd" d="M19.75 2.75C19.75 2.33579 19.4142 2 19 2C18.5858 2 18.25 2.33579 18.25 2.75V13.0945C16.9561 13.4275 16 14.6021 16 16C16 17.3979 16.9561 18.5725 18.25 18.9055V21.25C18.25 21.6642 18.5858 22 19 22C19.4142 22 19.75 21.6642 19.75 21.25V18.9055C21.0439 18.5725 22 17.3979 22 16C22 14.6021 21.0439 13.4275 19.75 13.0945V2.75ZM20.5 16C20.5 16.8284 19.8284 17.5 19 17.5C18.1716 17.5 17.5 16.8284 17.5 16C17.5 15.1716 18.1716 14.5 19 14.5C19.8284 14.5 20.5 15.1716 20.5 16Z" fill="black"/>
<path fill-rule="evenodd" clip-rule="evenodd" d="M12 22C12.4142 22 12.75 21.6642 12.75 21.25V10.9055C14.0439 10.5725 15 9.39788 15 8C15 6.60212 14.0439 5.42755 12.75 5.09451V2.75C12.75 2.33579 12.4142 2 12 2C11.5858 2 11.25 2.33579 11.25 2.75V5.09451C9.95608 5.42755 9 6.60212 9 8C9 9.39788 9.95608 10.5725 11.25 10.9055V21.25C11.25 21.6642 11.5858 22 12 22ZM12 6.5C12.8284 6.5 13.5 7.17157 13.5 8C13.5 8.82843 12.8284 9.5 12 9.5C11.1716 9.5 10.5 8.82843 10.5 8C10.5 7.17157 11.1716 6.5 12 6.5Z" fill="black"/>
</svg>
