<svg width="24" height="24" viewBox="0 0 24 24" fill="none" xmlns="http://www.w3.org/2000/svg">
<path fill-rule="evenodd" clip-rule="evenodd" d="M2.75 1C1.7835 1 1 1.7835 1 2.75V13.25C1 14.2165 1.7835 15 2.75 15H21.25C22.2165 15 23 14.2165 23 13.25V2.75C23 1.7835 22.2165 1 21.25 1H2.75ZM2.5 2.75C2.5 2.61193 2.61193 2.5 2.75 2.5H21.25C21.3881 2.5 21.5 2.61193 21.5 2.75V13.25C21.5 13.3881 21.3881 13.5 21.25 13.5H2.75C2.61193 13.5 2.5 13.3881 2.5 13.25V2.75Z" fill="black"/>
<path fill-rule="evenodd" clip-rule="evenodd" d="M23 19.5C23 19.9142 22.6642 20.25 22.25 20.25H9.90549C9.57246 21.5439 8.39788 22.5 7 22.5C5.60212 22.5 4.42755 21.5439 4.09451 20.25H1.75C1.33579 20.25 1 19.9142 1 19.5C1 19.0858 1.33579 18.75 1.75 18.75H4.09451C4.42755 17.4561 5.60212 16.5 7 16.5C8.39788 16.5 9.57246 17.4561 9.90549 18.75H22.25C22.6642 18.75 23 19.0858 23 19.5ZM5.5 19.5C5.5 20.3284 6.17157 21 7 21C7.82843 21 8.5 20.3284 8.5 19.5C8.5 18.6716 7.82843 18 7 18C6.17157 18 5.5 18.6716 5.5 19.5Z" fill="black"/>
</svg>
