<svg xmlns="http://www.w3.org/2000/svg" width="24" height="24"><path fill-rule="evenodd" d="M3.75 2A1.75 1.75 0 002 3.75v16.5c0 .966.784 1.75 1.75 1.75h16.5A1.75 1.75 0 0022 20.25V3.75A1.75 1.75 0 0020.25 2H3.75zM3.5 3.75a.25.25 0 01.25-.25h16.5a.25.25 0 01.25.25v16.5a.25.25 0 01-.25.25H3.75a.25.25 0 01-.25-.25V3.75z"/><path fill-rule="evenodd" d="M9.5 7A2.5 2.5 0 007 9.5v5A2.5 2.5 0 009.5 17h5a2.5 2.5 0 002.5-2.5v-5A2.5 2.5 0 0014.5 7h-5zm-1 2.5a1 1 0 011-1h5a1 1 0 011 1v5a1 1 0 01-1 1h-5a1 1 0 01-1-1v-5z"/></svg>