<svg xmlns="http://www.w3.org/2000/svg" width="24" height="24"><g fill-rule="evenodd"><path d="M10.16 7.122A.75.75 0 009 7.75v8.5a.75.75 0 001.16.628l6.5-4.25a.75.75 0 000-1.256l-6.5-4.25zM14.88 12l-4.38 2.864V9.136L14.88 12z"/><path d="M12 3h-.081a90.077 90.077 0 00-1.054.008 135 135 0 00-2.626.054c-.995.03-2.052.077-2.975.147-.9.069-1.74.164-2.26.31l-.011.003a3.572 3.572 0 00-1.604.997 3.755 3.755 0 00-.907 1.729 33.016 33.016 0 00-.481 5.773c-.012 1.95.15 3.897.481 5.817l.015.07c.167.61.483 1.168.92 1.62.437.451.981.78 1.582.952l.004.001c.52.146 1.36.241 2.261.31.923.07 1.98.116 2.975.147a134.91 134.91 0 003.68.062h.162a77.733 77.733 0 001.054-.008c.69-.007 1.63-.023 2.626-.054.995-.03 2.052-.077 2.975-.147.9-.069 1.74-.164 2.26-.31l.011-.003a3.573 3.573 0 001.604-.998 3.754 3.754 0 00.907-1.728c.327-1.89.488-3.809.481-5.73a33.016 33.016 0 00-.49-5.864 3.754 3.754 0 00-.898-1.681 3.573 3.573 0 00-1.63-1.006c-.515-.13-1.349-.217-2.25-.28a75.326 75.326 0 00-2.972-.135A147.984 147.984 0 0012.081 3H12zm0 1.5h.078a93.952 93.952 0 011.041.007c.684.007 1.614.02 2.598.049.984.028 2.017.07 2.91.131.9.063 1.6.143 1.969.235.345.104.661.301.916.576.254.273.439.613.532.988.314 1.825.467 3.676.455 5.53v.008a31.511 31.511 0 01-.455 5.447 2.253 2.253 0 01-.532.988 2.073 2.073 0 01-.924.58c-.36.099-1.058.187-1.966.256a67.27 67.27 0 01-2.907.144 134.026 134.026 0 01-3.637.06L12 19.5h-.079a119.895 119.895 0 01-1.04-.008c-.684-.007-1.614-.023-2.597-.053a67.266 67.266 0 01-2.907-.144c-.91-.07-1.61-.158-1.97-.258a2.068 2.068 0 01-.914-.553 2.244 2.244 0 01-.54-.94 31.517 31.517 0 01-.453-5.518v-.008c-.01-1.84.143-3.678.455-5.49.093-.374.278-.714.532-.987a2.08 2.08 0 01.924-.58c.36-.099 1.058-.187 1.966-.256a67.43 67.43 0 012.907-.144 133.618 133.618 0 013.637-.06L12 4.5z"/></g></svg>