<svg xmlns="http://www.w3.org/2000/svg" width="24" height="24"><path d="M12.53 7.22a.75.75 0 00-1.28.53v4.5a.75.75 0 101.5 0v-4.5a.75.75 0 00-.22-.53zm.177 9.487a1 1 0 11-1.414-1.414 1 1 0 011.414 1.414z"/><path fill-rule="evenodd" d="M7.858 1.25a.75.75 0 00-.53.22L1.47 7.328a.75.75 0 00-.22.53v8.284c0 .199.08.39.22.53l5.858 5.858c.14.14.331.22.53.22h8.284a.75.75 0 00.53-.22l5.858-5.858a.75.75 0 00.22-.53V7.858c0-.2-.079-.39-.22-.53L16.672 1.47a.75.75 0 00-.53-.22H7.858zM2.75 8.169L8.168 2.75h7.664l5.418 5.418v7.664l-5.419 5.418H8.169L2.75 15.831V8.169z"/></svg>