<svg xmlns="http://www.w3.org/2000/svg" width="24" height="24"><path d="M20.194 15.529a1.557 1.557 0 00-1.035.185 1.51 1.51 0 00-.669.797.77.77 0 01-.977.46.748.748 0 01-.47-.96 3.02 3.02 0 011.339-1.593 3.116 3.116 0 012.071-.37 3.08 3.08 0 011.827 1.026 2.97 2.97 0 01.72 1.939c0 1.15-.87 1.909-1.49 2.315-.2.13-.396.24-.574.329a.644.644 0 00-.163.097.24.24 0 00-.058.093c-.013.04-.013.085-.013.178v.223a.76.76 0 01-.767.752.76.76 0 01-.767-.752v-.982c0-.323.21-.61.523-.713 0 0 .198-.074.292-.115.189-.082.435-.204.676-.361.528-.345.808-.713.808-1.065a1.49 1.49 0 00-.36-.97 1.538 1.538 0 00-.913-.513zM20 22a1 1 0 110 2 1 1 0 010-2z"/><path fill-rule="evenodd" d="M12 1c2.448 0 4.371 2.034 4.494 4.5h1.087c.534 0 .48 0 .844.03.38.03.736.098 1.073.27A2.75 2.75 0 0120.7 7.002c.172.337.24.693.27 1.073.03.365.03.81.03 1.345v1.33a.75.75 0 01-1.5 0v-1.3c0-.572 0-.957-.025-1.253-.023-.287-.065-.424-.111-.514a1.25 1.25 0 00-.547-.547c-.09-.046-.227-.088-.515-.111C18.007 7 18.122 7 17.55 7H6.45c-.572 0-.457 0-.753.025-.287.023-.424.065-.514.111a1.25 1.25 0 00-.547.547c-.046.09-.088.227-.111.514-.024.296-.025.68-.025 1.253v8.6c0 .572 0 .957.025 1.252.023.288.065.425.111.515.12.236.311.427.547.547.09.046.227.088.514.111.296.024.18.025.753.025h3.8a.75.75 0 010 1.5H6.42c-.535 0-.48 0-.845-.03-.38-.03-.736-.098-1.073-.27A2.75 2.75 0 013.3 20.5c-.172-.338-.24-.694-.27-1.074C3 19.06 3 18.615 3 18.08V9.42c0-.535 0-.98.03-1.345.03-.38.098-.736.27-1.073A2.75 2.75 0 014.502 5.8c.337-.172.693-.24 1.073-.27.365-.03.31-.03.845-.03h1.086C7.63 3.034 9.552 1 12 1zm2.991 4.5c-.118-1.717-1.453-3-2.991-3s-2.872 1.283-2.991 3h5.982z"/></svg>