<svg xmlns="http://www.w3.org/2000/svg" width="24" height="24"><path d="M20.194 15.529a1.557 1.557 0 00-1.035.185 1.51 1.51 0 00-.669.797.77.77 0 01-.977.46.748.748 0 01-.47-.96 3.02 3.02 0 011.339-1.593 3.116 3.116 0 012.071-.37 3.08 3.08 0 011.827 1.026 2.97 2.97 0 01.72 1.939c0 1.15-.87 1.909-1.49 2.315-.2.13-.396.24-.574.329a.644.644 0 00-.163.097.24.24 0 00-.058.093c-.013.04-.013.085-.013.178v.223a.76.76 0 01-.767.752.76.76 0 01-.767-.752v-.982c0-.323.21-.61.523-.713 0 0 .198-.074.292-.115.189-.082.435-.204.676-.361.528-.345.808-.713.808-1.065a1.49 1.49 0 00-.36-.97 1.538 1.538 0 00-.913-.513zM20 22a1 1 0 110 2 1 1 0 010-2zM9 6.75c0 1.47 1.294 2.75 3 2.75s3-1.28 3-2.75a.75.75 0 011.5 0C16.5 9.145 14.436 11 12 11S7.5 9.145 7.5 6.75a.75.75 0 011.5 0z"/><path d="M5.896 2.026C6.233 2 6.643 2 7.133 2h9.734c.49 0 .9 0 1.238.026.353.028.685.088 1.004.24a2.75 2.75 0 011.184 1.077c.18.303.271.628.332.977a17 17 0 01.143 1.23l.422 4.457a.75.75 0 01-1.494.142l-.419-4.43a15.91 15.91 0 00-.13-1.141c-.045-.26-.093-.384-.143-.468a1.25 1.25 0 00-.538-.49c-.088-.04-.216-.078-.479-.098a16.392 16.392 0 00-1.149-.022H7.162c-.526 0-.877 0-1.15.022-.262.02-.39.057-.478.099a1.25 1.25 0 00-.538.49c-.05.083-.098.207-.144.467-.046.268-.08.618-.13 1.141l-.979 10.35c-.087.923-.147 1.569-.152 2.073-.005.496.046.78.138.995.2.463.548.846.99 1.088.205.112.484.19.978.232.502.042 1.151.043 2.078.043h3.475a.75.75 0 010 1.5H7.742c-.886 0-1.598 0-2.171-.049-.589-.05-1.103-.154-1.57-.41a3.75 3.75 0 01-1.65-1.813c-.21-.488-.266-1.01-.26-1.601.005-.575.073-1.284.156-2.166l.985-10.412c.046-.487.085-.896.143-1.229.06-.349.151-.674.332-.977a2.75 2.75 0 011.184-1.078c.32-.151.651-.21 1.005-.239z"/></svg>