<svg xmlns="http://www.w3.org/2000/svg" width="24" height="24"><path fill-rule="evenodd" d="M16.95 16.463c-.736 0-1.518.688-1.518 1.661 0 1.172.861 2.27 1.845 3.126.536.463 1.112.873 1.722 1.228a11.469 11.469 0 001.723-1.229c.983-.855 1.846-1.955 1.846-3.127 0-.973-.781-1.66-1.517-1.66-.519 0-.95.232-1.266.63-.4.504-1.17.504-1.57 0-.315-.398-.746-.629-1.265-.629zM14 18.124c0-1.78 1.423-3.122 2.95-3.123.81 0 1.512.31 2.05.814A2.957 2.957 0 0121.052 15c1.527 0 2.95 1.341 2.949 3.122 0 1.865-1.32 3.344-2.352 4.241l-.002.002a12.87 12.87 0 01-1.981 1.407h-.001a8.857 8.857 0 01-.239.131.99.99 0 01-.887-.017l-.004-.002a12.845 12.845 0 01-2.182-1.518l-.003-.001c-1.031-.898-2.35-2.376-2.349-4.24z"/><path fill-rule="evenodd" d="M12 1c2.448 0 4.371 2.034 4.494 4.5h1.087c.534 0 .48 0 .844.03.38.03.736.098 1.073.27A2.75 2.75 0 0120.7 7.002c.172.337.24.693.27 1.073.03.365.03.81.03 1.345v1.33a.75.75 0 01-1.5 0v-1.3c0-.572 0-.957-.025-1.253-.023-.287-.065-.424-.111-.514a1.25 1.25 0 00-.547-.547c-.09-.046-.227-.088-.515-.111C18.007 7 18.122 7 17.55 7H6.45c-.572 0-.457 0-.753.025-.287.023-.424.065-.514.111a1.25 1.25 0 00-.547.547c-.046.09-.088.227-.111.514-.024.296-.025.68-.025 1.253v8.6c0 .572 0 .957.025 1.252.023.288.065.425.111.515.12.236.311.427.547.547.09.046.227.088.514.111.296.024.18.025.753.025h3.8a.75.75 0 010 1.5H6.42c-.535 0-.48 0-.845-.03-.38-.03-.736-.098-1.073-.27A2.75 2.75 0 013.3 20.5c-.172-.338-.24-.694-.27-1.074C3 19.06 3 18.615 3 18.08V9.42c0-.535 0-.98.03-1.345.03-.38.098-.736.27-1.073A2.75 2.75 0 014.502 5.8c.337-.172.693-.24 1.073-.27.365-.03.31-.03.845-.03h1.086C7.63 3.034 9.552 1 12 1zm2.991 4.5c-.118-1.717-1.453-3-2.991-3s-2.872 1.283-2.991 3h5.982z"/></svg>