<svg xmlns="http://www.w3.org/2000/svg" width="24" height="24"><path fill-rule="evenodd" d="M12 1c2.448 0 4.371 2.034 4.494 4.5h1.087c.534 0 .48 0 .844.03.38.03.736.098 1.073.27A2.75 2.75 0 0120.7 7.002c.172.337.24.693.27 1.073.03.365.03.81.03 1.345v8.66c0 .535 0 .98-.03 1.345-.03.38-.098.736-.27 1.073a2.751 2.751 0 01-1.2 1.202c-.338.172-.694.24-1.074.27-.365.03-.31.03-.845.03H6.42c-.535 0-.48 0-.845-.03-.38-.03-.736-.098-1.073-.27A2.75 2.75 0 013.3 20.5c-.172-.338-.24-.694-.27-1.074C3 19.06 3 18.615 3 18.08V9.42c0-.535 0-.98.03-1.345.03-.38.098-.736.27-1.073A2.75 2.75 0 014.502 5.8c.337-.172.693-.24 1.073-.27.365-.03.31-.03.845-.03h1.086C7.63 3.034 9.552 1 12 1zm0 1.5c1.538 0 2.873 1.283 2.991 3H9.01c.119-1.717 1.453-3 2.991-3zM5.183 7.136c.09-.046.227-.088.514-.111C5.993 7 5.877 7 6.45 7h11.1c.572 0 .457 0 .752.025.288.023.425.065.515.111.236.12.427.311.547.547.046.09.088.227.111.514.024.296.025.68.025 1.253v8.6c0 .572 0 .957-.025 1.252-.023.288-.065.425-.111.515a1.25 1.25 0 01-.547.547c-.09.046-.227.088-.515.111-.295.024-.18.025-.752.025H6.45c-.572 0-.457 0-.753-.025-.287-.023-.424-.065-.514-.111a1.25 1.25 0 01-.547-.547c-.046-.09-.088-.227-.111-.515-.024-.295-.025-.68-.025-1.252v-8.6c0-.572 0-.957.025-1.253.023-.287.065-.424.111-.514a1.25 1.25 0 01.547-.547z"/></svg>