<svg xmlns="http://www.w3.org/2000/svg" width="24" height="24"><path d="M16.361 19.222l2.344 2.135v-5.61c0-.198.084-.388.232-.528a.812.812 0 01.558-.219c.21 0 .41.079.558.219.148.14.231.33.231.528v5.61l2.345-2.135a.825.825 0 011.121-.041.75.75 0 01.18.239.714.714 0 01-.148.823l-3.71 3.52a.792.792 0 01-.263.175.828.828 0 01-.891-.175l-3.71-3.52a.725.725 0 01-.207-.534.731.731 0 01.25-.517.815.815 0 01.562-.201.81.81 0 01.548.231zM9 6.75c0 1.47 1.294 2.75 3 2.75s3-1.28 3-2.75a.75.75 0 011.5 0C16.5 9.145 14.436 11 12 11S7.5 9.145 7.5 6.75a.75.75 0 011.5 0z"/><path d="M5.896 2.026C6.233 2 6.643 2 7.133 2h9.734c.49 0 .9 0 1.238.026.353.028.685.088 1.004.24a2.75 2.75 0 011.184 1.077c.18.303.271.628.332.977a17 17 0 01.143 1.23l.422 4.457a.75.75 0 01-1.494.142l-.419-4.43a15.91 15.91 0 00-.13-1.141c-.045-.26-.093-.384-.143-.468a1.25 1.25 0 00-.538-.49c-.088-.04-.216-.078-.479-.098a16.392 16.392 0 00-1.149-.022H7.162c-.526 0-.877 0-1.15.022-.262.02-.39.057-.478.099a1.25 1.25 0 00-.538.49c-.05.083-.098.207-.144.467-.046.268-.08.618-.13 1.141l-.979 10.35c-.087.923-.147 1.569-.152 2.073-.005.496.046.78.138.995.2.463.548.846.99 1.088.205.112.484.19.978.232.502.042 1.151.043 2.078.043h3.475a.75.75 0 010 1.5H7.742c-.886 0-1.598 0-2.171-.049-.589-.05-1.103-.154-1.57-.41a3.75 3.75 0 01-1.65-1.813c-.21-.488-.266-1.01-.26-1.601.005-.575.073-1.284.156-2.166l.985-10.412c.046-.487.085-.896.143-1.229.06-.349.151-.674.332-.977a2.75 2.75 0 011.184-1.078c.32-.151.651-.21 1.005-.239z"/></svg>