<svg xmlns="http://www.w3.org/2000/svg" width="24" height="24"><path fill-rule="evenodd" d="M16.95 16.463c-.736 0-1.518.688-1.518 1.661 0 1.172.861 2.27 1.845 3.126.536.463 1.112.873 1.722 1.228a11.469 11.469 0 001.723-1.229c.983-.855 1.846-1.955 1.846-3.127 0-.973-.781-1.66-1.517-1.66-.519 0-.95.232-1.266.63-.4.504-1.17.504-1.57 0-.315-.398-.746-.629-1.265-.629zM14 18.124c0-1.78 1.423-3.122 2.95-3.123.81 0 1.512.31 2.05.814A2.957 2.957 0 0121.052 15c1.527 0 2.95 1.341 2.949 3.122 0 1.865-1.32 3.344-2.352 4.241l-.002.002a12.87 12.87 0 01-1.981 1.407h-.001a8.857 8.857 0 01-.239.131.99.99 0 01-.887-.017l-.004-.002a12.845 12.845 0 01-2.182-1.518l-.003-.001c-1.031-.898-2.35-2.376-2.349-4.24z"/><path fill-rule="evenodd" d="M16.5 6v-.75C16.5 2.855 14.436 1 12 1S7.5 2.855 7.5 5.25V6h-.623c-.489 0-.899 0-1.235.026-.353.028-.684.088-1.003.239a2.75 2.75 0 00-1.184 1.074c-.18.303-.272.627-.333.975-.06.333-.099.74-.146 1.227l-.716 7.408c-.086.883-.155 1.594-.162 2.17-.007.591.049 1.114.258 1.604a3.75 3.75 0 001.65 1.818c.467.255.983.36 1.572.41C6.152 23 6.866 23 7.753 23h3.497a.75.75 0 000-1.5H7.787c-.93 0-1.58 0-2.082-.043-.496-.042-.775-.12-.98-.233a2.25 2.25 0 01-.99-1.09c-.092-.215-.143-.5-.137-.997.006-.505.068-1.152.158-2.077l.71-7.346c.051-.522.086-.871.133-1.14.045-.258.094-.382.144-.465a1.25 1.25 0 01.538-.489c.087-.041.216-.078.478-.098C6.03 7.5 6.38 7.5 6.905 7.5H7.5v1.75a.75.75 0 001.5 0V7.5h6v1.75a.75.75 0 001.5 0V7.5h.595c.524 0 .875 0 1.146.022.262.02.39.057.478.098.224.106.411.276.538.489.05.083.099.207.144.466.047.268.082.617.132 1.139l.083.857a.75.75 0 101.493-.145l-.085-.885a16.997 16.997 0 00-.146-1.227c-.061-.348-.152-.672-.333-.975a2.75 2.75 0 00-1.184-1.074c-.319-.151-.65-.211-1.003-.239C18.022 6 17.612 6 17.123 6H16.5zM15 5.25c0-1.47-1.294-2.75-3-2.75S9 3.78 9 5.25V6h6v-.75z"/></svg>