<svg xmlns="http://www.w3.org/2000/svg" width="24" height="24"><path d="M9 6.75c0 1.47 1.294 2.75 3 2.75s3-1.28 3-2.75a.75.75 0 011.5 0C16.5 9.145 14.436 11 12 11S7.5 9.145 7.5 6.75a.75.75 0 011.5 0z"/><path fill-rule="evenodd" d="M7.133 2c-.49 0-.9 0-1.237.026-.354.028-.686.088-1.005.24a2.75 2.75 0 00-1.184 1.077c-.18.303-.271.628-.332.977a17 17 0 00-.143 1.23l-.985 10.41c-.083.883-.15 1.592-.156 2.167-.006.59.05 1.113.26 1.601A3.75 3.75 0 004 21.542c.467.255.981.36 1.57.41C6.144 22 6.856 22 7.74 22h8.517c.886 0 1.599 0 2.172-.049.588-.05 1.102-.154 1.57-.41a3.75 3.75 0 001.65-1.813c.209-.488.265-1.01.26-1.601-.006-.575-.073-1.284-.157-2.166l-.985-10.412a17.048 17.048 0 00-.143-1.229c-.06-.349-.151-.674-.332-.977a2.75 2.75 0 00-1.184-1.078c-.32-.151-.651-.21-1.005-.239C17.768 2 17.358 2 16.867 2H7.133zM5.534 3.62c.088-.04.216-.078.479-.098.272-.021.623-.022 1.149-.022h9.676c.526 0 .877 0 1.15.022.262.02.39.057.478.099.224.106.411.276.538.49.05.083.098.207.144.467.046.268.08.618.13 1.141l.979 10.35c.087.923.147 1.569.152 2.073.005.496-.046.78-.138.995a2.25 2.25 0 01-.99 1.088c-.205.112-.484.19-.978.232-.502.042-1.151.043-2.079.043H7.775c-.927 0-1.576 0-2.078-.043-.494-.042-.773-.12-.978-.232a2.25 2.25 0 01-.99-1.088c-.092-.215-.143-.5-.138-.995.005-.504.065-1.15.152-2.073l.98-10.35c.049-.523.083-.873.13-1.141.045-.26.093-.384.143-.468a1.25 1.25 0 01.538-.49z"/></svg>