<svg xmlns="http://www.w3.org/2000/svg" width="24" height="24"><path d="M19.222 22.639l2.135-2.344h-5.61a.728.728 0 01-.528-.232.812.812 0 01-.219-.558c0-.21.079-.41.219-.558a.728.728 0 01.528-.231h5.61l-2.135-2.345a.825.825 0 01-.041-1.121.75.75 0 01.239-.18.714.714 0 01.823.148l3.52 3.71a.792.792 0 01.175.263.828.828 0 01-.175.891l-3.52 3.71a.724.724 0 01-.534.207.731.731 0 01-.517-.25.815.815 0 01-.201-.561.81.81 0 01.231-.55z"/><path fill-rule="evenodd" d="M16.5 6v-.75C16.5 2.855 14.436 1 12 1S7.5 2.855 7.5 5.25V6h-.623c-.489 0-.899 0-1.235.026-.353.028-.684.088-1.003.239a2.75 2.75 0 00-1.184 1.074c-.18.303-.272.627-.333.975-.06.333-.099.74-.146 1.227l-.716 7.408c-.086.883-.155 1.594-.162 2.17-.007.591.049 1.114.258 1.604a3.75 3.75 0 001.65 1.818c.467.255.983.36 1.572.41C6.152 23 6.866 23 7.753 23h3.497a.75.75 0 000-1.5H7.787c-.93 0-1.58 0-2.082-.043-.496-.042-.775-.12-.98-.233a2.25 2.25 0 01-.99-1.09c-.092-.215-.143-.5-.137-.997.006-.505.068-1.152.158-2.077l.71-7.346c.051-.522.086-.871.133-1.14.045-.258.094-.382.144-.465a1.25 1.25 0 01.538-.489c.087-.041.216-.078.478-.098C6.03 7.5 6.38 7.5 6.905 7.5H7.5v1.75a.75.75 0 001.5 0V7.5h6v1.75a.75.75 0 001.5 0V7.5h.595c.524 0 .875 0 1.146.022.262.02.39.057.478.098.224.106.411.276.538.489.05.083.099.207.144.466.047.268.082.617.132 1.139l.083.857a.75.75 0 101.493-.145l-.085-.885a16.997 16.997 0 00-.146-1.227c-.061-.348-.152-.672-.333-.975a2.75 2.75 0 00-1.184-1.074c-.319-.151-.65-.211-1.003-.239C18.022 6 17.612 6 17.123 6H16.5zM15 5.25c0-1.47-1.294-2.75-3-2.75S9 3.78 9 5.25V6h6v-.75z"/></svg>