<svg xmlns="http://www.w3.org/2000/svg" width="24" height="24"><path fill-rule="evenodd" d="M20.14 13.96a.75.75 0 011.061 0l2.475 2.475a.75.75 0 010 1.06l-5.834 5.834a.75.75 0 01-.437.214l-2.828.354a.75.75 0 01-.838-.838l.354-2.828a.75.75 0 01.214-.438l5.833-5.833zm.53 1.59l-5.12 5.122-.203 1.616 1.617-.202 5.121-5.12-1.414-1.415zM12.053 3.529a.25.25 0 00-.106 0l-8.25 1.784a.25.25 0 00-.197.244V7.25c0 .138.112.25.25.25h16.5a.25.25 0 00.25-.25V5.557a.25.25 0 00-.197-.244l-8.25-1.784zm-.423-1.466a1.75 1.75 0 01.74 0l8.25 1.783A1.75 1.75 0 0122 5.556V7.25A1.75 1.75 0 0120.25 9h-.75v2.25a.75.75 0 01-1.5 0V9h-3v2.25a.75.75 0 01-1.5 0V9h-3v8.25a.75.75 0 01-.75.75h-6a.25.25 0 00-.25.25v2c0 .138.112.25.25.25h6a.75.75 0 010 1.5h-6A1.75 1.75 0 012 20.25v-2c0-.966.784-1.75 1.75-1.75h.75V9h-.75A1.75 1.75 0 012 7.25V5.557a1.75 1.75 0 011.38-1.71l8.25-1.784zM6 9v7.5h3V9H6z"/></svg>