<svg xmlns="http://www.w3.org/2000/svg" width="24" height="24"><path d="M20.194 15.529a1.557 1.557 0 00-1.035.185 1.51 1.51 0 00-.669.797.77.77 0 01-.977.46.748.748 0 01-.47-.96 3.02 3.02 0 011.339-1.593 3.116 3.116 0 012.071-.37 3.08 3.08 0 011.827 1.026 2.97 2.97 0 01.72 1.939c0 1.15-.87 1.909-1.49 2.315-.2.13-.396.24-.574.329a.644.644 0 00-.163.097.24.24 0 00-.058.093c-.013.04-.013.085-.013.178v.223a.76.76 0 01-.767.752.76.76 0 01-.767-.752v-.982c0-.323.21-.61.523-.713 0 0 .198-.074.292-.115.189-.082.435-.204.676-.361.528-.345.808-.713.808-1.065a1.49 1.49 0 00-.36-.97 1.538 1.538 0 00-.913-.513zM20 22a1 1 0 110 2 1 1 0 010-2z"/><path fill-rule="evenodd" d="M12.053 3.529a.25.25 0 00-.106 0l-8.25 1.784a.25.25 0 00-.197.244V7.25c0 .138.112.25.25.25h16.5a.25.25 0 00.25-.25V5.557a.25.25 0 00-.197-.244l-8.25-1.784zm-.423-1.466a1.75 1.75 0 01.74 0l8.25 1.783A1.75 1.75 0 0122 5.556V7.25A1.75 1.75 0 0120.25 9h-.75v2.25a.75.75 0 01-1.5 0V9h-3v2.25a.75.75 0 01-1.5 0V9h-3v8.25a.75.75 0 01-.75.75h-6a.25.25 0 00-.25.25v2c0 .138.112.25.25.25h6a.75.75 0 010 1.5h-6A1.75 1.75 0 012 20.25v-2c0-.966.784-1.75 1.75-1.75h.75V9h-.75A1.75 1.75 0 012 7.25V5.557a1.75 1.75 0 011.38-1.71l8.25-1.784zM6 9v7.5h3V9H6z"/></svg>