<svg xmlns="http://www.w3.org/2000/svg" width="24" height="24"><g fill-rule="evenodd"><path d="M20.578 14.223a4.076 4.076 0 00-2.657 0l-2.646.912-.013.004c-.061.02-.254.082-.409.213a1 1 0 00-.285.4 1.22 1.22 0 00-.068.455v2.697c0 1.534.968 2.505 1.884 3.33.935.842 1.96 1.4 2.362 1.604l.01.005c.04.02.16.084.307.112a1.02 1.02 0 00.682-.112l.009-.005a11.437 11.437 0 002.362-1.604c.916-.825 1.884-1.796 1.884-3.33v-2.697a1.225 1.225 0 00-.068-.455 1 1 0 00-.285-.4c-.155-.131-.348-.193-.409-.213l-.013-.005-2.647-.912zM18.41 15.64a2.578 2.578 0 011.678 0l2.412.831v2.433c0 .887-.573 1.482-1.387 2.215a9.857 9.857 0 01-1.863 1.29 9.857 9.857 0 01-1.863-1.29C16.573 20.386 16 19.79 16 18.904V16.47l2.41-.83z"/><path d="M12.053 3.529a.25.25 0 00-.106 0l-8.25 1.784a.25.25 0 00-.197.244V7.25c0 .138.112.25.25.25h16.5a.25.25 0 00.25-.25V5.557a.25.25 0 00-.197-.244l-8.25-1.784zm-.423-1.466a1.75 1.75 0 01.74 0l8.25 1.783A1.75 1.75 0 0122 5.556V7.25A1.75 1.75 0 0120.25 9h-.75v2.25a.75.75 0 01-1.5 0V9h-3v2.25a.75.75 0 01-1.5 0V9h-3v8.25a.75.75 0 01-.75.75h-6a.25.25 0 00-.25.25v2c0 .138.112.25.25.25h6a.75.75 0 010 1.5h-6A1.75 1.75 0 012 20.25v-2c0-.966.784-1.75 1.75-1.75h.75V9h-.75A1.75 1.75 0 012 7.25V5.557a1.75 1.75 0 011.38-1.71l8.25-1.784zM6 9v7.5h3V9H6z"/></g></svg>