<svg xmlns="http://www.w3.org/2000/svg" width="24" height="24"><path d="M19.778 22.639l-2.135-2.344h5.61a.728.728 0 00.528-.232.812.812 0 00.219-.558c0-.21-.079-.41-.219-.558a.728.728 0 00-.528-.231h-5.61l2.135-2.345a.825.825 0 00.041-1.121.75.75 0 00-.239-.18.714.714 0 00-.823.148l-3.52 3.71a.792.792 0 00-.175.263.828.828 0 00.175.891l3.52 3.71a.723.723 0 00.534.207.731.731 0 00.517-.25.815.815 0 00.201-.561.81.81 0 00-.231-.55z"/><path fill-rule="evenodd" d="M12.053 3.529a.25.25 0 00-.106 0l-8.25 1.784a.25.25 0 00-.197.244V7.25c0 .138.112.25.25.25h16.5a.25.25 0 00.25-.25V5.557a.25.25 0 00-.197-.244l-8.25-1.784zm-.423-1.466a1.75 1.75 0 01.74 0l8.25 1.783A1.75 1.75 0 0122 5.556V7.25A1.75 1.75 0 0120.25 9h-.75v2.25a.75.75 0 01-1.5 0V9h-3v2.25a.75.75 0 01-1.5 0V9h-3v8.25a.75.75 0 01-.75.75h-6a.25.25 0 00-.25.25v2c0 .138.112.25.25.25h6a.75.75 0 010 1.5h-6A1.75 1.75 0 012 20.25v-2c0-.966.784-1.75 1.75-1.75h.75V9h-.75A1.75 1.75 0 012 7.25V5.557a1.75 1.75 0 011.38-1.71l8.25-1.784zM6 9v7.5h3V9H6z"/></svg>