<svg xmlns="http://www.w3.org/2000/svg" width="24" height="24"><path fill-rule="evenodd" d="M12.053 3.529a.25.25 0 00-.106 0l-8.25 1.784a.25.25 0 00-.197.244V7.25c0 .138.112.25.25.25h16.5a.25.25 0 00.25-.25V5.557a.25.25 0 00-.197-.244l-8.25-1.784zm-.423-1.466a1.75 1.75 0 01.74 0l8.25 1.783A1.75 1.75 0 0122 5.556V7.25A1.75 1.75 0 0120.25 9h-.75v7.5h.75c.966 0 1.75.784 1.75 1.75v2A1.75 1.75 0 0120.25 22H3.75A1.75 1.75 0 012 20.25v-2c0-.966.784-1.75 1.75-1.75h.75V9h-.75A1.75 1.75 0 012 7.25V5.557a1.75 1.75 0 011.38-1.71l8.25-1.784zM6 9v7.5h3V9H6zm4.5 0v7.5h3V9h-3zM15 9v7.5h3V9h-3zM3.75 18a.25.25 0 00-.25.25v2c0 .138.112.25.25.25h16.5a.25.25 0 00.25-.25v-2a.25.25 0 00-.25-.25H3.75z"/></svg>