<svg xmlns="http://www.w3.org/2000/svg" width="24" height="24"><g fill-rule="evenodd"><path d="M19.75 16.5a.75.75 0 00-.75.75v3a.75.75 0 01-1.5 0v-3a2.25 2.25 0 014.5 0v3.125a3.625 3.625 0 01-7.25 0V17.75a.75.75 0 011.5 0v2.625a2.125 2.125 0 004.25 0V17.25a.75.75 0 00-.75-.75z"/><path d="M8.666 2.095a.75.75 0 00-1.332-.69L3.914 8H1.75A1.75 1.75 0 000 9.75v1.5C0 12.216.784 13 1.75 13h.087l1.764 8.602A1.75 1.75 0 005.316 23H12a.75.75 0 000-1.5H5.316a.25.25 0 01-.245-.2L3.368 13H22.25A1.75 1.75 0 0024 11.25v-1.5A1.75 1.75 0 0022.25 8h-2.164l-3.42-6.595a.75.75 0 10-1.332.69L18.396 8H5.604l3.062-5.905zM1.75 9.5a.25.25 0 00-.25.25v1.5c0 .138.112.25.25.25h20.5a.25.25 0 00.25-.25v-1.5a.25.25 0 00-.25-.25H1.75z"/></g></svg>