<svg xmlns="http://www.w3.org/2000/svg" width="24" height="24"><path d="M15.75 18h6.5a.75.75 0 010 1.5h-6.5a.75.75 0 010-1.5z"/><path fill-rule="evenodd" d="M8.666 2.095a.75.75 0 00-1.332-.69L3.914 8H1.75A1.75 1.75 0 000 9.75v1.5C0 12.216.784 13 1.75 13h.087l1.764 8.602A1.75 1.75 0 005.316 23H12a.75.75 0 000-1.5H5.316a.25.25 0 01-.245-.2L3.368 13H22.25A1.75 1.75 0 0024 11.25v-1.5A1.75 1.75 0 0022.25 8h-2.164l-3.42-6.595a.75.75 0 10-1.332.69L18.396 8H5.604l3.062-5.905zM1.75 9.5a.25.25 0 00-.25.25v1.5c0 .138.112.25.25.25h20.5a.25.25 0 00.25-.25v-1.5a.25.25 0 00-.25-.25H1.75z"/></svg>