<svg xmlns="http://www.w3.org/2000/svg" width="24" height="24"><path d="M12.75 14.75a.75.75 0 00-1.5 0v4.5a.75.75 0 001.5 0v-4.5zm3.833-.745a.75.75 0 01.662.828l-.5 4.5a.75.75 0 11-1.49-.166l.5-4.5a.75.75 0 01.828-.662zm-7.838 5.162a.75.75 0 11-1.49.166l-.5-4.5a.75.75 0 111.49-.166l.5 4.5z"/><path fill-rule="evenodd" d="M8.666 2.095a.75.75 0 00-1.332-.69L3.914 8H1.75A1.75 1.75 0 000 9.75v1.5C0 12.216.784 13 1.75 13h.087l1.764 8.602A1.75 1.75 0 005.316 23h13.368a1.75 1.75 0 001.715-1.398L22.163 13h.087A1.75 1.75 0 0024 11.25v-1.5A1.75 1.75 0 0022.25 8h-2.164l-3.42-6.595a.75.75 0 10-1.332.69L18.396 8H5.604l3.062-5.905zM5.07 21.3L3.368 13h17.264l-1.703 8.3a.25.25 0 01-.245.2H5.316a.25.25 0 01-.245-.2zM1.5 9.75a.25.25 0 01.25-.25h20.5a.25.25 0 01.25.25v1.5a.25.25 0 01-.25.25H1.75a.25.25 0 01-.25-.25v-1.5z"/></svg>