<svg xmlns="http://www.w3.org/2000/svg" width="24" height="24"><g fill-rule="evenodd"><path d="M20.578 14.723a4.077 4.077 0 00-2.657 0l-2.646.912-.013.004c-.061.02-.254.082-.409.213a1 1 0 00-.285.4c-.073.189-.07.392-.068.456v2.196c0 1.534.968 2.505 1.884 3.33.935.842 1.96 1.4 2.362 1.604l.01.005c.04.02.16.084.307.112a1.02 1.02 0 00.682-.112l.009-.005a11.439 11.439 0 002.362-1.604c.916-.825 1.884-1.796 1.884-3.33v-2.197a1.225 1.225 0 00-.068-.455 1 1 0 00-.285-.4c-.155-.131-.348-.193-.409-.213l-.013-.004-2.647-.912zM18.41 16.14a2.577 2.577 0 011.678 0l2.412.831v1.933c0 .887-.573 1.482-1.387 2.215a9.857 9.857 0 01-1.863 1.29 9.857 9.857 0 01-1.863-1.29C16.573 20.386 16 19.79 16 18.904V16.97l2.41-.83z"/><path d="M8.666 2.095a.75.75 0 00-1.332-.69L3.914 8H1.75A1.75 1.75 0 000 9.75v1.5C0 12.216.784 13 1.75 13h.087l1.764 8.602A1.75 1.75 0 005.316 23H12a.75.75 0 000-1.5H5.316a.25.25 0 01-.245-.2L3.368 13H22.25A1.75 1.75 0 0024 11.25v-1.5A1.75 1.75 0 0022.25 8h-2.164l-3.42-6.595a.75.75 0 10-1.332.69L18.396 8H5.604l3.062-5.905zM1.75 9.5a.25.25 0 00-.25.25v1.5c0 .138.112.25.25.25h20.5a.25.25 0 00.25-.25v-1.5a.25.25 0 00-.25-.25H1.75z"/></g></svg>