<svg xmlns="http://www.w3.org/2000/svg" width="24" height="24"><path fill-rule="evenodd" d="M2 3.75C2 2.784 2.784 2 3.75 2h16.5c.966 0 1.75.784 1.75 1.75v16.5A1.75 1.75 0 0120.25 22H3.75A1.75 1.75 0 012 20.25V3.75zM7.5 6.5a.75.75 0 000 1.5H8v8h-.5a.75.75 0 000 1.5h1.75v1.25a.75.75 0 001.5 0V17.5h2.625v1.25a.75.75 0 001.5 0v-1.26A3.125 3.125 0 0016.656 12a3.125 3.125 0 00-1.781-5.49V5.25a.75.75 0 00-1.5 0V6.5H10.75V5.25a.75.75 0 00-1.5 0V6.5H7.5zm2 1.5v3.25h5.125a1.625 1.625 0 100-3.25H9.5zm0 4.75h5.125a1.625 1.625 0 110 3.25H9.5v-3.25z"/></svg>