<svg xmlns="http://www.w3.org/2000/svg" width="24" height="24"><path fill-rule="evenodd" d="M10.667 4a.75.75 0 01.75.75v1.207H13V4.75a.75.75 0 011.5 0v1.23A3.397 3.397 0 0116.233 12a3.397 3.397 0 01-1.733 6.02v1.23a.75.75 0 01-1.5 0v-1.207h-1.583v1.207a.75.75 0 01-1.5 0v-1.207H7.75a.75.75 0 010-1.5h.75V7.457h-.75a.75.75 0 010-1.5h2.167V4.75a.75.75 0 01.75-.75zM16 9.354a1.896 1.896 0 01-1.896 1.896H10V7.457h4.104c1.047 0 1.896.85 1.896 1.897zm-6 7.189V12.75h4.104a1.896 1.896 0 110 3.793H10z"/><path fill-rule="evenodd" d="M23 12c0 6.075-4.925 11-11 11S1 18.075 1 12 5.925 1 12 1s11 4.925 11 11zm-1.5 0a9.5 9.5 0 11-19 0 9.5 9.5 0 0119 0z"/></svg>