<svg xmlns="http://www.w3.org/2000/svg" width="24" height="24"><path d="M10 12.75v3.793h4.104a1.896 1.896 0 000-3.793H10zm4.104-1.5a1.896 1.896 0 000-3.793H10v3.793h4.104z"/><path fill-rule="evenodd" d="M12 23c6.075 0 11-4.925 11-11S18.075 1 12 1 1 5.925 1 12s4.925 11 11 11zM10.667 4a.75.75 0 01.75.75v1.207H13V4.75a.75.75 0 011.5 0v1.23A3.397 3.397 0 0116.233 12a3.397 3.397 0 01-1.733 6.02v1.23a.75.75 0 01-1.5 0v-1.207h-1.583v1.207a.75.75 0 01-1.5 0v-1.207H7.75a.75.75 0 010-1.5h.75V7.457h-.75a.75.75 0 010-1.5h2.167V4.75a.75.75 0 01.75-.75zm3.437 7.25a1.896 1.896 0 000-3.793H10v3.793h4.104zM10 12.75v3.793h4.104a1.896 1.896 0 000-3.793H10z"/></svg>