<svg xmlns="http://www.w3.org/2000/svg" width="24" height="24"><path d="M19.5 1A.75.75 0 0018 1v3.25h-3.75a.75.75 0 000 1.5H18V9.5a.75.75 0 001.5 0V5.75h3.75a.75.75 0 000-1.5H19.5V1zM11 20.25a1.75 1.75 0 11-3.5 0 1.75 1.75 0 013.5 0zM18.75 22a1.75 1.75 0 100-3.5 1.75 1.75 0 000 3.5z"/><path d="M0 2.75A.75.75 0 01.75 2h3.387a1.75 1.75 0 011.731 1.494l.15 1.006h4.173a.75.75 0 010 1.5H6.24l.889 6h13.214a.75.75 0 010 1.5H7.351l.264 1.787a.25.25 0 00.248.213H20.25a.75.75 0 010 1.5H7.863a1.75 1.75 0 01-1.731-1.493L4.385 3.713a.25.25 0 00-.248-.213H.75A.75.75 0 010 2.75z"/></svg>