<svg xmlns="http://www.w3.org/2000/svg" width="24" height="24"><path d="M20.53.47a.75.75 0 00-1.28.53v4.5a.75.75 0 101.5 0V1a.75.75 0 00-.22-.53zm.177 8.987a1 1 0 11-1.414-1.414 1 1 0 011.414 1.414zM11 20.25a1.75 1.75 0 11-3.5 0 1.75 1.75 0 013.5 0zM18.75 22a1.75 1.75 0 100-3.5 1.75 1.75 0 000 3.5zM0 2.75A.75.75 0 01.75 2h3.387a1.75 1.75 0 011.731 1.494l.15 1.006h4.173a.75.75 0 010 1.5H6.24l.889 6h13.214a.75.75 0 010 1.5H7.351l.264 1.787a.25.25 0 00.248.213H20.25a.75.75 0 010 1.5H7.863a1.75 1.75 0 01-1.731-1.493L4.385 3.713a.25.25 0 00-.248-.213H.75A.75.75 0 010 2.75z"/></svg>