<svg xmlns="http://www.w3.org/2000/svg" width="24" height="24"><path d="M22.639 6.028l-2.344-2.135v5.61a.728.728 0 01-.232.528.812.812 0 01-.558.219.813.813 0 01-.558-.219.728.728 0 01-.231-.528v-5.61L16.37 6.028a.825.825 0 01-1.121.041.75.75 0 01-.18-.239.715.715 0 01.148-.823l3.71-3.52a.792.792 0 01.263-.175.828.828 0 01.891.175l3.71 3.52a.723.723 0 01.207.534.731.731 0 01-.25.517.815.815 0 01-.561.201.81.81 0 01-.55-.231zM11 20.25a1.75 1.75 0 11-3.5 0 1.75 1.75 0 013.5 0zM18.75 22a1.75 1.75 0 100-3.5 1.75 1.75 0 000 3.5zM0 2.75A.75.75 0 01.75 2h3.387a1.75 1.75 0 011.731 1.494l.15 1.006h4.173a.75.75 0 010 1.5H6.24l.889 6h13.214a.75.75 0 010 1.5H7.351l.264 1.787a.25.25 0 00.248.213H20.25a.75.75 0 010 1.5H7.863a1.75 1.75 0 01-1.731-1.493L4.385 3.713a.25.25 0 00-.248-.213H.75A.75.75 0 010 2.75z"/></svg>