<svg xmlns="http://www.w3.org/2000/svg" width="24" height="24"><path fill-rule="evenodd" d="M20.578.472a4.077 4.077 0 00-2.657 0l-2.646.913-.013.004c-.061.02-.254.082-.409.213a1 1 0 00-.285.4 1.22 1.22 0 00-.068.455v2.697c0 1.534.968 2.505 1.884 3.33.935.842 1.96 1.4 2.362 1.604l.01.005c.04.02.16.084.307.112a1.02 1.02 0 00.682-.112l.009-.005a11.44 11.44 0 002.362-1.604C23.032 7.659 24 6.688 24 5.154V2.458a1.225 1.225 0 00-.068-.456 1 1 0 00-.285-.4c-.155-.131-.348-.193-.409-.213l-.013-.004-2.647-.913zM18.41 1.89a2.577 2.577 0 011.678 0l2.412.831v2.433c0 .887-.573 1.482-1.387 2.215a9.855 9.855 0 01-1.863 1.29 9.855 9.855 0 01-1.863-1.29C16.573 6.636 16 6.04 16 5.154V2.72l2.41-.83z"/><path d="M11 20.25a1.75 1.75 0 11-3.5 0 1.75 1.75 0 013.5 0zM18.75 22a1.75 1.75 0 100-3.5 1.75 1.75 0 000 3.5zM0 2.75A.75.75 0 01.75 2h3.387a1.75 1.75 0 011.731 1.494l.15 1.006h4.173a.75.75 0 010 1.5H6.24l.889 6h13.214a.75.75 0 010 1.5H7.351l.264 1.787a.25.25 0 00.248.213H20.25a.75.75 0 010 1.5H7.863a1.75 1.75 0 01-1.731-1.493L4.385 3.713a.25.25 0 00-.248-.213H.75A.75.75 0 010 2.75z"/></svg>