<svg xmlns="http://www.w3.org/2000/svg" width="24" height="24"><path d="M20.194 1.779a1.558 1.558 0 00-1.035.185 1.51 1.51 0 00-.669.797.77.77 0 01-.977.46.748.748 0 01-.47-.96 3.02 3.02 0 011.34-1.592 3.117 3.117 0 012.071-.37 3.08 3.08 0 011.827 1.026A2.97 2.97 0 0123 3.263c0 1.15-.87 1.909-1.49 2.315a5.92 5.92 0 01-.574.329.643.643 0 00-.163.097.24.24 0 00-.058.093c-.013.04-.013.059-.013.151a.76.76 0 01-.767.752.76.76 0 01-.767-.752v-.732c0-.323.21-.61.523-.713 0 0 .198-.074.292-.115.189-.082.435-.204.676-.361.528-.345.808-.713.808-1.065a1.49 1.49 0 00-.36-.97 1.539 1.539 0 00-.913-.513zM20 8a1 1 0 110 2 1 1 0 010-2zm-9 12.25a1.75 1.75 0 11-3.5 0 1.75 1.75 0 013.5 0zM18.75 22a1.75 1.75 0 100-3.5 1.75 1.75 0 000 3.5zM0 2.75A.75.75 0 01.75 2h3.387a1.75 1.75 0 011.731 1.494l.15 1.006h4.173a.75.75 0 010 1.5H6.24l.889 6h13.214a.75.75 0 010 1.5H7.351l.264 1.787a.25.25 0 00.248.213H20.25a.75.75 0 010 1.5H7.863a1.75 1.75 0 01-1.731-1.493L4.385 3.713a.25.25 0 00-.248-.213H.75A.75.75 0 010 2.75z"/></svg>