<svg xmlns="http://www.w3.org/2000/svg" width="24" height="24"><path fill-rule="evenodd" d="M16.95 2.713c-.736 0-1.518.688-1.518 1.661 0 1.172.861 2.27 1.845 3.126.536.463 1.112.873 1.722 1.228a11.457 11.457 0 001.723-1.229c.983-.855 1.846-1.955 1.846-3.127 0-.973-.781-1.66-1.517-1.66-.519 0-.95.232-1.266.63-.4.504-1.17.504-1.57 0-.315-.398-.746-.629-1.265-.629zM14 4.374c0-1.78 1.423-3.122 2.95-3.123.81 0 1.512.31 2.05.814a2.958 2.958 0 012.051-.815c1.527 0 2.95 1.341 2.949 3.122 0 1.865-1.32 3.344-2.352 4.241l-.002.002a12.867 12.867 0 01-1.981 1.407h-.001a8.857 8.857 0 01-.239.131.99.99 0 01-.887-.017l-.004-.002a12.84 12.84 0 01-2.182-1.518l-.003-.001C15.318 7.717 14 6.239 14 4.375z"/><path d="M11 20.25a1.75 1.75 0 11-3.5 0 1.75 1.75 0 013.5 0zM18.75 22a1.75 1.75 0 100-3.5 1.75 1.75 0 000 3.5zM0 2.75A.75.75 0 01.75 2h3.387a1.75 1.75 0 011.731 1.494l.15 1.006h4.173a.75.75 0 010 1.5H6.24l.889 6h13.214a.75.75 0 010 1.5H7.351l.264 1.787a.25.25 0 00.248.213H20.25a.75.75 0 010 1.5H7.863a1.75 1.75 0 01-1.731-1.493L4.385 3.713a.25.25 0 00-.248-.213H.75A.75.75 0 010 2.75z"/></svg>