<svg xmlns="http://www.w3.org/2000/svg" width="24" height="24"><path fill-rule="evenodd" d="M3.75 2A1.75 1.75 0 002 3.75v16.5c0 .966.784 1.75 1.75 1.75h16.5A1.75 1.75 0 0022 20.25V3.75A1.75 1.75 0 0020.25 2H3.75zM3.5 3.75a.25.25 0 01.25-.25h16.5a.25.25 0 01.25.25v16.5a.25.25 0 01-.25.25H3.75a.25.25 0 01-.25-.25V3.75z"/><path fill-rule="evenodd" d="M12.75 5.75a.75.75 0 00-1.5 0v.548a5.751 5.751 0 000 11.403v.549a.75.75 0 001.5 0v-.549a5.756 5.756 0 004.521-3.4.75.75 0 10-1.374-.601 4.257 4.257 0 01-3.147 2.484V7.816a4.256 4.256 0 013.147 2.484.75.75 0 001.374-.6 5.756 5.756 0 00-4.521-3.402V5.75zm-1.5 2.066a4.251 4.251 0 000 8.368V7.816z"/></svg>