<svg xmlns="http://www.w3.org/2000/svg" width="24" height="24"><path fill-rule="evenodd" d="M12 4a.75.75 0 01.75.75v1.548A5.756 5.756 0 0117.271 9.7a.75.75 0 11-1.374.6 4.256 4.256 0 00-3.147-2.484v8.368a4.257 4.257 0 003.147-2.484.75.75 0 011.374.6 5.756 5.756 0 01-4.521 3.401v1.549a.75.75 0 01-1.5 0v-1.549a5.751 5.751 0 010-11.403V4.75A.75.75 0 0112 4zm-4.25 8a4.25 4.25 0 013.5-4.184v8.368A4.251 4.251 0 017.75 12z"/><path fill-rule="evenodd" d="M1 12C1 5.925 5.925 1 12 1s11 4.925 11 11-4.925 11-11 11S1 18.075 1 12zm4.282-6.718a9.5 9.5 0 1013.435 13.435A9.5 9.5 0 005.282 5.282z"/></svg>