<svg xmlns="http://www.w3.org/2000/svg" width="24" height="24"><path d="M23.795 17.265a.75.75 0 00-1.09-1.03L18.46 20.2l-2.206-2.005a.75.75 0 10-1.009 1.11l2.75 2.5a.75.75 0 001.05-.04l4.75-4.5zM3.5 9.25a.75.75 0 01.75-.75h12a.75.75 0 110 1.5h-12a.75.75 0 01-.75-.75zm0 3a.75.75 0 01.75-.75h6a.75.75 0 110 1.5h-6a.75.75 0 01-.75-.75z"/><path d="M1.75 5A1.75 1.75 0 000 6.75v10.5A1.75 1.75 0 001.75 19h7.5a.75.75 0 000-1.5h-7.5a.25.25 0 01-.25-.25V6.75a.25.25 0 01.25-.25h20.5a.25.25 0 01.25.25v5.5a.75.75 0 001.5 0v-5.5A1.75 1.75 0 0022.25 5H1.75z"/></svg>