<svg xmlns="http://www.w3.org/2000/svg" width="24" height="24"><path fill-rule="evenodd" d="M19 14a5 5 0 100 10 5 5 0 000-10zm-1.887 2.052a3.5 3.5 0 014.835 4.835l-4.835-4.835zm-1.061 1.06a3.5 3.5 0 004.835 4.835l-4.835-4.834z"/><path d="M3.5 9.25a.75.75 0 01.75-.75h12a.75.75 0 110 1.5h-12a.75.75 0 01-.75-.75zm0 3a.75.75 0 01.75-.75h6a.75.75 0 110 1.5h-6a.75.75 0 01-.75-.75z"/><path d="M1.75 5A1.75 1.75 0 000 6.75v10.5A1.75 1.75 0 001.75 19h7.5a.75.75 0 000-1.5h-7.5a.25.25 0 01-.25-.25V6.75a.25.25 0 01.25-.25h20.5a.25.25 0 01.25.25v5.5a.75.75 0 001.5 0v-5.5A1.75 1.75 0 0022.25 5H1.75z"/></svg>