<svg xmlns="http://www.w3.org/2000/svg" width="24" height="24"><path d="M19.778 22.639l-2.135-2.344h5.61a.728.728 0 00.528-.232.812.812 0 00.219-.558c0-.21-.079-.41-.219-.558a.728.728 0 00-.528-.231h-5.61l2.135-2.345a.825.825 0 00.041-1.121.75.75 0 00-.239-.18.714.714 0 00-.823.148l-3.52 3.71a.792.792 0 00-.175.263.828.828 0 00.175.891l3.52 3.71a.723.723 0 00.534.207.731.731 0 00.517-.25.815.815 0 00.201-.561.81.81 0 00-.231-.55zM3.5 9.25a.75.75 0 01.75-.75h12a.75.75 0 110 1.5h-12a.75.75 0 01-.75-.75zm0 3a.75.75 0 01.75-.75h6a.75.75 0 110 1.5h-6a.75.75 0 01-.75-.75z"/><path d="M1.75 5A1.75 1.75 0 000 6.75v10.5A1.75 1.75 0 001.75 19h7.5a.75.75 0 000-1.5h-7.5a.25.25 0 01-.25-.25V6.75a.25.25 0 01.25-.25h20.5a.25.25 0 01.25.25v5.5a.75.75 0 001.5 0v-5.5A1.75 1.75 0 0022.25 5H1.75z"/></svg>