<svg xmlns="http://www.w3.org/2000/svg" width="24" height="24"><path fill-rule="evenodd" d="M20.578 14.223a4.076 4.076 0 00-2.657 0l-2.646.912-.013.004c-.061.02-.254.082-.409.213a1 1 0 00-.285.4 1.22 1.22 0 00-.068.455v2.697c0 1.534.968 2.505 1.884 3.33.935.842 1.96 1.4 2.362 1.604l.01.005c.04.02.16.084.307.112a1.02 1.02 0 00.682-.112l.009-.005a11.437 11.437 0 002.362-1.604c.916-.825 1.884-1.796 1.884-3.33v-2.697a1.225 1.225 0 00-.068-.455 1 1 0 00-.285-.4c-.155-.131-.348-.193-.409-.213l-.013-.005-2.647-.912zM18.41 15.64a2.578 2.578 0 011.678 0l2.412.831v2.433c0 .887-.573 1.482-1.387 2.215a9.857 9.857 0 01-1.863 1.29 9.857 9.857 0 01-1.863-1.29C16.573 20.386 16 19.79 16 18.904V16.47l2.41-.83z"/><path d="M3.5 9.25a.75.75 0 01.75-.75h12a.75.75 0 110 1.5h-12a.75.75 0 01-.75-.75zm0 3a.75.75 0 01.75-.75h6a.75.75 0 110 1.5h-6a.75.75 0 01-.75-.75z"/><path d="M1.75 5A1.75 1.75 0 000 6.75v10.5A1.75 1.75 0 001.75 19h7.5a.75.75 0 000-1.5h-7.5a.25.25 0 01-.25-.25V6.75a.25.25 0 01.25-.25h20.5a.25.25 0 01.25.25v5.5a.75.75 0 001.5 0v-5.5A1.75 1.75 0 0022.25 5H1.75z"/></svg>