<svg xmlns="http://www.w3.org/2000/svg" width="24" height="24"><path d="M16.361 19.222l2.344 2.135v-5.61c0-.198.084-.388.232-.528a.812.812 0 01.558-.219c.21 0 .41.079.558.219.148.14.231.33.231.528v5.61l2.345-2.135a.825.825 0 011.121-.041.75.75 0 01.18.239.714.714 0 01-.148.823l-3.71 3.52a.792.792 0 01-.263.175.828.828 0 01-.891-.175l-3.71-3.52a.725.725 0 01-.207-.534.731.731 0 01.25-.517.815.815 0 01.562-.201.81.81 0 01.548.231zM3.5 9.25a.75.75 0 01.75-.75h12a.75.75 0 110 1.5h-12a.75.75 0 01-.75-.75zm0 3a.75.75 0 01.75-.75h6a.75.75 0 110 1.5h-6a.75.75 0 01-.75-.75z"/><path d="M1.75 5A1.75 1.75 0 000 6.75v10.5A1.75 1.75 0 001.75 19h7.5a.75.75 0 000-1.5h-7.5a.25.25 0 01-.25-.25V6.75a.25.25 0 01.25-.25h20.5a.25.25 0 01.25.25v5.5a.75.75 0 001.5 0v-5.5A1.75 1.75 0 0022.25 5H1.75z"/></svg>