<svg xmlns="http://www.w3.org/2000/svg" width="24" height="24"><path d="M3.573 3.573A.25.25 0 013.75 3.5h3.5a.75.75 0 000-1.5h-3.5A1.75 1.75 0 002 3.75v3.5a.75.75 0 001.5 0v-3.5a.25.25 0 01.073-.177zM16.22 2.22a.75.75 0 00.53 1.28h3.5a.25.25 0 01.25.25v3.5a.75.75 0 101.5 0v-3.5A1.75 1.75 0 0020.25 2h-3.5a.75.75 0 00-.53.22zm-12.94 14a.75.75 0 00-1.28.53v3.5A1.75 1.75 0 003.75 22h3.5a.75.75 0 100-1.5h-3.5a.25.25 0 01-.25-.25v-3.5a.75.75 0 00-.22-.53zm18.5 0a.75.75 0 00-1.28.53v3.5a.25.25 0 01-.25.25h-3.5a.75.75 0 100 1.5h3.5A1.75 1.75 0 0022 20.25v-3.5a.75.75 0 00-.22-.53zM2.75 10.75a.75.75 0 000 1.5h18.5a.75.75 0 000-1.5H2.75z"/></svg>