<svg xmlns="http://www.w3.org/2000/svg" width="24" height="24"><path fill-rule="evenodd" d="M3.105 2.63C4.202 2.233 5.667 2 7.25 2c1.583 0 3.048.232 4.145.63.546.2 1.04.453 1.412.773.37.317.693.77.693 1.347v4c0 .038-.001.076-.004.113.948-.233 2.068-.363 3.254-.363 1.583 0 3.048.232 4.145.63.546.2 1.04.453 1.412.773.37.317.693.77.693 1.347v8c0 .577-.324 1.03-.693 1.347-.372.32-.866.574-1.412.772-1.097.399-2.562.631-4.145.631-1.583 0-3.048-.232-4.145-.63-.546-.2-1.04-.453-1.412-.773-.37-.317-.693-.77-.693-1.347v-.112c-.947.232-2.065.362-3.25.362-1.583 0-3.048-.232-4.145-.63-.546-.2-1.04-.453-1.412-.773-.37-.317-.693-.77-.693-1.347v-12c0-.577.324-1.03.693-1.347.372-.32.866-.574 1.412-.772zM10.5 17.586v-2.447c-.947.232-2.065.362-3.25.362-1.583 0-3.048-.232-4.145-.63a6.168 6.168 0 01-.605-.256v2.134c.003.014.025.086.171.212.185.159.496.336.946.5.894.324 2.178.54 3.633.54 1.257 0 2.388-.16 3.25-.415zm0-4V11.25c0-.038.001-.076.004-.113-.948.233-2.068.363-3.254.363-1.583 0-3.048-.232-4.145-.63a6.168 6.168 0 01-.605-.256v2.134c.003.014.025.086.171.212.185.159.496.336.946.5.894.324 2.178.54 3.633.54 1.257 0 2.388-.16 3.25-.415zm-8-8.835c.005-.018.031-.09.171-.21.185-.159.496-.336.946-.5.894-.324 2.178-.54 3.633-.54s2.74.216 3.633.54c.45.164.761.341.946.5.14.12.166.192.17.21-.004.018-.03.09-.17.21-.185.159-.496.336-.946.5-.894.324-2.178.54-3.633.54s-2.74-.216-3.633-.54c-.45-.164-.761-.341-.946-.5-.14-.12-.166-.192-.17-.21zm8.895 2.12c.21-.077.414-.162.605-.256v2.134c-.003.014-.025.086-.171.212-.185.159-.496.336-.946.5-.894.324-2.178.54-3.633.54s-2.74-.216-3.633-.54c-.45-.164-.761-.341-.946-.5-.146-.126-.168-.198-.171-.212V6.614c.191.094.394.179.605.255 1.097.399 2.562.631 4.145.631 1.583 0 3.048-.232 4.145-.63zm.776 4.17c-.14.12-.166.192-.17.21.004.018.03.09.17.21.185.159.496.336.946.5.894.324 2.178.54 3.633.54s2.74-.216 3.633-.54c.45-.164.761-.341.946-.5.14-.12.166-.192.17-.21-.004-.018-.03-.09-.17-.21-.185-.159-.496-.336-.946-.5-.894-.324-2.178-.54-3.633-.54s-2.74.216-3.633.54c-.45.164-.761.341-.946.5zm8.724 2.33c.21-.077.414-.162.605-.256v2.134c-.003.014-.025.086-.171.212-.185.159-.496.336-.946.5-.894.324-2.178.54-3.633.54s-2.74-.216-3.633-.54c-.45-.164-.761-.341-.946-.5-.146-.126-.168-.198-.171-.212v-2.134c.191.094.394.178.605.255 1.097.399 2.562.631 4.145.631 1.583 0 3.048-.232 4.145-.63zm0 4a6.5 6.5 0 00.605-.256v2.134c-.003.014-.025.086-.171.212-.185.159-.496.336-.946.5-.894.324-2.178.54-3.633.54s-2.74-.216-3.633-.54c-.45-.164-.761-.341-.946-.5-.146-.126-.168-.198-.171-.212v-2.134c.191.094.394.178.605.255 1.097.399 2.562.631 4.145.631 1.583 0 3.048-.232 4.145-.63z"/></svg>