<svg xmlns="http://www.w3.org/2000/svg" width="24" height="24"><path fill-rule="evenodd" d="M7.25 2c-1.583 0-3.048.232-4.145.63-.546.2-1.04.453-1.412.773C1.323 3.72 1 4.173 1 4.75v12c0 .577.324 1.03.693 1.347.372.32.866.574 1.412.772 1.097.399 2.562.631 4.145.631 1.528 0 2.96-.216 4.057-.6a6 6 0 102.193-6.774V4.75c0-.577-.324-1.03-.693-1.347-.372-.32-.866-.574-1.412-.772C10.298 2.232 8.833 2 7.25 2zm4.139 12.872c-1.097.397-2.56.628-4.139.628-1.583 0-3.048-.232-4.145-.63a6.168 6.168 0 01-.605-.256v2.134c.003.014.025.086.171.212.185.159.496.336.946.5.894.324 2.178.54 3.633.54 1.544 0 2.88-.242 3.764-.59a6.047 6.047 0 01.375-2.538zM2.67 4.54c-.14.12-.166.192-.17.21.004.018.03.09.17.21.185.159.496.336.946.5.894.324 2.178.54 3.633.54s2.74-.216 3.633-.54c.45-.164.761-.341.946-.5.14-.12.166-.192.17-.21-.004-.018-.03-.09-.17-.21-.185-.159-.496-.336-.946-.5-.894-.324-2.178-.54-3.633-.54s-2.74.216-3.633.54c-.45.164-.761.341-.946.5zm8.724 2.33c.21-.077.414-.162.605-.256v2.134c-.003.014-.025.086-.171.212-.185.159-.496.336-.946.5-.894.324-2.178.54-3.633.54s-2.74-.216-3.633-.54c-.45-.164-.761-.341-.946-.5-.146-.126-.168-.198-.171-.212V6.614c.191.094.394.179.605.255 1.097.399 2.562.631 4.145.631 1.583 0 3.048-.232 4.145-.63zm0 4c.21-.077.414-.162.605-.256v2.134c-.003.014-.025.086-.171.212-.185.159-.496.336-.946.5-.894.324-2.178.54-3.633.54s-2.74-.216-3.633-.54c-.45-.164-.761-.341-.946-.5-.146-.126-.168-.198-.171-.212v-2.134c.191.094.394.178.605.255 1.097.399 2.562.631 4.145.631 1.583 0 3.048-.232 4.145-.63zM12.5 17a4.5 4.5 0 119 0 4.5 4.5 0 01-9 0z"/></svg>