<svg xmlns="http://www.w3.org/2000/svg" width="24" height="24"><path d="M20.194 15.529a1.557 1.557 0 00-1.035.185 1.51 1.51 0 00-.669.797.77.77 0 01-.977.46.748.748 0 01-.47-.96 3.02 3.02 0 011.339-1.593 3.116 3.116 0 012.071-.37 3.08 3.08 0 011.827 1.026 2.97 2.97 0 01.72 1.939c0 1.15-.87 1.909-1.49 2.315-.2.13-.396.24-.574.329a.644.644 0 00-.163.097.24.24 0 00-.058.093c-.013.04-.013.085-.013.178v.223a.76.76 0 01-.767.752.76.76 0 01-.767-.752v-.982c0-.323.21-.61.523-.713 0 0 .198-.074.292-.115.189-.082.435-.204.676-.361.528-.345.808-.713.808-1.065a1.49 1.49 0 00-.36-.97 1.538 1.538 0 00-.913-.513zM20 22a1 1 0 110 2 1 1 0 010-2z"/><path fill-rule="evenodd" d="M1.75 3A1.75 1.75 0 000 4.75v14.5C0 20.216.784 21 1.75 21h7.5a.75.75 0 000-1.5h-7.5a.25.25 0 01-.25-.25V10h21v1.25a.75.75 0 001.5 0v-6.5A1.75 1.75 0 0022.25 3H1.75zm-.177 1.573a.25.25 0 00-.073.177V8.5h21V4.75a.25.25 0 00-.25-.25H1.75a.25.25 0 00-.177.073z"/></svg>