<svg xmlns="http://www.w3.org/2000/svg" width="24" height="24"><path fill-rule="evenodd" d="M1.75 3A1.75 1.75 0 000 4.75v14.5C0 20.216.784 21 1.75 21h7.5a.75.75 0 000-1.5h-7.5a.25.25 0 01-.25-.25V10h21v1.25a.75.75 0 001.5 0v-6.5A1.75 1.75 0 0022.25 3H1.75zm-.177 1.573a.25.25 0 00-.073.177V8.5h21V4.75a.25.25 0 00-.25-.25H1.75a.25.25 0 00-.177.073z"/><path fill-rule="evenodd" d="M20.14 13.96a.75.75 0 011.061 0l2.475 2.475a.75.75 0 010 1.06l-5.834 5.834a.75.75 0 01-.437.214l-2.828.354a.75.75 0 01-.838-.838l.354-2.828a.75.75 0 01.214-.438l5.833-5.833zm.53 1.59l-5.12 5.122-.203 1.616 1.617-.202 5.121-5.12-1.414-1.415z"/></svg>