<svg xmlns="http://www.w3.org/2000/svg" width="24" height="24"><path d="M16.22 16.22a.75.75 0 011.06 0L20 18.94l2.72-2.72a.75.75 0 111.06 1.06L21.06 20l2.72 2.72a.75.75 0 11-1.06 1.06L20 21.06l-2.72 2.72a.75.75 0 11-1.06-1.06L18.94 20l-2.72-2.72a.75.75 0 010-1.06z"/><path fill-rule="evenodd" d="M1.75 3A1.75 1.75 0 000 4.75v14.5C0 20.216.784 21 1.75 21h7.5a.75.75 0 000-1.5h-7.5a.25.25 0 01-.25-.25V10h21v1.25a.75.75 0 001.5 0v-6.5A1.75 1.75 0 0022.25 3H1.75zm-.177 1.573a.25.25 0 00-.073.177V8.5h21V4.75a.25.25 0 00-.25-.25H1.75a.25.25 0 00-.177.073z"/></svg>