<svg xmlns="http://www.w3.org/2000/svg" width="24" height="24"><path d="M19.778 22.639l-2.135-2.344h5.61a.728.728 0 00.528-.232.812.812 0 00.219-.558c0-.21-.079-.41-.219-.558a.728.728 0 00-.528-.231h-5.61l2.135-2.345a.825.825 0 00.041-1.121.75.75 0 00-.239-.18.714.714 0 00-.823.148l-3.52 3.71a.792.792 0 00-.175.263.828.828 0 00.175.891l3.52 3.71a.723.723 0 00.534.207.731.731 0 00.517-.25.815.815 0 00.201-.561.81.81 0 00-.231-.55z"/><path fill-rule="evenodd" d="M1.75 3A1.75 1.75 0 000 4.75v14.5C0 20.216.784 21 1.75 21h7.5a.75.75 0 000-1.5h-7.5a.25.25 0 01-.25-.25V10h21v1.25a.75.75 0 001.5 0v-6.5A1.75 1.75 0 0022.25 3H1.75zm-.177 1.573a.25.25 0 00-.073.177V8.5h21V4.75a.25.25 0 00-.25-.25H1.75a.25.25 0 00-.177.073z"/></svg>