<svg xmlns="http://www.w3.org/2000/svg" width="24" height="24"><g fill-rule="evenodd"><path d="M1.75 3A1.75 1.75 0 000 4.75v14.5C0 20.216.784 21 1.75 21h7.5a.75.75 0 000-1.5h-7.5a.25.25 0 01-.25-.25V10h21v1.25a.75.75 0 001.5 0v-6.5A1.75 1.75 0 0022.25 3H1.75zm-.177 1.573a.25.25 0 00-.073.177V8.5h21V4.75a.25.25 0 00-.25-.25H1.75a.25.25 0 00-.177.073z"/><path d="M20.578 14.223a4.077 4.077 0 00-2.657 0l-2.646.912-.013.004c-.061.02-.254.082-.409.213a1 1 0 00-.285.4 1.22 1.22 0 00-.068.455v2.697c0 1.534.968 2.505 1.884 3.33.935.842 1.96 1.4 2.362 1.604l.01.005c.04.02.16.084.307.112a1.02 1.02 0 00.682-.112l.009-.005a11.439 11.439 0 002.362-1.604c.916-.825 1.884-1.796 1.884-3.33v-2.697c.001-.063.005-.266-.068-.455a1 1 0 00-.285-.4c-.155-.131-.348-.193-.409-.213l-.013-.004-2.647-.912zM18.41 15.64a2.578 2.578 0 011.678 0l2.412.831v2.433c0 .887-.573 1.482-1.387 2.215a9.857 9.857 0 01-1.863 1.29 9.857 9.857 0 01-1.863-1.29C16.573 20.386 16 19.79 16 18.904V16.47l2.41-.83z"/></g></svg>