<svg xmlns="http://www.w3.org/2000/svg" width="24" height="24"><path d="M21.53 8.78a.75.75 0 01-1.06 0l-2.25-2.25a.75.75 0 011.06-1.06l.97.97V4.75A2.25 2.25 0 0018 2.5h-2.25a.75.75 0 010-1.5H18a3.75 3.75 0 013.75 3.75v1.69l.97-.97a.75.75 0 111.06 1.06l-2.25 2.25z"/><path fill-rule="evenodd" d="M15.5 9a6.87 6.87 0 00-.52.02 6.5 6.5 0 10-5.96 5.96A6.5 6.5 0 1015.5 9zm-2-.5c0 .285-.024.564-.07.836a6.517 6.517 0 00-4.094 4.094A5 5 0 1113.5 8.5zm2 12a5 5 0 100-10 5 5 0 000 10z"/><path d="M3.53 15.22a.75.75 0 00-1.06 0L.22 17.47a.75.75 0 101.06 1.06l.97-.97v1.69A3.75 3.75 0 006 23h2.25a.75.75 0 000-1.5H6a2.25 2.25 0 01-2.25-2.25v-1.69l.97.97a.75.75 0 001.06-1.06l-2.25-2.25z"/></svg>