<svg xmlns="http://www.w3.org/2000/svg" width="24" height="24"><path fill-rule="evenodd" d="M17.517 3a.74.74 0 00-.034 0H6.44a.75.75 0 00-.567.26l-.001-.001-5.19 6a.75.75 0 00.02 1.003L11.44 21.749l.03.031a.744.744 0 00.529.22.752.752 0 00.561-.25l10.738-11.488a.75.75 0 00.028-.992l-5-6A.75.75 0 0017.75 3h-.233zm-3.813 15.33l7.32-7.83h-4.86l-2.46 7.83zM15.064 9H8.936L7.522 4.5h8.956L15.064 9zm1.572 0l1.236-3.932L21.148 9h-4.512zm-2.044 1.5L12 18.749 9.408 10.5h5.184zM2.89 9l3.282-3.793L7.364 9H2.89zm.088 1.5h4.857l2.461 7.83-7.318-7.83z"/></svg>