<svg xmlns="http://www.w3.org/2000/svg" width="24" height="24"><path fill-rule="evenodd" d="M3.75 2A1.75 1.75 0 002 3.75v16.5c0 .966.784 1.75 1.75 1.75h16.5A1.75 1.75 0 0022 20.25V3.75A1.75 1.75 0 0020.25 2H3.75zM3.5 3.75a.25.25 0 01.25-.25h16.5a.25.25 0 01.25.25v16.5a.25.25 0 01-.25.25H3.75a.25.25 0 01-.25-.25V3.75z"/><path fill-rule="evenodd" d="M12.75 5.25a.75.75 0 00-1.5 0v.754c-1.154.041-2.166.434-2.914 1.014C7.56 7.618 7 8.484 7 9.419c0 .943.568 1.789 1.349 2.367.75.556 1.758.921 2.901.96v3.749c-.823-.04-1.512-.324-1.995-.699-.54-.417-.755-.887-.755-1.215a.75.75 0 00-1.5 0c0 .935.56 1.8 1.336 2.401.748.58 1.76.973 2.914 1.014v.754a.75.75 0 001.5 0v-.754c1.154-.041 2.166-.434 2.914-1.014.776-.6 1.336-1.466 1.336-2.401 0-.943-.568-1.789-1.349-2.367-.75-.556-1.758-.921-2.901-.96V7.505c.823.04 1.512.324 1.995.698.54.418.755.888.755 1.216a.75.75 0 101.5 0c0-.935-.56-1.8-1.336-2.401-.748-.58-1.76-.973-2.914-1.014V5.25zm-1.5 2.255c-.823.04-1.512.324-1.995.698-.54.418-.755.888-.755 1.216 0 .322.208.766.742 1.162.48.357 1.174.626 2.008.664v-3.74zm1.5 5.25v3.74c.823-.04 1.512-.324 1.995-.699.54-.417.755-.887.755-1.215 0-.322-.208-.766-.742-1.162-.48-.357-1.174-.626-2.008-.664z"/></svg>