<svg xmlns="http://www.w3.org/2000/svg" width="24" height="24"><path fill-rule="evenodd" d="M12 4a.75.75 0 01.75.75v1.254c1.154.041 2.166.434 2.914 1.014.776.6 1.336 1.466 1.336 2.401a.75.75 0 11-1.5 0c0-.328-.216-.798-.755-1.216-.483-.374-1.172-.657-1.995-.698v3.749c1.143.039 2.151.404 2.901.96.78.578 1.349 1.424 1.349 2.367 0 .935-.56 1.8-1.336 2.401-.748.58-1.76.973-2.914 1.014v1.254a.75.75 0 01-1.5 0v-1.254c-1.154-.041-2.166-.434-2.914-1.014C7.56 16.382 7 15.516 7 14.581a.75.75 0 011.5 0c0 .328.216.798.755 1.216.483.374 1.172.657 1.995.698v-3.749c-1.143-.039-2.151-.404-2.901-.96C7.569 11.208 7 10.362 7 9.42c0-.935.56-1.8 1.336-2.401.748-.58 1.76-.973 2.914-1.014V4.75A.75.75 0 0112 4zM9.255 8.203c.483-.374 1.172-.657 1.995-.698v3.74c-.834-.038-1.527-.307-2.008-.664-.534-.396-.742-.84-.742-1.162 0-.328.216-.798.755-1.216zm3.495 8.292v-3.74c.834.038 1.527.307 2.008.664.534.396.742.84.742 1.162 0 .328-.216.798-.755 1.216-.483.374-1.172.657-1.995.698z"/><path fill-rule="evenodd" d="M1 12C1 5.925 5.925 1 12 1s11 4.925 11 11-4.925 11-11 11S1 18.075 1 12zm4.282-6.718a9.5 9.5 0 1013.435 13.435A9.5 9.5 0 005.282 5.282z"/></svg>