<svg xmlns="http://www.w3.org/2000/svg" width="24" height="24"><path fill-rule="evenodd" d="M12.75 2.75a.75.75 0 00-1.5 0v.75c-3.252 0-5.5 2.015-5.5 4.5 0 2.428 2.184 4.75 5.5 4.75V19c-2.666 0-4-1.567-4-3a.75.75 0 00-1.5 0c0 2.485 2.248 4.5 5.5 4.5v.75a.75.75 0 001.5 0v-.75c3.252 0 5.5-2.015 5.5-4.5 0-2.428-2.184-4.75-5.5-4.75V5c2.666 0 4 1.567 4 3a.75.75 0 001.5 0c0-2.485-2.248-4.5-5.5-4.5v-.75zM11.25 5c-2.666 0-4 1.567-4 3 0 1.49 1.398 3.25 4 3.25V5zm1.5 7.75V19c2.666 0 4-1.567 4-3 0-1.49-1.398-3.25-4-3.25z"/></svg>