<svg xmlns="http://www.w3.org/2000/svg" width="24" height="24"><path fill-rule="evenodd" d="M12.597 4.296a.75.75 0 00-1.194 0l-6.25 8.22a.75.75 0 00.065.983l6.25 6.28a.75.75 0 001.064 0l6.25-6.28a.75.75 0 00.065-.983l-6.25-8.22zm-4.828 7.258l3.481-4.579v3.492l-3.481 1.087zm.55 1.4L12 11.804l3.682 1.15L12 14.053l-3.682-1.1zm3.895 2.6l3.423-1.022L12 18.187l-3.637-3.655 3.423 1.022a.75.75 0 00.428 0zm.536-8.579l3.481 4.579-3.481-1.087V6.975z"/><path fill-rule="evenodd" d="M12 23c6.075 0 11-4.925 11-11S18.075 1 12 1 1 5.925 1 12s4.925 11 11 11zm0-1.5a9.5 9.5 0 100-19 9.5 9.5 0 000 19z"/></svg>