<svg xmlns="http://www.w3.org/2000/svg" width="24" height="24"><path fill-rule="evenodd" d="M12 23c6.075 0 11-4.925 11-11S18.075 1 12 1 1 5.925 1 12s4.925 11 11 11zm.597-18.704a.75.75 0 00-1.194 0l-6.25 8.22a.75.75 0 00.065.983l6.25 6.28a.75.75 0 001.064 0l6.25-6.28a.75.75 0 00.065-.983l-6.25-8.22z"/><path d="M12 11.804l-3.682 1.15L12 14.053l3.682-1.1L12 11.805zm-.75-4.829l-3.481 4.579 3.481-1.087V6.975zm4.981 4.579L12.75 6.975v3.492l3.481 1.087zm-.594 2.978l-3.423 1.022a.75.75 0 01-.428 0l-3.423-1.021L12 18.187l3.637-3.655z"/></svg>