<svg xmlns="http://www.w3.org/2000/svg" width="24" height="24"><path fill-rule="evenodd" d="M12 1a.75.75 0 01.56.25l8.25 9.25a.75.75 0 01-.404 1.234l-8.25 1.75a.752.752 0 01-.312 0l-8.25-1.75A.75.75 0 013.19 10.5l8.25-9.25A.75.75 0 0112 1zm-.75 2.718l-5.165 5.79 5.165-1.564V3.718zM12 9.284l-5.24 1.588L12 11.983l5.24-1.111L12 9.284zm5.915.225L12.75 7.944V3.718l5.165 5.79zm-13.822 4.88a.75.75 0 01.809-.373L12 15.484l7.098-1.468a.75.75 0 01.691 1.255l-7.25 7.5a.75.75 0 01-1.078 0l-7.25-7.5a.75.75 0 01-.118-.883zm2.886 1.588L12 21.171l5.02-5.194-4.868 1.007a.741.741 0 01-.304 0l-4.869-1.007z"/></svg>