<svg xmlns="http://www.w3.org/2000/svg" width="24" height="24"><path fill-rule="evenodd" d="M3.75 2A1.75 1.75 0 002 3.75v16.5c0 .966.784 1.75 1.75 1.75h16.5A1.75 1.75 0 0022 20.25V3.75A1.75 1.75 0 0020.25 2H3.75zm8.847 2.296a.75.75 0 00-1.194 0l-6.25 8.22a.75.75 0 00.065.983l6.25 6.28a.75.75 0 001.064 0l6.25-6.28a.75.75 0 00.065-.983l-6.25-8.22zm-1.347 2.68l-3.481 4.578 3.481-1.087V6.975zm.75 4.828l-3.682 1.15L12 14.053l3.682-1.1L12 11.805zm3.637 2.728l-3.423 1.022a.75.75 0 01-.428 0l-3.423-1.021L12 18.187l3.637-3.655zm.594-2.978L12.75 6.975v3.492l3.481 1.087z"/></svg>