<svg xmlns="http://www.w3.org/2000/svg" width="24" height="24"><path fill-rule="evenodd" d="M1 12C1 5.925 5.925 1 12 1s11 4.925 11 11-4.925 11-11 11S1 18.075 1 12zm4.282-6.718a9.5 9.5 0 1013.435 13.435A9.5 9.5 0 005.282 5.282z"/><path d="M8.36 9.54a5.25 5.25 0 018.352-1.252.75.75 0 001.061-1.061 6.752 6.752 0 00-11.06 2.314H5.75a.75.75 0 100 1.5h.568a6.808 6.808 0 000 1.918H5.75a.75.75 0 100 1.5h.962a6.752 6.752 0 0011.061 2.314.75.75 0 00-1.06-1.06A5.25 5.25 0 018.36 14.46h2.935a.75.75 0 100-1.5H7.837a5.28 5.28 0 010-1.92h4.459a.75.75 0 100-1.5H8.36z"/></svg>