<svg xmlns="http://www.w3.org/2000/svg" width="24" height="24"><path fill-rule="evenodd" d="M0 4.75C0 3.784.784 3 1.75 3h20.5c.966 0 1.75.784 1.75 1.75v14.5A1.75 1.75 0 0122.25 21H1.75A1.75 1.75 0 010 19.25V4.75zm1.75-.25a.25.25 0 00-.25.25v6.5h4.432a2.88 2.88 0 01-.57-.692c-.789-1.351-.074-2.778.873-3.604.964-.84 2.47-1.364 3.863-.809.428.17.815.43 1.152.778V4.5h-9.5zm11 2.423a3.282 3.282 0 011.152-.778c1.392-.555 2.899-.032 3.863.809.947.826 1.662 2.253.874 3.604a2.88 2.88 0 01-.571.692H22.5v-6.5a.25.25 0 00-.25-.25h-9.5v2.423zm9.75 5.827h-9.395c.174.349.414.755.734 1.16.828 1.05 2.19 2.09 4.411 2.09a.75.75 0 010 1.5c-2.701 0-4.444-1.262-5.5-2.55v4.55h9.5a.25.25 0 00.25-.25v-6.5zM11.25 19.5v-4.55c-1.056 1.288-2.799 2.55-5.5 2.55a.75.75 0 010-1.5c2.222 0 3.583-1.04 4.411-2.09.32-.405.56-.811.734-1.16H1.5v6.5c0 .138.112.25.25.25h9.5zm-.227-8.272c-1.438-.067-2.463-.281-3.168-.56-.706-.28-1.045-.604-1.198-.865a.92.92 0 01-.125-.385A1.08 1.08 0 016.58 9c.093-.304.312-.63.64-.917a2.786 2.786 0 011.144-.601c.413-.102.818-.088 1.178.055.353.141.717.428 1.023.968.31.55.563 1.368.65 2.547a.148.148 0 01-.047.119.194.194 0 01-.146.056zm1.954 0c1.438-.067 2.463-.281 3.168-.56.706-.28 1.045-.604 1.198-.865a.92.92 0 00.125-.385A1.081 1.081 0 0017.42 9c-.093-.304-.312-.63-.64-.917a2.789 2.789 0 00-1.144-.601c-.413-.102-.818-.088-1.178.055-.353.141-.717.428-1.023.968-.31.55-.563 1.368-.65 2.547a.148.148 0 00.047.119c.037.037.09.059.146.056z"/></svg>