<svg xmlns="http://www.w3.org/2000/svg" width="24" height="24"><path d="M14.5 1.75a.75.75 0 01-.75.75h-3.5a.75.75 0 010-1.5h3.5a.75.75 0 01.75.75zm-12 8.5a.75.75 0 00-1.5 0v3.5a.75.75 0 001.5 0v-3.5zm19.75-.75a.75.75 0 01.75.75v3.5a.75.75 0 01-1.5 0v-3.5a.75.75 0 01.75-.75zM14.5 22.25a.75.75 0 01-.75.75h-3.5a.75.75 0 010-1.5h3.5a.75.75 0 01.75.75zM1.75 18a.75.75 0 01.75.75v1.5c0 .69.56 1.25 1.25 1.25h1.5a.75.75 0 010 1.5h-1.5A2.75 2.75 0 011 20.25v-1.5a.75.75 0 01.75-.75zm19.75.75a.75.75 0 011.5 0v1.5A2.75 2.75 0 0120.25 23h-1.5a.75.75 0 010-1.5h1.5c.69 0 1.25-.56 1.25-1.25v-1.5zM1.75 6a.75.75 0 00.75-.75v-1.5c0-.69.56-1.25 1.25-1.25h1.5a.75.75 0 000-1.5h-1.5A2.75 2.75 0 001 3.75v1.5c0 .414.336.75.75.75zm19.75-.75a.75.75 0 001.5 0v-1.5A2.75 2.75 0 0020.25 1h-1.5a.75.75 0 000 1.5h1.5c.69 0 1.25.56 1.25 1.25v1.5zm-4.72 1.97a.75.75 0 010 1.06l-8.5 8.5a.75.75 0 01-1.06-1.06l8.5-8.5a.75.75 0 011.06 0zM10 8.75a1.25 1.25 0 11-2.5 0 1.25 1.25 0 012.5 0zm6.5 6.5a1.25 1.25 0 11-2.5 0 1.25 1.25 0 012.5 0z"/></svg>