<svg xmlns="http://www.w3.org/2000/svg" width="24" height="24"><path fill-rule="evenodd" d="M11.5 2a4.25 4.25 0 014.24 3.943l2.105-.297A2.549 2.549 0 0120.75 8.17v.034l.042.042a6.763 6.763 0 011.338 1.925l.037.079h.054c.13 0 .305 0 .464.007.08.003.17.01.253.02.058.007.209.027.354.097.255.123.461.329.584.584.082.17.106.333.115.457.01.11.009.235.009.352v3.453c0 .122 0 .255-.01.37-.01.13-.036.3-.126.477a1.25 1.25 0 01-.547.547 1.16 1.16 0 01-.365.106c-.088.012-.18.018-.264.022-.163.008-.345.008-.48.008h-.594l-.044.064a6.775 6.775 0 01-2.73 2.311l-.09.042V20.4c0 .56 0 .84-.109 1.054a1 1 0 01-.437.437C17.99 22 17.71 22 17.15 22h-1.8c-.56 0-.84 0-1.054-.109a1 1 0 01-.437-.437c-.11-.214-.11-.494-.11-1.054l-.001-.65h-3.496c-.002.096-.002.2-.002.3v.467c0 .108-.001.222-.01.323-.01.13-.036.3-.126.477a1.25 1.25 0 01-.547.547c-.176.09-.348.116-.478.127-.114.01-.247.009-.369.009H6.78c-.122 0-.255 0-.37-.01a1.259 1.259 0 01-.478-.126 1.25 1.25 0 01-.546-.547 1.259 1.259 0 01-.127-.477 4.751 4.751 0 01-.01-.37v-2.674l-.04-.042c-.945-.952-2.11-2.353-2.394-4.004H2.75a2.75 2.75 0 01-1.376-5.132.75.75 0 11.752 1.299 1.25 1.25 0 00.624 2.333h.076c.232-1.15.96-2.193 1.77-3.037.835-.869 1.837-1.61 2.733-2.142A4.25 4.25 0 0111.5 2zM8.75 6.25a2.75 2.75 0 115.482.314.753.753 0 00-.022.159 2.75 2.75 0 01-5.46-.473zm2.75 4.25a4.247 4.247 0 01-3.614-2.012c-.74.46-1.542 1.071-2.208 1.764-.892.93-1.428 1.888-1.428 2.748 0 1.32.956 2.622 2.023 3.698l.023.023c.074.074.192.191.272.322.07.115.116.229.148.36.035.148.034.304.034.399V20.5h2v-.458c0-.135 0-.317.008-.48.003-.083.01-.176.022-.264.008-.06.03-.216.106-.365a1.25 1.25 0 01.546-.547c.177-.09.349-.116.478-.127.115-.01.248-.009.37-.009h3.44c.122 0 .255 0 .37.01.13.01.3.036.477.126.236.12.427.311.547.547.076.149.098.304.106.365.012.088.018.18.022.264.008.163.008.345.008.48v.458c.207 0 .752 0 1.27-.007.267-.003.526-.007.73-.014v-1.298c-.001-.146-.003-.38.072-.592a1.21 1.21 0 01.608-.69c.078-.041.172-.085.265-.128l.013-.006a5.275 5.275 0 002.125-1.8l.023-.034c.075-.11.193-.284.341-.404.13-.105.266-.176.427-.224.182-.055.378-.054.499-.053h.577c.1 0 .204 0 .3-.002v-3.496a15 15 0 00-.286-.002h-.041c-.14.001-.363.003-.565-.066a1.21 1.21 0 01-.712-.618c-.04-.075-.08-.165-.122-.253l-.006-.013a5.265 5.265 0 00-1.041-1.498l-.023-.023a1.82 1.82 0 01-.272-.322 1.214 1.214 0 01-.148-.36c-.035-.148-.034-.304-.034-.399V8.17c0-.637-.564-1.127-1.195-1.038l-2.293.323a1.354 1.354 0 01-.197.038A4.252 4.252 0 0111.5 10.5z"/></svg>