<svg xmlns="http://www.w3.org/2000/svg" width="24" height="24"><path d="M9.344 4.435c-.41.444-.709 1.111-.71 2.115.013.943.42 1.785.94 2.862l.055.113c.35.726.732 1.539.947 2.475h3.674a.75.75 0 010 1.5h-3.5c0 2.333-1.026 4.418-2 5.881-.281.421-.562.797-.82 1.119h9.57a.75.75 0 010 1.5H6.25a.75.75 0 01-.513-1.297l.006-.006.026-.025.107-.107c.095-.096.233-.24.4-.428.333-.375.78-.919 1.225-1.587.9-1.352 1.749-3.141 1.749-5.05h-3.5a.75.75 0 010-1.5h3.277c-.18-.618-.452-1.208-.75-1.823l-.097-.202c-.483-.994-1.03-2.12-1.046-3.41v-.01c0-1.326.404-2.375 1.107-3.137.695-.753 1.622-1.162 2.566-1.327 1.842-.324 3.986.24 5.162 1.358a.75.75 0 11-1.033 1.087c-.776-.737-2.415-1.223-3.87-.968-.704.124-1.302.412-1.722.867z"/></svg>