<svg xmlns="http://www.w3.org/2000/svg" width="24" height="24"><path fill-rule="evenodd" d="M3.75 2A1.75 1.75 0 002 3.75v16.5c0 .966.784 1.75 1.75 1.75h16.5A1.75 1.75 0 0022 20.25V3.75A1.75 1.75 0 0020.25 2H3.75zm7.194 6.317c.001-.629.184-1.02.41-1.27.233-.258.573-.43.988-.505a2.936 2.936 0 011.286.069c.419.117.722.304.881.48a.75.75 0 101.115-1.003c-.405-.45-.992-.754-1.592-.922a4.435 4.435 0 00-1.958-.1c-.662.12-1.33.418-1.833.976-.512.566-.797 1.334-.797 2.279v.008c.01.905.338 1.696.616 2.365l.058.14.069.166H7.75a.75.75 0 000 1.5h2.882c.022.166.035.336.035.514 0 1.251-.477 2.429-.985 3.321a9.564 9.564 0 01-.913 1.325l-.058.068-.013.014-.002.002A.75.75 0 009.25 19h6.5a.75.75 0 000-1.5h-5.018c.083-.132.168-.273.253-.422.575-1.01 1.182-2.45 1.182-4.064 0-.177-.01-.348-.025-.514h2.108a.75.75 0 000-1.5h-2.457a14.979 14.979 0 00-.288-.738l-.026-.063c-.305-.738-.527-1.278-.535-1.882z"/></svg>