<svg xmlns="http://www.w3.org/2000/svg" width="24" height="24"><path d="M5.252 5.991a1.252 1.252 0 00-1.25 1.248 1.246 1.246 0 001.25 1.247 1.252 1.252 0 001.25-1.247 1.246 1.246 0 00-1.25-1.248z"/><path fill-rule="evenodd" d="M1.75 2A1.75 1.75 0 000 3.746v6.408c0 .728.29 1.426.806 1.94l9.563 9.54a1.25 1.25 0 001.768 0l7.546-7.526a1.245 1.245 0 000-1.764l-9.564-9.54A2.754 2.754 0 008.174 2H1.751zM1.5 3.746a.25.25 0 01.25-.25h6.424c.332 0 .65.132.884.366l9.387 9.364-7.192 7.174-9.386-9.364a1.246 1.246 0 01-.367-.882V3.746z"/><path d="M12.423 2.22a.751.751 0 011.061 0l10.15 10.124a1.245 1.245 0 010 1.764l-7.649 7.63a.751.751 0 01-1.06 0 .747.747 0 010-1.058l7.471-7.454-9.973-9.948a.747.747 0 010-1.059z"/></svg>