<svg xmlns="http://www.w3.org/2000/svg" width="24" height="24"><path fill-rule="evenodd" d="M5.324 2h13.352c.258 0 .494 0 .692.016.213.018.446.057.677.175.329.168.596.435.764.765.118.23.157.463.175.676.016.198.016.434.016.692V21.25a.75.75 0 01-1.23.576l-2.474-2.061-2.016 2.015a.75.75 0 01-1.034.025L12 19.764l-2.245 2.041a.75.75 0 01-1.035-.025l-2.016-2.015-2.474 2.061A.75.75 0 013 21.25V4.324c0-.258 0-.494.016-.692a1.77 1.77 0 01.175-.676 1.75 1.75 0 01.765-.765 1.77 1.77 0 01.676-.175C4.83 2 5.066 2 5.324 2zM4.63 3.53h.001zm.002-.001a.626.626 0 01.121-.018c.13-.01.304-.011.596-.011h13.3c.292 0 .467 0 .596.011a.625.625 0 01.12.018.25.25 0 01.105.104.638.638 0 01.018.121c.01.13.011.304.011.596v15.299l-1.77-1.475a.75.75 0 00-1.01.046l-1.995 1.994-2.22-2.019a.75.75 0 00-1.01 0l-2.22 2.019L7.28 18.22a.75.75 0 00-1.01-.046L4.5 19.649V4.35c0-.292 0-.467.011-.596a.628.628 0 01.018-.12.25.25 0 01.104-.105zm-.103.102v.001zm14.94 0v.001zm-.1-.101h-.002z"/></svg>