<svg xmlns="http://www.w3.org/2000/svg" width="24" height="24"><path d="M16.22 16.22a.75.75 0 011.06 0L20 18.94l2.72-2.72a.75.75 0 111.06 1.06L21.06 20l2.72 2.72a.75.75 0 11-1.06 1.06L20 21.06l-2.72 2.72a.75.75 0 11-1.06-1.06L18.94 20l-2.72-2.72a.75.75 0 010-1.06z"/><path fill-rule="evenodd" d="M5.324 2h13.352c.258 0 .494 0 .692.016.213.018.446.057.677.175.329.168.596.435.764.765.118.23.157.463.175.676.016.198.016.434.016.692v5.926a.75.75 0 01-1.5 0v-5.9c0-.292 0-.467-.011-.596a.638.638 0 00-.018-.12.25.25 0 00-.105-.105.625.625 0 00-.12-.018 8.336 8.336 0 00-.596-.011H5.35c-.292 0-.467 0-.596.011a.626.626 0 00-.12.018.25.25 0 00-.105.104.626.626 0 00-.018.121c-.01.13-.011.304-.011.596v15.299l1.77-1.475a.75.75 0 011.01.046l1.995 1.994 2.22-2.019a.75.75 0 011.01 1.11l-2.75 2.5a.75.75 0 01-1.035-.025l-2.016-2.015-2.474 2.061A.75.75 0 013 21.25V4.324c0-.258 0-.494.016-.692a1.77 1.77 0 01.175-.676 1.75 1.75 0 01.765-.765 1.77 1.77 0 01.676-.175C4.83 2 5.066 2 5.324 2zM4.53 3.63v.002zm.1-.1h.002zm14.74 0h-.002zm.1.1v.002z"/></svg>