<svg xmlns="http://www.w3.org/2000/svg" width="24" height="24"><path d="M20.194 15.529a1.557 1.557 0 00-1.035.185 1.51 1.51 0 00-.669.797.77.77 0 01-.977.46.748.748 0 01-.47-.96 3.02 3.02 0 011.339-1.593 3.116 3.116 0 012.071-.37 3.08 3.08 0 011.827 1.026 2.97 2.97 0 01.72 1.939c0 1.15-.87 1.909-1.49 2.315-.2.13-.396.24-.574.329a.644.644 0 00-.163.097.24.24 0 00-.058.093c-.013.04-.013.085-.013.178v.223a.76.76 0 01-.767.752.76.76 0 01-.767-.752v-.982c0-.323.21-.61.523-.713 0 0 .198-.074.292-.115.189-.082.435-.204.676-.361.528-.345.808-.713.808-1.065a1.49 1.49 0 00-.36-.97 1.538 1.538 0 00-.913-.513zM20 22a1 1 0 110 2 1 1 0 010-2z"/><path fill-rule="evenodd" d="M5.324 2h13.352c.258 0 .494 0 .692.016.213.018.446.057.677.175.329.168.596.435.764.765.118.23.157.463.175.676.016.198.016.434.016.692v5.926a.75.75 0 01-1.5 0v-5.9c0-.292 0-.467-.011-.596a.638.638 0 00-.018-.12.25.25 0 00-.105-.105.625.625 0 00-.12-.018 8.336 8.336 0 00-.596-.011H5.35c-.292 0-.467 0-.596.011a.626.626 0 00-.12.018.25.25 0 00-.105.104.626.626 0 00-.018.121c-.01.13-.011.304-.011.596v15.299l1.77-1.475a.75.75 0 011.01.046l1.995 1.994 2.22-2.019a.75.75 0 011.01 1.11l-2.75 2.5a.75.75 0 01-1.035-.025l-2.016-2.015-2.474 2.061A.75.75 0 013 21.25V4.324c0-.258 0-.494.016-.692a1.77 1.77 0 01.175-.676 1.75 1.75 0 01.765-.765 1.77 1.77 0 01.676-.175C4.83 2 5.066 2 5.324 2zM4.53 3.63v.002zm.1-.1h.002zm14.74 0h-.002zm.1.1v.002z"/></svg>