<svg xmlns="http://www.w3.org/2000/svg" width="24" height="24"><path fill-rule="evenodd" d="M3.75 2A1.75 1.75 0 002 3.75v16.5c0 .966.784 1.75 1.75 1.75h16.5A1.75 1.75 0 0022 20.25V3.75A1.75 1.75 0 0020.25 2H3.75zm5.26 3.75A.75.75 0 019.76 5h4.18c1.82 0 3.56 1.539 3.56 3.703 0 2.132-1.708 3.797-3.56 3.797h-3.43v2.034h3.79a.75.75 0 010 1.5h-3.79v2.216a.75.75 0 01-1.5 0v-2.216H7.75a.75.75 0 010-1.5h1.26V12.5H7.75a.75.75 0 010-1.5h1.26V5.75zm1.5 5.25V6.5h3.43c1.007 0 2.06.882 2.06 2.203C16 10.055 14.916 11 13.94 11h-3.43z"/></svg>