<svg xmlns="http://www.w3.org/2000/svg" width="24" height="24"><path fill-rule="evenodd" d="M9.76 5a.75.75 0 00-.75.75V11H7.75a.75.75 0 000 1.5h1.26v2.034H7.75a.75.75 0 000 1.5h1.26v2.216a.75.75 0 001.5 0v-2.216h3.79a.75.75 0 000-1.5h-3.79V12.5h3.43c1.852 0 3.56-1.665 3.56-3.797C17.5 6.539 15.76 5 13.94 5H9.76zm.75 6V6.5h3.43c1.007 0 2.06.882 2.06 2.203C16 10.055 14.916 11 13.94 11h-3.43z"/><path fill-rule="evenodd" d="M1 12C1 5.925 5.925 1 12 1s11 4.925 11 11-4.925 11-11 11S1 18.075 1 12zm4.282-6.718a9.5 9.5 0 1013.435 13.435A9.5 9.5 0 005.282 5.282z"/></svg>