<svg xmlns="http://www.w3.org/2000/svg" width="24" height="24"><path fill-rule="evenodd" d="M5 2.75A.75.75 0 015.75 2h12.5a.75.75 0 010 1.5h-4.637c.135.125.264.256.385.392.84.946 1.32 2.138 1.46 3.358h2.792a.75.75 0 010 1.5h-2.793c-.138 1.22-.619 2.412-1.459 3.358C12.974 13.26 11.454 14 9.5 14H7.805l7.928 6.676a.75.75 0 01-.966 1.148l-9.5-8A.75.75 0 015.75 12.5H9.5c1.546 0 2.651-.572 3.377-1.389.576-.649.938-1.479 1.068-2.361H5.75a.75.75 0 110-1.5h8.195c-.13-.882-.492-1.712-1.068-2.361C12.151 4.072 11.047 3.5 9.5 3.5H5.75A.75.75 0 015 2.75z"/></svg>