<svg xmlns="http://www.w3.org/2000/svg" width="24" height="24"><path fill-rule="evenodd" d="M3.75 2A1.75 1.75 0 002 3.75v16.5c0 .966.784 1.75 1.75 1.75h16.5A1.75 1.75 0 0022 20.25V3.75A1.75 1.75 0 0020.25 2H3.75zm4 3.5a.75.75 0 000 1.5h2.9c1.097 0 1.868.414 2.375 1 .358.415.602.936.718 1.5H7.75a.75.75 0 100 1.5h6.005a3.329 3.329 0 01-.73 1.56c-.507.586-1.278 1-2.375 1h-2.9a.75.75 0 00-.385 1.394l6.58 3.94a.75.75 0 10.77-1.287l-4.252-2.546h.187c1.518 0 2.708-.593 3.51-1.519.624-.723.99-1.621 1.114-2.542h.976a.75.75 0 000-1.5h-.984c-.132-.9-.495-1.774-1.107-2.481L14.143 7h2.107a.75.75 0 000-1.5h-8.5z"/></svg>