<svg xmlns="http://www.w3.org/2000/svg" width="24" height="24"><path d="M7.75 5.5a.75.75 0 000 1.5h2.9c1.097 0 1.868.414 2.375 1 .358.415.602.936.718 1.5H7.75a.75.75 0 000 1.5h6.005a3.329 3.329 0 01-.73 1.56c-.507.586-1.278 1-2.375 1h-2.9a.75.75 0 00-.385 1.394l6.58 3.94a.75.75 0 10.77-1.287l-4.252-2.546h.187c1.518 0 2.708-.593 3.51-1.519.624-.723.99-1.621 1.114-2.542h.976a.75.75 0 000-1.5h-.984c-.132-.9-.495-1.774-1.107-2.481L14.143 7h2.107a.75.75 0 000-1.5h-8.5z"/><path fill-rule="evenodd" d="M1 12C1 5.925 5.925 1 12 1s11 4.925 11 11-4.925 11-11 11S1 18.075 1 12zm4.282-6.718a9.5 9.5 0 1013.435 13.435A9.5 9.5 0 005.282 5.282z"/></svg>