<svg xmlns="http://www.w3.org/2000/svg" width="24" height="24"><path d="M18.75 6a.75.75 0 01.75.75v9a.75.75 0 01-1.5 0v-9a.75.75 0 01.75-.75z"/><path fill-rule="evenodd" d="M13 11.25a4 4 0 11-8 0 4 4 0 018 0zm-1.5 0a2.5 2.5 0 11-5 0 2.5 2.5 0 015 0z"/><path fill-rule="evenodd" d="M1 3.75C1 2.784 1.784 2 2.75 2h18.5c.966 0 1.75.784 1.75 1.75v15a1.75 1.75 0 01-1.75 1.75H20v.5a1 1 0 01-1 1h-1a1 1 0 01-1-1v-.5H7v.5a1 1 0 01-1 1H5a1 1 0 01-1-1v-.5H2.75A1.75 1.75 0 011 18.75v-15zM21.25 19H2.75a.25.25 0 01-.25-.25v-15a.25.25 0 01.25-.25h18.5a.25.25 0 01.25.25v15a.25.25 0 01-.25.25z"/></svg>