<svg xmlns="http://www.w3.org/2000/svg" width="24" height="24"><path d="M16.78 7.22a.75.75 0 010 1.06l-8.5 8.5a.75.75 0 01-1.06-1.06l8.5-8.5a.75.75 0 011.06 0zM10 8.75a1.25 1.25 0 11-2.5 0 1.25 1.25 0 012.5 0zm6.5 6.5a1.25 1.25 0 11-2.5 0 1.25 1.25 0 012.5 0z"/><path fill-rule="evenodd" d="M12 .5a3.61 3.61 0 012.136.7l1.375 1.01c.274.201.593.333.929.384l1.687.259a3.61 3.61 0 013.02 3.021l.259 1.686c.051.336.183.655.384.929l1.01 1.375a3.61 3.61 0 010 4.272l-1.01 1.375a2.11 2.11 0 00-.384.929l-.259 1.687a3.61 3.61 0 01-3.021 3.02l-1.686.259a2.11 2.11 0 00-.929.384l-1.375 1.01a3.61 3.61 0 01-4.272 0l-1.375-1.01a2.106 2.106 0 00-.929-.384l-1.687-.259a3.61 3.61 0 01-3.02-3.021l-.259-1.686a2.117 2.117 0 00-.384-.929L1.2 14.136a3.61 3.61 0 010-4.272l1.01-1.375a2.11 2.11 0 00.384-.929l.259-1.687a3.61 3.61 0 013.021-3.02l1.686-.259a2.11 2.11 0 00.929-.384L9.864 1.2A3.61 3.61 0 0112 .5zM12 2a2.11 2.11 0 00-1.248.409l-1.375 1.01a3.61 3.61 0 01-1.59.658l-1.686.258a2.11 2.11 0 00-1.766 1.766l-.258 1.686a3.61 3.61 0 01-.658 1.589l-1.01 1.376a2.11 2.11 0 000 2.496l1.01 1.375c.344.47.57 1.015.658 1.59l.258 1.686a2.11 2.11 0 001.766 1.766l1.686.258a3.61 3.61 0 011.589.658l1.376 1.01a2.11 2.11 0 002.496 0l1.375-1.01a3.61 3.61 0 011.59-.657l1.686-.26a2.11 2.11 0 001.766-1.765l.258-1.686a3.61 3.61 0 01.658-1.589l1.01-1.376a2.11 2.11 0 000-2.496l-1.01-1.375a3.61 3.61 0 01-.657-1.59l-.26-1.686a2.11 2.11 0 00-1.765-1.766l-1.686-.258a3.61 3.61 0 01-1.589-.658l-1.376-1.01A2.11 2.11 0 0012 2z"/></svg>