<svg xmlns="http://www.w3.org/2000/svg" width="24" height="24"><path fill-rule="evenodd" d="M18.39 3.512a1.75 1.75 0 012.474 0l2.586 2.586a1.75 1.75 0 010 2.474l-2.793 2.793-.012.013-5.456 5.455a1.75 1.75 0 01-.699.409l-5.523 1.68a.75.75 0 01-.935-.935l1.673-5.5a1.75 1.75 0 01.466-.756l8.219-8.219zm-2.275 4.371l-4.908 4.933a.25.25 0 00-.067.108l-1.264 4.154 4.177-1.271a.25.25 0 00.1-.06l4.9-4.925 3.337-3.309a.251.251 0 000-.354l-2.586-2.586a.25.25 0 00-.354 0l-3.335 3.31z"/><path d="M1.28 13.72a.75.75 0 00-1.06 1.06l1.47 1.47-1.47 1.47a.75.75 0 101.06 1.06l1.47-1.47 1.47 1.47a.75.75 0 001.06-1.06l-1.47-1.47 1.47-1.47a.75.75 0 10-1.06-1.06l-1.47 1.47-1.47-1.47zM.75 20.5a.75.75 0 000 1.5h22.5a.75.75 0 000-1.5H.75z"/></svg>