<svg xmlns="http://www.w3.org/2000/svg" width="24" height="24"><path fill-rule="evenodd" d="M3.75 3A2.75 2.75 0 001 5.75v12.5A2.75 2.75 0 003.75 21h15.5A2.75 2.75 0 0022 18.25V15h.25A1.75 1.75 0 0024 13.25v-2.5A1.75 1.75 0 0022.25 9H22V5.75A2.75 2.75 0 0019.25 3H3.75zM20.5 9V5.75c0-.69-.56-1.25-1.25-1.25H3.75c-.69 0-1.25.56-1.25 1.25v12.5c0 .69.56 1.25 1.25 1.25h15.5c.69 0 1.25-.56 1.25-1.25V15h-2.75A1.75 1.75 0 0116 13.25v-2.5c0-.966.784-1.75 1.75-1.75h2.75zm-3 1.75a.25.25 0 01.25-.25h4.5a.25.25 0 01.25.25v2.5a.25.25 0 01-.25.25h-4.5a.25.25 0 01-.25-.25v-2.5z"/></svg>