<svg xmlns="http://www.w3.org/2000/svg" width="24" height="24"><path d="M7.094 5.62a.75.75 0 011.037.224L12 11.864l3.87-6.02a.75.75 0 011.26.812L14.339 11h2.912a.75.75 0 010 1.5h-3.876l-.624.97v1.03h2.5a.75.75 0 010 1.5h-2.5v3.25a.75.75 0 01-1.5 0V16h-2.5a.75.75 0 010-1.5h2.5v-1.03l-.624-.97H6.75a.75.75 0 010-1.5h2.912L6.869 6.656a.75.75 0 01.225-1.037z"/><path fill-rule="evenodd" d="M1 12C1 5.925 5.925 1 12 1s11 4.925 11 11-4.925 11-11 11S1 18.075 1 12zm4.282-6.718a9.5 9.5 0 1013.435 13.435A9.5 9.5 0 005.282 5.282z"/></svg>